<svg width="171" height="45" viewBox="0 0 171 45" fill="none" xmlns="http://www.w3.org/2000/svg">
<g clip-path="url(#clip0_72_1123)">
<path d="M5.49215 42.9309C4.96049 42.9309 4.46495 43.2948 4.01072 43.196C3.49454 43.0817 3.07643 42.8269 2.66865 42.5826C2.24022 42.3278 1.54854 42.2863 1.23883 41.886C0.985904 41.5584 1.36271 40.8462 1.19238 40.4927C1.02204 40.1392 0.356164 39.9468 0.273576 39.5517C0.190987 39.1566 0.748461 38.7147 0.748461 38.2988C0.748461 37.7166 0.376812 37.1083 0.552313 36.5469C0.743299 35.923 0.846535 35.1328 1.2698 34.6442C1.70856 34.1399 2.70478 34.3426 3.37065 34.0515C3.71133 33.9007 4.00555 33.8488 4.40818 33.776C4.77466 33.7084 5.08953 33.5472 5.50248 33.5472C6.24061 33.5472 6.24061 33.1209 6.98391 33.1209C7.72721 33.1209 7.72205 33.5836 8.46019 33.5836C9.19832 33.5836 9.19832 32.9962 9.94162 32.9962C10.6849 32.9962 10.6798 33.3861 11.4231 33.3861C12.1664 33.3861 12.1612 33.2613 12.9045 33.2613C13.6478 33.2613 13.6478 33.1313 14.3859 33.1313C15.1241 33.1313 15.3822 33.828 15.8932 33.2873C16.4042 32.7466 16.0325 32.4815 16.0325 31.7017C16.0325 30.9219 15.7899 30.9219 15.7899 30.1369C15.7899 29.695 15.7796 29.2479 15.857 28.8424C15.9396 28.4161 16.4506 28.151 16.621 27.7715C16.6778 27.6467 16.4868 27.2672 16.5487 27.1528C16.2906 27.2672 15.9758 27.3868 15.7177 27.4907C15.2686 27.6727 14.9744 28.3017 14.515 28.4577C14.0556 28.6137 13.4981 28.4889 13.0335 28.6241C12.569 28.7592 12.0683 28.7748 11.5986 28.8788C11.134 28.9828 10.6694 29.0659 10.21 29.1491C9.75064 29.2323 9.2964 29.4818 8.83184 29.5338C8.36727 29.5858 7.88206 29.6846 7.4175 29.7158C7.23684 29.7262 7.04069 29.4558 6.85487 29.4558C6.4316 29.4558 6.09092 29.1491 5.69862 29.0763C5.28568 28.9984 4.79015 29.3415 4.41334 29.1907C4.03653 29.0399 3.57196 28.9464 3.23129 28.7124C2.83899 28.4369 2.80802 27.7819 2.51896 27.4387C2.2299 27.0956 2.04923 26.7213 1.86341 26.3002C1.67758 25.8791 1.26464 25.5516 1.19754 25.0785C1.13043 24.6418 1.01171 24.1948 1.04785 23.7789C1.08398 23.363 1.36788 22.9627 1.51241 22.5572C1.65694 22.1517 1.64661 21.663 1.88922 21.2991C2.15247 20.904 2.59638 20.6388 2.95255 20.3529C3.30871 20.067 3.81973 20.1034 4.26364 19.9318C4.67659 19.7759 5.06889 19.7499 5.54893 19.6979C6.00833 19.6563 6.45741 19.4951 6.89616 19.4275C7.33491 19.36 7.67043 18.6477 8.10402 18.549C8.53761 18.4502 9.13122 18.9233 9.55965 18.7933C10.1378 18.6217 10.592 18.1487 11.1082 17.9251C11.6657 17.686 12.3264 17.6808 12.8064 17.3896C13.2297 17.1245 13.3794 16.5059 13.7304 16.1887C14.0814 15.8716 14.3085 15.4609 14.5976 15.071C14.7731 14.8319 15.2376 14.5252 15.377 14.26C14.7111 14.1145 14.644 14.5252 13.9627 14.5252C13.2813 14.5252 13.2813 14.3692 12.5999 14.3692C11.9186 14.3692 11.9186 14.8267 11.2372 14.8267C10.5559 14.8267 10.5559 14.7643 9.87452 14.7643C9.19316 14.7643 9.19316 14.3328 8.50664 14.3328C7.82012 14.3328 7.82528 14.494 7.13877 14.494C6.60194 14.494 6.01866 14.8267 5.56442 14.7279C5.04824 14.6083 4.58884 14.1872 4.17589 13.9377C3.74746 13.6778 3.36549 13.2723 3.06095 12.8668C2.80802 12.5393 3.00417 11.9726 2.83383 11.6139C2.66349 11.2552 2.4054 10.9692 2.31765 10.5793C2.2299 10.1894 1.58467 9.83073 1.58467 9.42003C1.58467 8.83778 1.85825 8.17754 2.03375 7.61608C2.21957 7.00783 2.51896 6.3112 2.9319 5.80693C3.37065 5.27666 4.25332 5.24027 4.92952 4.93874C5.2702 4.78798 5.64184 4.90755 6.04446 4.83477C6.41095 4.76719 6.73098 4.50205 7.13877 4.50205C7.8769 4.50205 7.8769 4.15374 8.61504 4.15374C9.35318 4.15374 9.35318 4.41887 10.0913 4.41887C10.8294 4.41887 10.8295 4.56964 11.5727 4.56964C12.316 4.56964 12.3109 3.9198 13.0542 3.9198C13.7975 3.9198 13.7975 3.899 14.5356 3.899C15.2738 3.899 15.2067 4.22652 15.9138 4.00298C16.0532 3.48311 16.2339 3.24917 16.5023 2.82287C16.7707 2.39658 17.0959 1.8871 17.4985 1.54919C17.8856 1.22687 18.6186 1.4868 19.0935 1.27886C19.5426 1.0813 19.8368 0.369082 20.3581 0.275505C20.833 0.187127 21.3802 0.686203 21.9118 0.686203C22.4435 0.686203 22.939 0.452261 23.4139 0.545838C23.9301 0.644613 24.534 0.49905 24.9831 0.701799C25.4322 0.904549 25.8812 1.29445 26.2684 1.62197C26.6762 1.95989 26.8568 2.52135 27.1304 2.94764C27.404 3.37393 27.6517 3.81582 27.7963 4.3305C28.5034 4.55404 28.5344 4.08096 29.2725 4.08096C30.0107 4.08096 30.0107 4.46046 30.754 4.46046C31.4973 4.46046 31.4921 4.63202 32.2354 4.63202C32.9787 4.63202 32.9736 4.45007 33.7169 4.45007C34.4602 4.45007 34.4602 4.17973 35.1983 4.17973C35.9364 4.17973 35.9416 4.41368 36.6797 4.41368C37.0927 4.41368 37.4746 4.39288 37.8411 4.46046C38.2437 4.53325 38.7032 4.42407 39.049 4.57484C39.7252 4.87636 40.4014 5.31825 40.8401 5.84852C41.2582 6.35279 41.2686 7.10661 41.4544 7.72005C41.6299 8.28151 41.5525 8.83778 41.5525 9.42003C41.5525 9.83073 41.7951 10.2414 41.7073 10.6261C41.6196 11.0108 41.2169 11.276 41.0414 11.6451C40.8659 12.0142 40.7214 12.3209 40.4685 12.6484C40.1588 13.0539 40.1175 13.7661 39.6891 14.0261C39.2606 14.286 38.6773 14.2132 38.1612 14.3328C37.7069 14.4368 37.2114 14.8007 36.6746 14.8007C36.0448 14.8007 36.0448 14.416 35.4099 14.416C34.775 14.416 34.7802 14.2808 34.1453 14.2808C33.5104 14.2808 33.5155 14.0989 32.8806 14.0989C32.2457 14.0989 32.2457 14.1768 31.6108 14.182C31.6779 14.1976 31.6728 14.7955 31.7399 14.8163C32.1993 14.9463 32.8032 14.6187 33.242 14.7851C33.6807 14.9515 34.0266 15.3985 34.4498 15.6013C34.8731 15.804 35.3222 15.9808 35.73 16.2251C36.1377 16.4695 36.4578 16.8386 36.8397 17.1245C37.232 17.4156 37.5521 17.7744 37.9082 18.1123C38.2644 18.4502 38.8374 18.5698 39.1574 18.9441C39.4774 19.3184 39.8387 19.6719 40.1226 20.0826C40.4065 20.4933 40.2672 21.1431 40.5098 21.5798C40.7266 21.9645 41.2428 22.1985 41.4183 22.6195C41.5938 23.0406 41.3047 23.5969 41.4389 24.0284C41.5731 24.4599 42.2958 24.7146 42.3887 25.1617C42.4816 25.6088 42.6468 26.0455 42.7087 26.4978C42.7706 26.9501 42.048 27.4543 42.0738 27.9118C42.1254 28.7436 43.1578 28.9464 42.6416 29.5962C42.1977 30.1525 41.8725 29.6482 41.1602 29.6482C40.4478 29.6482 40.453 29.4974 39.7407 29.4974C39.0283 29.4974 39.0335 29.3727 38.3263 29.3727C37.6192 29.3727 37.6192 29.9185 36.9068 29.9185C36.1945 29.9185 36.1997 29.5806 35.4874 29.5806C34.775 29.5806 34.7802 29.7782 34.0679 29.7782C33.3555 29.7782 33.3555 29.2999 32.6484 29.2999C31.9412 29.2999 31.9722 29.7418 31.4095 29.3051C30.8985 28.91 31.265 28.8736 31.1514 28.2393C31.074 27.8286 30.6611 27.5323 30.5165 27.1736C30.3669 26.7889 30.4856 26.2638 30.2585 25.9415C30.0313 25.6192 29.4377 25.64 29.159 25.3749C28.8803 25.1097 28.9835 24.3351 28.6531 24.122C28.3021 23.8984 27.8221 23.7529 27.4091 23.5865C27.0272 23.4305 26.5007 23.5917 26.0671 23.4877C25.5819 23.3734 25.0554 23.5137 24.5392 23.4565C24.023 23.3994 23.5584 23.2174 23.0371 23.2174C22.9648 23.2174 23.1661 23.4617 23.0887 23.4721C22.6551 23.8984 21.9015 23.9608 21.4163 24.3507C21.5505 24.3455 21.7054 24.4183 21.8447 24.4183C22.2112 24.4183 22.6242 24.1116 22.9906 24.1688C23.3571 24.2259 23.6617 24.6003 24.0127 24.7198C24.3637 24.8394 24.5289 25.3073 24.8489 25.484C25.1689 25.6608 25.3754 25.8895 25.6541 26.1235C25.9535 26.373 26.3045 26.4666 26.542 26.7837C26.7794 27.1008 27.022 27.3504 27.1872 27.7143C27.3575 28.0938 27.6621 28.4265 27.7498 28.8528C27.8272 29.2583 28.1731 29.6846 28.1731 30.1265C28.1731 30.9063 28.0286 30.9063 28.0286 31.6913C28.0286 32.4763 27.1252 32.861 27.6621 33.4225C28.1989 33.9839 28.5809 33.0118 29.3293 33.0118C30.0778 33.0118 30.0726 33.1365 30.8211 33.1365C31.5695 33.1365 31.5644 33.3185 32.3128 33.3185C33.0613 33.3185 33.0561 33.3549 33.8046 33.3549C34.5531 33.3549 34.5531 32.9078 35.2964 32.9078C36.0397 32.9078 36.0448 33.2769 36.7881 33.2769C37.5314 33.2769 37.5366 33.1677 38.2799 33.1677C38.6928 33.1677 39.08 33.2769 39.4464 33.3393C39.8491 33.4121 40.3652 33.2041 40.7059 33.3549C41.3718 33.646 41.4957 34.6286 41.9344 35.1328C42.3629 35.6267 43.3591 35.8139 43.5501 36.4377C43.7256 37.0044 43.4727 37.7062 43.4727 38.2936C43.4727 38.7043 43.1991 39.0683 43.1113 39.453C43.0236 39.8377 43.0133 40.238 42.8377 40.6071C42.6622 40.9762 42.6777 41.4597 42.4248 41.7872C42.1151 42.1875 41.5318 42.307 41.1034 42.5618C40.6956 42.8061 40.3136 43.2116 39.8026 43.326C39.3484 43.4248 38.8219 43.4196 38.2902 43.4196C37.5779 43.4196 37.5779 43.7055 36.8656 43.7055C36.1532 43.7055 36.1532 42.9049 35.4409 42.9049C34.7286 42.9049 34.7286 42.9673 34.0162 42.9673C33.3039 42.9673 33.3039 42.8997 32.5967 42.8997C31.8896 42.8997 31.8844 43.7211 31.1721 43.7211C30.4598 43.7211 30.4598 43.6379 29.7474 43.6379C29.0351 43.6379 29.0351 43.0921 28.3228 43.0921C27.6105 43.0921 27.6105 43.0037 26.8981 43.0037C26.1858 43.0037 26.1858 43.6743 25.4735 43.6743C24.7611 43.6743 24.7611 43.5859 24.0488 43.5859C23.3365 43.5859 23.3365 42.9673 22.6242 42.9673C21.9118 42.9673 21.9118 43.3468 21.1995 43.3468C20.4872 43.3468 20.4872 43.0089 19.7748 43.0089C19.0625 43.0089 19.0625 42.9829 18.3502 42.9829C17.6379 42.9829 17.6379 43.2064 16.9255 43.2064C16.2132 43.2064 16.2132 43.456 15.5009 43.456C14.7885 43.456 14.7885 42.9569 14.0762 42.9569C13.3639 42.9569 13.3639 43.1336 12.6516 43.1336C11.9392 43.1336 11.9392 42.9517 11.2269 42.9517C10.5146 42.9517 10.5146 43.404 9.80225 43.404C9.08992 43.404 9.08992 43.3884 8.3776 43.3884C7.66527 43.3884 7.58268 43.8147 6.88068 43.6847C6.14254 43.5443 6.23545 42.9153 5.51796 42.9153L5.49215 42.9309Z" stroke="black" stroke-miterlimit="10"/>
<path d="M17.6791 35.0861C18.216 34.5246 17.1268 34.0359 17.1268 33.2561C17.1268 32.4763 17.0649 32.4763 17.0649 31.6913C17.0649 30.9063 17.514 30.9115 17.514 30.1265C17.514 29.4403 17.3901 28.7696 17.6275 28.2394C17.8701 27.7091 18.2469 27.236 18.6599 26.8773C19.0728 26.5186 19.589 26.2535 20.1155 26.0819C20.642 25.9103 21.2356 25.5412 21.8292 25.5412C22.4228 25.5412 22.8358 26.3626 23.3726 26.5498C23.9146 26.7369 24.7405 26.3678 25.1534 26.711C25.5664 27.0541 25.5457 27.8287 25.7883 28.3589C26.0309 28.8892 26.4181 29.4455 26.4181 30.1317C26.4181 30.9115 26.4284 30.9115 26.4284 31.6913C26.4284 32.4711 26.5316 32.4711 26.5316 33.2561C26.5316 34.0411 25.8348 34.1555 26.3768 34.717C26.9188 35.2784 27.022 35.0549 27.7705 35.0549C28.5189 35.0549 28.5189 34.5766 29.2674 34.5766C30.0158 34.5766 30.0158 34.9353 30.7643 34.9353C31.5128 34.9353 31.5128 34.561 32.2612 34.561C33.0097 34.561 33.0097 34.8729 33.7581 34.8729C34.5066 34.8729 34.5066 34.8053 35.2551 34.8053C36.0035 34.8053 36.0035 35.0289 36.7571 35.0289C37.5108 35.0289 37.5056 34.8521 38.2592 34.8521C38.9148 34.8521 39.6116 34.5974 40.0659 34.7949C40.5201 34.9977 40.5304 35.7827 40.8143 36.1102C41.0982 36.4377 41.826 36.5261 41.9551 36.942C42.0841 37.3579 42.2338 37.8778 42.2338 38.3041C42.2338 38.7304 41.8157 39.193 41.6763 39.5933C41.537 39.9936 41.0776 40.1912 40.804 40.5447C40.4995 40.9398 40.4117 41.756 39.8904 41.9328C39.4619 42.0783 38.8373 42.0003 38.2592 42.0003C37.5469 42.0003 37.5469 41.6572 36.8346 41.6572C36.1222 41.6572 36.1222 41.964 35.4099 41.964C34.6976 41.964 34.6976 42.0315 33.9853 42.0315C33.2729 42.0315 33.2729 41.964 32.5658 41.964C31.8586 41.964 31.8534 41.8028 31.1411 41.8028C30.4288 41.8028 30.4288 41.704 29.7165 41.704C29.0041 41.704 29.0041 41.7612 28.2918 41.7612C27.5795 41.7612 27.5795 41.4077 26.8671 41.4077C26.1548 41.4077 26.1548 41.7976 25.4425 41.7976C24.7302 41.7976 24.7302 42.1615 24.0178 42.1615C23.3055 42.1615 23.3055 41.4857 22.5932 41.4857C21.8808 41.4857 21.8808 41.5637 21.1685 41.5637C20.4562 41.5637 20.4562 42.0471 19.7439 42.0471C19.0315 42.0471 19.0315 41.5429 18.3192 41.5429C17.6069 41.5429 17.6069 41.626 16.8945 41.626C16.1822 41.626 16.1822 41.73 15.4699 41.73C14.7576 41.73 14.7576 42.0107 14.0452 42.0107C13.3329 42.0107 13.3329 42.1719 12.6206 42.1719C11.9083 42.1719 11.9083 41.9536 11.1959 41.9536C10.4836 41.9536 10.4836 41.4753 9.77127 41.4753C9.05894 41.4753 9.05894 42.1771 8.34661 42.1771C7.63429 42.1771 7.63429 41.5793 6.9168 41.5793C6.19931 41.5793 6.20447 41.73 5.48698 41.73C4.90886 41.73 4.52688 41.3505 4.09846 41.2049C3.57195 41.0282 3.05577 41.0906 2.75123 40.6955C2.47765 40.3368 2.14213 40.0144 2.00277 39.6141C1.8634 39.2138 1.61563 38.746 1.61563 38.2989C1.61563 37.8518 1.82726 37.4047 1.95115 36.9888C2.08019 36.5729 2.57056 36.3753 2.85446 36.0426C3.13836 35.7151 3.32419 35.2264 3.77842 35.0237C4.23266 34.8209 4.82627 35.0029 5.48182 35.0029C6.22512 35.0029 6.22512 35.1173 6.96841 35.1173C7.71171 35.1173 7.71171 34.8157 8.45501 34.8157C9.19831 34.8157 9.19831 34.5246 9.94161 34.5246C10.6849 34.5246 10.6849 34.7274 11.4282 34.7274C12.1715 34.7274 12.1715 34.9925 12.9148 34.9925C13.6581 34.9925 13.6581 34.4986 14.4014 34.4986C15.1447 34.4986 15.1963 34.535 15.9138 34.7481C16.8326 35.0185 17.1475 35.6267 17.6637 35.0861H17.6791ZM26.0051 12.5601C25.9896 12.9708 26.32 13.7974 26.258 14.1977C26.1961 14.598 26.0825 14.7279 25.969 15.1178C26.129 15.2946 25.9587 15.4609 26.1961 15.4609C26.6349 15.4609 27.0839 15.2166 27.5175 15.2426C27.9511 15.2686 28.395 15.3414 28.8286 15.3986C29.2622 15.4558 29.6958 15.5545 30.1242 15.6429C30.5527 15.7313 31.0585 15.5701 31.4818 15.6845C31.8999 15.7989 32.0754 16.6463 32.4729 16.797C32.8703 16.9478 33.5568 16.4383 33.9388 16.6255C34.3208 16.8126 34.4756 17.4573 34.8421 17.6808C35.2086 17.9043 35.7145 17.9095 36.0603 18.1695C36.4113 18.4294 36.7623 18.7101 37.0823 19.0117C37.4024 19.3132 37.7895 19.5679 38.0734 19.9006C38.3573 20.2334 38.5431 20.6597 38.7909 21.0236C39.0387 21.3875 38.9457 21.9437 39.1625 22.3336C39.4051 22.7651 40.0452 23.0147 40.231 23.4878C40.4169 23.9608 40.231 24.5379 40.3549 25.037C40.4788 25.536 40.9434 25.9311 41.0208 26.4406C41.0931 26.9241 40.8711 27.418 40.9021 27.9326C40.2465 28.1822 40.2207 28.0002 39.5187 28.0002C38.8167 28.0002 38.8167 27.7767 38.1199 27.7767C37.423 27.7767 37.4179 27.9534 36.721 27.9534C36.0242 27.9534 36.019 28.3381 35.3222 28.3381C34.6253 28.3381 34.6202 27.6883 33.9182 27.6883C33.2162 27.6883 33.0716 28.5149 32.4109 28.281C32.3128 27.7507 31.9154 27.1009 31.7296 26.6434C31.5334 26.1547 31.616 25.5828 31.3218 25.1721C31.0379 24.7718 30.9398 24.1844 30.5888 23.8517C30.2378 23.5189 29.4738 23.7373 29.0609 23.4722C28.6376 23.2018 28.3073 22.8379 27.8169 22.6352C27.3575 22.448 26.9755 21.9697 26.4594 21.8398C25.9122 21.7098 25.3031 21.9073 24.725 21.845C24.1469 21.7826 23.6204 21.8242 23.0371 21.8242C22.7222 21.8242 22.4899 21.7722 22.1493 21.8554C21.8344 22.1829 21.4214 22.3596 21.0756 22.6612C20.7298 22.9627 20.322 23.1706 19.9555 23.4462C19.589 23.7217 19.2535 24.0232 18.8664 24.2676C18.4741 24.5171 17.9063 24.4391 17.5036 24.6575C17.101 24.8758 16.8739 25.4321 16.4558 25.6296C16.0377 25.8272 15.7486 26.347 15.3202 26.5238C14.8918 26.7006 14.2311 26.2223 13.7975 26.3678C13.3639 26.5134 12.9613 26.7213 12.5225 26.8461C12.0838 26.9709 11.7534 27.5479 11.3095 27.6519C10.8707 27.7507 10.3339 27.3452 9.90031 27.418C9.46672 27.4908 9.03829 27.6415 8.59954 27.6935C8.16079 27.7455 7.7272 27.8963 7.28328 27.9222C6.71032 27.9638 6.1322 28.203 5.64183 28.0886C5.10501 27.9638 4.44946 27.8495 4.0107 27.5427C3.5926 27.2516 3.33967 26.6746 3.0919 26.2795C2.84414 25.8844 3.1332 25.2969 3.06093 24.7926C2.98867 24.3247 2.31247 23.8361 2.40539 23.4098C2.4983 22.9835 3.22095 22.7599 3.47904 22.37C3.73713 21.9801 3.93844 21.585 4.35138 21.3615C4.73336 21.1535 5.18759 21.3563 5.69345 21.2991C6.18382 21.2523 6.62774 20.8364 7.09746 20.7636C7.56718 20.6908 8.02658 20.4621 8.49631 20.3581C8.96603 20.2542 9.38414 19.9682 9.84354 19.8331C10.272 19.7031 10.7107 19.7031 11.103 19.5523C11.4953 19.4016 12.0528 19.5315 12.4348 19.3444C12.8167 19.1572 13.0748 18.6789 13.4361 18.4554C13.9472 18.1383 14.5924 18.0083 15.0157 17.6236C15.4389 17.2389 15.9654 16.8334 16.3113 16.3603C16.6571 15.8872 16.7036 15.1906 16.9255 14.6396C17.1475 14.0885 17.1784 13.8078 17.2765 13.2047C16.6055 12.9084 16.6571 13.028 15.9241 13.028C15.1912 13.028 15.1912 12.7628 14.4582 12.7628C13.7252 12.7628 13.7252 13.2567 12.9871 13.2567C12.2489 13.2567 12.2541 13.0124 11.516 13.0124C10.7778 13.0124 10.783 12.6588 10.0448 12.6588C9.30671 12.6588 9.30671 13.0851 8.57373 13.0851C7.84076 13.0851 7.8356 12.8616 7.10262 12.8616C6.5245 12.8616 5.92057 13.1579 5.48698 13.0124C4.96564 12.8304 4.57334 12.3053 4.26879 11.905C3.99522 11.5411 3.62873 11.1876 3.48936 10.7873C3.34999 10.387 3.8352 9.86714 3.8352 9.42005C3.8352 8.97297 3.61325 8.57786 3.74229 8.16197C3.87134 7.74607 3.97457 7.29898 4.25847 6.95587C4.54237 6.61275 4.85208 6.09808 5.31148 5.90053C5.76572 5.70298 6.45223 6.19686 7.10778 6.19686C7.8356 6.19686 7.8356 5.6354 8.56341 5.6354C9.29122 5.6354 9.29122 5.73417 10.019 5.73417C10.7468 5.73417 10.7468 5.98371 11.4747 5.98371C12.2025 5.98371 12.2025 5.82775 12.9303 5.82775C13.6581 5.82775 13.6581 5.74977 14.3859 5.74977C15.1137 5.74977 15.1137 6.13447 15.8467 6.13447C16.5797 6.13447 16.5074 5.86414 17.1836 5.58861C17.2094 4.98036 17.5449 4.78801 17.7411 4.32012C17.9579 3.79505 18.3399 3.49873 18.7683 3.14522C19.2019 2.78651 19.4651 1.9911 20.0587 1.82475C20.5749 1.67918 21.2408 2.31342 21.8757 2.31342C22.5106 2.31342 23.1248 1.86114 23.641 2.0119C24.2243 2.18346 24.9263 2.31862 25.3651 2.68253C25.7935 3.04124 26.1961 3.63389 26.4181 4.14857C26.6194 4.62165 26.4387 5.24029 26.4697 5.84334C27.1459 6.11888 27.1768 5.85894 27.9047 5.85894C28.6325 5.85894 28.6325 5.77056 29.3603 5.77056C30.0881 5.77056 30.0881 5.92652 30.8159 5.92652C31.5437 5.92652 31.5437 5.79136 32.2715 5.79136C32.9994 5.79136 32.9994 6.0409 33.7272 6.0409C34.455 6.0409 34.455 5.80175 35.188 5.80175C35.9209 5.80175 35.9158 6.0097 36.6487 6.0097C37.3043 6.0097 37.836 6.05129 38.2902 6.24884C38.7444 6.45159 39.1212 6.68553 39.4051 7.03385C39.689 7.37696 40.2259 7.6473 40.3549 8.06319C40.484 8.47909 40.5511 8.99896 40.5511 9.43045C40.5511 9.86194 40.4323 10.4026 40.293 10.8081C40.1536 11.2136 39.4671 11.3332 39.1884 11.6919C38.8838 12.0922 38.7806 12.8304 38.2592 13.0124C37.8308 13.1631 37.2269 12.7992 36.6487 12.7992C35.8951 12.7992 35.8951 13.1839 35.1415 13.1839C34.3879 13.1839 34.3879 12.9708 33.6394 12.9708C32.891 12.9708 32.8858 13.0228 32.1322 13.0228C31.3786 13.0228 31.3786 12.7784 30.6249 12.7784C29.8713 12.7784 29.8713 12.8356 29.1177 12.8356C28.3641 12.8356 28.266 13.4594 27.533 13.2827C26.7071 13.0851 26.7278 12.3781 26 12.5757L26.0051 12.5601Z" fill="black"/>
<path d="M48.1699 42.9985C47.6382 42.9985 47.1633 43.2012 46.7091 43.1025C46.1929 42.9881 45.8367 42.6866 45.429 42.4422C45.0005 42.1875 44.6702 41.938 44.3605 41.5377C44.1075 41.2101 43.612 41.0542 43.4417 40.7007C43.2713 40.3471 43.3384 39.8793 43.2507 39.4842C43.1629 39.0891 42.6106 38.7148 42.6106 38.3041C42.6106 37.7218 43.1475 37.1447 43.323 36.5833C43.5139 35.9594 43.6585 35.2628 44.0817 34.7689C44.5205 34.2647 45.2793 34.1191 45.9451 33.828C46.2858 33.6772 46.5904 33.3705 46.993 33.2977C47.3595 33.2353 47.7569 33.3705 48.1699 33.3705C48.8874 33.3705 48.8874 33.6096 49.5997 33.6096C50.312 33.6096 50.3172 33.5368 51.0295 33.5368C51.7418 33.5368 51.747 33.3601 52.4593 33.3601C53.1717 33.3601 53.1768 33.5732 53.8943 33.5732C54.6118 33.5732 54.9628 33.9059 55.4532 33.3809C55.9797 32.809 55.2002 32.4867 55.2002 31.7069C55.2002 30.9271 55.6648 30.9271 55.6648 30.1473C55.6648 29.3675 55.0815 29.3675 55.0815 28.5877C55.0815 28.1406 55.0144 27.6467 55.097 27.2516C55.1848 26.8201 55.6803 26.4926 55.8661 26.1339C56.0365 25.8012 56.1449 25.4165 56.3771 25.1409C56.6094 24.8654 57.0327 24.3767 57.3269 24.1636C56.5733 24.0336 56.5062 24.5951 55.7422 24.5951C54.9783 24.5951 54.9783 24.226 54.2143 24.226C53.4504 24.226 53.4504 24.5691 52.6865 24.5691C51.9225 24.5691 51.9225 24.0908 51.1534 24.0908C50.3843 24.0908 50.3895 24.2675 49.6203 24.2675C49.2022 24.2675 48.8512 24.1792 48.4796 24.1064C48.0718 24.0284 47.7827 23.8568 47.4421 23.6957C46.8072 23.3942 45.94 23.4669 45.4857 22.9679C45.0212 22.4636 44.5566 21.8086 44.345 21.1483C44.154 20.5557 44.4431 19.8538 44.4431 19.2612C44.4431 18.6685 44.154 17.9615 44.3501 17.3741C44.5515 16.7606 44.8715 16.038 45.2948 15.5285C45.7438 14.9931 46.7039 15.019 47.3853 14.7071C47.7363 14.546 48.0202 14.1925 48.428 14.1145C48.8048 14.0417 49.2074 14.1093 49.6255 14.1093C50.3378 14.1093 50.3378 14.1613 51.0553 14.1613C51.7728 14.1613 51.7728 13.8753 52.4851 13.8753C53.1975 13.8753 53.1975 13.8441 53.915 13.8441C54.6324 13.8441 54.6325 14.0677 55.3448 14.0677C56.0571 14.0677 56.0623 13.6206 56.7746 13.6206C57.4869 13.6206 57.4921 14.0105 58.2044 14.0105C58.9167 14.0105 58.9219 13.709 59.6342 13.709C60.3466 13.709 60.3517 14.3692 61.064 14.3692C61.7764 14.3692 61.7815 14.312 62.4939 14.312C63.2062 14.312 63.2114 14.286 63.9237 14.286C64.636 14.286 64.6412 14.0261 65.3535 14.0261C66.0658 14.0261 66.071 14.364 66.7833 14.364C67.4956 14.364 67.5008 13.6518 68.2131 13.6518C68.9255 13.6518 68.9306 14.0781 69.6481 14.0781C70.3656 14.0781 70.3656 14.1353 71.0831 14.1353C71.8006 14.1353 71.8522 14.4212 72.3323 13.8857C72.8639 13.2879 72.9207 13.1631 72.3942 12.5549C71.9296 12.0246 71.8212 12.3313 71.1192 12.3313C70.4172 12.3313 70.4172 12.612 69.7152 12.612C69.0132 12.612 69.0132 12.5913 68.3112 12.5913C67.6092 12.5913 67.6092 12.6068 66.9072 12.6068C66.2052 12.6068 66.2052 12.6796 65.5032 12.6796C64.8012 12.6796 64.8012 12.8252 64.0992 12.8252C63.3972 12.8252 63.3972 12.7212 62.6952 12.7212C61.9932 12.7212 61.9932 12.638 61.2912 12.638C60.5892 12.638 60.5892 12.8616 59.8872 12.8616C59.1852 12.8616 59.1852 12.6224 58.4832 12.6224C57.7811 12.6224 57.7811 12.5497 57.0791 12.5497C56.3771 12.5497 56.3771 12.768 55.6751 12.768C54.9731 12.768 54.9731 12.035 54.2711 12.035C53.5691 12.035 53.5691 12.0558 52.8671 12.0558C52.1651 12.0558 52.1651 12.7992 51.4579 12.7992C50.7508 12.7992 50.7559 12.0194 50.0488 12.0194C49.6307 12.0194 49.2229 12.4613 48.8461 12.3885C48.4383 12.3105 47.9995 12.2897 47.6485 12.1286C46.9827 11.8218 46.4613 11.276 46.0174 10.7665C45.589 10.2778 45.6251 9.5656 45.4032 8.93656C45.1864 8.32831 44.5979 7.83443 44.5979 7.22619C44.5979 6.61794 45.1347 6.12406 45.3309 5.5418C45.5374 4.91796 45.8522 4.48127 46.3013 3.9666C46.7555 3.44673 46.9982 2.66172 47.6692 2.355C48.0202 2.19384 48.4435 2.14185 48.8512 2.06387C49.2229 1.99109 49.6307 1.9599 50.0488 1.9599C50.7714 1.9599 50.7714 1.78834 51.4889 1.78834C52.2064 1.78834 52.2116 1.75195 52.9291 1.75195C53.6465 1.75195 53.6517 1.9287 54.3692 1.9287C55.0867 1.9287 55.0918 1.86632 55.8145 1.86632C56.5372 1.86632 56.5372 2.16265 57.2546 2.16265C57.9721 2.16265 57.9773 1.76235 58.6999 1.76235C59.4226 1.76235 59.4226 2.13145 60.1452 2.13145C60.8679 2.13145 60.8679 2.12106 61.5906 2.12106C62.3132 2.12106 62.3132 1.60638 63.0359 1.60638C63.7585 1.60638 63.7585 1.84552 64.4812 1.84552C65.2038 1.84552 65.2038 2.02748 65.9265 2.02748C66.6491 2.02748 66.6491 1.9495 67.3718 1.9495C68.0944 1.9495 68.0944 1.60638 68.8171 1.60638C69.5397 1.60638 69.5397 2.12106 70.2624 2.12106C70.985 2.12106 70.985 1.73115 71.7077 1.73115C72.4303 1.73115 72.4303 1.79874 73.153 1.79874C73.8756 1.79874 73.8756 2.20943 74.5983 2.20943C75.3209 2.20943 75.3209 1.63238 76.0436 1.63238C76.5185 1.63238 76.983 1.90271 77.4166 1.9443C77.8915 1.98589 78.3715 1.97549 78.7948 2.06907C79.2594 2.16784 79.662 2.46937 80.0698 2.62533C80.5137 2.79689 80.7253 3.31156 81.097 3.5455C81.4893 3.79504 82.0416 3.77424 82.3513 4.10176C82.7023 4.47607 82.9397 4.93875 83.1978 5.39104C83.4559 5.84333 84.0599 6.15525 84.2199 6.66473C84.3696 7.13781 84.2818 7.73566 84.3541 8.26593C84.4212 8.75461 84.3644 9.29527 84.3644 9.83074C84.3644 10.6157 84.4367 10.6157 84.4367 11.4059C84.4367 12.1961 84.1476 12.1961 84.1476 12.9812C84.1476 13.7662 84.2663 13.7714 84.2663 14.5564C84.2663 15.0866 84.4109 15.6065 84.4005 16.116C84.3902 16.6254 83.8792 17.1505 83.8637 17.6548C83.8431 18.1851 84.4728 18.7309 84.4418 19.2352C84.4109 19.7655 84.2973 20.2853 84.256 20.7844C84.2147 21.3147 83.6469 21.7826 83.5901 22.2764C83.5334 22.8119 83.5385 23.3214 83.4662 23.8153C83.394 24.2883 83.6779 24.8082 83.5901 25.2605C83.5024 25.7128 83.5901 26.2431 83.4817 26.6849C83.3682 27.1528 82.7488 27.4699 82.6197 27.9118C82.4803 28.3745 82.8159 28.9828 82.661 29.4091C82.4907 29.8614 81.8196 30.0849 81.6286 30.5008C81.3757 31.0467 81.0144 31.4106 80.6582 31.8473C80.3021 32.2839 80.0285 33.2041 79.5484 33.5316C80.1524 33.7708 80.3072 33.3237 80.9576 33.3237C81.3706 33.3237 81.7474 33.3393 82.1139 33.4017C82.5165 33.4745 83.0327 33.2197 83.3785 33.3705C84.0444 33.6616 84.5296 34.3166 84.9683 34.8209C85.3968 35.32 85.7581 35.9023 85.9491 36.5209C86.1246 37.0876 86.233 37.7062 86.233 38.2885C86.233 38.6992 85.6394 39.0111 85.5516 39.3958C85.4639 39.7805 85.4071 40.0976 85.2316 40.4667C85.0561 40.8358 85.2626 41.3869 85.0096 41.7144C84.6999 42.1147 84.4521 42.723 84.0237 42.9829C83.6159 43.2272 83.0172 43.3416 82.501 43.456C82.0468 43.5547 81.4944 43.4924 80.9628 43.4924C80.2505 43.4924 80.2504 43.7159 79.5381 43.7159C78.8258 43.7159 78.8258 43.7523 78.1135 43.7523C77.4011 43.7523 77.4011 43.6327 76.6888 43.6327C75.9765 43.6327 75.9765 43.5599 75.2693 43.5599C74.5622 43.5599 74.557 43.2948 73.8447 43.2948C73.1323 43.2948 73.1323 43.4352 72.42 43.4352C71.7077 43.4352 71.7077 42.9673 70.9953 42.9673C70.283 42.9673 70.283 43.4404 69.5707 43.4404C68.8584 43.4404 68.8584 42.9569 68.146 42.9569C67.4337 42.9569 67.4337 43.1389 66.7214 43.1389C66.009 43.1389 66.009 43.0349 65.2967 43.0349C64.5844 43.0349 64.5844 43.1233 63.8721 43.1233C63.1597 43.1233 63.1597 43.0817 62.4474 43.0817C61.7351 43.0817 61.7351 43.5288 61.0228 43.5288C60.3104 43.5288 60.3104 43.6483 59.5981 43.6483C58.8858 43.6483 58.8858 43.43 58.1734 43.43C57.4611 43.43 57.4611 43.352 56.7488 43.352C56.0365 43.352 56.0365 43.2168 55.3241 43.2168C54.6118 43.2168 54.6118 43.7367 53.8995 43.7367C53.1871 43.7367 53.1871 42.8997 52.4748 42.8997C51.7625 42.8997 51.7625 43.0297 51.0502 43.0297C50.3378 43.0297 50.2811 43.7263 49.5791 43.6119C48.877 43.4976 48.908 42.9881 48.1957 42.9881L48.1699 42.9985ZM72.6007 33.594C72.3116 33.3965 72.0587 32.7726 71.8316 32.5231C71.3412 31.9876 71.1605 31.3534 70.9644 30.662C70.7837 30.0225 70.7011 29.4403 70.7579 28.7696C70.8147 28.1198 70.6495 27.4076 70.9179 26.7941C71.0573 26.4458 71.3928 26.1287 71.5167 25.7024C71.6199 25.3281 71.496 25.3125 71.5838 24.881C70.9695 24.6626 71.0779 24.4495 70.4275 24.4495C69.7772 24.4495 69.7772 24.6678 69.1268 24.6678C68.4764 24.6678 68.4764 24.3299 67.826 24.3299C67.1756 24.3299 67.1756 24.5379 66.5252 24.5379C65.8748 24.5379 65.8387 24.2364 65.2038 24.3663C65.498 24.5743 65.5342 25.1513 65.7716 25.4269C66.009 25.7024 66.231 25.8999 66.4065 26.2275C66.6027 26.5914 66.8969 26.8877 66.9898 27.3244C67.0775 27.7247 66.9072 28.1302 66.9072 28.5825C66.9072 29.3623 67.0466 29.3623 67.0466 30.1369C67.0466 30.9115 67.346 30.9167 67.346 31.6965C67.346 32.4763 66.4581 32.8818 66.9588 33.4745C67.3924 33.9839 67.8776 33.0014 68.5435 33.0014C69.2094 33.0014 69.2094 32.887 69.8701 32.887C70.5308 32.887 70.5514 33.1105 71.2018 33.2561C71.9141 33.4173 71.94 33.7188 72.5955 33.594H72.6007Z" stroke="black" stroke-miterlimit="10"/>
<path d="M56.754 34.6962C57.2856 34.1295 56.9243 34.0359 56.9243 33.2613C56.9243 32.4867 56.6507 32.4815 56.6507 31.7017C56.6507 30.9219 56.5372 30.9219 56.5372 30.1421C56.5372 29.3623 57.2237 29.3623 57.2237 28.5825C57.2237 27.8963 56.7023 27.158 56.945 26.6902C57.1876 26.2171 57.9825 26.2431 58.3954 25.9571C58.8084 25.6712 59.0974 25.1929 59.6239 25.0786C60.1504 24.9642 60.7027 24.6367 61.2705 24.6367C61.8125 24.6367 62.2719 25.3281 62.8139 25.4581C63.3559 25.588 63.7585 25.666 64.156 25.9415C64.5534 26.2119 65.0645 26.3522 65.3225 26.8253C65.5806 27.2984 65.9781 27.9015 65.9781 28.5877C65.9781 29.3675 65.5497 29.3675 65.5497 30.1421C65.5497 30.9167 65.3071 30.9219 65.3071 31.7017C65.3071 32.4815 65.2658 32.4815 65.2658 33.2613C65.2658 34.0411 64.8735 34.4882 65.3897 35.0705C65.8542 35.5903 66.3601 34.6754 67.0517 34.6754C67.7434 34.6754 67.7434 34.6754 68.4403 34.6754C69.1371 34.6754 69.132 35.1588 69.8288 35.1588C70.5256 35.1588 70.5256 34.7793 71.2173 34.7793C71.909 34.7793 71.909 34.6286 72.6007 34.6286C73.2924 34.6286 73.2924 34.9769 73.9892 34.9769C74.686 34.9769 74.686 35.164 75.3777 35.164C76.0694 35.164 76.0746 35.1277 76.7663 35.1277C77.4579 35.1277 77.4631 35.1329 78.1548 35.1329C78.8465 35.1329 78.8516 34.4882 79.5485 34.4882C80.2453 34.4882 80.2453 34.9041 80.9421 34.9041C81.5977 34.9041 82.279 34.6286 82.7333 34.8261C83.1875 35.0289 83.2753 35.7255 83.5592 36.053C83.8431 36.3805 83.8276 36.7393 83.9566 37.15C84.0857 37.5659 84.1786 37.8726 84.1786 38.2989C84.1786 38.7252 84.6844 39.2502 84.5451 39.6557C84.4057 40.0612 83.8792 40.2796 83.6005 40.6331C83.2959 41.0282 82.9191 41.2257 82.3978 41.4025C81.9693 41.5481 81.5203 42.1615 80.9421 42.1615C80.2298 42.1615 80.2298 42.1615 79.5175 42.1615C78.8052 42.1615 78.8052 41.5429 78.0928 41.5429C77.3805 41.5429 77.3805 41.6936 76.6682 41.6936C75.9558 41.6936 75.9558 41.3869 75.2487 41.3869C74.5415 41.3869 74.5364 42.0523 73.824 42.0523C73.1117 42.0523 73.1117 42.1147 72.3994 42.1147C71.687 42.1147 71.687 41.6624 70.9747 41.6624C70.2624 41.6624 70.2624 41.9224 69.5501 41.9224C68.8377 41.9224 68.8377 41.9016 68.1254 41.9016C67.4131 41.9016 67.4131 41.8808 66.7007 41.8808C65.9884 41.8808 65.9884 42.1563 65.2761 42.1563C64.5638 42.1563 64.5638 41.4077 63.8514 41.4077C63.1391 41.4077 63.1391 42.1459 62.4268 42.1459C61.7145 42.1459 61.7145 41.652 61.0021 41.652C60.2898 41.652 60.2898 41.9276 59.5775 41.9276C58.8651 41.9276 58.8651 41.938 58.1528 41.938C57.4405 41.938 57.4405 42.0419 56.7282 42.0419C56.0158 42.0419 56.0158 41.9276 55.3035 41.9276C54.5912 41.9276 54.5912 41.5481 53.8788 41.5481C53.1665 41.5481 53.1665 42.0263 52.4542 42.0263C51.7419 42.0263 51.7419 41.6676 51.0295 41.6676C50.3172 41.6676 50.3172 42.0419 49.5997 42.0419C48.8822 42.0419 48.8874 41.73 48.1699 41.73C47.5918 41.73 47.0859 41.7248 46.6523 41.5793C46.1258 41.4025 45.8781 40.971 45.5735 40.5759C45.2999 40.2172 44.9593 39.9573 44.8199 39.557C44.6805 39.1567 44.2263 38.7356 44.2263 38.2885C44.2263 37.8414 44.9231 37.5243 45.0522 37.1084C45.1812 36.6925 44.8715 36.0218 45.1554 35.6943C45.4393 35.3668 45.8935 34.9509 46.3478 34.7482C46.802 34.5454 47.5144 34.7638 48.1699 34.7638C48.8926 34.7638 48.8925 35.0757 49.6204 35.0757C50.3482 35.0757 50.343 34.4258 51.0708 34.4258C51.7986 34.4258 51.7986 34.5974 52.5213 34.5974C53.2439 34.5974 53.2491 34.9405 53.9718 34.9405C54.6944 34.9405 54.7409 34.509 55.4584 34.639C56.1758 34.7689 56.2533 35.2264 56.754 34.6962ZM72.2961 27.3972C72.4768 26.9449 72.8484 26.5342 72.993 25.9935C73.122 25.5204 72.9775 24.9538 73.0859 24.4131C73.184 23.9244 73.3646 23.7685 73.4369 23.2278C72.7865 22.9627 72.8639 22.5624 72.1568 22.5624C71.4496 22.5624 71.4548 23.2486 70.7528 23.2486C70.0508 23.2486 70.0508 22.604 69.3436 22.604C68.6364 22.604 68.6416 22.9367 67.9396 22.9367C67.2376 22.9367 67.2376 23.207 66.5304 23.207C65.8232 23.207 65.8284 22.5728 65.1212 22.5728C64.4141 22.5728 64.4192 22.656 63.7121 22.656C63.0049 22.656 63.0101 22.9575 62.3029 22.9575C61.5957 22.9575 61.6009 23.2226 60.8937 23.2226C60.1866 23.2226 60.1917 22.7911 59.4846 22.7911C58.7774 22.7911 58.7826 22.5468 58.0754 22.5468C57.3682 22.5468 57.3734 22.5052 56.6662 22.5052C55.9591 22.5052 55.9642 22.5364 55.257 22.5364C54.5499 22.5364 54.5499 23.0563 53.8479 23.0563C53.1459 23.0563 53.1407 23.0563 52.4387 23.0563C51.7367 23.0563 51.7315 22.5728 51.0244 22.5728C50.3172 22.5728 50.3172 22.9523 49.61 22.9523C48.9545 22.9523 48.3196 22.9783 47.8654 22.7599C47.4111 22.5468 47.2201 21.9853 46.9053 21.6422C46.5904 21.2991 46.5749 20.904 46.4304 20.4621C46.2858 20.0202 46.1981 19.6875 46.1981 19.256C46.1981 18.8245 46.26 18.497 46.4046 18.0655C46.5491 17.634 46.2239 16.9322 46.5233 16.5735C46.8227 16.2148 47.4937 16.22 47.9634 16.0016C48.4332 15.7885 48.9597 15.2842 49.6152 15.2842C50.3327 15.2842 50.3327 15.8145 51.0502 15.8145C51.7677 15.8145 51.7677 16.0016 52.4852 16.0016C53.2027 16.0016 53.2027 15.9548 53.9253 15.9548C54.648 15.9548 54.6428 15.3622 55.3603 15.3622C56.0778 15.3622 56.0778 15.7261 56.8004 15.7261C57.5231 15.7261 57.5179 15.7781 58.2354 15.7781C58.9529 15.7781 58.9529 15.2322 59.6755 15.2322C60.3982 15.2322 60.393 15.2322 61.1157 15.2322C61.8383 15.2322 61.8332 15.8509 62.5558 15.8509C63.2785 15.8509 63.2733 15.7001 63.996 15.7001C64.7186 15.7001 64.7135 16.0068 65.4361 16.0068C66.1588 16.0068 66.1536 15.3414 66.8711 15.3414C67.5886 15.3414 67.5886 15.279 68.3112 15.279C69.0339 15.279 69.0287 15.7313 69.7514 15.7313C70.474 15.7313 70.4689 15.4714 71.1915 15.4714C71.9142 15.4714 71.9142 15.4921 72.6317 15.4921C73.3491 15.4921 73.4575 16.0068 74.0099 15.5389C74.4744 15.149 73.7001 15.0087 73.7001 14.4004C73.7001 13.7922 74.4434 13.7922 74.4434 13.1839C74.4434 12.5757 73.7105 12.5757 73.7105 11.9674C73.7105 11.6503 74.077 11.3072 73.8911 11.1044C73.7053 10.9069 73.3491 11.0421 73.0085 11.0421C72.291 11.0421 72.291 11.0525 71.5735 11.0525C70.856 11.0525 70.856 11.1564 70.1385 11.1564C69.421 11.1564 69.421 11.0421 68.7035 11.0421C67.986 11.0421 67.986 10.6625 67.2685 10.6625C66.5511 10.6625 66.5511 11.1408 65.8336 11.1408C65.1161 11.1408 65.1161 10.7821 64.3986 10.7821C63.6811 10.7821 63.6811 11.1564 62.9636 11.1564C62.2461 11.1564 62.2461 10.8445 61.5286 10.8445C60.8111 10.8445 60.8111 10.9121 60.0936 10.9121C59.3762 10.9121 59.3762 10.6885 58.6587 10.6885C57.9412 10.6885 57.9412 10.8653 57.2237 10.8653C56.5062 10.8653 56.5062 11.25 55.7887 11.25C55.0712 11.25 55.0712 10.6002 54.3537 10.6002C53.6362 10.6002 53.6362 11.2136 52.9188 11.2136C52.2013 11.2136 52.2013 11.2864 51.4786 11.2864C50.756 11.2864 50.7611 10.9381 50.0385 10.9381C49.3829 10.9381 48.9287 10.543 48.459 10.3298C47.9892 10.1167 47.2098 10.3298 46.9104 9.98671C46.611 9.6436 46.4717 9.06654 46.3117 8.62465C46.1568 8.18276 46.4046 7.67329 46.4046 7.2418C46.4046 6.81031 46.1826 6.32683 46.3271 5.89533C46.4717 5.46384 46.6781 4.96476 46.993 4.60605C47.3079 4.24734 47.8086 3.96141 48.2783 3.74827C48.748 3.53512 49.3829 3.57151 50.0385 3.57151C50.7611 3.57151 50.7611 3.67029 51.4786 3.67029C52.1961 3.67029 52.2013 3.6131 52.9188 3.6131C53.6362 3.6131 53.6414 3.96661 54.3589 3.96661C55.0764 3.96661 55.0815 3.57671 55.8042 3.57671C56.5268 3.57671 56.5268 3.2128 57.2443 3.2128C57.9618 3.2128 57.967 3.88863 58.6896 3.88863C59.4123 3.88863 59.4123 3.81065 60.1349 3.81065C60.8576 3.81065 60.8576 3.32717 61.5802 3.32717C62.3029 3.32717 62.3029 3.83145 63.0255 3.83145C63.7482 3.83145 63.7482 3.74827 64.4709 3.74827C65.1935 3.74827 65.1935 3.64429 65.9162 3.64429C66.6388 3.64429 66.6388 3.36356 67.3615 3.36356C68.0841 3.36356 68.0841 3.2024 68.8068 3.2024C69.5294 3.2024 69.5294 3.42075 70.2521 3.42075C70.9747 3.42075 70.9747 3.89903 71.6974 3.89903C72.42 3.89903 72.42 3.1972 73.1427 3.1972C73.8653 3.1972 73.8653 3.79506 74.588 3.79506C75.3106 3.79506 75.3106 3.64429 76.0333 3.64429C76.5236 3.64429 76.9521 3.99261 77.3857 4.03939C77.8812 4.09138 78.3664 3.81585 78.7897 3.92502C79.2697 4.04979 79.7653 4.09138 80.1472 4.29413C80.5808 4.52287 81.1022 4.70483 81.4067 5.03235C81.7835 5.43265 82.0158 6.0305 82.2532 6.55037C82.47 7.02865 82.31 7.6577 82.4081 8.23995C82.501 8.75462 82.8365 9.27449 82.8365 9.87234C82.8365 10.6573 82.5526 10.6573 82.5526 11.4476C82.5526 12.2378 82.4391 12.2378 82.4391 13.0228C82.4391 13.8078 82.7384 13.813 82.7384 14.598C82.7384 15.1126 83.0224 15.6273 83.0172 16.1212C83.012 16.6151 82.7952 17.1401 82.7797 17.634C82.7643 18.1539 82.4804 18.6478 82.4494 19.1364C82.4184 19.6563 82.8727 20.197 82.8365 20.6857C82.7952 21.2055 82.501 21.689 82.4494 22.1777C82.3926 22.6976 81.9797 23.1498 81.9126 23.6281C81.8455 24.0752 82.1913 24.5743 82.1139 24.9954C82.0313 25.4373 81.7216 25.822 81.6235 26.2379C81.5203 26.6798 81.7784 27.21 81.6545 27.6155C81.5254 28.047 81.1796 28.4109 81.0351 28.806C80.8802 29.2271 80.8492 29.7054 80.6686 30.0901C80.4931 30.4696 79.8065 30.5112 79.5691 30.8179C79.3213 31.1402 79.2646 31.5925 78.9445 31.8317C78.6245 32.0708 78.3354 32.3775 77.9586 32.5387C77.5612 32.7051 77.1431 33.0482 76.7146 33.095C76.2862 33.1418 75.8887 32.5075 75.45 32.4347C75.0474 32.3723 74.4951 32.7986 74.0718 32.6375C73.5608 32.4347 73.1117 32.024 72.7865 31.6653C72.4613 31.3066 72.4355 30.7659 72.3065 30.3033C72.1774 29.8406 71.9864 29.3883 72.0277 28.8996C72.069 28.4109 72.0948 27.8755 72.2961 27.418V27.3972Z" fill="black"/>
<path d="M108.274 44.2878C107.722 43.6015 108.795 43.3156 108.795 42.4318C108.795 41.5481 108.362 41.5688 108.212 40.7007C107.964 41.0334 107.711 41.2257 107.231 41.5273C106.865 41.7612 106.581 42.3954 106.044 42.5254C105.621 42.6294 105.063 42.2707 104.516 42.2707C103.814 42.2707 103.814 42.7334 103.112 42.7334C102.41 42.7334 102.41 42.7074 101.713 42.7074C101.016 42.7074 101.011 42.2187 100.309 42.2187C99.6072 42.2187 99.6072 42.2135 98.9052 42.2135C98.2032 42.2135 98.2032 42.1407 97.5012 42.1407C96.7992 42.1407 96.7992 42.2759 96.0971 42.2759C95.3951 42.2759 95.3951 42.5774 94.6931 42.5774C94.2699 42.5774 93.8931 41.9691 93.5163 41.9535C93.093 41.9328 92.6439 42.5982 92.2774 42.5566C91.8542 42.5046 91.5857 41.7508 91.2244 41.6676C90.6876 41.5481 90.0166 41.9795 89.5778 41.7612C89.0978 41.5221 88.6642 41.1374 88.308 40.7838C87.9467 40.4303 87.8641 39.8429 87.6163 39.3698C87.3892 38.9331 87.1466 38.4964 87.0227 37.9609C86.904 37.4463 87.1053 36.8536 87.0537 36.2038C87.0124 35.6683 86.5736 35.1069 86.5736 34.4674C86.5736 33.7708 86.9504 33.7708 86.9504 33.069C86.9504 32.3671 86.6717 32.3723 86.6717 31.6705C86.6717 30.9687 87.0279 30.9687 87.0279 30.2721C87.0279 29.5754 86.7233 29.5702 86.7233 28.8736C86.7233 28.177 86.4446 28.1718 86.4446 27.4752C86.4446 26.7785 86.6717 26.7733 86.6717 26.0715C86.6717 25.3697 86.8937 25.3697 86.8937 24.6679C86.8937 24.0284 86.5014 23.4306 86.5427 22.8951C86.5943 22.2453 86.744 21.663 86.8627 21.1535C86.9866 20.6233 87.4357 20.2593 87.6628 19.8227C87.9054 19.3548 87.8538 18.6633 88.2151 18.3098C88.5764 17.9563 89.3352 18.1643 89.8204 17.9251C90.2643 17.712 90.5585 17.005 91.1005 16.8958C91.6219 16.7866 92.2258 16.6151 92.8814 16.5683C93.4233 16.5267 94.0324 17.0517 94.6828 17.0517C95.039 17.0517 95.5655 17.3169 95.7255 16.9946C96.0455 16.3343 95.5552 16.1004 95.5552 15.3674C95.5552 14.6343 95.6171 14.6343 95.6171 13.8961C95.6171 13.1579 96.0249 12.8148 95.4623 12.3469C94.7809 11.7803 94.5125 12.7316 93.6298 12.7316C92.7471 12.7316 92.7471 12.2117 91.8645 12.2117C91.3277 12.2117 90.9147 12.009 90.4605 11.905C89.9443 11.7907 89.2216 12.2741 88.8087 12.0246C88.3803 11.7647 88.0551 11.2344 87.7402 10.8341C87.4821 10.5066 87.0176 10.2466 86.8421 9.88793C86.6666 9.52922 86.5581 9.03014 86.4652 8.63504C86.3723 8.23994 86.5943 7.75646 86.5943 7.34576C86.5943 6.76351 86.9143 6.22804 87.0847 5.65098C87.2808 4.99594 87.5028 4.40329 87.9622 3.90422C88.3958 3.42594 88.8139 2.80209 89.4488 2.50576C89.7946 2.3446 90.1921 2.04828 90.5998 1.9703C90.9715 1.89752 91.436 2.26142 91.8542 2.26142C92.6491 2.26142 92.6491 2.17825 93.444 2.17825C94.2389 2.17825 94.2389 2.64093 95.0338 2.64093C95.8287 2.64093 95.8287 2.43298 96.6237 2.43298C97.4186 2.43298 97.4186 2.46937 98.2135 2.46937C98.6626 2.46937 99.1013 1.82993 99.4988 1.84553C99.953 1.86112 100.366 2.18864 100.753 2.22503C101.212 2.27182 101.662 2.20944 102.033 2.28222C102.57 2.38619 103.045 2.70332 103.479 2.89567C103.974 3.11401 104.449 3.37395 104.81 3.70667C105.177 4.04458 105.492 4.47607 105.729 4.92316C105.951 5.34946 106.364 5.79655 106.467 6.31642C106.555 6.7739 106.25 7.35096 106.292 7.91242C106.323 8.3855 106.013 8.89497 106.013 9.45644C106.013 10.231 105.951 10.231 105.951 11.0056C105.951 11.7803 106.364 11.7803 106.364 12.5549C106.364 13.3295 106.472 13.3295 106.472 14.1041C106.472 14.8787 106.219 14.8787 106.235 15.6585C106.256 15.6481 106.266 15.3258 106.287 15.3102C106.823 15.0294 107.469 15.1022 108.202 15.0554C108.527 14.364 108.764 14.364 108.764 13.5998C108.764 12.8356 108.005 12.8356 108.005 12.0662C108.005 11.2968 108.114 11.302 108.114 10.5326C108.114 9.76316 108.279 9.76836 108.279 8.99895C108.279 8.22954 107.933 8.22954 107.933 7.46533C107.933 6.70112 108.713 6.69592 108.713 5.93171C108.713 5.41704 108.336 4.91277 108.439 4.46568C108.553 3.9718 108.8 3.53511 109.033 3.12961C109.265 2.72411 109.668 2.43298 110.039 2.11066C110.375 1.81953 110.514 1.21129 110.891 1.01893C111.268 0.826582 111.882 1.22688 112.305 1.13331C112.728 1.03973 113.079 0.987742 113.529 0.987742C113.978 0.987742 114.365 0.899364 114.773 0.992941C115.18 1.08652 115.666 1.01893 116.047 1.21129C116.429 1.40364 116.971 1.43483 117.312 1.71036C117.699 2.02748 117.895 2.42258 118.226 3.06203C118.556 2.42778 119.041 2.39139 119.428 2.07427C119.774 1.79354 120.213 1.76235 120.595 1.5752C120.977 1.38804 121.338 1.34645 121.767 1.25288C122.195 1.1593 122.526 1.06052 122.969 1.06052C123.413 1.06052 123.79 0.95655 124.203 1.05013C124.616 1.1437 125.241 0.743403 125.628 0.930556C126.015 1.11771 126.087 1.84033 126.428 2.11586C126.758 2.381 127.192 2.62014 127.491 3.09842C127.729 3.47272 127.729 3.9666 127.863 4.50727C127.971 4.94396 128.219 5.37545 128.219 5.92651C128.219 6.63354 128.565 6.63354 128.565 7.34056C128.565 8.04759 128.064 8.04759 128.064 8.75981C128.064 9.47203 128.642 9.46683 128.642 10.1739C128.642 10.8809 128.565 10.8809 128.565 11.5879C128.565 12.2949 128.358 12.2949 128.358 13.0072C128.358 13.7194 128.044 13.7142 128.044 14.4212C128.044 15.1282 128.265 15.1282 128.265 15.8404C128.265 16.5527 128.482 16.5475 128.482 17.2545C128.482 17.9615 128.064 17.9615 128.064 18.6685C128.064 19.3756 127.904 19.3756 127.904 20.0826C127.904 20.7896 127.904 20.7896 127.904 21.4966C127.904 22.2037 128.627 22.2037 128.627 22.9107C128.627 23.6177 127.868 23.6177 127.868 24.3299C127.868 25.0422 127.951 25.037 127.951 25.744C127.951 26.451 128.033 26.451 128.033 27.1632C128.033 27.8755 127.992 27.8703 127.992 28.5825C127.992 29.2947 128.142 29.2895 128.142 30.0017C128.142 30.7139 127.873 30.7087 127.873 31.421C127.873 32.1332 128.544 32.128 128.544 32.8402C128.544 33.5524 128.044 33.5472 128.044 34.2595C128.044 34.9717 128.405 34.9665 128.405 35.6787C128.405 36.3909 128.333 36.3857 128.333 37.098C128.333 37.8102 128.183 37.805 128.183 38.5172C128.183 39.2294 127.909 39.2242 127.909 39.9365C127.909 40.6487 128.188 40.6435 128.188 41.3557C128.188 42.0679 128.204 42.0679 128.204 42.7749C128.204 43.482 129.076 44.0018 128.575 44.5061C128.074 45.0104 127.563 44.5529 126.851 44.5529C126.139 44.5529 126.139 44.2306 125.432 44.2306C124.724 44.2306 124.719 44.0278 124.012 44.0278C123.305 44.0278 123.3 43.8875 122.587 43.8875C121.875 43.8875 121.875 43.9135 121.168 43.9135C120.461 43.9135 120.456 44.1162 119.749 44.1162C119.041 44.1162 119.036 43.8355 118.324 43.8355C117.612 43.8355 117.612 43.9135 116.899 43.9135C116.187 43.9135 116.187 44.4333 115.48 44.4333C114.773 44.4333 114.767 44.2254 114.055 44.2254C113.343 44.2254 113.343 43.9602 112.63 43.9602C111.918 43.9602 111.918 44.2254 111.206 44.2254C110.493 44.2254 110.54 44.293 109.848 44.4749C109.043 44.6829 108.692 44.8492 108.243 44.2878H108.274ZM97.8986 32.0968C97.976 32.0968 97.9967 32.6375 98.1051 32.6375C98.9052 32.6375 98.9052 32.0448 99.7052 32.0448C100.505 32.0448 100.505 32.3827 101.305 32.3827C102.105 32.3827 102.105 31.9148 102.906 31.9148C103.706 31.9148 103.706 32.3463 104.506 32.3463C104.908 32.3463 105.352 31.92 105.714 31.9876C106.106 32.0604 106.539 32.2216 106.875 32.3723C107.531 32.6687 107.814 33.4849 108.238 33.9943C108.238 33.9943 108.547 33.8956 108.553 33.9008C108.553 33.2249 108.625 33.2249 108.625 32.5491C108.625 31.8733 108.491 31.8733 108.491 31.1974C108.491 30.5216 108.191 30.5216 108.191 29.8458C108.191 29.1699 108.785 29.1699 108.785 28.4941C108.785 27.8183 108.088 27.8183 108.088 27.1424C108.088 26.4666 109.053 26.1963 108.738 25.5984C108.011 25.562 106.937 25.8012 106.4 25.5412C106.364 25.5256 106.57 25.3125 106.539 25.2969C106.524 26.1287 106.818 26.2327 106.287 26.8721C105.843 27.4076 105.703 26.9085 105.012 26.9085C104.32 26.9085 104.32 26.6226 103.628 26.6226C102.937 26.6226 102.937 27.0437 102.245 27.0437C101.553 27.0437 101.553 26.6642 100.861 26.6642C100.17 26.6642 100.17 26.9449 99.4781 26.9449C98.7864 26.9449 98.7864 26.5862 98.0948 26.5862C97.9864 26.5862 97.8522 26.9033 97.7747 26.9085C97.7747 26.9553 98.0173 27.0697 98.0173 27.1216C98.0173 27.943 97.7902 27.943 97.7902 28.7696C97.7902 29.5962 97.5683 29.5962 97.5683 30.4176C97.5683 31.239 97.9812 31.2442 97.9812 32.0656C97.9812 32.1228 97.8883 32.05 97.8883 32.0968H97.8986Z" stroke="black" stroke-miterlimit="10"/>
<path d="M96.505 32.0656C96.505 32.8091 96.2004 33.5213 96.443 33.7188C96.6856 33.9216 97.367 33.828 98.1103 33.828C98.9104 33.828 98.9104 33.5369 99.7104 33.5369C100.511 33.5369 100.511 33.698 101.311 33.698C102.111 33.698 102.111 33.8592 102.911 33.8592C103.711 33.8592 103.711 33.6097 104.511 33.6097C105.135 33.6097 105.703 33.802 106.147 34.0048C106.586 34.2075 106.947 34.5142 107.216 34.847C107.484 35.1745 107.928 35.4916 108.057 35.9075C108.186 36.3234 107.768 36.8329 107.768 37.2644C107.768 37.6958 108.196 38.2417 108.057 38.6576C107.918 39.0735 107.195 39.1827 106.932 39.5466C106.638 39.9521 106.343 40.0561 105.848 40.2432C105.43 40.3992 105.074 40.4616 104.511 40.4616C103.809 40.4616 103.809 40.6695 103.107 40.6695C102.405 40.6695 102.405 41.0802 101.708 41.0802C101.011 41.0802 101.006 40.9034 100.304 40.9034C99.602 40.9034 99.602 41.2414 98.9 41.2414C98.198 41.2414 98.198 40.5915 97.496 40.5915C96.794 40.5915 96.794 40.6071 96.092 40.6071C95.39 40.6071 95.39 40.4564 94.688 40.4564C94.0996 40.4564 93.5627 40.7891 93.0672 40.7475C92.4633 40.7007 91.8439 41.0438 91.3793 40.9398C90.987 40.8515 90.8321 40.1028 90.5173 39.9521C90.1611 39.7805 89.9392 39.609 89.6811 39.3542C89.4281 39.1047 89.2939 38.8759 89.1236 38.5276C88.9687 38.2209 88.5868 38.0078 88.499 37.6231C88.3958 37.1708 88.1222 36.6665 88.0757 36.0738C88.0396 35.5904 88.2358 35.0497 88.2358 34.4726C88.2358 33.776 88.0344 33.776 88.0344 33.0742C88.0344 32.3724 88.3596 32.3776 88.3596 31.6757C88.3596 30.9739 87.8589 30.9739 87.8589 30.2773C87.8589 29.5807 88.4164 29.5755 88.4164 28.8788C88.4164 28.1822 87.9467 28.177 87.9467 27.4804C87.9467 26.7838 88.0086 26.7786 88.0086 26.0767C88.0086 25.3749 88.5455 25.3749 88.5455 24.6731C88.5455 24.096 88.2306 23.571 88.2667 23.0927C88.3132 22.5 88.7519 22.0685 88.85 21.6214C88.9378 21.2419 88.499 20.7117 88.6539 20.4049C88.8242 20.067 89.232 19.8747 89.4901 19.6303C89.7482 19.3808 90.1714 19.438 90.5276 19.2716C90.8425 19.1261 91.0541 18.6426 91.4464 18.5646C91.911 18.471 92.4375 18.1851 93.0465 18.1435C93.5369 18.1071 94.0996 18.1175 94.688 18.1175C95.2764 18.1175 95.2558 18.7882 95.8184 18.7882C96.3811 18.7882 96.7837 18.9701 97.1089 18.5074C97.5683 17.8576 96.9024 17.5924 96.9024 16.7918C96.9024 15.9912 97.2276 15.9912 97.2276 15.1906C97.2276 14.39 97.3257 14.39 97.3257 13.5894C97.3257 12.7888 96.6546 12.7888 96.6546 11.9882C96.6546 11.5568 96.7476 11.3956 96.5772 11.2396C96.4069 11.0837 96.2262 10.8237 95.803 10.8237C95.1474 10.8237 95.1474 11.1045 94.497 11.1045C93.8466 11.1045 93.8415 11.2188 93.1859 11.2188C92.5304 11.2188 92.5304 10.517 91.8748 10.517C91.2967 10.517 90.6773 11.1201 90.2437 10.9693C89.7172 10.7873 89.6552 9.98154 89.3455 9.58124C89.0616 9.22253 88.5816 9.04058 88.4422 8.64028C88.3029 8.23998 87.9519 7.79289 87.9519 7.3458C87.9519 6.89871 88.6435 6.58679 88.7726 6.1553C88.9016 5.7238 88.9739 5.42228 89.2733 5.09476C89.5727 4.76724 89.7378 4.27336 90.1921 4.06022C90.6463 3.84707 91.2193 3.46237 91.8748 3.46237C92.6697 3.46237 92.6697 3.89906 93.4647 3.89906C94.2596 3.89906 94.2596 4.1434 95.0545 4.1434C95.8494 4.1434 95.8494 4.18499 96.6443 4.18499C97.4392 4.18499 97.4392 4.15379 98.2342 4.15379C98.8742 4.15379 99.4678 3.64432 99.9943 3.67551C100.66 3.7171 101.259 3.78989 101.744 3.88346C102.142 3.96144 102.338 4.5281 102.653 4.65807C103.024 4.81403 103.499 4.66327 103.752 4.89721C104.222 5.3287 104.686 5.90056 104.831 6.63358C104.908 7.03388 104.619 7.54335 104.655 8.06322C104.686 8.48952 104.511 8.9418 104.511 9.44608C104.511 10.1687 104.547 10.1687 104.547 10.8965C104.547 11.6243 104.542 11.6191 104.542 12.347C104.542 13.0748 105.192 13.0696 105.192 13.7974C105.192 14.5252 104.774 14.52 104.774 15.2478C104.774 15.9757 105.182 15.9705 105.182 16.6983C105.182 17.4261 104.645 17.4209 104.645 18.1487C104.645 18.8765 104.454 18.8713 104.454 19.5991C104.454 20.327 104.506 20.3218 104.506 21.0496C104.506 21.7774 105.105 21.7722 105.105 22.5C105.105 23.2278 104.738 23.2278 104.738 23.9505C104.738 24.6731 105.223 24.7563 104.733 25.2865C104.273 25.7804 104.186 25.7908 103.51 25.7908C102.833 25.7908 102.833 25.7908 102.162 25.7908C101.491 25.7908 101.486 25.1618 100.815 25.1618C100.144 25.1618 100.139 25.3177 99.4627 25.3177C98.7865 25.3177 98.7865 25.0058 98.1103 25.0058C97.3721 25.0058 97.0521 25.718 96.8147 25.9208C96.5721 26.1235 96.6134 26.3783 96.6134 27.1269C96.6134 27.9483 96.1591 27.9483 96.1591 28.7749C96.1591 29.6015 96.3449 29.5911 96.4224 30.4073C96.4998 31.2235 96.505 31.2442 96.505 32.0708V32.0656ZM109.755 24.3872C109.389 23.9401 109.358 23.9349 108.78 23.9349C108.124 23.9349 107.608 24.1012 107.2 23.8985C106.787 23.7009 106.245 23.6074 106.003 23.2642C105.76 22.9211 105.708 22.3961 105.61 21.9386C105.512 21.4811 105.621 20.9768 105.621 20.4569C105.621 19.9683 105.43 19.4588 105.528 19.0013C105.626 18.5438 105.894 18.1279 106.137 17.7848C106.379 17.4417 106.751 17.1662 107.164 16.953C107.577 16.7399 108.129 16.376 108.785 16.376C109.363 16.376 109.75 17.2545 110.096 16.7918C110.555 16.1784 109.626 15.9029 109.626 15.1335C109.626 14.3641 110.22 14.3693 110.22 13.5998C110.22 12.8304 110.313 12.8304 110.313 12.0662C110.313 11.302 110.308 11.2968 110.308 10.5326C110.308 9.7684 110.106 9.7632 110.106 8.99899C110.106 8.23478 109.699 8.22958 109.699 7.46017C109.699 6.69076 109.874 6.69076 109.874 5.92135C109.874 5.35989 109.642 4.72565 109.797 4.29416C109.972 3.79508 110.788 3.70671 111.17 3.37919C111.531 3.06727 111.846 2.86452 112.279 2.70855C112.713 2.55259 113.079 2.65137 113.57 2.65137C114.06 2.65137 114.499 2.38104 114.933 2.5318C115.366 2.68256 116.022 2.57859 116.399 2.89051C116.796 3.21803 116.595 4.02903 116.78 4.5177C116.946 4.95439 116.992 5.3547 116.992 5.92135C116.992 6.65437 116.966 6.65437 116.966 7.38739C116.966 8.12041 117.261 8.12041 117.261 8.85343C117.261 9.58644 117.462 9.58644 117.462 10.3195C117.462 11.0525 117.245 11.0525 117.245 11.7855C117.245 12.5185 117.446 12.5185 117.446 13.2515C117.446 13.9845 117.126 13.9845 117.126 14.7176C117.126 15.4506 117.627 15.4506 117.627 16.1836C117.627 16.9166 117.075 16.9166 117.075 17.6496C117.075 18.3827 117.544 18.3827 117.544 19.1157C117.544 19.8487 117.483 19.8487 117.483 20.5817C117.483 21.3147 116.946 21.3147 116.946 22.0477C116.946 22.7808 117.276 22.7808 117.276 23.5138C117.276 24.2468 116.904 24.2468 116.904 24.9798C116.904 25.7128 117.498 25.7128 117.498 26.4458C117.498 27.1789 117.276 27.1789 117.276 27.9171C117.276 28.6553 116.987 28.6501 116.987 29.3831C116.987 30.1161 117.379 30.1161 117.379 30.8543C117.379 31.5926 117.591 31.5874 117.591 32.3256C117.591 33.0638 117.565 33.0586 117.565 33.7968C117.565 34.535 116.899 34.5298 116.899 35.2629C116.899 35.9959 117.095 35.9959 117.095 36.7341C117.095 37.4723 117.338 37.4671 117.338 38.2053C117.338 38.9435 117.013 38.9383 117.013 39.6765C117.013 40.4148 116.915 40.4148 116.915 41.1478C116.915 41.8808 118.014 42.3123 117.498 42.8322C116.982 43.352 116.559 42.801 115.82 42.801C115.082 42.801 115.087 42.5774 114.354 42.5774C113.621 42.5774 113.621 42.853 112.888 42.853C112.156 42.853 112.156 42.9673 111.417 42.9673C110.679 42.9673 110.721 42.879 110.189 42.3695C109.657 41.86 109.611 41.9172 109.611 41.2102C109.611 40.5031 110.256 40.5031 110.256 39.7961C110.256 39.0891 109.92 39.0891 109.92 38.3821C109.92 37.675 109.652 37.675 109.652 36.968C109.652 36.261 110.292 36.261 110.292 35.554C110.292 34.847 110.21 34.847 110.21 34.1399C110.21 33.4329 109.905 33.4329 109.905 32.7259C109.905 32.0189 109.637 32.0189 109.637 31.3118C109.637 30.6048 110.07 30.6048 110.07 29.8978C110.07 29.1908 110.313 29.1908 110.313 28.4837C110.313 27.7767 110.354 27.7767 110.354 27.0697C110.354 26.3627 110.23 26.4043 110.318 25.6972C110.401 25.0318 110.215 24.9278 109.771 24.3768L109.755 24.3872ZM119.01 5.92655C119.01 5.35989 119.604 4.96999 119.769 4.5333C119.955 4.04462 119.996 3.55594 120.394 3.23362C120.776 2.9217 121.075 2.42782 121.519 2.27706C121.963 2.1263 122.495 2.19908 122.99 2.19908C123.486 2.19908 123.909 2.43302 124.348 2.58898C124.786 2.74495 125.318 2.76574 125.7 3.07246C126.108 3.39998 126.376 3.90426 126.567 4.39293C126.738 4.82963 126.794 5.35989 126.794 5.93175C126.794 6.66477 127.037 6.66477 127.037 7.39779C127.037 8.1308 126.547 8.1308 126.547 8.86382C126.547 9.59684 127.052 9.59684 127.052 10.3299C127.052 11.0629 126.464 11.0629 126.464 11.7959C126.464 12.5289 126.371 12.5289 126.371 13.2619C126.371 13.9949 126.376 13.9949 126.376 14.728C126.376 15.461 126.578 15.461 126.578 16.194C126.578 16.927 126.98 16.927 126.98 17.66C126.98 18.3931 126.805 18.3931 126.805 19.1261C126.805 19.8591 127.135 19.8591 127.135 20.5921C127.135 21.3251 126.495 21.3251 126.495 22.0581C126.495 22.7912 126.51 22.7912 126.51 23.5242C126.51 24.2572 126.361 24.2572 126.361 24.9902C126.361 25.7232 126.701 25.7232 126.701 26.4562C126.701 27.1893 127.12 27.1893 127.12 27.9275C127.12 28.6657 126.464 28.6605 126.464 29.3935C126.464 30.1265 126.443 30.1265 126.443 30.8647C126.443 31.603 126.418 31.5978 126.418 32.336C126.418 33.0742 126.707 33.069 126.707 33.8072C126.707 34.5454 126.903 34.5402 126.903 35.2732C126.903 36.0063 126.691 36.0063 126.691 36.7445C126.691 37.4827 126.892 37.4775 126.892 38.2157C126.892 38.9539 126.572 38.9487 126.572 39.6869C126.572 40.4252 127.068 40.4252 127.068 41.1582C127.068 41.8912 127.109 41.9588 126.583 42.4735C126.056 42.9881 125.984 42.879 125.236 42.879C124.487 42.879 124.487 42.8166 123.733 42.8166C122.98 42.8166 122.985 42.2811 122.231 42.2811C121.478 42.2811 121.478 42.6138 120.729 42.6138C119.981 42.6138 120.032 42.879 119.49 42.3487C118.948 41.8184 119.021 41.8912 119.021 41.1582C119.021 40.4252 119.238 40.4252 119.238 39.6921C119.238 38.9591 119.527 38.9591 119.527 38.2261C119.527 37.4931 119.139 37.4931 119.139 36.7601C119.139 36.0271 118.928 36.0271 118.928 35.294C118.928 34.561 118.954 34.561 118.954 33.828C118.954 33.095 119.614 33.095 119.614 32.362C119.614 31.629 119.423 31.629 119.423 30.8959C119.423 30.1629 119.181 30.1629 119.181 29.4299C119.181 28.6969 119.501 28.6969 119.501 27.9639C119.501 27.2309 119.599 27.2309 119.599 26.4978C119.599 25.7648 118.938 25.7648 118.938 25.0318C118.938 24.2988 119.057 24.2988 119.057 23.5658C119.057 22.8327 119.279 22.8327 119.279 22.0997C119.279 21.3667 119.005 21.3667 119.005 20.6285C119.005 19.8903 118.892 19.8955 118.892 19.1625C118.892 18.4294 119.578 18.4294 119.578 17.6912C119.578 16.953 118.897 16.9582 118.897 16.22C118.897 15.4818 119.537 15.487 119.537 14.7488C119.537 14.0105 119.207 14.0157 119.207 13.2827C119.207 12.5497 118.938 12.5497 118.938 11.8115C118.938 11.0733 119.573 11.0785 119.573 10.3403C119.573 9.60204 119.49 9.60724 119.49 8.86902C119.49 8.1308 119.263 8.136 119.191 7.40299C119.119 6.66997 119.005 6.66477 119.005 5.92655H119.01Z" fill="black"/>
<path d="M158.849 44.0434C158.343 43.5496 158.679 43.4872 158.679 42.775C158.679 42.0627 158.637 42.0627 158.637 41.3557C158.637 40.6487 158.617 40.6435 158.617 39.9365C158.617 39.2294 158.823 39.2242 158.823 38.5172C158.823 37.8102 158.725 37.805 158.725 37.0928C158.725 36.3806 159.133 36.3806 159.133 35.6683C159.133 34.9561 158.421 34.9561 158.421 34.2491C158.421 33.5421 158.937 33.5369 158.937 32.8246C158.937 32.1124 158.436 32.1124 158.436 31.4002C158.436 30.688 158.508 30.688 158.508 29.9757C158.508 29.2635 158.333 29.2635 158.333 28.5513C158.333 27.8391 159.391 27.4024 158.834 26.9657C158.111 26.4042 157.796 26.9917 156.888 26.9917C156.464 26.9917 156.129 26.7889 155.757 26.7162C155.344 26.633 154.771 27.0853 154.436 26.9137C153.78 26.5862 153.367 25.8688 152.965 25.3073C152.918 25.2397 152.939 25.2397 152.892 25.1721C152.789 25.3333 152.665 25.4321 152.541 25.5776C152.118 26.0923 151.499 26.3834 150.843 26.6798C150.513 26.8305 150.208 27.1165 149.826 27.1892C149.47 27.2568 149.083 27.496 148.691 27.496C147.947 27.496 147.947 26.9137 147.209 26.9137C146.471 26.9137 146.466 27.0593 145.728 27.0593C144.99 27.0593 144.985 26.9033 144.246 26.9033C143.508 26.9033 143.503 27.4648 142.76 27.4648C142.017 27.4648 141.469 26.3782 140.969 26.9293C140.416 27.5428 141.48 28.0366 141.48 28.858C141.48 29.6794 141.547 29.6846 141.547 30.5112C141.547 31.3378 140.824 31.4678 141.351 32.102C141.789 32.6323 141.96 31.9772 142.641 31.9772C143.322 31.9772 143.328 32.2372 144.009 32.2372C144.69 32.2372 144.69 32.2788 145.377 32.2788C146.063 32.2788 146.058 31.9149 146.745 31.9149C147.431 31.9149 147.431 32.5699 148.113 32.5699C148.794 32.5699 148.799 32.2892 149.48 32.2892C150.162 32.2892 150.167 31.9461 150.848 31.9461C151.53 31.9461 151.535 32.2684 152.221 32.2684C152.908 32.2684 152.908 32.206 153.594 32.206C154.018 32.206 154.358 32.4711 154.725 32.5491C155.133 32.6375 155.747 32.1748 156.088 32.362C156.707 32.7051 157.264 33.3185 157.641 33.8488C157.997 34.3583 158.209 35.0601 158.359 35.6839C158.488 36.2298 158.307 36.8172 158.307 37.3319C158.307 37.883 158.152 38.4028 158.023 38.9331C157.874 39.557 157.631 40.082 157.249 40.5967C156.852 41.127 156.392 41.5377 155.773 41.86C155.442 42.0315 155.164 42.4163 154.776 42.4994C154.42 42.5774 154.002 42.4162 153.6 42.4162C152.882 42.4162 152.882 42.8373 152.17 42.8373C151.457 42.8373 151.452 42.1043 150.74 42.1043C150.028 42.1043 150.022 42.0627 149.31 42.0627C148.598 42.0627 148.593 42.567 147.88 42.567C147.168 42.567 147.163 42.5046 146.45 42.5046C145.738 42.5046 145.733 42.4059 145.021 42.4059C144.308 42.4059 144.303 42.6242 143.591 42.6242C142.879 42.6242 142.873 42.7022 142.161 42.7022C141.449 42.7022 141.444 42.2551 140.731 42.2551C140.019 42.2551 140.014 42.4007 139.296 42.4007C138.579 42.4007 138.579 42.4266 137.861 42.4266C137.417 42.4266 136.994 42.593 136.602 42.5774C136.158 42.5566 135.74 42.463 135.353 42.4162C134.904 42.3643 134.553 42.0108 134.181 41.9224C133.634 41.7924 133.252 41.4961 132.808 41.2569C132.318 41.0022 131.615 41.1114 131.259 40.7319C130.908 40.3576 130.81 39.7753 130.583 39.2814C130.371 38.8291 130.335 38.3249 130.227 37.7738C130.155 37.4047 129.84 37.0564 129.793 36.6249C129.752 36.2506 129.515 35.8555 129.499 35.424C129.484 35.0445 130.031 34.6286 130.031 34.2023C130.031 33.5057 129.386 33.5057 129.386 32.809C129.386 32.1124 129.437 32.1124 129.437 31.4106C129.437 30.7088 129.659 30.714 129.659 30.0121C129.659 29.3103 130.088 29.3155 130.088 28.6137C130.088 27.9119 130.046 27.9171 130.046 27.2152C130.046 26.5134 129.711 26.5186 129.711 25.8168C129.711 25.115 129.38 25.115 129.38 24.4183C129.38 23.7217 130.108 23.7217 130.108 23.0199C130.108 22.3181 129.442 22.3233 129.442 21.6214C129.442 20.9196 129.613 20.9196 129.613 20.223C129.613 19.5263 129.86 19.5263 129.86 18.8245C129.86 18.1227 129.639 18.1279 129.639 17.4261C129.639 16.7242 129.602 16.7242 129.602 16.0276C129.602 15.331 129.933 15.3258 129.933 14.6292C129.933 13.9325 129.479 13.9273 129.479 13.2307C129.479 12.5341 129.303 12.5289 129.303 11.8271C129.303 11.1252 130.16 11.1252 130.16 10.4234C130.16 9.99712 130.098 9.60722 130.119 9.22771C130.139 8.79622 129.984 8.40112 130.026 8.02161C130.072 7.59012 129.695 7.12223 129.768 6.75833C129.876 6.21246 130.237 5.73418 130.444 5.28189C130.676 4.78802 131.027 4.38252 131.373 4.00821C131.729 3.62351 132.065 3.12963 132.555 2.87489C133.004 2.64095 133.541 2.38101 134.093 2.25625C134.465 2.17307 134.883 1.94432 135.327 1.89753C135.709 1.85595 136.163 2.18346 136.607 2.16267C136.994 2.14707 137.412 2.41741 137.851 2.41741C138.594 2.41741 138.594 2.01711 139.332 2.01711C140.071 2.01711 140.076 2.56297 140.814 2.56297C141.552 2.56297 141.557 2.31343 142.295 2.31343C143.033 2.31343 143.039 2.53178 143.777 2.53178C144.515 2.53178 144.52 2.20946 145.258 2.20946C145.996 2.20946 146.001 2.31343 146.745 2.31343C147.488 2.31343 147.488 1.92353 148.231 1.92353C148.975 1.92353 148.975 1.89753 149.718 1.89753C150.461 1.89753 150.461 1.87674 151.205 1.87674C151.628 1.87674 151.968 2.50058 152.335 2.58376C152.743 2.67214 153.321 2.28224 153.656 2.46939C154.276 2.81771 154.503 3.61831 154.88 4.15377C155.236 4.66325 155.85 5.08954 155.995 5.71339C156.119 6.25925 155.644 6.8519 155.644 7.37177C155.644 7.91764 156.242 8.55708 156.119 9.09774C155.969 9.74238 155.551 10.4026 155.169 10.9173C154.782 11.4372 153.935 11.4736 153.331 11.8115C152.996 11.9986 152.707 12.1234 152.309 12.2118C151.943 12.2949 151.612 12.6433 151.199 12.6433C150.492 12.6433 150.492 12.5705 149.78 12.5705C149.068 12.5705 149.073 12.4197 148.366 12.4197C147.658 12.4197 147.658 12.3833 146.946 12.3833C146.234 12.3833 146.239 12.2586 145.527 12.2586C144.814 12.2586 144.819 12.5185 144.107 12.5185C143.395 12.5185 143.395 12.5393 142.688 12.5393C141.98 12.5393 141.681 11.9934 141.185 12.5029C140.69 13.0124 141.17 13.3139 141.17 14.0469C141.17 14.7799 141.387 14.7799 141.387 15.5181C141.387 16.2564 140.747 16.4695 141.268 16.9842C141.789 17.4989 142.006 17.0726 142.749 17.0726C143.493 17.0726 143.493 17.2701 144.231 17.2701C144.969 17.2701 144.974 17.2597 145.712 17.2597C146.451 17.2597 146.456 16.9998 147.199 16.9998C147.942 16.9998 147.942 16.8854 148.686 16.8854C149.088 16.8854 149.491 16.9166 149.847 16.9842C150.239 17.057 150.714 17.0102 151.044 17.1661C151.679 17.4677 152.407 17.8784 152.825 18.3878C152.892 18.4658 152.562 18.679 152.619 18.7621C152.712 18.601 153.011 18.679 153.12 18.5282C153.512 18.0031 153.909 17.4833 154.534 17.1505C154.88 16.9686 155.174 16.4383 155.592 16.3499C155.969 16.272 156.449 16.6255 156.877 16.6255C157.791 16.6255 157.822 16.9634 158.539 16.3915C159.107 15.9392 158.725 15.8717 158.725 15.1438C158.725 14.416 158.539 14.416 158.539 13.6934C158.539 12.9708 158.56 12.9656 158.56 12.243C158.56 11.5203 158.364 11.5151 158.364 10.7873C158.364 10.0595 158.751 10.0595 158.751 9.33168C158.751 8.60387 158.576 8.60387 158.576 7.87605C158.576 7.14823 159.118 7.14823 159.118 6.42041C159.118 5.81736 159.112 5.37027 159.226 4.89719C159.37 4.30973 159.164 3.68589 159.417 3.26999C159.742 2.73973 160.171 2.36022 160.522 2.06909C160.898 1.76237 161.342 1.58041 161.755 1.37247C162.168 1.16452 162.581 0.87339 163.046 0.769415C163.51 0.665441 163.985 0.322327 164.47 0.322327C164.832 0.322327 165.208 0.592659 165.559 0.655044C165.91 0.717428 166.096 1.33088 166.432 1.45564C166.772 1.58041 167.165 1.46604 167.475 1.6428C167.784 1.81955 168.187 1.86114 168.46 2.09509C168.744 2.34462 169.193 2.49539 169.42 2.80211C169.648 3.10883 169.808 3.50394 169.973 3.85745C170.148 4.23175 169.926 4.76202 170.009 5.18832C170.086 5.58862 170.381 5.97852 170.381 6.42041C170.381 7.14823 170.623 7.14823 170.623 7.87085C170.623 8.59347 170.076 8.59867 170.076 9.32129C170.076 10.0439 170.546 10.0491 170.546 10.7717C170.546 11.4943 170.412 11.4995 170.412 12.2222C170.412 12.9448 169.962 12.95 169.962 13.6726C169.962 14.3952 170.184 14.4004 170.184 15.123C170.184 15.8457 170.427 15.8509 170.427 16.5735C170.427 17.2961 170.055 17.3013 170.055 18.0239C170.055 18.7465 170.221 18.7517 170.221 19.4744C170.221 20.197 170.551 20.197 170.551 20.9248C170.551 21.6526 170.195 21.6474 170.195 22.3752C170.195 23.1031 170.53 23.1031 170.53 23.8257C170.53 24.5483 170.613 24.5483 170.613 25.2761C170.613 26.0039 170.319 26.0039 170.319 26.7266C170.319 27.4492 169.88 27.4544 169.88 28.177C169.88 28.8996 170.618 28.9048 170.618 29.6274C170.618 30.3501 170.133 30.3553 170.133 31.0779C170.133 31.8005 170.355 31.8057 170.355 32.5283C170.355 33.2509 170.391 33.2561 170.391 33.984C170.391 34.7118 170.329 34.7118 170.329 35.4396C170.329 36.1674 170.391 36.1674 170.391 36.89C170.391 37.6126 170.246 37.6178 170.246 38.3457C170.246 39.0735 170.179 39.0735 170.179 39.8013C170.179 40.5291 170.334 40.5291 170.334 41.2569C170.334 41.9848 170.055 41.9848 170.055 42.7126C170.055 43.4404 171.098 43.9603 170.582 44.4749C170.066 44.9896 169.555 43.8875 168.827 43.8875C168.099 43.8875 168.104 43.9031 167.376 43.9031C166.649 43.9031 166.654 44.4593 165.931 44.4593C165.208 44.4593 165.208 43.8043 164.481 43.8043C163.753 43.8043 163.758 44.2306 163.03 44.2306C162.302 44.2306 162.308 44.3346 161.58 44.3346C160.852 44.3346 160.847 44.0486 160.129 44.163C159.412 44.2774 159.35 44.5269 158.828 44.0175L158.849 44.0434Z" stroke="black" stroke-miterlimit="10"/>
<path d="M137.846 40.7059C137.226 40.7059 136.674 40.7475 136.158 40.7059C135.518 40.6539 134.991 40.5395 134.516 40.4252C134.119 40.3316 133.866 40.0976 133.551 39.9365C133.19 39.7545 132.534 40.0249 132.287 39.7597C132.039 39.4946 132.297 38.8603 132.137 38.4964C131.992 38.1741 131.43 37.9662 131.352 37.5607C131.259 37.0876 131.404 36.5001 131.363 35.8763C131.326 35.372 131.502 34.8158 131.502 34.2127C131.502 33.5161 131.12 33.5161 131.12 32.8195C131.12 32.1228 131.357 32.1228 131.357 31.421C131.357 30.7192 130.986 30.7244 130.986 30.0225C130.986 29.3207 131.239 29.3259 131.239 28.6241C131.239 27.9223 131.507 27.9275 131.507 27.2256C131.507 26.5238 131.037 26.529 131.037 25.8272C131.037 25.1254 131.006 25.1254 131.006 24.4287C131.006 23.7321 131.295 23.7321 131.295 23.0303C131.295 22.3285 131.564 22.3337 131.564 21.6318C131.564 20.93 131.476 20.93 131.476 20.2334C131.476 19.5368 131.61 19.5368 131.61 18.8349C131.61 18.1331 131.667 18.1383 131.667 17.4365C131.667 16.7347 131.667 16.7347 131.667 16.038C131.667 15.3414 131.166 15.3362 131.166 14.6396C131.166 13.9429 131.125 13.9377 131.125 13.2411C131.125 12.5445 131.507 12.5393 131.507 11.8375C131.507 11.1356 131.383 11.1356 131.383 10.4338C131.383 9.83077 130.97 9.25372 131.006 8.74944C131.048 8.1256 131.254 7.56414 131.347 7.08586C131.425 6.68036 131.455 6.23327 131.6 5.91095C131.765 5.54184 132.307 5.40667 132.555 5.14154C132.803 4.87641 133.185 4.87121 133.541 4.69445C133.856 4.53849 134.047 3.99783 134.449 3.91465C134.924 3.81067 135.528 4.107 136.173 4.06541C136.684 4.02902 137.237 3.76908 137.851 3.76908C138.594 3.76908 138.594 3.43637 139.332 3.43637C140.071 3.43637 140.076 3.86266 140.814 3.86266C141.552 3.86266 141.557 3.66511 142.295 3.66511C143.033 3.66511 143.039 3.85226 143.777 3.85226C144.515 3.85226 144.52 3.48835 145.258 3.48835C145.996 3.48835 146.001 4.04461 146.745 4.04461C147.488 4.04461 147.488 3.86266 148.231 3.86266C148.975 3.86266 148.975 3.47276 149.718 3.47276C150.461 3.47276 150.461 3.47276 151.205 3.47276C151.829 3.47276 152.485 3.64431 152.898 3.87306C153.311 4.1018 153.491 4.64766 153.734 4.99078C153.976 5.33389 154.477 5.64062 154.575 6.06691C154.673 6.4984 154.183 6.98708 154.183 7.38738C154.183 7.81887 154.033 8.17239 153.935 8.59868C153.837 9.03017 153.992 9.50325 153.739 9.84637C153.481 10.1895 153.068 10.3454 152.655 10.5742C152.242 10.8029 151.803 11.4008 151.205 11.4008C150.466 11.4008 150.466 10.7925 149.723 10.7925C148.98 10.7925 148.985 11.3644 148.242 11.3644C147.498 11.3644 147.504 11.1772 146.76 11.1772C146.017 11.1772 146.022 11.0629 145.279 11.0629C144.535 11.0629 144.535 10.9069 143.797 10.9069C143.059 10.9069 143.054 11.432 142.316 11.432C141.578 11.432 141.573 10.8289 140.834 10.8289C140.437 10.8289 140.205 11.1772 140.034 11.3488C139.864 11.5204 139.828 11.7959 139.828 12.2846C139.828 13.0696 139.828 13.0696 139.828 13.8546C139.828 14.6396 139.539 14.6396 139.539 15.4246C139.539 16.2096 139.575 16.2096 139.575 16.9946C139.575 17.7796 139.436 17.764 139.972 18.3307C140.509 18.8973 140.473 18.3307 141.222 18.3307C141.97 18.3307 141.97 18.8661 142.713 18.8661C143.457 18.8661 143.462 18.6062 144.205 18.6062C144.948 18.6062 144.954 18.3203 145.697 18.3203C146.44 18.3203 146.445 18.4814 147.194 18.4814C147.942 18.4814 147.942 18.6426 148.691 18.6426C149.315 18.6426 149.914 18.5126 150.342 18.7102C150.771 18.9129 151.112 19.2768 151.38 19.6043C151.648 19.9319 151.829 20.353 151.958 20.7844C152.087 21.2159 152.397 21.6734 152.397 22.1309C152.397 22.5624 151.85 22.9315 151.721 23.363C151.592 23.7945 151.824 24.4287 151.556 24.7615C151.287 25.089 150.575 24.9018 150.136 25.0994C149.692 25.3021 149.289 25.2813 148.691 25.2813C147.947 25.2813 147.947 25.2865 147.199 25.2865C146.451 25.2865 146.45 25.4893 145.707 25.4893C144.964 25.4893 144.959 25.9 144.215 25.9C143.472 25.9 143.467 25.7232 142.724 25.7232C141.98 25.7232 141.975 26.0611 141.227 26.0611C140.478 26.0611 140.122 24.9694 139.565 25.4737C139.064 25.9312 139.498 26.3367 139.498 27.0229C139.498 27.7091 139.348 27.7039 139.348 28.3902C139.348 29.0764 139.694 29.0712 139.694 29.7574C139.694 30.4436 140.117 30.4436 140.117 31.1247C140.117 31.8057 139.456 31.8109 139.456 32.4919C139.456 32.9806 139.606 33.5161 139.776 33.6876C139.947 33.8592 140.437 34.0619 140.834 34.0619C141.542 34.0619 141.542 33.7656 142.249 33.7656C142.956 33.7656 142.956 33.5629 143.668 33.5629C144.381 33.5629 144.375 33.7812 145.088 33.7812C145.8 33.7812 145.795 33.5785 146.502 33.5785C147.209 33.5785 147.209 33.9008 147.922 33.9008C148.634 33.9008 148.629 33.4017 149.341 33.4017C150.053 33.4017 150.048 33.958 150.761 33.958C151.473 33.958 151.473 33.4849 152.18 33.4849C152.887 33.4849 152.892 33.5473 153.6 33.5473C154.224 33.5473 154.58 34.1555 154.993 34.3895C155.406 34.6182 155.891 34.6078 156.129 34.9509C156.371 35.294 156.175 35.7619 156.279 36.1934C156.377 36.6249 157.006 36.9524 157.006 37.3527C157.006 37.7842 156.738 38.2001 156.635 38.616C156.537 39.0319 156.129 39.2295 155.871 39.5726C155.613 39.9157 155.561 40.4563 155.153 40.6747C154.74 40.8878 154.193 41.2206 153.6 41.2206C152.882 41.2206 152.882 41.1946 152.17 41.1946C151.457 41.1946 151.452 40.5239 150.74 40.5239C150.028 40.5239 150.022 40.7163 149.31 40.7163C148.598 40.7163 148.593 40.9606 147.88 40.9606C147.168 40.9606 147.163 40.6331 146.45 40.6331C145.738 40.6331 145.733 40.5343 145.021 40.5343C144.308 40.5343 144.303 41.205 143.591 41.205C142.879 41.205 142.873 41.0854 142.161 41.0854C141.449 41.0854 141.444 40.8619 140.731 40.8619C140.019 40.8619 139.988 41.2102 139.276 41.1374C138.563 41.0646 138.579 40.6903 137.866 40.6903L137.846 40.7059ZM160.387 25.4113C159.742 24.8654 159.407 25.4217 158.565 25.4217C157.724 25.4217 157.724 25.3801 156.877 25.3801C156.222 25.3801 155.829 25.1722 155.401 24.9538C154.973 24.7407 154.26 24.9122 154.002 24.5535C153.744 24.1948 154.064 23.5606 153.956 23.1135C153.842 22.6716 153.321 22.3025 153.321 21.8762C153.321 21.4499 153.594 21.0184 153.708 20.5713C153.822 20.1294 154.152 19.8591 154.41 19.516C154.668 19.1728 154.756 18.6114 155.179 18.3826C155.608 18.1539 156.222 18.2579 156.877 18.2579C157.719 18.2579 157.719 17.8836 158.565 17.8836C159.412 17.8836 159.587 18.6998 160.227 18.1487C160.78 17.6704 160.48 17.4417 160.48 16.7087C160.48 15.9756 160.016 15.9756 160.016 15.2426C160.016 14.5096 159.985 14.5096 159.985 13.7766C159.985 13.0436 160.269 13.0436 160.269 12.3106C160.269 11.5775 160.537 11.5775 160.537 10.8445C160.537 10.1115 160.449 10.1115 160.449 9.37849C160.449 8.64547 160.578 8.64547 160.578 7.90725C160.578 7.16904 160.635 7.17423 160.635 6.43602C160.635 5.79138 160.707 5.35989 160.893 4.86081C161.105 4.29935 161.007 3.60792 161.461 3.23362C161.889 2.8801 162.369 2.56298 162.86 2.38623C163.35 2.20947 163.923 2.4954 164.475 2.4954C165.028 2.4954 165.508 2.45901 166.019 2.64096C166.53 2.82812 167.232 2.75014 167.629 3.09325C168.027 3.43636 168.311 4.02902 168.553 4.54889C168.796 5.06356 169.044 5.74979 169.044 6.43602C169.044 7.15864 168.662 7.15864 168.662 7.88126C168.662 8.60388 168.44 8.60388 168.44 9.3265C168.44 10.0491 168.884 10.0491 168.884 10.7717C168.884 11.4944 168.512 11.4944 168.512 12.217C168.512 12.9396 168.749 12.9396 168.749 13.6622C168.749 14.3848 169.075 14.3848 169.075 15.1075C169.075 15.8301 168.657 15.8301 168.657 16.5527C168.657 17.2753 168.853 17.2753 168.853 17.9979C168.853 18.7206 168.667 18.7206 168.667 19.4432C168.667 20.1658 169.023 20.1658 169.023 20.8884C169.023 21.611 168.476 21.611 168.476 22.3337C168.476 23.0563 168.657 23.0563 168.657 23.7789C168.657 24.5015 169.044 24.5015 169.044 25.2241C169.044 25.9468 169.044 25.9468 169.044 26.6694C169.044 27.392 169.023 27.392 169.023 28.1198C169.023 28.8476 168.729 28.8424 168.729 29.5651C168.729 30.2877 169.064 30.2877 169.064 31.0155C169.064 31.7433 168.517 31.7381 168.517 32.4659C168.517 33.1938 168.409 33.1886 168.409 33.9164C168.409 34.6442 168.755 34.639 168.755 35.3616C168.755 36.0842 168.605 36.0842 168.605 36.8121C168.605 37.5399 169.1 37.5347 169.1 38.2625C169.1 38.9903 168.502 38.9851 168.502 39.7129C168.502 40.4408 169.064 40.4408 169.064 41.1634C169.064 41.886 169.343 42.1979 168.842 42.7126C168.342 43.2273 168.037 42.6398 167.33 42.6398C166.623 42.6398 166.623 42.4838 165.916 42.4838C165.208 42.4838 165.208 43.0037 164.501 43.0037C163.794 43.0037 163.794 42.4059 163.087 42.4059C162.38 42.4059 162.38 42.6918 161.667 42.6918C160.955 42.6918 160.682 43.1909 160.176 42.6866C159.67 42.1823 160.15 41.9016 160.15 41.1946C160.15 40.4875 160.434 40.4823 160.434 39.7753C160.434 39.0683 160.398 39.0631 160.398 38.3561C160.398 37.649 159.907 37.6439 159.907 36.9368C159.907 36.2298 160.016 36.2246 160.016 35.5124C160.016 34.8002 160.542 34.8002 160.542 34.0879C160.542 33.3757 160.284 33.3757 160.284 32.6687C160.284 31.9617 160 31.9565 160 31.2442C160 30.532 160.16 30.532 160.16 29.8198C160.16 29.1076 160.32 29.1076 160.32 28.3954C160.32 27.6831 159.897 27.6155 160.083 26.9293C160.305 26.0975 160.919 25.8428 160.377 25.3853L160.387 25.4113Z" fill="black"/>
</g>
<defs>
<clipPath id="clip0_72_1123">
<rect width="171" height="45" fill="white"/>
</clipPath>
</defs>
</svg>
