<svg width="188" height="42" viewBox="0 0 188 42" fill="none" xmlns="http://www.w3.org/2000/svg">
<path d="M63.4412 2.14C65.1352 2.14 66.2832 3.064 66.8852 4.912C66.9972 5.164 67.0532 5.528 67.0532 6.004V6.928C67.0532 8.748 65.5692 11.1 62.6012 13.984V14.068C63.4412 14.012 64.0572 13.984 64.4492 13.984H65.2052C65.4712 13.984 65.7512 14.012 66.0452 14.068C66.2552 14.012 66.5072 13.984 66.8012 13.984H66.8852C67.6132 14.054 67.9772 14.334 67.9772 14.824V14.992C67.9772 15.496 67.6412 15.776 66.9692 15.832H65.2052C64.1972 15.832 62.4892 15.888 60.0812 16C59.5212 15.874 59.2412 15.594 59.2412 15.16V14.992C59.2412 14.684 60.1372 13.732 61.9292 12.136C64.1692 9.798 65.2892 7.922 65.2892 6.508C65.2892 4.828 64.6172 3.988 63.2732 3.988H63.1052C62.3492 3.988 61.5372 4.38 60.6692 5.164H60.3332C59.8712 5.164 59.5912 4.856 59.4932 4.24C59.4932 3.274 60.6972 2.574 63.1052 2.14H63.4412ZM74.0461 0.900999C76.0061 1.209 76.9861 1.573 76.9861 1.993C77.7701 2.819 78.1621 3.659 78.1621 4.513C77.7701 6.025 77.3501 6.781 76.9021 6.781C76.2861 7.397 75.3341 7.705 74.0461 7.705C71.8061 7.299 70.6861 6.823 70.6861 6.277C70.4341 6.277 70.2101 5.689 70.0141 4.513C70.0141 3.015 70.9101 1.895 72.7021 1.153C73.1641 1.041 73.6121 0.956999 74.0461 0.900999ZM71.8621 4.597C71.8621 5.227 72.5341 5.647 73.8781 5.857H74.2981C75.6421 5.857 76.3141 5.353 76.3141 4.345C75.9781 3.337 75.4181 2.833 74.6341 2.833L74.0461 2.749C72.5901 2.945 71.8621 3.561 71.8621 4.597ZM81.9211 1.111C82.4391 1.111 82.7471 1.503 82.8451 2.287V3.547C82.8451 3.911 82.7891 5.927 82.6771 9.595V11.191C82.6771 11.919 82.3691 12.283 81.7531 12.283C81.2631 12.283 80.9271 11.947 80.7451 11.275C78.5051 11.275 77.3851 11.107 77.3851 10.771C77.2731 10.547 77.2171 10.351 77.2171 10.183C77.3991 9.679 77.6791 9.427 78.0571 9.427H80.9131V8.671C80.9271 6.193 80.9831 4.765 81.0811 4.387L80.9971 3.883V2.035C81.1091 1.419 81.4171 1.111 81.9211 1.111ZM79.0651 7.327C79.6251 7.453 79.9051 7.733 79.9051 8.167V8.251C79.9051 8.923 79.1491 9.259 77.6371 9.259C77.6371 9.329 76.8811 9.413 75.3691 9.511V11.275C75.3691 12.059 75.0891 12.451 74.5291 12.451H74.2771C73.8571 12.451 73.6051 12.171 73.5211 11.611V9.679L70.1611 9.847C69.6011 9.623 69.3211 9.315 69.3211 8.923C69.3211 8.307 69.9091 7.999 71.0851 7.999C74.3051 7.775 76.9651 7.551 79.0651 7.327ZM71.5051 11.485H77.1331C80.0451 11.485 81.5011 11.625 81.5011 11.905C81.6691 12.339 81.7531 13.039 81.7531 14.005C81.7531 15.349 81.1651 16.021 79.9891 16.021C78.6171 16.077 76.0971 16.133 72.4291 16.189V17.155H76.2091C77.1891 17.155 78.1971 17.183 79.2331 17.239C79.4851 17.183 80.1011 17.155 81.0811 17.155C81.6131 17.155 81.8931 17.519 81.9211 18.247C81.7531 18.751 81.3891 19.003 80.8291 19.003H71.6731C70.9451 18.877 70.5811 18.597 70.5811 18.163L70.6651 17.575V17.407C70.6651 17.141 70.6371 16.791 70.5811 16.357C70.5811 15.013 71.0571 14.341 72.0091 14.341C72.2331 14.341 72.3451 14.369 72.3451 14.425C72.4011 14.425 72.6251 14.397 73.0171 14.341C76.5731 14.285 78.6731 14.257 79.3171 14.257L79.9051 14.173V13.333C77.3151 13.277 75.2991 13.249 73.8571 13.249H71.7571C71.6311 13.249 71.5191 13.277 71.4211 13.333C71.0431 13.333 70.7351 13.109 70.4971 12.661V12.325C70.4971 11.821 70.8331 11.541 71.5051 11.485ZM94.7119 2.392C95.3279 2.49 95.6359 2.77 95.6359 3.232V5.92C95.6359 6.732 95.6079 7.292 95.5519 7.6C95.6079 8.188 95.6359 8.832 95.6359 9.532V14.152L96.0559 14.068C97.5119 14.068 98.2399 14.404 98.2399 15.076V15.244C97.9319 15.748 97.6519 16 97.3999 16L96.8959 15.916C95.2719 15.972 93.9279 16 92.8639 16H92.1079C91.3799 16 91.0159 15.692 91.0159 15.076C91.1139 14.46 91.4219 14.152 91.9399 14.152H93.7879V4.492C92.9339 4.828 92.4019 4.996 92.1919 4.996C91.5759 4.884 91.2679 4.576 91.2679 4.072C91.2679 3.386 92.4159 2.826 94.7119 2.392ZM105.338 2.392H105.758C106.542 2.504 106.934 2.896 106.934 3.568C106.934 3.68 106.906 3.736 106.85 3.736L106.934 4.744V10.456C106.948 10.568 107.004 10.624 107.102 10.624H108.11C108.558 10.624 108.838 10.932 108.95 11.548C108.81 12.108 108.502 12.388 108.026 12.388H106.934V15.244C106.864 15.748 106.612 16 106.178 16H105.758C105.366 15.804 105.17 15.524 105.17 15.16V12.388H105.086C104.064 12.388 102.44 12.36 100.214 12.304C99.7098 12.122 99.4578 11.814 99.4578 11.38C99.4578 10.862 100.942 8.398 103.91 3.988C104.456 2.924 104.932 2.392 105.338 2.392ZM105.002 5.5L101.894 10.54H105.086V10.204C105.086 9.966 105.114 9.742 105.17 9.532L105.086 9.112C105.086 8.832 105.114 8.496 105.17 8.104C105.114 7.362 105.086 6.578 105.086 5.752V5.5H105.002ZM114.41 2.119C115.922 2.119 117.126 2.91 118.022 4.492C118.246 5.206 118.386 5.794 118.442 6.256C118.442 8.076 117.406 9.455 115.334 10.393C114.956 10.449 114.648 10.477 114.41 10.477H113.57C111.89 10.477 110.686 9.392 109.958 7.222L109.874 6.34C109.874 4.24 110.994 2.833 113.234 2.119H114.41ZM111.722 6.34C111.722 7.6 112.394 8.363 113.738 8.629C115.292 8.629 116.244 7.929 116.594 6.529V6.256C116.594 5.15 115.866 4.387 114.41 3.967C113.178 3.967 112.31 4.464 111.806 5.458L111.722 6.34ZM121.991 1.321H122.159C122.649 1.321 122.929 1.685 122.999 2.413V4.765C122.999 6.165 123.027 8.153 123.083 10.729C122.985 10.981 122.789 11.205 122.495 11.401H121.907C121.403 11.401 121.151 10.113 121.151 7.537V6.025L121.235 5.521C121.179 5.157 121.151 4.793 121.151 4.429V2.329C121.207 1.657 121.487 1.321 121.991 1.321ZM112.73 11.485H118.358C121.27 11.485 122.726 11.625 122.726 11.905C122.894 12.339 122.978 13.039 122.978 14.005C122.978 15.349 122.39 16.021 121.214 16.021C119.842 16.077 117.322 16.133 113.654 16.189V17.155H117.434C118.414 17.155 119.422 17.183 120.458 17.239C120.71 17.183 121.326 17.155 122.306 17.155C122.838 17.155 123.118 17.519 123.146 18.247C122.978 18.751 122.614 19.003 122.054 19.003H112.898C112.17 18.877 111.806 18.597 111.806 18.163L111.89 17.575V17.407C111.89 17.141 111.862 16.791 111.806 16.357C111.806 15.013 112.282 14.341 113.234 14.341C113.458 14.341 113.57 14.369 113.57 14.425C113.626 14.425 113.85 14.397 114.242 14.341C117.798 14.285 119.898 14.257 120.542 14.257L121.13 14.173V13.333C118.54 13.277 116.524 13.249 115.082 13.249H112.982C112.856 13.249 112.744 13.277 112.646 13.333C112.268 13.333 111.96 13.109 111.722 12.661V12.325C111.722 11.821 112.058 11.541 112.73 11.485ZM125.981 14.383C126.961 14.383 127.521 15.139 127.661 16.651L127.745 17.239C127.395 18.751 126.807 19.507 125.981 19.507C125.421 19.381 125.141 19.101 125.141 18.667V18.583C125.141 18.345 125.393 17.925 125.897 17.323V17.155C125.001 17.001 124.553 16.609 124.553 15.979V15.727C124.553 15.069 125.029 14.621 125.981 14.383ZM3.68743 24.875C4.44343 24.875 4.89143 24.903 5.03143 24.959C5.87143 24.903 6.57143 24.875 7.13143 24.875H11.4154C12.4234 24.875 12.9274 25.435 12.9274 26.555C13.0394 27.241 13.0954 28.109 13.0954 29.159C13.0954 31.735 12.9274 33.023 12.5914 33.023C12.2274 33.359 11.8914 33.527 11.5834 33.527C5.70343 33.527 2.76343 33.387 2.76343 33.107C2.53943 33.107 2.34343 30.839 2.17543 26.303V25.883C2.17543 25.281 2.67943 24.945 3.68743 24.875ZM4.02343 26.723L4.10743 27.143C4.10743 28.081 4.16343 29.565 4.27543 31.595C5.87143 31.651 8.16743 31.679 11.1634 31.679C11.2194 31.301 11.2474 30.993 11.2474 30.755V28.823C11.2474 28.347 11.2194 27.647 11.1634 26.723H4.02343ZM7.71943 33.17C8.27943 33.31 8.55943 33.618 8.55943 34.094L8.58043 37.139H12.3604C12.6824 37.139 13.1304 37.167 13.7044 37.223C13.8024 37.167 13.9424 37.139 14.1244 37.139C14.6844 37.293 14.9644 37.573 14.9644 37.979V38.147C14.8384 38.707 14.5584 38.987 14.1244 38.987C7.54443 38.931 3.26043 38.903 1.27243 38.903C0.488433 38.903 0.0964325 38.623 0.0964325 38.063V37.895C0.0964325 37.447 0.404433 37.167 1.02043 37.055H6.73243C6.73243 36.943 6.73943 36.411 6.75343 35.459C6.72543 34.717 6.71143 34.262 6.71143 34.094C6.71143 33.632 7.04743 33.324 7.71943 33.17ZM19.4204 22.964H28.7444C29.3044 23.076 29.5844 23.356 29.5844 23.804V23.888C29.5844 24.504 29.0524 24.812 27.9884 24.812L27.4004 24.728C27.2324 24.728 27.1484 24.756 27.1484 24.812C26.4904 24.756 26.0144 24.728 25.7204 24.728H23.2004C22.5564 24.728 21.5764 24.756 20.2604 24.812C20.3164 24.924 20.3444 25.008 20.3444 25.064C20.3444 25.316 20.3724 25.96 20.4284 26.996L20.5964 27.08H21.3524C21.8984 27.08 22.1784 27.108 22.1924 27.164C22.6684 27.108 23.0604 27.08 23.3684 27.08H28.7444C29.4164 27.136 29.7524 27.416 29.7524 27.92V28.004C29.7524 28.62 29.0804 28.928 27.7364 28.928H20.3444C19.2244 28.928 18.6644 28.396 18.6644 27.332C18.4964 25.302 18.4124 24.182 18.4124 23.972C18.6504 23.3 18.9864 22.964 19.4204 22.964ZM17.5724 30.503C18.4124 30.559 19.0284 30.587 19.4204 30.587H20.8484C23.1864 30.587 26.3784 30.615 30.4244 30.671C30.9284 30.867 31.1804 31.147 31.1804 31.511V31.679C31.0544 32.239 30.7744 32.519 30.3404 32.519C27.8624 32.463 25.9304 32.435 24.5444 32.435H20.5124C20.4564 32.435 20.4284 32.407 20.4284 32.351C20.3724 32.351 20.3444 32.379 20.3444 32.435L19.9244 32.351H17.4884C17.1244 32.351 16.8444 32.155 16.6484 31.763V31.427C16.6484 31.007 16.9564 30.699 17.5724 30.503ZM19.4414 34.178C20.1134 34.178 20.4494 35.438 20.4494 37.958V38.882H24.9014C25.9094 38.882 27.2814 38.854 29.0174 38.798C29.5774 38.952 29.8574 39.232 29.8574 39.638V39.806C29.8574 40.184 29.6054 40.464 29.1014 40.646C26.6934 40.702 24.8454 40.73 23.5574 40.73H19.6934C18.9654 40.73 18.6014 40.142 18.6014 38.966C18.6014 37.286 18.5734 35.942 18.5174 34.934C18.6994 34.43 19.0074 34.178 19.4414 34.178ZM39.7681 24.287H40.2721C42.1481 24.287 44.6401 24.315 47.7481 24.371C48.2521 24.567 48.5041 24.847 48.5041 25.211V25.631C48.2101 26.023 47.9581 26.219 47.7481 26.219C47.3701 26.163 47.0621 26.135 46.8241 26.135H46.4041L46.4881 26.303C46.6001 28.655 46.6561 30.097 46.6561 30.629H46.7401C47.1181 30.573 47.4261 30.545 47.6641 30.545H48.1681C48.7281 30.615 49.0081 30.867 49.0081 31.301V31.721C49.0081 32.281 47.3281 32.561 43.9681 32.561C41.9521 32.617 40.4961 32.645 39.6001 32.645C39.0401 32.519 38.7601 32.239 38.7601 31.805V31.721C38.7601 31.105 39.2921 30.797 40.3561 30.797H40.9441C40.9161 27.689 40.8601 26.135 40.7761 26.135C39.5441 26.135 38.9281 25.855 38.9281 25.295V25.043C38.9281 24.609 39.2081 24.357 39.7681 24.287ZM42.7081 26.135V28.613C42.7081 29.089 42.7361 29.789 42.7921 30.713H44.8921C44.8361 30.391 44.7521 28.865 44.6401 26.135H42.7081ZM52.1371 23.216C52.6971 23.44 52.9771 23.748 52.9771 24.14C52.9771 24.308 52.9491 24.392 52.8931 24.392C52.9491 25.316 52.9771 26.016 52.9771 26.492V29.516C52.9771 30.328 53.0051 31.42 53.0611 32.792C52.8651 33.352 52.5291 33.632 52.0531 33.632C51.6191 33.632 51.3391 33.268 51.2131 32.54V31.28H48.2731L47.7691 31.364C47.2091 31.21 46.9291 30.902 46.9291 30.44C46.9291 29.768 47.4331 29.432 48.4411 29.432H51.2131V27.668H48.0211C47.3491 27.612 47.0131 27.332 47.0131 26.828V26.66C47.0131 26.212 47.3211 25.932 47.9371 25.82H51.1291V24.308C51.1291 23.58 51.4651 23.216 52.1371 23.216ZM42.7081 34.178C43.3801 34.178 43.7161 35.438 43.7161 37.958V38.882H48.1681C49.1761 38.882 50.5481 38.854 52.2841 38.798C52.8441 38.952 53.1241 39.232 53.1241 39.638V39.806C53.1241 40.184 52.8721 40.464 52.3681 40.646C49.9601 40.702 48.1121 40.73 46.8241 40.73H42.9601C42.2321 40.73 41.8681 40.142 41.8681 38.966C41.8681 37.286 41.8401 35.942 41.7841 34.934C41.9661 34.43 42.2741 34.178 42.7081 34.178ZM58.0959 24.98C58.5579 24.98 59.5939 25.008 61.2039 25.064C61.9599 25.008 62.6039 24.98 63.1359 24.98C63.8639 25.12 64.2279 25.428 64.2279 25.904C64.1159 26.52 63.8079 26.828 63.3039 26.828H60.4479L60.3639 27.584C60.3639 30.384 61.7359 32.96 64.4799 35.312C64.4799 35.494 64.5079 35.634 64.5639 35.732C64.4099 36.292 64.1299 36.572 63.7239 36.572H63.5559C62.1699 36.026 60.8539 34.514 59.6079 32.036L58.3479 34.388C57.3119 35.956 56.4719 36.74 55.8279 36.74H55.5759C55.0719 36.67 54.8199 36.418 54.8199 35.984V35.816C54.8199 35.508 55.3239 34.976 56.3319 34.22C57.7319 32.344 58.4319 29.88 58.4319 26.828H56.9199C56.6119 26.828 56.2199 26.856 55.7439 26.912C55.1839 26.758 54.9039 26.45 54.9039 25.988C54.9039 25.316 55.6599 24.98 57.1719 24.98H58.0959ZM67.6719 22.838C68.2319 22.838 68.5119 23.454 68.5119 24.686C68.5679 25.386 68.5959 25.75 68.5959 25.778C68.4839 29.278 68.4279 31.63 68.4279 32.834C68.4839 35.284 68.5399 36.628 68.5959 36.866C68.5399 37.076 68.5119 37.328 68.5119 37.622V37.79C68.5119 38.028 68.5399 38.336 68.5959 38.714C68.5959 39.19 68.2599 39.498 67.5879 39.638C67.1259 39.638 66.8459 39.302 66.7479 38.63C66.7479 37.3 66.6919 35.172 66.5799 32.246C66.6919 29.348 66.7479 27.052 66.7479 25.358C66.7479 25.204 66.7199 24.644 66.6639 23.678C66.6639 23.216 66.9999 22.936 67.6719 22.838ZM81.9609 22.607C82.7449 22.607 83.1369 23.475 83.1369 25.211C83.1369 26.331 82.5769 26.891 81.4569 26.891H73.8969V27.563H73.9809C75.1429 27.563 77.9709 27.535 82.4649 27.479C83.0809 27.591 83.3889 27.871 83.3889 28.319V28.487C83.2629 29.047 82.9829 29.327 82.5489 29.327C81.7649 29.327 78.5729 29.355 72.9729 29.411C72.4829 29.411 72.2029 28.963 72.1329 28.067C72.0769 27.773 72.0489 27.241 72.0489 26.471V26.219C72.0489 25.435 72.6089 25.043 73.7289 25.043H81.2889V24.875L81.2049 24.455C76.8229 24.511 74.0789 24.539 72.9729 24.539C72.3569 24.427 72.0489 24.119 72.0489 23.615C72.0489 23.069 72.3849 22.761 73.0569 22.691C75.2689 22.691 78.2369 22.663 81.9609 22.607ZM71.2089 30.503C72.0489 30.559 72.6649 30.587 73.0569 30.587H74.4849C76.8229 30.587 80.0149 30.615 84.0609 30.671C84.5649 30.867 84.8169 31.147 84.8169 31.511V31.679C84.6909 32.239 84.4109 32.519 83.9769 32.519C81.4989 32.463 79.5669 32.435 78.1809 32.435H74.1489C74.0929 32.435 74.0649 32.407 74.0649 32.351C74.0089 32.351 73.9809 32.379 73.9809 32.435L73.5609 32.351H71.1249C70.7609 32.351 70.4809 32.155 70.2849 31.763V31.427C70.2849 31.007 70.5929 30.699 71.2089 30.503ZM72.9519 33.485H78.5799C81.4919 33.485 82.9479 33.625 82.9479 33.905C83.1159 34.339 83.1999 35.039 83.1999 36.005C83.1999 37.349 82.6119 38.021 81.4359 38.021C80.0639 38.077 77.5439 38.133 73.8759 38.189V39.155H77.6559C78.6359 39.155 79.6439 39.183 80.6799 39.239C80.9319 39.183 81.5479 39.155 82.5279 39.155C83.0599 39.155 83.3399 39.519 83.3679 40.247C83.1999 40.751 82.8359 41.003 82.2759 41.003H73.1199C72.3919 40.877 72.0279 40.597 72.0279 40.163L72.1119 39.575V39.407C72.1119 39.141 72.0839 38.791 72.0279 38.357C72.0279 37.013 72.5039 36.341 73.4559 36.341C73.6799 36.341 73.7919 36.369 73.7919 36.425C73.8479 36.425 74.0719 36.397 74.4639 36.341C78.0199 36.285 80.1199 36.257 80.7639 36.257L81.3519 36.173V35.333C78.7619 35.277 76.7459 35.249 75.3039 35.249H73.2039C73.0779 35.249 72.9659 35.277 72.8679 35.333C72.4899 35.333 72.1819 35.109 71.9439 34.661V34.325C71.9439 33.821 72.2799 33.541 72.9519 33.485ZM95.2527 22.67C95.7567 22.838 96.0087 23.118 96.0087 23.51V24.518L96.4287 24.602H101.637C102.029 24.602 102.645 24.574 103.485 24.518V24.434C103.485 24.308 103.457 24 103.401 23.51C103.401 23.104 103.709 22.824 104.325 22.67C104.997 22.67 105.333 23.566 105.333 25.358V27.458C105.333 28.522 104.941 29.054 104.157 29.054C103.135 29.054 101.707 29.026 99.8727 28.97C98.6267 29.026 97.9547 29.054 97.8567 29.054C97.1147 28.998 96.3027 28.97 95.4207 28.97C94.6367 28.97 94.2447 28.466 94.2447 27.458V26.282C94.2447 25.75 94.2167 25.106 94.1607 24.35C94.1607 23.23 94.5247 22.67 95.2527 22.67ZM96.0927 26.366V27.206H103.485V26.366C100.909 26.422 98.9487 26.45 97.6047 26.45H97.1007L96.0927 26.366ZM99.7047 28.193H100.125C100.517 28.417 100.713 28.753 100.713 29.201V30.629H101.385C102.225 30.629 103.597 30.685 105.501 30.797L106.341 30.713C106.845 30.881 107.097 31.161 107.097 31.553V31.721C106.971 32.281 106.691 32.561 106.257 32.561C105.711 32.561 102.799 32.505 97.5207 32.393C95.2807 32.449 93.9927 32.477 93.6567 32.477C92.8167 32.379 92.3967 32.071 92.3967 31.553V31.469C92.5087 30.909 92.7887 30.629 93.2367 30.629C94.2587 30.629 96.1627 30.601 98.9487 30.545L98.8647 30.377V29.705C98.8647 28.697 99.1447 28.193 99.7047 28.193ZM94.9797 33.485H100.608C103.52 33.485 104.976 33.625 104.976 33.905C105.144 34.339 105.228 35.039 105.228 36.005C105.228 37.349 104.64 38.021 103.464 38.021C102.092 38.077 99.5717 38.133 95.9037 38.189V39.155H99.6837C100.664 39.155 101.672 39.183 102.708 39.239C102.96 39.183 103.576 39.155 104.556 39.155C105.088 39.155 105.368 39.519 105.396 40.247C105.228 40.751 104.864 41.003 104.304 41.003H95.1477C94.4197 40.877 94.0557 40.597 94.0557 40.163L94.1397 39.575V39.407C94.1397 39.141 94.1117 38.791 94.0557 38.357C94.0557 37.013 94.5317 36.341 95.4837 36.341C95.7077 36.341 95.8197 36.369 95.8197 36.425C95.8757 36.425 96.0997 36.397 96.4917 36.341C100.048 36.285 102.148 36.257 102.792 36.257L103.38 36.173V35.333C100.79 35.277 98.7737 35.249 97.3317 35.249H95.2317C95.1057 35.249 94.9937 35.277 94.8957 35.333C94.5177 35.333 94.2097 35.109 93.9717 34.661V34.325C93.9717 33.821 94.3077 33.541 94.9797 33.485ZM121.812 23.909H121.98C122.764 23.909 123.156 24.441 123.156 25.505C123.8 27.073 124.724 28.109 125.928 28.613C126.236 28.851 127.076 29.131 128.448 29.453C128.728 29.747 128.868 29.999 128.868 30.209V30.377C128.742 30.937 128.462 31.217 128.028 31.217C126.418 30.965 124.878 30.293 123.408 29.201L121.98 27.437C121.196 28.753 119.964 29.845 118.284 30.713C118.2 30.867 117.64 31.063 116.604 31.301C115.988 31.203 115.68 30.923 115.68 30.461V30.293C115.68 29.789 116.352 29.369 117.696 29.033C119.936 27.619 121.056 26.079 121.056 24.413C121.28 24.077 121.532 23.909 121.812 23.909ZM115.596 32.456C117.01 32.512 118.13 32.54 118.956 32.54H125.256C125.956 32.54 126.824 32.512 127.86 32.456C129.036 32.456 129.624 32.82 129.624 33.548C129.624 33.842 129.344 34.122 128.784 34.388L128.28 34.304C126.124 34.36 124.444 34.388 123.24 34.388H122.988L123.072 35.228V39.596C123.072 40.212 122.708 40.52 121.98 40.52C121.476 40.352 121.224 39.988 121.224 39.428V34.388H121.14C117.794 34.332 115.918 34.304 115.512 34.304C115.064 34.304 114.784 33.996 114.672 33.38C114.672 33.002 114.98 32.694 115.596 32.456ZM141.73 24.119C143.242 24.119 144.446 24.91 145.342 26.492C145.566 27.206 145.706 27.794 145.762 28.256C145.762 30.076 144.726 31.455 142.654 32.393C142.276 32.449 141.968 32.477 141.73 32.477H140.89C139.21 32.477 138.006 31.392 137.278 29.222L137.194 28.34C137.194 26.24 138.314 24.833 140.554 24.119H141.73ZM139.042 28.34C139.042 29.6 139.714 30.363 141.058 30.629C142.612 30.629 143.564 29.929 143.914 28.529V28.256C143.914 27.15 143.186 26.387 141.73 25.967C140.498 25.967 139.63 26.464 139.126 27.458L139.042 28.34ZM149.311 23.321H149.479C149.969 23.321 150.249 23.685 150.319 24.413V26.765C150.319 28.165 150.347 30.153 150.403 32.729C150.305 32.981 150.109 33.205 149.815 33.401H149.227C148.723 33.401 148.471 32.113 148.471 29.537V28.025L148.555 27.521C148.499 27.157 148.471 26.793 148.471 26.429V24.329C148.527 23.657 148.807 23.321 149.311 23.321ZM142.066 33.926C142.584 33.926 143.004 34.731 143.326 36.341C143.844 37.461 144.6 38.693 145.594 40.037L145.678 40.499C145.552 41.115 145.272 41.423 144.838 41.423H144.67C144.124 41.423 143.256 40.254 142.066 37.916H141.982C140.876 40.198 139.98 41.339 139.294 41.339C138.734 41.171 138.454 40.863 138.454 40.415V40.226C138.454 40.03 138.93 39.288 139.882 38C140.414 37.09 140.862 35.886 141.226 34.388C141.576 34.08 141.856 33.926 142.066 33.926ZM147.505 33.926C148.023 33.926 148.443 34.731 148.765 36.341C149.283 37.461 150.039 38.693 151.033 40.037L151.117 40.499C150.991 41.115 150.711 41.423 150.277 41.423H150.109C149.563 41.423 148.695 40.254 147.505 37.916H147.421C146.315 40.198 145.419 41.339 144.733 41.339C144.173 41.171 143.893 40.863 143.893 40.415V40.226C143.893 40.03 144.369 39.288 145.321 38C145.853 37.09 146.301 35.886 146.665 34.388C147.015 34.08 147.295 33.926 147.505 33.926ZM157.087 24.686C158.711 24.686 159.915 25.862 160.699 28.214C160.923 29.362 161.035 30.09 161.035 30.398V31.49C161.035 33.884 159.999 35.508 157.927 36.362C157.437 36.418 157.017 36.446 156.667 36.446C155.043 36.446 153.811 35.13 152.971 32.498C152.859 31.77 152.803 31.238 152.803 30.902C152.803 27.654 153.923 25.61 156.163 24.77C156.289 24.77 156.597 24.742 157.087 24.686ZM154.651 30.986V31.07C154.651 32.778 155.295 33.954 156.583 34.598H156.835C158.459 34.598 159.271 33.366 159.271 30.902C158.921 28.326 158.501 27.038 158.011 27.038C157.787 26.702 157.451 26.534 157.003 26.534H156.751C155.603 26.87 154.931 27.934 154.735 29.726C154.679 29.964 154.651 30.384 154.651 30.986ZM165.34 23.069C165.704 23.069 166.012 23.293 166.264 23.741C166.32 25.771 166.348 27.227 166.348 28.109V39.113C166.348 39.841 166.012 40.205 165.34 40.205C164.78 40.079 164.5 39.715 164.5 39.113V31.385H164.416C162.064 31.385 160.888 31.217 160.888 30.881L160.804 30.461V30.377C160.916 29.761 161.224 29.453 161.728 29.453C162.722 29.509 163.562 29.537 164.248 29.537H164.5V26.345C164.5 25.827 164.472 25.099 164.416 24.161C164.57 23.433 164.878 23.069 165.34 23.069ZM175.665 24.875C177.709 24.875 179.501 25.575 181.041 26.975C181.601 27.843 181.881 28.935 181.881 30.251C181.881 31.889 180.677 33.233 178.269 34.283C177.289 34.451 176.533 34.535 176.001 34.535H175.497C173.593 34.535 171.997 33.835 170.709 32.435C170.093 31.581 169.785 30.657 169.785 29.663C169.785 28.207 170.513 26.947 171.969 25.883C173.313 25.253 174.545 24.917 175.665 24.875ZM171.633 29.579V29.747C171.633 31.301 172.753 32.281 174.993 32.687H176.085C177.975 32.687 179.263 32.015 179.949 30.671C180.005 30.573 180.033 30.461 180.033 30.335V30.167C180.033 28.669 179.585 27.773 178.689 27.479C177.737 26.975 176.645 26.723 175.413 26.723C174.209 26.723 173.117 27.199 172.137 28.151C171.801 28.795 171.633 29.271 171.633 29.579ZM178.374 33.149C178.99 33.149 179.298 33.625 179.298 34.577V34.745C179.298 35.403 179.326 36.159 179.382 37.013H179.466C179.928 37.013 180.936 37.041 182.49 37.097C182.812 37.209 183.036 37.405 183.162 37.685V38.021C183.05 38.581 182.77 38.861 182.322 38.861H168.882C168.322 38.749 168.042 38.469 168.042 38.021V37.937C168.042 37.321 168.518 37.013 169.47 37.013H171.822L171.906 36.173V34.157C172.004 33.541 172.312 33.233 172.83 33.233C173.348 33.233 173.656 33.625 173.754 34.409V35.585C173.754 35.879 173.726 36.355 173.67 37.013H177.534C177.478 35.165 177.45 34.129 177.45 33.905C177.632 33.401 177.94 33.149 178.374 33.149ZM185.68 36.425H186.1C186.674 36.425 187.094 36.873 187.36 37.769C187.36 38.469 186.912 38.889 186.016 39.029H185.932C185.036 38.917 184.588 38.469 184.588 37.685C184.7 36.845 185.064 36.425 185.68 36.425Z" fill="black"/>
</svg>
