<svg width="141" height="41" viewBox="0 0 141 41" fill="none" xmlns="http://www.w3.org/2000/svg">
<path d="M14.356 2.245C15.196 2.399 15.616 2.791 15.616 3.421C15.616 5.885 15.364 7.117 14.86 7.117C14.86 7.243 14.636 7.355 14.188 7.453C12.536 7.509 11.192 7.537 10.156 7.537V9.175H10.324C11.444 9.175 13.201 9.154 15.595 9.112C16.043 9.35 16.267 9.63 16.267 9.952C16.267 10.624 15.539 10.96 14.083 10.96C12.697 11.002 11.164 11.023 9.48398 11.023C8.75598 10.883 8.39198 10.575 8.39198 10.099C8.33598 8.265 8.30798 7.019 8.30798 6.361C8.47598 5.913 8.81198 5.689 9.31598 5.689H12.424C12.704 5.689 13.124 5.661 13.684 5.605V5.521C13.74 4.653 13.768 4.177 13.768 4.093H13.684C13.068 4.149 12.536 4.177 12.088 4.177H9.39998C8.72798 4.121 8.39198 3.841 8.39198 3.337V3.169C8.39198 2.665 8.72798 2.385 9.39998 2.329H13.18C13.488 2.329 13.88 2.301 14.356 2.245ZM20.005 1.321H20.173C20.663 1.321 20.943 1.685 21.013 2.413V4.765C21.013 6.165 21.041 8.153 21.097 10.729C20.999 10.981 20.803 11.205 20.509 11.401H19.921C19.417 11.401 19.165 10.113 19.165 7.537V6.025L19.249 5.521C19.193 5.157 19.165 4.793 19.165 4.429V2.329C19.221 1.657 19.501 1.321 20.005 1.321ZM15.658 11.695C18.178 11.695 19.914 12.528 20.866 14.194C21.09 14.768 21.202 15.335 21.202 15.895C21.202 17.925 19.69 19.241 16.666 19.843H15.91C12.718 19.843 10.73 19.003 9.94598 17.323C9.77798 16.875 9.69398 16.462 9.69398 16.084V15.811C9.69398 14.061 10.646 12.836 12.55 12.136C13.264 11.842 14.3 11.695 15.658 11.695ZM11.458 16.084C11.822 17.274 13.082 17.869 15.238 17.869H16.498C17.814 17.869 18.766 17.274 19.354 16.084V15.727C19.354 14.537 18.178 13.851 15.826 13.669H15.574C12.83 13.669 11.458 14.474 11.458 16.084ZM30.0732 2.812C30.9132 2.924 32.6772 2.98 35.3652 2.98C36.0932 3.092 36.4572 3.4 36.4572 3.904V4.828C36.4572 5.234 36.4852 5.542 36.5412 5.752C36.3452 10.96 35.9532 13.564 35.3652 13.564H34.6932C34.3012 13.312 34.1052 13.004 34.1052 12.64C34.2172 11.94 34.3572 10.82 34.5252 9.28H33.8532C32.5932 9.28 29.9052 9.336 25.7892 9.448C25.3272 9.448 25.0472 9.14 24.9492 8.524C24.9492 7.908 25.4532 7.6 26.4612 7.6C27.7912 7.6 29.6952 7.544 32.1732 7.432C32.7052 7.488 33.4332 7.516 34.3572 7.516C34.5812 7.432 34.6932 7.348 34.6932 7.264V4.912C34.6932 4.8 34.6372 4.744 34.5252 4.744H33.6012C32.0892 4.744 30.8292 4.716 29.8212 4.66C29.1072 4.716 27.9032 4.744 26.2092 4.744C25.4812 4.744 25.1172 4.436 25.1172 3.82C25.1172 3.204 25.4812 2.896 26.2092 2.896H29.2332C29.4992 2.896 29.7792 2.868 30.0732 2.812ZM24.5712 15.16H26.2512C28.7992 15.16 32.0472 15.188 35.9952 15.244C36.3872 15.188 36.7232 15.16 37.0032 15.16C37.5632 15.328 37.8432 15.636 37.8432 16.084C37.7452 16.7 37.4372 17.008 36.9192 17.008H23.8992C23.2272 16.952 22.8912 16.644 22.8912 16.084C22.8912 15.468 23.4512 15.16 24.5712 15.16ZM51.2012 0.606999C51.9852 0.606999 52.3772 1.475 52.3772 3.211C52.3772 4.331 51.8172 4.891 50.6972 4.891H43.1372V5.563H43.2212C44.3832 5.563 47.2112 5.535 51.7052 5.479C52.3212 5.591 52.6292 5.871 52.6292 6.319V6.487C52.5032 7.047 52.2232 7.327 51.7892 7.327C51.0052 7.327 47.8132 7.355 42.2132 7.411C41.7232 7.411 41.4432 6.963 41.3732 6.067C41.3172 5.773 41.2892 5.241 41.2892 4.471V4.219C41.2892 3.435 41.8492 3.043 42.9692 3.043H50.5292V2.875L50.4452 2.455C46.0632 2.511 43.3192 2.539 42.2132 2.539C41.5972 2.427 41.2892 2.119 41.2892 1.615C41.2892 1.069 41.6252 0.760999 42.2972 0.690999C44.5092 0.690999 47.4772 0.662999 51.2012 0.606999ZM40.4492 8.503C41.2892 8.559 41.9052 8.587 42.2972 8.587H43.7252C46.0632 8.587 49.2552 8.615 53.3012 8.671C53.8052 8.867 54.0572 9.147 54.0572 9.511V9.679C53.9312 10.239 53.6512 10.519 53.2172 10.519C50.7392 10.463 48.8072 10.435 47.4212 10.435H43.3892C43.3332 10.435 43.3052 10.407 43.3052 10.351C43.2492 10.351 43.2212 10.379 43.2212 10.435L42.8012 10.351H40.3652C40.0012 10.351 39.7212 10.155 39.5252 9.763V9.427C39.5252 9.007 39.8332 8.699 40.4492 8.503ZM42.1922 11.485H47.8202C50.7322 11.485 52.1882 11.625 52.1882 11.905C52.3562 12.339 52.4402 13.039 52.4402 14.005C52.4402 15.349 51.8522 16.021 50.6762 16.021C49.3042 16.077 46.7842 16.133 43.1162 16.189V17.155H46.8962C47.8762 17.155 48.8842 17.183 49.9202 17.239C50.1722 17.183 50.7882 17.155 51.7682 17.155C52.3002 17.155 52.5802 17.519 52.6082 18.247C52.4402 18.751 52.0762 19.003 51.5162 19.003H42.3602C41.6322 18.877 41.2682 18.597 41.2682 18.163L41.3522 17.575V17.407C41.3522 17.141 41.3242 16.791 41.2682 16.357C41.2682 15.013 41.7442 14.341 42.6962 14.341C42.9202 14.341 43.0322 14.369 43.0322 14.425C43.0882 14.425 43.3122 14.397 43.7042 14.341C47.2602 14.285 49.3602 14.257 50.0042 14.257L50.5922 14.173V13.333C48.0022 13.277 45.9862 13.249 44.5442 13.249H42.4442C42.3182 13.249 42.2062 13.277 42.1082 13.333C41.7302 13.333 41.4222 13.109 41.1842 12.661V12.325C41.1842 11.821 41.5202 11.541 42.1922 11.485ZM64.6609 1.006C69.8269 1.062 72.6549 1.09 73.1449 1.09C74.1529 1.09 74.6569 1.482 74.6569 2.266V2.35C74.6569 4.24 74.4049 6.06 73.9009 7.81C73.6629 8.034 73.4389 8.146 73.2289 8.146H72.8929C72.5009 7.95 72.3049 7.67 72.3049 7.306C72.6409 4.982 72.8089 3.61 72.8089 3.19V2.938C70.0369 2.882 67.8809 2.854 66.3409 2.854H64.1569C63.7929 2.854 63.5129 2.658 63.3169 2.266V1.678C63.5129 1.23 63.9609 1.006 64.6609 1.006ZM68.9449 6.193H69.3649C69.7569 6.417 69.9529 6.753 69.9529 7.201V8.629H70.6249C71.4649 8.629 72.8369 8.685 74.7409 8.797L75.5809 8.713C76.0849 8.881 76.3369 9.161 76.3369 9.553V9.721C76.2109 10.281 75.9309 10.561 75.4969 10.561C74.9509 10.561 72.0389 10.505 66.7609 10.393C64.5209 10.449 63.2329 10.477 62.8969 10.477C62.0569 10.379 61.6369 10.071 61.6369 9.553V9.469C61.7489 8.909 62.0289 8.629 62.4769 8.629C63.4989 8.629 65.4029 8.601 68.1889 8.545L68.1049 8.377V7.705C68.1049 6.697 68.3849 6.193 68.9449 6.193ZM69.1339 11.695C71.6539 11.695 73.3899 12.528 74.3419 14.194C74.5659 14.768 74.6779 15.335 74.6779 15.895C74.6779 17.925 73.1659 19.241 70.1419 19.843H69.3859C66.1939 19.843 64.2059 19.003 63.4219 17.323C63.2539 16.875 63.1699 16.462 63.1699 16.084V15.811C63.1699 14.061 64.1219 12.836 66.0259 12.136C66.7399 11.842 67.7759 11.695 69.1339 11.695ZM64.9339 16.084C65.2979 17.274 66.5579 17.869 68.7139 17.869H69.9739C71.2899 17.869 72.2419 17.274 72.8299 16.084V15.727C72.8299 14.537 71.6539 13.851 69.3019 13.669H69.0499C66.3059 13.669 64.9339 14.474 64.9339 16.084ZM85.7528 1.699C88.2728 1.699 90.0088 2.483 90.9608 4.051C91.1848 4.583 91.2968 5.115 91.2968 5.647C91.2968 7.551 89.7848 8.783 86.7608 9.343H86.0048C82.8128 9.343 80.8248 8.559 80.0408 6.991C79.8728 6.557 79.7888 6.165 79.7888 5.815V5.563C79.7888 3.911 80.7408 2.763 82.6448 2.119C83.3588 1.839 84.3948 1.699 85.7528 1.699ZM81.5528 5.815C81.9168 6.935 83.1768 7.495 85.3328 7.495H86.5928C87.9088 7.495 88.8608 6.935 89.4488 5.815V5.479C89.4488 4.373 88.2728 3.729 85.9208 3.547H85.6688C82.9248 3.547 81.5528 4.303 81.5528 5.815ZM80.7128 10.477C82.7428 10.533 84.4508 10.561 85.8368 10.561H91.8008C92.5848 10.659 92.9768 10.967 92.9768 11.485C92.8648 12.101 92.5568 12.409 92.0528 12.409H91.3808C90.9048 12.409 90.1488 12.381 89.1128 12.325V17.617C88.9168 18.009 88.6368 18.205 88.2728 18.205C87.6008 18.205 87.2648 17.505 87.2648 16.105V12.325H83.6528V17.197C83.6528 17.505 83.4568 17.785 83.0648 18.037H82.4768C82.2248 17.953 82.0008 17.673 81.8048 17.197C81.8608 16.357 81.8888 15.741 81.8888 15.349V12.325H79.0328C78.3608 12.283 78.0248 11.975 78.0248 11.401C78.0248 10.841 78.5568 10.561 79.6208 10.561C79.9848 10.561 80.3488 10.533 80.7128 10.477ZM99.6988 1.741C100.315 1.741 100.623 2.105 100.623 2.833V4.009L100.707 4.177L101.715 4.093H103.227C104.235 4.093 104.739 4.429 104.739 5.101C104.599 5.661 104.291 5.941 103.815 5.941H97.3468C96.8988 5.941 96.3108 5.969 95.5828 6.025C95.1068 6.025 94.7988 5.689 94.6588 5.017C94.6588 4.527 95.0228 4.247 95.7508 4.177H98.6068C98.7188 4.177 98.7748 4.121 98.7748 4.009V2.833C98.7748 2.105 99.0828 1.741 99.6988 1.741ZM99.6148 6.865C101.449 6.865 102.765 7.817 103.563 9.721C103.619 9.931 103.647 10.155 103.647 10.393V10.645C103.647 12.647 102.499 13.963 100.203 14.593L99.6988 14.677C97.8508 14.677 96.5348 13.753 95.7508 11.905L95.6668 11.317V11.149C95.6668 9.147 96.4228 7.831 97.9348 7.201C98.5788 6.977 99.1388 6.865 99.6148 6.865ZM97.5148 10.897V11.233C97.5148 11.947 98.0748 12.451 99.1948 12.745L99.7828 12.829C100.483 12.829 101.127 12.353 101.715 11.401L101.799 10.561V10.393C101.505 9.273 100.637 8.713 99.1948 8.713C98.0748 8.923 97.5148 9.651 97.5148 10.897ZM109.506 1.195C109.954 1.405 110.178 1.685 110.178 2.035C110.178 3.323 110.206 5.563 110.262 8.755C110.262 8.979 110.234 9.483 110.178 10.267C110.29 12.101 110.346 14.369 110.346 17.071C110.346 17.505 110.038 17.813 109.422 17.995C108.904 17.995 108.596 17.603 108.498 16.819V16.399C108.498 14.775 108.47 12.535 108.414 9.679H106.65V14.215C106.65 14.733 106.678 15.461 106.734 16.399C106.51 16.959 106.202 17.239 105.81 17.239C105.194 17.239 104.886 16.651 104.886 15.475C104.83 14.873 104.802 13.921 104.802 12.619C104.802 12.003 104.83 11.611 104.886 11.443C104.83 10.687 104.802 10.043 104.802 9.511V2.539C104.802 1.811 105.11 1.447 105.726 1.447C106.342 1.545 106.65 1.853 106.65 2.371V7.831H106.734C106.888 7.831 107.448 7.859 108.414 7.915V7.579C108.414 6.417 108.386 4.653 108.33 2.287C108.33 1.587 108.722 1.223 109.506 1.195ZM116.651 2.749H116.819C117.379 2.749 117.659 3.281 117.659 4.345C117.659 6.585 118.387 8.937 119.843 11.401C120.739 12.255 121.187 12.815 121.187 13.081V13.249C121.187 13.711 120.879 13.991 120.263 14.089C119.353 13.879 118.345 12.675 117.239 10.477C116.903 9.665 116.735 9.217 116.735 9.133H116.651C115.139 12.605 113.907 14.341 112.955 14.341H112.787C112.283 14.271 112.031 14.019 112.031 13.585V13.417C112.031 13.179 112.479 12.563 113.375 11.569C115.055 9.063 115.895 6.291 115.895 3.253C116.119 2.917 116.371 2.749 116.651 2.749ZM124.799 1.069C125.163 1.069 125.471 1.293 125.723 1.741C125.779 3.771 125.807 5.227 125.807 6.109V17.113C125.807 17.841 125.471 18.205 124.799 18.205C124.239 18.079 123.959 17.715 123.959 17.113V9.385H123.875C121.523 9.385 120.347 9.217 120.347 8.881L120.263 8.461V8.377C120.375 7.761 120.683 7.453 121.187 7.453C122.181 7.509 123.021 7.537 123.707 7.537H123.959V4.345C123.959 3.827 123.931 3.099 123.875 2.161C124.029 1.433 124.337 1.069 124.799 1.069ZM1.07993 24.287H1.58393C3.45993 24.287 5.95193 24.315 9.05993 24.371C9.56393 24.567 9.81593 24.847 9.81593 25.211V25.631C9.52193 26.023 9.26994 26.219 9.05993 26.219C8.68194 26.163 8.37394 26.135 8.13593 26.135H7.71594L7.79993 26.303C7.91194 28.655 7.96794 30.097 7.96794 30.629H8.05193C8.42993 30.573 8.73794 30.545 8.97594 30.545H9.47994C10.0399 30.615 10.3199 30.867 10.3199 31.301V31.721C10.3199 32.281 8.63994 32.561 5.27993 32.561C3.26393 32.617 1.80793 32.645 0.911935 32.645C0.351935 32.519 0.0719345 32.239 0.0719345 31.805V31.721C0.0719345 31.105 0.603935 30.797 1.66793 30.797H2.25593C2.22793 27.689 2.17193 26.135 2.08793 26.135C0.855935 26.135 0.239935 25.855 0.239935 25.295V25.043C0.239935 24.609 0.519935 24.357 1.07993 24.287ZM4.01993 26.135V28.613C4.01993 29.089 4.04793 29.789 4.10393 30.713H6.20393C6.14793 30.391 6.06394 28.865 5.95193 26.135H4.01993ZM13.4489 23.216C14.0089 23.44 14.2889 23.748 14.2889 24.14C14.2889 24.308 14.2609 24.392 14.2049 24.392C14.2609 25.316 14.2889 26.016 14.2889 26.492V29.516C14.2889 30.328 14.3169 31.42 14.3729 32.792C14.1769 33.352 13.8409 33.632 13.3649 33.632C12.9309 33.632 12.6509 33.268 12.5249 32.54V31.28H9.58493L9.08094 31.364C8.52093 31.21 8.24093 30.902 8.24093 30.44C8.24093 29.768 8.74493 29.432 9.75294 29.432H12.5249V27.668H9.33294C8.66093 27.612 8.32493 27.332 8.32493 26.828V26.66C8.32493 26.212 8.63293 25.932 9.24893 25.82H12.4409V24.308C12.4409 23.58 12.7769 23.216 13.4489 23.216ZM4.01993 34.178C4.69193 34.178 5.02793 35.438 5.02793 37.958V38.882H9.47994C10.4879 38.882 11.8599 38.854 13.5959 38.798C14.1559 38.952 14.4359 39.232 14.4359 39.638V39.806C14.4359 40.184 14.1839 40.464 13.6799 40.646C11.2719 40.702 9.42393 40.73 8.13593 40.73H4.27193C3.54393 40.73 3.17993 40.142 3.17993 38.966C3.17993 37.286 3.15193 35.942 3.09593 34.934C3.27793 34.43 3.58593 34.178 4.01993 34.178ZM19.4077 24.98C19.8697 24.98 20.9057 25.008 22.5157 25.064C23.2717 25.008 23.9157 24.98 24.4477 24.98C25.1757 25.12 25.5397 25.428 25.5397 25.904C25.4277 26.52 25.1197 26.828 24.6157 26.828H21.7597L21.6757 27.584C21.6757 30.384 23.0477 32.96 25.7917 35.312C25.7917 35.494 25.8197 35.634 25.8757 35.732C25.7217 36.292 25.4417 36.572 25.0357 36.572H24.8677C23.4817 36.026 22.1657 34.514 20.9197 32.036L19.6597 34.388C18.6237 35.956 17.7837 36.74 17.1397 36.74H16.8877C16.3837 36.67 16.1317 36.418 16.1317 35.984V35.816C16.1317 35.508 16.6357 34.976 17.6437 34.22C19.0437 32.344 19.7437 29.88 19.7437 26.828H18.2317C17.9237 26.828 17.5317 26.856 17.0557 26.912C16.4957 26.758 16.2157 26.45 16.2157 25.988C16.2157 25.316 16.9717 24.98 18.4837 24.98H19.4077ZM28.9837 22.838C29.5437 22.838 29.8237 23.454 29.8237 24.686C29.8797 25.386 29.9077 25.75 29.9077 25.778C29.7957 29.278 29.7397 31.63 29.7397 32.834C29.7957 35.284 29.8517 36.628 29.9077 36.866C29.8517 37.076 29.8237 37.328 29.8237 37.622V37.79C29.8237 38.028 29.8517 38.336 29.9077 38.714C29.9077 39.19 29.5717 39.498 28.8997 39.638C28.4377 39.638 28.1577 39.302 28.0597 38.63C28.0597 37.3 28.0037 35.172 27.8917 32.246C28.0037 29.348 28.0597 27.052 28.0597 25.358C28.0597 25.204 28.0317 24.644 27.9757 23.678C27.9757 23.216 28.3117 22.936 28.9837 22.838ZM43.2728 22.607C44.0568 22.607 44.4488 23.475 44.4488 25.211C44.4488 26.331 43.8888 26.891 42.7688 26.891H35.2088V27.563H35.2928C36.4548 27.563 39.2828 27.535 43.7768 27.479C44.3928 27.591 44.7008 27.871 44.7008 28.319V28.487C44.5748 29.047 44.2948 29.327 43.8608 29.327C43.0768 29.327 39.8848 29.355 34.2848 29.411C33.7948 29.411 33.5148 28.963 33.4448 28.067C33.3888 27.773 33.3608 27.241 33.3608 26.471V26.219C33.3608 25.435 33.9208 25.043 35.0408 25.043H42.6008V24.875L42.5168 24.455C38.1348 24.511 35.3908 24.539 34.2848 24.539C33.6688 24.427 33.3608 24.119 33.3608 23.615C33.3608 23.069 33.6968 22.761 34.3688 22.691C36.5808 22.691 39.5488 22.663 43.2728 22.607ZM32.5208 30.503C33.3608 30.559 33.9768 30.587 34.3688 30.587H35.7968C38.1348 30.587 41.3268 30.615 45.3728 30.671C45.8768 30.867 46.1288 31.147 46.1288 31.511V31.679C46.0028 32.239 45.7228 32.519 45.2888 32.519C42.8108 32.463 40.8788 32.435 39.4928 32.435H35.4608C35.4048 32.435 35.3768 32.407 35.3768 32.351C35.3208 32.351 35.2928 32.379 35.2928 32.435L34.8728 32.351H32.4368C32.0728 32.351 31.7928 32.155 31.5968 31.763V31.427C31.5968 31.007 31.9048 30.699 32.5208 30.503ZM34.2638 33.485H39.8918C42.8038 33.485 44.2598 33.625 44.2598 33.905C44.4278 34.339 44.5118 35.039 44.5118 36.005C44.5118 37.349 43.9238 38.021 42.7478 38.021C41.3758 38.077 38.8558 38.133 35.1878 38.189V39.155H38.9678C39.9478 39.155 40.9558 39.183 41.9918 39.239C42.2438 39.183 42.8598 39.155 43.8398 39.155C44.3718 39.155 44.6518 39.519 44.6798 40.247C44.5118 40.751 44.1478 41.003 43.5878 41.003H34.4318C33.7038 40.877 33.3398 40.597 33.3398 40.163L33.4238 39.575V39.407C33.4238 39.141 33.3958 38.791 33.3398 38.357C33.3398 37.013 33.8158 36.341 34.7678 36.341C34.9918 36.341 35.1038 36.369 35.1038 36.425C35.1598 36.425 35.3838 36.397 35.7758 36.341C39.3318 36.285 41.4318 36.257 42.0758 36.257L42.6638 36.173V35.333C40.0738 35.277 38.0578 35.249 36.6158 35.249H34.5158C34.3898 35.249 34.2778 35.277 34.1798 35.333C33.8018 35.333 33.4938 35.109 33.2558 34.661V34.325C33.2558 33.821 33.5918 33.541 34.2638 33.485ZM60.3445 24.056H60.5125C60.9605 24.056 61.2405 24.364 61.3525 24.98V31.406C61.3525 32.19 60.9885 32.582 60.2605 32.582H57.0685C54.8285 32.582 53.7085 32.218 53.7085 31.49V25.484C53.7085 25.036 53.9045 24.7 54.2965 24.476H54.7165C55.2205 24.546 55.4725 24.798 55.4725 25.232V25.736L55.5565 26.744H59.5885V26.66C59.5885 26.366 59.5605 25.806 59.5045 24.98C59.6165 24.364 59.8965 24.056 60.3445 24.056ZM55.7245 28.592H55.4725L55.5565 30.23V30.734H59.5885L59.5045 29.894V28.592H59.4205C58.7625 28.592 58.2305 28.564 57.8245 28.508C57.2645 28.564 56.5645 28.592 55.7245 28.592ZM64.9435 23.3C65.2935 23.3 65.5735 23.552 65.7835 24.056C65.8395 25.428 65.8675 26.52 65.8675 27.332V27.416H67.7155C68.2615 27.416 68.5695 27.752 68.6395 28.424C68.4435 28.928 68.1635 29.18 67.7995 29.18H65.7835V29.264C65.7835 29.6 65.8115 29.768 65.8675 29.768L65.7835 30.608V32.372C65.7835 32.498 65.8115 32.61 65.8675 32.708C65.7135 33.38 65.3775 33.716 64.8595 33.716C64.2995 33.562 64.0195 33.254 64.0195 32.792V26.324C64.0195 25.764 63.9915 25.092 63.9355 24.308C64.0895 23.636 64.4255 23.3 64.9435 23.3ZM59.5465 33.779C62.2205 33.835 64.1805 33.863 65.4265 33.863C65.9865 33.989 66.2665 34.269 66.2665 34.703V34.787C66.2665 35.305 65.8745 35.613 65.0905 35.711C62.3745 35.655 60.1345 35.627 58.3705 35.627H57.1105L56.9425 35.711L57.0265 35.879V36.215C57.0265 36.607 57.0545 37.503 57.1105 38.903H61.3945C62.8085 38.903 64.1805 38.847 65.5105 38.735C66.0705 38.931 66.3505 39.267 66.3505 39.743C66.3505 40.359 65.5805 40.667 64.0405 40.667C63.0745 40.723 62.4165 40.751 62.0665 40.751C59.4345 40.695 57.4185 40.667 56.0185 40.667C55.7525 40.667 55.5005 40.415 55.2625 39.911C55.3185 39.617 55.3465 39.449 55.3465 39.407C55.2345 38.035 55.1785 36.943 55.1785 36.131V34.787C55.1785 34.353 55.4305 34.045 55.9345 33.863C56.8025 33.863 58.0065 33.835 59.5465 33.779ZM74.606 24.686C76.23 24.686 77.434 25.862 78.218 28.214C78.442 29.362 78.554 30.09 78.554 30.398V31.49C78.554 33.884 77.518 35.508 75.446 36.362C74.956 36.418 74.536 36.446 74.186 36.446C72.562 36.446 71.33 35.13 70.49 32.498C70.378 31.77 70.322 31.238 70.322 30.902C70.322 27.654 71.442 25.61 73.682 24.77C73.808 24.77 74.116 24.742 74.606 24.686ZM72.17 30.986V31.07C72.17 32.778 72.814 33.954 74.102 34.598H74.354C75.978 34.598 76.79 33.366 76.79 30.902C76.44 28.326 76.02 27.038 75.53 27.038C75.306 26.702 74.97 26.534 74.522 26.534H74.27C73.122 26.87 72.45 27.934 72.254 29.726C72.198 29.964 72.17 30.384 72.17 30.986ZM82.04 23.048C82.432 23.048 82.712 23.3 82.88 23.804C82.88 24.112 82.852 24.42 82.796 24.728C82.852 26.17 82.88 27.402 82.88 28.424V29.516H85.232C85.624 29.712 85.82 29.992 85.82 30.356C85.82 31.028 85.344 31.364 84.392 31.364H82.88V36.152C82.88 36.88 82.908 37.832 82.964 39.008C82.81 39.568 82.53 39.848 82.124 39.848H81.956C81.396 39.736 81.116 39.456 81.116 39.008C81.116 38.154 81.088 37.174 81.032 36.068C81.032 35.424 81.06 34.164 81.116 32.288C81.06 29.124 81.032 26.38 81.032 24.056C81.172 23.384 81.508 23.048 82.04 23.048ZM99.7527 24.875H99.9207C100.411 24.875 100.691 25.239 100.761 25.967C100.817 28.907 100.845 31.147 100.845 32.687C100.593 33.359 100.145 33.695 99.5007 33.695H97.9887C96.6027 33.695 95.2307 33.723 93.8727 33.779C93.2987 33.723 92.2907 33.695 90.8487 33.695C90.0647 33.695 89.6727 32.995 89.6727 31.595C89.6167 31.021 89.5887 30.573 89.5887 30.251C89.6447 28.725 89.6727 27.269 89.6727 25.883C89.7707 25.267 90.0507 24.959 90.5127 24.959H90.6807C91.2407 24.959 91.5207 25.379 91.5207 26.219C91.5207 26.317 91.4927 26.821 91.4367 27.731L92.4447 27.815H93.2847C94.0827 27.815 94.6707 27.843 95.0487 27.899C95.5387 27.843 96.1547 27.815 96.8967 27.815H98.9127V25.883C98.9687 25.211 99.2487 24.875 99.7527 24.875ZM91.4367 29.579V31.427L91.5207 31.847C92.7247 31.903 93.6207 31.931 94.2087 31.931H96.7287C97.2047 31.931 97.9607 31.903 98.9967 31.847V29.663H93.2847C92.8927 29.663 92.2767 29.635 91.4367 29.579ZM95.1327 33.17C95.6927 33.31 95.9727 33.618 95.9727 34.094L95.9937 37.139H99.7737C100.096 37.139 100.544 37.167 101.118 37.223C101.216 37.167 101.356 37.139 101.538 37.139C102.098 37.293 102.378 37.573 102.378 37.979V38.147C102.252 38.707 101.972 38.987 101.538 38.987C94.9577 38.931 90.6737 38.903 88.6857 38.903C87.9017 38.903 87.5097 38.623 87.5097 38.063V37.895C87.5097 37.447 87.8177 37.167 88.4337 37.055H94.1457C94.1457 36.943 94.1527 36.411 94.1667 35.459C94.1387 34.717 94.1247 34.262 94.1247 34.094C94.1247 33.632 94.4607 33.324 95.1327 33.17ZM108.682 24.749H108.85C109.41 24.749 109.69 25.281 109.69 26.345C109.69 28.585 110.418 30.937 111.874 33.401C112.77 34.255 113.218 34.815 113.218 35.081V35.249C113.218 35.711 112.91 35.991 112.294 36.089C111.384 35.879 110.376 34.675 109.27 32.477C108.934 31.665 108.766 31.217 108.766 31.133H108.682C107.17 34.605 105.938 36.341 104.986 36.341H104.818C104.314 36.271 104.062 36.019 104.062 35.585V35.417C104.062 35.179 104.51 34.563 105.406 33.569C107.086 31.063 107.926 28.291 107.926 25.253C108.15 24.917 108.402 24.749 108.682 24.749ZM118.783 22.922H118.867C119.217 22.922 119.497 23.146 119.707 23.594C119.707 25.162 119.735 26.814 119.791 28.55C119.735 32.162 119.707 35.606 119.707 38.882C119.609 39.498 119.329 39.806 118.867 39.806H118.699C118.139 39.806 117.859 39.302 117.859 38.294V37.286C117.859 36.684 117.887 36.208 117.943 35.858C117.887 35.382 117.859 34.99 117.859 34.682C117.859 33.1 117.915 31.448 118.027 29.726C117.971 28.69 117.943 27.57 117.943 26.366V23.93C117.999 23.258 118.279 22.922 118.783 22.922ZM115.759 23.258C116.319 23.496 116.599 23.832 116.599 24.266C116.599 24.602 116.571 25.106 116.515 25.778C116.515 26.87 116.543 28.382 116.599 30.314C116.543 33.016 116.515 35.676 116.515 38.294C116.389 38.854 116.109 39.134 115.675 39.134H115.507C115.059 39.134 114.779 38.826 114.667 38.21C114.723 34.43 114.751 32.05 114.751 31.07H114.667C114.093 31.126 113.645 31.154 113.323 31.154H112.903C112.343 31.07 112.063 30.818 112.063 30.398V30.146C112.063 29.53 112.959 29.222 114.751 29.222C114.751 29.012 114.723 28.312 114.667 27.122C114.723 25.33 114.751 24.294 114.751 24.014C114.919 23.51 115.255 23.258 115.759 23.258ZM129.098 24.875C131.142 24.875 132.934 25.575 134.474 26.975C135.034 27.843 135.314 28.935 135.314 30.251C135.314 31.889 134.11 33.233 131.702 34.283C130.722 34.451 129.966 34.535 129.434 34.535H128.93C127.026 34.535 125.43 33.835 124.142 32.435C123.526 31.581 123.218 30.657 123.218 29.663C123.218 28.207 123.946 26.947 125.402 25.883C126.746 25.253 127.978 24.917 129.098 24.875ZM125.066 29.579V29.747C125.066 31.301 126.186 32.281 128.426 32.687H129.518C131.408 32.687 132.696 32.015 133.382 30.671C133.438 30.573 133.466 30.461 133.466 30.335V30.167C133.466 28.669 133.018 27.773 132.122 27.479C131.17 26.975 130.078 26.723 128.846 26.723C127.642 26.723 126.55 27.199 125.57 28.151C125.234 28.795 125.066 29.271 125.066 29.579ZM131.807 33.149C132.423 33.149 132.731 33.625 132.731 34.577V34.745C132.731 35.403 132.759 36.159 132.815 37.013H132.899C133.361 37.013 134.369 37.041 135.923 37.097C136.245 37.209 136.469 37.405 136.595 37.685V38.021C136.483 38.581 136.203 38.861 135.755 38.861H122.315C121.755 38.749 121.475 38.469 121.475 38.021V37.937C121.475 37.321 121.951 37.013 122.903 37.013H125.255L125.339 36.173V34.157C125.437 33.541 125.745 33.233 126.263 33.233C126.781 33.233 127.089 33.625 127.187 34.409V35.585C127.187 35.879 127.159 36.355 127.103 37.013H130.967C130.911 35.165 130.883 34.129 130.883 33.905C131.065 33.401 131.373 33.149 131.807 33.149ZM139.112 36.425H139.532C140.106 36.425 140.526 36.873 140.793 37.769C140.793 38.469 140.344 38.889 139.448 39.029H139.364C138.468 38.917 138.02 38.469 138.02 37.685C138.132 36.845 138.496 36.425 139.112 36.425Z" fill="black"/>
</svg>
