<svg width="193" height="20" viewBox="0 0 193 20" fill="none" xmlns="http://www.w3.org/2000/svg">
<path d="M4.63156 2.119C6.14356 2.119 7.34756 2.91 8.24356 4.492C8.46756 5.206 8.60756 5.794 8.66356 6.256C8.66356 8.076 7.62756 9.455 5.55556 10.393C5.17756 10.449 4.86956 10.477 4.63156 10.477H3.79156C2.11156 10.477 0.907555 9.392 0.179555 7.222L0.0955551 6.34C0.0955551 4.24 1.21556 2.833 3.45556 2.119H4.63156ZM1.94356 6.34C1.94356 7.6 2.61556 8.363 3.95956 8.629C5.51356 8.629 6.46556 7.929 6.81556 6.529V6.256C6.81556 5.15 6.08756 4.387 4.63156 3.967C3.39956 3.967 2.53156 4.464 2.02756 5.458L1.94356 6.34ZM12.2126 1.321H12.3806C12.8706 1.321 13.1506 1.685 13.2206 2.413V4.765C13.2206 6.165 13.2486 8.153 13.3046 10.729C13.2066 10.981 13.0106 11.205 12.7166 11.401H12.1286C11.6246 11.401 11.3726 10.113 11.3726 7.537V6.025L11.4566 5.521C11.4006 5.157 11.3726 4.793 11.3726 4.429V2.329C11.4286 1.657 11.7086 1.321 12.2126 1.321ZM2.84656 12.094H12.0866C12.6606 12.094 12.9966 12.514 13.0946 13.354V15.958C13.0946 18.254 12.8706 19.402 12.4226 19.402C12.4226 19.514 12.2546 19.57 11.9186 19.57C11.4846 19.57 11.2046 19.262 11.0786 18.646C11.1906 17.904 11.2466 17.176 11.2466 16.462V13.942H11.1626C9.76256 13.942 6.90656 13.914 2.59456 13.858C2.14656 13.662 1.92256 13.354 1.92256 12.934C2.07656 12.374 2.38456 12.094 2.84656 12.094ZM17.1704 2.686H17.9264C18.7384 2.686 19.6624 2.714 20.6984 2.77C20.9224 2.714 21.1464 2.686 21.3704 2.686C22.0984 2.686 22.4624 3.498 22.4624 5.122V5.626C22.4624 8.566 22.2944 10.036 21.9584 10.036C21.7204 10.148 21.1044 10.232 20.1104 10.288C19.0744 10.232 18.2064 10.204 17.5064 10.204C17.4224 10.204 17.0304 10.232 16.3304 10.288C15.4344 10.148 14.9864 9.756 14.9864 9.112V3.694C14.9864 3.022 15.7144 2.686 17.1704 2.686ZM16.8344 4.534V8.44H20.6144V7.516C20.6144 7.222 20.6424 6.76 20.6984 6.13C20.6424 5.836 20.6144 5.556 20.6144 5.29V4.534C20.5584 4.534 20.5304 4.562 20.5304 4.618C19.9704 4.562 19.5504 4.534 19.2704 4.534H16.8344ZM26.7044 1.216C27.2644 1.44 27.5444 1.748 27.5444 2.14C27.5444 2.308 27.5164 2.392 27.4604 2.392C27.5164 3.316 27.5444 4.016 27.5444 4.492V7.516C27.5444 8.328 27.5724 9.42 27.6284 10.792C27.4324 11.352 27.0964 11.632 26.6204 11.632C26.1864 11.632 25.9064 11.268 25.7804 10.54V9.28H22.8404L22.3364 9.364C21.7764 9.21 21.4964 8.902 21.4964 8.44C21.4964 7.768 22.0004 7.432 23.0084 7.432H25.7804V5.668H22.5884C21.9164 5.612 21.5804 5.332 21.5804 4.828V4.66C21.5804 4.212 21.8884 3.932 22.5044 3.82H25.6964V2.308C25.6964 1.58 26.0324 1.216 26.7044 1.216ZM22.0844 11.695C24.6044 11.695 26.3404 12.528 27.2924 14.194C27.5164 14.768 27.6284 15.335 27.6284 15.895C27.6284 17.925 26.1164 19.241 23.0924 19.843H22.3364C19.1444 19.843 17.1564 19.003 16.3724 17.323C16.2044 16.875 16.1204 16.462 16.1204 16.084V15.811C16.1204 14.061 17.0724 12.836 18.9764 12.136C19.6904 11.842 20.7264 11.695 22.0844 11.695ZM17.8844 16.084C18.2484 17.274 19.5084 17.869 21.6644 17.869H22.9244C24.2404 17.869 25.1924 17.274 25.7804 16.084V15.727C25.7804 14.537 24.6044 13.851 22.2524 13.669H22.0004C19.2564 13.669 17.8844 14.474 17.8844 16.084ZM36.8835 2.875C38.9275 2.875 40.7195 3.575 42.2595 4.975C42.8195 5.843 43.0995 6.935 43.0995 8.251C43.0995 9.889 41.8955 11.233 39.4875 12.283C38.5075 12.451 37.7515 12.535 37.2195 12.535H36.7155C34.8115 12.535 33.2155 11.835 31.9275 10.435C31.3115 9.581 31.0035 8.657 31.0035 7.663C31.0035 6.207 31.7315 4.947 33.1875 3.883C34.5315 3.253 35.7635 2.917 36.8835 2.875ZM32.8515 7.579V7.747C32.8515 9.301 33.9715 10.281 36.2115 10.687H37.3035C39.1935 10.687 40.4815 10.015 41.1675 8.671C41.2235 8.573 41.2515 8.461 41.2515 8.335V8.167C41.2515 6.669 40.8035 5.773 39.9075 5.479C38.9555 4.975 37.8635 4.723 36.6315 4.723C35.4275 4.723 34.3355 5.199 33.3555 6.151C33.0195 6.795 32.8515 7.271 32.8515 7.579ZM31.0035 15.16H32.6835C35.2315 15.16 38.4795 15.188 42.4275 15.244C42.8195 15.188 43.1555 15.16 43.4355 15.16C43.9955 15.328 44.2755 15.636 44.2755 16.084C44.1775 16.7 43.8695 17.008 43.3515 17.008H30.3315C29.6595 16.952 29.3235 16.644 29.3235 16.084C29.3235 15.468 29.8835 15.16 31.0035 15.16ZM55.8905 2.476C57.6825 2.476 58.5785 2.728 58.5785 3.232C58.6345 3.456 58.6625 3.652 58.6625 3.82C58.6625 4.646 58.6905 5.598 58.7465 6.676C58.7465 7.796 58.4385 8.356 57.8225 8.356H53.5385C52.6845 8.356 51.3685 8.384 49.5905 8.44V10.624C52.0405 10.568 53.6365 10.512 54.3785 10.456C54.4345 10.456 54.5185 10.484 54.6305 10.54C55.2045 10.484 55.6525 10.456 55.9745 10.456H58.4105C59.0265 10.456 59.3345 10.82 59.3345 11.548C59.1245 12.052 58.7045 12.304 58.0745 12.304C56.3665 12.304 53.7065 12.332 50.0945 12.388L49.5065 12.472C48.3865 12.374 47.8265 12.01 47.8265 11.38V7.516C47.9245 6.9 48.2325 6.592 48.7505 6.592H48.9185C50.6265 6.592 53.2865 6.564 56.8985 6.508V5.332L56.8145 4.324H49.1705L48.6665 4.408C48.1905 4.408 47.8825 4.072 47.7425 3.4C47.7425 2.91 48.1065 2.63 48.8345 2.56C50.2625 2.56 52.6145 2.532 55.8905 2.476ZM53.5805 11.17C54.1405 11.31 54.4205 11.618 54.4205 12.094L54.4415 15.139H58.2215C58.5435 15.139 58.9915 15.167 59.5655 15.223C59.6635 15.167 59.8035 15.139 59.9855 15.139C60.5455 15.293 60.8255 15.573 60.8255 15.979V16.147C60.6995 16.707 60.4195 16.987 59.9855 16.987C53.4055 16.931 49.1215 16.903 47.1335 16.903C46.3495 16.903 45.9575 16.623 45.9575 16.063V15.895C45.9575 15.447 46.2655 15.167 46.8815 15.055H52.5935C52.5935 14.943 52.6005 14.411 52.6145 13.459C52.5865 12.717 52.5725 12.262 52.5725 12.094C52.5725 11.632 52.9085 11.324 53.5805 11.17ZM69.4054 2.287H69.9094C71.7854 2.287 74.2774 2.315 77.3854 2.371C77.8894 2.567 78.1414 2.847 78.1414 3.211V3.631C77.8474 4.023 77.5954 4.219 77.3854 4.219C77.0074 4.163 76.6994 4.135 76.4614 4.135H76.0414L76.1254 4.303C76.2374 6.655 76.2934 8.097 76.2934 8.629H76.3774C76.7554 8.573 77.0634 8.545 77.3014 8.545H77.8054C78.3654 8.615 78.6454 8.867 78.6454 9.301V9.721C78.6454 10.281 76.9654 10.561 73.6054 10.561C71.5894 10.617 70.1334 10.645 69.2374 10.645C68.6774 10.519 68.3974 10.239 68.3974 9.805V9.721C68.3974 9.105 68.9294 8.797 69.9934 8.797H70.5814C70.5534 5.689 70.4974 4.135 70.4134 4.135C69.1814 4.135 68.5654 3.855 68.5654 3.295V3.043C68.5654 2.609 68.8454 2.357 69.4054 2.287ZM72.3454 4.135V6.613C72.3454 7.089 72.3734 7.789 72.4294 8.713H74.5294C74.4734 8.391 74.3894 6.865 74.2774 4.135H72.3454ZM81.7744 1.216C82.3344 1.44 82.6144 1.748 82.6144 2.14C82.6144 2.308 82.5864 2.392 82.5304 2.392C82.5864 3.316 82.6144 4.016 82.6144 4.492V7.516C82.6144 8.328 82.6424 9.42 82.6984 10.792C82.5024 11.352 82.1664 11.632 81.6904 11.632C81.2564 11.632 80.9764 11.268 80.8504 10.54V9.28H77.9104L77.4064 9.364C76.8464 9.21 76.5664 8.902 76.5664 8.44C76.5664 7.768 77.0704 7.432 78.0784 7.432H80.8504V5.668H77.6584C76.9864 5.612 76.6504 5.332 76.6504 4.828V4.66C76.6504 4.212 76.9584 3.932 77.5744 3.82H80.7664V2.308C80.7664 1.58 81.1024 1.216 81.7744 1.216ZM72.3454 12.178C73.0174 12.178 73.3534 13.438 73.3534 15.958V16.882H77.8054C78.8134 16.882 80.1854 16.854 81.9214 16.798C82.4814 16.952 82.7614 17.232 82.7614 17.638V17.806C82.7614 18.184 82.5094 18.464 82.0054 18.646C79.5974 18.702 77.7494 18.73 76.4614 18.73H72.5974C71.8694 18.73 71.5054 18.142 71.5054 16.966C71.5054 15.286 71.4774 13.942 71.4214 12.934C71.6034 12.43 71.9114 12.178 72.3454 12.178ZM87.7331 2.98C88.1951 2.98 89.2311 3.008 90.8411 3.064C91.5971 3.008 92.2411 2.98 92.7731 2.98C93.5011 3.12 93.8651 3.428 93.8651 3.904C93.7531 4.52 93.4451 4.828 92.9411 4.828H90.0851L90.0011 5.584C90.0011 8.384 91.3731 10.96 94.1171 13.312C94.1171 13.494 94.1451 13.634 94.2011 13.732C94.0471 14.292 93.7671 14.572 93.3611 14.572H93.1931C91.8071 14.026 90.4911 12.514 89.2451 10.036L87.9851 12.388C86.9491 13.956 86.1091 14.74 85.4651 14.74H85.2131C84.7091 14.67 84.4571 14.418 84.4571 13.984V13.816C84.4571 13.508 84.9611 12.976 85.9691 12.22C87.3691 10.344 88.0691 7.88 88.0691 4.828H86.5571C86.2491 4.828 85.8571 4.856 85.3811 4.912C84.8211 4.758 84.5411 4.45 84.5411 3.988C84.5411 3.316 85.2971 2.98 86.8091 2.98H87.7331ZM97.3091 0.837999C97.8691 0.837999 98.1491 1.454 98.1491 2.686C98.2051 3.386 98.2331 3.75 98.2331 3.778C98.1211 7.278 98.0651 9.63 98.0651 10.834C98.1211 13.284 98.1771 14.628 98.2331 14.866C98.1771 15.076 98.1491 15.328 98.1491 15.622V15.79C98.1491 16.028 98.1771 16.336 98.2331 16.714C98.2331 17.19 97.8971 17.498 97.2251 17.638C96.7631 17.638 96.4831 17.302 96.3851 16.63C96.3851 15.3 96.3291 13.172 96.2171 10.246C96.3291 7.348 96.3851 5.052 96.3851 3.358C96.3851 3.204 96.3571 2.644 96.3011 1.678C96.3011 1.216 96.6371 0.935999 97.3091 0.837999ZM111.598 0.606999C112.382 0.606999 112.774 1.475 112.774 3.211C112.774 4.331 112.214 4.891 111.094 4.891H103.534V5.563H103.618C104.78 5.563 107.608 5.535 112.102 5.479C112.718 5.591 113.026 5.871 113.026 6.319V6.487C112.9 7.047 112.62 7.327 112.186 7.327C111.402 7.327 108.21 7.355 102.61 7.411C102.12 7.411 101.84 6.963 101.77 6.067C101.714 5.773 101.686 5.241 101.686 4.471V4.219C101.686 3.435 102.246 3.043 103.366 3.043H110.926V2.875L110.842 2.455C106.46 2.511 103.716 2.539 102.61 2.539C101.994 2.427 101.686 2.119 101.686 1.615C101.686 1.069 102.022 0.760999 102.694 0.690999C104.906 0.690999 107.874 0.662999 111.598 0.606999ZM100.846 8.503C101.686 8.559 102.302 8.587 102.694 8.587H104.122C106.46 8.587 109.652 8.615 113.698 8.671C114.202 8.867 114.454 9.147 114.454 9.511V9.679C114.328 10.239 114.048 10.519 113.614 10.519C111.136 10.463 109.204 10.435 107.818 10.435H103.786C103.73 10.435 103.702 10.407 103.702 10.351C103.646 10.351 103.618 10.379 103.618 10.435L103.198 10.351H100.762C100.398 10.351 100.118 10.155 99.9222 9.763V9.427C99.9222 9.007 100.23 8.699 100.846 8.503ZM102.589 11.485H108.217C111.129 11.485 112.585 11.625 112.585 11.905C112.753 12.339 112.837 13.039 112.837 14.005C112.837 15.349 112.249 16.021 111.073 16.021C109.701 16.077 107.181 16.133 103.513 16.189V17.155H107.293C108.273 17.155 109.281 17.183 110.317 17.239C110.569 17.183 111.185 17.155 112.165 17.155C112.697 17.155 112.977 17.519 113.005 18.247C112.837 18.751 112.473 19.003 111.913 19.003H102.757C102.029 18.877 101.665 18.597 101.665 18.163L101.749 17.575V17.407C101.749 17.141 101.721 16.791 101.665 16.357C101.665 15.013 102.141 14.341 103.093 14.341C103.317 14.341 103.429 14.369 103.429 14.425C103.485 14.425 103.709 14.397 104.101 14.341C107.657 14.285 109.757 14.257 110.401 14.257L110.989 14.173V13.333C108.399 13.277 106.383 13.249 104.941 13.249H102.841C102.715 13.249 102.603 13.277 102.505 13.333C102.127 13.333 101.819 13.109 101.581 12.661V12.325C101.581 11.821 101.917 11.541 102.589 11.485ZM125.226 2.917H125.394C126.122 3.071 126.486 3.799 126.486 5.101C126.486 7.341 127.214 10.057 128.67 13.249C128.67 13.795 128.334 14.103 127.662 14.173C126.948 14.173 126.22 12.745 125.478 9.889H125.31C124.862 11.751 124.218 13.095 123.378 13.921L123.21 14.005H122.622C122.23 13.809 122.034 13.529 122.034 13.165V13.081L123.294 10.393C123.966 8.167 124.302 5.983 124.302 3.841C124.498 3.225 124.806 2.917 125.226 2.917ZM130.098 2.917H130.266C130.994 3.071 131.358 3.799 131.358 5.101C131.358 7.341 132.086 10.057 133.542 13.249C133.542 13.795 133.206 14.103 132.534 14.173C131.82 14.173 131.092 12.745 130.35 9.889H130.182C129.734 11.751 129.09 13.095 128.25 13.921L128.082 14.005H127.494C127.102 13.809 126.906 13.529 126.906 13.165V13.081L128.166 10.393C128.838 8.167 129.174 5.983 129.174 3.841C129.37 3.225 129.678 2.917 130.098 2.917ZM136.377 1.069C136.741 1.069 137.049 1.293 137.301 1.741C137.357 3.771 137.385 5.227 137.385 6.109V17.113C137.385 17.841 137.049 18.205 136.377 18.205C135.817 18.079 135.537 17.715 135.537 17.113V9.385H135.453C133.101 9.385 131.925 9.217 131.925 8.881L131.841 8.461V8.377C131.953 7.761 132.261 7.453 132.765 7.453C133.759 7.509 134.599 7.537 135.285 7.537H135.537V4.345C135.537 3.827 135.509 3.099 135.453 2.161C135.607 1.433 135.915 1.069 136.377 1.069ZM151.321 2.875H151.489C151.979 2.875 152.259 3.239 152.329 3.967C152.385 6.907 152.413 9.147 152.413 10.687C152.161 11.359 151.713 11.695 151.069 11.695H149.557C148.171 11.695 146.799 11.723 145.441 11.779C144.867 11.723 143.859 11.695 142.417 11.695C141.633 11.695 141.241 10.995 141.241 9.595C141.185 9.021 141.157 8.573 141.157 8.251C141.213 6.725 141.241 5.269 141.241 3.883C141.339 3.267 141.619 2.959 142.081 2.959H142.249C142.809 2.959 143.089 3.379 143.089 4.219C143.089 4.317 143.061 4.821 143.005 5.731L144.013 5.815H144.853C145.651 5.815 146.239 5.843 146.617 5.899C147.107 5.843 147.723 5.815 148.465 5.815H150.481V3.883C150.537 3.211 150.817 2.875 151.321 2.875ZM143.005 7.579V9.427L143.089 9.847C144.293 9.903 145.189 9.931 145.777 9.931H148.297C148.773 9.931 149.529 9.903 150.565 9.847V7.663H144.853C144.461 7.663 143.845 7.635 143.005 7.579ZM146.701 11.17C147.261 11.31 147.541 11.618 147.541 12.094L147.562 15.139H151.342C151.664 15.139 152.112 15.167 152.686 15.223C152.784 15.167 152.924 15.139 153.106 15.139C153.666 15.293 153.946 15.573 153.946 15.979V16.147C153.82 16.707 153.54 16.987 153.106 16.987C146.526 16.931 142.242 16.903 140.254 16.903C139.47 16.903 139.078 16.623 139.078 16.063V15.895C139.078 15.447 139.386 15.167 140.002 15.055H145.714C145.714 14.943 145.721 14.411 145.735 13.459C145.707 12.717 145.693 12.262 145.693 12.094C145.693 11.632 146.029 11.324 146.701 11.17ZM160.25 2.749H160.418C160.978 2.749 161.258 3.281 161.258 4.345C161.258 6.585 161.986 8.937 163.442 11.401C164.338 12.255 164.786 12.815 164.786 13.081V13.249C164.786 13.711 164.478 13.991 163.862 14.089C162.952 13.879 161.944 12.675 160.838 10.477C160.502 9.665 160.334 9.217 160.334 9.133H160.25C158.738 12.605 157.506 14.341 156.554 14.341H156.386C155.882 14.271 155.63 14.019 155.63 13.585V13.417C155.63 13.179 156.078 12.563 156.974 11.569C158.654 9.063 159.494 6.291 159.494 3.253C159.718 2.917 159.97 2.749 160.25 2.749ZM170.351 0.921999H170.435C170.785 0.921999 171.065 1.146 171.275 1.594C171.275 3.162 171.303 4.814 171.359 6.55C171.303 10.162 171.275 13.606 171.275 16.882C171.177 17.498 170.897 17.806 170.435 17.806H170.267C169.707 17.806 169.427 17.302 169.427 16.294V15.286C169.427 14.684 169.455 14.208 169.511 13.858C169.455 13.382 169.427 12.99 169.427 12.682C169.427 11.1 169.483 9.448 169.595 7.726C169.539 6.69 169.511 5.57 169.511 4.366V1.93C169.567 1.258 169.847 0.921999 170.351 0.921999ZM167.327 1.258C167.887 1.496 168.167 1.832 168.167 2.266C168.167 2.602 168.139 3.106 168.083 3.778C168.083 4.87 168.111 6.382 168.167 8.314C168.111 11.016 168.083 13.676 168.083 16.294C167.957 16.854 167.677 17.134 167.243 17.134H167.075C166.627 17.134 166.347 16.826 166.235 16.21C166.291 12.43 166.319 10.05 166.319 9.07H166.235C165.661 9.126 165.213 9.154 164.891 9.154H164.471C163.911 9.07 163.631 8.818 163.631 8.398V8.146C163.631 7.53 164.527 7.222 166.319 7.222C166.319 7.012 166.291 6.312 166.235 5.122C166.291 3.33 166.319 2.294 166.319 2.014C166.487 1.51 166.823 1.258 167.327 1.258ZM180.666 2.875C182.71 2.875 184.502 3.575 186.042 4.975C186.602 5.843 186.882 6.935 186.882 8.251C186.882 9.889 185.678 11.233 183.27 12.283C182.29 12.451 181.534 12.535 181.002 12.535H180.498C178.594 12.535 176.998 11.835 175.71 10.435C175.094 9.581 174.786 8.657 174.786 7.663C174.786 6.207 175.514 4.947 176.97 3.883C178.314 3.253 179.546 2.917 180.666 2.875ZM176.634 7.579V7.747C176.634 9.301 177.754 10.281 179.994 10.687H181.086C182.976 10.687 184.264 10.015 184.95 8.671C185.006 8.573 185.034 8.461 185.034 8.335V8.167C185.034 6.669 184.586 5.773 183.69 5.479C182.738 4.975 181.646 4.723 180.414 4.723C179.21 4.723 178.118 5.199 177.138 6.151C176.802 6.795 176.634 7.271 176.634 7.579ZM183.375 11.149C183.991 11.149 184.299 11.625 184.299 12.577V12.745C184.299 13.403 184.327 14.159 184.383 15.013H184.467C184.929 15.013 185.937 15.041 187.491 15.097C187.813 15.209 188.037 15.405 188.163 15.685V16.021C188.051 16.581 187.771 16.861 187.323 16.861H173.883C173.323 16.749 173.043 16.469 173.043 16.021V15.937C173.043 15.321 173.519 15.013 174.471 15.013H176.823L176.907 14.173V12.157C177.005 11.541 177.313 11.233 177.831 11.233C178.349 11.233 178.657 11.625 178.755 12.409V13.585C178.755 13.879 178.727 14.355 178.671 15.013H182.535C182.479 13.165 182.451 12.129 182.451 11.905C182.633 11.401 182.941 11.149 183.375 11.149ZM190.681 14.425H191.101C191.675 14.425 192.095 14.873 192.361 15.769C192.361 16.469 191.913 16.889 191.017 17.029H190.933C190.037 16.917 189.589 16.469 189.589 15.685C189.701 14.845 190.065 14.425 190.681 14.425Z" fill="black"/>
</svg>
