<svg width="81" height="56" viewBox="0 0 81 56" fill="none" xmlns="http://www.w3.org/2000/svg">
<g clip-path="url(#clip0_607_1505)">
<mask id="path-1-inside-1_607_1505" fill="white">
<path d="M73.2895 55.7811C72.1638 55.7811 72.1638 55.8308 71.0282 55.8308C69.8925 55.8308 69.9025 55.8308 68.7668 55.8308C67.6312 55.8308 67.6411 55.7512 66.5055 55.7512C65.3698 55.7512 65.3798 55.7612 64.2441 55.7612C63.1085 55.7612 63.1184 55.7413 61.9828 55.7413C60.8471 55.7413 60.8571 55.7811 59.7214 55.7811C58.5858 55.7811 58.5957 55.7015 57.4601 55.7015C56.3244 55.7015 56.3344 56 55.2087 56C54.083 56 54.083 55.9801 52.9573 55.9801C51.8316 55.9801 51.8316 55.7313 50.7059 55.7313C49.5802 55.7313 49.5802 55.7313 48.4446 55.7313C47.3089 55.7313 47.3189 55.7811 46.1833 55.7811C45.0476 55.7811 45.0576 55.9403 43.9219 55.9403C42.7863 55.9403 42.7962 55.7612 41.6606 55.7612C40.5249 55.7612 40.5349 55.8905 39.3992 55.8905C38.2636 55.8905 38.2735 55.8308 37.1379 55.8308C36.0022 55.8308 36.0122 55.8109 34.8765 55.8109C33.7409 55.8109 33.7508 55.8806 32.6152 55.8806C31.4795 55.8806 31.4795 55.9403 30.3538 55.9403C29.2281 55.9403 29.2281 55.9901 28.0925 55.9901C26.9568 55.9901 26.9568 55.8408 25.8311 55.8408C24.7054 55.8408 24.6955 55.7015 23.5698 55.7015C22.4441 55.7015 22.4441 55.9104 21.3085 55.9104C20.1728 55.9104 20.1828 55.7313 19.0471 55.7313C17.9115 55.7313 17.9115 55.801 16.7858 55.801C15.6601 55.801 15.6501 55.9503 14.5244 55.9503C13.3987 55.9503 13.3888 56 12.2631 56C11.1374 56 11.1274 55.7612 9.99176 55.7612C8.85611 55.7612 8.85611 55.8308 7.72045 55.8308C6.90358 55.8308 6.11659 55.7313 5.37941 55.4925C4.64223 55.2537 3.96483 54.796 3.32727 54.3383C2.68971 53.8806 2.1418 53.3333 1.67359 52.6965C1.20539 52.0597 0.617636 51.4627 0.368589 50.6965C0.119543 49.9304 0.219161 49.1244 0.219161 48.3085C0.219161 47.1841 0.0199238 47.1841 0.0199238 46.0597C0.0199238 44.9353 0.239085 44.9353 0.239085 43.8109C0.239085 42.6866 0.0896569 42.6866 0.0896569 41.5622C0.0896569 40.4378 0.00996189 40.4378 0.00996189 39.3035C0.00996189 38.1692 0.149428 38.1791 0.149428 37.0547C0.149428 35.9303 0 35.9304 0 34.796C0 33.6617 0.0398475 33.6716 0.0398475 32.5473C0.0398475 31.4229 0.249047 31.4229 0.249047 30.2886C0.249047 29.1542 0.129504 29.1642 0.129504 28.0398C0.129504 26.9154 0.249047 26.9154 0.249047 25.7811C0.249047 24.6468 0.189276 24.6567 0.189276 23.5224C0.189276 22.3881 0.179314 22.398 0.179314 21.2736C0.179314 20.1493 0.219161 20.1493 0.219161 19.0149C0.219161 17.8806 0.298856 17.8905 0.298856 16.7562C0.298856 15.6219 0.079695 15.6318 0.079695 14.4975C0.079695 13.3632 0.268971 13.3731 0.268971 12.2388C0.268971 11.1045 0.0298856 11.1045 0.0298856 9.9801C0.0298856 8.85572 0.00996189 8.84577 0.00996189 7.72139C0.00996189 6.90547 0.239085 6.0995 0.47817 5.36318C0.717255 4.62687 1.14562 3.91045 1.60386 3.27363C2.06211 2.63682 2.57016 1.97015 3.20772 1.50249C3.84528 1.03483 4.60239 0.686567 5.35949 0.437811C6.11659 0.189055 6.91354 0.179104 7.73041 0.179104C8.85611 0.179104 8.85611 0.258706 9.99176 0.258706C11.1274 0.258706 11.1175 0.258706 12.2531 0.258706C13.3888 0.258706 13.3788 0.278607 14.5145 0.278607C15.6501 0.278607 15.6401 0.00995024 16.7758 0.00995024C17.9115 0.00995024 17.9015 0.179104 19.0371 0.179104C20.1728 0.179104 20.1628 0.278607 21.2985 0.278607C22.4341 0.278607 22.4242 0.109453 23.5598 0.109453C24.6955 0.109453 24.6855 0 25.8112 0C26.9369 0 26.9369 0.0199005 28.0626 0.0199005C29.1883 0.0199005 29.1883 0.0497513 30.314 0.0497513C31.4397 0.0497513 31.4397 0.00995024 32.5753 0.00995024C33.711 0.00995024 33.701 0.189055 34.8367 0.189055C35.9723 0.189055 35.9624 0.208955 37.098 0.208955C38.2337 0.208955 38.2237 0.208955 39.3594 0.208955C40.495 0.208955 40.4851 0.288557 41.6207 0.288557C42.7564 0.288557 42.7464 0.0597015 43.8821 0.0597015C45.0177 0.0597015 45.0077 0.288557 46.1434 0.288557C47.2791 0.288557 47.2691 0.298507 48.4047 0.298507C49.5404 0.298507 49.5404 0 50.6661 0C51.7918 0 51.7918 0.159204 52.9274 0.159204C54.0631 0.159204 54.0631 0.0497513 55.1888 0.0497513C56.3145 0.0497513 56.3244 0.129353 57.4501 0.129353C58.5758 0.129353 58.5758 0.208955 59.7115 0.208955C60.8471 0.208955 60.8372 0.248756 61.9728 0.248756C63.1085 0.248756 63.1085 0.00995024 64.2342 0.00995024C65.3599 0.00995024 65.3698 0.039801 66.4955 0.039801C67.6212 0.039801 67.6312 0.308458 68.7569 0.308458C69.8825 0.308458 69.8925 0.109453 71.0282 0.109453C72.1638 0.109453 72.1638 0.208955 73.2995 0.208955C74.1163 0.208955 74.9033 0.288557 75.6405 0.527363C76.3777 0.766169 77.0651 1.21393 77.7026 1.67164C78.3402 2.12935 78.9977 2.60697 79.4659 3.25373C79.9341 3.9005 80.3326 4.60697 80.5816 5.37313C80.8307 6.1393 81 6.92537 81 7.74129C81 8.86567 80.99 8.86567 80.99 9.99005C80.99 11.1144 81 11.1144 81 12.2388C81 13.3632 80.9502 13.3632 80.9502 14.4876C80.9502 15.6119 80.9801 15.6119 80.9801 16.7463C80.9801 17.8806 80.7808 17.8706 80.7808 18.995C80.7808 20.1194 80.8406 20.1194 80.8406 21.2537C80.8406 22.3881 80.8207 22.3781 80.8207 23.5025C80.8207 24.6269 80.8705 24.6269 80.8705 25.7612C80.8705 26.8955 80.8805 26.8856 80.8805 28.01C80.8805 29.1343 80.9801 29.1343 80.9801 30.2687C80.9801 31.403 80.741 31.393 80.741 32.5274C80.741 33.6617 80.9203 33.6517 80.9203 34.7761C80.9203 35.9005 80.8506 35.9005 80.8506 37.0348C80.8506 38.1692 80.731 38.1592 80.731 39.2935C80.731 40.4279 80.741 40.4179 80.741 41.5522C80.741 42.6866 80.7211 42.6766 80.7211 43.8109C80.7211 44.9453 80.8406 44.9453 80.8406 46.0697C80.8406 47.194 80.9004 47.204 80.9004 48.3284C80.9004 49.1443 80.741 49.9403 80.5019 50.6766C80.2628 51.4129 79.7747 52.0796 79.3164 52.7164C78.8582 53.3532 78.3302 53.9303 77.6927 54.398C77.0551 54.8657 76.4175 55.3831 75.6604 55.6318C74.9033 55.8806 74.1064 55.8109 73.2895 55.8109V55.7811Z"/>
</mask>
<path d="M73.2895 55.7811C72.1638 55.7811 72.1638 55.8308 71.0282 55.8308C69.8925 55.8308 69.9025 55.8308 68.7668 55.8308C67.6312 55.8308 67.6411 55.7512 66.5055 55.7512C65.3698 55.7512 65.3798 55.7612 64.2441 55.7612C63.1085 55.7612 63.1184 55.7413 61.9828 55.7413C60.8471 55.7413 60.8571 55.7811 59.7214 55.7811C58.5858 55.7811 58.5957 55.7015 57.4601 55.7015C56.3244 55.7015 56.3344 56 55.2087 56C54.083 56 54.083 55.9801 52.9573 55.9801C51.8316 55.9801 51.8316 55.7313 50.7059 55.7313C49.5802 55.7313 49.5802 55.7313 48.4446 55.7313C47.3089 55.7313 47.3189 55.7811 46.1833 55.7811C45.0476 55.7811 45.0576 55.9403 43.9219 55.9403C42.7863 55.9403 42.7962 55.7612 41.6606 55.7612C40.5249 55.7612 40.5349 55.8905 39.3992 55.8905C38.2636 55.8905 38.2735 55.8308 37.1379 55.8308C36.0022 55.8308 36.0122 55.8109 34.8765 55.8109C33.7409 55.8109 33.7508 55.8806 32.6152 55.8806C31.4795 55.8806 31.4795 55.9403 30.3538 55.9403C29.2281 55.9403 29.2281 55.9901 28.0925 55.9901C26.9568 55.9901 26.9568 55.8408 25.8311 55.8408C24.7054 55.8408 24.6955 55.7015 23.5698 55.7015C22.4441 55.7015 22.4441 55.9104 21.3085 55.9104C20.1728 55.9104 20.1828 55.7313 19.0471 55.7313C17.9115 55.7313 17.9115 55.801 16.7858 55.801C15.6601 55.801 15.6501 55.9503 14.5244 55.9503C13.3987 55.9503 13.3888 56 12.2631 56C11.1374 56 11.1274 55.7612 9.99176 55.7612C8.85611 55.7612 8.85611 55.8308 7.72045 55.8308C6.90358 55.8308 6.11659 55.7313 5.37941 55.4925C4.64223 55.2537 3.96483 54.796 3.32727 54.3383C2.68971 53.8806 2.1418 53.3333 1.67359 52.6965C1.20539 52.0597 0.617636 51.4627 0.368589 50.6965C0.119543 49.9304 0.219161 49.1244 0.219161 48.3085C0.219161 47.1841 0.0199238 47.1841 0.0199238 46.0597C0.0199238 44.9353 0.239085 44.9353 0.239085 43.8109C0.239085 42.6866 0.0896569 42.6866 0.0896569 41.5622C0.0896569 40.4378 0.00996189 40.4378 0.00996189 39.3035C0.00996189 38.1692 0.149428 38.1791 0.149428 37.0547C0.149428 35.9303 0 35.9304 0 34.796C0 33.6617 0.0398475 33.6716 0.0398475 32.5473C0.0398475 31.4229 0.249047 31.4229 0.249047 30.2886C0.249047 29.1542 0.129504 29.1642 0.129504 28.0398C0.129504 26.9154 0.249047 26.9154 0.249047 25.7811C0.249047 24.6468 0.189276 24.6567 0.189276 23.5224C0.189276 22.3881 0.179314 22.398 0.179314 21.2736C0.179314 20.1493 0.219161 20.1493 0.219161 19.0149C0.219161 17.8806 0.298856 17.8905 0.298856 16.7562C0.298856 15.6219 0.079695 15.6318 0.079695 14.4975C0.079695 13.3632 0.268971 13.3731 0.268971 12.2388C0.268971 11.1045 0.0298856 11.1045 0.0298856 9.9801C0.0298856 8.85572 0.00996189 8.84577 0.00996189 7.72139C0.00996189 6.90547 0.239085 6.0995 0.47817 5.36318C0.717255 4.62687 1.14562 3.91045 1.60386 3.27363C2.06211 2.63682 2.57016 1.97015 3.20772 1.50249C3.84528 1.03483 4.60239 0.686567 5.35949 0.437811C6.11659 0.189055 6.91354 0.179104 7.73041 0.179104C8.85611 0.179104 8.85611 0.258706 9.99176 0.258706C11.1274 0.258706 11.1175 0.258706 12.2531 0.258706C13.3888 0.258706 13.3788 0.278607 14.5145 0.278607C15.6501 0.278607 15.6401 0.00995024 16.7758 0.00995024C17.9115 0.00995024 17.9015 0.179104 19.0371 0.179104C20.1728 0.179104 20.1628 0.278607 21.2985 0.278607C22.4341 0.278607 22.4242 0.109453 23.5598 0.109453C24.6955 0.109453 24.6855 0 25.8112 0C26.9369 0 26.9369 0.0199005 28.0626 0.0199005C29.1883 0.0199005 29.1883 0.0497513 30.314 0.0497513C31.4397 0.0497513 31.4397 0.00995024 32.5753 0.00995024C33.711 0.00995024 33.701 0.189055 34.8367 0.189055C35.9723 0.189055 35.9624 0.208955 37.098 0.208955C38.2337 0.208955 38.2237 0.208955 39.3594 0.208955C40.495 0.208955 40.4851 0.288557 41.6207 0.288557C42.7564 0.288557 42.7464 0.0597015 43.8821 0.0597015C45.0177 0.0597015 45.0077 0.288557 46.1434 0.288557C47.2791 0.288557 47.2691 0.298507 48.4047 0.298507C49.5404 0.298507 49.5404 0 50.6661 0C51.7918 0 51.7918 0.159204 52.9274 0.159204C54.0631 0.159204 54.0631 0.0497513 55.1888 0.0497513C56.3145 0.0497513 56.3244 0.129353 57.4501 0.129353C58.5758 0.129353 58.5758 0.208955 59.7115 0.208955C60.8471 0.208955 60.8372 0.248756 61.9728 0.248756C63.1085 0.248756 63.1085 0.00995024 64.2342 0.00995024C65.3599 0.00995024 65.3698 0.039801 66.4955 0.039801C67.6212 0.039801 67.6312 0.308458 68.7569 0.308458C69.8825 0.308458 69.8925 0.109453 71.0282 0.109453C72.1638 0.109453 72.1638 0.208955 73.2995 0.208955C74.1163 0.208955 74.9033 0.288557 75.6405 0.527363C76.3777 0.766169 77.0651 1.21393 77.7026 1.67164C78.3402 2.12935 78.9977 2.60697 79.4659 3.25373C79.9341 3.9005 80.3326 4.60697 80.5816 5.37313C80.8307 6.1393 81 6.92537 81 7.74129C81 8.86567 80.99 8.86567 80.99 9.99005C80.99 11.1144 81 11.1144 81 12.2388C81 13.3632 80.9502 13.3632 80.9502 14.4876C80.9502 15.6119 80.9801 15.6119 80.9801 16.7463C80.9801 17.8806 80.7808 17.8706 80.7808 18.995C80.7808 20.1194 80.8406 20.1194 80.8406 21.2537C80.8406 22.3881 80.8207 22.3781 80.8207 23.5025C80.8207 24.6269 80.8705 24.6269 80.8705 25.7612C80.8705 26.8955 80.8805 26.8856 80.8805 28.01C80.8805 29.1343 80.9801 29.1343 80.9801 30.2687C80.9801 31.403 80.741 31.393 80.741 32.5274C80.741 33.6617 80.9203 33.6517 80.9203 34.7761C80.9203 35.9005 80.8506 35.9005 80.8506 37.0348C80.8506 38.1692 80.731 38.1592 80.731 39.2935C80.731 40.4279 80.741 40.4179 80.741 41.5522C80.741 42.6866 80.7211 42.6766 80.7211 43.8109C80.7211 44.9453 80.8406 44.9453 80.8406 46.0697C80.8406 47.194 80.9004 47.204 80.9004 48.3284C80.9004 49.1443 80.741 49.9403 80.5019 50.6766C80.2628 51.4129 79.7747 52.0796 79.3164 52.7164C78.8582 53.3532 78.3302 53.9303 77.6927 54.398C77.0551 54.8657 76.4175 55.3831 75.6604 55.6318C74.9033 55.8806 74.1064 55.8109 73.2895 55.8109V55.7811Z" fill="white" stroke="black" stroke-width="2" stroke-miterlimit="10" mask="url(#path-1-inside-1_607_1505)"/>
<path d="M32.1659 20.098C32.7399 20.098 33.1039 20.49 33.2579 21.274C33.2579 22.632 32.2219 24.592 30.1499 27.154C28.3299 28.694 27.0139 29.506 26.2019 29.59H26.1179C25.6139 29.59 25.3059 29.254 25.1939 28.582C25.1939 28.176 25.7819 27.756 26.9579 27.322C28.0639 26.594 28.8479 25.922 29.3099 25.306C28.7499 25.362 28.3299 25.39 28.0499 25.39H26.3699C25.5859 25.32 25.1939 24.984 25.1939 24.382C25.3479 23.822 25.6559 23.542 26.1179 23.542H27.4619C28.1199 23.542 29.1559 23.514 30.5699 23.458C30.9059 22.828 31.1299 22.324 31.2419 21.946H31.1579C29.7019 22.002 28.5539 22.03 27.7139 22.03H26.7059C25.9779 21.96 25.6139 21.68 25.6139 21.19V21.022C25.6139 20.518 25.9499 20.238 26.6219 20.182H28.8899C29.7019 20.182 30.7939 20.154 32.1659 20.098ZM39.2639 19.195C39.6139 19.195 39.9219 19.475 40.1879 20.035L40.1039 20.875V24.067C40.1039 24.963 40.0759 25.831 40.0199 26.671C40.0759 26.909 40.1039 27.525 40.1039 28.519C39.9639 29.191 39.6559 29.527 39.1799 29.527C38.6619 29.527 38.3539 29.163 38.2559 28.435V25.075H36.5759V27.763C36.5059 28.491 36.2259 28.855 35.7359 28.855H35.5679C35.0079 28.729 34.7279 28.449 34.7279 28.015C34.7279 27.623 34.7559 27.007 34.8119 26.167C34.8119 25.887 34.7839 25.551 34.7279 25.159C34.7839 24.207 34.8119 23.283 34.8119 22.387V20.455C34.8679 19.783 35.1479 19.447 35.6519 19.447H35.8199C36.3799 19.573 36.6599 19.853 36.6599 20.287L36.5759 20.875V23.227H36.9959C37.2759 23.227 37.6959 23.255 38.2559 23.311C38.2559 23.143 38.2839 22.023 38.3399 19.951C38.6059 19.447 38.9139 19.195 39.2639 19.195ZM36.7229 29.905C37.1709 29.905 37.4509 30.297 37.5629 31.081V35.953C37.3949 36.849 37.0309 37.297 36.4709 37.297H31.5989C28.4629 37.297 26.8949 37.101 26.8949 36.709C26.7829 36.499 26.7269 36.275 26.7269 36.037V30.997C26.7829 30.325 27.0629 29.989 27.5669 29.989H27.7349C28.2249 29.989 28.5049 30.353 28.5749 31.081V32.005L28.9949 32.089H35.7149V30.829C35.7149 30.283 36.0509 29.975 36.7229 29.905ZM28.4909 33.853L28.5749 35.449H28.6589C31.2349 35.505 33.2229 35.533 34.6229 35.533H35.7149V33.937H31.4309C30.7869 33.937 29.8069 33.909 28.4909 33.853ZM46.5095 19.51C47.0695 19.636 47.3495 19.916 47.3495 20.35V21.946H50.2055C50.8215 22.044 51.1295 22.352 51.1295 22.87C51.1295 23.486 50.4575 23.794 49.1135 23.794H47.3495C47.3495 26.216 48.2735 28.372 50.1215 30.262C50.5695 30.43 50.9615 30.766 51.2975 31.27V31.69C51.1855 32.25 50.9055 32.53 50.4575 32.53C49.2395 32.082 48.0355 30.934 46.8455 29.086C46.6775 28.68 46.5935 28.428 46.5935 28.33C45.0815 30.794 43.8495 32.166 42.8975 32.446H42.7295C42.2255 32.376 41.9735 32.124 41.9735 31.69V31.522C41.9735 31.186 42.6455 30.374 43.9895 29.086C44.9415 27.616 45.4175 26.132 45.4175 24.634V23.71C44.9415 23.71 44.0455 23.738 42.7295 23.794C42.4075 23.794 42.1275 23.514 41.8895 22.954C41.8895 22.282 42.4215 21.946 43.4855 21.946C44.5075 21.89 45.1795 21.862 45.5015 21.862C45.5015 20.294 45.7815 19.51 46.3415 19.51H46.5095ZM54.8045 19.069C55.1685 19.069 55.4765 19.293 55.7285 19.741C55.7845 21.771 55.8125 23.227 55.8125 24.109V35.113C55.8125 35.841 55.4765 36.205 54.8045 36.205C54.2445 36.079 53.9645 35.715 53.9645 35.113V27.385H53.8805C51.5285 27.385 50.3525 27.217 50.3525 26.881L50.2685 26.461V26.377C50.3805 25.761 50.6885 25.453 51.1925 25.453C52.1865 25.509 53.0265 25.537 53.7125 25.537H53.9645V22.345C53.9645 21.827 53.9365 21.099 53.8805 20.161C54.0345 19.433 54.3425 19.069 54.8045 19.069Z" fill="black"/>
</g>
<defs>
<clipPath id="clip0_607_1505">
<rect width="81" height="56" fill="white"/>
</clipPath>
</defs>
</svg>
