<svg width="359" height="57" viewBox="0 0 359 57" fill="none" xmlns="http://www.w3.org/2000/svg">
<g clip-path="url(#clip0_564_1418)">
<mask id="path-1-inside-1_564_1418" fill="white">
<path d="M339.765 56.2144C338.277 56.2144 338.277 56.3912 336.789 56.3912C335.301 56.3912 335.301 56.401 333.813 56.401C332.325 56.401 332.325 56.1359 330.838 56.1359C329.35 56.1359 329.35 56.185 327.862 56.185C326.374 56.185 326.374 56.1163 324.886 56.1163C323.399 56.1163 323.399 56.2439 321.911 56.2439C320.423 56.2439 320.423 55.969 318.935 55.969C317.447 55.969 317.447 56.9411 315.959 56.9411C314.472 56.9411 314.472 56.892 312.984 56.892C311.496 56.892 311.496 56.0672 310.008 56.0672C308.52 56.0672 308.52 56.0868 307.032 56.0868C305.545 56.0868 305.545 56.2341 304.057 56.2341C302.569 56.2341 302.569 56.7545 301.081 56.7545C299.593 56.7545 299.593 56.1555 298.106 56.1555C296.618 56.1555 296.618 56.5778 295.13 56.5778C293.642 56.5778 293.642 56.3912 292.154 56.3912C290.666 56.3912 290.666 56.3126 289.179 56.3126C287.691 56.3126 287.691 56.5385 286.203 56.5385C284.715 56.5385 284.715 56.7349 283.227 56.7349C281.74 56.7349 281.739 56.9018 280.252 56.9018C278.764 56.9018 278.764 56.4207 277.276 56.4207C275.788 56.4207 275.788 55.969 274.3 55.969C272.813 55.969 272.813 56.6367 271.325 56.6367C269.837 56.6367 269.837 56.0377 268.349 56.0377C266.861 56.0377 266.861 56.2537 265.373 56.2537C263.886 56.2537 263.886 56.7349 262.398 56.7349C260.91 56.7349 260.91 56.892 259.422 56.892C257.934 56.892 257.934 56.1064 256.447 56.1064C254.959 56.1064 254.959 56.3323 253.471 56.3323C251.983 56.3323 251.983 56.4403 250.495 56.4403C249.007 56.4403 249.007 56.1163 247.52 56.1163C246.032 56.1163 246.032 56.1359 244.544 56.1359C243.056 56.1359 243.056 56.9705 241.568 56.9705C240.08 56.9705 240.08 56.2144 238.593 56.2144C237.105 56.2144 237.105 56.8822 235.617 56.8822C234.129 56.8822 234.129 56.1654 232.641 56.1654C231.154 56.1654 231.154 56.6661 229.666 56.6661C228.178 56.6661 228.178 56.9411 226.69 56.9411C225.202 56.9411 225.202 56.4796 223.714 56.4796C222.227 56.4796 222.227 56.9804 220.739 56.9804C219.251 56.9804 219.251 56.8625 217.763 56.8625C216.275 56.8625 216.275 56.1752 214.787 56.1752C213.3 56.1752 213.3 56.5581 211.812 56.5581C210.324 56.5581 210.324 56.1555 208.836 56.1555C207.348 56.1555 207.348 56.3617 205.861 56.3617C204.373 56.3617 204.373 56.4108 202.885 56.4108C201.397 56.4108 201.397 56.2832 199.909 56.2832C198.421 56.2832 198.421 56.0181 196.934 56.0181C195.446 56.0181 195.446 56.7349 193.958 56.7349C192.47 56.7349 192.47 56.1163 190.982 56.1163C189.494 56.1163 189.494 56.892 188.007 56.892C186.519 56.892 186.519 56.9509 185.031 56.9509C183.543 56.9509 183.543 56.6465 182.055 56.6465C180.568 56.6465 180.568 56.4698 179.08 56.4698C177.592 56.4698 177.592 56.8527 176.104 56.8527C174.616 56.8527 174.616 56.7447 173.128 56.7447C171.641 56.7447 171.641 56.3716 170.153 56.3716C168.665 56.3716 168.665 56.0966 167.177 56.0966C165.689 56.0966 165.689 56.0966 164.201 56.0966C162.714 56.0966 162.714 56.0181 161.226 56.0181C159.738 56.0181 159.738 56.9116 158.237 56.9116C156.736 56.9116 156.749 56.3617 155.261 56.3617C153.773 56.3617 153.773 56.0377 152.286 56.0377C150.798 56.0377 150.798 56.5778 149.31 56.5778C147.822 56.5778 147.822 56.9411 146.334 56.9411C144.846 56.9411 144.847 56.8724 143.359 56.8724C141.871 56.8724 141.871 56.7938 140.383 56.7938C138.895 56.7938 138.895 56.9313 137.407 56.9313C135.92 56.9313 135.92 56.3519 134.418 56.3519C132.917 56.3519 132.931 56.2832 131.443 56.2832C129.955 56.2832 129.955 56.293 128.467 56.293C126.979 56.293 126.979 56.0181 125.492 56.0181C124.004 56.0181 124.004 56.7742 122.516 56.7742C121.028 56.7742 121.028 56.0377 119.527 56.0377C118.026 56.0377 118.039 55.9886 116.551 55.9886C115.063 55.9886 115.063 56.9804 113.576 56.9804C112.088 56.9804 112.088 56.4698 110.6 56.4698C109.112 56.4698 109.112 56.8429 107.624 56.8429C106.137 56.8429 106.137 56.5876 104.635 56.5876C103.134 56.5876 103.148 56.3323 101.66 56.3323C100.172 56.3323 100.172 56.1948 98.6841 56.1948C97.1963 56.1948 97.1963 57 95.6952 57C94.1941 57 94.2074 56.9018 92.7063 56.9018C91.2052 56.9018 91.2185 56.0082 89.7306 56.0082C88.2428 56.0082 88.2428 56.6563 86.7417 56.6563C85.2406 56.6563 85.2539 56.3323 83.7528 56.3323C82.2517 56.3323 82.2649 56.4992 80.7771 56.4992C79.2893 56.4992 79.2893 56.2243 77.8015 56.2243C76.3137 56.2243 76.3137 56.6563 74.8258 56.6563C73.338 56.6563 73.338 56.7643 71.8369 56.7643C70.3358 56.7643 70.3491 56.9018 68.848 56.9018C67.3469 56.9018 67.3601 56.8527 65.8723 56.8527C64.3845 56.8527 64.3845 56.892 62.8967 56.892C61.4089 56.892 61.4089 56.7349 59.9077 56.7349C58.4066 56.7349 58.4199 56.8233 56.9321 56.8233C55.4443 56.8233 55.4443 56.1555 53.9432 56.1555C52.4421 56.1555 52.4554 56.3617 50.9542 56.3617C49.4531 56.3617 49.4664 56.3028 47.9653 56.3028C46.4642 56.3028 46.4775 56.4796 44.9764 56.4796C43.4753 56.4796 43.4886 56.5189 41.9875 56.5189C40.4863 56.5189 40.4996 56.8331 38.9985 56.8331C37.4974 56.8331 37.5107 56.0279 36.0229 56.0279C34.5351 56.0279 34.5351 56.617 33.0339 56.617C31.5328 56.617 31.5461 56.401 30.045 56.401C28.5439 56.401 28.5439 56.0181 27.0561 56.0181C25.5683 56.0181 25.555 56.0573 24.0672 56.0573C22.5793 56.0573 22.5661 55.9984 21.0782 55.9984C19.5904 55.9984 19.5771 56.3912 18.0893 56.3912C17.1063 56.3912 16.11 56.5385 15.1801 56.4305C14.2502 56.3225 13.2804 56.0672 12.3771 55.8511C11.4738 55.6351 10.8096 54.9674 9.95941 54.6434C9.10923 54.3193 8.21919 54.0935 7.44871 53.6712C6.67823 53.249 5.40295 53.2294 4.72546 52.7187C4.04797 52.2081 3.1845 51.727 2.61328 51.1476C2.04207 50.5683 2.18819 49.6256 1.74982 48.9874C1.31144 48.3491 0.301845 47.8581 0.00959411 47.1708C-0.282657 46.4834 0.394834 45.6291 0.248708 44.9123C0.102583 44.1955 -0.256089 43.5474 -0.256089 42.8208C-0.256089 41.7603 0.235424 41.7603 0.235424 40.69C0.235424 39.6197 -0.442066 39.6295 -0.442066 38.5592C-0.442066 37.4889 -1 37.4889 -1 36.4284C-1 35.3679 -0.1631 35.3679 -0.1631 34.2976C-0.1631 33.2272 0.0361623 33.2273 0.0361623 32.1668C0.0361623 31.1063 -0.096679 31.0964 -0.096679 30.0359C-0.096679 28.9755 -0.428782 28.9755 -0.428782 27.9051C-0.428782 26.8348 -0.0435423 26.8446 -0.0435423 25.7743C-0.0435423 24.704 -0.907011 24.704 -0.907011 23.6435C-0.907011 22.583 0.0892988 22.5732 0.0892988 21.5127C0.0892988 20.4522 -0.00369004 20.4424 -0.00369004 19.3819C-0.00369004 18.3214 -0.269373 18.3116 -0.269373 17.2413C-0.269373 16.171 -0.667897 16.171 -0.667897 15.1006C-0.667897 14.374 0.142436 13.7063 0.301845 13.0091C0.461255 12.3119 0.966052 11.713 1.2583 11.0452C1.55055 10.3775 1.67011 9.69998 2.10849 9.06172C2.54686 8.42346 2.97196 7.8343 3.54317 7.26477C4.11439 6.69525 4.14096 5.76241 4.81845 5.26162C5.49594 4.76083 6.91734 4.90812 7.70111 4.48588C8.48487 4.06365 8.9631 3.36647 9.82657 3.04243C10.69 2.71839 11.6199 2.60056 12.5498 2.38453C13.4797 2.16851 14.3166 1.90338 15.2863 1.78555C16.2561 1.66772 17.1594 1.23567 18.1424 1.23567C19.6303 1.23567 19.6303 1.01964 21.1181 1.01964C22.6059 1.01964 22.6059 1.74627 24.0937 1.74627C25.5816 1.74627 25.5815 1.707 27.0694 1.707C28.5572 1.707 28.5572 1.54989 30.045 1.54989C31.5328 1.54989 31.5328 1.09819 33.0207 1.09819C34.5085 1.09819 34.5085 1.67754 35.9963 1.67754C37.4841 1.67754 37.4841 1.79537 38.972 1.79537C40.4598 1.79537 40.4598 1.41241 41.9476 1.41241C43.4354 1.41241 43.4354 1.14729 44.9232 1.14729C46.4111 1.14729 46.4111 1.23567 47.8989 1.23567C49.3867 1.23567 49.3867 1.79537 50.8745 1.79537C52.3624 1.79537 52.3624 1.94266 53.8502 1.94266C55.338 1.94266 55.338 1.44187 56.8258 1.44187C58.3137 1.44187 58.3137 1.54989 59.8015 1.54989C61.2893 1.54989 61.2893 1.61862 62.7771 1.61862C64.2649 1.61862 64.2649 1.36332 65.7528 1.36332C67.2406 1.36332 67.2406 1.89356 68.7284 1.89356C70.2162 1.89356 70.2162 1.51061 71.7041 1.51061C73.1919 1.51061 73.1919 1.58916 74.6797 1.58916C76.1675 1.58916 76.1675 1.50079 77.6554 1.50079C79.1432 1.50079 79.1432 1.07856 80.631 1.07856C82.1188 1.07856 82.1188 1.54989 83.6066 1.54989C85.0945 1.54989 85.0945 1.75609 86.5823 1.75609C88.0701 1.75609 88.0701 1.69718 89.5579 1.69718C91.0458 1.69718 91.0458 1.10801 92.5336 1.10801C94.0214 1.10801 94.0214 1.47133 95.5092 1.47133C96.9971 1.47133 96.9971 1.63826 98.4849 1.63826C99.9727 1.63826 99.9727 1.12765 101.461 1.12765C102.948 1.12765 102.948 1.05892 104.436 1.05892C105.924 1.05892 105.924 1.54007 107.412 1.54007C108.9 1.54007 108.9 1.34368 110.387 1.34368C111.875 1.34368 111.875 1.85429 113.363 1.85429C114.851 1.85429 114.851 1.3044 116.339 1.3044C117.827 1.3044 117.827 1.05892 119.314 1.05892C120.802 1.05892 120.802 1.59898 122.29 1.59898C123.778 1.59898 123.778 1.10801 125.266 1.10801C126.754 1.10801 126.754 1.92302 128.241 1.92302C129.729 1.92302 129.729 1.48115 131.217 1.48115C132.705 1.48115 132.705 1.3044 134.193 1.3044C135.68 1.3044 135.68 1.79537 137.168 1.79537C138.656 1.79537 138.656 1.10801 140.144 1.10801C141.632 1.10801 141.632 1.84447 143.12 1.84447C144.607 1.84447 144.607 1.87393 146.095 1.87393C147.583 1.87393 147.583 1.39278 149.071 1.39278C150.559 1.39278 150.559 1.49097 152.046 1.49097C153.534 1.49097 153.534 1.15711 155.022 1.15711C156.51 1.15711 156.51 1.17675 157.998 1.17675C159.486 1.17675 159.486 1.95248 160.973 1.95248C162.461 1.95248 162.461 1.52043 163.949 1.52043C165.437 1.52043 165.437 1.67754 166.925 1.67754C168.413 1.67754 168.413 2.00158 169.9 2.00158C171.388 2.00158 171.388 1.22585 172.876 1.22585C174.364 1.22585 174.364 1.01964 175.852 1.01964C177.34 1.01964 177.339 1.38296 178.827 1.38296C180.315 1.38296 180.315 1.16693 181.803 1.16693C183.291 1.16693 183.291 1.51061 184.779 1.51061C186.266 1.51061 186.266 1.38296 187.754 1.38296C189.242 1.38296 189.242 1.36332 190.73 1.36332C192.218 1.36332 192.218 1 193.706 1C195.193 1 195.193 1.33386 196.681 1.33386C198.169 1.33386 198.169 1.707 199.67 1.707C201.171 1.707 201.158 1.4026 202.646 1.4026C204.134 1.4026 204.134 1.90338 205.621 1.90338C207.109 1.90338 207.109 1.32404 208.597 1.32404C210.085 1.32404 210.085 1.26512 211.573 1.26512C213.061 1.26512 213.061 1.23567 214.548 1.23567C216.036 1.23567 216.036 1.87393 217.524 1.87393C219.012 1.87393 219.012 1.17675 220.5 1.17675C221.987 1.17675 221.987 1.01964 223.489 1.01964C224.99 1.01964 224.976 1.89356 226.464 1.89356C227.952 1.89356 227.952 1.94266 229.44 1.94266C230.928 1.94266 230.928 1.86411 232.416 1.86411C233.903 1.86411 233.903 1.81501 235.391 1.81501C236.879 1.81501 236.879 1.15711 238.38 1.15711C239.881 1.15711 239.868 1.03928 241.356 1.03928C242.844 1.03928 242.844 1.89356 244.331 1.89356C245.819 1.89356 245.819 1.61862 247.307 1.61862C248.795 1.61862 248.795 1.02946 250.283 1.02946C251.771 1.02946 251.77 1.48115 253.272 1.48115C254.773 1.48115 254.759 1.62844 256.247 1.62844C257.735 1.62844 257.735 1 259.223 1C260.711 1 260.711 1.03928 262.212 1.03928C263.713 1.03928 263.7 1.09819 265.201 1.09819C266.702 1.09819 266.689 1.23567 268.176 1.23567C269.664 1.23567 269.664 1.15711 271.165 1.15711C272.666 1.15711 272.653 1.54989 274.154 1.54989C275.655 1.54989 275.642 1.80519 277.13 1.80519C278.618 1.80519 278.618 1.24548 280.106 1.24548C281.593 1.24548 281.593 1.79537 283.081 1.79537C284.569 1.79537 284.569 1.71682 286.07 1.71682C287.571 1.71682 287.558 1.06874 289.059 1.06874C290.56 1.06874 290.547 1.53025 292.035 1.53025C293.523 1.53025 293.523 1.95248 295.01 1.95248C296.498 1.95248 296.498 1.17675 297.999 1.17675C299.5 1.17675 299.487 1.24548 300.975 1.24548C302.463 1.24548 302.463 1.56952 303.964 1.56952C305.465 1.56952 305.452 1.68736 306.953 1.68736C308.454 1.68736 308.441 1.94266 309.942 1.94266C311.443 1.94266 311.43 1.36332 312.931 1.36332C314.432 1.36332 314.418 1.0491 315.92 1.0491C317.421 1.0491 317.407 1.49097 318.908 1.49097C320.41 1.49097 320.396 1.52043 321.884 1.52043C323.372 1.52043 323.372 1.76591 324.873 1.76591C326.374 1.76591 326.361 1.16693 327.862 1.16693C329.363 1.16693 329.363 1.17675 330.851 1.17675C332.339 1.17675 332.352 1.17675 333.84 1.17675C335.328 1.17675 335.341 1.31422 336.829 1.31422C338.317 1.31422 338.33 1.86411 339.818 1.86411C340.801 1.86411 341.678 2.02122 342.607 2.12923C343.537 2.23724 344.613 1.94266 345.53 2.15869C346.447 2.37472 347.323 2.69876 348.187 3.0228C349.05 3.34684 349.847 3.73961 350.631 4.16184C351.415 4.58408 352.199 4.99649 352.889 5.5071C353.58 6.01771 354.125 6.60687 354.696 7.18622C355.267 7.76556 355.639 8.41364 356.078 9.0519C356.516 9.69016 356.516 10.407 356.808 11.0943C357.1 11.7817 357.871 12.3316 358.03 13.0386C358.19 13.7456 358.097 14.4428 358.097 15.1694C358.097 16.2299 358.708 16.2299 358.708 17.3002C358.708 18.3705 358.588 18.3607 358.588 19.431C358.588 20.5013 358.748 20.5013 358.748 21.5618C358.748 22.6223 359 22.6223 359 23.6926C359 24.7629 357.698 24.7629 357.698 25.8234C357.698 26.8839 357.977 26.8937 357.977 27.9542C357.977 29.0147 358.349 29.0147 358.349 30.085C358.349 31.1554 358.163 31.1455 358.163 32.2159C358.163 33.2862 358.256 33.2862 358.256 34.3467C358.256 35.4072 357.672 35.417 357.672 36.4775C357.672 37.538 357.618 37.5478 357.618 38.6083C357.618 39.6688 358.854 39.6786 358.854 40.7489C358.854 41.8192 358.269 41.8192 358.269 42.8895C358.269 43.6162 358.615 44.3723 358.469 45.0694C358.323 45.7666 357.884 46.4834 357.579 47.1511C357.273 47.8189 356.117 48.2313 355.692 48.8597C355.267 49.4882 354.789 50.0381 354.218 50.6076C353.647 51.1771 353.089 51.6681 352.411 52.1787C351.734 52.6893 351.813 53.8578 351.03 54.28C350.246 54.7023 349.342 55.1049 348.479 55.4289C347.616 55.7529 346.261 55.1932 345.344 55.4191C344.427 55.6449 343.604 55.861 342.647 55.9788C341.691 56.0966 340.827 56.2537 339.844 56.2537L339.765 56.2144Z"/>
</mask>
<path d="M339.765 56.2144C338.277 56.2144 338.277 56.3912 336.789 56.3912C335.301 56.3912 335.301 56.401 333.813 56.401C332.325 56.401 332.325 56.1359 330.838 56.1359C329.35 56.1359 329.35 56.185 327.862 56.185C326.374 56.185 326.374 56.1163 324.886 56.1163C323.399 56.1163 323.399 56.2439 321.911 56.2439C320.423 56.2439 320.423 55.969 318.935 55.969C317.447 55.969 317.447 56.9411 315.959 56.9411C314.472 56.9411 314.472 56.892 312.984 56.892C311.496 56.892 311.496 56.0672 310.008 56.0672C308.52 56.0672 308.52 56.0868 307.032 56.0868C305.545 56.0868 305.545 56.2341 304.057 56.2341C302.569 56.2341 302.569 56.7545 301.081 56.7545C299.593 56.7545 299.593 56.1555 298.106 56.1555C296.618 56.1555 296.618 56.5778 295.13 56.5778C293.642 56.5778 293.642 56.3912 292.154 56.3912C290.666 56.3912 290.666 56.3126 289.179 56.3126C287.691 56.3126 287.691 56.5385 286.203 56.5385C284.715 56.5385 284.715 56.7349 283.227 56.7349C281.74 56.7349 281.739 56.9018 280.252 56.9018C278.764 56.9018 278.764 56.4207 277.276 56.4207C275.788 56.4207 275.788 55.969 274.3 55.969C272.813 55.969 272.813 56.6367 271.325 56.6367C269.837 56.6367 269.837 56.0377 268.349 56.0377C266.861 56.0377 266.861 56.2537 265.373 56.2537C263.886 56.2537 263.886 56.7349 262.398 56.7349C260.91 56.7349 260.91 56.892 259.422 56.892C257.934 56.892 257.934 56.1064 256.447 56.1064C254.959 56.1064 254.959 56.3323 253.471 56.3323C251.983 56.3323 251.983 56.4403 250.495 56.4403C249.007 56.4403 249.007 56.1163 247.52 56.1163C246.032 56.1163 246.032 56.1359 244.544 56.1359C243.056 56.1359 243.056 56.9705 241.568 56.9705C240.08 56.9705 240.08 56.2144 238.593 56.2144C237.105 56.2144 237.105 56.8822 235.617 56.8822C234.129 56.8822 234.129 56.1654 232.641 56.1654C231.154 56.1654 231.154 56.6661 229.666 56.6661C228.178 56.6661 228.178 56.9411 226.69 56.9411C225.202 56.9411 225.202 56.4796 223.714 56.4796C222.227 56.4796 222.227 56.9804 220.739 56.9804C219.251 56.9804 219.251 56.8625 217.763 56.8625C216.275 56.8625 216.275 56.1752 214.787 56.1752C213.3 56.1752 213.3 56.5581 211.812 56.5581C210.324 56.5581 210.324 56.1555 208.836 56.1555C207.348 56.1555 207.348 56.3617 205.861 56.3617C204.373 56.3617 204.373 56.4108 202.885 56.4108C201.397 56.4108 201.397 56.2832 199.909 56.2832C198.421 56.2832 198.421 56.0181 196.934 56.0181C195.446 56.0181 195.446 56.7349 193.958 56.7349C192.47 56.7349 192.47 56.1163 190.982 56.1163C189.494 56.1163 189.494 56.892 188.007 56.892C186.519 56.892 186.519 56.9509 185.031 56.9509C183.543 56.9509 183.543 56.6465 182.055 56.6465C180.568 56.6465 180.568 56.4698 179.08 56.4698C177.592 56.4698 177.592 56.8527 176.104 56.8527C174.616 56.8527 174.616 56.7447 173.128 56.7447C171.641 56.7447 171.641 56.3716 170.153 56.3716C168.665 56.3716 168.665 56.0966 167.177 56.0966C165.689 56.0966 165.689 56.0966 164.201 56.0966C162.714 56.0966 162.714 56.0181 161.226 56.0181C159.738 56.0181 159.738 56.9116 158.237 56.9116C156.736 56.9116 156.749 56.3617 155.261 56.3617C153.773 56.3617 153.773 56.0377 152.286 56.0377C150.798 56.0377 150.798 56.5778 149.31 56.5778C147.822 56.5778 147.822 56.9411 146.334 56.9411C144.846 56.9411 144.847 56.8724 143.359 56.8724C141.871 56.8724 141.871 56.7938 140.383 56.7938C138.895 56.7938 138.895 56.9313 137.407 56.9313C135.92 56.9313 135.92 56.3519 134.418 56.3519C132.917 56.3519 132.931 56.2832 131.443 56.2832C129.955 56.2832 129.955 56.293 128.467 56.293C126.979 56.293 126.979 56.0181 125.492 56.0181C124.004 56.0181 124.004 56.7742 122.516 56.7742C121.028 56.7742 121.028 56.0377 119.527 56.0377C118.026 56.0377 118.039 55.9886 116.551 55.9886C115.063 55.9886 115.063 56.9804 113.576 56.9804C112.088 56.9804 112.088 56.4698 110.6 56.4698C109.112 56.4698 109.112 56.8429 107.624 56.8429C106.137 56.8429 106.137 56.5876 104.635 56.5876C103.134 56.5876 103.148 56.3323 101.66 56.3323C100.172 56.3323 100.172 56.1948 98.6841 56.1948C97.1963 56.1948 97.1963 57 95.6952 57C94.1941 57 94.2074 56.9018 92.7063 56.9018C91.2052 56.9018 91.2185 56.0082 89.7306 56.0082C88.2428 56.0082 88.2428 56.6563 86.7417 56.6563C85.2406 56.6563 85.2539 56.3323 83.7528 56.3323C82.2517 56.3323 82.2649 56.4992 80.7771 56.4992C79.2893 56.4992 79.2893 56.2243 77.8015 56.2243C76.3137 56.2243 76.3137 56.6563 74.8258 56.6563C73.338 56.6563 73.338 56.7643 71.8369 56.7643C70.3358 56.7643 70.3491 56.9018 68.848 56.9018C67.3469 56.9018 67.3601 56.8527 65.8723 56.8527C64.3845 56.8527 64.3845 56.892 62.8967 56.892C61.4089 56.892 61.4089 56.7349 59.9077 56.7349C58.4066 56.7349 58.4199 56.8233 56.9321 56.8233C55.4443 56.8233 55.4443 56.1555 53.9432 56.1555C52.4421 56.1555 52.4554 56.3617 50.9542 56.3617C49.4531 56.3617 49.4664 56.3028 47.9653 56.3028C46.4642 56.3028 46.4775 56.4796 44.9764 56.4796C43.4753 56.4796 43.4886 56.5189 41.9875 56.5189C40.4863 56.5189 40.4996 56.8331 38.9985 56.8331C37.4974 56.8331 37.5107 56.0279 36.0229 56.0279C34.5351 56.0279 34.5351 56.617 33.0339 56.617C31.5328 56.617 31.5461 56.401 30.045 56.401C28.5439 56.401 28.5439 56.0181 27.0561 56.0181C25.5683 56.0181 25.555 56.0573 24.0672 56.0573C22.5793 56.0573 22.5661 55.9984 21.0782 55.9984C19.5904 55.9984 19.5771 56.3912 18.0893 56.3912C17.1063 56.3912 16.11 56.5385 15.1801 56.4305C14.2502 56.3225 13.2804 56.0672 12.3771 55.8511C11.4738 55.6351 10.8096 54.9674 9.95941 54.6434C9.10923 54.3193 8.21919 54.0935 7.44871 53.6712C6.67823 53.249 5.40295 53.2294 4.72546 52.7187C4.04797 52.2081 3.1845 51.727 2.61328 51.1476C2.04207 50.5683 2.18819 49.6256 1.74982 48.9874C1.31144 48.3491 0.301845 47.8581 0.00959411 47.1708C-0.282657 46.4834 0.394834 45.6291 0.248708 44.9123C0.102583 44.1955 -0.256089 43.5474 -0.256089 42.8208C-0.256089 41.7603 0.235424 41.7603 0.235424 40.69C0.235424 39.6197 -0.442066 39.6295 -0.442066 38.5592C-0.442066 37.4889 -1 37.4889 -1 36.4284C-1 35.3679 -0.1631 35.3679 -0.1631 34.2976C-0.1631 33.2272 0.0361623 33.2273 0.0361623 32.1668C0.0361623 31.1063 -0.096679 31.0964 -0.096679 30.0359C-0.096679 28.9755 -0.428782 28.9755 -0.428782 27.9051C-0.428782 26.8348 -0.0435423 26.8446 -0.0435423 25.7743C-0.0435423 24.704 -0.907011 24.704 -0.907011 23.6435C-0.907011 22.583 0.0892988 22.5732 0.0892988 21.5127C0.0892988 20.4522 -0.00369004 20.4424 -0.00369004 19.3819C-0.00369004 18.3214 -0.269373 18.3116 -0.269373 17.2413C-0.269373 16.171 -0.667897 16.171 -0.667897 15.1006C-0.667897 14.374 0.142436 13.7063 0.301845 13.0091C0.461255 12.3119 0.966052 11.713 1.2583 11.0452C1.55055 10.3775 1.67011 9.69998 2.10849 9.06172C2.54686 8.42346 2.97196 7.8343 3.54317 7.26477C4.11439 6.69525 4.14096 5.76241 4.81845 5.26162C5.49594 4.76083 6.91734 4.90812 7.70111 4.48588C8.48487 4.06365 8.9631 3.36647 9.82657 3.04243C10.69 2.71839 11.6199 2.60056 12.5498 2.38453C13.4797 2.16851 14.3166 1.90338 15.2863 1.78555C16.2561 1.66772 17.1594 1.23567 18.1424 1.23567C19.6303 1.23567 19.6303 1.01964 21.1181 1.01964C22.6059 1.01964 22.6059 1.74627 24.0937 1.74627C25.5816 1.74627 25.5815 1.707 27.0694 1.707C28.5572 1.707 28.5572 1.54989 30.045 1.54989C31.5328 1.54989 31.5328 1.09819 33.0207 1.09819C34.5085 1.09819 34.5085 1.67754 35.9963 1.67754C37.4841 1.67754 37.4841 1.79537 38.972 1.79537C40.4598 1.79537 40.4598 1.41241 41.9476 1.41241C43.4354 1.41241 43.4354 1.14729 44.9232 1.14729C46.4111 1.14729 46.4111 1.23567 47.8989 1.23567C49.3867 1.23567 49.3867 1.79537 50.8745 1.79537C52.3624 1.79537 52.3624 1.94266 53.8502 1.94266C55.338 1.94266 55.338 1.44187 56.8258 1.44187C58.3137 1.44187 58.3137 1.54989 59.8015 1.54989C61.2893 1.54989 61.2893 1.61862 62.7771 1.61862C64.2649 1.61862 64.2649 1.36332 65.7528 1.36332C67.2406 1.36332 67.2406 1.89356 68.7284 1.89356C70.2162 1.89356 70.2162 1.51061 71.7041 1.51061C73.1919 1.51061 73.1919 1.58916 74.6797 1.58916C76.1675 1.58916 76.1675 1.50079 77.6554 1.50079C79.1432 1.50079 79.1432 1.07856 80.631 1.07856C82.1188 1.07856 82.1188 1.54989 83.6066 1.54989C85.0945 1.54989 85.0945 1.75609 86.5823 1.75609C88.0701 1.75609 88.0701 1.69718 89.5579 1.69718C91.0458 1.69718 91.0458 1.10801 92.5336 1.10801C94.0214 1.10801 94.0214 1.47133 95.5092 1.47133C96.9971 1.47133 96.9971 1.63826 98.4849 1.63826C99.9727 1.63826 99.9727 1.12765 101.461 1.12765C102.948 1.12765 102.948 1.05892 104.436 1.05892C105.924 1.05892 105.924 1.54007 107.412 1.54007C108.9 1.54007 108.9 1.34368 110.387 1.34368C111.875 1.34368 111.875 1.85429 113.363 1.85429C114.851 1.85429 114.851 1.3044 116.339 1.3044C117.827 1.3044 117.827 1.05892 119.314 1.05892C120.802 1.05892 120.802 1.59898 122.29 1.59898C123.778 1.59898 123.778 1.10801 125.266 1.10801C126.754 1.10801 126.754 1.92302 128.241 1.92302C129.729 1.92302 129.729 1.48115 131.217 1.48115C132.705 1.48115 132.705 1.3044 134.193 1.3044C135.68 1.3044 135.68 1.79537 137.168 1.79537C138.656 1.79537 138.656 1.10801 140.144 1.10801C141.632 1.10801 141.632 1.84447 143.12 1.84447C144.607 1.84447 144.607 1.87393 146.095 1.87393C147.583 1.87393 147.583 1.39278 149.071 1.39278C150.559 1.39278 150.559 1.49097 152.046 1.49097C153.534 1.49097 153.534 1.15711 155.022 1.15711C156.51 1.15711 156.51 1.17675 157.998 1.17675C159.486 1.17675 159.486 1.95248 160.973 1.95248C162.461 1.95248 162.461 1.52043 163.949 1.52043C165.437 1.52043 165.437 1.67754 166.925 1.67754C168.413 1.67754 168.413 2.00158 169.9 2.00158C171.388 2.00158 171.388 1.22585 172.876 1.22585C174.364 1.22585 174.364 1.01964 175.852 1.01964C177.34 1.01964 177.339 1.38296 178.827 1.38296C180.315 1.38296 180.315 1.16693 181.803 1.16693C183.291 1.16693 183.291 1.51061 184.779 1.51061C186.266 1.51061 186.266 1.38296 187.754 1.38296C189.242 1.38296 189.242 1.36332 190.73 1.36332C192.218 1.36332 192.218 1 193.706 1C195.193 1 195.193 1.33386 196.681 1.33386C198.169 1.33386 198.169 1.707 199.67 1.707C201.171 1.707 201.158 1.4026 202.646 1.4026C204.134 1.4026 204.134 1.90338 205.621 1.90338C207.109 1.90338 207.109 1.32404 208.597 1.32404C210.085 1.32404 210.085 1.26512 211.573 1.26512C213.061 1.26512 213.061 1.23567 214.548 1.23567C216.036 1.23567 216.036 1.87393 217.524 1.87393C219.012 1.87393 219.012 1.17675 220.5 1.17675C221.987 1.17675 221.987 1.01964 223.489 1.01964C224.99 1.01964 224.976 1.89356 226.464 1.89356C227.952 1.89356 227.952 1.94266 229.44 1.94266C230.928 1.94266 230.928 1.86411 232.416 1.86411C233.903 1.86411 233.903 1.81501 235.391 1.81501C236.879 1.81501 236.879 1.15711 238.38 1.15711C239.881 1.15711 239.868 1.03928 241.356 1.03928C242.844 1.03928 242.844 1.89356 244.331 1.89356C245.819 1.89356 245.819 1.61862 247.307 1.61862C248.795 1.61862 248.795 1.02946 250.283 1.02946C251.771 1.02946 251.77 1.48115 253.272 1.48115C254.773 1.48115 254.759 1.62844 256.247 1.62844C257.735 1.62844 257.735 1 259.223 1C260.711 1 260.711 1.03928 262.212 1.03928C263.713 1.03928 263.7 1.09819 265.201 1.09819C266.702 1.09819 266.689 1.23567 268.176 1.23567C269.664 1.23567 269.664 1.15711 271.165 1.15711C272.666 1.15711 272.653 1.54989 274.154 1.54989C275.655 1.54989 275.642 1.80519 277.13 1.80519C278.618 1.80519 278.618 1.24548 280.106 1.24548C281.593 1.24548 281.593 1.79537 283.081 1.79537C284.569 1.79537 284.569 1.71682 286.07 1.71682C287.571 1.71682 287.558 1.06874 289.059 1.06874C290.56 1.06874 290.547 1.53025 292.035 1.53025C293.523 1.53025 293.523 1.95248 295.01 1.95248C296.498 1.95248 296.498 1.17675 297.999 1.17675C299.5 1.17675 299.487 1.24548 300.975 1.24548C302.463 1.24548 302.463 1.56952 303.964 1.56952C305.465 1.56952 305.452 1.68736 306.953 1.68736C308.454 1.68736 308.441 1.94266 309.942 1.94266C311.443 1.94266 311.43 1.36332 312.931 1.36332C314.432 1.36332 314.418 1.0491 315.92 1.0491C317.421 1.0491 317.407 1.49097 318.908 1.49097C320.41 1.49097 320.396 1.52043 321.884 1.52043C323.372 1.52043 323.372 1.76591 324.873 1.76591C326.374 1.76591 326.361 1.16693 327.862 1.16693C329.363 1.16693 329.363 1.17675 330.851 1.17675C332.339 1.17675 332.352 1.17675 333.84 1.17675C335.328 1.17675 335.341 1.31422 336.829 1.31422C338.317 1.31422 338.33 1.86411 339.818 1.86411C340.801 1.86411 341.678 2.02122 342.607 2.12923C343.537 2.23724 344.613 1.94266 345.53 2.15869C346.447 2.37472 347.323 2.69876 348.187 3.0228C349.05 3.34684 349.847 3.73961 350.631 4.16184C351.415 4.58408 352.199 4.99649 352.889 5.5071C353.58 6.01771 354.125 6.60687 354.696 7.18622C355.267 7.76556 355.639 8.41364 356.078 9.0519C356.516 9.69016 356.516 10.407 356.808 11.0943C357.1 11.7817 357.871 12.3316 358.03 13.0386C358.19 13.7456 358.097 14.4428 358.097 15.1694C358.097 16.2299 358.708 16.2299 358.708 17.3002C358.708 18.3705 358.588 18.3607 358.588 19.431C358.588 20.5013 358.748 20.5013 358.748 21.5618C358.748 22.6223 359 22.6223 359 23.6926C359 24.7629 357.698 24.7629 357.698 25.8234C357.698 26.8839 357.977 26.8937 357.977 27.9542C357.977 29.0147 358.349 29.0147 358.349 30.085C358.349 31.1554 358.163 31.1455 358.163 32.2159C358.163 33.2862 358.256 33.2862 358.256 34.3467C358.256 35.4072 357.672 35.417 357.672 36.4775C357.672 37.538 357.618 37.5478 357.618 38.6083C357.618 39.6688 358.854 39.6786 358.854 40.7489C358.854 41.8192 358.269 41.8192 358.269 42.8895C358.269 43.6162 358.615 44.3723 358.469 45.0694C358.323 45.7666 357.884 46.4834 357.579 47.1511C357.273 47.8189 356.117 48.2313 355.692 48.8597C355.267 49.4882 354.789 50.0381 354.218 50.6076C353.647 51.1771 353.089 51.6681 352.411 52.1787C351.734 52.6893 351.813 53.8578 351.03 54.28C350.246 54.7023 349.342 55.1049 348.479 55.4289C347.616 55.7529 346.261 55.1932 345.344 55.4191C344.427 55.6449 343.604 55.861 342.647 55.9788C341.691 56.0966 340.827 56.2537 339.844 56.2537L339.765 56.2144Z" fill="#9E4AFF" stroke="black" stroke-width="2" stroke-miterlimit="10" mask="url(#path-1-inside-1_564_1418)"/>
<path d="M146.094 18.896H146.286C146.846 18.896 147.166 19.312 147.246 20.144V21.008C147.454 21.008 147.998 21.04 148.878 21.104C149.118 21.104 150.014 21.072 151.566 21.008C152.718 21.008 153.294 21.328 153.294 21.968V22.256C153.294 22.832 152.942 23.12 152.238 23.12H147.246V23.216C147.246 24.496 148.206 25.84 150.126 27.248C152.494 28.176 153.678 28.816 153.678 29.168C153.678 29.2 153.71 29.328 153.774 29.552C153.614 30.192 153.262 30.512 152.718 30.512C150.558 29.936 148.798 29.008 147.438 27.728C146.638 27.008 146.222 26.496 146.19 26.192C144.686 28.208 142.478 29.648 139.566 30.512C139.038 30.512 138.718 30.128 138.606 29.36C138.606 28.864 139.63 28.224 141.678 27.44C143.918 25.968 145.038 24.592 145.038 23.312V23.12C144.622 23.12 142.958 23.152 140.046 23.216C139.582 23.216 139.294 22.832 139.182 22.064V21.968C139.438 21.392 139.886 21.104 140.526 21.104H141.582C142.334 21.104 143.518 21.072 145.134 21.008V20.048C145.198 19.28 145.518 18.896 146.094 18.896ZM146.238 29.48C146.878 29.64 147.198 29.992 147.198 30.536L147.222 34.016H151.542C151.91 34.016 152.422 34.048 153.078 34.112C153.19 34.048 153.35 34.016 153.558 34.016C154.198 34.192 154.518 34.512 154.518 34.976V35.168C154.374 35.808 154.054 36.128 153.558 36.128C146.038 36.064 141.142 36.032 138.87 36.032C137.974 36.032 137.526 35.712 137.526 35.072V34.88C137.526 34.368 137.878 34.048 138.582 33.92H145.11C145.11 33.792 145.118 33.184 145.134 32.096C145.102 31.248 145.086 30.728 145.086 30.536C145.086 30.008 145.47 29.656 146.238 29.48ZM170.036 17.648C170.756 17.648 171.236 18.224 171.476 19.376C171.284 22.832 171.188 24.912 171.188 25.616C171.188 26.144 170.836 26.464 170.132 26.576C169.62 26.576 169.3 26.224 169.172 25.52V23.408C164.404 23.472 161.268 23.536 159.764 23.6C159.22 23.6 158.868 23.216 158.708 22.448C158.708 22 159.028 21.68 159.668 21.488C161.764 21.424 163.396 21.392 164.564 21.392H169.172C169.3 21.392 169.364 21.328 169.364 21.2V19.76H162.836C162.436 19.76 161.956 19.792 161.396 19.856C159.732 19.856 158.9 19.536 158.9 18.896V18.416C159.124 17.968 159.444 17.744 159.86 17.744C162.388 17.744 165.78 17.712 170.036 17.648ZM164.852 23.792H165.332C165.78 24.048 166.004 24.432 166.004 24.944V26.576H166.772C167.732 26.576 169.3 26.64 171.476 26.768L172.436 26.672C173.012 26.864 173.3 27.184 173.3 27.632V27.824C173.156 28.464 172.836 28.784 172.34 28.784C171.716 28.784 168.388 28.72 162.356 28.592C159.796 28.656 158.324 28.688 157.94 28.688C156.98 28.576 156.5 28.224 156.5 27.632V27.536C156.628 26.896 156.948 26.576 157.46 26.576C158.628 26.576 160.804 26.544 163.988 26.48L163.892 26.288V25.52C163.892 24.368 164.212 23.792 164.852 23.792ZM159.452 29.84H165.884C169.212 29.84 170.876 30 170.876 30.32C171.068 30.816 171.164 31.616 171.164 32.72C171.164 34.256 170.492 35.024 169.148 35.024C167.58 35.088 164.7 35.152 160.508 35.216V36.32H164.828C165.948 36.32 167.1 36.352 168.284 36.416C168.572 36.352 169.276 36.32 170.396 36.32C171.004 36.32 171.324 36.736 171.356 37.568C171.164 38.144 170.748 38.432 170.108 38.432H159.644C158.812 38.288 158.396 37.968 158.396 37.472L158.492 36.8V36.608C158.492 36.304 158.46 35.904 158.396 35.408C158.396 33.872 158.94 33.104 160.028 33.104C160.284 33.104 160.412 33.136 160.412 33.2C160.476 33.2 160.732 33.168 161.18 33.104C165.244 33.04 167.644 33.008 168.38 33.008L169.052 32.912V31.952C166.092 31.888 163.788 31.856 162.14 31.856H159.74C159.596 31.856 159.468 31.888 159.356 31.952C158.924 31.952 158.572 31.696 158.3 31.184V30.8C158.3 30.224 158.684 29.904 159.452 29.84ZM182.2 19.28C183.16 19.456 183.64 19.904 183.64 20.624C183.64 23.44 183.352 24.848 182.776 24.848C182.776 24.992 182.52 25.12 182.008 25.232C180.12 25.296 178.584 25.328 177.4 25.328V27.2H177.592C178.872 27.2 180.88 27.176 183.616 27.128C184.128 27.4 184.384 27.72 184.384 28.088C184.384 28.856 183.552 29.24 181.888 29.24C180.304 29.288 178.552 29.312 176.632 29.312C175.8 29.152 175.384 28.8 175.384 28.256C175.32 26.16 175.288 24.736 175.288 23.984C175.48 23.472 175.864 23.216 176.44 23.216H179.992C180.312 23.216 180.792 23.184 181.432 23.12V23.024C181.496 22.032 181.528 21.488 181.528 21.392H181.432C180.728 21.456 180.12 21.488 179.608 21.488H176.536C175.768 21.424 175.384 21.104 175.384 20.528V20.336C175.384 19.76 175.768 19.44 176.536 19.376H180.856C181.208 19.376 181.656 19.344 182.2 19.28ZM188.656 18.224H188.848C189.408 18.224 189.728 18.64 189.808 19.472V22.16C189.808 23.76 189.84 26.032 189.904 28.976C189.792 29.264 189.568 29.52 189.232 29.744H188.56C187.984 29.744 187.696 28.272 187.696 25.328V23.6L187.792 23.024C187.728 22.608 187.696 22.192 187.696 21.776V19.376C187.76 18.608 188.08 18.224 188.656 18.224ZM183.496 30.272C184.152 30.272 184.568 30.872 184.744 32.072C185.368 33.768 186.84 35.168 189.16 36.272C190.184 36.416 190.696 36.848 190.696 37.568C190.536 38.24 190.184 38.576 189.64 38.576C188.344 38.576 186.552 37.504 184.264 35.36C183.752 34.72 183.496 34.32 183.496 34.16H183.4C182.376 35.968 180.488 37.408 177.736 38.48C177.64 38.544 177.448 38.576 177.16 38.576C176.728 38.576 176.44 38.24 176.296 37.568V37.472C176.296 36.848 177.032 36.312 178.504 35.864C180.552 34.568 181.8 33.272 182.248 31.976C182.472 30.84 182.888 30.272 183.496 30.272ZM213.471 20H213.663C214.224 20 214.544 20.416 214.624 21.248C214.688 24.608 214.72 27.168 214.72 28.928C214.432 29.696 213.92 30.08 213.184 30.08H211.455C209.871 30.08 208.303 30.112 206.751 30.176C206.095 30.112 204.943 30.08 203.295 30.08C202.399 30.08 201.951 29.28 201.951 27.68C201.887 27.024 201.855 26.512 201.855 26.144C201.919 24.4 201.951 22.736 201.951 21.152C202.063 20.448 202.383 20.096 202.911 20.096H203.103C203.743 20.096 204.063 20.576 204.063 21.536C204.063 21.648 204.031 22.224 203.967 23.264L205.119 23.36H206.079C206.991 23.36 207.663 23.392 208.095 23.456C208.655 23.392 209.359 23.36 210.207 23.36H212.512V21.152C212.575 20.384 212.895 20 213.471 20ZM203.967 25.376V27.488L204.063 27.968C205.439 28.032 206.463 28.064 207.135 28.064H210.015C210.559 28.064 211.423 28.032 212.607 27.968V25.472H206.079C205.631 25.472 204.927 25.44 203.967 25.376ZM208.191 29.48C208.831 29.64 209.151 29.992 209.151 30.536L209.175 34.016H213.495C213.863 34.016 214.375 34.048 215.031 34.112C215.143 34.048 215.304 34.016 215.512 34.016C216.151 34.192 216.471 34.512 216.471 34.976V35.168C216.327 35.808 216.007 36.128 215.512 36.128C207.991 36.064 203.095 36.032 200.823 36.032C199.927 36.032 199.479 35.712 199.479 35.072V34.88C199.479 34.368 199.831 34.048 200.535 33.92H207.063C207.063 33.792 207.071 33.184 207.087 32.096C207.055 31.248 207.039 30.728 207.039 30.536C207.039 30.008 207.423 29.656 208.191 29.48ZM219.51 19.568C220.214 19.568 220.566 20.336 220.566 21.872C220.63 24 220.662 25.856 220.662 27.44V30.128C222.534 30.128 225.03 29.936 228.15 29.552C228.39 29.552 228.678 29.776 229.014 30.224V30.704C229.014 31.536 227.734 31.952 225.174 31.952C223.83 32.08 222.262 32.176 220.47 32.24C219.254 32.24 218.646 31.632 218.646 30.416C218.582 29.008 218.518 25.68 218.454 20.432C218.662 19.856 219.014 19.568 219.51 19.568ZM234.99 18.08C235.502 18.32 235.758 18.64 235.758 19.04C235.758 20.512 235.79 23.072 235.854 26.72C235.854 26.976 235.822 27.552 235.758 28.448C235.886 30.544 235.95 33.136 235.95 36.224C235.95 36.72 235.598 37.072 234.894 37.28C234.302 37.28 233.95 36.832 233.838 35.936V35.456C233.838 33.6 233.806 31.04 233.742 27.776H231.726V32.96C231.726 33.552 231.758 34.384 231.822 35.456C231.566 36.096 231.214 36.416 230.766 36.416C230.062 36.416 229.71 35.744 229.71 34.4C229.646 33.712 229.614 32.624 229.614 31.136C229.614 30.432 229.646 29.984 229.71 29.792C229.646 28.928 229.614 28.192 229.614 27.584V19.616C229.614 18.784 229.966 18.368 230.67 18.368C231.374 18.48 231.726 18.832 231.726 19.424V25.664H231.822C231.998 25.664 232.638 25.696 233.742 25.76V25.376C233.742 24.048 233.71 22.032 233.646 19.328C233.646 18.528 234.094 18.112 234.99 18.08ZM239.481 19.904H246.009C246.713 20.016 247.065 20.368 247.065 20.96V21.248C247.065 23.296 246.137 25.856 244.281 28.928C241.833 31.936 240.169 33.44 239.289 33.44C238.857 33.328 238.569 33.104 238.425 32.768V32.288C238.425 31.936 239.225 31.104 240.825 29.792C243.129 27.216 244.409 24.912 244.665 22.88C244.793 22.4 244.857 22.112 244.857 22.016H239.001C238.297 21.888 237.945 21.568 237.945 21.056V20.96C237.945 20.256 238.457 19.904 239.481 19.904ZM252.417 17.672C253.057 17.672 253.377 18.376 253.377 19.784C253.441 20.584 253.473 21 253.473 21.032C253.345 25.032 253.281 27.72 253.281 29.096C253.345 31.896 253.409 33.432 253.473 33.704C253.409 33.944 253.377 34.232 253.377 34.568V34.76C253.377 35.032 253.409 35.384 253.473 35.816C253.473 36.36 253.089 36.712 252.321 36.872C251.793 36.872 251.473 36.488 251.361 35.72C251.361 34.2 251.297 31.768 251.169 28.424C251.297 25.112 251.361 22.488 251.361 20.552C251.361 20.376 251.329 19.736 251.265 18.632C251.265 18.104 251.649 17.784 252.417 17.672Z" fill="white"/>
<g clip-path="url(#clip1_564_1418)">
<path d="M119.916 24.7271L101.965 16.2821C100.951 15.7891 99.7561 15.9591 98.9171 16.7131C98.0761 17.4701 97.7841 18.6461 98.1721 19.7081C98.1891 19.7511 102.583 28.0041 102.583 28.0041C102.583 28.0041 98.2701 36.2551 98.2551 36.2971C97.8681 37.3601 98.1631 38.5341 99.0041 39.2901C99.5251 39.7571 100.183 39.9981 100.845 39.9981C101.254 39.9981 101.664 39.9061 102.046 39.7191L119.918 31.2811C121.203 30.6781 122.001 29.4221 122 28.0031C122 26.5831 121.199 25.3271 119.916 24.7271ZM100.032 18.9671C99.9101 18.5521 100.17 18.2771 100.255 18.1991C100.344 18.1201 100.669 17.8751 101.093 18.0831C101.098 18.0851 119.067 26.5381 119.067 26.5381C119.306 26.6501 119.505 26.8081 119.658 27.0001H104.315L100.032 18.9671ZM119.066 29.4711L101.178 37.9171C100.753 38.1261 100.429 37.8821 100.34 37.8011C100.254 37.7251 99.9941 37.4481 100.117 37.0321L104.319 29.0001H119.664C119.511 29.1951 119.308 29.3571 119.066 29.4711Z" fill="white"/>
</g>
</g>
<defs>
<clipPath id="clip0_564_1418">
<rect width="359" height="57" fill="white"/>
</clipPath>
<clipPath id="clip1_564_1418">
<rect width="24" height="24" fill="white" transform="translate(98 16)"/>
</clipPath>
</defs>
</svg>
