<svg width="315" height="56" viewBox="0 0 315 56" fill="none" xmlns="http://www.w3.org/2000/svg">
<g clip-path="url(#clip0_575_2838)">
<mask id="path-1-inside-1_575_2838" fill="white">
<path d="M298.169 55.2144C296.867 55.2144 296.867 55.3912 295.565 55.3912C294.263 55.3912 294.263 55.401 292.962 55.401C291.66 55.401 291.66 55.1359 290.358 55.1359C289.056 55.1359 289.056 55.185 287.754 55.185C286.452 55.185 286.452 55.1163 285.151 55.1163C283.849 55.1163 283.849 55.2439 282.547 55.2439C281.245 55.2439 281.245 54.969 279.943 54.969C278.641 54.969 278.641 55.9411 277.339 55.9411C276.038 55.9411 276.038 55.892 274.736 55.892C273.434 55.892 273.434 55.0672 272.132 55.0672C270.83 55.0672 270.83 55.0868 269.528 55.0868C268.227 55.0868 268.227 55.2341 266.925 55.2341C265.623 55.2341 265.623 55.7545 264.321 55.7545C263.019 55.7545 263.019 55.1555 261.717 55.1555C260.415 55.1555 260.415 55.5778 259.114 55.5778C257.812 55.5778 257.812 55.3912 256.51 55.3912C255.208 55.3912 255.208 55.3126 253.906 55.3126C252.604 55.3126 252.604 55.5385 251.303 55.5385C250.001 55.5385 250.001 55.7349 248.699 55.7349C247.397 55.7349 247.397 55.9018 246.095 55.9018C244.793 55.9018 244.793 55.4207 243.492 55.4207C242.19 55.4207 242.19 54.969 240.888 54.969C239.586 54.969 239.586 55.6367 238.284 55.6367C236.982 55.6367 236.982 55.0377 235.68 55.0377C234.379 55.0377 234.379 55.2537 233.077 55.2537C231.775 55.2537 231.775 55.7349 230.473 55.7349C229.171 55.7349 229.171 55.892 227.869 55.892C226.568 55.892 226.568 55.1064 225.266 55.1064C223.964 55.1064 223.964 55.3323 222.662 55.3323C221.36 55.3323 221.36 55.4403 220.058 55.4403C218.756 55.4403 218.756 55.1163 217.455 55.1163C216.153 55.1163 216.153 55.1359 214.851 55.1359C213.549 55.1359 213.549 55.9705 212.247 55.9705C210.945 55.9705 210.945 55.2144 209.644 55.2144C208.342 55.2144 208.342 55.8822 207.04 55.8822C205.738 55.8822 205.738 55.1653 204.436 55.1653C203.134 55.1653 203.134 55.6661 201.832 55.6661C200.531 55.6661 200.531 55.9411 199.229 55.9411C197.927 55.9411 197.927 55.4796 196.625 55.4796C195.323 55.4796 195.323 55.9804 194.021 55.9804C192.72 55.9804 192.72 55.8625 191.418 55.8625C190.116 55.8625 190.116 55.1752 188.814 55.1752C187.512 55.1752 187.512 55.5581 186.21 55.5581C184.908 55.5581 184.908 55.1555 183.607 55.1555C182.305 55.1555 182.305 55.3617 181.003 55.3617C179.701 55.3617 179.701 55.4108 178.399 55.4108C177.097 55.4108 177.097 55.2832 175.796 55.2832C174.494 55.2832 174.494 55.0181 173.192 55.0181C171.89 55.0181 171.89 55.7349 170.588 55.7349C169.286 55.7349 169.286 55.1163 167.985 55.1163C166.683 55.1163 166.683 55.892 165.381 55.892C164.079 55.892 164.079 55.9509 162.777 55.9509C161.475 55.9509 161.475 55.6465 160.173 55.6465C158.872 55.6465 158.872 55.4698 157.57 55.4698C156.268 55.4698 156.268 55.8527 154.966 55.8527C153.664 55.8527 153.664 55.7447 152.362 55.7447C151.061 55.7447 151.061 55.3716 149.759 55.3716C148.457 55.3716 148.457 55.0966 147.155 55.0966C145.853 55.0966 145.853 55.0966 144.551 55.0966C143.249 55.0966 143.249 55.0181 141.948 55.0181C140.646 55.0181 140.646 55.9116 139.332 55.9116C138.019 55.9116 138.03 55.3617 136.729 55.3617C135.427 55.3617 135.427 55.0377 134.125 55.0377C132.823 55.0377 132.823 55.5778 131.521 55.5778C130.219 55.5778 130.219 55.9411 128.918 55.9411C127.616 55.9411 127.616 55.8723 126.314 55.8723C125.012 55.8723 125.012 55.7938 123.71 55.7938C122.408 55.7938 122.408 55.9313 121.106 55.9313C119.805 55.9313 119.805 55.3519 118.491 55.3519C117.178 55.3519 117.189 55.2832 115.887 55.2832C114.586 55.2832 114.586 55.293 113.284 55.293C111.982 55.293 111.982 55.0181 110.68 55.0181C109.378 55.0181 109.378 55.7742 108.076 55.7742C106.775 55.7742 106.775 55.0377 105.461 55.0377C104.148 55.0377 104.159 54.9886 102.857 54.9886C101.556 54.9886 101.556 55.9804 100.254 55.9804C98.9518 55.9804 98.9518 55.4698 97.65 55.4698C96.3482 55.4698 96.3481 55.8429 95.0463 55.8429C93.7445 55.8429 93.7445 55.5876 92.431 55.5876C91.1175 55.5876 91.1291 55.3323 89.8273 55.3323C88.5255 55.3323 88.5255 55.1948 87.2236 55.1948C85.9218 55.1948 85.9218 56 84.6083 56C83.2948 56 83.3064 55.9018 81.993 55.9018C80.6795 55.9018 80.6911 55.0082 79.3893 55.0082C78.0875 55.0082 78.0875 55.6563 76.774 55.6563C75.4605 55.6563 75.4721 55.3323 74.1587 55.3323C72.8452 55.3323 72.8568 55.4992 71.555 55.4992C70.2531 55.4992 70.2531 55.2243 68.9513 55.2243C67.6494 55.2243 67.6494 55.6563 66.3476 55.6563C65.0458 55.6563 65.0457 55.7643 63.7323 55.7643C62.4188 55.7643 62.4304 55.9018 61.117 55.9018C59.8035 55.9018 59.8151 55.8527 58.5133 55.8527C57.2114 55.8527 57.2114 55.892 55.9096 55.892C54.6077 55.892 54.6077 55.7349 53.2943 55.7349C51.9808 55.7349 51.9924 55.8232 50.6906 55.8232C49.3887 55.8232 49.3887 55.1555 48.0753 55.1555C46.7618 55.1555 46.7734 55.3617 45.46 55.3617C44.1465 55.3617 44.1581 55.3028 42.8446 55.3028C41.5312 55.3028 41.5428 55.4796 40.2293 55.4796C38.9159 55.4796 38.9275 55.5188 37.614 55.5188C36.3006 55.5188 36.3122 55.8331 34.9987 55.8331C33.6852 55.8331 33.6969 55.0279 32.395 55.0279C31.0932 55.0279 31.0932 55.617 29.7797 55.617C28.4662 55.617 28.4779 55.401 27.1644 55.401C25.8509 55.401 25.8509 55.0181 24.5491 55.0181C23.2472 55.0181 23.2356 55.0573 21.9338 55.0573C20.6319 55.0573 20.6203 54.9984 19.3184 54.9984C18.0166 54.9984 18.005 55.3912 16.7031 55.3912C15.843 55.3912 14.9712 55.5385 14.1576 55.4305C13.3439 55.3225 12.4954 55.0672 11.705 54.8511C10.9146 54.6351 10.3334 53.9674 9.58948 53.6433C8.84557 53.3193 8.06679 53.0935 7.39262 52.6712C6.71845 52.249 5.60258 52.2293 5.00978 51.7187C4.41697 51.2081 3.66144 50.727 3.16162 50.1476C2.66181 49.5683 2.78967 48.6256 2.40609 47.9874C2.02251 47.3491 1.13911 46.8581 0.883395 46.1708C0.627675 45.4834 1.22048 44.6291 1.09262 43.9123C0.96476 43.1955 0.650922 42.5474 0.650922 41.8208C0.650922 40.7603 1.081 40.7603 1.081 39.69C1.081 38.6197 0.488192 38.6295 0.488192 37.5592C0.488192 36.4889 0 36.4889 0 35.4284C0 34.3679 0.732288 34.3679 0.732288 33.2976C0.732288 32.2273 0.906642 32.2272 0.906642 31.1668C0.906642 30.1063 0.790406 30.0964 0.790406 29.0359C0.790406 27.9755 0.499815 27.9754 0.499815 26.9051C0.499815 25.8348 0.8369 25.8446 0.8369 24.7743C0.8369 23.704 0.0813653 23.704 0.0813653 22.6435C0.0813653 21.583 0.953136 21.5732 0.953136 20.5127C0.953136 19.4522 0.871771 19.4424 0.871771 18.3819C0.871771 17.3214 0.639299 17.3116 0.639299 16.2413C0.639299 15.171 0.29059 15.171 0.29059 14.1006C0.29059 13.374 0.999631 12.7063 1.13911 12.0091C1.2786 11.3119 1.7203 10.713 1.97601 10.0452C2.23173 9.37753 2.33635 8.69998 2.71993 8.06172C3.10351 7.42347 3.47546 6.83429 3.97528 6.26477C4.47509 5.69525 4.49834 4.7624 5.09114 4.26162C5.68395 3.76083 6.92767 3.90812 7.61347 3.48588C8.29926 3.06365 8.71771 2.36647 9.47325 2.04243C10.2288 1.7184 11.0424 1.60056 11.8561 1.38453C12.6697 1.16851 13.402 0.903384 14.2506 0.785551C15.0991 0.667719 15.8895 0.235665 16.7496 0.235665C18.0515 0.235665 18.0515 0.0196388 19.3533 0.0196388C20.6552 0.0196388 20.6552 0.746274 21.957 0.746274C23.2589 0.746274 23.2589 0.706996 24.5607 0.706996C25.8625 0.706996 25.8625 0.549886 27.1644 0.549886C28.4662 0.549886 28.4662 0.098194 29.7681 0.098194C31.0699 0.098194 31.0699 0.677538 32.3718 0.677538C33.6736 0.677538 33.6736 0.795371 34.9755 0.795371C36.2773 0.795371 36.2773 0.412415 37.5791 0.412415C38.881 0.412415 38.881 0.147291 40.1828 0.147291C41.4847 0.147291 41.4847 0.235665 42.7865 0.235665C44.0884 0.235665 44.0884 0.795371 45.3902 0.795371C46.6921 0.795371 46.6921 0.942662 47.9939 0.942662C49.2958 0.942662 49.2958 0.441873 50.5976 0.441873C51.8994 0.441873 51.8994 0.549886 53.2013 0.549886C54.5031 0.549886 54.5031 0.618622 55.805 0.618622C57.1068 0.618622 57.1068 0.363318 58.4087 0.363318C59.7105 0.363318 59.7105 0.893565 61.0124 0.893565C62.3142 0.893565 62.3142 0.510608 63.616 0.510608C64.9179 0.510608 64.9179 0.589164 66.2197 0.589164C67.5216 0.589164 67.5216 0.500789 68.8234 0.500789C70.1253 0.500789 70.1253 0.0785551 71.4271 0.0785551C72.729 0.0785551 72.729 0.549886 74.0308 0.549886C75.3326 0.549886 75.3327 0.756093 76.6345 0.756093C77.9363 0.756093 77.9363 0.697177 79.2382 0.697177C80.54 0.697177 80.54 0.108013 81.8419 0.108013C83.1437 0.108013 83.1437 0.471331 84.4456 0.471331C85.7474 0.471331 85.7474 0.638261 87.0493 0.638261C88.3511 0.638261 88.3511 0.127652 89.6529 0.127652C90.9548 0.127652 90.9548 0.0589164 92.2566 0.0589164C93.5585 0.0589164 93.5585 0.540067 94.8603 0.540067C96.1622 0.540067 96.1622 0.343679 97.464 0.343679C98.7659 0.343679 98.7659 0.854287 100.068 0.854287C101.37 0.854287 101.37 0.304401 102.671 0.304401C103.973 0.304401 103.973 0.0589164 105.275 0.0589164C106.577 0.0589164 106.577 0.598983 107.879 0.598983C109.181 0.598983 109.181 0.108013 110.482 0.108013C111.784 0.108013 111.784 0.923023 113.086 0.923023C114.388 0.923023 114.388 0.48115 115.69 0.48115C116.992 0.48115 116.992 0.304401 118.294 0.304401C119.595 0.304401 119.595 0.795371 120.897 0.795371C122.199 0.795371 122.199 0.108013 123.501 0.108013C124.803 0.108013 124.803 0.844468 126.105 0.844468C127.406 0.844468 127.406 0.873926 128.708 0.873926C130.01 0.873926 130.01 0.392776 131.312 0.392776C132.614 0.392776 132.614 0.49097 133.916 0.49097C135.218 0.49097 135.218 0.15711 136.519 0.15711C137.821 0.15711 137.821 0.176749 139.123 0.176749C140.425 0.176749 140.425 0.952481 141.727 0.952481C143.029 0.952481 143.029 0.520428 144.33 0.520428C145.632 0.520428 145.632 0.677538 146.934 0.677538C148.236 0.677538 148.236 1.00158 149.538 1.00158C150.84 1.00158 150.84 0.225846 152.141 0.225846C153.443 0.225846 153.443 0.0196388 154.745 0.0196388C156.047 0.0196388 156.047 0.382956 157.349 0.382956C158.651 0.382956 158.651 0.16693 159.953 0.16693C161.254 0.16693 161.254 0.510608 162.556 0.510608C163.858 0.510608 163.858 0.382956 165.16 0.382956C166.462 0.382956 166.462 0.363318 167.764 0.363318C169.066 0.363318 169.065 0 170.367 0C171.669 0 171.669 0.333859 172.971 0.333859C174.273 0.333859 174.273 0.706996 175.586 0.706996C176.9 0.706996 176.888 0.402595 178.19 0.402595C179.492 0.402595 179.492 0.903384 180.794 0.903384C182.096 0.903384 182.096 0.32404 183.397 0.32404C184.699 0.32404 184.699 0.265124 186.001 0.265124C187.303 0.265124 187.303 0.235665 188.605 0.235665C189.907 0.235665 189.907 0.873926 191.208 0.873926C192.51 0.873926 192.51 0.176749 193.812 0.176749C195.114 0.176749 195.114 0.0196388 196.428 0.0196388C197.741 0.0196388 197.729 0.893565 199.031 0.893565C200.333 0.893565 200.333 0.942662 201.635 0.942662C202.937 0.942662 202.937 0.864107 204.239 0.864107C205.54 0.864107 205.54 0.81501 206.842 0.81501C208.144 0.81501 208.144 0.15711 209.458 0.15711C210.771 0.15711 210.759 0.0392776 212.061 0.0392776C213.363 0.0392776 213.363 0.893565 214.665 0.893565C215.967 0.893565 215.967 0.618622 217.269 0.618622C218.57 0.618622 218.57 0.0294582 219.872 0.0294582C221.174 0.0294582 221.174 0.48115 222.488 0.48115C223.801 0.48115 223.789 0.628441 225.091 0.628441C226.393 0.628441 226.393 0 227.695 0C228.997 0 228.997 0.0392776 230.31 0.0392776C231.624 0.0392776 231.612 0.098194 232.926 0.098194C234.239 0.098194 234.227 0.235665 235.529 0.235665C236.831 0.235665 236.831 0.15711 238.145 0.15711C239.458 0.15711 239.447 0.549886 240.76 0.549886C242.073 0.549886 242.062 0.80519 243.364 0.80519C244.665 0.80519 244.665 0.245485 245.967 0.245485C247.269 0.245485 247.269 0.795371 248.571 0.795371C249.873 0.795371 249.873 0.716816 251.186 0.716816C252.5 0.716816 252.488 0.0687357 253.802 0.0687357C255.115 0.0687357 255.103 0.530247 256.405 0.530247C257.707 0.530247 257.707 0.952481 259.009 0.952481C260.311 0.952481 260.311 0.176749 261.624 0.176749C262.938 0.176749 262.926 0.245485 264.228 0.245485C265.53 0.245485 265.53 0.569525 266.843 0.569525C268.157 0.569525 268.145 0.687358 269.459 0.687358C270.772 0.687358 270.76 0.942662 272.074 0.942662C273.387 0.942662 273.376 0.363318 274.689 0.363318C276.003 0.363318 275.991 0.049097 277.305 0.049097C278.618 0.049097 278.606 0.49097 279.92 0.49097C281.233 0.49097 281.222 0.520428 282.524 0.520428C283.825 0.520428 283.825 0.765913 285.139 0.765913C286.452 0.765913 286.441 0.16693 287.754 0.16693C289.068 0.16693 289.068 0.176749 290.37 0.176749C291.671 0.176749 291.683 0.176749 292.985 0.176749C294.287 0.176749 294.298 0.314221 295.6 0.314221C296.902 0.314221 296.914 0.864107 298.216 0.864107C299.076 0.864107 299.843 1.02122 300.656 1.12923C301.47 1.23724 302.412 0.942663 303.214 1.15869C304.016 1.37471 304.783 1.69876 305.538 2.02279C306.294 2.34683 306.991 2.73961 307.677 3.16184C308.363 3.58408 309.049 3.9965 309.653 4.5071C310.258 5.0177 310.734 5.60688 311.234 6.18622C311.734 6.76556 312.059 7.41365 312.443 8.0519C312.826 8.69016 312.826 9.40698 313.082 10.0943C313.338 10.7817 314.012 11.3316 314.151 12.0386C314.291 12.7456 314.21 13.4428 314.21 14.1694C314.21 15.2299 314.744 15.2299 314.744 16.3002C314.744 17.3705 314.64 17.3607 314.64 18.431C314.64 19.5013 314.779 19.5013 314.779 20.5618C314.779 21.6223 315 21.6223 315 22.6926C315 23.7629 313.861 23.7629 313.861 24.8234C313.861 25.8839 314.105 25.8937 314.105 26.9542C314.105 28.0147 314.43 28.0147 314.43 29.085C314.43 30.1553 314.268 30.1455 314.268 31.2159C314.268 32.2862 314.349 32.2862 314.349 33.3467C314.349 34.4071 313.838 34.417 313.838 35.4775C313.838 36.538 313.791 36.5478 313.791 37.6083C313.791 38.6688 314.872 38.6786 314.872 39.7489C314.872 40.8192 314.361 40.8192 314.361 41.8895C314.361 42.6162 314.663 43.3723 314.535 44.0694C314.407 44.7666 314.024 45.4834 313.756 46.1511C313.489 46.8189 312.478 47.2313 312.106 47.8597C311.734 48.4882 311.315 49.0381 310.816 49.6076C310.316 50.1771 309.827 50.6681 309.235 51.1787C308.642 51.6893 308.712 52.8578 308.026 53.28C307.34 53.7023 306.55 54.1049 305.794 54.4289C305.039 54.7529 303.853 54.1932 303.051 54.4191C302.249 54.6449 301.528 54.861 300.691 54.9788C299.854 55.0966 299.099 55.2537 298.239 55.2537L298.169 55.2144Z"/>
</mask>
<path d="M298.169 55.2144C296.867 55.2144 296.867 55.3912 295.565 55.3912C294.263 55.3912 294.263 55.401 292.962 55.401C291.66 55.401 291.66 55.1359 290.358 55.1359C289.056 55.1359 289.056 55.185 287.754 55.185C286.452 55.185 286.452 55.1163 285.151 55.1163C283.849 55.1163 283.849 55.2439 282.547 55.2439C281.245 55.2439 281.245 54.969 279.943 54.969C278.641 54.969 278.641 55.9411 277.339 55.9411C276.038 55.9411 276.038 55.892 274.736 55.892C273.434 55.892 273.434 55.0672 272.132 55.0672C270.83 55.0672 270.83 55.0868 269.528 55.0868C268.227 55.0868 268.227 55.2341 266.925 55.2341C265.623 55.2341 265.623 55.7545 264.321 55.7545C263.019 55.7545 263.019 55.1555 261.717 55.1555C260.415 55.1555 260.415 55.5778 259.114 55.5778C257.812 55.5778 257.812 55.3912 256.51 55.3912C255.208 55.3912 255.208 55.3126 253.906 55.3126C252.604 55.3126 252.604 55.5385 251.303 55.5385C250.001 55.5385 250.001 55.7349 248.699 55.7349C247.397 55.7349 247.397 55.9018 246.095 55.9018C244.793 55.9018 244.793 55.4207 243.492 55.4207C242.19 55.4207 242.19 54.969 240.888 54.969C239.586 54.969 239.586 55.6367 238.284 55.6367C236.982 55.6367 236.982 55.0377 235.68 55.0377C234.379 55.0377 234.379 55.2537 233.077 55.2537C231.775 55.2537 231.775 55.7349 230.473 55.7349C229.171 55.7349 229.171 55.892 227.869 55.892C226.568 55.892 226.568 55.1064 225.266 55.1064C223.964 55.1064 223.964 55.3323 222.662 55.3323C221.36 55.3323 221.36 55.4403 220.058 55.4403C218.756 55.4403 218.756 55.1163 217.455 55.1163C216.153 55.1163 216.153 55.1359 214.851 55.1359C213.549 55.1359 213.549 55.9705 212.247 55.9705C210.945 55.9705 210.945 55.2144 209.644 55.2144C208.342 55.2144 208.342 55.8822 207.04 55.8822C205.738 55.8822 205.738 55.1653 204.436 55.1653C203.134 55.1653 203.134 55.6661 201.832 55.6661C200.531 55.6661 200.531 55.9411 199.229 55.9411C197.927 55.9411 197.927 55.4796 196.625 55.4796C195.323 55.4796 195.323 55.9804 194.021 55.9804C192.72 55.9804 192.72 55.8625 191.418 55.8625C190.116 55.8625 190.116 55.1752 188.814 55.1752C187.512 55.1752 187.512 55.5581 186.21 55.5581C184.908 55.5581 184.908 55.1555 183.607 55.1555C182.305 55.1555 182.305 55.3617 181.003 55.3617C179.701 55.3617 179.701 55.4108 178.399 55.4108C177.097 55.4108 177.097 55.2832 175.796 55.2832C174.494 55.2832 174.494 55.0181 173.192 55.0181C171.89 55.0181 171.89 55.7349 170.588 55.7349C169.286 55.7349 169.286 55.1163 167.985 55.1163C166.683 55.1163 166.683 55.892 165.381 55.892C164.079 55.892 164.079 55.9509 162.777 55.9509C161.475 55.9509 161.475 55.6465 160.173 55.6465C158.872 55.6465 158.872 55.4698 157.57 55.4698C156.268 55.4698 156.268 55.8527 154.966 55.8527C153.664 55.8527 153.664 55.7447 152.362 55.7447C151.061 55.7447 151.061 55.3716 149.759 55.3716C148.457 55.3716 148.457 55.0966 147.155 55.0966C145.853 55.0966 145.853 55.0966 144.551 55.0966C143.249 55.0966 143.249 55.0181 141.948 55.0181C140.646 55.0181 140.646 55.9116 139.332 55.9116C138.019 55.9116 138.03 55.3617 136.729 55.3617C135.427 55.3617 135.427 55.0377 134.125 55.0377C132.823 55.0377 132.823 55.5778 131.521 55.5778C130.219 55.5778 130.219 55.9411 128.918 55.9411C127.616 55.9411 127.616 55.8723 126.314 55.8723C125.012 55.8723 125.012 55.7938 123.71 55.7938C122.408 55.7938 122.408 55.9313 121.106 55.9313C119.805 55.9313 119.805 55.3519 118.491 55.3519C117.178 55.3519 117.189 55.2832 115.887 55.2832C114.586 55.2832 114.586 55.293 113.284 55.293C111.982 55.293 111.982 55.0181 110.68 55.0181C109.378 55.0181 109.378 55.7742 108.076 55.7742C106.775 55.7742 106.775 55.0377 105.461 55.0377C104.148 55.0377 104.159 54.9886 102.857 54.9886C101.556 54.9886 101.556 55.9804 100.254 55.9804C98.9518 55.9804 98.9518 55.4698 97.65 55.4698C96.3482 55.4698 96.3481 55.8429 95.0463 55.8429C93.7445 55.8429 93.7445 55.5876 92.431 55.5876C91.1175 55.5876 91.1291 55.3323 89.8273 55.3323C88.5255 55.3323 88.5255 55.1948 87.2236 55.1948C85.9218 55.1948 85.9218 56 84.6083 56C83.2948 56 83.3064 55.9018 81.993 55.9018C80.6795 55.9018 80.6911 55.0082 79.3893 55.0082C78.0875 55.0082 78.0875 55.6563 76.774 55.6563C75.4605 55.6563 75.4721 55.3323 74.1587 55.3323C72.8452 55.3323 72.8568 55.4992 71.555 55.4992C70.2531 55.4992 70.2531 55.2243 68.9513 55.2243C67.6494 55.2243 67.6494 55.6563 66.3476 55.6563C65.0458 55.6563 65.0457 55.7643 63.7323 55.7643C62.4188 55.7643 62.4304 55.9018 61.117 55.9018C59.8035 55.9018 59.8151 55.8527 58.5133 55.8527C57.2114 55.8527 57.2114 55.892 55.9096 55.892C54.6077 55.892 54.6077 55.7349 53.2943 55.7349C51.9808 55.7349 51.9924 55.8232 50.6906 55.8232C49.3887 55.8232 49.3887 55.1555 48.0753 55.1555C46.7618 55.1555 46.7734 55.3617 45.46 55.3617C44.1465 55.3617 44.1581 55.3028 42.8446 55.3028C41.5312 55.3028 41.5428 55.4796 40.2293 55.4796C38.9159 55.4796 38.9275 55.5188 37.614 55.5188C36.3006 55.5188 36.3122 55.8331 34.9987 55.8331C33.6852 55.8331 33.6969 55.0279 32.395 55.0279C31.0932 55.0279 31.0932 55.617 29.7797 55.617C28.4662 55.617 28.4779 55.401 27.1644 55.401C25.8509 55.401 25.8509 55.0181 24.5491 55.0181C23.2472 55.0181 23.2356 55.0573 21.9338 55.0573C20.6319 55.0573 20.6203 54.9984 19.3184 54.9984C18.0166 54.9984 18.005 55.3912 16.7031 55.3912C15.843 55.3912 14.9712 55.5385 14.1576 55.4305C13.3439 55.3225 12.4954 55.0672 11.705 54.8511C10.9146 54.6351 10.3334 53.9674 9.58948 53.6433C8.84557 53.3193 8.06679 53.0935 7.39262 52.6712C6.71845 52.249 5.60258 52.2293 5.00978 51.7187C4.41697 51.2081 3.66144 50.727 3.16162 50.1476C2.66181 49.5683 2.78967 48.6256 2.40609 47.9874C2.02251 47.3491 1.13911 46.8581 0.883395 46.1708C0.627675 45.4834 1.22048 44.6291 1.09262 43.9123C0.96476 43.1955 0.650922 42.5474 0.650922 41.8208C0.650922 40.7603 1.081 40.7603 1.081 39.69C1.081 38.6197 0.488192 38.6295 0.488192 37.5592C0.488192 36.4889 0 36.4889 0 35.4284C0 34.3679 0.732288 34.3679 0.732288 33.2976C0.732288 32.2273 0.906642 32.2272 0.906642 31.1668C0.906642 30.1063 0.790406 30.0964 0.790406 29.0359C0.790406 27.9755 0.499815 27.9754 0.499815 26.9051C0.499815 25.8348 0.8369 25.8446 0.8369 24.7743C0.8369 23.704 0.0813653 23.704 0.0813653 22.6435C0.0813653 21.583 0.953136 21.5732 0.953136 20.5127C0.953136 19.4522 0.871771 19.4424 0.871771 18.3819C0.871771 17.3214 0.639299 17.3116 0.639299 16.2413C0.639299 15.171 0.29059 15.171 0.29059 14.1006C0.29059 13.374 0.999631 12.7063 1.13911 12.0091C1.2786 11.3119 1.7203 10.713 1.97601 10.0452C2.23173 9.37753 2.33635 8.69998 2.71993 8.06172C3.10351 7.42347 3.47546 6.83429 3.97528 6.26477C4.47509 5.69525 4.49834 4.7624 5.09114 4.26162C5.68395 3.76083 6.92767 3.90812 7.61347 3.48588C8.29926 3.06365 8.71771 2.36647 9.47325 2.04243C10.2288 1.7184 11.0424 1.60056 11.8561 1.38453C12.6697 1.16851 13.402 0.903384 14.2506 0.785551C15.0991 0.667719 15.8895 0.235665 16.7496 0.235665C18.0515 0.235665 18.0515 0.0196388 19.3533 0.0196388C20.6552 0.0196388 20.6552 0.746274 21.957 0.746274C23.2589 0.746274 23.2589 0.706996 24.5607 0.706996C25.8625 0.706996 25.8625 0.549886 27.1644 0.549886C28.4662 0.549886 28.4662 0.098194 29.7681 0.098194C31.0699 0.098194 31.0699 0.677538 32.3718 0.677538C33.6736 0.677538 33.6736 0.795371 34.9755 0.795371C36.2773 0.795371 36.2773 0.412415 37.5791 0.412415C38.881 0.412415 38.881 0.147291 40.1828 0.147291C41.4847 0.147291 41.4847 0.235665 42.7865 0.235665C44.0884 0.235665 44.0884 0.795371 45.3902 0.795371C46.6921 0.795371 46.6921 0.942662 47.9939 0.942662C49.2958 0.942662 49.2958 0.441873 50.5976 0.441873C51.8994 0.441873 51.8994 0.549886 53.2013 0.549886C54.5031 0.549886 54.5031 0.618622 55.805 0.618622C57.1068 0.618622 57.1068 0.363318 58.4087 0.363318C59.7105 0.363318 59.7105 0.893565 61.0124 0.893565C62.3142 0.893565 62.3142 0.510608 63.616 0.510608C64.9179 0.510608 64.9179 0.589164 66.2197 0.589164C67.5216 0.589164 67.5216 0.500789 68.8234 0.500789C70.1253 0.500789 70.1253 0.0785551 71.4271 0.0785551C72.729 0.0785551 72.729 0.549886 74.0308 0.549886C75.3326 0.549886 75.3327 0.756093 76.6345 0.756093C77.9363 0.756093 77.9363 0.697177 79.2382 0.697177C80.54 0.697177 80.54 0.108013 81.8419 0.108013C83.1437 0.108013 83.1437 0.471331 84.4456 0.471331C85.7474 0.471331 85.7474 0.638261 87.0493 0.638261C88.3511 0.638261 88.3511 0.127652 89.6529 0.127652C90.9548 0.127652 90.9548 0.0589164 92.2566 0.0589164C93.5585 0.0589164 93.5585 0.540067 94.8603 0.540067C96.1622 0.540067 96.1622 0.343679 97.464 0.343679C98.7659 0.343679 98.7659 0.854287 100.068 0.854287C101.37 0.854287 101.37 0.304401 102.671 0.304401C103.973 0.304401 103.973 0.0589164 105.275 0.0589164C106.577 0.0589164 106.577 0.598983 107.879 0.598983C109.181 0.598983 109.181 0.108013 110.482 0.108013C111.784 0.108013 111.784 0.923023 113.086 0.923023C114.388 0.923023 114.388 0.48115 115.69 0.48115C116.992 0.48115 116.992 0.304401 118.294 0.304401C119.595 0.304401 119.595 0.795371 120.897 0.795371C122.199 0.795371 122.199 0.108013 123.501 0.108013C124.803 0.108013 124.803 0.844468 126.105 0.844468C127.406 0.844468 127.406 0.873926 128.708 0.873926C130.01 0.873926 130.01 0.392776 131.312 0.392776C132.614 0.392776 132.614 0.49097 133.916 0.49097C135.218 0.49097 135.218 0.15711 136.519 0.15711C137.821 0.15711 137.821 0.176749 139.123 0.176749C140.425 0.176749 140.425 0.952481 141.727 0.952481C143.029 0.952481 143.029 0.520428 144.33 0.520428C145.632 0.520428 145.632 0.677538 146.934 0.677538C148.236 0.677538 148.236 1.00158 149.538 1.00158C150.84 1.00158 150.84 0.225846 152.141 0.225846C153.443 0.225846 153.443 0.0196388 154.745 0.0196388C156.047 0.0196388 156.047 0.382956 157.349 0.382956C158.651 0.382956 158.651 0.16693 159.953 0.16693C161.254 0.16693 161.254 0.510608 162.556 0.510608C163.858 0.510608 163.858 0.382956 165.16 0.382956C166.462 0.382956 166.462 0.363318 167.764 0.363318C169.066 0.363318 169.065 0 170.367 0C171.669 0 171.669 0.333859 172.971 0.333859C174.273 0.333859 174.273 0.706996 175.586 0.706996C176.9 0.706996 176.888 0.402595 178.19 0.402595C179.492 0.402595 179.492 0.903384 180.794 0.903384C182.096 0.903384 182.096 0.32404 183.397 0.32404C184.699 0.32404 184.699 0.265124 186.001 0.265124C187.303 0.265124 187.303 0.235665 188.605 0.235665C189.907 0.235665 189.907 0.873926 191.208 0.873926C192.51 0.873926 192.51 0.176749 193.812 0.176749C195.114 0.176749 195.114 0.0196388 196.428 0.0196388C197.741 0.0196388 197.729 0.893565 199.031 0.893565C200.333 0.893565 200.333 0.942662 201.635 0.942662C202.937 0.942662 202.937 0.864107 204.239 0.864107C205.54 0.864107 205.54 0.81501 206.842 0.81501C208.144 0.81501 208.144 0.15711 209.458 0.15711C210.771 0.15711 210.759 0.0392776 212.061 0.0392776C213.363 0.0392776 213.363 0.893565 214.665 0.893565C215.967 0.893565 215.967 0.618622 217.269 0.618622C218.57 0.618622 218.57 0.0294582 219.872 0.0294582C221.174 0.0294582 221.174 0.48115 222.488 0.48115C223.801 0.48115 223.789 0.628441 225.091 0.628441C226.393 0.628441 226.393 0 227.695 0C228.997 0 228.997 0.0392776 230.31 0.0392776C231.624 0.0392776 231.612 0.098194 232.926 0.098194C234.239 0.098194 234.227 0.235665 235.529 0.235665C236.831 0.235665 236.831 0.15711 238.145 0.15711C239.458 0.15711 239.447 0.549886 240.76 0.549886C242.073 0.549886 242.062 0.80519 243.364 0.80519C244.665 0.80519 244.665 0.245485 245.967 0.245485C247.269 0.245485 247.269 0.795371 248.571 0.795371C249.873 0.795371 249.873 0.716816 251.186 0.716816C252.5 0.716816 252.488 0.0687357 253.802 0.0687357C255.115 0.0687357 255.103 0.530247 256.405 0.530247C257.707 0.530247 257.707 0.952481 259.009 0.952481C260.311 0.952481 260.311 0.176749 261.624 0.176749C262.938 0.176749 262.926 0.245485 264.228 0.245485C265.53 0.245485 265.53 0.569525 266.843 0.569525C268.157 0.569525 268.145 0.687358 269.459 0.687358C270.772 0.687358 270.76 0.942662 272.074 0.942662C273.387 0.942662 273.376 0.363318 274.689 0.363318C276.003 0.363318 275.991 0.049097 277.305 0.049097C278.618 0.049097 278.606 0.49097 279.92 0.49097C281.233 0.49097 281.222 0.520428 282.524 0.520428C283.825 0.520428 283.825 0.765913 285.139 0.765913C286.452 0.765913 286.441 0.16693 287.754 0.16693C289.068 0.16693 289.068 0.176749 290.37 0.176749C291.671 0.176749 291.683 0.176749 292.985 0.176749C294.287 0.176749 294.298 0.314221 295.6 0.314221C296.902 0.314221 296.914 0.864107 298.216 0.864107C299.076 0.864107 299.843 1.02122 300.656 1.12923C301.47 1.23724 302.412 0.942663 303.214 1.15869C304.016 1.37471 304.783 1.69876 305.538 2.02279C306.294 2.34683 306.991 2.73961 307.677 3.16184C308.363 3.58408 309.049 3.9965 309.653 4.5071C310.258 5.0177 310.734 5.60688 311.234 6.18622C311.734 6.76556 312.059 7.41365 312.443 8.0519C312.826 8.69016 312.826 9.40698 313.082 10.0943C313.338 10.7817 314.012 11.3316 314.151 12.0386C314.291 12.7456 314.21 13.4428 314.21 14.1694C314.21 15.2299 314.744 15.2299 314.744 16.3002C314.744 17.3705 314.64 17.3607 314.64 18.431C314.64 19.5013 314.779 19.5013 314.779 20.5618C314.779 21.6223 315 21.6223 315 22.6926C315 23.7629 313.861 23.7629 313.861 24.8234C313.861 25.8839 314.105 25.8937 314.105 26.9542C314.105 28.0147 314.43 28.0147 314.43 29.085C314.43 30.1553 314.268 30.1455 314.268 31.2159C314.268 32.2862 314.349 32.2862 314.349 33.3467C314.349 34.4071 313.838 34.417 313.838 35.4775C313.838 36.538 313.791 36.5478 313.791 37.6083C313.791 38.6688 314.872 38.6786 314.872 39.7489C314.872 40.8192 314.361 40.8192 314.361 41.8895C314.361 42.6162 314.663 43.3723 314.535 44.0694C314.407 44.7666 314.024 45.4834 313.756 46.1511C313.489 46.8189 312.478 47.2313 312.106 47.8597C311.734 48.4882 311.315 49.0381 310.816 49.6076C310.316 50.1771 309.827 50.6681 309.235 51.1787C308.642 51.6893 308.712 52.8578 308.026 53.28C307.34 53.7023 306.55 54.1049 305.794 54.4289C305.039 54.7529 303.853 54.1932 303.051 54.4191C302.249 54.6449 301.528 54.861 300.691 54.9788C299.854 55.0966 299.099 55.2537 298.239 55.2537L298.169 55.2144Z" fill="#9E4AFF" stroke="black" stroke-width="2" stroke-miterlimit="10" mask="url(#path-1-inside-1_575_2838)"/>
<mask id="path-2-inside-2_575_2838" fill="white">
<path d="M298.169 55.2144C296.867 55.2144 296.867 55.3912 295.565 55.3912C294.263 55.3912 294.263 55.401 292.962 55.401C291.66 55.401 291.66 55.1359 290.358 55.1359C289.056 55.1359 289.056 55.185 287.754 55.185C286.452 55.185 286.452 55.1163 285.151 55.1163C283.849 55.1163 283.849 55.2439 282.547 55.2439C281.245 55.2439 281.245 54.969 279.943 54.969C278.641 54.969 278.641 55.9411 277.339 55.9411C276.038 55.9411 276.038 55.892 274.736 55.892C273.434 55.892 273.434 55.0672 272.132 55.0672C270.83 55.0672 270.83 55.0868 269.528 55.0868C268.227 55.0868 268.227 55.2341 266.925 55.2341C265.623 55.2341 265.623 55.7545 264.321 55.7545C263.019 55.7545 263.019 55.1555 261.717 55.1555C260.415 55.1555 260.415 55.5778 259.114 55.5778C257.812 55.5778 257.812 55.3912 256.51 55.3912C255.208 55.3912 255.208 55.3126 253.906 55.3126C252.604 55.3126 252.604 55.5385 251.303 55.5385C250.001 55.5385 250.001 55.7349 248.699 55.7349C247.397 55.7349 247.397 55.9018 246.095 55.9018C244.793 55.9018 244.793 55.4207 243.492 55.4207C242.19 55.4207 242.19 54.969 240.888 54.969C239.586 54.969 239.586 55.6367 238.284 55.6367C236.982 55.6367 236.982 55.0377 235.68 55.0377C234.379 55.0377 234.379 55.2537 233.077 55.2537C231.775 55.2537 231.775 55.7349 230.473 55.7349C229.171 55.7349 229.171 55.892 227.869 55.892C226.568 55.892 226.568 55.1064 225.266 55.1064C223.964 55.1064 223.964 55.3323 222.662 55.3323C221.36 55.3323 221.36 55.4403 220.058 55.4403C218.756 55.4403 218.756 55.1163 217.455 55.1163C216.153 55.1163 216.153 55.1359 214.851 55.1359C213.549 55.1359 213.549 55.9705 212.247 55.9705C210.945 55.9705 210.945 55.2144 209.644 55.2144C208.342 55.2144 208.342 55.8822 207.04 55.8822C205.738 55.8822 205.738 55.1653 204.436 55.1653C203.134 55.1653 203.134 55.6661 201.832 55.6661C200.531 55.6661 200.531 55.9411 199.229 55.9411C197.927 55.9411 197.927 55.4796 196.625 55.4796C195.323 55.4796 195.323 55.9804 194.021 55.9804C192.72 55.9804 192.72 55.8625 191.418 55.8625C190.116 55.8625 190.116 55.1752 188.814 55.1752C187.512 55.1752 187.512 55.5581 186.21 55.5581C184.908 55.5581 184.908 55.1555 183.607 55.1555C182.305 55.1555 182.305 55.3617 181.003 55.3617C179.701 55.3617 179.701 55.4108 178.399 55.4108C177.097 55.4108 177.097 55.2832 175.796 55.2832C174.494 55.2832 174.494 55.0181 173.192 55.0181C171.89 55.0181 171.89 55.7349 170.588 55.7349C169.286 55.7349 169.286 55.1163 167.985 55.1163C166.683 55.1163 166.683 55.892 165.381 55.892C164.079 55.892 164.079 55.9509 162.777 55.9509C161.475 55.9509 161.475 55.6465 160.173 55.6465C158.872 55.6465 158.872 55.4698 157.57 55.4698C156.268 55.4698 156.268 55.8527 154.966 55.8527C153.664 55.8527 153.664 55.7447 152.362 55.7447C151.061 55.7447 151.061 55.3716 149.759 55.3716C148.457 55.3716 148.457 55.0966 147.155 55.0966C145.853 55.0966 145.853 55.0966 144.551 55.0966C143.249 55.0966 143.249 55.0181 141.948 55.0181C140.646 55.0181 140.646 55.9116 139.332 55.9116C138.019 55.9116 138.03 55.3617 136.729 55.3617C135.427 55.3617 135.427 55.0377 134.125 55.0377C132.823 55.0377 132.823 55.5778 131.521 55.5778C130.219 55.5778 130.219 55.9411 128.918 55.9411C127.616 55.9411 127.616 55.8723 126.314 55.8723C125.012 55.8723 125.012 55.7938 123.71 55.7938C122.408 55.7938 122.408 55.9313 121.106 55.9313C119.805 55.9313 119.805 55.3519 118.491 55.3519C117.178 55.3519 117.189 55.2832 115.887 55.2832C114.586 55.2832 114.586 55.293 113.284 55.293C111.982 55.293 111.982 55.0181 110.68 55.0181C109.378 55.0181 109.378 55.7742 108.076 55.7742C106.775 55.7742 106.775 55.0377 105.461 55.0377C104.148 55.0377 104.159 54.9886 102.857 54.9886C101.556 54.9886 101.556 55.9804 100.254 55.9804C98.9518 55.9804 98.9518 55.4698 97.65 55.4698C96.3482 55.4698 96.3481 55.8429 95.0463 55.8429C93.7445 55.8429 93.7445 55.5876 92.431 55.5876C91.1175 55.5876 91.1291 55.3323 89.8273 55.3323C88.5255 55.3323 88.5255 55.1948 87.2236 55.1948C85.9218 55.1948 85.9218 56 84.6083 56C83.2948 56 83.3064 55.9018 81.993 55.9018C80.6795 55.9018 80.6911 55.0082 79.3893 55.0082C78.0875 55.0082 78.0875 55.6563 76.774 55.6563C75.4605 55.6563 75.4721 55.3323 74.1587 55.3323C72.8452 55.3323 72.8568 55.4992 71.555 55.4992C70.2531 55.4992 70.2531 55.2243 68.9513 55.2243C67.6494 55.2243 67.6494 55.6563 66.3476 55.6563C65.0458 55.6563 65.0457 55.7643 63.7323 55.7643C62.4188 55.7643 62.4304 55.9018 61.117 55.9018C59.8035 55.9018 59.8151 55.8527 58.5133 55.8527C57.2114 55.8527 57.2114 55.892 55.9096 55.892C54.6077 55.892 54.6077 55.7349 53.2943 55.7349C51.9808 55.7349 51.9924 55.8232 50.6906 55.8232C49.3887 55.8232 49.3887 55.1555 48.0753 55.1555C46.7618 55.1555 46.7734 55.3617 45.46 55.3617C44.1465 55.3617 44.1581 55.3028 42.8446 55.3028C41.5312 55.3028 41.5428 55.4796 40.2293 55.4796C38.9159 55.4796 38.9275 55.5188 37.614 55.5188C36.3006 55.5188 36.3122 55.8331 34.9987 55.8331C33.6852 55.8331 33.6969 55.0279 32.395 55.0279C31.0932 55.0279 31.0932 55.617 29.7797 55.617C28.4662 55.617 28.4779 55.401 27.1644 55.401C25.8509 55.401 25.8509 55.0181 24.5491 55.0181C23.2472 55.0181 23.2356 55.0573 21.9338 55.0573C20.6319 55.0573 20.6203 54.9984 19.3184 54.9984C18.0166 54.9984 18.005 55.3912 16.7031 55.3912C15.843 55.3912 14.9712 55.5385 14.1576 55.4305C13.3439 55.3225 12.4954 55.0672 11.705 54.8511C10.9146 54.6351 10.3334 53.9674 9.58948 53.6433C8.84557 53.3193 8.06679 53.0935 7.39262 52.6712C6.71845 52.249 5.60258 52.2293 5.00978 51.7187C4.41697 51.2081 3.66144 50.727 3.16162 50.1476C2.66181 49.5683 2.78967 48.6256 2.40609 47.9874C2.02251 47.3491 1.13911 46.8581 0.883395 46.1708C0.627675 45.4834 1.22048 44.6291 1.09262 43.9123C0.96476 43.1955 0.650922 42.5474 0.650922 41.8208C0.650922 40.7603 1.081 40.7603 1.081 39.69C1.081 38.6197 0.488192 38.6295 0.488192 37.5592C0.488192 36.4889 0 36.4889 0 35.4284C0 34.3679 0.732288 34.3679 0.732288 33.2976C0.732288 32.2273 0.906642 32.2272 0.906642 31.1668C0.906642 30.1063 0.790406 30.0964 0.790406 29.0359C0.790406 27.9755 0.499815 27.9754 0.499815 26.9051C0.499815 25.8348 0.8369 25.8446 0.8369 24.7743C0.8369 23.704 0.0813653 23.704 0.0813653 22.6435C0.0813653 21.583 0.953136 21.5732 0.953136 20.5127C0.953136 19.4522 0.871771 19.4424 0.871771 18.3819C0.871771 17.3214 0.639299 17.3116 0.639299 16.2413C0.639299 15.171 0.29059 15.171 0.29059 14.1006C0.29059 13.374 0.999631 12.7063 1.13911 12.0091C1.2786 11.3119 1.7203 10.713 1.97601 10.0452C2.23173 9.37753 2.33635 8.69998 2.71993 8.06172C3.10351 7.42347 3.47546 6.83429 3.97528 6.26477C4.47509 5.69525 4.49834 4.7624 5.09114 4.26162C5.68395 3.76083 6.92767 3.90812 7.61347 3.48588C8.29926 3.06365 8.71771 2.36647 9.47325 2.04243C10.2288 1.7184 11.0424 1.60056 11.8561 1.38453C12.6697 1.16851 13.402 0.903384 14.2506 0.785551C15.0991 0.667719 15.8895 0.235665 16.7496 0.235665C18.0515 0.235665 18.0515 0.0196388 19.3533 0.0196388C20.6552 0.0196388 20.6552 0.746274 21.957 0.746274C23.2589 0.746274 23.2589 0.706996 24.5607 0.706996C25.8625 0.706996 25.8625 0.549886 27.1644 0.549886C28.4662 0.549886 28.4662 0.098194 29.7681 0.098194C31.0699 0.098194 31.0699 0.677538 32.3718 0.677538C33.6736 0.677538 33.6736 0.795371 34.9755 0.795371C36.2773 0.795371 36.2773 0.412415 37.5791 0.412415C38.881 0.412415 38.881 0.147291 40.1828 0.147291C41.4847 0.147291 41.4847 0.235665 42.7865 0.235665C44.0884 0.235665 44.0884 0.795371 45.3902 0.795371C46.6921 0.795371 46.6921 0.942662 47.9939 0.942662C49.2958 0.942662 49.2958 0.441873 50.5976 0.441873C51.8994 0.441873 51.8994 0.549886 53.2013 0.549886C54.5031 0.549886 54.5031 0.618622 55.805 0.618622C57.1068 0.618622 57.1068 0.363318 58.4087 0.363318C59.7105 0.363318 59.7105 0.893565 61.0124 0.893565C62.3142 0.893565 62.3142 0.510608 63.616 0.510608C64.9179 0.510608 64.9179 0.589164 66.2197 0.589164C67.5216 0.589164 67.5216 0.500789 68.8234 0.500789C70.1253 0.500789 70.1253 0.0785551 71.4271 0.0785551C72.729 0.0785551 72.729 0.549886 74.0308 0.549886C75.3326 0.549886 75.3327 0.756093 76.6345 0.756093C77.9363 0.756093 77.9363 0.697177 79.2382 0.697177C80.54 0.697177 80.54 0.108013 81.8419 0.108013C83.1437 0.108013 83.1437 0.471331 84.4456 0.471331C85.7474 0.471331 85.7474 0.638261 87.0493 0.638261C88.3511 0.638261 88.3511 0.127652 89.6529 0.127652C90.9548 0.127652 90.9548 0.0589164 92.2566 0.0589164C93.5585 0.0589164 93.5585 0.540067 94.8603 0.540067C96.1622 0.540067 96.1622 0.343679 97.464 0.343679C98.7659 0.343679 98.7659 0.854287 100.068 0.854287C101.37 0.854287 101.37 0.304401 102.671 0.304401C103.973 0.304401 103.973 0.0589164 105.275 0.0589164C106.577 0.0589164 106.577 0.598983 107.879 0.598983C109.181 0.598983 109.181 0.108013 110.482 0.108013C111.784 0.108013 111.784 0.923023 113.086 0.923023C114.388 0.923023 114.388 0.48115 115.69 0.48115C116.992 0.48115 116.992 0.304401 118.294 0.304401C119.595 0.304401 119.595 0.795371 120.897 0.795371C122.199 0.795371 122.199 0.108013 123.501 0.108013C124.803 0.108013 124.803 0.844468 126.105 0.844468C127.406 0.844468 127.406 0.873926 128.708 0.873926C130.01 0.873926 130.01 0.392776 131.312 0.392776C132.614 0.392776 132.614 0.49097 133.916 0.49097C135.218 0.49097 135.218 0.15711 136.519 0.15711C137.821 0.15711 137.821 0.176749 139.123 0.176749C140.425 0.176749 140.425 0.952481 141.727 0.952481C143.029 0.952481 143.029 0.520428 144.33 0.520428C145.632 0.520428 145.632 0.677538 146.934 0.677538C148.236 0.677538 148.236 1.00158 149.538 1.00158C150.84 1.00158 150.84 0.225846 152.141 0.225846C153.443 0.225846 153.443 0.0196388 154.745 0.0196388C156.047 0.0196388 156.047 0.382956 157.349 0.382956C158.651 0.382956 158.651 0.16693 159.953 0.16693C161.254 0.16693 161.254 0.510608 162.556 0.510608C163.858 0.510608 163.858 0.382956 165.16 0.382956C166.462 0.382956 166.462 0.363318 167.764 0.363318C169.066 0.363318 169.065 0 170.367 0C171.669 0 171.669 0.333859 172.971 0.333859C174.273 0.333859 174.273 0.706996 175.586 0.706996C176.9 0.706996 176.888 0.402595 178.19 0.402595C179.492 0.402595 179.492 0.903384 180.794 0.903384C182.096 0.903384 182.096 0.32404 183.397 0.32404C184.699 0.32404 184.699 0.265124 186.001 0.265124C187.303 0.265124 187.303 0.235665 188.605 0.235665C189.907 0.235665 189.907 0.873926 191.208 0.873926C192.51 0.873926 192.51 0.176749 193.812 0.176749C195.114 0.176749 195.114 0.0196388 196.428 0.0196388C197.741 0.0196388 197.729 0.893565 199.031 0.893565C200.333 0.893565 200.333 0.942662 201.635 0.942662C202.937 0.942662 202.937 0.864107 204.239 0.864107C205.54 0.864107 205.54 0.81501 206.842 0.81501C208.144 0.81501 208.144 0.15711 209.458 0.15711C210.771 0.15711 210.759 0.0392776 212.061 0.0392776C213.363 0.0392776 213.363 0.893565 214.665 0.893565C215.967 0.893565 215.967 0.618622 217.269 0.618622C218.57 0.618622 218.57 0.0294582 219.872 0.0294582C221.174 0.0294582 221.174 0.48115 222.488 0.48115C223.801 0.48115 223.789 0.628441 225.091 0.628441C226.393 0.628441 226.393 0 227.695 0C228.997 0 228.997 0.0392776 230.31 0.0392776C231.624 0.0392776 231.612 0.098194 232.926 0.098194C234.239 0.098194 234.227 0.235665 235.529 0.235665C236.831 0.235665 236.831 0.15711 238.145 0.15711C239.458 0.15711 239.447 0.549886 240.76 0.549886C242.073 0.549886 242.062 0.80519 243.364 0.80519C244.665 0.80519 244.665 0.245485 245.967 0.245485C247.269 0.245485 247.269 0.795371 248.571 0.795371C249.873 0.795371 249.873 0.716816 251.186 0.716816C252.5 0.716816 252.488 0.0687357 253.802 0.0687357C255.115 0.0687357 255.103 0.530247 256.405 0.530247C257.707 0.530247 257.707 0.952481 259.009 0.952481C260.311 0.952481 260.311 0.176749 261.624 0.176749C262.938 0.176749 262.926 0.245485 264.228 0.245485C265.53 0.245485 265.53 0.569525 266.843 0.569525C268.157 0.569525 268.145 0.687358 269.459 0.687358C270.772 0.687358 270.76 0.942662 272.074 0.942662C273.387 0.942662 273.376 0.363318 274.689 0.363318C276.003 0.363318 275.991 0.049097 277.305 0.049097C278.618 0.049097 278.606 0.49097 279.92 0.49097C281.233 0.49097 281.222 0.520428 282.524 0.520428C283.825 0.520428 283.825 0.765913 285.139 0.765913C286.452 0.765913 286.441 0.16693 287.754 0.16693C289.068 0.16693 289.068 0.176749 290.37 0.176749C291.671 0.176749 291.683 0.176749 292.985 0.176749C294.287 0.176749 294.298 0.314221 295.6 0.314221C296.902 0.314221 296.914 0.864107 298.216 0.864107C299.076 0.864107 299.843 1.02122 300.656 1.12923C301.47 1.23724 302.412 0.942663 303.214 1.15869C304.016 1.37471 304.783 1.69876 305.538 2.02279C306.294 2.34683 306.991 2.73961 307.677 3.16184C308.363 3.58408 309.049 3.9965 309.653 4.5071C310.258 5.0177 310.734 5.60688 311.234 6.18622C311.734 6.76556 312.059 7.41365 312.443 8.0519C312.826 8.69016 312.826 9.40698 313.082 10.0943C313.338 10.7817 314.012 11.3316 314.151 12.0386C314.291 12.7456 314.21 13.4428 314.21 14.1694C314.21 15.2299 314.744 15.2299 314.744 16.3002C314.744 17.3705 314.64 17.3607 314.64 18.431C314.64 19.5013 314.779 19.5013 314.779 20.5618C314.779 21.6223 315 21.6223 315 22.6926C315 23.7629 313.861 23.7629 313.861 24.8234C313.861 25.8839 314.105 25.8937 314.105 26.9542C314.105 28.0147 314.43 28.0147 314.43 29.085C314.43 30.1553 314.268 30.1455 314.268 31.2159C314.268 32.2862 314.349 32.2862 314.349 33.3467C314.349 34.4071 313.838 34.417 313.838 35.4775C313.838 36.538 313.791 36.5478 313.791 37.6083C313.791 38.6688 314.872 38.6786 314.872 39.7489C314.872 40.8192 314.361 40.8192 314.361 41.8895C314.361 42.6162 314.663 43.3723 314.535 44.0694C314.407 44.7666 314.024 45.4834 313.756 46.1511C313.489 46.8189 312.478 47.2313 312.106 47.8597C311.734 48.4882 311.315 49.0381 310.816 49.6076C310.316 50.1771 309.827 50.6681 309.235 51.1787C308.642 51.6893 308.712 52.8578 308.026 53.28C307.34 53.7023 306.55 54.1049 305.794 54.4289C305.039 54.7529 303.853 54.1932 303.051 54.4191C302.249 54.6449 301.528 54.861 300.691 54.9788C299.854 55.0966 299.099 55.2537 298.239 55.2537L298.169 55.2144Z"/>
</mask>
<path d="M298.169 55.2144C296.867 55.2144 296.867 55.3912 295.565 55.3912C294.263 55.3912 294.263 55.401 292.962 55.401C291.66 55.401 291.66 55.1359 290.358 55.1359C289.056 55.1359 289.056 55.185 287.754 55.185C286.452 55.185 286.452 55.1163 285.151 55.1163C283.849 55.1163 283.849 55.2439 282.547 55.2439C281.245 55.2439 281.245 54.969 279.943 54.969C278.641 54.969 278.641 55.9411 277.339 55.9411C276.038 55.9411 276.038 55.892 274.736 55.892C273.434 55.892 273.434 55.0672 272.132 55.0672C270.83 55.0672 270.83 55.0868 269.528 55.0868C268.227 55.0868 268.227 55.2341 266.925 55.2341C265.623 55.2341 265.623 55.7545 264.321 55.7545C263.019 55.7545 263.019 55.1555 261.717 55.1555C260.415 55.1555 260.415 55.5778 259.114 55.5778C257.812 55.5778 257.812 55.3912 256.51 55.3912C255.208 55.3912 255.208 55.3126 253.906 55.3126C252.604 55.3126 252.604 55.5385 251.303 55.5385C250.001 55.5385 250.001 55.7349 248.699 55.7349C247.397 55.7349 247.397 55.9018 246.095 55.9018C244.793 55.9018 244.793 55.4207 243.492 55.4207C242.19 55.4207 242.19 54.969 240.888 54.969C239.586 54.969 239.586 55.6367 238.284 55.6367C236.982 55.6367 236.982 55.0377 235.68 55.0377C234.379 55.0377 234.379 55.2537 233.077 55.2537C231.775 55.2537 231.775 55.7349 230.473 55.7349C229.171 55.7349 229.171 55.892 227.869 55.892C226.568 55.892 226.568 55.1064 225.266 55.1064C223.964 55.1064 223.964 55.3323 222.662 55.3323C221.36 55.3323 221.36 55.4403 220.058 55.4403C218.756 55.4403 218.756 55.1163 217.455 55.1163C216.153 55.1163 216.153 55.1359 214.851 55.1359C213.549 55.1359 213.549 55.9705 212.247 55.9705C210.945 55.9705 210.945 55.2144 209.644 55.2144C208.342 55.2144 208.342 55.8822 207.04 55.8822C205.738 55.8822 205.738 55.1653 204.436 55.1653C203.134 55.1653 203.134 55.6661 201.832 55.6661C200.531 55.6661 200.531 55.9411 199.229 55.9411C197.927 55.9411 197.927 55.4796 196.625 55.4796C195.323 55.4796 195.323 55.9804 194.021 55.9804C192.72 55.9804 192.72 55.8625 191.418 55.8625C190.116 55.8625 190.116 55.1752 188.814 55.1752C187.512 55.1752 187.512 55.5581 186.21 55.5581C184.908 55.5581 184.908 55.1555 183.607 55.1555C182.305 55.1555 182.305 55.3617 181.003 55.3617C179.701 55.3617 179.701 55.4108 178.399 55.4108C177.097 55.4108 177.097 55.2832 175.796 55.2832C174.494 55.2832 174.494 55.0181 173.192 55.0181C171.89 55.0181 171.89 55.7349 170.588 55.7349C169.286 55.7349 169.286 55.1163 167.985 55.1163C166.683 55.1163 166.683 55.892 165.381 55.892C164.079 55.892 164.079 55.9509 162.777 55.9509C161.475 55.9509 161.475 55.6465 160.173 55.6465C158.872 55.6465 158.872 55.4698 157.57 55.4698C156.268 55.4698 156.268 55.8527 154.966 55.8527C153.664 55.8527 153.664 55.7447 152.362 55.7447C151.061 55.7447 151.061 55.3716 149.759 55.3716C148.457 55.3716 148.457 55.0966 147.155 55.0966C145.853 55.0966 145.853 55.0966 144.551 55.0966C143.249 55.0966 143.249 55.0181 141.948 55.0181C140.646 55.0181 140.646 55.9116 139.332 55.9116C138.019 55.9116 138.03 55.3617 136.729 55.3617C135.427 55.3617 135.427 55.0377 134.125 55.0377C132.823 55.0377 132.823 55.5778 131.521 55.5778C130.219 55.5778 130.219 55.9411 128.918 55.9411C127.616 55.9411 127.616 55.8723 126.314 55.8723C125.012 55.8723 125.012 55.7938 123.71 55.7938C122.408 55.7938 122.408 55.9313 121.106 55.9313C119.805 55.9313 119.805 55.3519 118.491 55.3519C117.178 55.3519 117.189 55.2832 115.887 55.2832C114.586 55.2832 114.586 55.293 113.284 55.293C111.982 55.293 111.982 55.0181 110.68 55.0181C109.378 55.0181 109.378 55.7742 108.076 55.7742C106.775 55.7742 106.775 55.0377 105.461 55.0377C104.148 55.0377 104.159 54.9886 102.857 54.9886C101.556 54.9886 101.556 55.9804 100.254 55.9804C98.9518 55.9804 98.9518 55.4698 97.65 55.4698C96.3482 55.4698 96.3481 55.8429 95.0463 55.8429C93.7445 55.8429 93.7445 55.5876 92.431 55.5876C91.1175 55.5876 91.1291 55.3323 89.8273 55.3323C88.5255 55.3323 88.5255 55.1948 87.2236 55.1948C85.9218 55.1948 85.9218 56 84.6083 56C83.2948 56 83.3064 55.9018 81.993 55.9018C80.6795 55.9018 80.6911 55.0082 79.3893 55.0082C78.0875 55.0082 78.0875 55.6563 76.774 55.6563C75.4605 55.6563 75.4721 55.3323 74.1587 55.3323C72.8452 55.3323 72.8568 55.4992 71.555 55.4992C70.2531 55.4992 70.2531 55.2243 68.9513 55.2243C67.6494 55.2243 67.6494 55.6563 66.3476 55.6563C65.0458 55.6563 65.0457 55.7643 63.7323 55.7643C62.4188 55.7643 62.4304 55.9018 61.117 55.9018C59.8035 55.9018 59.8151 55.8527 58.5133 55.8527C57.2114 55.8527 57.2114 55.892 55.9096 55.892C54.6077 55.892 54.6077 55.7349 53.2943 55.7349C51.9808 55.7349 51.9924 55.8232 50.6906 55.8232C49.3887 55.8232 49.3887 55.1555 48.0753 55.1555C46.7618 55.1555 46.7734 55.3617 45.46 55.3617C44.1465 55.3617 44.1581 55.3028 42.8446 55.3028C41.5312 55.3028 41.5428 55.4796 40.2293 55.4796C38.9159 55.4796 38.9275 55.5188 37.614 55.5188C36.3006 55.5188 36.3122 55.8331 34.9987 55.8331C33.6852 55.8331 33.6969 55.0279 32.395 55.0279C31.0932 55.0279 31.0932 55.617 29.7797 55.617C28.4662 55.617 28.4779 55.401 27.1644 55.401C25.8509 55.401 25.8509 55.0181 24.5491 55.0181C23.2472 55.0181 23.2356 55.0573 21.9338 55.0573C20.6319 55.0573 20.6203 54.9984 19.3184 54.9984C18.0166 54.9984 18.005 55.3912 16.7031 55.3912C15.843 55.3912 14.9712 55.5385 14.1576 55.4305C13.3439 55.3225 12.4954 55.0672 11.705 54.8511C10.9146 54.6351 10.3334 53.9674 9.58948 53.6433C8.84557 53.3193 8.06679 53.0935 7.39262 52.6712C6.71845 52.249 5.60258 52.2293 5.00978 51.7187C4.41697 51.2081 3.66144 50.727 3.16162 50.1476C2.66181 49.5683 2.78967 48.6256 2.40609 47.9874C2.02251 47.3491 1.13911 46.8581 0.883395 46.1708C0.627675 45.4834 1.22048 44.6291 1.09262 43.9123C0.96476 43.1955 0.650922 42.5474 0.650922 41.8208C0.650922 40.7603 1.081 40.7603 1.081 39.69C1.081 38.6197 0.488192 38.6295 0.488192 37.5592C0.488192 36.4889 0 36.4889 0 35.4284C0 34.3679 0.732288 34.3679 0.732288 33.2976C0.732288 32.2273 0.906642 32.2272 0.906642 31.1668C0.906642 30.1063 0.790406 30.0964 0.790406 29.0359C0.790406 27.9755 0.499815 27.9754 0.499815 26.9051C0.499815 25.8348 0.8369 25.8446 0.8369 24.7743C0.8369 23.704 0.0813653 23.704 0.0813653 22.6435C0.0813653 21.583 0.953136 21.5732 0.953136 20.5127C0.953136 19.4522 0.871771 19.4424 0.871771 18.3819C0.871771 17.3214 0.639299 17.3116 0.639299 16.2413C0.639299 15.171 0.29059 15.171 0.29059 14.1006C0.29059 13.374 0.999631 12.7063 1.13911 12.0091C1.2786 11.3119 1.7203 10.713 1.97601 10.0452C2.23173 9.37753 2.33635 8.69998 2.71993 8.06172C3.10351 7.42347 3.47546 6.83429 3.97528 6.26477C4.47509 5.69525 4.49834 4.7624 5.09114 4.26162C5.68395 3.76083 6.92767 3.90812 7.61347 3.48588C8.29926 3.06365 8.71771 2.36647 9.47325 2.04243C10.2288 1.7184 11.0424 1.60056 11.8561 1.38453C12.6697 1.16851 13.402 0.903384 14.2506 0.785551C15.0991 0.667719 15.8895 0.235665 16.7496 0.235665C18.0515 0.235665 18.0515 0.0196388 19.3533 0.0196388C20.6552 0.0196388 20.6552 0.746274 21.957 0.746274C23.2589 0.746274 23.2589 0.706996 24.5607 0.706996C25.8625 0.706996 25.8625 0.549886 27.1644 0.549886C28.4662 0.549886 28.4662 0.098194 29.7681 0.098194C31.0699 0.098194 31.0699 0.677538 32.3718 0.677538C33.6736 0.677538 33.6736 0.795371 34.9755 0.795371C36.2773 0.795371 36.2773 0.412415 37.5791 0.412415C38.881 0.412415 38.881 0.147291 40.1828 0.147291C41.4847 0.147291 41.4847 0.235665 42.7865 0.235665C44.0884 0.235665 44.0884 0.795371 45.3902 0.795371C46.6921 0.795371 46.6921 0.942662 47.9939 0.942662C49.2958 0.942662 49.2958 0.441873 50.5976 0.441873C51.8994 0.441873 51.8994 0.549886 53.2013 0.549886C54.5031 0.549886 54.5031 0.618622 55.805 0.618622C57.1068 0.618622 57.1068 0.363318 58.4087 0.363318C59.7105 0.363318 59.7105 0.893565 61.0124 0.893565C62.3142 0.893565 62.3142 0.510608 63.616 0.510608C64.9179 0.510608 64.9179 0.589164 66.2197 0.589164C67.5216 0.589164 67.5216 0.500789 68.8234 0.500789C70.1253 0.500789 70.1253 0.0785551 71.4271 0.0785551C72.729 0.0785551 72.729 0.549886 74.0308 0.549886C75.3326 0.549886 75.3327 0.756093 76.6345 0.756093C77.9363 0.756093 77.9363 0.697177 79.2382 0.697177C80.54 0.697177 80.54 0.108013 81.8419 0.108013C83.1437 0.108013 83.1437 0.471331 84.4456 0.471331C85.7474 0.471331 85.7474 0.638261 87.0493 0.638261C88.3511 0.638261 88.3511 0.127652 89.6529 0.127652C90.9548 0.127652 90.9548 0.0589164 92.2566 0.0589164C93.5585 0.0589164 93.5585 0.540067 94.8603 0.540067C96.1622 0.540067 96.1622 0.343679 97.464 0.343679C98.7659 0.343679 98.7659 0.854287 100.068 0.854287C101.37 0.854287 101.37 0.304401 102.671 0.304401C103.973 0.304401 103.973 0.0589164 105.275 0.0589164C106.577 0.0589164 106.577 0.598983 107.879 0.598983C109.181 0.598983 109.181 0.108013 110.482 0.108013C111.784 0.108013 111.784 0.923023 113.086 0.923023C114.388 0.923023 114.388 0.48115 115.69 0.48115C116.992 0.48115 116.992 0.304401 118.294 0.304401C119.595 0.304401 119.595 0.795371 120.897 0.795371C122.199 0.795371 122.199 0.108013 123.501 0.108013C124.803 0.108013 124.803 0.844468 126.105 0.844468C127.406 0.844468 127.406 0.873926 128.708 0.873926C130.01 0.873926 130.01 0.392776 131.312 0.392776C132.614 0.392776 132.614 0.49097 133.916 0.49097C135.218 0.49097 135.218 0.15711 136.519 0.15711C137.821 0.15711 137.821 0.176749 139.123 0.176749C140.425 0.176749 140.425 0.952481 141.727 0.952481C143.029 0.952481 143.029 0.520428 144.33 0.520428C145.632 0.520428 145.632 0.677538 146.934 0.677538C148.236 0.677538 148.236 1.00158 149.538 1.00158C150.84 1.00158 150.84 0.225846 152.141 0.225846C153.443 0.225846 153.443 0.0196388 154.745 0.0196388C156.047 0.0196388 156.047 0.382956 157.349 0.382956C158.651 0.382956 158.651 0.16693 159.953 0.16693C161.254 0.16693 161.254 0.510608 162.556 0.510608C163.858 0.510608 163.858 0.382956 165.16 0.382956C166.462 0.382956 166.462 0.363318 167.764 0.363318C169.066 0.363318 169.065 0 170.367 0C171.669 0 171.669 0.333859 172.971 0.333859C174.273 0.333859 174.273 0.706996 175.586 0.706996C176.9 0.706996 176.888 0.402595 178.19 0.402595C179.492 0.402595 179.492 0.903384 180.794 0.903384C182.096 0.903384 182.096 0.32404 183.397 0.32404C184.699 0.32404 184.699 0.265124 186.001 0.265124C187.303 0.265124 187.303 0.235665 188.605 0.235665C189.907 0.235665 189.907 0.873926 191.208 0.873926C192.51 0.873926 192.51 0.176749 193.812 0.176749C195.114 0.176749 195.114 0.0196388 196.428 0.0196388C197.741 0.0196388 197.729 0.893565 199.031 0.893565C200.333 0.893565 200.333 0.942662 201.635 0.942662C202.937 0.942662 202.937 0.864107 204.239 0.864107C205.54 0.864107 205.54 0.81501 206.842 0.81501C208.144 0.81501 208.144 0.15711 209.458 0.15711C210.771 0.15711 210.759 0.0392776 212.061 0.0392776C213.363 0.0392776 213.363 0.893565 214.665 0.893565C215.967 0.893565 215.967 0.618622 217.269 0.618622C218.57 0.618622 218.57 0.0294582 219.872 0.0294582C221.174 0.0294582 221.174 0.48115 222.488 0.48115C223.801 0.48115 223.789 0.628441 225.091 0.628441C226.393 0.628441 226.393 0 227.695 0C228.997 0 228.997 0.0392776 230.31 0.0392776C231.624 0.0392776 231.612 0.098194 232.926 0.098194C234.239 0.098194 234.227 0.235665 235.529 0.235665C236.831 0.235665 236.831 0.15711 238.145 0.15711C239.458 0.15711 239.447 0.549886 240.76 0.549886C242.073 0.549886 242.062 0.80519 243.364 0.80519C244.665 0.80519 244.665 0.245485 245.967 0.245485C247.269 0.245485 247.269 0.795371 248.571 0.795371C249.873 0.795371 249.873 0.716816 251.186 0.716816C252.5 0.716816 252.488 0.0687357 253.802 0.0687357C255.115 0.0687357 255.103 0.530247 256.405 0.530247C257.707 0.530247 257.707 0.952481 259.009 0.952481C260.311 0.952481 260.311 0.176749 261.624 0.176749C262.938 0.176749 262.926 0.245485 264.228 0.245485C265.53 0.245485 265.53 0.569525 266.843 0.569525C268.157 0.569525 268.145 0.687358 269.459 0.687358C270.772 0.687358 270.76 0.942662 272.074 0.942662C273.387 0.942662 273.376 0.363318 274.689 0.363318C276.003 0.363318 275.991 0.049097 277.305 0.049097C278.618 0.049097 278.606 0.49097 279.92 0.49097C281.233 0.49097 281.222 0.520428 282.524 0.520428C283.825 0.520428 283.825 0.765913 285.139 0.765913C286.452 0.765913 286.441 0.16693 287.754 0.16693C289.068 0.16693 289.068 0.176749 290.37 0.176749C291.671 0.176749 291.683 0.176749 292.985 0.176749C294.287 0.176749 294.298 0.314221 295.6 0.314221C296.902 0.314221 296.914 0.864107 298.216 0.864107C299.076 0.864107 299.843 1.02122 300.656 1.12923C301.47 1.23724 302.412 0.942663 303.214 1.15869C304.016 1.37471 304.783 1.69876 305.538 2.02279C306.294 2.34683 306.991 2.73961 307.677 3.16184C308.363 3.58408 309.049 3.9965 309.653 4.5071C310.258 5.0177 310.734 5.60688 311.234 6.18622C311.734 6.76556 312.059 7.41365 312.443 8.0519C312.826 8.69016 312.826 9.40698 313.082 10.0943C313.338 10.7817 314.012 11.3316 314.151 12.0386C314.291 12.7456 314.21 13.4428 314.21 14.1694C314.21 15.2299 314.744 15.2299 314.744 16.3002C314.744 17.3705 314.64 17.3607 314.64 18.431C314.64 19.5013 314.779 19.5013 314.779 20.5618C314.779 21.6223 315 21.6223 315 22.6926C315 23.7629 313.861 23.7629 313.861 24.8234C313.861 25.8839 314.105 25.8937 314.105 26.9542C314.105 28.0147 314.43 28.0147 314.43 29.085C314.43 30.1553 314.268 30.1455 314.268 31.2159C314.268 32.2862 314.349 32.2862 314.349 33.3467C314.349 34.4071 313.838 34.417 313.838 35.4775C313.838 36.538 313.791 36.5478 313.791 37.6083C313.791 38.6688 314.872 38.6786 314.872 39.7489C314.872 40.8192 314.361 40.8192 314.361 41.8895C314.361 42.6162 314.663 43.3723 314.535 44.0694C314.407 44.7666 314.024 45.4834 313.756 46.1511C313.489 46.8189 312.478 47.2313 312.106 47.8597C311.734 48.4882 311.315 49.0381 310.816 49.6076C310.316 50.1771 309.827 50.6681 309.235 51.1787C308.642 51.6893 308.712 52.8578 308.026 53.28C307.34 53.7023 306.55 54.1049 305.794 54.4289C305.039 54.7529 303.853 54.1932 303.051 54.4191C302.249 54.6449 301.528 54.861 300.691 54.9788C299.854 55.0966 299.099 55.2537 298.239 55.2537L298.169 55.2144Z" fill="#9E4AFF" stroke="black" stroke-width="2" stroke-miterlimit="10" mask="url(#path-2-inside-2_575_2838)"/>
<path d="M74.0579 21.426C74.5859 21.426 74.8499 22.002 74.8499 23.154C74.8979 24.75 74.9219 26.142 74.9219 27.33V29.346C76.3259 29.346 78.1979 29.202 80.5379 28.914C80.7179 28.914 80.9339 29.082 81.1859 29.418V29.778C81.1859 30.402 80.2259 30.714 78.3059 30.714C77.2979 30.81 76.1219 30.882 74.7779 30.93C73.8659 30.93 73.4099 30.474 73.4099 29.562C73.3619 28.506 73.3139 26.01 73.2659 22.074C73.4219 21.642 73.6859 21.426 74.0579 21.426ZM85.6679 20.31C86.0519 20.49 86.2439 20.73 86.2439 21.03C86.2439 22.134 86.2679 24.054 86.3159 26.79C86.3159 26.982 86.2919 27.414 86.2439 28.086C86.3399 29.658 86.3879 31.602 86.3879 33.918C86.3879 34.29 86.1239 34.554 85.5959 34.71C85.1519 34.71 84.8879 34.374 84.8039 33.702V33.342C84.8039 31.95 84.7799 30.03 84.7319 27.582H83.2199V31.47C83.2199 31.914 83.2439 32.538 83.2919 33.342C83.0999 33.822 82.8359 34.062 82.4999 34.062C81.9719 34.062 81.7079 33.558 81.7079 32.55C81.6599 32.034 81.6359 31.218 81.6359 30.102C81.6359 29.574 81.6599 29.238 81.7079 29.094C81.6599 28.446 81.6359 27.894 81.6359 27.438V21.462C81.6359 20.838 81.8999 20.526 82.4279 20.526C82.9559 20.61 83.2199 20.874 83.2199 21.318V25.998H83.2919C83.4239 25.998 83.9039 26.022 84.7319 26.07V25.782C84.7319 24.786 84.7079 23.274 84.6599 21.246C84.6599 20.646 84.9959 20.334 85.6679 20.31ZM99.1962 20.922H99.3402C99.7602 20.922 100 21.234 100.06 21.858V22.506C100.216 22.506 100.624 22.53 101.284 22.578C101.464 22.578 102.136 22.554 103.3 22.506C104.164 22.506 104.596 22.746 104.596 23.226V23.442C104.596 23.874 104.332 24.09 103.804 24.09H100.06V24.162C100.06 25.122 100.78 26.13 102.22 27.186C103.996 27.882 104.884 28.362 104.884 28.626C104.884 28.65 104.908 28.746 104.956 28.914C104.836 29.394 104.572 29.634 104.164 29.634C102.544 29.202 101.224 28.506 100.204 27.546C99.6042 27.006 99.2922 26.622 99.2682 26.394C98.1402 27.906 96.4842 28.986 94.3002 29.634C93.9042 29.634 93.6642 29.346 93.5802 28.77C93.5802 28.398 94.3482 27.918 95.8842 27.33C97.5642 26.226 98.4042 25.194 98.4042 24.234V24.09C98.0922 24.09 96.8442 24.114 94.6602 24.162C94.3122 24.162 94.0962 23.874 94.0122 23.298V23.226C94.2042 22.794 94.5402 22.578 95.0202 22.578H95.8122C96.3762 22.578 97.2642 22.554 98.4762 22.506V21.786C98.5242 21.21 98.7642 20.922 99.1962 20.922ZM99.3042 28.86C99.7842 28.98 100.024 29.244 100.024 29.652L100.042 32.262H103.282C103.558 32.262 103.942 32.286 104.434 32.334C104.518 32.286 104.638 32.262 104.794 32.262C105.274 32.394 105.514 32.634 105.514 32.982V33.126C105.406 33.606 105.166 33.846 104.794 33.846C99.1542 33.798 95.4822 33.774 93.7782 33.774C93.1062 33.774 92.7702 33.534 92.7702 33.054V32.91C92.7702 32.526 93.0342 32.286 93.5622 32.19H98.4582C98.4582 32.094 98.4642 31.638 98.4762 30.822C98.4522 30.186 98.4402 29.796 98.4402 29.652C98.4402 29.256 98.7282 28.992 99.3042 28.86ZM117.051 19.986C117.591 19.986 117.951 20.418 118.131 21.282C117.987 23.874 117.915 25.434 117.915 25.962C117.915 26.358 117.651 26.598 117.123 26.682C116.739 26.682 116.499 26.418 116.403 25.89V24.306C112.827 24.354 110.475 24.402 109.347 24.45C108.939 24.45 108.675 24.162 108.555 23.586C108.555 23.25 108.795 23.01 109.275 22.866C110.847 22.818 112.071 22.794 112.947 22.794H116.403C116.499 22.794 116.547 22.746 116.547 22.65V21.57H111.651C111.351 21.57 110.991 21.594 110.571 21.642C109.323 21.642 108.699 21.402 108.699 20.922V20.562C108.867 20.226 109.107 20.058 109.419 20.058C111.315 20.058 113.859 20.034 117.051 19.986ZM113.163 24.594H113.523C113.859 24.786 114.027 25.074 114.027 25.458V26.682H114.603C115.323 26.682 116.499 26.73 118.131 26.826L118.851 26.754C119.283 26.898 119.499 27.138 119.499 27.474V27.618C119.391 28.098 119.151 28.338 118.779 28.338C118.311 28.338 115.815 28.29 111.291 28.194C109.371 28.242 108.267 28.266 107.979 28.266C107.259 28.182 106.899 27.918 106.899 27.474V27.402C106.995 26.922 107.235 26.682 107.619 26.682C108.495 26.682 110.127 26.658 112.515 26.61L112.443 26.466V25.89C112.443 25.026 112.683 24.594 113.163 24.594ZM109.113 29.13H113.937C116.433 29.13 117.681 29.25 117.681 29.49C117.825 29.862 117.897 30.462 117.897 31.29C117.897 32.442 117.393 33.018 116.385 33.018C115.209 33.066 113.049 33.114 109.905 33.162V33.99H113.145C113.985 33.99 114.849 34.014 115.737 34.062C115.953 34.014 116.481 33.99 117.321 33.99C117.777 33.99 118.017 34.302 118.041 34.926C117.897 35.358 117.585 35.574 117.105 35.574H109.257C108.633 35.466 108.321 35.226 108.321 34.854L108.393 34.35V34.206C108.393 33.978 108.369 33.678 108.321 33.306C108.321 32.154 108.729 31.578 109.545 31.578C109.737 31.578 109.833 31.602 109.833 31.65C109.881 31.65 110.073 31.626 110.409 31.578C113.457 31.53 115.257 31.506 115.809 31.506L116.313 31.434V30.714C114.093 30.666 112.365 30.642 111.129 30.642H109.329C109.221 30.642 109.125 30.666 109.041 30.714C108.717 30.714 108.453 30.522 108.249 30.138V29.85C108.249 29.418 108.537 29.178 109.113 29.13ZM126.072 21.21C126.792 21.342 127.152 21.678 127.152 22.218C127.152 24.33 126.936 25.386 126.504 25.386C126.504 25.494 126.312 25.59 125.928 25.674C124.512 25.722 123.36 25.746 122.472 25.746V27.15H122.616C123.576 27.15 125.082 27.132 127.134 27.096C127.518 27.3 127.71 27.54 127.71 27.816C127.71 28.392 127.086 28.68 125.838 28.68C124.65 28.716 123.336 28.734 121.896 28.734C121.272 28.614 120.96 28.35 120.96 27.942C120.912 26.37 120.888 25.302 120.888 24.738C121.032 24.354 121.32 24.162 121.752 24.162H124.416C124.656 24.162 125.016 24.138 125.496 24.09V24.018C125.544 23.274 125.568 22.866 125.568 22.794H125.496C124.968 22.842 124.512 22.866 124.128 22.866H121.824C121.248 22.818 120.96 22.578 120.96 22.146V22.002C120.96 21.57 121.248 21.33 121.824 21.282H125.064C125.328 21.282 125.664 21.258 126.072 21.21ZM130.914 20.418H131.058C131.478 20.418 131.718 20.73 131.778 21.354V23.37C131.778 24.57 131.802 26.274 131.85 28.482C131.766 28.698 131.598 28.89 131.346 29.058H130.842C130.41 29.058 130.194 27.954 130.194 25.746V24.45L130.266 24.018C130.218 23.706 130.194 23.394 130.194 23.082V21.282C130.242 20.706 130.482 20.418 130.914 20.418ZM127.044 29.454C127.536 29.454 127.848 29.904 127.98 30.804C128.448 32.076 129.552 33.126 131.292 33.954C132.06 34.062 132.444 34.386 132.444 34.926C132.324 35.43 132.06 35.682 131.652 35.682C130.68 35.682 129.336 34.878 127.62 33.27C127.236 32.79 127.044 32.49 127.044 32.37H126.972C126.204 33.726 124.788 34.806 122.724 35.61C122.652 35.658 122.508 35.682 122.292 35.682C121.968 35.682 121.752 35.43 121.644 34.926V34.854C121.644 34.386 122.196 33.984 123.3 33.648C124.836 32.676 125.772 31.704 126.108 30.732C126.276 29.88 126.588 29.454 127.044 29.454ZM149.322 21.75H149.466C149.886 21.75 150.126 22.062 150.186 22.686C150.234 25.206 150.258 27.126 150.258 28.446C150.042 29.022 149.658 29.31 149.106 29.31H147.81C146.622 29.31 145.446 29.334 144.282 29.382C143.79 29.334 142.926 29.31 141.69 29.31C141.018 29.31 140.682 28.71 140.682 27.51C140.634 27.018 140.61 26.634 140.61 26.358C140.658 25.05 140.682 23.802 140.682 22.614C140.766 22.086 141.006 21.822 141.402 21.822H141.546C142.026 21.822 142.266 22.182 142.266 22.902C142.266 22.986 142.242 23.418 142.194 24.198L143.058 24.27H143.778C144.462 24.27 144.966 24.294 145.29 24.342C145.71 24.294 146.238 24.27 146.874 24.27H148.602V22.614C148.65 22.038 148.89 21.75 149.322 21.75ZM142.194 25.782V27.366L142.266 27.726C143.298 27.774 144.066 27.798 144.57 27.798H146.73C147.138 27.798 147.786 27.774 148.674 27.726V25.854H143.778C143.442 25.854 142.914 25.83 142.194 25.782ZM145.362 28.86C145.842 28.98 146.082 29.244 146.082 29.652L146.1 32.262H149.34C149.616 32.262 150 32.286 150.492 32.334C150.576 32.286 150.696 32.262 150.852 32.262C151.332 32.394 151.572 32.634 151.572 32.982V33.126C151.464 33.606 151.224 33.846 150.852 33.846C145.212 33.798 141.54 33.774 139.836 33.774C139.164 33.774 138.828 33.534 138.828 33.054V32.91C138.828 32.526 139.092 32.286 139.62 32.19H144.516C144.516 32.094 144.522 31.638 144.534 30.822C144.51 30.186 144.498 29.796 144.498 29.652C144.498 29.256 144.786 28.992 145.362 28.86ZM154.145 20.652H159.617C160.193 20.784 160.481 21.048 160.481 21.444C160.253 24.42 159.869 25.908 159.329 25.908H158.969C158.609 25.908 158.393 25.668 158.321 25.188V25.116C158.657 23.868 158.825 22.956 158.825 22.38V22.236H158.681C158.093 22.236 157.733 22.212 157.601 22.164C157.073 22.212 156.593 22.236 156.161 22.236H154.145C153.617 22.14 153.353 21.9 153.353 21.516V21.372C153.353 20.988 153.617 20.748 154.145 20.652ZM162.893 20.058C163.373 20.178 163.613 20.442 163.613 20.85V23.658C163.625 23.754 163.673 23.802 163.757 23.802H164.981C165.509 23.802 165.773 24.114 165.773 24.738C165.629 25.17 165.317 25.386 164.837 25.386H163.973L163.613 25.314C163.661 26.526 163.685 27.486 163.685 28.194V28.338C163.601 29.01 163.337 29.346 162.893 29.346C162.365 29.214 162.101 28.95 162.101 28.554C162.053 25.578 162.029 23.898 162.029 23.514C162.077 22.014 162.101 21.054 162.101 20.634C162.293 20.25 162.557 20.058 162.893 20.058ZM157.349 24.81C157.877 24.81 158.141 25.434 158.141 26.682V26.754C159.137 26.706 160.241 26.61 161.453 26.466C161.861 26.466 162.125 26.754 162.245 27.33C162.245 27.906 161.381 28.194 159.653 28.194C158.693 28.29 156.701 28.386 153.677 28.482C153.281 28.482 153.041 28.218 152.957 27.69C152.957 27.162 153.557 26.898 154.757 26.898C155.045 26.85 155.645 26.826 156.557 26.826V26.178C156.557 26.01 156.533 25.794 156.485 25.53C156.485 25.134 156.773 24.894 157.349 24.81ZM154.793 29.724C155.369 29.724 155.657 30.804 155.657 32.964V33.756H159.473C160.337 33.756 161.513 33.732 163.001 33.684C163.481 33.816 163.721 34.056 163.721 34.404V34.548C163.721 34.872 163.505 35.112 163.073 35.268C161.009 35.316 159.425 35.34 158.321 35.34H155.009C154.385 35.34 154.073 34.836 154.073 33.828C154.073 32.388 154.049 31.236 154.001 30.372C154.157 29.94 154.421 29.724 154.793 29.724ZM171.404 19.482H171.476C172.004 19.482 172.268 19.866 172.268 20.634V21.354C172.832 21.402 173.24 21.426 173.492 21.426H174.428C175.292 21.426 175.724 21.714 175.724 22.29C175.724 22.59 175.508 22.83 175.076 23.01C173.636 22.962 172.796 22.938 172.556 22.938C171.752 22.938 170.168 22.986 167.804 23.082C167.372 22.926 167.156 22.662 167.156 22.29C167.156 21.714 168.02 21.426 169.748 21.426H170.684V20.202C170.78 19.722 171.02 19.482 171.404 19.482ZM171.26 23.154C173.012 23.154 174.212 23.922 174.86 25.458L174.932 25.89V26.394C174.932 27.378 174.236 28.122 172.844 28.626C172.364 28.722 171.932 28.77 171.548 28.77H171.044C169.604 28.77 168.668 27.954 168.236 26.322C168.236 26.214 168.212 26.118 168.164 26.034C168.164 24.594 169.196 23.634 171.26 23.154ZM169.748 26.034C169.748 26.706 170.3 27.114 171.404 27.258C172.748 27.162 173.42 26.778 173.42 26.106C173.192 25.266 172.544 24.81 171.476 24.738H171.26C170.252 25.05 169.748 25.482 169.748 26.034ZM178.19 20.4C178.49 20.4 178.73 20.616 178.91 21.048C178.958 22.224 178.982 23.16 178.982 23.856V23.928H180.566C181.034 23.928 181.298 24.216 181.358 24.792C181.19 25.224 180.95 25.44 180.638 25.44H178.91V25.512C178.91 25.8 178.934 25.944 178.982 25.944L178.91 26.664V28.176C178.91 28.284 178.934 28.38 178.982 28.464C178.85 29.04 178.562 29.328 178.118 29.328C177.638 29.196 177.398 28.932 177.398 28.536V22.992C177.398 22.512 177.374 21.936 177.326 21.264C177.458 20.688 177.746 20.4 178.19 20.4ZM170.81 29.652H171.746C173.318 29.652 175.502 29.676 178.298 29.724C178.874 29.724 179.162 30.864 179.162 33.144C179.21 33.144 179.234 33.408 179.234 33.936C179.234 35.088 178.922 35.664 178.298 35.664H176.858C175.682 35.664 174.674 35.688 173.834 35.736C173.342 35.688 172.478 35.664 171.242 35.664C170.33 35.664 169.874 35.376 169.874 34.8V34.152C169.874 33.9 169.85 33.684 169.802 33.504C169.85 33.252 169.874 32.712 169.874 31.884V30.588C170.03 29.964 170.342 29.652 170.81 29.652ZM171.458 31.236C171.41 32.628 171.386 33.528 171.386 33.936L171.458 34.08C171.794 34.08 172.442 34.104 173.402 34.152C175.574 34.104 176.99 34.08 177.65 34.08V34.008C177.65 33.396 177.602 32.496 177.506 31.308C177.05 31.308 175.538 31.26 172.97 31.164C172.25 31.212 171.746 31.236 171.458 31.236ZM189.224 21.75C190.976 21.75 192.512 22.35 193.832 23.55C194.312 24.294 194.552 25.23 194.552 26.358C194.552 27.762 193.52 28.914 191.456 29.814C190.616 29.958 189.968 30.03 189.512 30.03H189.08C187.448 30.03 186.08 29.43 184.976 28.23C184.448 27.498 184.184 26.706 184.184 25.854C184.184 24.606 184.808 23.526 186.056 22.614C187.208 22.074 188.264 21.786 189.224 21.75ZM185.768 25.782V25.926C185.768 27.258 186.728 28.098 188.648 28.446H189.584C191.204 28.446 192.308 27.87 192.896 26.718C192.944 26.634 192.968 26.538 192.968 26.43V26.286C192.968 25.002 192.584 24.234 191.816 23.982C191 23.55 190.064 23.334 189.008 23.334C187.976 23.334 187.04 23.742 186.2 24.558C185.912 25.11 185.768 25.518 185.768 25.782ZM184.184 32.28H185.624C187.808 32.28 190.592 32.304 193.976 32.352C194.312 32.304 194.6 32.28 194.84 32.28C195.32 32.424 195.56 32.688 195.56 33.072C195.476 33.6 195.212 33.864 194.768 33.864H183.608C183.032 33.816 182.744 33.552 182.744 33.072C182.744 32.544 183.224 32.28 184.184 32.28ZM205.458 21.408C206.994 21.408 207.762 21.624 207.762 22.056C207.81 22.248 207.834 22.416 207.834 22.56C207.834 23.268 207.858 24.084 207.906 25.008C207.906 25.968 207.642 26.448 207.114 26.448H203.442C202.71 26.448 201.582 26.472 200.058 26.52V28.392C202.158 28.344 203.526 28.296 204.162 28.248C204.21 28.248 204.282 28.272 204.378 28.32C204.87 28.272 205.254 28.248 205.53 28.248H207.618C208.146 28.248 208.41 28.56 208.41 29.184C208.23 29.616 207.87 29.832 207.33 29.832C205.866 29.832 203.586 29.856 200.49 29.904L199.986 29.976C199.026 29.892 198.546 29.58 198.546 29.04V25.728C198.63 25.2 198.894 24.936 199.338 24.936H199.482C200.946 24.936 203.226 24.912 206.322 24.864V23.856L206.25 22.992H199.698L199.266 23.064C198.858 23.064 198.594 22.776 198.474 22.2C198.474 21.78 198.786 21.54 199.41 21.48C200.634 21.48 202.65 21.456 205.458 21.408ZM203.478 28.86C203.958 28.98 204.198 29.244 204.198 29.652L204.216 32.262H207.456C207.732 32.262 208.116 32.286 208.608 32.334C208.692 32.286 208.812 32.262 208.968 32.262C209.448 32.394 209.688 32.634 209.688 32.982V33.126C209.58 33.606 209.34 33.846 208.968 33.846C203.328 33.798 199.656 33.774 197.952 33.774C197.28 33.774 196.944 33.534 196.944 33.054V32.91C196.944 32.526 197.208 32.286 197.736 32.19H202.632C202.632 32.094 202.638 31.638 202.65 30.822C202.626 30.186 202.614 29.796 202.614 29.652C202.614 29.256 202.902 28.992 203.478 28.86ZM217.213 21.678H222.109C222.637 21.762 222.901 22.026 222.901 22.47V22.686C222.901 24.222 222.205 26.142 220.813 28.446C218.977 30.702 217.729 31.83 217.069 31.83C216.745 31.746 216.529 31.578 216.421 31.326V30.966C216.421 30.702 217.021 30.078 218.221 29.094C219.949 27.162 220.909 25.434 221.101 23.91C221.197 23.55 221.245 23.334 221.245 23.262H216.853C216.325 23.166 216.061 22.926 216.061 22.542V22.47C216.061 21.942 216.445 21.678 217.213 21.678ZM226.447 20.184C226.783 20.184 227.023 20.4 227.167 20.832C227.167 21.096 227.143 21.36 227.095 21.624C227.143 22.86 227.167 23.916 227.167 24.792V25.728H229.183C229.519 25.896 229.687 26.136 229.687 26.448C229.687 27.024 229.279 27.312 228.463 27.312H227.167V31.416C227.167 32.04 227.191 32.856 227.239 33.864C227.107 34.344 226.867 34.584 226.519 34.584H226.375C225.895 34.488 225.655 34.248 225.655 33.864C225.655 33.132 225.631 32.292 225.583 31.344C225.583 30.792 225.607 29.712 225.655 28.104C225.607 25.392 225.583 23.04 225.583 21.048C225.703 20.472 225.991 20.184 226.447 20.184ZM232.239 21.678H237.135C237.663 21.762 237.927 22.026 237.927 22.47V22.686C237.927 24.222 237.231 26.142 235.839 28.446C234.003 30.702 232.755 31.83 232.095 31.83C231.771 31.746 231.555 31.578 231.447 31.326V30.966C231.447 30.702 232.047 30.078 233.247 29.094C234.975 27.162 235.935 25.434 236.127 23.91C236.223 23.55 236.271 23.334 236.271 23.262H231.879C231.351 23.166 231.087 22.926 231.087 22.542V22.47C231.087 21.942 231.471 21.678 232.239 21.678ZM241.941 20.004C242.421 20.004 242.661 20.532 242.661 21.588C242.709 22.188 242.733 22.5 242.733 22.524C242.637 25.524 242.589 27.54 242.589 28.572C242.637 30.672 242.685 31.824 242.733 32.028C242.685 32.208 242.661 32.424 242.661 32.676V32.82C242.661 33.024 242.685 33.288 242.733 33.612C242.733 34.02 242.445 34.284 241.869 34.404C241.473 34.404 241.233 34.116 241.149 33.54C241.149 32.4 241.101 30.576 241.005 28.068C241.101 25.584 241.149 23.616 241.149 22.164C241.149 22.032 241.125 21.552 241.077 20.724C241.077 20.328 241.365 20.088 241.941 20.004Z" fill="white"/>
</g>
<defs>
<clipPath id="clip0_575_2838">
<rect width="315" height="56" fill="white"/>
</clipPath>
</defs>
</svg>
