<svg width="184" height="45" viewBox="0 0 184 45" fill="none" xmlns="http://www.w3.org/2000/svg">
<g clip-path="url(#clip0_269_1666)">
<path d="M178 0H6C2.68629 0 0 2.68629 0 6V39C0 42.3137 2.68629 45 6 45H178C181.314 45 184 42.3137 184 39V6C184 2.68629 181.314 0 178 0Z" fill="#FEE500"/>
<mask id="mask0_269_1666" style="mask-type:luminance" maskUnits="userSpaceOnUse" x="38" y="13" width="18" height="19">
<path d="M55.9999 13.5H38V31.5H55.9999V13.5Z" fill="white"/>
</mask>
<g mask="url(#mask0_269_1666)">
<path fill-rule="evenodd" clip-rule="evenodd" d="M47 14.1C42.0292 14.1 38 17.2129 38 21.0523C38 23.44 39.5584 25.5449 41.9315 26.7969L40.933 30.4445C40.8448 30.7668 41.2134 31.0237 41.4965 30.8369L45.8733 27.9482C46.2427 27.9838 46.6181 28.0046 47 28.0046C51.9705 28.0046 55.9999 24.8918 55.9999 21.0523C55.9999 17.2129 51.9705 14.1 47 14.1Z" fill="black"/>
</g>
<path d="M71.2149 16.215C71.1999 20.79 69.1149 23.85 65.2899 25.86L64.2999 24.75C66.2349 23.865 67.8549 22.44 68.7699 20.595L64.8549 21.015L64.6149 19.68L69.2799 19.335C69.4449 18.735 69.5649 18.12 69.6099 17.46H65.2899V16.215H71.2149ZM74.8299 14.82V20.04H76.8999V21.315H74.8299V28.185H73.2849V14.82H74.8299ZM84.1934 16.215C84.1784 20.79 82.0934 23.85 78.2684 25.86L77.2784 24.75C79.2134 23.865 80.8334 22.44 81.7484 20.595L77.8334 21.015L77.5934 19.68L82.2584 19.335C82.4234 18.735 82.5434 18.12 82.5884 17.46H78.2684V16.215H84.1934ZM87.8084 14.82V20.04H89.8784V21.315H87.8084V28.185H86.2634V14.82H87.8084ZM102.482 26.475H90.4069V25.245H95.6569V22.965C93.1819 22.725 91.6069 21.315 91.6069 19.32C91.6069 17.115 93.5419 15.645 96.4369 15.645C99.3769 15.645 101.297 17.115 101.297 19.32C101.297 21.33 99.6919 22.74 97.1869 22.98V25.245H102.482V26.475ZM99.7519 19.335C99.7519 17.91 98.4469 16.905 96.4369 16.905C94.4719 16.905 93.1519 17.91 93.1519 19.335C93.1519 20.745 94.4719 21.705 96.4369 21.705C98.4319 21.705 99.7519 20.745 99.7519 19.335ZM118.231 23.025H114.106V25.26H119.401V26.49H107.326V25.26H112.576V23.025H108.871V18.705H116.311V16.98H108.826V15.75H117.841V19.95H110.416V21.78H118.231V23.025ZM132.379 26.235H120.304V24.99H132.379V26.235ZM130.804 16.26C130.804 19.8 130.579 22.305 130.219 24.06L128.704 23.865C129.034 22.53 129.259 19.635 129.259 17.475H121.699V16.26H130.804ZM144.278 24.51H142.748V14.82H144.278V24.51ZM144.593 27.795H135.443V23.595H136.973V26.565H144.593V27.795ZM140.528 19.08C140.528 20.985 139.148 22.35 137.108 22.35C135.068 22.35 133.658 20.985 133.658 19.095C133.658 17.19 135.053 15.81 137.108 15.81C139.148 15.81 140.528 17.175 140.528 19.08ZM138.998 19.08C138.998 17.91 138.278 17.085 137.108 17.085C135.968 17.085 135.203 17.94 135.203 19.08C135.203 20.175 135.968 21.045 137.108 21.045C138.278 21.045 138.998 20.175 138.998 19.08Z" fill="black" fill-opacity="0.85"/>
<mask id="path-6-inside-1_269_1666" fill="white">
<path d="M174.189 44.3845C174.176 44.3743 174.159 44.3687 174.142 44.3688C173.408 44.372 173.399 44.5108 172.648 44.5108C171.887 44.5108 171.887 44.5187 171.127 44.5187C170.366 44.5187 170.366 44.3056 169.606 44.3056C168.845 44.3056 168.845 44.3451 168.085 44.3451C167.325 44.3451 167.325 44.2898 166.564 44.2898C165.804 44.2898 165.804 44.3924 165.043 44.3924C164.283 44.3924 164.283 44.1715 163.522 44.1715C162.762 44.1715 162.762 44.9527 162.001 44.9527C161.241 44.9527 161.241 44.9132 160.481 44.9132C159.72 44.9132 159.72 44.2504 158.96 44.2504C158.199 44.2504 158.199 44.2662 157.439 44.2662C156.678 44.2662 156.678 44.3845 155.918 44.3845C155.157 44.3845 155.157 44.8027 154.397 44.8027C153.637 44.8027 153.637 44.3214 152.876 44.3214C152.116 44.3214 152.116 44.6607 151.355 44.6607C150.595 44.6607 150.595 44.5108 149.834 44.5108C149.074 44.5108 149.074 44.4477 148.314 44.4477C147.553 44.4477 147.553 44.6291 146.793 44.6291C146.032 44.6291 146.032 44.787 145.272 44.787C144.511 44.787 144.511 44.9211 143.751 44.9211C142.99 44.9211 142.99 44.5345 142.23 44.5345C141.47 44.5345 141.47 44.1715 140.709 44.1715C139.949 44.1715 139.949 44.708 139.188 44.708C138.428 44.708 138.428 44.2267 137.667 44.2267C136.907 44.2267 136.907 44.4003 136.146 44.4003C135.386 44.4003 135.386 44.787 134.626 44.787C133.865 44.787 133.865 44.9132 133.105 44.9132C132.344 44.9132 132.344 44.282 131.584 44.282C130.823 44.282 130.823 44.4634 130.063 44.4634C129.302 44.4634 129.302 44.5502 128.542 44.5502C127.782 44.5502 127.782 44.2898 127.021 44.2898C126.261 44.2898 126.261 44.3056 125.5 44.3056C124.74 44.3056 124.74 44.9763 123.979 44.9763C123.219 44.9763 123.219 44.3688 122.458 44.3688C121.698 44.3688 121.698 44.9053 120.938 44.9053C120.177 44.9053 120.177 44.3293 119.417 44.3293C118.656 44.3293 118.656 44.7317 117.896 44.7317C117.135 44.7317 117.135 44.9527 116.375 44.9527C115.614 44.9527 115.614 44.5818 114.854 44.5818C114.094 44.5818 114.094 44.9842 113.333 44.9842C112.573 44.9842 112.573 44.8895 111.812 44.8895C111.052 44.8895 111.052 44.3372 110.291 44.3372C109.531 44.3372 109.531 44.6449 108.77 44.6449C108.01 44.6449 108.01 44.3214 107.25 44.3214C106.489 44.3214 106.489 44.4871 105.729 44.4871C104.968 44.4871 104.968 44.5266 104.208 44.5266C103.447 44.5266 103.447 44.424 102.687 44.424C101.926 44.424 101.926 44.2109 101.166 44.2109C100.406 44.2109 100.406 44.787 99.6452 44.787C98.8847 44.787 98.8847 44.2898 98.1243 44.2898C97.3638 44.2898 97.3638 44.9132 96.6034 44.9132C95.8429 44.9132 95.8429 44.9605 95.0825 44.9605C94.3221 44.9605 94.3221 44.7159 93.5616 44.7159C92.8012 44.7159 92.8012 44.5739 92.0407 44.5739C91.2803 44.5739 91.2803 44.8816 90.5198 44.8816C89.7594 44.8816 89.7594 44.7948 88.999 44.7948C88.2385 44.7948 88.2385 44.495 87.4781 44.495C86.7176 44.495 86.7176 44.2741 85.9572 44.2741C85.1967 44.2741 85.1967 44.2741 84.4363 44.2741C83.6759 44.2741 83.6759 44.2109 82.9154 44.2109C82.155 44.2109 82.155 44.929 81.3877 44.929C80.6205 44.929 80.6273 44.4871 79.8669 44.4871C79.1064 44.4871 79.1064 44.2267 78.346 44.2267C77.5855 44.2267 77.5855 44.6607 76.8251 44.6607C76.0646 44.6607 76.0646 44.9527 75.3042 44.9527C74.5438 44.9527 74.5438 44.8974 73.7833 44.8974C73.0229 44.8974 73.0229 44.8343 72.2624 44.8343C71.502 44.8343 71.502 44.9448 70.7415 44.9448C69.9811 44.9448 69.9811 44.4792 69.2139 44.4792C68.4466 44.4792 68.4534 44.424 67.693 44.424C66.9325 44.424 66.9325 44.4319 66.1721 44.4319C65.4117 44.4319 65.4117 44.2109 64.6512 44.2109C63.8908 44.2109 63.8908 44.8185 63.1303 44.8185C62.3699 44.8185 62.3699 44.2267 61.6027 44.2267C60.8354 44.2267 60.8422 44.1873 60.0818 44.1873C59.3213 44.1873 59.3213 44.9842 58.5609 44.9842C57.8004 44.9842 57.8004 44.5739 57.04 44.5739C56.2796 44.5739 56.2796 44.8737 55.5191 44.8737C54.7587 44.8737 54.7587 44.6686 53.9914 44.6686C53.2242 44.6686 53.231 44.4634 52.4706 44.4634C51.7101 44.4634 51.7101 44.353 50.9497 44.353C50.1892 44.353 50.1892 45 49.422 45C48.6548 45 48.6615 44.9211 47.8943 44.9211C47.1271 44.9211 47.1339 44.2031 46.3734 44.2031C45.613 44.2031 45.613 44.7238 44.8458 44.7238C44.0785 44.7238 44.0853 44.4634 43.3181 44.4634C42.5508 44.4634 42.5576 44.5976 41.7972 44.5976C41.0367 44.5976 41.0368 44.3766 40.2763 44.3766C39.5159 44.3766 39.5159 44.7238 38.7554 44.7238C37.995 44.7238 37.995 44.8106 37.2277 44.8106C36.4605 44.8106 36.4673 44.9211 35.7001 44.9211C34.9328 44.9211 34.9396 44.8816 34.1792 44.8816C33.4187 44.8816 33.4187 44.9132 32.6583 44.9132C31.8979 44.9132 31.8979 44.787 31.1306 44.787C30.3634 44.787 30.3702 44.858 29.6097 44.858C28.8493 44.858 28.8493 44.3214 28.0821 44.3214C27.3148 44.3214 27.3216 44.4871 26.5544 44.4871C25.7872 44.4871 25.7939 44.4398 25.0267 44.4398C24.2595 44.4398 24.2663 44.5818 23.499 44.5818C22.7318 44.5818 22.7386 44.6134 21.9714 44.6134C21.2041 44.6134 21.2109 44.8659 20.4437 44.8659C19.6765 44.8659 19.6832 44.2188 18.9228 44.2188C18.1624 44.2188 18.1624 44.6923 17.3951 44.6923C16.6279 44.6923 16.6347 44.5187 15.8675 44.5187C15.1002 44.5187 15.1002 44.2109 14.3398 44.2109C13.5793 44.2109 13.5725 44.2425 12.8121 44.2425C12.0517 44.2425 12.0449 44.1952 11.2844 44.1952C10.524 44.1952 10.5172 44.5108 9.75675 44.5108C9.25432 44.5108 8.74509 44.6291 8.26982 44.5423C7.79454 44.4556 7.29889 44.2504 6.8372 44.0768C6.3755 43.9032 6.03601 43.3666 5.60148 43.1063C5.16694 42.8459 4.71203 42.6644 4.31823 42.3251C3.92443 41.9858 3.27262 41.97 2.92635 41.5597C2.58007 41.1494 2.13875 40.7628 1.84679 40.2972C1.55483 39.8317 1.62952 39.0742 1.40546 38.5613C1.1814 38.0484 0.665387 37.6539 0.516015 37.1015C0.366642 36.5492 0.712915 35.8627 0.638229 35.2867C0.563542 34.7107 0.380221 34.1899 0.380221 33.606C0.380221 32.7538 0.631439 32.7538 0.631439 31.8937C0.631439 31.0337 0.285166 31.0416 0.285166 30.1815C0.285166 29.3214 0 29.3214 0 28.4692C0 27.617 0.427749 27.617 0.427749 26.757C0.427749 25.8969 0.529594 25.8969 0.529594 25.0447C0.529594 24.1925 0.461697 24.1846 0.461697 23.3325C0.461697 22.4803 0.291956 22.4803 0.291956 21.6202C0.291956 20.7601 0.488856 20.768 0.488856 19.9079C0.488856 19.0479 0.0475277 19.0479 0.0475277 18.1957C0.0475277 17.3435 0.556753 17.3356 0.556753 16.4834C0.556753 15.6312 0.509225 15.6234 0.509225 14.7712C0.509225 13.919 0.373432 13.9111 0.373432 13.051C0.373432 12.191 0.169742 12.191 0.169742 11.3309C0.169742 10.747 0.583911 10.2104 0.665387 9.65018C0.746863 9.08995 1.00487 8.60863 1.15424 8.07207C1.30362 7.53551 1.36472 6.99106 1.58878 6.47817C1.81284 5.96528 2.03011 5.49185 2.32207 5.03419C2.61402 4.57654 2.6276 3.82693 2.97387 3.42451C3.32015 3.02209 4.04664 3.14045 4.44723 2.80116C4.84782 2.46186 5.09225 1.90163 5.53358 1.64124C5.97491 1.38085 6.45018 1.28617 6.92546 1.11257C7.40074 0.938979 7.82849 0.725934 8.32413 0.631247C8.81978 0.53656 9.28148 0.189374 9.78391 0.189374C10.5444 0.189374 10.5444 0.0157812 11.3048 0.0157812C12.0652 0.0157812 12.0652 0.599684 12.8257 0.599684C13.5861 0.599684 13.5861 0.568122 14.3466 0.568122C15.107 0.568122 15.107 0.441873 15.8675 0.441873C16.6279 0.441873 16.6279 0.0789059 17.3883 0.0789059C18.1488 0.0789059 18.1488 0.54445 18.9092 0.54445C19.6697 0.54445 19.6697 0.639137 20.4301 0.639137C21.1906 0.639137 21.1906 0.331405 21.951 0.331405C22.7114 0.331405 22.7114 0.118359 23.4719 0.118359C24.2323 0.118359 24.2323 0.189374 24.9928 0.189374C25.7532 0.189374 25.7532 0.639137 26.5137 0.639137C27.2741 0.639137 27.2741 0.757496 28.0345 0.757496C28.795 0.757496 28.795 0.355076 29.5554 0.355076C30.3159 0.355076 30.3159 0.441873 31.0763 0.441873C31.8368 0.441873 31.8368 0.497107 32.5972 0.497107C33.3576 0.497107 33.3576 0.291952 34.1181 0.291952C34.8785 0.291952 34.8785 0.718043 35.639 0.718043C36.3994 0.718043 36.3994 0.41031 37.1599 0.41031C37.9203 0.41031 37.9203 0.473435 38.6807 0.473435C39.4412 0.473435 39.4412 0.40242 40.2016 0.40242C40.9621 0.40242 40.9621 0.0631247 41.7225 0.0631247C42.483 0.0631247 42.483 0.441873 43.2434 0.441873C44.0038 0.441873 44.0038 0.607575 44.7643 0.607575C45.5247 0.607575 45.5247 0.560231 46.2852 0.560231C47.0456 0.560231 47.0456 0.0867964 47.806 0.0867964C48.5665 0.0867964 48.5665 0.378748 49.3269 0.378748C50.0874 0.378748 50.0874 0.512888 50.8478 0.512888C51.6083 0.512888 51.6083 0.102578 52.3687 0.102578C53.1291 0.102578 53.1292 0.0473435 53.8896 0.0473435C54.65 0.0473435 54.65 0.433982 55.4105 0.433982C56.1709 0.433982 56.1709 0.27617 56.9314 0.27617C57.6918 0.27617 57.6918 0.686481 58.4522 0.686481C59.2127 0.686481 59.2127 0.244608 59.9731 0.244608C60.7336 0.244608 60.7336 0.0473435 61.494 0.0473435C62.2545 0.0473435 62.2545 0.481326 63.0149 0.481326C63.7753 0.481326 63.7753 0.0867964 64.5358 0.0867964C65.2962 0.0867964 65.2962 0.741715 66.0567 0.741715C66.8171 0.741715 66.8171 0.386639 67.5776 0.386639C68.338 0.386639 68.338 0.244608 69.0984 0.244608C69.8589 0.244608 69.8589 0.639137 70.6193 0.639137C71.3798 0.639137 71.3798 0.0867964 72.1402 0.0867964C72.9007 0.0867964 72.9007 0.67859 73.6611 0.67859C74.4215 0.67859 74.4215 0.702262 75.182 0.702262C75.9424 0.702262 75.9424 0.315623 76.7029 0.315623C77.4633 0.315623 77.4633 0.394529 78.2238 0.394529C78.9842 0.394529 78.9842 0.126249 79.7446 0.126249C80.5051 0.126249 80.5051 0.142031 81.2655 0.142031C82.026 0.142031 82.026 0.765387 82.7864 0.765387C83.5469 0.765387 83.5469 0.418201 84.3073 0.418201C85.0677 0.418201 85.0677 0.54445 85.8282 0.54445C86.5886 0.54445 86.5886 0.80484 87.3491 0.80484C88.1095 0.80484 88.1095 0.181483 88.87 0.181483C89.6304 0.181483 89.6304 0.0157812 90.3908 0.0157812C91.1513 0.0157812 91.1513 0.307733 91.9117 0.307733C92.6722 0.307733 92.6722 0.13414 93.4326 0.13414C94.1931 0.13414 94.1931 0.41031 94.9535 0.41031C95.7139 0.41031 95.7139 0.307733 96.4744 0.307733C97.2348 0.307733 97.2348 0.291952 97.9953 0.291952C98.7557 0.291952 98.7557 0 99.5162 0C100.277 0 100.277 0.26828 101.037 0.26828C101.797 0.26828 101.797 0.568122 102.565 0.568122C103.332 0.568122 103.325 0.323514 104.086 0.323514C104.846 0.323514 104.846 0.725934 105.606 0.725934C106.367 0.725934 106.367 0.260389 107.127 0.260389C107.888 0.260389 107.888 0.213046 108.648 0.213046C109.409 0.213046 109.409 0.189374 110.169 0.189374C110.93 0.189374 110.93 0.702262 111.69 0.702262C112.45 0.702262 112.45 0.142031 113.211 0.142031C113.971 0.142031 113.971 0.0157812 114.739 0.0157812C115.506 0.0157812 115.499 0.718043 116.259 0.718043C117.02 0.718043 117.02 0.757496 117.78 0.757496C118.541 0.757496 118.541 0.694371 119.301 0.694371C120.062 0.694371 120.062 0.654918 120.822 0.654918C121.583 0.654918 121.583 0.126249 122.35 0.126249C123.117 0.126249 123.11 0.0315624 123.871 0.0315624C124.631 0.0315624 124.631 0.718043 125.392 0.718043C126.152 0.718043 126.152 0.497107 126.912 0.497107C127.673 0.497107 127.673 0.0236717 128.433 0.0236717C129.194 0.0236717 129.194 0.386639 129.961 0.386639C130.728 0.386639 130.721 0.504997 131.482 0.504997C132.242 0.504997 132.242 0 133.003 0C133.763 0 133.763 0.0315624 134.53 0.0315624C135.298 0.0315624 135.291 0.0789059 136.058 0.0789059C136.825 0.0789059 136.819 0.189374 137.579 0.189374C138.339 0.189374 138.339 0.126249 139.107 0.126249C139.874 0.126249 139.867 0.441873 140.634 0.441873C141.402 0.441873 141.395 0.647028 142.155 0.647028C142.916 0.647028 142.916 0.197265 143.676 0.197265C144.437 0.197265 144.437 0.639137 145.197 0.639137C145.957 0.639137 145.957 0.576013 146.725 0.576013C147.492 0.576013 147.485 0.0552341 148.252 0.0552341C149.02 0.0552341 149.013 0.426091 149.773 0.426091C150.534 0.426091 150.534 0.765387 151.294 0.765387C152.055 0.765387 152.055 0.142031 152.822 0.142031C153.589 0.142031 153.582 0.197265 154.343 0.197265C155.103 0.197265 155.103 0.457654 155.87 0.457654C156.638 0.457654 156.631 0.552341 157.398 0.552341C158.165 0.552341 158.159 0.757496 158.926 0.757496C159.693 0.757496 159.686 0.291952 160.453 0.291952C161.221 0.291952 161.214 0.0394529 161.981 0.0394529C162.748 0.0394529 162.742 0.394529 163.509 0.394529C164.276 0.394529 164.269 0.418201 165.03 0.418201C165.79 0.418201 165.79 0.615466 166.557 0.615466C167.325 0.615466 167.318 0.13414 168.085 0.13414C168.852 0.13414 168.852 0.142031 169.613 0.142031C170.373 0.142031 170.38 0.142031 171.14 0.142031C171.901 0.142031 171.908 0.252499 172.668 0.252499C173.428 0.252499 173.435 0.694371 174.196 0.694371C174.698 0.694371 175.146 0.820621 175.622 0.907417C176.097 0.994214 176.647 0.757496 177.115 0.931089C177.584 1.10468 178.032 1.36507 178.473 1.62546C178.915 1.88585 179.322 2.20147 179.723 2.54077C180.123 2.88006 180.524 3.21147 180.877 3.62178C181.23 4.03209 181.508 4.50552 181.8 4.97107C182.092 5.43661 182.282 5.95739 182.506 6.47028C182.73 6.98317 182.73 7.55918 182.88 8.11152C183.029 8.66386 183.423 9.10573 183.504 9.67386C183.586 10.242 183.538 10.8022 183.538 11.3861C183.538 12.2383 183.851 12.2383 183.851 13.0984C183.851 13.9584 183.79 13.9506 183.79 14.8106C183.79 15.6707 183.871 15.6707 183.871 16.5229C183.871 17.3751 184 17.3751 184 18.2351C184 19.0952 183.335 19.0952 183.335 19.9474C183.335 20.7996 183.477 20.8075 183.477 21.6597C183.477 22.5118 183.667 22.5118 183.667 23.3719C183.667 24.232 183.572 24.2241 183.572 25.0842C183.572 25.9442 183.62 25.9442 183.62 26.7964C183.62 27.6486 183.321 27.6565 183.321 28.5087C183.321 29.3609 183.294 29.3688 183.294 30.2209C183.294 31.0731 183.925 31.081 183.925 31.9411C183.925 32.8012 183.627 32.8012 183.627 33.6612C183.627 34.2451 183.803 34.8527 183.728 35.4129C183.654 35.9732 183.43 36.5492 183.274 37.0857C183.117 37.6223 182.527 37.9537 182.309 38.4587C182.092 38.9637 181.848 39.4056 181.556 39.8632C181.264 40.3209 180.979 40.7154 180.632 41.1257C180.286 41.536 180.327 42.475 179.926 42.8143C179.526 43.1536 179.064 43.4771 178.623 43.7375C178.181 43.9979 177.489 43.5481 177.02 43.7296C176.552 43.9111 176.131 44.0847 175.642 44.1794C175.161 44.2724 174.727 44.396 174.235 44.4002C174.218 44.4003 174.202 44.3948 174.189 44.3845V44.3845Z"/>
</mask>
<path d="M174.189 44.3845C174.176 44.3743 174.159 44.3687 174.142 44.3688C173.408 44.372 173.399 44.5108 172.648 44.5108C171.887 44.5108 171.887 44.5187 171.127 44.5187C170.366 44.5187 170.366 44.3056 169.606 44.3056C168.845 44.3056 168.845 44.3451 168.085 44.3451C167.325 44.3451 167.325 44.2898 166.564 44.2898C165.804 44.2898 165.804 44.3924 165.043 44.3924C164.283 44.3924 164.283 44.1715 163.522 44.1715C162.762 44.1715 162.762 44.9527 162.001 44.9527C161.241 44.9527 161.241 44.9132 160.481 44.9132C159.72 44.9132 159.72 44.2504 158.96 44.2504C158.199 44.2504 158.199 44.2662 157.439 44.2662C156.678 44.2662 156.678 44.3845 155.918 44.3845C155.157 44.3845 155.157 44.8027 154.397 44.8027C153.637 44.8027 153.637 44.3214 152.876 44.3214C152.116 44.3214 152.116 44.6607 151.355 44.6607C150.595 44.6607 150.595 44.5108 149.834 44.5108C149.074 44.5108 149.074 44.4477 148.314 44.4477C147.553 44.4477 147.553 44.6291 146.793 44.6291C146.032 44.6291 146.032 44.787 145.272 44.787C144.511 44.787 144.511 44.9211 143.751 44.9211C142.99 44.9211 142.99 44.5345 142.23 44.5345C141.47 44.5345 141.47 44.1715 140.709 44.1715C139.949 44.1715 139.949 44.708 139.188 44.708C138.428 44.708 138.428 44.2267 137.667 44.2267C136.907 44.2267 136.907 44.4003 136.146 44.4003C135.386 44.4003 135.386 44.787 134.626 44.787C133.865 44.787 133.865 44.9132 133.105 44.9132C132.344 44.9132 132.344 44.282 131.584 44.282C130.823 44.282 130.823 44.4634 130.063 44.4634C129.302 44.4634 129.302 44.5502 128.542 44.5502C127.782 44.5502 127.782 44.2898 127.021 44.2898C126.261 44.2898 126.261 44.3056 125.5 44.3056C124.74 44.3056 124.74 44.9763 123.979 44.9763C123.219 44.9763 123.219 44.3688 122.458 44.3688C121.698 44.3688 121.698 44.9053 120.938 44.9053C120.177 44.9053 120.177 44.3293 119.417 44.3293C118.656 44.3293 118.656 44.7317 117.896 44.7317C117.135 44.7317 117.135 44.9527 116.375 44.9527C115.614 44.9527 115.614 44.5818 114.854 44.5818C114.094 44.5818 114.094 44.9842 113.333 44.9842C112.573 44.9842 112.573 44.8895 111.812 44.8895C111.052 44.8895 111.052 44.3372 110.291 44.3372C109.531 44.3372 109.531 44.6449 108.77 44.6449C108.01 44.6449 108.01 44.3214 107.25 44.3214C106.489 44.3214 106.489 44.4871 105.729 44.4871C104.968 44.4871 104.968 44.5266 104.208 44.5266C103.447 44.5266 103.447 44.424 102.687 44.424C101.926 44.424 101.926 44.2109 101.166 44.2109C100.406 44.2109 100.406 44.787 99.6452 44.787C98.8847 44.787 98.8847 44.2898 98.1243 44.2898C97.3638 44.2898 97.3638 44.9132 96.6034 44.9132C95.8429 44.9132 95.8429 44.9605 95.0825 44.9605C94.3221 44.9605 94.3221 44.7159 93.5616 44.7159C92.8012 44.7159 92.8012 44.5739 92.0407 44.5739C91.2803 44.5739 91.2803 44.8816 90.5198 44.8816C89.7594 44.8816 89.7594 44.7948 88.999 44.7948C88.2385 44.7948 88.2385 44.495 87.4781 44.495C86.7176 44.495 86.7176 44.2741 85.9572 44.2741C85.1967 44.2741 85.1967 44.2741 84.4363 44.2741C83.6759 44.2741 83.6759 44.2109 82.9154 44.2109C82.155 44.2109 82.155 44.929 81.3877 44.929C80.6205 44.929 80.6273 44.4871 79.8669 44.4871C79.1064 44.4871 79.1064 44.2267 78.346 44.2267C77.5855 44.2267 77.5855 44.6607 76.8251 44.6607C76.0646 44.6607 76.0646 44.9527 75.3042 44.9527C74.5438 44.9527 74.5438 44.8974 73.7833 44.8974C73.0229 44.8974 73.0229 44.8343 72.2624 44.8343C71.502 44.8343 71.502 44.9448 70.7415 44.9448C69.9811 44.9448 69.9811 44.4792 69.2139 44.4792C68.4466 44.4792 68.4534 44.424 67.693 44.424C66.9325 44.424 66.9325 44.4319 66.1721 44.4319C65.4117 44.4319 65.4117 44.2109 64.6512 44.2109C63.8908 44.2109 63.8908 44.8185 63.1303 44.8185C62.3699 44.8185 62.3699 44.2267 61.6027 44.2267C60.8354 44.2267 60.8422 44.1873 60.0818 44.1873C59.3213 44.1873 59.3213 44.9842 58.5609 44.9842C57.8004 44.9842 57.8004 44.5739 57.04 44.5739C56.2796 44.5739 56.2796 44.8737 55.5191 44.8737C54.7587 44.8737 54.7587 44.6686 53.9914 44.6686C53.2242 44.6686 53.231 44.4634 52.4706 44.4634C51.7101 44.4634 51.7101 44.353 50.9497 44.353C50.1892 44.353 50.1892 45 49.422 45C48.6548 45 48.6615 44.9211 47.8943 44.9211C47.1271 44.9211 47.1339 44.2031 46.3734 44.2031C45.613 44.2031 45.613 44.7238 44.8458 44.7238C44.0785 44.7238 44.0853 44.4634 43.3181 44.4634C42.5508 44.4634 42.5576 44.5976 41.7972 44.5976C41.0367 44.5976 41.0368 44.3766 40.2763 44.3766C39.5159 44.3766 39.5159 44.7238 38.7554 44.7238C37.995 44.7238 37.995 44.8106 37.2277 44.8106C36.4605 44.8106 36.4673 44.9211 35.7001 44.9211C34.9328 44.9211 34.9396 44.8816 34.1792 44.8816C33.4187 44.8816 33.4187 44.9132 32.6583 44.9132C31.8979 44.9132 31.8979 44.787 31.1306 44.787C30.3634 44.787 30.3702 44.858 29.6097 44.858C28.8493 44.858 28.8493 44.3214 28.0821 44.3214C27.3148 44.3214 27.3216 44.4871 26.5544 44.4871C25.7872 44.4871 25.7939 44.4398 25.0267 44.4398C24.2595 44.4398 24.2663 44.5818 23.499 44.5818C22.7318 44.5818 22.7386 44.6134 21.9714 44.6134C21.2041 44.6134 21.2109 44.8659 20.4437 44.8659C19.6765 44.8659 19.6832 44.2188 18.9228 44.2188C18.1624 44.2188 18.1624 44.6923 17.3951 44.6923C16.6279 44.6923 16.6347 44.5187 15.8675 44.5187C15.1002 44.5187 15.1002 44.2109 14.3398 44.2109C13.5793 44.2109 13.5725 44.2425 12.8121 44.2425C12.0517 44.2425 12.0449 44.1952 11.2844 44.1952C10.524 44.1952 10.5172 44.5108 9.75675 44.5108C9.25432 44.5108 8.74509 44.6291 8.26982 44.5423C7.79454 44.4556 7.29889 44.2504 6.8372 44.0768C6.3755 43.9032 6.03601 43.3666 5.60148 43.1063C5.16694 42.8459 4.71203 42.6644 4.31823 42.3251C3.92443 41.9858 3.27262 41.97 2.92635 41.5597C2.58007 41.1494 2.13875 40.7628 1.84679 40.2972C1.55483 39.8317 1.62952 39.0742 1.40546 38.5613C1.1814 38.0484 0.665387 37.6539 0.516015 37.1015C0.366642 36.5492 0.712915 35.8627 0.638229 35.2867C0.563542 34.7107 0.380221 34.1899 0.380221 33.606C0.380221 32.7538 0.631439 32.7538 0.631439 31.8937C0.631439 31.0337 0.285166 31.0416 0.285166 30.1815C0.285166 29.3214 0 29.3214 0 28.4692C0 27.617 0.427749 27.617 0.427749 26.757C0.427749 25.8969 0.529594 25.8969 0.529594 25.0447C0.529594 24.1925 0.461697 24.1846 0.461697 23.3325C0.461697 22.4803 0.291956 22.4803 0.291956 21.6202C0.291956 20.7601 0.488856 20.768 0.488856 19.9079C0.488856 19.0479 0.0475277 19.0479 0.0475277 18.1957C0.0475277 17.3435 0.556753 17.3356 0.556753 16.4834C0.556753 15.6312 0.509225 15.6234 0.509225 14.7712C0.509225 13.919 0.373432 13.9111 0.373432 13.051C0.373432 12.191 0.169742 12.191 0.169742 11.3309C0.169742 10.747 0.583911 10.2104 0.665387 9.65018C0.746863 9.08995 1.00487 8.60863 1.15424 8.07207C1.30362 7.53551 1.36472 6.99106 1.58878 6.47817C1.81284 5.96528 2.03011 5.49185 2.32207 5.03419C2.61402 4.57654 2.6276 3.82693 2.97387 3.42451C3.32015 3.02209 4.04664 3.14045 4.44723 2.80116C4.84782 2.46186 5.09225 1.90163 5.53358 1.64124C5.97491 1.38085 6.45018 1.28617 6.92546 1.11257C7.40074 0.938979 7.82849 0.725934 8.32413 0.631247C8.81978 0.53656 9.28148 0.189374 9.78391 0.189374C10.5444 0.189374 10.5444 0.0157812 11.3048 0.0157812C12.0652 0.0157812 12.0652 0.599684 12.8257 0.599684C13.5861 0.599684 13.5861 0.568122 14.3466 0.568122C15.107 0.568122 15.107 0.441873 15.8675 0.441873C16.6279 0.441873 16.6279 0.0789059 17.3883 0.0789059C18.1488 0.0789059 18.1488 0.54445 18.9092 0.54445C19.6697 0.54445 19.6697 0.639137 20.4301 0.639137C21.1906 0.639137 21.1906 0.331405 21.951 0.331405C22.7114 0.331405 22.7114 0.118359 23.4719 0.118359C24.2323 0.118359 24.2323 0.189374 24.9928 0.189374C25.7532 0.189374 25.7532 0.639137 26.5137 0.639137C27.2741 0.639137 27.2741 0.757496 28.0345 0.757496C28.795 0.757496 28.795 0.355076 29.5554 0.355076C30.3159 0.355076 30.3159 0.441873 31.0763 0.441873C31.8368 0.441873 31.8368 0.497107 32.5972 0.497107C33.3576 0.497107 33.3576 0.291952 34.1181 0.291952C34.8785 0.291952 34.8785 0.718043 35.639 0.718043C36.3994 0.718043 36.3994 0.41031 37.1599 0.41031C37.9203 0.41031 37.9203 0.473435 38.6807 0.473435C39.4412 0.473435 39.4412 0.40242 40.2016 0.40242C40.9621 0.40242 40.9621 0.0631247 41.7225 0.0631247C42.483 0.0631247 42.483 0.441873 43.2434 0.441873C44.0038 0.441873 44.0038 0.607575 44.7643 0.607575C45.5247 0.607575 45.5247 0.560231 46.2852 0.560231C47.0456 0.560231 47.0456 0.0867964 47.806 0.0867964C48.5665 0.0867964 48.5665 0.378748 49.3269 0.378748C50.0874 0.378748 50.0874 0.512888 50.8478 0.512888C51.6083 0.512888 51.6083 0.102578 52.3687 0.102578C53.1291 0.102578 53.1292 0.0473435 53.8896 0.0473435C54.65 0.0473435 54.65 0.433982 55.4105 0.433982C56.1709 0.433982 56.1709 0.27617 56.9314 0.27617C57.6918 0.27617 57.6918 0.686481 58.4522 0.686481C59.2127 0.686481 59.2127 0.244608 59.9731 0.244608C60.7336 0.244608 60.7336 0.0473435 61.494 0.0473435C62.2545 0.0473435 62.2545 0.481326 63.0149 0.481326C63.7753 0.481326 63.7753 0.0867964 64.5358 0.0867964C65.2962 0.0867964 65.2962 0.741715 66.0567 0.741715C66.8171 0.741715 66.8171 0.386639 67.5776 0.386639C68.338 0.386639 68.338 0.244608 69.0984 0.244608C69.8589 0.244608 69.8589 0.639137 70.6193 0.639137C71.3798 0.639137 71.3798 0.0867964 72.1402 0.0867964C72.9007 0.0867964 72.9007 0.67859 73.6611 0.67859C74.4215 0.67859 74.4215 0.702262 75.182 0.702262C75.9424 0.702262 75.9424 0.315623 76.7029 0.315623C77.4633 0.315623 77.4633 0.394529 78.2238 0.394529C78.9842 0.394529 78.9842 0.126249 79.7446 0.126249C80.5051 0.126249 80.5051 0.142031 81.2655 0.142031C82.026 0.142031 82.026 0.765387 82.7864 0.765387C83.5469 0.765387 83.5469 0.418201 84.3073 0.418201C85.0677 0.418201 85.0677 0.54445 85.8282 0.54445C86.5886 0.54445 86.5886 0.80484 87.3491 0.80484C88.1095 0.80484 88.1095 0.181483 88.87 0.181483C89.6304 0.181483 89.6304 0.0157812 90.3908 0.0157812C91.1513 0.0157812 91.1513 0.307733 91.9117 0.307733C92.6722 0.307733 92.6722 0.13414 93.4326 0.13414C94.1931 0.13414 94.1931 0.41031 94.9535 0.41031C95.7139 0.41031 95.7139 0.307733 96.4744 0.307733C97.2348 0.307733 97.2348 0.291952 97.9953 0.291952C98.7557 0.291952 98.7557 0 99.5162 0C100.277 0 100.277 0.26828 101.037 0.26828C101.797 0.26828 101.797 0.568122 102.565 0.568122C103.332 0.568122 103.325 0.323514 104.086 0.323514C104.846 0.323514 104.846 0.725934 105.606 0.725934C106.367 0.725934 106.367 0.260389 107.127 0.260389C107.888 0.260389 107.888 0.213046 108.648 0.213046C109.409 0.213046 109.409 0.189374 110.169 0.189374C110.93 0.189374 110.93 0.702262 111.69 0.702262C112.45 0.702262 112.45 0.142031 113.211 0.142031C113.971 0.142031 113.971 0.0157812 114.739 0.0157812C115.506 0.0157812 115.499 0.718043 116.259 0.718043C117.02 0.718043 117.02 0.757496 117.78 0.757496C118.541 0.757496 118.541 0.694371 119.301 0.694371C120.062 0.694371 120.062 0.654918 120.822 0.654918C121.583 0.654918 121.583 0.126249 122.35 0.126249C123.117 0.126249 123.11 0.0315624 123.871 0.0315624C124.631 0.0315624 124.631 0.718043 125.392 0.718043C126.152 0.718043 126.152 0.497107 126.912 0.497107C127.673 0.497107 127.673 0.0236717 128.433 0.0236717C129.194 0.0236717 129.194 0.386639 129.961 0.386639C130.728 0.386639 130.721 0.504997 131.482 0.504997C132.242 0.504997 132.242 0 133.003 0C133.763 0 133.763 0.0315624 134.53 0.0315624C135.298 0.0315624 135.291 0.0789059 136.058 0.0789059C136.825 0.0789059 136.819 0.189374 137.579 0.189374C138.339 0.189374 138.339 0.126249 139.107 0.126249C139.874 0.126249 139.867 0.441873 140.634 0.441873C141.402 0.441873 141.395 0.647028 142.155 0.647028C142.916 0.647028 142.916 0.197265 143.676 0.197265C144.437 0.197265 144.437 0.639137 145.197 0.639137C145.957 0.639137 145.957 0.576013 146.725 0.576013C147.492 0.576013 147.485 0.0552341 148.252 0.0552341C149.02 0.0552341 149.013 0.426091 149.773 0.426091C150.534 0.426091 150.534 0.765387 151.294 0.765387C152.055 0.765387 152.055 0.142031 152.822 0.142031C153.589 0.142031 153.582 0.197265 154.343 0.197265C155.103 0.197265 155.103 0.457654 155.87 0.457654C156.638 0.457654 156.631 0.552341 157.398 0.552341C158.165 0.552341 158.159 0.757496 158.926 0.757496C159.693 0.757496 159.686 0.291952 160.453 0.291952C161.221 0.291952 161.214 0.0394529 161.981 0.0394529C162.748 0.0394529 162.742 0.394529 163.509 0.394529C164.276 0.394529 164.269 0.418201 165.03 0.418201C165.79 0.418201 165.79 0.615466 166.557 0.615466C167.325 0.615466 167.318 0.13414 168.085 0.13414C168.852 0.13414 168.852 0.142031 169.613 0.142031C170.373 0.142031 170.38 0.142031 171.14 0.142031C171.901 0.142031 171.908 0.252499 172.668 0.252499C173.428 0.252499 173.435 0.694371 174.196 0.694371C174.698 0.694371 175.146 0.820621 175.622 0.907417C176.097 0.994214 176.647 0.757496 177.115 0.931089C177.584 1.10468 178.032 1.36507 178.473 1.62546C178.915 1.88585 179.322 2.20147 179.723 2.54077C180.123 2.88006 180.524 3.21147 180.877 3.62178C181.23 4.03209 181.508 4.50552 181.8 4.97107C182.092 5.43661 182.282 5.95739 182.506 6.47028C182.73 6.98317 182.73 7.55918 182.88 8.11152C183.029 8.66386 183.423 9.10573 183.504 9.67386C183.586 10.242 183.538 10.8022 183.538 11.3861C183.538 12.2383 183.851 12.2383 183.851 13.0984C183.851 13.9584 183.79 13.9506 183.79 14.8106C183.79 15.6707 183.871 15.6707 183.871 16.5229C183.871 17.3751 184 17.3751 184 18.2351C184 19.0952 183.335 19.0952 183.335 19.9474C183.335 20.7996 183.477 20.8075 183.477 21.6597C183.477 22.5118 183.667 22.5118 183.667 23.3719C183.667 24.232 183.572 24.2241 183.572 25.0842C183.572 25.9442 183.62 25.9442 183.62 26.7964C183.62 27.6486 183.321 27.6565 183.321 28.5087C183.321 29.3609 183.294 29.3688 183.294 30.2209C183.294 31.0731 183.925 31.081 183.925 31.9411C183.925 32.8012 183.627 32.8012 183.627 33.6612C183.627 34.2451 183.803 34.8527 183.728 35.4129C183.654 35.9732 183.43 36.5492 183.274 37.0857C183.117 37.6223 182.527 37.9537 182.309 38.4587C182.092 38.9637 181.848 39.4056 181.556 39.8632C181.264 40.3209 180.979 40.7154 180.632 41.1257C180.286 41.536 180.327 42.475 179.926 42.8143C179.526 43.1536 179.064 43.4771 178.623 43.7375C178.181 43.9979 177.489 43.5481 177.02 43.7296C176.552 43.9111 176.131 44.0847 175.642 44.1794C175.161 44.2724 174.727 44.396 174.235 44.4002C174.218 44.4003 174.202 44.3948 174.189 44.3845V44.3845Z" stroke="black" stroke-width="2" stroke-miterlimit="10" mask="url(#path-6-inside-1_269_1666)"/>
</g>
<defs>
<clipPath id="clip0_269_1666">
<rect width="184" height="45" rx="12" fill="white"/>
</clipPath>
</defs>
</svg>
