<svg width="24" height="24" viewBox="0 0 24 24" fill="none" xmlns="http://www.w3.org/2000/svg">
<path d="M5.78625 7.83L11.4638 1.7325C11.5326 1.65964 11.6154 1.60146 11.7073 1.56147C11.7992 1.52148 11.8982 1.5005 11.9984 1.4998C12.0986 1.4991 12.1979 1.51869 12.2904 1.55739C12.3828 1.5961 12.4664 1.65311 12.5363 1.725L18.2138 7.8225C18.6338 8.2695 18.3038 8.99475 17.6813 8.99475H14.9513C14.6888 8.99475 14.4713 9.20775 14.4713 9.4635V13.3598C14.4713 13.8435 14.0738 14.232 13.5788 14.232H10.4138C9.92625 14.232 9.52125 13.8435 9.52875 13.3673V9.471C9.52639 9.34547 9.4747 9.22591 9.38488 9.13819C9.29505 9.05047 9.1743 9.00164 9.04875 9.00225H6.31875C5.69625 9.00225 5.36625 8.2845 5.78625 7.83ZM9.33 15.6135H4.5C4.0875 15.6135 3.75 15.951 3.75 16.3635C3.75 16.776 4.0875 17.1135 4.5 17.1135H6.165V21.741C6.165 22.1535 6.5025 22.491 6.915 22.491C7.3275 22.491 7.665 22.1535 7.665 21.741V17.1135H9.33C9.7425 17.1135 10.08 16.776 10.08 16.3635C10.08 15.9435 9.7425 15.6135 9.33 15.6135ZM16.3725 15.621H18.45C19.5825 15.621 20.505 16.5435 20.505 17.676C20.505 18.8085 19.5825 19.731 18.45 19.731H17.1225V21.7485C17.1225 22.161 16.785 22.4985 16.3725 22.4985C15.96 22.4985 15.6225 22.161 15.6225 21.7485V16.371C15.6225 15.9585 15.96 15.621 16.3725 15.621ZM17.1225 18.231H18.45C18.7575 18.231 19.005 17.9835 19.005 17.676C19.005 17.3685 18.7575 17.121 18.45 17.121H17.1225V18.231ZM10.08 20.1435C10.08 21.441 11.1375 22.4985 12.4425 22.4985C13.74 22.4985 14.805 21.441 14.805 20.1435V17.9835C14.805 16.686 13.7475 15.6285 12.4425 15.6285C11.1375 15.6285 10.08 16.686 10.08 17.9835V20.1435ZM11.58 17.9835C11.58 17.7548 11.6709 17.5354 11.8326 17.3736C11.9944 17.2119 12.2138 17.121 12.4425 17.121C12.6713 17.121 12.8906 17.2119 13.0524 17.3736C13.2141 17.5354 13.305 17.7548 13.305 17.9835V20.1435C13.305 20.6235 12.915 21.006 12.4425 21.006C11.97 21.006 11.58 20.616 11.58 20.1435V17.9835Z" fill="black"/>
</svg>
