<svg width="270" height="56" viewBox="0 0 270 56" fill="none" xmlns="http://www.w3.org/2000/svg">
<rect x="0.5" y="0.5" width="269" height="55" rx="14.5" fill="#FFF5AE"/>
<rect x="0.5" y="0.5" width="269" height="55" rx="14.5" stroke="black"/>
<path d="M22.7822 17.893H22.9502C23.5102 18.019 23.7902 18.299 23.7902 18.733C23.1742 22.149 22.5582 23.857 21.9422 23.857H21.6062C21.1022 23.857 20.8502 23.549 20.8502 22.933C21.2422 21.603 21.6622 20.035 22.1102 18.229C22.3482 18.005 22.5722 17.893 22.7822 17.893ZM26.3102 17.893H26.4782C27.0382 18.019 27.3182 18.299 27.3182 18.733C26.7022 22.149 26.0862 23.857 25.4702 23.857H25.1342C24.6302 23.857 24.3782 23.549 24.3782 22.933C24.7702 21.603 25.1902 20.035 25.6382 18.229C25.8762 18.005 26.1002 17.893 26.3102 17.893ZM36.7682 19.909H36.9362C37.4262 19.909 37.7062 20.273 37.7762 21.001V21.757C37.9582 21.757 38.4342 21.785 39.2042 21.841C39.4142 21.841 40.1982 21.813 41.5562 21.757C42.5642 21.757 43.0682 22.037 43.0682 22.597V22.849C43.0682 23.353 42.7602 23.605 42.1442 23.605H37.7762V23.689C37.7762 24.809 38.6162 25.985 40.2962 27.217C42.3682 28.029 43.4042 28.589 43.4042 28.897C43.4042 28.925 43.4322 29.037 43.4882 29.233C43.3482 29.793 43.0402 30.073 42.5642 30.073C40.6742 29.569 39.1342 28.757 37.9442 27.637C37.2442 27.007 36.8802 26.559 36.8522 26.293C35.5362 28.057 33.6042 29.317 31.0562 30.073C30.5942 30.073 30.3142 29.737 30.2162 29.065C30.2162 28.631 31.1122 28.071 32.9042 27.385C34.8642 26.097 35.8442 24.893 35.8442 23.773V23.605C35.4802 23.605 34.0242 23.633 31.4762 23.689C31.0702 23.689 30.8182 23.353 30.7202 22.681V22.597C30.9442 22.093 31.3362 21.841 31.8962 21.841H32.8202C33.4782 21.841 34.5142 21.813 35.9282 21.757V20.917C35.9842 20.245 36.2642 19.909 36.7682 19.909ZM36.8942 29.17C37.4542 29.31 37.7342 29.618 37.7342 30.094L37.7552 33.139H41.5352C41.8572 33.139 42.3052 33.167 42.8792 33.223C42.9772 33.167 43.1172 33.139 43.2992 33.139C43.8592 33.293 44.1392 33.573 44.1392 33.979V34.147C44.0132 34.707 43.7332 34.987 43.2992 34.987C36.7192 34.931 32.4352 34.903 30.4472 34.903C29.6632 34.903 29.2712 34.623 29.2712 34.063V33.895C29.2712 33.447 29.5792 33.167 30.1952 33.055H35.9072C35.9072 32.943 35.9142 32.411 35.9282 31.459C35.9002 30.717 35.8862 30.262 35.8862 30.094C35.8862 29.632 36.2222 29.324 36.8942 29.17ZM52.8582 20.812C53.6982 20.924 55.4622 20.98 58.1502 20.98C58.8782 21.092 59.2422 21.4 59.2422 21.904V22.828C59.2422 23.234 59.2702 23.542 59.3262 23.752C59.1302 28.96 58.7382 31.564 58.1502 31.564H57.4782C57.0862 31.312 56.8902 31.004 56.8902 30.64C57.0022 29.94 57.1422 28.82 57.3102 27.28H56.6382C55.3782 27.28 52.6902 27.336 48.5742 27.448C48.1122 27.448 47.8322 27.14 47.7342 26.524C47.7342 25.908 48.2382 25.6 49.2462 25.6C50.5762 25.6 52.4802 25.544 54.9582 25.432C55.4902 25.488 56.2182 25.516 57.1422 25.516C57.3662 25.432 57.4782 25.348 57.4782 25.264V22.912C57.4782 22.8 57.4222 22.744 57.3102 22.744H56.3862C54.8742 22.744 53.6142 22.716 52.6062 22.66C51.8922 22.716 50.6882 22.744 48.9942 22.744C48.2662 22.744 47.9022 22.436 47.9022 21.82C47.9022 21.204 48.2662 20.896 48.9942 20.896H52.0182C52.2842 20.896 52.5642 20.868 52.8582 20.812ZM53.4462 29.17C54.0062 29.31 54.2862 29.618 54.2862 30.094L54.3072 33.139H58.0872C58.4092 33.139 58.8572 33.167 59.4312 33.223C59.5292 33.167 59.6692 33.139 59.8512 33.139C60.4112 33.293 60.6912 33.573 60.6912 33.979V34.147C60.5652 34.707 60.2852 34.987 59.8512 34.987C53.2712 34.931 48.9872 34.903 46.9992 34.903C46.2152 34.903 45.8232 34.623 45.8232 34.063V33.895C45.8232 33.447 46.1312 33.167 46.7472 33.055H52.4592C52.4592 32.943 52.4662 32.411 52.4802 31.459C52.4522 30.717 52.4382 30.262 52.4382 30.094C52.4382 29.632 52.7742 29.324 53.4462 29.17ZM63.7192 20.413H64.1392C65.2452 20.413 66.8972 20.441 69.0952 20.497C69.5992 20.665 69.8512 21.029 69.8512 21.589V25.873C69.8512 26.489 69.4592 26.909 68.6752 27.133C66.0152 27.189 64.5032 27.217 64.1392 27.217V27.301C64.1952 27.399 64.2232 27.511 64.2232 27.637V30.325L64.3912 30.577C64.9932 30.577 67.1492 30.465 70.8592 30.241C71.3632 30.409 71.6152 30.745 71.6152 31.249C71.6152 31.921 70.5232 32.257 68.3392 32.257C66.8412 32.313 65.4972 32.341 64.3072 32.341H63.6352C62.8512 32.341 62.4592 31.697 62.4592 30.409C62.4032 29.163 62.3752 27.875 62.3752 26.545C62.5292 25.761 62.9212 25.369 63.5512 25.369H68.0872V23.521C68.0872 23.241 68.0592 22.821 68.0032 22.261H63.3832C62.9352 22.261 62.5992 22.065 62.3752 21.673V21.253C62.3752 20.693 62.8232 20.413 63.7192 20.413ZM77.1802 18.922H77.2642C77.6142 18.922 77.8942 19.146 78.1042 19.594C78.1042 21.162 78.1322 22.814 78.1882 24.55C78.1322 28.162 78.1042 31.606 78.1042 34.882C78.0062 35.498 77.7262 35.806 77.2642 35.806H77.0962C76.5362 35.806 76.2562 35.302 76.2562 34.294V33.286C76.2562 32.684 76.2842 32.208 76.3402 31.858C76.2842 31.382 76.2562 30.99 76.2562 30.682C76.2562 29.1 76.3122 27.448 76.4242 25.726C76.3682 24.69 76.3402 23.57 76.3402 22.366V19.93C76.3962 19.258 76.6762 18.922 77.1802 18.922ZM74.1562 19.258C74.7162 19.496 74.9962 19.832 74.9962 20.266C74.9962 20.602 74.9682 21.106 74.9122 21.778C74.9122 22.87 74.9402 24.382 74.9962 26.314C74.9402 29.016 74.9122 31.676 74.9122 34.294C74.7862 34.854 74.5062 35.134 74.0722 35.134H73.9042C73.4562 35.134 73.1762 34.826 73.0642 34.21C73.1202 30.43 73.1482 28.05 73.1482 27.07H73.0642C72.4902 27.126 72.0422 27.154 71.7202 27.154H71.3002C70.7402 27.07 70.4602 26.818 70.4602 26.398V26.146C70.4602 25.53 71.3562 25.222 73.1482 25.222C73.1482 25.012 73.1202 24.312 73.0642 23.122C73.1202 21.33 73.1482 20.294 73.1482 20.014C73.3162 19.51 73.6522 19.258 74.1562 19.258ZM80.7945 20.917H81.8865C83.0205 20.917 84.7285 20.945 87.0105 21.001C87.4585 21.141 87.6825 21.393 87.6825 21.757V22.177C87.4865 22.569 87.2065 22.765 86.8425 22.765H82.8105L81.8025 22.681V25.537H86.6745C87.3465 25.593 87.6825 25.873 87.6825 26.377V26.461C87.6825 27.077 87.2065 27.385 86.2545 27.385H81.8025V28.897C81.8025 29.261 81.8305 29.821 81.8865 30.577C82.1245 30.577 82.4325 30.605 82.8105 30.661L88.4385 30.409C88.8305 30.577 89.0265 30.829 89.0265 31.165V31.333C89.0265 32.005 88.1025 32.341 86.2545 32.341C84.9805 32.397 83.4685 32.425 81.7185 32.425H81.0465C80.3745 32.425 80.0385 31.697 80.0385 30.241C79.9825 29.667 79.9545 28.687 79.9545 27.301V22.513C79.9545 22.317 79.9265 22.065 79.8705 21.757C80.0245 21.197 80.3325 20.917 80.7945 20.917ZM92.3445 19.069C92.7085 19.069 93.0165 19.293 93.2685 19.741C93.3245 21.771 93.3525 23.227 93.3525 24.109V35.113C93.3525 35.841 93.0165 36.205 92.3445 36.205C91.7845 36.079 91.5045 35.715 91.5045 35.113V27.385H91.4205C89.0685 27.385 87.8925 27.217 87.8925 26.881L87.8085 26.461V26.377C87.9205 25.761 88.2285 25.453 88.7325 25.453C89.7265 25.509 90.5665 25.537 91.2525 25.537H91.5045V22.345C91.5045 21.827 91.4765 21.099 91.4205 20.161C91.5745 19.433 91.8825 19.069 92.3445 19.069ZM95.8884 20.182H101.684C102.468 20.182 102.86 20.546 102.86 21.274C102.678 21.778 102.37 22.03 101.936 22.03H100.004C99.7104 22.03 99.4584 22.002 99.2484 21.946C98.9544 22.002 98.6744 22.03 98.4084 22.03H96.8964L96.9804 22.45V23.5L97.4004 23.416H101.6C102.328 23.416 102.692 23.724 102.692 24.34C102.692 24.732 102.384 25.04 101.768 25.264C101.642 25.264 101.53 25.236 101.432 25.18C100.438 25.236 99.6264 25.264 98.9964 25.264H96.9804V26.86C97.5404 26.804 97.9604 26.776 98.2404 26.776H102.104C102.342 26.776 102.65 26.748 103.028 26.692C103.504 26.692 103.812 27.028 103.952 27.7C103.952 28.316 103.112 28.624 101.432 28.624H96.3084C95.5244 28.624 95.1324 28.12 95.1324 27.112V25.348C95.1324 25.11 95.1604 24.886 95.2164 24.676C95.1604 24.452 95.1324 24.228 95.1324 24.004V23.668C95.1324 22.828 95.1044 21.89 95.0484 20.854C95.2584 20.406 95.5384 20.182 95.8884 20.182ZM107.165 19.321H107.333C107.823 19.321 108.103 19.685 108.173 20.413V22.765C108.173 24.165 108.201 26.153 108.257 28.729C108.159 28.981 107.963 29.205 107.669 29.401H107.081C106.577 29.401 106.325 28.113 106.325 25.537V24.025L106.409 23.521C106.353 23.157 106.325 22.793 106.325 22.429V20.329C106.381 19.657 106.661 19.321 107.165 19.321ZM98.1984 30.094H99.2904C101.124 30.094 103.672 30.122 106.934 30.178C107.606 30.178 107.942 31.508 107.942 34.168C107.998 34.168 108.026 34.476 108.026 35.092C108.026 36.436 107.662 37.108 106.934 37.108H105.254C103.882 37.108 102.706 37.136 101.726 37.192C101.152 37.136 100.144 37.108 98.7024 37.108C97.6384 37.108 97.1064 36.772 97.1064 36.1V35.344C97.1064 35.05 97.0784 34.798 97.0224 34.588C97.0784 34.294 97.1064 33.664 97.1064 32.698V31.186C97.2884 30.458 97.6524 30.094 98.1984 30.094ZM98.9544 31.942C98.8984 33.566 98.8704 34.616 98.8704 35.092L98.9544 35.26C99.3464 35.26 100.102 35.288 101.222 35.344C103.756 35.288 105.408 35.26 106.178 35.26V35.176C106.178 34.462 106.122 33.412 106.01 32.026C105.478 32.026 103.714 31.97 100.718 31.858C99.8784 31.914 99.2904 31.942 98.9544 31.942ZM112.291 17.893H112.459C113.019 18.019 113.299 18.299 113.299 18.733C112.683 22.149 112.067 23.857 111.451 23.857H111.115C110.611 23.857 110.359 23.549 110.359 22.933C110.751 21.603 111.171 20.035 111.619 18.229C111.857 18.005 112.081 17.893 112.291 17.893ZM115.819 17.893H115.987C116.547 18.019 116.827 18.299 116.827 18.733C116.211 22.149 115.595 23.857 114.979 23.857H114.643C114.139 23.857 113.887 23.549 113.887 22.933C114.279 21.603 114.699 20.035 115.147 18.229C115.385 18.005 115.609 17.893 115.819 17.893ZM129.54 20.014C130.324 20.014 130.716 20.49 130.716 21.442C130.716 22.618 131.556 24.102 133.236 25.894C134.16 26.636 134.622 27.196 134.622 27.574V27.742C134.552 28.302 134.272 28.582 133.782 28.582H133.698C132.088 27.686 130.758 26.202 129.708 24.13H129.54C128.476 26.426 127.216 27.924 125.76 28.624H125.424C125.004 28.624 124.752 28.344 124.668 27.784C124.668 27.406 125.2 26.776 126.264 25.894C127.412 24.746 128.28 22.898 128.868 20.35C129.05 20.21 129.274 20.098 129.54 20.014ZM137.814 19.3C138.262 19.3 138.542 19.692 138.654 20.476V23.164C138.654 24.298 138.626 25.502 138.57 26.776C138.626 27.07 138.654 27.602 138.654 28.372C138.584 29.1 138.304 29.464 137.814 29.464H137.394C137.002 29.268 136.806 28.988 136.806 28.624V27.028C136.806 26.79 136.778 26.566 136.722 26.356C136.778 26.132 136.806 25.908 136.806 25.684V25.18H134.874C134.202 25.124 133.866 24.844 133.866 24.34V24.256C133.866 23.64 134.342 23.332 135.294 23.332H136.806V20.224C136.806 19.678 137.142 19.37 137.814 19.3ZM128.133 30.178C128.805 30.178 129.141 31.438 129.141 33.958V34.882H133.593C134.601 34.882 135.973 34.854 137.709 34.798C138.269 34.952 138.549 35.232 138.549 35.638V35.806C138.549 36.184 138.297 36.464 137.793 36.646C135.385 36.702 133.537 36.73 132.249 36.73H128.385C127.657 36.73 127.293 36.142 127.293 34.966C127.293 33.286 127.265 31.942 127.209 30.934C127.391 30.43 127.699 30.178 128.133 30.178ZM146.449 19.069H150.901C152.189 19.069 152.833 19.713 152.833 21.001V23.605C152.833 24.445 152.077 24.865 150.565 24.865C150.313 24.921 149.473 24.949 148.045 24.949C144.349 24.949 142.501 24.781 142.501 24.445L142.249 23.689C142.305 23.101 142.333 22.625 142.333 22.261C142.333 21.869 142.305 21.141 142.249 20.077C142.361 19.685 142.585 19.377 142.921 19.153C144.419 19.097 145.595 19.069 146.449 19.069ZM144.097 20.917V21.001C144.097 21.309 144.125 21.701 144.181 22.177C144.125 22.471 144.097 22.751 144.097 23.017C144.657 23.073 145.077 23.101 145.357 23.101H150.985V21.001C150.985 20.889 150.929 20.833 150.817 20.833H150.565C149.025 20.833 146.869 20.861 144.097 20.917ZM141.262 26.314C142.55 26.314 144.874 26.342 148.234 26.398C150.264 26.342 151.72 26.314 152.602 26.314V26.398L152.77 26.314C154.338 26.314 155.122 26.594 155.122 27.154V27.406C154.996 27.966 154.716 28.246 154.282 28.246C153.526 28.19 152.966 28.162 152.602 28.162H150.754C150.278 28.162 149.522 28.19 148.486 28.246V29.674C148.43 30.346 148.122 30.682 147.562 30.682C146.946 30.682 146.638 30.122 146.638 29.002V28.246C145.98 28.19 145.504 28.162 145.21 28.162H141.682C140.786 28.162 140.338 27.882 140.338 27.322V27.154C140.338 26.692 140.646 26.412 141.262 26.314ZM142.732 29.485H148.36C151.272 29.485 152.728 29.625 152.728 29.905C152.896 30.339 152.98 31.039 152.98 32.005C152.98 33.349 152.392 34.021 151.216 34.021C149.844 34.077 147.324 34.133 143.656 34.189V35.155H147.436C148.416 35.155 149.424 35.183 150.46 35.239C150.712 35.183 151.328 35.155 152.308 35.155C152.84 35.155 153.12 35.519 153.148 36.247C152.98 36.751 152.616 37.003 152.056 37.003H142.9C142.172 36.877 141.808 36.597 141.808 36.163L141.892 35.575V35.407C141.892 35.141 141.864 34.791 141.808 34.357C141.808 33.013 142.284 32.341 143.236 32.341C143.46 32.341 143.572 32.369 143.572 32.425C143.628 32.425 143.852 32.397 144.244 32.341C147.8 32.285 149.9 32.257 150.544 32.257L151.132 32.173V31.333C148.542 31.277 146.526 31.249 145.084 31.249H142.984C142.858 31.249 142.746 31.277 142.648 31.333C142.27 31.333 141.962 31.109 141.724 30.661V30.325C141.724 29.821 142.06 29.541 142.732 29.485ZM161.68 20.014C162.464 20.014 162.856 20.49 162.856 21.442C162.856 22.618 163.696 24.102 165.376 25.894C166.3 26.636 166.762 27.196 166.762 27.574V27.742C166.692 28.302 166.412 28.582 165.922 28.582H165.838C164.228 27.686 162.898 26.202 161.848 24.13H161.68C160.616 26.426 159.356 27.924 157.9 28.624H157.564C157.144 28.624 156.892 28.344 156.808 27.784C156.808 27.406 157.34 26.776 158.404 25.894C159.552 24.746 160.42 22.898 161.008 20.35C161.19 20.21 161.414 20.098 161.68 20.014ZM169.072 19.3C169.422 19.3 169.702 19.552 169.912 20.056C169.968 21.428 169.996 22.52 169.996 23.332V23.416H171.844C172.39 23.416 172.698 23.752 172.768 24.424C172.572 24.928 172.292 25.18 171.928 25.18H169.912V25.264C169.912 25.6 169.94 25.768 169.996 25.768L169.912 26.608V28.372C169.912 28.498 169.94 28.61 169.996 28.708C169.842 29.38 169.506 29.716 168.988 29.716C168.428 29.562 168.148 29.254 168.148 28.792V22.324C168.148 21.764 168.12 21.092 168.064 20.308C168.218 19.636 168.554 19.3 169.072 19.3ZM165.082 29.695C167.602 29.695 169.338 30.528 170.29 32.194C170.514 32.768 170.626 33.335 170.626 33.895C170.626 35.925 169.114 37.241 166.09 37.843H165.334C162.142 37.843 160.154 37.003 159.37 35.323C159.202 34.875 159.118 34.462 159.118 34.084V33.811C159.118 32.061 160.07 30.836 161.974 30.136C162.688 29.842 163.724 29.695 165.082 29.695ZM160.882 34.084C161.246 35.274 162.506 35.869 164.662 35.869H165.922C167.238 35.869 168.19 35.274 168.778 34.084V33.727C168.778 32.537 167.602 31.851 165.25 31.669H164.998C162.254 31.669 160.882 32.474 160.882 34.084ZM177.744 20.98C178.206 20.98 179.242 21.008 180.852 21.064C181.608 21.008 182.252 20.98 182.784 20.98C183.512 21.12 183.876 21.428 183.876 21.904C183.764 22.52 183.456 22.828 182.952 22.828H180.096L180.012 23.584C180.012 26.384 181.384 28.96 184.128 31.312C184.128 31.494 184.156 31.634 184.212 31.732C184.058 32.292 183.778 32.572 183.372 32.572H183.204C181.818 32.026 180.502 30.514 179.256 28.036L177.996 30.388C176.96 31.956 176.12 32.74 175.476 32.74H175.224C174.72 32.67 174.468 32.418 174.468 31.984V31.816C174.468 31.508 174.972 30.976 175.98 30.22C177.38 28.344 178.08 25.88 178.08 22.828H176.568C176.26 22.828 175.868 22.856 175.392 22.912C174.832 22.758 174.552 22.45 174.552 21.988C174.552 21.316 175.308 20.98 176.82 20.98H177.744ZM186.774 19.048C187.166 19.048 187.446 19.3 187.614 19.804C187.614 20.112 187.586 20.42 187.53 20.728C187.586 22.17 187.614 23.402 187.614 24.424V25.516H189.966C190.358 25.712 190.554 25.992 190.554 26.356C190.554 27.028 190.078 27.364 189.126 27.364H187.614V32.152C187.614 32.88 187.642 33.832 187.698 35.008C187.544 35.568 187.264 35.848 186.858 35.848H186.69C186.13 35.736 185.85 35.456 185.85 35.008C185.85 34.154 185.822 33.174 185.766 32.068C185.766 31.424 185.794 30.164 185.85 28.288C185.794 25.124 185.766 22.38 185.766 20.056C185.906 19.384 186.242 19.048 186.774 19.048ZM202.183 20.476C203.975 20.476 204.871 20.728 204.871 21.232C204.927 21.456 204.955 21.652 204.955 21.82C204.955 22.646 204.983 23.598 205.039 24.676C205.039 25.796 204.731 26.356 204.115 26.356H199.831C198.977 26.356 197.661 26.384 195.883 26.44V28.624C198.333 28.568 199.929 28.512 200.671 28.456C200.727 28.456 200.811 28.484 200.923 28.54C201.497 28.484 201.945 28.456 202.267 28.456H204.703C205.319 28.456 205.627 28.82 205.627 29.548C205.417 30.052 204.997 30.304 204.367 30.304C202.659 30.304 199.999 30.332 196.387 30.388L195.799 30.472C194.679 30.374 194.119 30.01 194.119 29.38V25.516C194.217 24.9 194.525 24.592 195.043 24.592H195.211C196.919 24.592 199.579 24.564 203.191 24.508V23.332L203.107 22.324H195.463L194.959 22.408C194.483 22.408 194.175 22.072 194.035 21.4C194.035 20.91 194.399 20.63 195.127 20.56C196.555 20.56 198.907 20.532 202.183 20.476ZM199.873 29.17C200.433 29.31 200.713 29.618 200.713 30.094L200.734 33.139H204.514C204.836 33.139 205.284 33.167 205.858 33.223C205.956 33.167 206.096 33.139 206.278 33.139C206.838 33.293 207.118 33.573 207.118 33.979V34.147C206.992 34.707 206.712 34.987 206.278 34.987C199.698 34.931 195.414 34.903 193.426 34.903C192.642 34.903 192.25 34.623 192.25 34.063V33.895C192.25 33.447 192.558 33.167 193.174 33.055H198.886C198.886 32.943 198.893 32.411 198.907 31.459C198.879 30.717 198.865 30.262 198.865 30.094C198.865 29.632 199.201 29.324 199.873 29.17ZM218.974 20.686C220.598 20.686 221.802 21.862 222.586 24.214C222.81 25.362 222.922 26.09 222.922 26.398V27.49C222.922 29.884 221.886 31.508 219.814 32.362C219.324 32.418 218.904 32.446 218.554 32.446C216.93 32.446 215.698 31.13 214.858 28.498C214.746 27.77 214.69 27.238 214.69 26.902C214.69 23.654 215.81 21.61 218.05 20.77C218.176 20.77 218.484 20.742 218.974 20.686ZM216.538 26.986V27.07C216.538 28.778 217.182 29.954 218.47 30.598H218.722C220.346 30.598 221.158 29.366 221.158 26.902C220.808 24.326 220.388 23.038 219.898 23.038C219.674 22.702 219.338 22.534 218.89 22.534H218.638C217.49 22.87 216.818 23.934 216.622 25.726C216.566 25.964 216.538 26.384 216.538 26.986ZM226.954 18.838C227.514 18.838 227.794 19.454 227.794 20.686C227.85 21.386 227.878 21.75 227.878 21.778C227.766 25.278 227.71 27.63 227.71 28.834C227.766 31.284 227.822 32.628 227.878 32.866C227.822 33.076 227.794 33.328 227.794 33.622V33.79C227.794 34.028 227.822 34.336 227.878 34.714C227.878 35.19 227.542 35.498 226.87 35.638C226.408 35.638 226.128 35.302 226.03 34.63C226.03 33.3 225.974 31.172 225.862 28.246C225.974 25.348 226.03 23.052 226.03 21.358C226.03 21.204 226.002 20.644 225.946 19.678C225.946 19.216 226.282 18.936 226.954 18.838ZM232.227 18.964H241.551C242.111 19.076 242.391 19.356 242.391 19.804V19.888C242.391 20.504 241.859 20.812 240.795 20.812L240.207 20.728C240.039 20.728 239.955 20.756 239.955 20.812C239.297 20.756 238.821 20.728 238.527 20.728H236.007C235.363 20.728 234.383 20.756 233.067 20.812C233.123 20.924 233.151 21.008 233.151 21.064C233.151 21.316 233.179 21.96 233.235 22.996L233.403 23.08H234.159C234.705 23.08 234.985 23.108 234.999 23.164C235.475 23.108 235.867 23.08 236.175 23.08H241.551C242.223 23.136 242.559 23.416 242.559 23.92V24.004C242.559 24.62 241.887 24.928 240.543 24.928H233.151C232.031 24.928 231.471 24.396 231.471 23.332C231.303 21.302 231.219 20.182 231.219 19.972C231.457 19.3 231.793 18.964 232.227 18.964ZM236.868 24.193H237.288C237.68 24.417 237.876 24.753 237.876 25.201V26.629H238.548C239.388 26.629 240.76 26.685 242.664 26.797L243.504 26.713C244.008 26.881 244.26 27.161 244.26 27.553V27.721C244.134 28.281 243.854 28.561 243.42 28.561C242.874 28.561 239.962 28.505 234.684 28.393C232.444 28.449 231.156 28.477 230.82 28.477C229.98 28.379 229.56 28.071 229.56 27.553V27.469C229.672 26.909 229.952 26.629 230.4 26.629C231.422 26.629 233.326 26.601 236.112 26.545L236.028 26.377V25.705C236.028 24.697 236.308 24.193 236.868 24.193ZM237.057 29.695C239.577 29.695 241.313 30.528 242.265 32.194C242.489 32.768 242.601 33.335 242.601 33.895C242.601 35.925 241.089 37.241 238.065 37.843H237.309C234.117 37.843 232.129 37.003 231.345 35.323C231.177 34.875 231.093 34.462 231.093 34.084V33.811C231.093 32.061 232.045 30.836 233.949 30.136C234.663 29.842 235.699 29.695 237.057 29.695ZM232.857 34.084C233.221 35.274 234.481 35.869 236.637 35.869H237.897C239.213 35.869 240.165 35.274 240.753 34.084V33.727C240.753 32.537 239.577 31.851 237.225 31.669H236.973C234.229 31.669 232.857 32.474 232.857 34.084ZM247.754 20.182C248.426 20.182 248.762 20.91 248.762 22.366V30.43C248.65 31.046 248.342 31.354 247.838 31.354C247.278 31.2 246.998 30.92 246.998 30.514C246.998 29.548 246.97 26.608 246.914 21.694L246.83 21.106C246.942 20.49 247.25 20.182 247.754 20.182ZM247.586 33.118H247.922C248.594 33.258 248.93 33.594 248.93 34.126V34.546C248.79 35.218 248.454 35.554 247.922 35.554H247.586C247.012 35.554 246.676 35.106 246.578 34.21C246.774 33.482 247.11 33.118 247.586 33.118Z" fill="black"/>
</svg>
