<svg width="152" height="45" viewBox="0 0 152 45" fill="none" xmlns="http://www.w3.org/2000/svg">
<g clip-path="url(#clip0_849_2965)">
<mask id="path-1-inside-1_849_2965" fill="white">
<path d="M143.878 44.3688C143.25 44.3688 143.25 44.5108 142.622 44.5108C141.994 44.5108 141.994 44.5187 141.366 44.5187C140.737 44.5187 140.737 44.3056 140.109 44.3056C139.481 44.3056 139.481 44.3451 138.853 44.3451C138.225 44.3451 138.225 44.2898 137.596 44.2898C136.968 44.2898 136.968 44.3924 136.34 44.3924C135.712 44.3924 135.712 44.1715 135.084 44.1715C134.455 44.1715 134.455 44.9527 133.827 44.9527C133.199 44.9527 133.199 44.9132 132.571 44.9132C131.943 44.9132 131.943 44.2504 131.315 44.2504C130.686 44.2504 130.686 44.2662 130.058 44.2662C129.43 44.2662 129.43 44.3845 128.802 44.3845C128.174 44.3845 128.174 44.8027 127.545 44.8027C126.917 44.8027 126.917 44.3214 126.289 44.3214C125.661 44.3214 125.661 44.6607 125.033 44.6607C124.404 44.6607 124.404 44.5108 123.776 44.5108C123.148 44.5108 123.148 44.4477 122.52 44.4477C121.892 44.4477 121.892 44.6291 121.263 44.6291C120.635 44.6291 120.635 44.787 120.007 44.787C119.379 44.787 119.379 44.9211 118.751 44.9211C118.123 44.9211 118.123 44.5345 117.494 44.5345C116.866 44.5345 116.866 44.1715 116.238 44.1715C115.61 44.1715 115.61 44.708 114.982 44.708C114.353 44.708 114.353 44.2267 113.725 44.2267C113.097 44.2267 113.097 44.4003 112.469 44.4003C111.841 44.4003 111.841 44.787 111.212 44.787C110.584 44.787 110.584 44.9132 109.956 44.9132C109.328 44.9132 109.328 44.282 108.7 44.282C108.071 44.282 108.071 44.4634 107.443 44.4634C106.815 44.4634 106.815 44.5502 106.187 44.5502C105.559 44.5502 105.559 44.2898 104.93 44.2898C104.302 44.2898 104.302 44.3056 103.674 44.3056C103.046 44.3056 103.046 44.9763 102.418 44.9763C101.79 44.9763 101.79 44.3688 101.161 44.3688C100.533 44.3688 100.533 44.9053 99.9049 44.9053C99.2767 44.9053 99.2768 44.3293 98.6486 44.3293C98.0204 44.3293 98.0204 44.7317 97.3922 44.7317C96.764 44.7317 96.764 44.9527 96.1358 44.9527C95.5076 44.9527 95.5076 44.5818 94.8794 44.5818C94.2512 44.5818 94.2512 44.9842 93.623 44.9842C92.9948 44.9842 92.9948 44.8895 92.3666 44.8895C91.7384 44.8895 91.7384 44.3372 91.1103 44.3372C90.4821 44.3372 90.4821 44.6449 89.8539 44.6449C89.2257 44.6449 89.2257 44.3214 88.5975 44.3214C87.9693 44.3214 87.9693 44.4871 87.3411 44.4871C86.7129 44.4871 86.7129 44.5266 86.0847 44.5266C85.4565 44.5266 85.4565 44.424 84.8283 44.424C84.2001 44.424 84.2001 44.2109 83.572 44.2109C82.9438 44.2109 82.9438 44.787 82.3156 44.787C81.6874 44.787 81.6874 44.2898 81.0592 44.2898C80.431 44.2898 80.431 44.9132 79.8028 44.9132C79.1746 44.9132 79.1746 44.9605 78.5464 44.9605C77.9182 44.9605 77.9182 44.7159 77.29 44.7159C76.6618 44.7159 76.6618 44.5739 76.0336 44.5739C75.4055 44.5739 75.4055 44.8816 74.7773 44.8816C74.1491 44.8816 74.1491 44.7948 73.5209 44.7948C72.8927 44.7948 72.8927 44.495 72.2645 44.495C71.6363 44.495 71.6363 44.2741 71.0081 44.2741C70.3799 44.2741 70.3799 44.2741 69.7517 44.2741C69.1235 44.2741 69.1235 44.2109 68.4954 44.2109C67.8672 44.2109 67.8672 44.929 67.2334 44.929C66.5996 44.929 66.6052 44.4871 65.977 44.4871C65.3488 44.4871 65.3488 44.2267 64.7206 44.2267C64.0924 44.2267 64.0924 44.6607 63.4642 44.6607C62.836 44.6607 62.836 44.9527 62.2078 44.9527C61.5796 44.9527 61.5796 44.8974 60.9514 44.8974C60.3232 44.8974 60.3232 44.8343 59.6951 44.8343C59.0669 44.8343 59.0669 44.9448 58.4387 44.9448C57.8105 44.9448 57.8105 44.4792 57.1767 44.4792C56.5429 44.4792 56.5485 44.424 55.9203 44.424C55.2921 44.424 55.2921 44.4319 54.6639 44.4319C54.0357 44.4319 54.0357 44.2109 53.4075 44.2109C52.7793 44.2109 52.7793 44.8185 52.1511 44.8185C51.5229 44.8185 51.5229 44.2267 50.8891 44.2267C50.2553 44.2267 50.261 44.1873 49.6328 44.1873C49.0046 44.1873 49.0046 44.9842 48.3764 44.9842C47.7482 44.9842 47.7482 44.5739 47.12 44.5739C46.4918 44.5739 46.4918 44.8737 45.8636 44.8737C45.2354 44.8737 45.2354 44.6686 44.6016 44.6686C43.9678 44.6686 43.9734 44.4634 43.3452 44.4634C42.717 44.4634 42.717 44.353 42.0889 44.353C41.4607 44.353 41.4607 45 40.8269 45C40.1931 45 40.1987 44.9211 39.5649 44.9211C38.9311 44.9211 38.9367 44.2031 38.3085 44.2031C37.6803 44.2031 37.6803 44.7238 37.0465 44.7238C36.4127 44.7238 36.4183 44.4634 35.7845 44.4634C35.1507 44.4634 35.1563 44.5976 34.5281 44.5976C33.8999 44.5976 33.8999 44.3766 33.2717 44.3766C32.6435 44.3766 32.6435 44.7238 32.0153 44.7238C31.3872 44.7238 31.3872 44.8106 30.7534 44.8106C30.1196 44.8106 30.1252 44.9211 29.4914 44.9211C28.8576 44.9211 28.8632 44.8816 28.235 44.8816C27.6068 44.8816 27.6068 44.9132 26.9786 44.9132C26.3504 44.9132 26.3504 44.787 25.7166 44.787C25.0828 44.787 25.0884 44.858 24.4602 44.858C23.832 44.858 23.832 44.3214 23.1982 44.3214C22.5644 44.3214 22.57 44.4871 21.9362 44.4871C21.3024 44.4871 21.308 44.4398 20.6742 44.4398C20.0404 44.4398 20.0461 44.5818 19.4123 44.5818C18.7785 44.5818 18.7841 44.6134 18.1503 44.6134C17.5165 44.6134 17.5221 44.8659 16.8883 44.8659C16.2545 44.8659 16.2601 44.2188 15.6319 44.2188C15.0037 44.2188 15.0037 44.6923 14.3699 44.6923C13.7361 44.6923 13.7417 44.5187 13.1079 44.5187C12.4741 44.5187 12.4741 44.2109 11.8459 44.2109C11.2177 44.2109 11.2121 44.2425 10.5839 44.2425C9.95572 44.2425 9.95011 44.1952 9.32192 44.1952C8.69373 44.1952 8.68812 44.5108 8.05993 44.5108C7.64487 44.5108 7.22421 44.6291 6.83159 44.5423C6.43897 44.4556 6.02952 44.2504 5.64812 44.0768C5.26672 43.9032 4.98627 43.3666 4.62731 43.1063C4.26834 42.8459 3.89255 42.6644 3.56723 42.3251C3.24192 41.9858 2.70347 41.97 2.41742 41.5597C2.13137 41.1494 1.76679 40.7628 1.52561 40.2972C1.28443 39.8317 1.34613 39.0742 1.16103 38.5613C0.975941 38.0484 0.549668 37.6539 0.426273 37.1015C0.302878 36.5492 0.58893 35.8627 0.527232 35.2867C0.465535 34.7107 0.314096 34.1899 0.314096 33.606C0.314096 32.7538 0.521624 32.7538 0.521624 31.8937C0.521624 31.0337 0.235572 31.0415 0.235572 30.1815C0.235572 29.3214 0 29.3214 0 28.4692C0 27.6171 0.353358 27.617 0.353358 26.757C0.353358 25.8969 0.437491 25.8969 0.437491 25.0447C0.437491 24.1925 0.381402 24.1846 0.381402 23.3325C0.381402 22.4803 0.241181 22.4803 0.241181 21.6202C0.241181 20.7601 0.403838 20.768 0.403838 19.9079C0.403838 19.0479 0.039262 19.0479 0.039262 18.1957C0.039262 17.3435 0.459926 17.3356 0.459926 16.4834C0.459926 15.6313 0.420664 15.6233 0.420664 14.7712C0.420664 13.919 0.308487 13.9111 0.308487 13.051C0.308487 12.191 0.140221 12.1909 0.140221 11.3309C0.140221 10.747 0.482362 10.2104 0.549668 9.65018C0.616974 9.08996 0.830111 8.60862 0.953505 8.07207C1.0769 7.53551 1.12738 6.99105 1.31247 6.47817C1.49756 5.96528 1.67705 5.49184 1.91823 5.03419C2.15941 4.57654 2.17063 3.82693 2.45668 3.42451C2.74273 3.0221 3.34288 3.14045 3.6738 2.80116C4.00472 2.46186 4.20664 1.90163 4.57122 1.64124C4.93579 1.38085 5.32841 1.28616 5.72103 1.11257C6.11365 0.93898 6.46701 0.725933 6.87646 0.631247C7.2859 0.53656 7.66731 0.189374 8.08236 0.189374C8.71055 0.189374 8.71055 0.0157812 9.33875 0.0157812C9.96694 0.0157812 9.96694 0.599684 10.5951 0.599684C11.2233 0.599684 11.2233 0.568122 11.8515 0.568122C12.4797 0.568122 12.4797 0.441873 13.1079 0.441873C13.7361 0.441873 13.7361 0.0789059 14.3643 0.0789059C14.9925 0.0789059 14.9925 0.54445 15.6207 0.54445C16.2489 0.54445 16.2489 0.639137 16.877 0.639137C17.5052 0.639137 17.5052 0.331405 18.1334 0.331405C18.7616 0.331405 18.7616 0.118359 19.3898 0.118359C20.018 0.118359 20.018 0.189374 20.6462 0.189374C21.2744 0.189374 21.2744 0.639137 21.9026 0.639137C22.5308 0.639137 22.5308 0.757496 23.159 0.757496C23.7872 0.757496 23.7872 0.355076 24.4153 0.355076C25.0435 0.355076 25.0435 0.441873 25.6717 0.441873C26.2999 0.441873 26.2999 0.497107 26.9281 0.497107C27.5563 0.497107 27.5563 0.291952 28.1845 0.291952C28.8127 0.291952 28.8127 0.718043 29.4409 0.718043C30.0691 0.718043 30.0691 0.41031 30.6973 0.41031C31.3255 0.41031 31.3255 0.473435 31.9537 0.473435C32.5818 0.473435 32.5818 0.40242 33.21 0.40242C33.8382 0.40242 33.8382 0.0631247 34.4664 0.0631247C35.0946 0.0631247 35.0946 0.441873 35.7228 0.441873C36.351 0.441873 36.351 0.607575 36.9792 0.607575C37.6074 0.607575 37.6074 0.560231 38.2356 0.560231C38.8638 0.560231 38.8638 0.0867964 39.492 0.0867964C40.1201 0.0867964 40.1201 0.378748 40.7483 0.378748C41.3765 0.378748 41.3765 0.512888 42.0047 0.512888C42.6329 0.512888 42.6329 0.102578 43.2611 0.102578C43.8893 0.102578 43.8893 0.0473435 44.5175 0.0473435C45.1457 0.0473435 45.1457 0.433982 45.7739 0.433982C46.4021 0.433982 46.4021 0.27617 47.0303 0.27617C47.6584 0.27617 47.6584 0.686481 48.2866 0.686481C48.9148 0.686481 48.9148 0.244608 49.543 0.244608C50.1712 0.244608 50.1712 0.0473435 50.7994 0.0473435C51.4276 0.0473435 51.4276 0.481326 52.0558 0.481326C52.684 0.481326 52.684 0.0867964 53.3122 0.0867964C53.9404 0.0867964 53.9404 0.741715 54.5686 0.741715C55.1968 0.741715 55.1968 0.386639 55.8249 0.386639C56.4531 0.386639 56.4531 0.244608 57.0813 0.244608C57.7095 0.244608 57.7095 0.639137 58.3377 0.639137C58.9659 0.639137 58.9659 0.0867964 59.5941 0.0867964C60.2223 0.0867964 60.2223 0.67859 60.8505 0.67859C61.4787 0.67859 61.4787 0.702262 62.1069 0.702262C62.7351 0.702262 62.7351 0.315623 63.3632 0.315623C63.9914 0.315623 63.9914 0.394529 64.6196 0.394529C65.2478 0.394529 65.2478 0.126249 65.876 0.126249C66.5042 0.126249 66.5042 0.142031 67.1324 0.142031C67.7606 0.142031 67.7606 0.765387 68.3888 0.765387C69.017 0.765387 69.017 0.418201 69.6452 0.418201C70.2734 0.418201 70.2734 0.54445 70.9015 0.54445C71.5297 0.54445 71.5297 0.80484 72.1579 0.80484C72.7861 0.80484 72.7861 0.181483 73.4143 0.181483C74.0425 0.181483 74.0425 0.0157812 74.6707 0.0157812C75.2989 0.0157812 75.2989 0.307733 75.9271 0.307733C76.5553 0.307733 76.5553 0.13414 77.1835 0.13414C77.8117 0.13414 77.8117 0.41031 78.4399 0.41031C79.068 0.41031 79.068 0.307733 79.6962 0.307733C80.3244 0.307733 80.3244 0.291952 80.9526 0.291952C81.5808 0.291952 81.5808 0 82.209 0C82.8372 0 82.8372 0.26828 83.4654 0.26828C84.0936 0.26828 84.0936 0.568122 84.7274 0.568122C85.3612 0.568122 85.3556 0.323514 85.9838 0.323514C86.612 0.323514 86.612 0.725934 87.2401 0.725934C87.8683 0.725934 87.8683 0.260389 88.4965 0.260389C89.1247 0.260389 89.1247 0.213046 89.7529 0.213046C90.3811 0.213046 90.3811 0.189374 91.0093 0.189374C91.6375 0.189374 91.6375 0.702262 92.2657 0.702262C92.8939 0.702262 92.8939 0.142031 93.5221 0.142031C94.1503 0.142031 94.1503 0.0157812 94.7841 0.0157812C95.4179 0.0157812 95.4122 0.718043 96.0404 0.718043C96.6686 0.718043 96.6686 0.757496 97.2968 0.757496C97.925 0.757496 97.925 0.694371 98.5532 0.694371C99.1814 0.694371 99.1814 0.654918 99.8096 0.654918C100.438 0.654918 100.438 0.126249 101.072 0.126249C101.705 0.126249 101.7 0.0315624 102.328 0.0315624C102.956 0.0315624 102.956 0.718043 103.584 0.718043C104.213 0.718043 104.213 0.497107 104.841 0.497107C105.469 0.497107 105.469 0.0236717 106.097 0.0236717C106.725 0.0236717 106.725 0.386639 107.359 0.386639C107.993 0.386639 107.987 0.504997 108.615 0.504997C109.244 0.504997 109.244 0 109.872 0C110.5 0 110.5 0.0315624 111.134 0.0315624C111.768 0.0315624 111.762 0.0789059 112.396 0.0789059C113.03 0.0789059 113.024 0.189374 113.652 0.189374C114.28 0.189374 114.28 0.126249 114.914 0.126249C115.548 0.126249 115.542 0.441873 116.176 0.441873C116.81 0.441873 116.804 0.647028 117.433 0.647028C118.061 0.647028 118.061 0.197265 118.689 0.197265C119.317 0.197265 119.317 0.639137 119.945 0.639137C120.574 0.639137 120.574 0.576013 121.207 0.576013C121.841 0.576013 121.836 0.0552341 122.469 0.0552341C123.103 0.0552341 123.098 0.426091 123.726 0.426091C124.354 0.426091 124.354 0.765387 124.982 0.765387C125.61 0.765387 125.61 0.142031 126.244 0.142031C126.878 0.142031 126.872 0.197265 127.501 0.197265C128.129 0.197265 128.129 0.457654 128.762 0.457654C129.396 0.457654 129.391 0.552341 130.024 0.552341C130.658 0.552341 130.653 0.757496 131.286 0.757496C131.92 0.757496 131.915 0.291952 132.548 0.291952C133.182 0.291952 133.177 0.0394529 133.81 0.0394529C134.444 0.0394529 134.439 0.394529 135.072 0.394529C135.706 0.394529 135.701 0.418201 136.329 0.418201C136.957 0.418201 136.957 0.615466 137.591 0.615466C138.225 0.615466 138.219 0.13414 138.853 0.13414C139.487 0.13414 139.487 0.142031 140.115 0.142031C140.743 0.142031 140.749 0.142031 141.377 0.142031C142.005 0.142031 142.011 0.252499 142.639 0.252499C143.267 0.252499 143.273 0.694371 143.901 0.694371C144.316 0.694371 144.686 0.820621 145.079 0.907417C145.471 0.994213 145.926 0.757497 146.313 0.931089C146.7 1.10468 147.07 1.36507 147.434 1.62546C147.799 1.88585 148.135 2.20147 148.466 2.54077C148.797 2.88006 149.128 3.21147 149.42 3.62178C149.712 4.03208 149.942 4.50553 150.183 4.97107C150.424 5.43661 150.581 5.95739 150.766 6.47028C150.951 6.98316 150.951 7.55918 151.075 8.11152C151.198 8.66386 151.523 9.10574 151.591 9.67386C151.658 10.242 151.619 10.8022 151.619 11.3861C151.619 12.2383 151.877 12.2383 151.877 13.0984C151.877 13.9584 151.826 13.9506 151.826 14.8106C151.826 15.6707 151.893 15.6707 151.893 16.5229C151.893 17.3751 152 17.3751 152 18.2351C152 19.0952 151.45 19.0952 151.45 19.9474C151.45 20.7996 151.568 20.8075 151.568 21.6597C151.568 22.5118 151.725 22.5118 151.725 23.3719C151.725 24.232 151.647 24.2241 151.647 25.0842C151.647 25.9442 151.686 25.9442 151.686 26.7964C151.686 27.6486 151.439 27.6565 151.439 28.5087C151.439 29.3609 151.417 29.3688 151.417 30.2209C151.417 31.0731 151.938 31.081 151.938 31.9411C151.938 32.8011 151.692 32.8012 151.692 33.6612C151.692 34.2451 151.837 34.8527 151.776 35.4129C151.714 35.9732 151.529 36.5492 151.4 37.0857C151.271 37.6223 150.783 37.9537 150.603 38.4587C150.424 38.9637 150.222 39.4056 149.981 39.8632C149.74 40.3209 149.504 40.7154 149.218 41.1257C148.932 41.536 148.966 42.475 148.635 42.8143C148.304 43.1536 147.922 43.4771 147.558 43.7375C147.193 43.9979 146.621 43.5481 146.234 43.7296C145.847 43.9111 145.499 44.0847 145.095 44.1794C144.692 44.2741 144.327 44.4003 143.912 44.4003L143.878 44.3688Z"/>
</mask>
<path d="M143.878 44.3688C143.25 44.3688 143.25 44.5108 142.622 44.5108C141.994 44.5108 141.994 44.5187 141.366 44.5187C140.737 44.5187 140.737 44.3056 140.109 44.3056C139.481 44.3056 139.481 44.3451 138.853 44.3451C138.225 44.3451 138.225 44.2898 137.596 44.2898C136.968 44.2898 136.968 44.3924 136.34 44.3924C135.712 44.3924 135.712 44.1715 135.084 44.1715C134.455 44.1715 134.455 44.9527 133.827 44.9527C133.199 44.9527 133.199 44.9132 132.571 44.9132C131.943 44.9132 131.943 44.2504 131.315 44.2504C130.686 44.2504 130.686 44.2662 130.058 44.2662C129.43 44.2662 129.43 44.3845 128.802 44.3845C128.174 44.3845 128.174 44.8027 127.545 44.8027C126.917 44.8027 126.917 44.3214 126.289 44.3214C125.661 44.3214 125.661 44.6607 125.033 44.6607C124.404 44.6607 124.404 44.5108 123.776 44.5108C123.148 44.5108 123.148 44.4477 122.52 44.4477C121.892 44.4477 121.892 44.6291 121.263 44.6291C120.635 44.6291 120.635 44.787 120.007 44.787C119.379 44.787 119.379 44.9211 118.751 44.9211C118.123 44.9211 118.123 44.5345 117.494 44.5345C116.866 44.5345 116.866 44.1715 116.238 44.1715C115.61 44.1715 115.61 44.708 114.982 44.708C114.353 44.708 114.353 44.2267 113.725 44.2267C113.097 44.2267 113.097 44.4003 112.469 44.4003C111.841 44.4003 111.841 44.787 111.212 44.787C110.584 44.787 110.584 44.9132 109.956 44.9132C109.328 44.9132 109.328 44.282 108.7 44.282C108.071 44.282 108.071 44.4634 107.443 44.4634C106.815 44.4634 106.815 44.5502 106.187 44.5502C105.559 44.5502 105.559 44.2898 104.93 44.2898C104.302 44.2898 104.302 44.3056 103.674 44.3056C103.046 44.3056 103.046 44.9763 102.418 44.9763C101.79 44.9763 101.79 44.3688 101.161 44.3688C100.533 44.3688 100.533 44.9053 99.9049 44.9053C99.2767 44.9053 99.2768 44.3293 98.6486 44.3293C98.0204 44.3293 98.0204 44.7317 97.3922 44.7317C96.764 44.7317 96.764 44.9527 96.1358 44.9527C95.5076 44.9527 95.5076 44.5818 94.8794 44.5818C94.2512 44.5818 94.2512 44.9842 93.623 44.9842C92.9948 44.9842 92.9948 44.8895 92.3666 44.8895C91.7384 44.8895 91.7384 44.3372 91.1103 44.3372C90.4821 44.3372 90.4821 44.6449 89.8539 44.6449C89.2257 44.6449 89.2257 44.3214 88.5975 44.3214C87.9693 44.3214 87.9693 44.4871 87.3411 44.4871C86.7129 44.4871 86.7129 44.5266 86.0847 44.5266C85.4565 44.5266 85.4565 44.424 84.8283 44.424C84.2001 44.424 84.2001 44.2109 83.572 44.2109C82.9438 44.2109 82.9438 44.787 82.3156 44.787C81.6874 44.787 81.6874 44.2898 81.0592 44.2898C80.431 44.2898 80.431 44.9132 79.8028 44.9132C79.1746 44.9132 79.1746 44.9605 78.5464 44.9605C77.9182 44.9605 77.9182 44.7159 77.29 44.7159C76.6618 44.7159 76.6618 44.5739 76.0336 44.5739C75.4055 44.5739 75.4055 44.8816 74.7773 44.8816C74.1491 44.8816 74.1491 44.7948 73.5209 44.7948C72.8927 44.7948 72.8927 44.495 72.2645 44.495C71.6363 44.495 71.6363 44.2741 71.0081 44.2741C70.3799 44.2741 70.3799 44.2741 69.7517 44.2741C69.1235 44.2741 69.1235 44.2109 68.4954 44.2109C67.8672 44.2109 67.8672 44.929 67.2334 44.929C66.5996 44.929 66.6052 44.4871 65.977 44.4871C65.3488 44.4871 65.3488 44.2267 64.7206 44.2267C64.0924 44.2267 64.0924 44.6607 63.4642 44.6607C62.836 44.6607 62.836 44.9527 62.2078 44.9527C61.5796 44.9527 61.5796 44.8974 60.9514 44.8974C60.3232 44.8974 60.3232 44.8343 59.6951 44.8343C59.0669 44.8343 59.0669 44.9448 58.4387 44.9448C57.8105 44.9448 57.8105 44.4792 57.1767 44.4792C56.5429 44.4792 56.5485 44.424 55.9203 44.424C55.2921 44.424 55.2921 44.4319 54.6639 44.4319C54.0357 44.4319 54.0357 44.2109 53.4075 44.2109C52.7793 44.2109 52.7793 44.8185 52.1511 44.8185C51.5229 44.8185 51.5229 44.2267 50.8891 44.2267C50.2553 44.2267 50.261 44.1873 49.6328 44.1873C49.0046 44.1873 49.0046 44.9842 48.3764 44.9842C47.7482 44.9842 47.7482 44.5739 47.12 44.5739C46.4918 44.5739 46.4918 44.8737 45.8636 44.8737C45.2354 44.8737 45.2354 44.6686 44.6016 44.6686C43.9678 44.6686 43.9734 44.4634 43.3452 44.4634C42.717 44.4634 42.717 44.353 42.0889 44.353C41.4607 44.353 41.4607 45 40.8269 45C40.1931 45 40.1987 44.9211 39.5649 44.9211C38.9311 44.9211 38.9367 44.2031 38.3085 44.2031C37.6803 44.2031 37.6803 44.7238 37.0465 44.7238C36.4127 44.7238 36.4183 44.4634 35.7845 44.4634C35.1507 44.4634 35.1563 44.5976 34.5281 44.5976C33.8999 44.5976 33.8999 44.3766 33.2717 44.3766C32.6435 44.3766 32.6435 44.7238 32.0153 44.7238C31.3872 44.7238 31.3872 44.8106 30.7534 44.8106C30.1196 44.8106 30.1252 44.9211 29.4914 44.9211C28.8576 44.9211 28.8632 44.8816 28.235 44.8816C27.6068 44.8816 27.6068 44.9132 26.9786 44.9132C26.3504 44.9132 26.3504 44.787 25.7166 44.787C25.0828 44.787 25.0884 44.858 24.4602 44.858C23.832 44.858 23.832 44.3214 23.1982 44.3214C22.5644 44.3214 22.57 44.4871 21.9362 44.4871C21.3024 44.4871 21.308 44.4398 20.6742 44.4398C20.0404 44.4398 20.0461 44.5818 19.4123 44.5818C18.7785 44.5818 18.7841 44.6134 18.1503 44.6134C17.5165 44.6134 17.5221 44.8659 16.8883 44.8659C16.2545 44.8659 16.2601 44.2188 15.6319 44.2188C15.0037 44.2188 15.0037 44.6923 14.3699 44.6923C13.7361 44.6923 13.7417 44.5187 13.1079 44.5187C12.4741 44.5187 12.4741 44.2109 11.8459 44.2109C11.2177 44.2109 11.2121 44.2425 10.5839 44.2425C9.95572 44.2425 9.95011 44.1952 9.32192 44.1952C8.69373 44.1952 8.68812 44.5108 8.05993 44.5108C7.64487 44.5108 7.22421 44.6291 6.83159 44.5423C6.43897 44.4556 6.02952 44.2504 5.64812 44.0768C5.26672 43.9032 4.98627 43.3666 4.62731 43.1063C4.26834 42.8459 3.89255 42.6644 3.56723 42.3251C3.24192 41.9858 2.70347 41.97 2.41742 41.5597C2.13137 41.1494 1.76679 40.7628 1.52561 40.2972C1.28443 39.8317 1.34613 39.0742 1.16103 38.5613C0.975941 38.0484 0.549668 37.6539 0.426273 37.1015C0.302878 36.5492 0.58893 35.8627 0.527232 35.2867C0.465535 34.7107 0.314096 34.1899 0.314096 33.606C0.314096 32.7538 0.521624 32.7538 0.521624 31.8937C0.521624 31.0337 0.235572 31.0415 0.235572 30.1815C0.235572 29.3214 0 29.3214 0 28.4692C0 27.6171 0.353358 27.617 0.353358 26.757C0.353358 25.8969 0.437491 25.8969 0.437491 25.0447C0.437491 24.1925 0.381402 24.1846 0.381402 23.3325C0.381402 22.4803 0.241181 22.4803 0.241181 21.6202C0.241181 20.7601 0.403838 20.768 0.403838 19.9079C0.403838 19.0479 0.039262 19.0479 0.039262 18.1957C0.039262 17.3435 0.459926 17.3356 0.459926 16.4834C0.459926 15.6313 0.420664 15.6233 0.420664 14.7712C0.420664 13.919 0.308487 13.9111 0.308487 13.051C0.308487 12.191 0.140221 12.1909 0.140221 11.3309C0.140221 10.747 0.482362 10.2104 0.549668 9.65018C0.616974 9.08996 0.830111 8.60862 0.953505 8.07207C1.0769 7.53551 1.12738 6.99105 1.31247 6.47817C1.49756 5.96528 1.67705 5.49184 1.91823 5.03419C2.15941 4.57654 2.17063 3.82693 2.45668 3.42451C2.74273 3.0221 3.34288 3.14045 3.6738 2.80116C4.00472 2.46186 4.20664 1.90163 4.57122 1.64124C4.93579 1.38085 5.32841 1.28616 5.72103 1.11257C6.11365 0.93898 6.46701 0.725933 6.87646 0.631247C7.2859 0.53656 7.66731 0.189374 8.08236 0.189374C8.71055 0.189374 8.71055 0.0157812 9.33875 0.0157812C9.96694 0.0157812 9.96694 0.599684 10.5951 0.599684C11.2233 0.599684 11.2233 0.568122 11.8515 0.568122C12.4797 0.568122 12.4797 0.441873 13.1079 0.441873C13.7361 0.441873 13.7361 0.0789059 14.3643 0.0789059C14.9925 0.0789059 14.9925 0.54445 15.6207 0.54445C16.2489 0.54445 16.2489 0.639137 16.877 0.639137C17.5052 0.639137 17.5052 0.331405 18.1334 0.331405C18.7616 0.331405 18.7616 0.118359 19.3898 0.118359C20.018 0.118359 20.018 0.189374 20.6462 0.189374C21.2744 0.189374 21.2744 0.639137 21.9026 0.639137C22.5308 0.639137 22.5308 0.757496 23.159 0.757496C23.7872 0.757496 23.7872 0.355076 24.4153 0.355076C25.0435 0.355076 25.0435 0.441873 25.6717 0.441873C26.2999 0.441873 26.2999 0.497107 26.9281 0.497107C27.5563 0.497107 27.5563 0.291952 28.1845 0.291952C28.8127 0.291952 28.8127 0.718043 29.4409 0.718043C30.0691 0.718043 30.0691 0.41031 30.6973 0.41031C31.3255 0.41031 31.3255 0.473435 31.9537 0.473435C32.5818 0.473435 32.5818 0.40242 33.21 0.40242C33.8382 0.40242 33.8382 0.0631247 34.4664 0.0631247C35.0946 0.0631247 35.0946 0.441873 35.7228 0.441873C36.351 0.441873 36.351 0.607575 36.9792 0.607575C37.6074 0.607575 37.6074 0.560231 38.2356 0.560231C38.8638 0.560231 38.8638 0.0867964 39.492 0.0867964C40.1201 0.0867964 40.1201 0.378748 40.7483 0.378748C41.3765 0.378748 41.3765 0.512888 42.0047 0.512888C42.6329 0.512888 42.6329 0.102578 43.2611 0.102578C43.8893 0.102578 43.8893 0.0473435 44.5175 0.0473435C45.1457 0.0473435 45.1457 0.433982 45.7739 0.433982C46.4021 0.433982 46.4021 0.27617 47.0303 0.27617C47.6584 0.27617 47.6584 0.686481 48.2866 0.686481C48.9148 0.686481 48.9148 0.244608 49.543 0.244608C50.1712 0.244608 50.1712 0.0473435 50.7994 0.0473435C51.4276 0.0473435 51.4276 0.481326 52.0558 0.481326C52.684 0.481326 52.684 0.0867964 53.3122 0.0867964C53.9404 0.0867964 53.9404 0.741715 54.5686 0.741715C55.1968 0.741715 55.1968 0.386639 55.8249 0.386639C56.4531 0.386639 56.4531 0.244608 57.0813 0.244608C57.7095 0.244608 57.7095 0.639137 58.3377 0.639137C58.9659 0.639137 58.9659 0.0867964 59.5941 0.0867964C60.2223 0.0867964 60.2223 0.67859 60.8505 0.67859C61.4787 0.67859 61.4787 0.702262 62.1069 0.702262C62.7351 0.702262 62.7351 0.315623 63.3632 0.315623C63.9914 0.315623 63.9914 0.394529 64.6196 0.394529C65.2478 0.394529 65.2478 0.126249 65.876 0.126249C66.5042 0.126249 66.5042 0.142031 67.1324 0.142031C67.7606 0.142031 67.7606 0.765387 68.3888 0.765387C69.017 0.765387 69.017 0.418201 69.6452 0.418201C70.2734 0.418201 70.2734 0.54445 70.9015 0.54445C71.5297 0.54445 71.5297 0.80484 72.1579 0.80484C72.7861 0.80484 72.7861 0.181483 73.4143 0.181483C74.0425 0.181483 74.0425 0.0157812 74.6707 0.0157812C75.2989 0.0157812 75.2989 0.307733 75.9271 0.307733C76.5553 0.307733 76.5553 0.13414 77.1835 0.13414C77.8117 0.13414 77.8117 0.41031 78.4399 0.41031C79.068 0.41031 79.068 0.307733 79.6962 0.307733C80.3244 0.307733 80.3244 0.291952 80.9526 0.291952C81.5808 0.291952 81.5808 0 82.209 0C82.8372 0 82.8372 0.26828 83.4654 0.26828C84.0936 0.26828 84.0936 0.568122 84.7274 0.568122C85.3612 0.568122 85.3556 0.323514 85.9838 0.323514C86.612 0.323514 86.612 0.725934 87.2401 0.725934C87.8683 0.725934 87.8683 0.260389 88.4965 0.260389C89.1247 0.260389 89.1247 0.213046 89.7529 0.213046C90.3811 0.213046 90.3811 0.189374 91.0093 0.189374C91.6375 0.189374 91.6375 0.702262 92.2657 0.702262C92.8939 0.702262 92.8939 0.142031 93.5221 0.142031C94.1503 0.142031 94.1503 0.0157812 94.7841 0.0157812C95.4179 0.0157812 95.4122 0.718043 96.0404 0.718043C96.6686 0.718043 96.6686 0.757496 97.2968 0.757496C97.925 0.757496 97.925 0.694371 98.5532 0.694371C99.1814 0.694371 99.1814 0.654918 99.8096 0.654918C100.438 0.654918 100.438 0.126249 101.072 0.126249C101.705 0.126249 101.7 0.0315624 102.328 0.0315624C102.956 0.0315624 102.956 0.718043 103.584 0.718043C104.213 0.718043 104.213 0.497107 104.841 0.497107C105.469 0.497107 105.469 0.0236717 106.097 0.0236717C106.725 0.0236717 106.725 0.386639 107.359 0.386639C107.993 0.386639 107.987 0.504997 108.615 0.504997C109.244 0.504997 109.244 0 109.872 0C110.5 0 110.5 0.0315624 111.134 0.0315624C111.768 0.0315624 111.762 0.0789059 112.396 0.0789059C113.03 0.0789059 113.024 0.189374 113.652 0.189374C114.28 0.189374 114.28 0.126249 114.914 0.126249C115.548 0.126249 115.542 0.441873 116.176 0.441873C116.81 0.441873 116.804 0.647028 117.433 0.647028C118.061 0.647028 118.061 0.197265 118.689 0.197265C119.317 0.197265 119.317 0.639137 119.945 0.639137C120.574 0.639137 120.574 0.576013 121.207 0.576013C121.841 0.576013 121.836 0.0552341 122.469 0.0552341C123.103 0.0552341 123.098 0.426091 123.726 0.426091C124.354 0.426091 124.354 0.765387 124.982 0.765387C125.61 0.765387 125.61 0.142031 126.244 0.142031C126.878 0.142031 126.872 0.197265 127.501 0.197265C128.129 0.197265 128.129 0.457654 128.762 0.457654C129.396 0.457654 129.391 0.552341 130.024 0.552341C130.658 0.552341 130.653 0.757496 131.286 0.757496C131.92 0.757496 131.915 0.291952 132.548 0.291952C133.182 0.291952 133.177 0.0394529 133.81 0.0394529C134.444 0.0394529 134.439 0.394529 135.072 0.394529C135.706 0.394529 135.701 0.418201 136.329 0.418201C136.957 0.418201 136.957 0.615466 137.591 0.615466C138.225 0.615466 138.219 0.13414 138.853 0.13414C139.487 0.13414 139.487 0.142031 140.115 0.142031C140.743 0.142031 140.749 0.142031 141.377 0.142031C142.005 0.142031 142.011 0.252499 142.639 0.252499C143.267 0.252499 143.273 0.694371 143.901 0.694371C144.316 0.694371 144.686 0.820621 145.079 0.907417C145.471 0.994213 145.926 0.757497 146.313 0.931089C146.7 1.10468 147.07 1.36507 147.434 1.62546C147.799 1.88585 148.135 2.20147 148.466 2.54077C148.797 2.88006 149.128 3.21147 149.42 3.62178C149.712 4.03208 149.942 4.50553 150.183 4.97107C150.424 5.43661 150.581 5.95739 150.766 6.47028C150.951 6.98316 150.951 7.55918 151.075 8.11152C151.198 8.66386 151.523 9.10574 151.591 9.67386C151.658 10.242 151.619 10.8022 151.619 11.3861C151.619 12.2383 151.877 12.2383 151.877 13.0984C151.877 13.9584 151.826 13.9506 151.826 14.8106C151.826 15.6707 151.893 15.6707 151.893 16.5229C151.893 17.3751 152 17.3751 152 18.2351C152 19.0952 151.45 19.0952 151.45 19.9474C151.45 20.7996 151.568 20.8075 151.568 21.6597C151.568 22.5118 151.725 22.5118 151.725 23.3719C151.725 24.232 151.647 24.2241 151.647 25.0842C151.647 25.9442 151.686 25.9442 151.686 26.7964C151.686 27.6486 151.439 27.6565 151.439 28.5087C151.439 29.3609 151.417 29.3688 151.417 30.2209C151.417 31.0731 151.938 31.081 151.938 31.9411C151.938 32.8011 151.692 32.8012 151.692 33.6612C151.692 34.2451 151.837 34.8527 151.776 35.4129C151.714 35.9732 151.529 36.5492 151.4 37.0857C151.271 37.6223 150.783 37.9537 150.603 38.4587C150.424 38.9637 150.222 39.4056 149.981 39.8632C149.74 40.3209 149.504 40.7154 149.218 41.1257C148.932 41.536 148.966 42.475 148.635 42.8143C148.304 43.1536 147.922 43.4771 147.558 43.7375C147.193 43.9979 146.621 43.5481 146.234 43.7296C145.847 43.9111 145.499 44.0847 145.095 44.1794C144.692 44.2741 144.327 44.4003 143.912 44.4003L143.878 44.3688Z" fill="#9E4AFF" stroke="black" stroke-width="2" stroke-miterlimit="10" mask="url(#path-1-inside-1_849_2965)"/>
<path d="M48.3267 14.909H48.4947C49.2787 14.909 49.6707 15.441 49.6707 16.505C50.3147 18.073 51.2387 19.109 52.4427 19.613C52.7507 19.851 53.5907 20.131 54.9627 20.453C55.2427 20.747 55.3827 20.999 55.3827 21.209V21.377C55.2567 21.937 54.9767 22.217 54.5427 22.217C52.9327 21.965 51.3927 21.293 49.9227 20.201L48.4947 18.437C47.7107 19.753 46.4787 20.845 44.7987 21.713C44.7147 21.867 44.1547 22.063 43.1187 22.301C42.5027 22.203 42.1947 21.923 42.1947 21.461V21.293C42.1947 20.789 42.8667 20.369 44.2107 20.033C46.4507 18.619 47.5707 17.079 47.5707 15.413C47.7947 15.077 48.0467 14.909 48.3267 14.909ZM42.1107 23.456C43.5247 23.512 44.6447 23.54 45.4707 23.54H51.7707C52.4707 23.54 53.3387 23.512 54.3747 23.456C55.5507 23.456 56.1387 23.82 56.1387 24.548C56.1387 24.842 55.8587 25.122 55.2987 25.388L54.7947 25.304C52.6387 25.36 50.9587 25.388 49.7547 25.388H49.5027L49.5867 26.228V30.596C49.5867 31.212 49.2227 31.52 48.4947 31.52C47.9907 31.352 47.7387 30.988 47.7387 30.428V25.388H47.6547C44.3087 25.332 42.4327 25.304 42.0267 25.304C41.5787 25.304 41.2987 24.996 41.1867 24.38C41.1867 24.002 41.4947 23.694 42.1107 23.456ZM58.9127 15.35H61.3487C62.4547 15.35 64.1067 15.378 66.3047 15.434C66.8087 15.616 67.0607 15.924 67.0607 16.358C67.0607 16.876 66.6967 17.184 65.9687 17.282C65.6607 17.282 64.8767 17.254 63.6167 17.198C63.6167 19.13 64.8207 20.782 67.2287 22.154L67.3967 22.742C67.2427 23.302 66.9627 23.582 66.5567 23.582H66.2207C65.1007 23.26 63.8687 22.14 62.5247 20.222C61.9087 21.524 60.8447 22.644 59.3327 23.582L58.7447 23.666H58.6607C58.1987 23.666 57.9187 23.358 57.8207 22.742C57.8207 22.42 58.4087 21.888 59.5847 21.146C60.7887 19.956 61.4607 18.64 61.6007 17.198H61.1807C59.1087 17.198 58.0727 17.002 58.0727 16.61L57.9887 16.19C58.1427 15.63 58.4507 15.35 58.9127 15.35ZM71.0507 14.3C71.4987 14.3 71.7787 14.692 71.8907 15.476V18.164C71.8907 19.298 71.8627 20.502 71.8067 21.776C71.8627 22.07 71.8907 22.602 71.8907 23.372C71.8207 24.1 71.5407 24.464 71.0507 24.464H70.6307C70.2387 24.268 70.0427 23.988 70.0427 23.624V22.028C70.0427 21.79 70.0147 21.566 69.9587 21.356C70.0147 21.132 70.0427 20.908 70.0427 20.684V20.18H68.1107C67.4387 20.124 67.1027 19.844 67.1027 19.34V19.256C67.1027 18.64 67.5787 18.332 68.5307 18.332H70.0427V15.224C70.0427 14.678 70.3787 14.37 71.0507 14.3ZM66.1577 24.695C68.6777 24.695 70.4137 25.528 71.3657 27.194C71.5897 27.768 71.7017 28.335 71.7017 28.895C71.7017 30.925 70.1897 32.241 67.1657 32.843H66.4097C63.2177 32.843 61.2297 32.003 60.4457 30.323C60.2777 29.875 60.1937 29.462 60.1937 29.084V28.811C60.1937 27.061 61.1457 25.836 63.0497 25.136C63.7637 24.842 64.7997 24.695 66.1577 24.695ZM61.9577 29.084C62.3217 30.274 63.5817 30.869 65.7377 30.869H66.9977C68.3137 30.869 69.2657 30.274 69.8537 29.084V28.727C69.8537 27.537 68.6777 26.851 66.3257 26.669H66.0737C63.3297 26.669 61.9577 27.474 61.9577 29.084ZM84.0387 13.901C85.9987 14.209 86.9787 14.573 86.9787 14.993C87.7627 15.819 88.1547 16.659 88.1547 17.513C87.7627 19.025 87.3427 19.781 86.8947 19.781C86.2787 20.397 85.3267 20.705 84.0387 20.705C81.7987 20.299 80.6787 19.823 80.6787 19.277C80.4267 19.277 80.2027 18.689 80.0067 17.513C80.0067 16.015 80.9027 14.895 82.6947 14.153C83.1567 14.041 83.6047 13.957 84.0387 13.901ZM81.8547 17.597C81.8547 18.227 82.5267 18.647 83.8707 18.857H84.2907C85.6347 18.857 86.3067 18.353 86.3067 17.345C85.9707 16.337 85.4107 15.833 84.6267 15.833L84.0387 15.749C82.5827 15.945 81.8547 16.561 81.8547 17.597ZM91.0527 13.901C91.6127 14.041 91.8927 14.349 91.8927 14.825V18.101C91.9067 18.213 91.9627 18.269 92.0607 18.269H93.4887C94.1047 18.269 94.4127 18.633 94.4127 19.361C94.2447 19.865 93.8807 20.117 93.3207 20.117H92.3127L91.8927 20.033C91.9487 21.447 91.9767 22.567 91.9767 23.393V23.561C91.8787 24.345 91.5707 24.737 91.0527 24.737C90.4367 24.583 90.1287 24.275 90.1287 23.813C90.0727 20.341 90.0447 18.381 90.0447 17.933C90.1007 16.183 90.1287 15.063 90.1287 14.573C90.3527 14.125 90.6607 13.901 91.0527 13.901ZM84.5847 19.445C85.2007 19.445 85.5087 20.173 85.5087 21.629V21.713C86.6707 21.657 87.9587 21.545 89.3727 21.377C89.8487 21.377 90.1567 21.713 90.2967 22.385C90.2967 23.057 89.2887 23.393 87.2727 23.393C86.1527 23.505 83.8287 23.617 80.3007 23.729C79.8387 23.729 79.5587 23.421 79.4607 22.805C79.4607 22.189 80.1607 21.881 81.5607 21.881C81.8967 21.825 82.5967 21.797 83.6607 21.797V21.041C83.6607 20.845 83.6327 20.593 83.5767 20.285C83.5767 19.823 83.9127 19.543 84.5847 19.445ZM81.6027 25.178C82.2747 25.178 82.6107 26.438 82.6107 28.958V29.882H87.0627C88.0707 29.882 89.4427 29.854 91.1787 29.798C91.7387 29.952 92.0187 30.232 92.0187 30.638V30.806C92.0187 31.184 91.7667 31.464 91.2627 31.646C88.8547 31.702 87.0067 31.73 85.7187 31.73H81.8547C81.1267 31.73 80.7627 31.142 80.7627 29.966C80.7627 28.286 80.7347 26.942 80.6787 25.934C80.8607 25.43 81.1687 25.178 81.6027 25.178ZM106.238 15.476C108.03 15.476 108.926 15.728 108.926 16.232C108.982 16.456 109.01 16.652 109.01 16.82C109.01 17.646 109.038 18.598 109.094 19.676C109.094 20.796 108.786 21.356 108.17 21.356H103.886C103.032 21.356 101.716 21.384 99.9377 21.44V23.624C102.388 23.568 103.984 23.512 104.726 23.456C104.782 23.456 104.866 23.484 104.978 23.54C105.552 23.484 106 23.456 106.322 23.456H108.758C109.374 23.456 109.682 23.82 109.682 24.548C109.472 25.052 109.052 25.304 108.422 25.304C106.714 25.304 104.054 25.332 100.442 25.388L99.8537 25.472C98.7337 25.374 98.1737 25.01 98.1737 24.38V20.516C98.2717 19.9 98.5797 19.592 99.0977 19.592H99.2657C100.974 19.592 103.634 19.564 107.246 19.508V18.332L107.162 17.324H99.5177L99.0137 17.408C98.5377 17.408 98.2297 17.072 98.0897 16.4C98.0897 15.91 98.4537 15.63 99.1817 15.56C100.61 15.56 102.962 15.532 106.238 15.476ZM106.427 24.149C107.043 24.149 107.351 24.625 107.351 25.577V25.745C107.351 26.403 107.379 27.159 107.435 28.013H107.519C107.981 28.013 108.989 28.041 110.543 28.097C110.865 28.209 111.089 28.405 111.215 28.685V29.021C111.103 29.581 110.823 29.861 110.375 29.861H96.9347C96.3747 29.749 96.0947 29.469 96.0947 29.021V28.937C96.0947 28.321 96.5707 28.013 97.5227 28.013H99.8747L99.9587 27.173V25.157C100.057 24.541 100.365 24.233 100.883 24.233C101.401 24.233 101.709 24.625 101.807 25.409V26.585C101.807 26.879 101.779 27.355 101.723 28.013H105.587C105.531 26.165 105.503 25.129 105.503 24.905C105.685 24.401 105.993 24.149 106.427 24.149Z" fill="white"/>
</g>
<defs>
<clipPath id="clip0_849_2965">
<rect width="152" height="45" fill="white"/>
</clipPath>
</defs>
</svg>
