<svg width="152" height="45" viewBox="0 0 152 45" fill="none" xmlns="http://www.w3.org/2000/svg">
<g clip-path="url(#clip0_642_2651)">
<mask id="path-1-inside-1_642_2651" fill="white">
<path d="M143.878 44.3688C143.25 44.3688 143.25 44.5108 142.622 44.5108C141.994 44.5108 141.994 44.5187 141.366 44.5187C140.737 44.5187 140.737 44.3056 140.109 44.3056C139.481 44.3056 139.481 44.3451 138.853 44.3451C138.225 44.3451 138.225 44.2898 137.596 44.2898C136.968 44.2898 136.968 44.3924 136.34 44.3924C135.712 44.3924 135.712 44.1715 135.084 44.1715C134.455 44.1715 134.455 44.9527 133.827 44.9527C133.199 44.9527 133.199 44.9132 132.571 44.9132C131.943 44.9132 131.943 44.2504 131.315 44.2504C130.686 44.2504 130.686 44.2662 130.058 44.2662C129.43 44.2662 129.43 44.3845 128.802 44.3845C128.174 44.3845 128.174 44.8027 127.545 44.8027C126.917 44.8027 126.917 44.3214 126.289 44.3214C125.661 44.3214 125.661 44.6607 125.033 44.6607C124.404 44.6607 124.404 44.5108 123.776 44.5108C123.148 44.5108 123.148 44.4477 122.52 44.4477C121.892 44.4477 121.892 44.6291 121.263 44.6291C120.635 44.6291 120.635 44.787 120.007 44.787C119.379 44.787 119.379 44.9211 118.751 44.9211C118.123 44.9211 118.123 44.5345 117.494 44.5345C116.866 44.5345 116.866 44.1715 116.238 44.1715C115.61 44.1715 115.61 44.708 114.982 44.708C114.353 44.708 114.353 44.2267 113.725 44.2267C113.097 44.2267 113.097 44.4003 112.469 44.4003C111.841 44.4003 111.841 44.787 111.212 44.787C110.584 44.787 110.584 44.9132 109.956 44.9132C109.328 44.9132 109.328 44.282 108.7 44.282C108.071 44.282 108.071 44.4634 107.443 44.4634C106.815 44.4634 106.815 44.5502 106.187 44.5502C105.559 44.5502 105.559 44.2898 104.93 44.2898C104.302 44.2898 104.302 44.3056 103.674 44.3056C103.046 44.3056 103.046 44.9763 102.418 44.9763C101.79 44.9763 101.79 44.3688 101.161 44.3688C100.533 44.3688 100.533 44.9053 99.9049 44.9053C99.2767 44.9053 99.2768 44.3293 98.6486 44.3293C98.0204 44.3293 98.0204 44.7317 97.3922 44.7317C96.764 44.7317 96.764 44.9527 96.1358 44.9527C95.5076 44.9527 95.5076 44.5818 94.8794 44.5818C94.2512 44.5818 94.2512 44.9842 93.623 44.9842C92.9948 44.9842 92.9948 44.8895 92.3666 44.8895C91.7384 44.8895 91.7384 44.3372 91.1103 44.3372C90.4821 44.3372 90.4821 44.6449 89.8539 44.6449C89.2257 44.6449 89.2257 44.3214 88.5975 44.3214C87.9693 44.3214 87.9693 44.4871 87.3411 44.4871C86.7129 44.4871 86.7129 44.5266 86.0847 44.5266C85.4565 44.5266 85.4565 44.424 84.8283 44.424C84.2001 44.424 84.2001 44.2109 83.572 44.2109C82.9438 44.2109 82.9438 44.787 82.3156 44.787C81.6874 44.787 81.6874 44.2898 81.0592 44.2898C80.431 44.2898 80.431 44.9132 79.8028 44.9132C79.1746 44.9132 79.1746 44.9605 78.5464 44.9605C77.9182 44.9605 77.9182 44.7159 77.29 44.7159C76.6618 44.7159 76.6618 44.5739 76.0336 44.5739C75.4055 44.5739 75.4055 44.8816 74.7773 44.8816C74.1491 44.8816 74.1491 44.7948 73.5209 44.7948C72.8927 44.7948 72.8927 44.495 72.2645 44.495C71.6363 44.495 71.6363 44.2741 71.0081 44.2741C70.3799 44.2741 70.3799 44.2741 69.7517 44.2741C69.1235 44.2741 69.1235 44.2109 68.4954 44.2109C67.8672 44.2109 67.8672 44.929 67.2334 44.929C66.5996 44.929 66.6052 44.4871 65.977 44.4871C65.3488 44.4871 65.3488 44.2267 64.7206 44.2267C64.0924 44.2267 64.0924 44.6607 63.4642 44.6607C62.836 44.6607 62.836 44.9527 62.2078 44.9527C61.5796 44.9527 61.5796 44.8974 60.9514 44.8974C60.3232 44.8974 60.3232 44.8343 59.6951 44.8343C59.0669 44.8343 59.0669 44.9448 58.4387 44.9448C57.8105 44.9448 57.8105 44.4792 57.1767 44.4792C56.5429 44.4792 56.5485 44.424 55.9203 44.424C55.2921 44.424 55.2921 44.4319 54.6639 44.4319C54.0357 44.4319 54.0357 44.2109 53.4075 44.2109C52.7793 44.2109 52.7793 44.8185 52.1511 44.8185C51.5229 44.8185 51.5229 44.2267 50.8891 44.2267C50.2553 44.2267 50.261 44.1873 49.6328 44.1873C49.0046 44.1873 49.0046 44.9842 48.3764 44.9842C47.7482 44.9842 47.7482 44.5739 47.12 44.5739C46.4918 44.5739 46.4918 44.8737 45.8636 44.8737C45.2354 44.8737 45.2354 44.6686 44.6016 44.6686C43.9678 44.6686 43.9734 44.4634 43.3452 44.4634C42.717 44.4634 42.717 44.353 42.0889 44.353C41.4607 44.353 41.4607 45 40.8269 45C40.1931 45 40.1987 44.9211 39.5649 44.9211C38.9311 44.9211 38.9367 44.2031 38.3085 44.2031C37.6803 44.2031 37.6803 44.7238 37.0465 44.7238C36.4127 44.7238 36.4183 44.4634 35.7845 44.4634C35.1507 44.4634 35.1563 44.5976 34.5281 44.5976C33.8999 44.5976 33.8999 44.3766 33.2717 44.3766C32.6435 44.3766 32.6435 44.7238 32.0153 44.7238C31.3872 44.7238 31.3872 44.8106 30.7534 44.8106C30.1196 44.8106 30.1252 44.9211 29.4914 44.9211C28.8576 44.9211 28.8632 44.8816 28.235 44.8816C27.6068 44.8816 27.6068 44.9132 26.9786 44.9132C26.3504 44.9132 26.3504 44.787 25.7166 44.787C25.0828 44.787 25.0884 44.858 24.4602 44.858C23.832 44.858 23.832 44.3214 23.1982 44.3214C22.5644 44.3214 22.57 44.4871 21.9362 44.4871C21.3024 44.4871 21.308 44.4398 20.6742 44.4398C20.0404 44.4398 20.0461 44.5818 19.4123 44.5818C18.7785 44.5818 18.7841 44.6134 18.1503 44.6134C17.5165 44.6134 17.5221 44.8659 16.8883 44.8659C16.2545 44.8659 16.2601 44.2188 15.6319 44.2188C15.0037 44.2188 15.0037 44.6923 14.3699 44.6923C13.7361 44.6923 13.7417 44.5187 13.1079 44.5187C12.4741 44.5187 12.4741 44.2109 11.8459 44.2109C11.2177 44.2109 11.2121 44.2425 10.5839 44.2425C9.95572 44.2425 9.95011 44.1952 9.32192 44.1952C8.69373 44.1952 8.68812 44.5108 8.05993 44.5108C7.64487 44.5108 7.22421 44.6291 6.83159 44.5423C6.43897 44.4556 6.02952 44.2504 5.64812 44.0768C5.26672 43.9032 4.98627 43.3666 4.62731 43.1063C4.26834 42.8459 3.89255 42.6644 3.56723 42.3251C3.24192 41.9858 2.70347 41.97 2.41742 41.5597C2.13137 41.1494 1.76679 40.7628 1.52561 40.2972C1.28443 39.8317 1.34613 39.0742 1.16103 38.5613C0.975941 38.0484 0.549668 37.6539 0.426273 37.1015C0.302878 36.5492 0.58893 35.8627 0.527232 35.2867C0.465535 34.7107 0.314096 34.1899 0.314096 33.606C0.314096 32.7538 0.521624 32.7538 0.521624 31.8937C0.521624 31.0337 0.235572 31.0415 0.235572 30.1815C0.235572 29.3214 0 29.3214 0 28.4692C0 27.6171 0.353358 27.617 0.353358 26.757C0.353358 25.8969 0.437491 25.8969 0.437491 25.0447C0.437491 24.1925 0.381402 24.1846 0.381402 23.3325C0.381402 22.4803 0.241181 22.4803 0.241181 21.6202C0.241181 20.7601 0.403838 20.768 0.403838 19.9079C0.403838 19.0479 0.039262 19.0479 0.039262 18.1957C0.039262 17.3435 0.459926 17.3356 0.459926 16.4834C0.459926 15.6313 0.420664 15.6233 0.420664 14.7712C0.420664 13.919 0.308487 13.9111 0.308487 13.051C0.308487 12.191 0.140221 12.1909 0.140221 11.3309C0.140221 10.747 0.482362 10.2104 0.549668 9.65018C0.616974 9.08996 0.830111 8.60862 0.953505 8.07207C1.0769 7.53551 1.12738 6.99105 1.31247 6.47817C1.49756 5.96528 1.67705 5.49184 1.91823 5.03419C2.15941 4.57654 2.17063 3.82693 2.45668 3.42451C2.74273 3.0221 3.34288 3.14045 3.6738 2.80116C4.00472 2.46186 4.20664 1.90163 4.57122 1.64124C4.93579 1.38085 5.32841 1.28616 5.72103 1.11257C6.11365 0.93898 6.46701 0.725933 6.87646 0.631247C7.2859 0.53656 7.66731 0.189374 8.08236 0.189374C8.71055 0.189374 8.71055 0.0157812 9.33875 0.0157812C9.96694 0.0157812 9.96694 0.599684 10.5951 0.599684C11.2233 0.599684 11.2233 0.568122 11.8515 0.568122C12.4797 0.568122 12.4797 0.441873 13.1079 0.441873C13.7361 0.441873 13.7361 0.0789059 14.3643 0.0789059C14.9925 0.0789059 14.9925 0.54445 15.6207 0.54445C16.2489 0.54445 16.2489 0.639137 16.877 0.639137C17.5052 0.639137 17.5052 0.331405 18.1334 0.331405C18.7616 0.331405 18.7616 0.118359 19.3898 0.118359C20.018 0.118359 20.018 0.189374 20.6462 0.189374C21.2744 0.189374 21.2744 0.639137 21.9026 0.639137C22.5308 0.639137 22.5308 0.757496 23.159 0.757496C23.7872 0.757496 23.7872 0.355076 24.4153 0.355076C25.0435 0.355076 25.0435 0.441873 25.6717 0.441873C26.2999 0.441873 26.2999 0.497107 26.9281 0.497107C27.5563 0.497107 27.5563 0.291952 28.1845 0.291952C28.8127 0.291952 28.8127 0.718043 29.4409 0.718043C30.0691 0.718043 30.0691 0.41031 30.6973 0.41031C31.3255 0.41031 31.3255 0.473435 31.9537 0.473435C32.5818 0.473435 32.5818 0.40242 33.21 0.40242C33.8382 0.40242 33.8382 0.0631247 34.4664 0.0631247C35.0946 0.0631247 35.0946 0.441873 35.7228 0.441873C36.351 0.441873 36.351 0.607575 36.9792 0.607575C37.6074 0.607575 37.6074 0.560231 38.2356 0.560231C38.8638 0.560231 38.8638 0.0867964 39.492 0.0867964C40.1201 0.0867964 40.1201 0.378748 40.7483 0.378748C41.3765 0.378748 41.3765 0.512888 42.0047 0.512888C42.6329 0.512888 42.6329 0.102578 43.2611 0.102578C43.8893 0.102578 43.8893 0.0473435 44.5175 0.0473435C45.1457 0.0473435 45.1457 0.433982 45.7739 0.433982C46.4021 0.433982 46.4021 0.27617 47.0303 0.27617C47.6584 0.27617 47.6584 0.686481 48.2866 0.686481C48.9148 0.686481 48.9148 0.244608 49.543 0.244608C50.1712 0.244608 50.1712 0.0473435 50.7994 0.0473435C51.4276 0.0473435 51.4276 0.481326 52.0558 0.481326C52.684 0.481326 52.684 0.0867964 53.3122 0.0867964C53.9404 0.0867964 53.9404 0.741715 54.5686 0.741715C55.1968 0.741715 55.1968 0.386639 55.8249 0.386639C56.4531 0.386639 56.4531 0.244608 57.0813 0.244608C57.7095 0.244608 57.7095 0.639137 58.3377 0.639137C58.9659 0.639137 58.9659 0.0867964 59.5941 0.0867964C60.2223 0.0867964 60.2223 0.67859 60.8505 0.67859C61.4787 0.67859 61.4787 0.702262 62.1069 0.702262C62.7351 0.702262 62.7351 0.315623 63.3632 0.315623C63.9914 0.315623 63.9914 0.394529 64.6196 0.394529C65.2478 0.394529 65.2478 0.126249 65.876 0.126249C66.5042 0.126249 66.5042 0.142031 67.1324 0.142031C67.7606 0.142031 67.7606 0.765387 68.3888 0.765387C69.017 0.765387 69.017 0.418201 69.6452 0.418201C70.2734 0.418201 70.2734 0.54445 70.9015 0.54445C71.5297 0.54445 71.5297 0.80484 72.1579 0.80484C72.7861 0.80484 72.7861 0.181483 73.4143 0.181483C74.0425 0.181483 74.0425 0.0157812 74.6707 0.0157812C75.2989 0.0157812 75.2989 0.307733 75.9271 0.307733C76.5553 0.307733 76.5553 0.13414 77.1835 0.13414C77.8117 0.13414 77.8117 0.41031 78.4399 0.41031C79.068 0.41031 79.068 0.307733 79.6962 0.307733C80.3244 0.307733 80.3244 0.291952 80.9526 0.291952C81.5808 0.291952 81.5808 0 82.209 0C82.8372 0 82.8372 0.26828 83.4654 0.26828C84.0936 0.26828 84.0936 0.568122 84.7274 0.568122C85.3612 0.568122 85.3556 0.323514 85.9838 0.323514C86.612 0.323514 86.612 0.725934 87.2401 0.725934C87.8683 0.725934 87.8683 0.260389 88.4965 0.260389C89.1247 0.260389 89.1247 0.213046 89.7529 0.213046C90.3811 0.213046 90.3811 0.189374 91.0093 0.189374C91.6375 0.189374 91.6375 0.702262 92.2657 0.702262C92.8939 0.702262 92.8939 0.142031 93.5221 0.142031C94.1503 0.142031 94.1503 0.0157812 94.7841 0.0157812C95.4179 0.0157812 95.4122 0.718043 96.0404 0.718043C96.6686 0.718043 96.6686 0.757496 97.2968 0.757496C97.925 0.757496 97.925 0.694371 98.5532 0.694371C99.1814 0.694371 99.1814 0.654918 99.8096 0.654918C100.438 0.654918 100.438 0.126249 101.072 0.126249C101.705 0.126249 101.7 0.0315624 102.328 0.0315624C102.956 0.0315624 102.956 0.718043 103.584 0.718043C104.213 0.718043 104.213 0.497107 104.841 0.497107C105.469 0.497107 105.469 0.0236717 106.097 0.0236717C106.725 0.0236717 106.725 0.386639 107.359 0.386639C107.993 0.386639 107.987 0.504997 108.615 0.504997C109.244 0.504997 109.244 0 109.872 0C110.5 0 110.5 0.0315624 111.134 0.0315624C111.768 0.0315624 111.762 0.0789059 112.396 0.0789059C113.03 0.0789059 113.024 0.189374 113.652 0.189374C114.28 0.189374 114.28 0.126249 114.914 0.126249C115.548 0.126249 115.542 0.441873 116.176 0.441873C116.81 0.441873 116.804 0.647028 117.433 0.647028C118.061 0.647028 118.061 0.197265 118.689 0.197265C119.317 0.197265 119.317 0.639137 119.945 0.639137C120.574 0.639137 120.574 0.576013 121.207 0.576013C121.841 0.576013 121.836 0.0552341 122.469 0.0552341C123.103 0.0552341 123.098 0.426091 123.726 0.426091C124.354 0.426091 124.354 0.765387 124.982 0.765387C125.61 0.765387 125.61 0.142031 126.244 0.142031C126.878 0.142031 126.872 0.197265 127.501 0.197265C128.129 0.197265 128.129 0.457654 128.762 0.457654C129.396 0.457654 129.391 0.552341 130.024 0.552341C130.658 0.552341 130.653 0.757496 131.286 0.757496C131.92 0.757496 131.915 0.291952 132.548 0.291952C133.182 0.291952 133.177 0.0394529 133.81 0.0394529C134.444 0.0394529 134.439 0.394529 135.072 0.394529C135.706 0.394529 135.701 0.418201 136.329 0.418201C136.957 0.418201 136.957 0.615466 137.591 0.615466C138.225 0.615466 138.219 0.13414 138.853 0.13414C139.487 0.13414 139.487 0.142031 140.115 0.142031C140.743 0.142031 140.749 0.142031 141.377 0.142031C142.005 0.142031 142.011 0.252499 142.639 0.252499C143.267 0.252499 143.273 0.694371 143.901 0.694371C144.316 0.694371 144.686 0.820621 145.079 0.907417C145.471 0.994213 145.926 0.757497 146.313 0.931089C146.7 1.10468 147.07 1.36507 147.434 1.62546C147.799 1.88585 148.135 2.20147 148.466 2.54077C148.797 2.88006 149.128 3.21147 149.42 3.62178C149.712 4.03208 149.942 4.50553 150.183 4.97107C150.424 5.43661 150.581 5.95739 150.766 6.47028C150.951 6.98316 150.951 7.55918 151.075 8.11152C151.198 8.66386 151.523 9.10574 151.591 9.67386C151.658 10.242 151.619 10.8022 151.619 11.3861C151.619 12.2383 151.877 12.2383 151.877 13.0984C151.877 13.9584 151.826 13.9506 151.826 14.8106C151.826 15.6707 151.893 15.6707 151.893 16.5229C151.893 17.3751 152 17.3751 152 18.2351C152 19.0952 151.45 19.0952 151.45 19.9474C151.45 20.7996 151.568 20.8075 151.568 21.6597C151.568 22.5118 151.725 22.5118 151.725 23.3719C151.725 24.232 151.647 24.2241 151.647 25.0842C151.647 25.9442 151.686 25.9442 151.686 26.7964C151.686 27.6486 151.439 27.6565 151.439 28.5087C151.439 29.3609 151.417 29.3688 151.417 30.2209C151.417 31.0731 151.938 31.081 151.938 31.9411C151.938 32.8011 151.692 32.8012 151.692 33.6612C151.692 34.2451 151.837 34.8527 151.776 35.4129C151.714 35.9732 151.529 36.5492 151.4 37.0857C151.271 37.6223 150.783 37.9537 150.603 38.4587C150.424 38.9637 150.222 39.4056 149.981 39.8632C149.74 40.3209 149.504 40.7154 149.218 41.1257C148.932 41.536 148.966 42.475 148.635 42.8143C148.304 43.1536 147.922 43.4771 147.558 43.7375C147.193 43.9979 146.621 43.5481 146.234 43.7296C145.847 43.9111 145.499 44.0847 145.095 44.1794C144.692 44.2741 144.327 44.4003 143.912 44.4003L143.878 44.3688Z"/>
</mask>
<path d="M143.878 44.3688C143.25 44.3688 143.25 44.5108 142.622 44.5108C141.994 44.5108 141.994 44.5187 141.366 44.5187C140.737 44.5187 140.737 44.3056 140.109 44.3056C139.481 44.3056 139.481 44.3451 138.853 44.3451C138.225 44.3451 138.225 44.2898 137.596 44.2898C136.968 44.2898 136.968 44.3924 136.34 44.3924C135.712 44.3924 135.712 44.1715 135.084 44.1715C134.455 44.1715 134.455 44.9527 133.827 44.9527C133.199 44.9527 133.199 44.9132 132.571 44.9132C131.943 44.9132 131.943 44.2504 131.315 44.2504C130.686 44.2504 130.686 44.2662 130.058 44.2662C129.43 44.2662 129.43 44.3845 128.802 44.3845C128.174 44.3845 128.174 44.8027 127.545 44.8027C126.917 44.8027 126.917 44.3214 126.289 44.3214C125.661 44.3214 125.661 44.6607 125.033 44.6607C124.404 44.6607 124.404 44.5108 123.776 44.5108C123.148 44.5108 123.148 44.4477 122.52 44.4477C121.892 44.4477 121.892 44.6291 121.263 44.6291C120.635 44.6291 120.635 44.787 120.007 44.787C119.379 44.787 119.379 44.9211 118.751 44.9211C118.123 44.9211 118.123 44.5345 117.494 44.5345C116.866 44.5345 116.866 44.1715 116.238 44.1715C115.61 44.1715 115.61 44.708 114.982 44.708C114.353 44.708 114.353 44.2267 113.725 44.2267C113.097 44.2267 113.097 44.4003 112.469 44.4003C111.841 44.4003 111.841 44.787 111.212 44.787C110.584 44.787 110.584 44.9132 109.956 44.9132C109.328 44.9132 109.328 44.282 108.7 44.282C108.071 44.282 108.071 44.4634 107.443 44.4634C106.815 44.4634 106.815 44.5502 106.187 44.5502C105.559 44.5502 105.559 44.2898 104.93 44.2898C104.302 44.2898 104.302 44.3056 103.674 44.3056C103.046 44.3056 103.046 44.9763 102.418 44.9763C101.79 44.9763 101.79 44.3688 101.161 44.3688C100.533 44.3688 100.533 44.9053 99.9049 44.9053C99.2767 44.9053 99.2768 44.3293 98.6486 44.3293C98.0204 44.3293 98.0204 44.7317 97.3922 44.7317C96.764 44.7317 96.764 44.9527 96.1358 44.9527C95.5076 44.9527 95.5076 44.5818 94.8794 44.5818C94.2512 44.5818 94.2512 44.9842 93.623 44.9842C92.9948 44.9842 92.9948 44.8895 92.3666 44.8895C91.7384 44.8895 91.7384 44.3372 91.1103 44.3372C90.4821 44.3372 90.4821 44.6449 89.8539 44.6449C89.2257 44.6449 89.2257 44.3214 88.5975 44.3214C87.9693 44.3214 87.9693 44.4871 87.3411 44.4871C86.7129 44.4871 86.7129 44.5266 86.0847 44.5266C85.4565 44.5266 85.4565 44.424 84.8283 44.424C84.2001 44.424 84.2001 44.2109 83.572 44.2109C82.9438 44.2109 82.9438 44.787 82.3156 44.787C81.6874 44.787 81.6874 44.2898 81.0592 44.2898C80.431 44.2898 80.431 44.9132 79.8028 44.9132C79.1746 44.9132 79.1746 44.9605 78.5464 44.9605C77.9182 44.9605 77.9182 44.7159 77.29 44.7159C76.6618 44.7159 76.6618 44.5739 76.0336 44.5739C75.4055 44.5739 75.4055 44.8816 74.7773 44.8816C74.1491 44.8816 74.1491 44.7948 73.5209 44.7948C72.8927 44.7948 72.8927 44.495 72.2645 44.495C71.6363 44.495 71.6363 44.2741 71.0081 44.2741C70.3799 44.2741 70.3799 44.2741 69.7517 44.2741C69.1235 44.2741 69.1235 44.2109 68.4954 44.2109C67.8672 44.2109 67.8672 44.929 67.2334 44.929C66.5996 44.929 66.6052 44.4871 65.977 44.4871C65.3488 44.4871 65.3488 44.2267 64.7206 44.2267C64.0924 44.2267 64.0924 44.6607 63.4642 44.6607C62.836 44.6607 62.836 44.9527 62.2078 44.9527C61.5796 44.9527 61.5796 44.8974 60.9514 44.8974C60.3232 44.8974 60.3232 44.8343 59.6951 44.8343C59.0669 44.8343 59.0669 44.9448 58.4387 44.9448C57.8105 44.9448 57.8105 44.4792 57.1767 44.4792C56.5429 44.4792 56.5485 44.424 55.9203 44.424C55.2921 44.424 55.2921 44.4319 54.6639 44.4319C54.0357 44.4319 54.0357 44.2109 53.4075 44.2109C52.7793 44.2109 52.7793 44.8185 52.1511 44.8185C51.5229 44.8185 51.5229 44.2267 50.8891 44.2267C50.2553 44.2267 50.261 44.1873 49.6328 44.1873C49.0046 44.1873 49.0046 44.9842 48.3764 44.9842C47.7482 44.9842 47.7482 44.5739 47.12 44.5739C46.4918 44.5739 46.4918 44.8737 45.8636 44.8737C45.2354 44.8737 45.2354 44.6686 44.6016 44.6686C43.9678 44.6686 43.9734 44.4634 43.3452 44.4634C42.717 44.4634 42.717 44.353 42.0889 44.353C41.4607 44.353 41.4607 45 40.8269 45C40.1931 45 40.1987 44.9211 39.5649 44.9211C38.9311 44.9211 38.9367 44.2031 38.3085 44.2031C37.6803 44.2031 37.6803 44.7238 37.0465 44.7238C36.4127 44.7238 36.4183 44.4634 35.7845 44.4634C35.1507 44.4634 35.1563 44.5976 34.5281 44.5976C33.8999 44.5976 33.8999 44.3766 33.2717 44.3766C32.6435 44.3766 32.6435 44.7238 32.0153 44.7238C31.3872 44.7238 31.3872 44.8106 30.7534 44.8106C30.1196 44.8106 30.1252 44.9211 29.4914 44.9211C28.8576 44.9211 28.8632 44.8816 28.235 44.8816C27.6068 44.8816 27.6068 44.9132 26.9786 44.9132C26.3504 44.9132 26.3504 44.787 25.7166 44.787C25.0828 44.787 25.0884 44.858 24.4602 44.858C23.832 44.858 23.832 44.3214 23.1982 44.3214C22.5644 44.3214 22.57 44.4871 21.9362 44.4871C21.3024 44.4871 21.308 44.4398 20.6742 44.4398C20.0404 44.4398 20.0461 44.5818 19.4123 44.5818C18.7785 44.5818 18.7841 44.6134 18.1503 44.6134C17.5165 44.6134 17.5221 44.8659 16.8883 44.8659C16.2545 44.8659 16.2601 44.2188 15.6319 44.2188C15.0037 44.2188 15.0037 44.6923 14.3699 44.6923C13.7361 44.6923 13.7417 44.5187 13.1079 44.5187C12.4741 44.5187 12.4741 44.2109 11.8459 44.2109C11.2177 44.2109 11.2121 44.2425 10.5839 44.2425C9.95572 44.2425 9.95011 44.1952 9.32192 44.1952C8.69373 44.1952 8.68812 44.5108 8.05993 44.5108C7.64487 44.5108 7.22421 44.6291 6.83159 44.5423C6.43897 44.4556 6.02952 44.2504 5.64812 44.0768C5.26672 43.9032 4.98627 43.3666 4.62731 43.1063C4.26834 42.8459 3.89255 42.6644 3.56723 42.3251C3.24192 41.9858 2.70347 41.97 2.41742 41.5597C2.13137 41.1494 1.76679 40.7628 1.52561 40.2972C1.28443 39.8317 1.34613 39.0742 1.16103 38.5613C0.975941 38.0484 0.549668 37.6539 0.426273 37.1015C0.302878 36.5492 0.58893 35.8627 0.527232 35.2867C0.465535 34.7107 0.314096 34.1899 0.314096 33.606C0.314096 32.7538 0.521624 32.7538 0.521624 31.8937C0.521624 31.0337 0.235572 31.0415 0.235572 30.1815C0.235572 29.3214 0 29.3214 0 28.4692C0 27.6171 0.353358 27.617 0.353358 26.757C0.353358 25.8969 0.437491 25.8969 0.437491 25.0447C0.437491 24.1925 0.381402 24.1846 0.381402 23.3325C0.381402 22.4803 0.241181 22.4803 0.241181 21.6202C0.241181 20.7601 0.403838 20.768 0.403838 19.9079C0.403838 19.0479 0.039262 19.0479 0.039262 18.1957C0.039262 17.3435 0.459926 17.3356 0.459926 16.4834C0.459926 15.6313 0.420664 15.6233 0.420664 14.7712C0.420664 13.919 0.308487 13.9111 0.308487 13.051C0.308487 12.191 0.140221 12.1909 0.140221 11.3309C0.140221 10.747 0.482362 10.2104 0.549668 9.65018C0.616974 9.08996 0.830111 8.60862 0.953505 8.07207C1.0769 7.53551 1.12738 6.99105 1.31247 6.47817C1.49756 5.96528 1.67705 5.49184 1.91823 5.03419C2.15941 4.57654 2.17063 3.82693 2.45668 3.42451C2.74273 3.0221 3.34288 3.14045 3.6738 2.80116C4.00472 2.46186 4.20664 1.90163 4.57122 1.64124C4.93579 1.38085 5.32841 1.28616 5.72103 1.11257C6.11365 0.93898 6.46701 0.725933 6.87646 0.631247C7.2859 0.53656 7.66731 0.189374 8.08236 0.189374C8.71055 0.189374 8.71055 0.0157812 9.33875 0.0157812C9.96694 0.0157812 9.96694 0.599684 10.5951 0.599684C11.2233 0.599684 11.2233 0.568122 11.8515 0.568122C12.4797 0.568122 12.4797 0.441873 13.1079 0.441873C13.7361 0.441873 13.7361 0.0789059 14.3643 0.0789059C14.9925 0.0789059 14.9925 0.54445 15.6207 0.54445C16.2489 0.54445 16.2489 0.639137 16.877 0.639137C17.5052 0.639137 17.5052 0.331405 18.1334 0.331405C18.7616 0.331405 18.7616 0.118359 19.3898 0.118359C20.018 0.118359 20.018 0.189374 20.6462 0.189374C21.2744 0.189374 21.2744 0.639137 21.9026 0.639137C22.5308 0.639137 22.5308 0.757496 23.159 0.757496C23.7872 0.757496 23.7872 0.355076 24.4153 0.355076C25.0435 0.355076 25.0435 0.441873 25.6717 0.441873C26.2999 0.441873 26.2999 0.497107 26.9281 0.497107C27.5563 0.497107 27.5563 0.291952 28.1845 0.291952C28.8127 0.291952 28.8127 0.718043 29.4409 0.718043C30.0691 0.718043 30.0691 0.41031 30.6973 0.41031C31.3255 0.41031 31.3255 0.473435 31.9537 0.473435C32.5818 0.473435 32.5818 0.40242 33.21 0.40242C33.8382 0.40242 33.8382 0.0631247 34.4664 0.0631247C35.0946 0.0631247 35.0946 0.441873 35.7228 0.441873C36.351 0.441873 36.351 0.607575 36.9792 0.607575C37.6074 0.607575 37.6074 0.560231 38.2356 0.560231C38.8638 0.560231 38.8638 0.0867964 39.492 0.0867964C40.1201 0.0867964 40.1201 0.378748 40.7483 0.378748C41.3765 0.378748 41.3765 0.512888 42.0047 0.512888C42.6329 0.512888 42.6329 0.102578 43.2611 0.102578C43.8893 0.102578 43.8893 0.0473435 44.5175 0.0473435C45.1457 0.0473435 45.1457 0.433982 45.7739 0.433982C46.4021 0.433982 46.4021 0.27617 47.0303 0.27617C47.6584 0.27617 47.6584 0.686481 48.2866 0.686481C48.9148 0.686481 48.9148 0.244608 49.543 0.244608C50.1712 0.244608 50.1712 0.0473435 50.7994 0.0473435C51.4276 0.0473435 51.4276 0.481326 52.0558 0.481326C52.684 0.481326 52.684 0.0867964 53.3122 0.0867964C53.9404 0.0867964 53.9404 0.741715 54.5686 0.741715C55.1968 0.741715 55.1968 0.386639 55.8249 0.386639C56.4531 0.386639 56.4531 0.244608 57.0813 0.244608C57.7095 0.244608 57.7095 0.639137 58.3377 0.639137C58.9659 0.639137 58.9659 0.0867964 59.5941 0.0867964C60.2223 0.0867964 60.2223 0.67859 60.8505 0.67859C61.4787 0.67859 61.4787 0.702262 62.1069 0.702262C62.7351 0.702262 62.7351 0.315623 63.3632 0.315623C63.9914 0.315623 63.9914 0.394529 64.6196 0.394529C65.2478 0.394529 65.2478 0.126249 65.876 0.126249C66.5042 0.126249 66.5042 0.142031 67.1324 0.142031C67.7606 0.142031 67.7606 0.765387 68.3888 0.765387C69.017 0.765387 69.017 0.418201 69.6452 0.418201C70.2734 0.418201 70.2734 0.54445 70.9015 0.54445C71.5297 0.54445 71.5297 0.80484 72.1579 0.80484C72.7861 0.80484 72.7861 0.181483 73.4143 0.181483C74.0425 0.181483 74.0425 0.0157812 74.6707 0.0157812C75.2989 0.0157812 75.2989 0.307733 75.9271 0.307733C76.5553 0.307733 76.5553 0.13414 77.1835 0.13414C77.8117 0.13414 77.8117 0.41031 78.4399 0.41031C79.068 0.41031 79.068 0.307733 79.6962 0.307733C80.3244 0.307733 80.3244 0.291952 80.9526 0.291952C81.5808 0.291952 81.5808 0 82.209 0C82.8372 0 82.8372 0.26828 83.4654 0.26828C84.0936 0.26828 84.0936 0.568122 84.7274 0.568122C85.3612 0.568122 85.3556 0.323514 85.9838 0.323514C86.612 0.323514 86.612 0.725934 87.2401 0.725934C87.8683 0.725934 87.8683 0.260389 88.4965 0.260389C89.1247 0.260389 89.1247 0.213046 89.7529 0.213046C90.3811 0.213046 90.3811 0.189374 91.0093 0.189374C91.6375 0.189374 91.6375 0.702262 92.2657 0.702262C92.8939 0.702262 92.8939 0.142031 93.5221 0.142031C94.1503 0.142031 94.1503 0.0157812 94.7841 0.0157812C95.4179 0.0157812 95.4122 0.718043 96.0404 0.718043C96.6686 0.718043 96.6686 0.757496 97.2968 0.757496C97.925 0.757496 97.925 0.694371 98.5532 0.694371C99.1814 0.694371 99.1814 0.654918 99.8096 0.654918C100.438 0.654918 100.438 0.126249 101.072 0.126249C101.705 0.126249 101.7 0.0315624 102.328 0.0315624C102.956 0.0315624 102.956 0.718043 103.584 0.718043C104.213 0.718043 104.213 0.497107 104.841 0.497107C105.469 0.497107 105.469 0.0236717 106.097 0.0236717C106.725 0.0236717 106.725 0.386639 107.359 0.386639C107.993 0.386639 107.987 0.504997 108.615 0.504997C109.244 0.504997 109.244 0 109.872 0C110.5 0 110.5 0.0315624 111.134 0.0315624C111.768 0.0315624 111.762 0.0789059 112.396 0.0789059C113.03 0.0789059 113.024 0.189374 113.652 0.189374C114.28 0.189374 114.28 0.126249 114.914 0.126249C115.548 0.126249 115.542 0.441873 116.176 0.441873C116.81 0.441873 116.804 0.647028 117.433 0.647028C118.061 0.647028 118.061 0.197265 118.689 0.197265C119.317 0.197265 119.317 0.639137 119.945 0.639137C120.574 0.639137 120.574 0.576013 121.207 0.576013C121.841 0.576013 121.836 0.0552341 122.469 0.0552341C123.103 0.0552341 123.098 0.426091 123.726 0.426091C124.354 0.426091 124.354 0.765387 124.982 0.765387C125.61 0.765387 125.61 0.142031 126.244 0.142031C126.878 0.142031 126.872 0.197265 127.501 0.197265C128.129 0.197265 128.129 0.457654 128.762 0.457654C129.396 0.457654 129.391 0.552341 130.024 0.552341C130.658 0.552341 130.653 0.757496 131.286 0.757496C131.92 0.757496 131.915 0.291952 132.548 0.291952C133.182 0.291952 133.177 0.0394529 133.81 0.0394529C134.444 0.0394529 134.439 0.394529 135.072 0.394529C135.706 0.394529 135.701 0.418201 136.329 0.418201C136.957 0.418201 136.957 0.615466 137.591 0.615466C138.225 0.615466 138.219 0.13414 138.853 0.13414C139.487 0.13414 139.487 0.142031 140.115 0.142031C140.743 0.142031 140.749 0.142031 141.377 0.142031C142.005 0.142031 142.011 0.252499 142.639 0.252499C143.267 0.252499 143.273 0.694371 143.901 0.694371C144.316 0.694371 144.686 0.820621 145.079 0.907417C145.471 0.994213 145.926 0.757497 146.313 0.931089C146.7 1.10468 147.07 1.36507 147.434 1.62546C147.799 1.88585 148.135 2.20147 148.466 2.54077C148.797 2.88006 149.128 3.21147 149.42 3.62178C149.712 4.03208 149.942 4.50553 150.183 4.97107C150.424 5.43661 150.581 5.95739 150.766 6.47028C150.951 6.98316 150.951 7.55918 151.075 8.11152C151.198 8.66386 151.523 9.10574 151.591 9.67386C151.658 10.242 151.619 10.8022 151.619 11.3861C151.619 12.2383 151.877 12.2383 151.877 13.0984C151.877 13.9584 151.826 13.9506 151.826 14.8106C151.826 15.6707 151.893 15.6707 151.893 16.5229C151.893 17.3751 152 17.3751 152 18.2351C152 19.0952 151.45 19.0952 151.45 19.9474C151.45 20.7996 151.568 20.8075 151.568 21.6597C151.568 22.5118 151.725 22.5118 151.725 23.3719C151.725 24.232 151.647 24.2241 151.647 25.0842C151.647 25.9442 151.686 25.9442 151.686 26.7964C151.686 27.6486 151.439 27.6565 151.439 28.5087C151.439 29.3609 151.417 29.3688 151.417 30.2209C151.417 31.0731 151.938 31.081 151.938 31.9411C151.938 32.8011 151.692 32.8012 151.692 33.6612C151.692 34.2451 151.837 34.8527 151.776 35.4129C151.714 35.9732 151.529 36.5492 151.4 37.0857C151.271 37.6223 150.783 37.9537 150.603 38.4587C150.424 38.9637 150.222 39.4056 149.981 39.8632C149.74 40.3209 149.504 40.7154 149.218 41.1257C148.932 41.536 148.966 42.475 148.635 42.8143C148.304 43.1536 147.922 43.4771 147.558 43.7375C147.193 43.9979 146.621 43.5481 146.234 43.7296C145.847 43.9111 145.499 44.0847 145.095 44.1794C144.692 44.2741 144.327 44.4003 143.912 44.4003L143.878 44.3688Z" fill="#9E4AFF" stroke="black" stroke-width="2" stroke-miterlimit="10" mask="url(#path-1-inside-1_642_2651)"/>
<path d="M51.258 15.644C51.79 15.644 52.07 16.008 52.098 16.736C52.098 17.24 51.286 17.492 49.662 17.492H46.05L46.218 25.22H46.974C49.34 25.22 51.16 25.108 52.434 24.884C53.05 25.01 53.358 25.29 53.358 25.724V25.892C53.358 26.564 52.434 26.9 50.586 26.9C49.662 27.012 48.122 27.068 45.966 27.068H45.462C44.734 26.998 44.37 26.634 44.37 25.976C44.3 19.704 44.216 16.568 44.118 16.568C44.118 15.952 44.874 15.644 46.386 15.644H51.258ZM56.109 14.048C56.501 14.048 56.781 14.3 56.949 14.804C56.949 15.112 56.921 15.42 56.865 15.728C56.921 17.17 56.949 18.402 56.949 19.424V20.516H59.301C59.693 20.712 59.889 20.992 59.889 21.356C59.889 22.028 59.413 22.364 58.461 22.364H56.949V27.152C56.949 27.88 56.977 28.832 57.033 30.008C56.879 30.568 56.599 30.848 56.193 30.848H56.025C55.465 30.736 55.185 30.456 55.185 30.008C55.185 29.154 55.157 28.174 55.101 27.068C55.101 26.424 55.129 25.164 55.185 23.288C55.129 20.124 55.101 17.38 55.101 15.056C55.241 14.384 55.577 14.048 56.109 14.048ZM68.3553 13.922C71.9953 13.936 74.0953 14.832 74.6553 16.61C74.7113 16.918 74.7393 17.17 74.7393 17.366C74.7393 19.13 73.0873 20.222 69.7833 20.642H69.4473C65.3593 20.642 63.3153 19.578 63.3153 17.45C63.3153 15.812 64.5193 14.692 66.9273 14.09C67.6553 13.978 68.1313 13.922 68.3553 13.922ZM65.1633 17.366V17.45C65.1633 18.346 66.6753 18.794 69.6993 18.794C71.0573 18.794 72.1493 18.346 72.9753 17.45V17.366C72.9753 16.582 71.8553 16.05 69.6153 15.77C69.5593 15.77 69.5313 15.798 69.5313 15.854C69.1113 15.798 68.8313 15.742 68.6913 15.686C66.3393 15.966 65.1633 16.526 65.1633 17.366ZM62.4963 21.503C63.3363 21.559 63.9523 21.587 64.3443 21.587H65.7723C68.1103 21.587 71.3023 21.615 75.3483 21.671C75.8523 21.867 76.1043 22.147 76.1043 22.511V22.679C75.9783 23.239 75.6983 23.519 75.2643 23.519C72.7863 23.463 70.8543 23.435 69.4683 23.435H65.4363C65.3803 23.435 65.3523 23.407 65.3523 23.351C65.2963 23.351 65.2683 23.379 65.2683 23.435L64.8483 23.351H62.4123C62.0483 23.351 61.7683 23.155 61.5723 22.763V22.427C61.5723 22.007 61.8803 21.699 62.4963 21.503ZM64.5543 25.094H65.6463C67.4803 25.094 70.0283 25.122 73.2903 25.178C73.9623 25.178 74.2983 26.508 74.2983 29.168C74.3543 29.168 74.3823 29.476 74.3823 30.092C74.3823 31.436 74.0183 32.108 73.2903 32.108H71.6103C70.2383 32.108 69.0623 32.136 68.0823 32.192C67.5083 32.136 66.5003 32.108 65.0583 32.108C63.9943 32.108 63.4623 31.772 63.4623 31.1V30.344C63.4623 30.05 63.4343 29.798 63.3783 29.588C63.4343 29.294 63.4623 28.664 63.4623 27.698V26.186C63.6443 25.458 64.0083 25.094 64.5543 25.094ZM65.3103 26.942C65.2543 28.566 65.2263 29.616 65.2263 30.092L65.3103 30.26C65.7023 30.26 66.4583 30.288 67.5783 30.344C70.1123 30.288 71.7643 30.26 72.5343 30.26V30.176C72.5343 29.462 72.4783 28.412 72.3663 27.026C71.8343 27.026 70.0703 26.97 67.0743 26.858C66.2343 26.914 65.6463 26.942 65.3103 26.942ZM85.3561 15.875C87.4001 15.875 89.1921 16.575 90.7321 17.975C91.2921 18.843 91.5721 19.935 91.5721 21.251C91.5721 22.889 90.3681 24.233 87.9601 25.283C86.9801 25.451 86.2241 25.535 85.6921 25.535H85.1881C83.2841 25.535 81.6881 24.835 80.4001 23.435C79.7841 22.581 79.4761 21.657 79.4761 20.663C79.4761 19.207 80.2041 17.947 81.6601 16.883C83.0041 16.253 84.2361 15.917 85.3561 15.875ZM81.3241 20.579V20.747C81.3241 22.301 82.4441 23.281 84.6841 23.687H85.7761C87.6661 23.687 88.9541 23.015 89.6401 21.671C89.6961 21.573 89.7241 21.461 89.7241 21.335V21.167C89.7241 19.669 89.2761 18.773 88.3801 18.479C87.4281 17.975 86.3361 17.723 85.1041 17.723C83.9001 17.723 82.8081 18.199 81.8281 19.151C81.4921 19.795 81.3241 20.271 81.3241 20.579ZM79.4761 28.16H81.1561C83.7041 28.16 86.9521 28.188 90.9001 28.244C91.2921 28.188 91.6281 28.16 91.9081 28.16C92.4681 28.328 92.7481 28.636 92.7481 29.084C92.6501 29.7 92.3421 30.008 91.8241 30.008H78.8041C78.1321 29.952 77.7961 29.644 77.7961 29.084C77.7961 28.468 78.3561 28.16 79.4761 28.16ZM104.363 15.476C106.155 15.476 107.051 15.728 107.051 16.232C107.107 16.456 107.135 16.652 107.135 16.82C107.135 17.646 107.163 18.598 107.219 19.676C107.219 20.796 106.911 21.356 106.295 21.356H102.011C101.157 21.356 99.8411 21.384 98.0631 21.44V23.624C100.513 23.568 102.109 23.512 102.851 23.456C102.907 23.456 102.991 23.484 103.103 23.54C103.677 23.484 104.125 23.456 104.447 23.456H106.883C107.499 23.456 107.807 23.82 107.807 24.548C107.597 25.052 107.177 25.304 106.547 25.304C104.839 25.304 102.179 25.332 98.5671 25.388L97.9791 25.472C96.8591 25.374 96.2991 25.01 96.2991 24.38V20.516C96.3971 19.9 96.7051 19.592 97.2231 19.592H97.3911C99.0991 19.592 101.759 19.564 105.371 19.508V18.332L105.287 17.324H97.6431L97.1391 17.408C96.6631 17.408 96.3551 17.072 96.2151 16.4C96.2151 15.91 96.5791 15.63 97.3071 15.56C98.7351 15.56 101.087 15.532 104.363 15.476ZM102.053 24.17C102.613 24.31 102.893 24.618 102.893 25.094L102.914 28.139H106.694C107.016 28.139 107.464 28.167 108.038 28.223C108.136 28.167 108.276 28.139 108.458 28.139C109.018 28.293 109.298 28.573 109.298 28.979V29.147C109.172 29.707 108.892 29.987 108.458 29.987C101.878 29.931 97.5941 29.903 95.6061 29.903C94.8221 29.903 94.4301 29.623 94.4301 29.063V28.895C94.4301 28.447 94.7381 28.167 95.3541 28.055H101.066C101.066 27.943 101.073 27.411 101.087 26.459C101.059 25.717 101.045 25.262 101.045 25.094C101.045 24.632 101.381 24.324 102.053 24.17Z" fill="white"/>
</g>
<defs>
<clipPath id="clip0_642_2651">
<rect width="152" height="45" fill="white"/>
</clipPath>
</defs>
</svg>
