<svg width="272" height="45" viewBox="0 0 272 45" fill="none" xmlns="http://www.w3.org/2000/svg">
<mask id="path-1-inside-1_553_1410" fill="white">
<path d="M254.734 44.3688C253.63 44.3688 253.63 44.5108 252.527 44.5108C251.423 44.5108 251.423 44.5187 250.32 44.5187C249.216 44.5187 249.216 44.3056 248.113 44.3056C247.009 44.3056 247.009 44.3451 245.906 44.3451C244.803 44.3451 244.803 44.2898 243.699 44.2898C242.596 44.2898 242.596 44.3924 241.492 44.3924C240.389 44.3924 240.389 44.1715 239.285 44.1715C238.182 44.1715 238.182 44.9527 237.078 44.9527C235.975 44.9527 235.975 44.9132 234.871 44.9132C233.768 44.9132 233.768 44.2504 232.664 44.2504C231.561 44.2504 231.561 44.2662 230.457 44.2662C229.354 44.2662 229.354 44.3845 228.25 44.3845C227.147 44.3845 227.147 44.8027 226.044 44.8027C224.94 44.8027 224.94 44.3214 223.837 44.3214C222.733 44.3214 222.733 44.6607 221.63 44.6607C220.526 44.6607 220.526 44.5108 219.423 44.5108C218.319 44.5108 218.319 44.4477 217.216 44.4477C216.112 44.4477 216.112 44.6291 215.009 44.6291C213.905 44.6291 213.905 44.787 212.802 44.787C211.698 44.787 211.698 44.9211 210.595 44.9211C209.492 44.9211 209.492 44.5345 208.388 44.5345C207.285 44.5345 207.285 44.1715 206.181 44.1715C205.078 44.1715 205.078 44.708 203.974 44.708C202.871 44.708 202.871 44.2267 201.767 44.2267C200.664 44.2267 200.664 44.4003 199.56 44.4003C198.457 44.4003 198.457 44.787 197.353 44.787C196.25 44.787 196.25 44.9132 195.146 44.9132C194.043 44.9132 194.043 44.282 192.939 44.282C191.836 44.282 191.836 44.4634 190.733 44.4634C189.629 44.4634 189.629 44.5502 188.526 44.5502C187.422 44.5502 187.422 44.2898 186.319 44.2898C185.215 44.2898 185.215 44.3056 184.112 44.3056C183.008 44.3056 183.008 44.9763 181.905 44.9763C180.801 44.9763 180.801 44.3688 179.698 44.3688C178.594 44.3688 178.594 44.9053 177.491 44.9053C176.387 44.9053 176.387 44.3293 175.284 44.3293C174.181 44.3293 174.181 44.7317 173.077 44.7317C171.974 44.7317 171.974 44.9527 170.87 44.9527C169.767 44.9527 169.767 44.5818 168.663 44.5818C167.56 44.5818 167.56 44.9842 166.456 44.9842C165.353 44.9842 165.353 44.8895 164.249 44.8895C163.146 44.8895 163.146 44.3372 162.042 44.3372C160.939 44.3372 160.939 44.6449 159.835 44.6449C158.732 44.6449 158.732 44.3214 157.628 44.3214C156.525 44.3214 156.525 44.4871 155.422 44.4871C154.318 44.4871 154.318 44.5266 153.215 44.5266C152.111 44.5266 152.111 44.424 151.008 44.424C149.904 44.424 149.904 44.2109 148.801 44.2109C147.697 44.2109 147.697 44.787 146.594 44.787C145.49 44.787 145.49 44.2898 144.387 44.2898C143.283 44.2898 143.283 44.9132 142.18 44.9132C141.076 44.9132 141.076 44.9605 139.973 44.9605C138.87 44.9605 138.87 44.7159 137.766 44.7159C136.663 44.7159 136.663 44.5739 135.559 44.5739C134.456 44.5739 134.456 44.8816 133.352 44.8816C132.249 44.8816 132.249 44.7948 131.145 44.7948C130.042 44.7948 130.042 44.495 128.938 44.495C127.835 44.495 127.835 44.2741 126.731 44.2741C125.628 44.2741 125.628 44.2741 124.524 44.2741C123.421 44.2741 123.421 44.2109 122.317 44.2109C121.214 44.2109 121.214 44.929 120.101 44.929C118.987 44.929 118.997 44.4871 117.894 44.4871C116.79 44.4871 116.79 44.2267 115.687 44.2267C114.583 44.2267 114.583 44.6607 113.48 44.6607C112.376 44.6607 112.376 44.9527 111.273 44.9527C110.169 44.9527 110.169 44.8974 109.066 44.8974C107.963 44.8974 107.963 44.8343 106.859 44.8343C105.756 44.8343 105.756 44.9448 104.652 44.9448C103.549 44.9448 103.549 44.4792 102.435 44.4792C101.322 44.4792 101.332 44.424 100.228 44.424C99.1249 44.424 99.1249 44.4319 98.0215 44.4319C96.918 44.4319 96.918 44.2109 95.8145 44.2109C94.7111 44.2109 94.7111 44.8185 93.6076 44.8185C92.5041 44.8185 92.5041 44.2267 91.3908 44.2267C90.2775 44.2267 90.2873 44.1873 89.1839 44.1873C88.0804 44.1873 88.0804 44.9842 86.9769 44.9842C85.8735 44.9842 85.8735 44.5739 84.77 44.5739C83.6665 44.5739 83.6665 44.8737 82.5631 44.8737C81.4596 44.8737 81.4596 44.6686 80.3463 44.6686C79.2329 44.6686 79.2428 44.4634 78.1393 44.4634C77.0359 44.4634 77.0359 44.353 75.9324 44.353C74.8289 44.353 74.8289 45 73.7156 45C72.6023 45 72.6121 44.9211 71.4988 44.9211C70.3855 44.9211 70.3954 44.2031 69.2919 44.2031C68.1884 44.2031 68.1884 44.7238 67.0751 44.7238C65.9618 44.7238 65.9716 44.4634 64.8583 44.4634C63.745 44.4634 63.7548 44.5976 62.6514 44.5976C61.5479 44.5976 61.5479 44.3766 60.4444 44.3766C59.341 44.3766 59.341 44.7238 58.2375 44.7238C57.134 44.7238 57.134 44.8106 56.0207 44.8106C54.9074 44.8106 54.9172 44.9211 53.8039 44.9211C52.6906 44.9211 52.7004 44.8816 51.597 44.8816C50.4935 44.8816 50.4935 44.9132 49.39 44.9132C48.2866 44.9132 48.2866 44.787 47.1732 44.787C46.0599 44.787 46.0698 44.858 44.9663 44.858C43.8628 44.858 43.8628 44.3214 42.7495 44.3214C41.6362 44.3214 41.6461 44.4871 40.5327 44.4871C39.4194 44.4871 39.4293 44.4398 38.3159 44.4398C37.2026 44.4398 37.2125 44.5818 36.0992 44.5818C34.9858 44.5818 34.9957 44.6134 33.8824 44.6134C32.769 44.6134 32.7789 44.8659 31.6656 44.8659C30.5523 44.8659 30.5621 44.2188 29.4586 44.2188C28.3552 44.2188 28.3552 44.6923 27.2418 44.6923C26.1285 44.6923 26.1384 44.5187 25.0251 44.5187C23.9117 44.5187 23.9117 44.2109 22.8083 44.2109C21.7048 44.2109 21.6949 44.2425 20.5915 44.2425C19.488 44.2425 19.4782 44.1952 18.3747 44.1952C17.2712 44.1952 17.2614 44.5108 16.1579 44.5108C15.4288 44.5108 14.6899 44.6291 14.0002 44.5423C13.3106 44.4556 12.5913 44.2504 11.9214 44.0768C11.2514 43.9032 10.7588 43.3667 10.1282 43.1063C9.49768 42.8459 8.83756 42.6644 8.26613 42.3251C7.69469 41.9858 6.74886 41.97 6.24638 41.5597C5.74391 41.1494 5.10351 40.7628 4.67985 40.2972C4.2562 39.8317 4.36458 39.0742 4.03945 38.5613C3.71432 38.0484 2.96554 37.6539 2.74878 37.1015C2.53203 36.5492 3.0345 35.8627 2.92613 35.2867C2.81775 34.7107 2.55173 34.1899 2.55173 33.606C2.55173 32.7538 2.91627 32.7538 2.91627 31.8937C2.91627 31.0337 2.4138 31.0416 2.4138 30.1815C2.4138 29.3214 2 29.3214 2 28.4692C2 27.617 2.6207 27.617 2.6207 26.757C2.6207 25.8969 2.76849 25.8969 2.76849 25.0447C2.76849 24.1925 2.66996 24.1846 2.66996 23.3325C2.66996 22.4803 2.42365 22.4803 2.42365 21.6202C2.42365 20.7601 2.70937 20.768 2.70937 19.9079C2.70937 19.0479 2.06897 19.0479 2.06897 18.1957C2.06897 17.3435 2.8079 17.3356 2.8079 16.4834C2.8079 15.6312 2.73893 15.6234 2.73893 14.7712C2.73893 13.919 2.54188 13.9111 2.54188 13.051C2.54188 12.191 2.24631 12.191 2.24631 11.3309C2.24631 10.747 2.84731 10.2104 2.96554 9.65018C3.08376 9.08995 3.45815 8.60863 3.67491 8.07207C3.89166 7.53551 3.98033 6.99106 4.30546 6.47817C4.63059 5.96528 4.94587 5.49185 5.36952 5.03419C5.79317 4.57654 5.81288 3.82693 6.31535 3.42451C6.81782 3.02209 7.87203 3.14045 8.45332 2.80116C9.03461 2.46186 9.3893 1.90163 10.0297 1.64124C10.6701 1.38085 11.3598 1.28617 12.0494 1.11257C12.7391 0.938979 13.3598 0.725934 14.079 0.631247C14.7983 0.53656 15.4682 0.189374 16.1973 0.189374C17.3008 0.189374 17.3008 0.0157812 18.4042 0.0157812C19.5077 0.0157812 19.5077 0.599684 20.6112 0.599684C21.7146 0.599684 21.7146 0.568122 22.8181 0.568122C23.9216 0.568122 23.9216 0.441873 25.0251 0.441873C26.1285 0.441873 26.1285 0.0789059 27.232 0.0789059C28.3355 0.0789059 28.3355 0.54445 29.4389 0.54445C30.5424 0.54445 30.5424 0.639137 31.6459 0.639137C32.7493 0.639137 32.7493 0.331405 33.8528 0.331405C34.9563 0.331405 34.9563 0.118359 36.0597 0.118359C37.1632 0.118359 37.1632 0.189374 38.2667 0.189374C39.3701 0.189374 39.3701 0.639137 40.4736 0.639137C41.5771 0.639137 41.5771 0.757496 42.6806 0.757496C43.784 0.757496 43.784 0.355076 44.8875 0.355076C45.991 0.355076 45.991 0.441873 47.0944 0.441873C48.1979 0.441873 48.1979 0.497107 49.3014 0.497107C50.4048 0.497107 50.4048 0.291952 51.5083 0.291952C52.6118 0.291952 52.6118 0.718043 53.7152 0.718043C54.8187 0.718043 54.8187 0.41031 55.9222 0.41031C57.0256 0.41031 57.0256 0.473435 58.1291 0.473435C59.2326 0.473435 59.2326 0.40242 60.3361 0.40242C61.4395 0.40242 61.4395 0.0631247 62.543 0.0631247C63.6465 0.0631247 63.6465 0.441873 64.7499 0.441873C65.8534 0.441873 65.8534 0.607575 66.9569 0.607575C68.0603 0.607575 68.0603 0.560232 69.1638 0.560232C70.2673 0.560232 70.2673 0.0867964 71.3707 0.0867964C72.4742 0.0867964 72.4742 0.378748 73.5777 0.378748C74.6811 0.378748 74.6811 0.512888 75.7846 0.512888C76.8881 0.512888 76.8881 0.102578 77.9915 0.102578C79.095 0.102578 79.095 0.0473435 80.1985 0.0473435C81.302 0.0473435 81.302 0.433982 82.4054 0.433982C83.5089 0.433982 83.5089 0.27617 84.6124 0.27617C85.7158 0.27617 85.7158 0.686481 86.8193 0.686481C87.9228 0.686481 87.9228 0.244608 89.0262 0.244608C90.1297 0.244608 90.1297 0.0473435 91.2332 0.0473435C92.3366 0.0473435 92.3366 0.481326 93.4401 0.481326C94.5436 0.481326 94.5436 0.0867964 95.647 0.0867964C96.7505 0.0867964 96.7505 0.741715 97.854 0.741715C98.9575 0.741715 98.9575 0.386639 100.061 0.386639C101.164 0.386639 101.164 0.244608 102.268 0.244608C103.371 0.244608 103.371 0.639137 104.475 0.639137C105.578 0.639137 105.578 0.0867964 106.682 0.0867964C107.785 0.0867964 107.785 0.67859 108.889 0.67859C109.992 0.67859 109.992 0.702262 111.096 0.702262C112.199 0.702262 112.199 0.315623 113.303 0.315623C114.406 0.315623 114.406 0.394529 115.509 0.394529C116.613 0.394529 116.613 0.126249 117.716 0.126249C118.82 0.126249 118.82 0.142031 119.923 0.142031C121.027 0.142031 121.027 0.765387 122.13 0.765387C123.234 0.765387 123.234 0.418201 124.337 0.418201C125.441 0.418201 125.441 0.54445 126.544 0.54445C127.648 0.54445 127.648 0.80484 128.751 0.80484C129.855 0.80484 129.855 0.181483 130.958 0.181483C132.062 0.181483 132.062 0.0157812 133.165 0.0157812C134.268 0.0157812 134.268 0.307733 135.372 0.307733C136.475 0.307733 136.475 0.13414 137.579 0.13414C138.682 0.13414 138.682 0.41031 139.786 0.41031C140.889 0.41031 140.889 0.307733 141.993 0.307733C143.096 0.307733 143.096 0.291952 144.2 0.291952C145.303 0.291952 145.303 0 146.407 0C147.51 0 147.51 0.26828 148.614 0.26828C149.717 0.26828 149.717 0.568122 150.83 0.568122C151.944 0.568122 151.934 0.323514 153.037 0.323514C154.141 0.323514 154.141 0.725934 155.244 0.725934C156.348 0.725934 156.348 0.260389 157.451 0.260389C158.555 0.260389 158.555 0.213046 159.658 0.213046C160.762 0.213046 160.762 0.189374 161.865 0.189374C162.968 0.189374 162.968 0.702262 164.072 0.702262C165.175 0.702262 165.175 0.142031 166.279 0.142031C167.382 0.142031 167.382 0.0157812 168.496 0.0157812C169.609 0.0157812 169.599 0.718043 170.703 0.718043C171.806 0.718043 171.806 0.757496 172.91 0.757496C174.013 0.757496 174.013 0.694371 175.117 0.694371C176.22 0.694371 176.22 0.654918 177.323 0.654918C178.427 0.654918 178.427 0.126249 179.54 0.126249C180.654 0.126249 180.644 0.0315624 181.747 0.0315624C182.851 0.0315624 182.851 0.718043 183.954 0.718043C185.058 0.718043 185.058 0.497107 186.161 0.497107C187.264 0.497107 187.265 0.0236717 188.368 0.0236717C189.471 0.0236717 189.471 0.386639 190.585 0.386639C191.698 0.386639 191.688 0.504997 192.792 0.504997C193.895 0.504997 193.895 0 194.999 0C196.102 0 196.102 0.0315624 197.215 0.0315624C198.329 0.0315624 198.319 0.0789059 199.432 0.0789059C200.546 0.0789059 200.536 0.189374 201.639 0.189374C202.743 0.189374 202.743 0.126249 203.856 0.126249C204.969 0.126249 204.959 0.441873 206.073 0.441873C207.186 0.441873 207.176 0.647028 208.28 0.647028C209.383 0.647028 209.383 0.197265 210.487 0.197265C211.59 0.197265 211.59 0.639137 212.694 0.639137C213.797 0.639137 213.797 0.576013 214.91 0.576013C216.024 0.576013 216.014 0.0552341 217.127 0.0552341C218.24 0.0552341 218.231 0.426091 219.334 0.426091C220.438 0.426091 220.438 0.765387 221.541 0.765387C222.644 0.765387 222.644 0.142031 223.758 0.142031C224.871 0.142031 224.861 0.197265 225.965 0.197265C227.068 0.197265 227.068 0.457654 228.182 0.457654C229.295 0.457654 229.285 0.552341 230.398 0.552341C231.512 0.552341 231.502 0.757496 232.615 0.757496C233.728 0.757496 233.719 0.291952 234.832 0.291952C235.945 0.291952 235.935 0.0394529 237.049 0.0394529C238.162 0.0394529 238.152 0.394529 239.265 0.394529C240.379 0.394529 240.369 0.418201 241.472 0.418201C242.576 0.418201 242.576 0.615466 243.689 0.615466C244.803 0.615466 244.793 0.13414 245.906 0.13414C247.019 0.13414 247.019 0.142031 248.123 0.142031C249.226 0.142031 249.236 0.142031 250.34 0.142031C251.443 0.142031 251.453 0.252499 252.556 0.252499C253.66 0.252499 253.67 0.694371 254.773 0.694371C255.502 0.694371 256.152 0.820621 256.842 0.907417C257.532 0.994214 258.33 0.757496 259.01 0.931089C259.689 1.10468 260.34 1.36507 260.98 1.62546C261.621 1.88585 262.212 2.20147 262.793 2.54077C263.374 2.88006 263.956 3.21147 264.468 3.62178C264.98 4.03209 265.384 4.50552 265.808 4.97107C266.231 5.43661 266.507 5.95739 266.832 6.47028C267.158 6.98317 267.158 7.55918 267.374 8.11152C267.591 8.66386 268.163 9.10573 268.281 9.67386C268.399 10.242 268.33 10.8022 268.33 11.3861C268.33 12.2383 268.783 12.2383 268.783 13.0984C268.783 13.9584 268.695 13.9506 268.695 14.8106C268.695 15.6707 268.813 15.6707 268.813 16.5229C268.813 17.3751 269 17.3751 269 18.2351C269 19.0952 268.034 19.0952 268.034 19.9474C268.034 20.7996 268.241 20.8075 268.241 21.6597C268.241 22.5118 268.517 22.5118 268.517 23.3719C268.517 24.232 268.379 24.2241 268.379 25.0842C268.379 25.9442 268.448 25.9442 268.448 26.7964C268.448 27.6486 268.015 27.6565 268.015 28.5087C268.015 29.3609 267.975 29.3688 267.975 30.2209C267.975 31.0731 268.892 31.081 268.892 31.9411C268.892 32.8012 268.458 32.8012 268.458 33.6612C268.458 34.2451 268.714 34.8527 268.606 35.4129C268.498 35.9732 268.172 36.5492 267.946 37.0857C267.719 37.6223 266.862 37.9537 266.547 38.4587C266.231 38.9637 265.877 39.4056 265.453 39.8632C265.03 40.3209 264.616 40.7154 264.113 41.1257C263.611 41.536 263.67 42.475 263.089 42.8143C262.507 43.1536 261.837 43.4771 261.197 43.7375C260.557 43.9979 259.552 43.5481 258.872 43.7296C258.192 43.9111 257.581 44.0847 256.872 44.1794C256.162 44.2741 255.522 44.4003 254.793 44.4003L254.734 44.3688Z"/>
</mask>
<path d="M254.734 44.3688C253.63 44.3688 253.63 44.5108 252.527 44.5108C251.423 44.5108 251.423 44.5187 250.32 44.5187C249.216 44.5187 249.216 44.3056 248.113 44.3056C247.009 44.3056 247.009 44.3451 245.906 44.3451C244.803 44.3451 244.803 44.2898 243.699 44.2898C242.596 44.2898 242.596 44.3924 241.492 44.3924C240.389 44.3924 240.389 44.1715 239.285 44.1715C238.182 44.1715 238.182 44.9527 237.078 44.9527C235.975 44.9527 235.975 44.9132 234.871 44.9132C233.768 44.9132 233.768 44.2504 232.664 44.2504C231.561 44.2504 231.561 44.2662 230.457 44.2662C229.354 44.2662 229.354 44.3845 228.25 44.3845C227.147 44.3845 227.147 44.8027 226.044 44.8027C224.94 44.8027 224.94 44.3214 223.837 44.3214C222.733 44.3214 222.733 44.6607 221.63 44.6607C220.526 44.6607 220.526 44.5108 219.423 44.5108C218.319 44.5108 218.319 44.4477 217.216 44.4477C216.112 44.4477 216.112 44.6291 215.009 44.6291C213.905 44.6291 213.905 44.787 212.802 44.787C211.698 44.787 211.698 44.9211 210.595 44.9211C209.492 44.9211 209.492 44.5345 208.388 44.5345C207.285 44.5345 207.285 44.1715 206.181 44.1715C205.078 44.1715 205.078 44.708 203.974 44.708C202.871 44.708 202.871 44.2267 201.767 44.2267C200.664 44.2267 200.664 44.4003 199.56 44.4003C198.457 44.4003 198.457 44.787 197.353 44.787C196.25 44.787 196.25 44.9132 195.146 44.9132C194.043 44.9132 194.043 44.282 192.939 44.282C191.836 44.282 191.836 44.4634 190.733 44.4634C189.629 44.4634 189.629 44.5502 188.526 44.5502C187.422 44.5502 187.422 44.2898 186.319 44.2898C185.215 44.2898 185.215 44.3056 184.112 44.3056C183.008 44.3056 183.008 44.9763 181.905 44.9763C180.801 44.9763 180.801 44.3688 179.698 44.3688C178.594 44.3688 178.594 44.9053 177.491 44.9053C176.387 44.9053 176.387 44.3293 175.284 44.3293C174.181 44.3293 174.181 44.7317 173.077 44.7317C171.974 44.7317 171.974 44.9527 170.87 44.9527C169.767 44.9527 169.767 44.5818 168.663 44.5818C167.56 44.5818 167.56 44.9842 166.456 44.9842C165.353 44.9842 165.353 44.8895 164.249 44.8895C163.146 44.8895 163.146 44.3372 162.042 44.3372C160.939 44.3372 160.939 44.6449 159.835 44.6449C158.732 44.6449 158.732 44.3214 157.628 44.3214C156.525 44.3214 156.525 44.4871 155.422 44.4871C154.318 44.4871 154.318 44.5266 153.215 44.5266C152.111 44.5266 152.111 44.424 151.008 44.424C149.904 44.424 149.904 44.2109 148.801 44.2109C147.697 44.2109 147.697 44.787 146.594 44.787C145.49 44.787 145.49 44.2898 144.387 44.2898C143.283 44.2898 143.283 44.9132 142.18 44.9132C141.076 44.9132 141.076 44.9605 139.973 44.9605C138.87 44.9605 138.87 44.7159 137.766 44.7159C136.663 44.7159 136.663 44.5739 135.559 44.5739C134.456 44.5739 134.456 44.8816 133.352 44.8816C132.249 44.8816 132.249 44.7948 131.145 44.7948C130.042 44.7948 130.042 44.495 128.938 44.495C127.835 44.495 127.835 44.2741 126.731 44.2741C125.628 44.2741 125.628 44.2741 124.524 44.2741C123.421 44.2741 123.421 44.2109 122.317 44.2109C121.214 44.2109 121.214 44.929 120.101 44.929C118.987 44.929 118.997 44.4871 117.894 44.4871C116.79 44.4871 116.79 44.2267 115.687 44.2267C114.583 44.2267 114.583 44.6607 113.48 44.6607C112.376 44.6607 112.376 44.9527 111.273 44.9527C110.169 44.9527 110.169 44.8974 109.066 44.8974C107.963 44.8974 107.963 44.8343 106.859 44.8343C105.756 44.8343 105.756 44.9448 104.652 44.9448C103.549 44.9448 103.549 44.4792 102.435 44.4792C101.322 44.4792 101.332 44.424 100.228 44.424C99.1249 44.424 99.1249 44.4319 98.0215 44.4319C96.918 44.4319 96.918 44.2109 95.8145 44.2109C94.7111 44.2109 94.7111 44.8185 93.6076 44.8185C92.5041 44.8185 92.5041 44.2267 91.3908 44.2267C90.2775 44.2267 90.2873 44.1873 89.1839 44.1873C88.0804 44.1873 88.0804 44.9842 86.9769 44.9842C85.8735 44.9842 85.8735 44.5739 84.77 44.5739C83.6665 44.5739 83.6665 44.8737 82.5631 44.8737C81.4596 44.8737 81.4596 44.6686 80.3463 44.6686C79.2329 44.6686 79.2428 44.4634 78.1393 44.4634C77.0359 44.4634 77.0359 44.353 75.9324 44.353C74.8289 44.353 74.8289 45 73.7156 45C72.6023 45 72.6121 44.9211 71.4988 44.9211C70.3855 44.9211 70.3954 44.2031 69.2919 44.2031C68.1884 44.2031 68.1884 44.7238 67.0751 44.7238C65.9618 44.7238 65.9716 44.4634 64.8583 44.4634C63.745 44.4634 63.7548 44.5976 62.6514 44.5976C61.5479 44.5976 61.5479 44.3766 60.4444 44.3766C59.341 44.3766 59.341 44.7238 58.2375 44.7238C57.134 44.7238 57.134 44.8106 56.0207 44.8106C54.9074 44.8106 54.9172 44.9211 53.8039 44.9211C52.6906 44.9211 52.7004 44.8816 51.597 44.8816C50.4935 44.8816 50.4935 44.9132 49.39 44.9132C48.2866 44.9132 48.2866 44.787 47.1732 44.787C46.0599 44.787 46.0698 44.858 44.9663 44.858C43.8628 44.858 43.8628 44.3214 42.7495 44.3214C41.6362 44.3214 41.6461 44.4871 40.5327 44.4871C39.4194 44.4871 39.4293 44.4398 38.3159 44.4398C37.2026 44.4398 37.2125 44.5818 36.0992 44.5818C34.9858 44.5818 34.9957 44.6134 33.8824 44.6134C32.769 44.6134 32.7789 44.8659 31.6656 44.8659C30.5523 44.8659 30.5621 44.2188 29.4586 44.2188C28.3552 44.2188 28.3552 44.6923 27.2418 44.6923C26.1285 44.6923 26.1384 44.5187 25.0251 44.5187C23.9117 44.5187 23.9117 44.2109 22.8083 44.2109C21.7048 44.2109 21.6949 44.2425 20.5915 44.2425C19.488 44.2425 19.4782 44.1952 18.3747 44.1952C17.2712 44.1952 17.2614 44.5108 16.1579 44.5108C15.4288 44.5108 14.6899 44.6291 14.0002 44.5423C13.3106 44.4556 12.5913 44.2504 11.9214 44.0768C11.2514 43.9032 10.7588 43.3667 10.1282 43.1063C9.49768 42.8459 8.83756 42.6644 8.26613 42.3251C7.69469 41.9858 6.74886 41.97 6.24638 41.5597C5.74391 41.1494 5.10351 40.7628 4.67985 40.2972C4.2562 39.8317 4.36458 39.0742 4.03945 38.5613C3.71432 38.0484 2.96554 37.6539 2.74878 37.1015C2.53203 36.5492 3.0345 35.8627 2.92613 35.2867C2.81775 34.7107 2.55173 34.1899 2.55173 33.606C2.55173 32.7538 2.91627 32.7538 2.91627 31.8937C2.91627 31.0337 2.4138 31.0416 2.4138 30.1815C2.4138 29.3214 2 29.3214 2 28.4692C2 27.617 2.6207 27.617 2.6207 26.757C2.6207 25.8969 2.76849 25.8969 2.76849 25.0447C2.76849 24.1925 2.66996 24.1846 2.66996 23.3325C2.66996 22.4803 2.42365 22.4803 2.42365 21.6202C2.42365 20.7601 2.70937 20.768 2.70937 19.9079C2.70937 19.0479 2.06897 19.0479 2.06897 18.1957C2.06897 17.3435 2.8079 17.3356 2.8079 16.4834C2.8079 15.6312 2.73893 15.6234 2.73893 14.7712C2.73893 13.919 2.54188 13.9111 2.54188 13.051C2.54188 12.191 2.24631 12.191 2.24631 11.3309C2.24631 10.747 2.84731 10.2104 2.96554 9.65018C3.08376 9.08995 3.45815 8.60863 3.67491 8.07207C3.89166 7.53551 3.98033 6.99106 4.30546 6.47817C4.63059 5.96528 4.94587 5.49185 5.36952 5.03419C5.79317 4.57654 5.81288 3.82693 6.31535 3.42451C6.81782 3.02209 7.87203 3.14045 8.45332 2.80116C9.03461 2.46186 9.3893 1.90163 10.0297 1.64124C10.6701 1.38085 11.3598 1.28617 12.0494 1.11257C12.7391 0.938979 13.3598 0.725934 14.079 0.631247C14.7983 0.53656 15.4682 0.189374 16.1973 0.189374C17.3008 0.189374 17.3008 0.0157812 18.4042 0.0157812C19.5077 0.0157812 19.5077 0.599684 20.6112 0.599684C21.7146 0.599684 21.7146 0.568122 22.8181 0.568122C23.9216 0.568122 23.9216 0.441873 25.0251 0.441873C26.1285 0.441873 26.1285 0.0789059 27.232 0.0789059C28.3355 0.0789059 28.3355 0.54445 29.4389 0.54445C30.5424 0.54445 30.5424 0.639137 31.6459 0.639137C32.7493 0.639137 32.7493 0.331405 33.8528 0.331405C34.9563 0.331405 34.9563 0.118359 36.0597 0.118359C37.1632 0.118359 37.1632 0.189374 38.2667 0.189374C39.3701 0.189374 39.3701 0.639137 40.4736 0.639137C41.5771 0.639137 41.5771 0.757496 42.6806 0.757496C43.784 0.757496 43.784 0.355076 44.8875 0.355076C45.991 0.355076 45.991 0.441873 47.0944 0.441873C48.1979 0.441873 48.1979 0.497107 49.3014 0.497107C50.4048 0.497107 50.4048 0.291952 51.5083 0.291952C52.6118 0.291952 52.6118 0.718043 53.7152 0.718043C54.8187 0.718043 54.8187 0.41031 55.9222 0.41031C57.0256 0.41031 57.0256 0.473435 58.1291 0.473435C59.2326 0.473435 59.2326 0.40242 60.3361 0.40242C61.4395 0.40242 61.4395 0.0631247 62.543 0.0631247C63.6465 0.0631247 63.6465 0.441873 64.7499 0.441873C65.8534 0.441873 65.8534 0.607575 66.9569 0.607575C68.0603 0.607575 68.0603 0.560232 69.1638 0.560232C70.2673 0.560232 70.2673 0.0867964 71.3707 0.0867964C72.4742 0.0867964 72.4742 0.378748 73.5777 0.378748C74.6811 0.378748 74.6811 0.512888 75.7846 0.512888C76.8881 0.512888 76.8881 0.102578 77.9915 0.102578C79.095 0.102578 79.095 0.0473435 80.1985 0.0473435C81.302 0.0473435 81.302 0.433982 82.4054 0.433982C83.5089 0.433982 83.5089 0.27617 84.6124 0.27617C85.7158 0.27617 85.7158 0.686481 86.8193 0.686481C87.9228 0.686481 87.9228 0.244608 89.0262 0.244608C90.1297 0.244608 90.1297 0.0473435 91.2332 0.0473435C92.3366 0.0473435 92.3366 0.481326 93.4401 0.481326C94.5436 0.481326 94.5436 0.0867964 95.647 0.0867964C96.7505 0.0867964 96.7505 0.741715 97.854 0.741715C98.9575 0.741715 98.9575 0.386639 100.061 0.386639C101.164 0.386639 101.164 0.244608 102.268 0.244608C103.371 0.244608 103.371 0.639137 104.475 0.639137C105.578 0.639137 105.578 0.0867964 106.682 0.0867964C107.785 0.0867964 107.785 0.67859 108.889 0.67859C109.992 0.67859 109.992 0.702262 111.096 0.702262C112.199 0.702262 112.199 0.315623 113.303 0.315623C114.406 0.315623 114.406 0.394529 115.509 0.394529C116.613 0.394529 116.613 0.126249 117.716 0.126249C118.82 0.126249 118.82 0.142031 119.923 0.142031C121.027 0.142031 121.027 0.765387 122.13 0.765387C123.234 0.765387 123.234 0.418201 124.337 0.418201C125.441 0.418201 125.441 0.54445 126.544 0.54445C127.648 0.54445 127.648 0.80484 128.751 0.80484C129.855 0.80484 129.855 0.181483 130.958 0.181483C132.062 0.181483 132.062 0.0157812 133.165 0.0157812C134.268 0.0157812 134.268 0.307733 135.372 0.307733C136.475 0.307733 136.475 0.13414 137.579 0.13414C138.682 0.13414 138.682 0.41031 139.786 0.41031C140.889 0.41031 140.889 0.307733 141.993 0.307733C143.096 0.307733 143.096 0.291952 144.2 0.291952C145.303 0.291952 145.303 0 146.407 0C147.51 0 147.51 0.26828 148.614 0.26828C149.717 0.26828 149.717 0.568122 150.83 0.568122C151.944 0.568122 151.934 0.323514 153.037 0.323514C154.141 0.323514 154.141 0.725934 155.244 0.725934C156.348 0.725934 156.348 0.260389 157.451 0.260389C158.555 0.260389 158.555 0.213046 159.658 0.213046C160.762 0.213046 160.762 0.189374 161.865 0.189374C162.968 0.189374 162.968 0.702262 164.072 0.702262C165.175 0.702262 165.175 0.142031 166.279 0.142031C167.382 0.142031 167.382 0.0157812 168.496 0.0157812C169.609 0.0157812 169.599 0.718043 170.703 0.718043C171.806 0.718043 171.806 0.757496 172.91 0.757496C174.013 0.757496 174.013 0.694371 175.117 0.694371C176.22 0.694371 176.22 0.654918 177.323 0.654918C178.427 0.654918 178.427 0.126249 179.54 0.126249C180.654 0.126249 180.644 0.0315624 181.747 0.0315624C182.851 0.0315624 182.851 0.718043 183.954 0.718043C185.058 0.718043 185.058 0.497107 186.161 0.497107C187.264 0.497107 187.265 0.0236717 188.368 0.0236717C189.471 0.0236717 189.471 0.386639 190.585 0.386639C191.698 0.386639 191.688 0.504997 192.792 0.504997C193.895 0.504997 193.895 0 194.999 0C196.102 0 196.102 0.0315624 197.215 0.0315624C198.329 0.0315624 198.319 0.0789059 199.432 0.0789059C200.546 0.0789059 200.536 0.189374 201.639 0.189374C202.743 0.189374 202.743 0.126249 203.856 0.126249C204.969 0.126249 204.959 0.441873 206.073 0.441873C207.186 0.441873 207.176 0.647028 208.28 0.647028C209.383 0.647028 209.383 0.197265 210.487 0.197265C211.59 0.197265 211.59 0.639137 212.694 0.639137C213.797 0.639137 213.797 0.576013 214.91 0.576013C216.024 0.576013 216.014 0.0552341 217.127 0.0552341C218.24 0.0552341 218.231 0.426091 219.334 0.426091C220.438 0.426091 220.438 0.765387 221.541 0.765387C222.644 0.765387 222.644 0.142031 223.758 0.142031C224.871 0.142031 224.861 0.197265 225.965 0.197265C227.068 0.197265 227.068 0.457654 228.182 0.457654C229.295 0.457654 229.285 0.552341 230.398 0.552341C231.512 0.552341 231.502 0.757496 232.615 0.757496C233.728 0.757496 233.719 0.291952 234.832 0.291952C235.945 0.291952 235.935 0.0394529 237.049 0.0394529C238.162 0.0394529 238.152 0.394529 239.265 0.394529C240.379 0.394529 240.369 0.418201 241.472 0.418201C242.576 0.418201 242.576 0.615466 243.689 0.615466C244.803 0.615466 244.793 0.13414 245.906 0.13414C247.019 0.13414 247.019 0.142031 248.123 0.142031C249.226 0.142031 249.236 0.142031 250.34 0.142031C251.443 0.142031 251.453 0.252499 252.556 0.252499C253.66 0.252499 253.67 0.694371 254.773 0.694371C255.502 0.694371 256.152 0.820621 256.842 0.907417C257.532 0.994214 258.33 0.757496 259.01 0.931089C259.689 1.10468 260.34 1.36507 260.98 1.62546C261.621 1.88585 262.212 2.20147 262.793 2.54077C263.374 2.88006 263.956 3.21147 264.468 3.62178C264.98 4.03209 265.384 4.50552 265.808 4.97107C266.231 5.43661 266.507 5.95739 266.832 6.47028C267.158 6.98317 267.158 7.55918 267.374 8.11152C267.591 8.66386 268.163 9.10573 268.281 9.67386C268.399 10.242 268.33 10.8022 268.33 11.3861C268.33 12.2383 268.783 12.2383 268.783 13.0984C268.783 13.9584 268.695 13.9506 268.695 14.8106C268.695 15.6707 268.813 15.6707 268.813 16.5229C268.813 17.3751 269 17.3751 269 18.2351C269 19.0952 268.034 19.0952 268.034 19.9474C268.034 20.7996 268.241 20.8075 268.241 21.6597C268.241 22.5118 268.517 22.5118 268.517 23.3719C268.517 24.232 268.379 24.2241 268.379 25.0842C268.379 25.9442 268.448 25.9442 268.448 26.7964C268.448 27.6486 268.015 27.6565 268.015 28.5087C268.015 29.3609 267.975 29.3688 267.975 30.2209C267.975 31.0731 268.892 31.081 268.892 31.9411C268.892 32.8012 268.458 32.8012 268.458 33.6612C268.458 34.2451 268.714 34.8527 268.606 35.4129C268.498 35.9732 268.172 36.5492 267.946 37.0857C267.719 37.6223 266.862 37.9537 266.547 38.4587C266.231 38.9637 265.877 39.4056 265.453 39.8632C265.03 40.3209 264.616 40.7154 264.113 41.1257C263.611 41.536 263.67 42.475 263.089 42.8143C262.507 43.1536 261.837 43.4771 261.197 43.7375C260.557 43.9979 259.552 43.5481 258.872 43.7296C258.192 43.9111 257.581 44.0847 256.872 44.1794C256.162 44.2741 255.522 44.4003 254.793 44.4003L254.734 44.3688Z" fill="#9E4AFF" stroke="black" stroke-width="2" stroke-miterlimit="10" mask="url(#path-1-inside-1_553_1410)"/>
<path d="M125.64 14.5H125.784C126.216 14.5 126.456 14.788 126.504 15.364V15.58H128.664C129.144 15.676 129.384 15.916 129.384 16.3V16.372C129.384 16.9 128.976 17.164 128.16 17.164C128.688 17.62 128.952 18.196 128.952 18.892V19.036C128.952 19.912 128.304 20.488 127.008 20.764C126.528 20.908 126 20.98 125.424 20.98C123.504 20.812 122.544 20.188 122.544 19.108C122.544 19.06 122.52 18.988 122.472 18.892C122.748 17.884 123.036 17.38 123.336 17.38V17.308C122.52 17.308 122.112 17.068 122.112 16.588V16.444C122.112 15.916 122.712 15.652 123.912 15.652H124.92V15.364C124.968 14.788 125.208 14.5 125.64 14.5ZM124.128 18.964C124.128 19.204 124.488 19.348 125.208 19.396H125.64C126.792 19.3 127.368 19.156 127.368 18.964V18.676C127.26 18.436 127.02 18.316 126.648 18.316H125.136C124.464 18.316 124.128 18.532 124.128 18.964ZM132.12 15.058C132.6 15.178 132.84 15.442 132.84 15.85V18.658C132.852 18.754 132.9 18.802 132.984 18.802H134.208C134.736 18.802 135 19.114 135 19.738C134.856 20.17 134.544 20.386 134.064 20.386H133.2L132.84 20.314C132.888 21.526 132.912 22.486 132.912 23.194V23.338C132.828 24.01 132.564 24.346 132.12 24.346C131.592 24.214 131.328 23.95 131.328 23.554C131.28 20.578 131.256 18.898 131.256 18.514C131.304 17.014 131.328 16.054 131.328 15.634C131.52 15.25 131.784 15.058 132.12 15.058ZM126.576 19.81C127.104 19.81 127.368 20.434 127.368 21.682V21.754C128.364 21.706 129.468 21.61 130.68 21.466C131.088 21.466 131.352 21.754 131.472 22.33C131.472 22.906 130.608 23.194 128.88 23.194C127.92 23.29 125.928 23.386 122.904 23.482C122.508 23.482 122.268 23.218 122.184 22.69C122.184 22.162 122.784 21.898 123.984 21.898C124.272 21.85 124.872 21.826 125.784 21.826V21.178C125.784 21.01 125.76 20.794 125.712 20.53C125.712 20.134 126 19.894 126.576 19.81ZM123.84 24.652H131.76C132.252 24.652 132.54 25.012 132.624 25.732V27.964C132.624 29.932 132.432 30.916 132.048 30.916C132.048 31.012 131.904 31.06 131.616 31.06C131.244 31.06 131.004 30.796 130.896 30.268C130.992 29.632 131.04 29.008 131.04 28.396V26.236H130.968C129.768 26.236 127.32 26.212 123.624 26.164C123.24 25.996 123.048 25.732 123.048 25.372C123.18 24.892 123.444 24.652 123.84 24.652ZM140.287 16.102C141.583 16.102 142.615 16.78 143.383 18.136C143.575 18.748 143.695 19.252 143.743 19.648C143.743 21.208 142.855 22.39 141.079 23.194C140.755 23.242 140.491 23.266 140.287 23.266H139.567C138.127 23.266 137.095 22.336 136.471 20.476L136.399 19.72C136.399 17.92 137.359 16.714 139.279 16.102H140.287ZM137.983 19.72C137.983 20.8 138.559 21.454 139.711 21.682C141.043 21.682 141.859 21.082 142.159 19.882V19.648C142.159 18.7 141.535 18.046 140.287 17.686C139.231 17.686 138.487 18.112 138.055 18.964L137.983 19.72ZM146.785 15.418H146.929C147.349 15.418 147.589 15.73 147.649 16.354V18.37C147.649 19.57 147.673 21.274 147.721 23.482C147.637 23.698 147.469 23.89 147.217 24.058H146.713C146.281 24.058 146.065 22.954 146.065 20.746V19.45L146.137 19.018C146.089 18.706 146.065 18.394 146.065 18.082V16.282C146.113 15.706 146.353 15.418 146.785 15.418ZM138.955 24.724C139.531 24.724 139.819 25.804 139.819 27.964V28.756H143.635C144.499 28.756 145.675 28.732 147.163 28.684C147.643 28.816 147.883 29.056 147.883 29.404V29.548C147.883 29.872 147.667 30.112 147.235 30.268C145.171 30.316 143.587 30.34 142.483 30.34H139.171C138.547 30.34 138.235 29.836 138.235 28.828C138.235 27.388 138.211 26.236 138.163 25.372C138.319 24.94 138.583 24.724 138.955 24.724Z" fill="white"/>
</svg>
