<svg width="81" height="56" viewBox="0 0 81 56" fill="none" xmlns="http://www.w3.org/2000/svg">
<g clip-path="url(#clip0_764_1452)">
<mask id="path-1-inside-1_764_1452" fill="white">
<path d="M73.2895 55.7811C72.1638 55.7811 72.1638 55.8308 71.0282 55.8308C69.8925 55.8308 69.9025 55.8308 68.7668 55.8308C67.6312 55.8308 67.6411 55.7512 66.5055 55.7512C65.3698 55.7512 65.3798 55.7612 64.2441 55.7612C63.1085 55.7612 63.1184 55.7413 61.9828 55.7413C60.8471 55.7413 60.8571 55.7811 59.7214 55.7811C58.5858 55.7811 58.5957 55.7015 57.4601 55.7015C56.3244 55.7015 56.3344 56 55.2087 56C54.083 56 54.083 55.9801 52.9573 55.9801C51.8316 55.9801 51.8316 55.7313 50.7059 55.7313C49.5802 55.7313 49.5802 55.7313 48.4446 55.7313C47.3089 55.7313 47.3189 55.7811 46.1833 55.7811C45.0476 55.7811 45.0576 55.9403 43.9219 55.9403C42.7863 55.9403 42.7962 55.7612 41.6606 55.7612C40.5249 55.7612 40.5349 55.8905 39.3992 55.8905C38.2636 55.8905 38.2735 55.8308 37.1379 55.8308C36.0022 55.8308 36.0122 55.8109 34.8765 55.8109C33.7409 55.8109 33.7508 55.8806 32.6152 55.8806C31.4795 55.8806 31.4795 55.9403 30.3538 55.9403C29.2281 55.9403 29.2281 55.9901 28.0925 55.9901C26.9568 55.9901 26.9568 55.8408 25.8311 55.8408C24.7054 55.8408 24.6955 55.7015 23.5698 55.7015C22.4441 55.7015 22.4441 55.9104 21.3085 55.9104C20.1728 55.9104 20.1828 55.7313 19.0471 55.7313C17.9115 55.7313 17.9115 55.801 16.7858 55.801C15.6601 55.801 15.6501 55.9503 14.5244 55.9503C13.3987 55.9503 13.3888 56 12.2631 56C11.1374 56 11.1274 55.7612 9.99176 55.7612C8.85611 55.7612 8.85611 55.8308 7.72045 55.8308C6.90358 55.8308 6.11659 55.7313 5.37941 55.4925C4.64223 55.2537 3.96483 54.796 3.32727 54.3383C2.68971 53.8806 2.1418 53.3333 1.67359 52.6965C1.20539 52.0597 0.617636 51.4627 0.368589 50.6965C0.119543 49.9304 0.219161 49.1244 0.219161 48.3085C0.219161 47.1841 0.0199238 47.1841 0.0199238 46.0597C0.0199238 44.9353 0.239085 44.9353 0.239085 43.8109C0.239085 42.6866 0.0896569 42.6866 0.0896569 41.5622C0.0896569 40.4378 0.00996189 40.4378 0.00996189 39.3035C0.00996189 38.1692 0.149428 38.1791 0.149428 37.0547C0.149428 35.9303 0 35.9304 0 34.796C0 33.6617 0.0398475 33.6716 0.0398475 32.5473C0.0398475 31.4229 0.249047 31.4229 0.249047 30.2886C0.249047 29.1542 0.129504 29.1642 0.129504 28.0398C0.129504 26.9154 0.249047 26.9154 0.249047 25.7811C0.249047 24.6468 0.189276 24.6567 0.189276 23.5224C0.189276 22.3881 0.179314 22.398 0.179314 21.2736C0.179314 20.1493 0.219161 20.1493 0.219161 19.0149C0.219161 17.8806 0.298856 17.8905 0.298856 16.7562C0.298856 15.6219 0.079695 15.6318 0.079695 14.4975C0.079695 13.3632 0.268971 13.3731 0.268971 12.2388C0.268971 11.1045 0.0298856 11.1045 0.0298856 9.9801C0.0298856 8.85572 0.00996189 8.84577 0.00996189 7.72139C0.00996189 6.90547 0.239085 6.0995 0.47817 5.36318C0.717255 4.62687 1.14562 3.91045 1.60386 3.27363C2.06211 2.63682 2.57016 1.97015 3.20772 1.50249C3.84528 1.03483 4.60239 0.686567 5.35949 0.437811C6.11659 0.189055 6.91354 0.179104 7.73041 0.179104C8.85611 0.179104 8.85611 0.258706 9.99176 0.258706C11.1274 0.258706 11.1175 0.258706 12.2531 0.258706C13.3888 0.258706 13.3788 0.278607 14.5145 0.278607C15.6501 0.278607 15.6401 0.00995024 16.7758 0.00995024C17.9115 0.00995024 17.9015 0.179104 19.0371 0.179104C20.1728 0.179104 20.1628 0.278607 21.2985 0.278607C22.4341 0.278607 22.4242 0.109453 23.5598 0.109453C24.6955 0.109453 24.6855 0 25.8112 0C26.9369 0 26.9369 0.0199005 28.0626 0.0199005C29.1883 0.0199005 29.1883 0.0497513 30.314 0.0497513C31.4397 0.0497513 31.4397 0.00995024 32.5753 0.00995024C33.711 0.00995024 33.701 0.189055 34.8367 0.189055C35.9723 0.189055 35.9624 0.208955 37.098 0.208955C38.2337 0.208955 38.2237 0.208955 39.3594 0.208955C40.495 0.208955 40.4851 0.288557 41.6207 0.288557C42.7564 0.288557 42.7464 0.0597015 43.8821 0.0597015C45.0177 0.0597015 45.0077 0.288557 46.1434 0.288557C47.2791 0.288557 47.2691 0.298507 48.4047 0.298507C49.5404 0.298507 49.5404 0 50.6661 0C51.7918 0 51.7918 0.159204 52.9274 0.159204C54.0631 0.159204 54.0631 0.0497513 55.1888 0.0497513C56.3145 0.0497513 56.3244 0.129353 57.4501 0.129353C58.5758 0.129353 58.5758 0.208955 59.7115 0.208955C60.8471 0.208955 60.8372 0.248756 61.9728 0.248756C63.1085 0.248756 63.1085 0.00995024 64.2342 0.00995024C65.3599 0.00995024 65.3698 0.039801 66.4955 0.039801C67.6212 0.039801 67.6312 0.308458 68.7569 0.308458C69.8825 0.308458 69.8925 0.109453 71.0282 0.109453C72.1638 0.109453 72.1638 0.208955 73.2995 0.208955C74.1163 0.208955 74.9033 0.288557 75.6405 0.527363C76.3777 0.766169 77.0651 1.21393 77.7026 1.67164C78.3402 2.12935 78.9977 2.60697 79.4659 3.25373C79.9341 3.9005 80.3326 4.60697 80.5816 5.37313C80.8307 6.1393 81 6.92537 81 7.74129C81 8.86567 80.99 8.86567 80.99 9.99005C80.99 11.1144 81 11.1144 81 12.2388C81 13.3632 80.9502 13.3632 80.9502 14.4876C80.9502 15.6119 80.9801 15.6119 80.9801 16.7463C80.9801 17.8806 80.7808 17.8706 80.7808 18.995C80.7808 20.1194 80.8406 20.1194 80.8406 21.2537C80.8406 22.3881 80.8207 22.3781 80.8207 23.5025C80.8207 24.6269 80.8705 24.6269 80.8705 25.7612C80.8705 26.8955 80.8805 26.8856 80.8805 28.01C80.8805 29.1343 80.9801 29.1343 80.9801 30.2687C80.9801 31.403 80.741 31.393 80.741 32.5274C80.741 33.6617 80.9203 33.6517 80.9203 34.7761C80.9203 35.9005 80.8506 35.9005 80.8506 37.0348C80.8506 38.1692 80.731 38.1592 80.731 39.2935C80.731 40.4279 80.741 40.4179 80.741 41.5522C80.741 42.6866 80.7211 42.6766 80.7211 43.8109C80.7211 44.9453 80.8406 44.9453 80.8406 46.0697C80.8406 47.194 80.9004 47.204 80.9004 48.3284C80.9004 49.1443 80.741 49.9403 80.5019 50.6766C80.2628 51.4129 79.7747 52.0796 79.3164 52.7164C78.8582 53.3532 78.3302 53.9303 77.6927 54.398C77.0551 54.8657 76.4175 55.3831 75.6604 55.6318C74.9033 55.8806 74.1064 55.8109 73.2895 55.8109V55.7811Z"/>
</mask>
<path d="M73.2895 55.7811C72.1638 55.7811 72.1638 55.8308 71.0282 55.8308C69.8925 55.8308 69.9025 55.8308 68.7668 55.8308C67.6312 55.8308 67.6411 55.7512 66.5055 55.7512C65.3698 55.7512 65.3798 55.7612 64.2441 55.7612C63.1085 55.7612 63.1184 55.7413 61.9828 55.7413C60.8471 55.7413 60.8571 55.7811 59.7214 55.7811C58.5858 55.7811 58.5957 55.7015 57.4601 55.7015C56.3244 55.7015 56.3344 56 55.2087 56C54.083 56 54.083 55.9801 52.9573 55.9801C51.8316 55.9801 51.8316 55.7313 50.7059 55.7313C49.5802 55.7313 49.5802 55.7313 48.4446 55.7313C47.3089 55.7313 47.3189 55.7811 46.1833 55.7811C45.0476 55.7811 45.0576 55.9403 43.9219 55.9403C42.7863 55.9403 42.7962 55.7612 41.6606 55.7612C40.5249 55.7612 40.5349 55.8905 39.3992 55.8905C38.2636 55.8905 38.2735 55.8308 37.1379 55.8308C36.0022 55.8308 36.0122 55.8109 34.8765 55.8109C33.7409 55.8109 33.7508 55.8806 32.6152 55.8806C31.4795 55.8806 31.4795 55.9403 30.3538 55.9403C29.2281 55.9403 29.2281 55.9901 28.0925 55.9901C26.9568 55.9901 26.9568 55.8408 25.8311 55.8408C24.7054 55.8408 24.6955 55.7015 23.5698 55.7015C22.4441 55.7015 22.4441 55.9104 21.3085 55.9104C20.1728 55.9104 20.1828 55.7313 19.0471 55.7313C17.9115 55.7313 17.9115 55.801 16.7858 55.801C15.6601 55.801 15.6501 55.9503 14.5244 55.9503C13.3987 55.9503 13.3888 56 12.2631 56C11.1374 56 11.1274 55.7612 9.99176 55.7612C8.85611 55.7612 8.85611 55.8308 7.72045 55.8308C6.90358 55.8308 6.11659 55.7313 5.37941 55.4925C4.64223 55.2537 3.96483 54.796 3.32727 54.3383C2.68971 53.8806 2.1418 53.3333 1.67359 52.6965C1.20539 52.0597 0.617636 51.4627 0.368589 50.6965C0.119543 49.9304 0.219161 49.1244 0.219161 48.3085C0.219161 47.1841 0.0199238 47.1841 0.0199238 46.0597C0.0199238 44.9353 0.239085 44.9353 0.239085 43.8109C0.239085 42.6866 0.0896569 42.6866 0.0896569 41.5622C0.0896569 40.4378 0.00996189 40.4378 0.00996189 39.3035C0.00996189 38.1692 0.149428 38.1791 0.149428 37.0547C0.149428 35.9303 0 35.9304 0 34.796C0 33.6617 0.0398475 33.6716 0.0398475 32.5473C0.0398475 31.4229 0.249047 31.4229 0.249047 30.2886C0.249047 29.1542 0.129504 29.1642 0.129504 28.0398C0.129504 26.9154 0.249047 26.9154 0.249047 25.7811C0.249047 24.6468 0.189276 24.6567 0.189276 23.5224C0.189276 22.3881 0.179314 22.398 0.179314 21.2736C0.179314 20.1493 0.219161 20.1493 0.219161 19.0149C0.219161 17.8806 0.298856 17.8905 0.298856 16.7562C0.298856 15.6219 0.079695 15.6318 0.079695 14.4975C0.079695 13.3632 0.268971 13.3731 0.268971 12.2388C0.268971 11.1045 0.0298856 11.1045 0.0298856 9.9801C0.0298856 8.85572 0.00996189 8.84577 0.00996189 7.72139C0.00996189 6.90547 0.239085 6.0995 0.47817 5.36318C0.717255 4.62687 1.14562 3.91045 1.60386 3.27363C2.06211 2.63682 2.57016 1.97015 3.20772 1.50249C3.84528 1.03483 4.60239 0.686567 5.35949 0.437811C6.11659 0.189055 6.91354 0.179104 7.73041 0.179104C8.85611 0.179104 8.85611 0.258706 9.99176 0.258706C11.1274 0.258706 11.1175 0.258706 12.2531 0.258706C13.3888 0.258706 13.3788 0.278607 14.5145 0.278607C15.6501 0.278607 15.6401 0.00995024 16.7758 0.00995024C17.9115 0.00995024 17.9015 0.179104 19.0371 0.179104C20.1728 0.179104 20.1628 0.278607 21.2985 0.278607C22.4341 0.278607 22.4242 0.109453 23.5598 0.109453C24.6955 0.109453 24.6855 0 25.8112 0C26.9369 0 26.9369 0.0199005 28.0626 0.0199005C29.1883 0.0199005 29.1883 0.0497513 30.314 0.0497513C31.4397 0.0497513 31.4397 0.00995024 32.5753 0.00995024C33.711 0.00995024 33.701 0.189055 34.8367 0.189055C35.9723 0.189055 35.9624 0.208955 37.098 0.208955C38.2337 0.208955 38.2237 0.208955 39.3594 0.208955C40.495 0.208955 40.4851 0.288557 41.6207 0.288557C42.7564 0.288557 42.7464 0.0597015 43.8821 0.0597015C45.0177 0.0597015 45.0077 0.288557 46.1434 0.288557C47.2791 0.288557 47.2691 0.298507 48.4047 0.298507C49.5404 0.298507 49.5404 0 50.6661 0C51.7918 0 51.7918 0.159204 52.9274 0.159204C54.0631 0.159204 54.0631 0.0497513 55.1888 0.0497513C56.3145 0.0497513 56.3244 0.129353 57.4501 0.129353C58.5758 0.129353 58.5758 0.208955 59.7115 0.208955C60.8471 0.208955 60.8372 0.248756 61.9728 0.248756C63.1085 0.248756 63.1085 0.00995024 64.2342 0.00995024C65.3599 0.00995024 65.3698 0.039801 66.4955 0.039801C67.6212 0.039801 67.6312 0.308458 68.7569 0.308458C69.8825 0.308458 69.8925 0.109453 71.0282 0.109453C72.1638 0.109453 72.1638 0.208955 73.2995 0.208955C74.1163 0.208955 74.9033 0.288557 75.6405 0.527363C76.3777 0.766169 77.0651 1.21393 77.7026 1.67164C78.3402 2.12935 78.9977 2.60697 79.4659 3.25373C79.9341 3.9005 80.3326 4.60697 80.5816 5.37313C80.8307 6.1393 81 6.92537 81 7.74129C81 8.86567 80.99 8.86567 80.99 9.99005C80.99 11.1144 81 11.1144 81 12.2388C81 13.3632 80.9502 13.3632 80.9502 14.4876C80.9502 15.6119 80.9801 15.6119 80.9801 16.7463C80.9801 17.8806 80.7808 17.8706 80.7808 18.995C80.7808 20.1194 80.8406 20.1194 80.8406 21.2537C80.8406 22.3881 80.8207 22.3781 80.8207 23.5025C80.8207 24.6269 80.8705 24.6269 80.8705 25.7612C80.8705 26.8955 80.8805 26.8856 80.8805 28.01C80.8805 29.1343 80.9801 29.1343 80.9801 30.2687C80.9801 31.403 80.741 31.393 80.741 32.5274C80.741 33.6617 80.9203 33.6517 80.9203 34.7761C80.9203 35.9005 80.8506 35.9005 80.8506 37.0348C80.8506 38.1692 80.731 38.1592 80.731 39.2935C80.731 40.4279 80.741 40.4179 80.741 41.5522C80.741 42.6866 80.7211 42.6766 80.7211 43.8109C80.7211 44.9453 80.8406 44.9453 80.8406 46.0697C80.8406 47.194 80.9004 47.204 80.9004 48.3284C80.9004 49.1443 80.741 49.9403 80.5019 50.6766C80.2628 51.4129 79.7747 52.0796 79.3164 52.7164C78.8582 53.3532 78.3302 53.9303 77.6927 54.398C77.0551 54.8657 76.4175 55.3831 75.6604 55.6318C74.9033 55.8806 74.1064 55.8109 73.2895 55.8109V55.7811Z" fill="white" stroke="black" stroke-width="2" stroke-miterlimit="10" mask="url(#path-1-inside-1_764_1452)"/>
<path d="M29.5458 18.25H29.7138C30.2178 18.25 30.4978 18.586 30.5538 19.258V19.51H33.0738C33.6338 19.622 33.9138 19.902 33.9138 20.35V20.434C33.9138 21.05 33.4378 21.358 32.4858 21.358C33.1018 21.89 33.4098 22.562 33.4098 23.374V23.542C33.4098 24.564 32.6538 25.236 31.1418 25.558C30.5818 25.726 29.9658 25.81 29.2938 25.81C27.0538 25.614 25.9338 24.886 25.9338 23.626C25.9338 23.57 25.9058 23.486 25.8498 23.374C26.1718 22.198 26.5078 21.61 26.8578 21.61V21.526C25.9058 21.526 25.4298 21.246 25.4298 20.686V20.518C25.4298 19.902 26.1298 19.594 27.5298 19.594H28.7058V19.258C28.7618 18.586 29.0418 18.25 29.5458 18.25ZM27.7818 23.458C27.7818 23.738 28.2018 23.906 29.0418 23.962H29.5458C30.8898 23.85 31.5618 23.682 31.5618 23.458V23.122C31.4358 22.842 31.1558 22.702 30.7218 22.702H28.9578C28.1738 22.702 27.7818 22.954 27.7818 23.458ZM37.1058 18.901C37.6658 19.041 37.9458 19.349 37.9458 19.825V23.101C37.9598 23.213 38.0158 23.269 38.1138 23.269H39.5418C40.1578 23.269 40.4658 23.633 40.4658 24.361C40.2978 24.865 39.9338 25.117 39.3738 25.117H38.3658L37.9458 25.033C38.0018 26.447 38.0298 27.567 38.0298 28.393V28.561C37.9318 29.345 37.6238 29.737 37.1058 29.737C36.4898 29.583 36.1818 29.275 36.1818 28.813C36.1258 25.341 36.0978 23.381 36.0978 22.933C36.1538 21.183 36.1818 20.063 36.1818 19.573C36.4058 19.125 36.7138 18.901 37.1058 18.901ZM30.6378 24.445C31.2538 24.445 31.5618 25.173 31.5618 26.629V26.713C32.7238 26.657 34.0118 26.545 35.4258 26.377C35.9018 26.377 36.2098 26.713 36.3498 27.385C36.3498 28.057 35.3418 28.393 33.3258 28.393C32.2058 28.505 29.8818 28.617 26.3538 28.729C25.8918 28.729 25.6118 28.421 25.5138 27.805C25.5138 27.189 26.2138 26.881 27.6138 26.881C27.9498 26.825 28.6498 26.797 29.7138 26.797V26.041C29.7138 25.845 29.6858 25.593 29.6298 25.285C29.6298 24.823 29.9658 24.543 30.6378 24.445ZM27.4458 30.094H36.6858C37.2598 30.094 37.5958 30.514 37.6938 31.354V33.958C37.6938 36.254 37.4698 37.402 37.0218 37.402C37.0218 37.514 36.8538 37.57 36.5178 37.57C36.0838 37.57 35.8038 37.262 35.6778 36.646C35.7898 35.904 35.8458 35.176 35.8458 34.462V31.942H35.7618C34.3618 31.942 31.5058 31.914 27.1938 31.858C26.7458 31.662 26.5218 31.354 26.5218 30.934C26.6758 30.374 26.9838 30.094 27.4458 30.094ZM46.7023 20.119C48.2143 20.119 49.4183 20.91 50.3143 22.492C50.5383 23.206 50.6783 23.794 50.7343 24.256C50.7343 26.076 49.6983 27.455 47.6263 28.393C47.2483 28.449 46.9403 28.477 46.7023 28.477H45.8623C44.1823 28.477 42.9783 27.392 42.2503 25.222L42.1663 24.34C42.1663 22.24 43.2863 20.833 45.5263 20.119H46.7023ZM44.0143 24.34C44.0143 25.6 44.6863 26.363 46.0303 26.629C47.5843 26.629 48.5363 25.929 48.8863 24.529V24.256C48.8863 23.15 48.1583 22.387 46.7023 21.967C45.4703 21.967 44.6023 22.464 44.0983 23.458L44.0143 24.34ZM54.2833 19.321H54.4513C54.9413 19.321 55.2213 19.685 55.2913 20.413V22.765C55.2913 24.165 55.3193 26.153 55.3753 28.729C55.2773 28.981 55.0813 29.205 54.7873 29.401H54.1993C53.6953 29.401 53.4433 28.113 53.4433 25.537V24.025L53.5273 23.521C53.4713 23.157 53.4433 22.793 53.4433 22.429V20.329C53.4993 19.657 53.7793 19.321 54.2833 19.321ZM45.1483 30.178C45.8203 30.178 46.1563 31.438 46.1563 33.958V34.882H50.6083C51.6163 34.882 52.9883 34.854 54.7243 34.798C55.2843 34.952 55.5643 35.232 55.5643 35.638V35.806C55.5643 36.184 55.3123 36.464 54.8083 36.646C52.4003 36.702 50.5523 36.73 49.2643 36.73H45.4003C44.6723 36.73 44.3083 36.142 44.3083 34.966C44.3083 33.286 44.2803 31.942 44.2243 30.934C44.4063 30.43 44.7143 30.178 45.1483 30.178Z" fill="black"/>
</g>
<defs>
<clipPath id="clip0_764_1452">
<rect width="81" height="56" fill="white"/>
</clipPath>
</defs>
</svg>
