<svg width="186" height="56" viewBox="0 0 186 56" fill="none" xmlns="http://www.w3.org/2000/svg">
<g clip-path="url(#clip0_575_2852)">
<mask id="path-1-inside-1_575_2852" fill="white">
<path d="M176.062 55.2144C175.293 55.2144 175.293 55.3912 174.524 55.3912C173.756 55.3912 173.756 55.401 172.987 55.401C172.218 55.401 172.218 55.1359 171.449 55.1359C170.681 55.1359 170.681 55.185 169.912 55.185C169.143 55.185 169.143 55.1163 168.375 55.1163C167.606 55.1163 167.606 55.2439 166.837 55.2439C166.069 55.2439 166.068 54.969 165.3 54.969C164.531 54.969 164.531 55.9411 163.762 55.9411C162.994 55.9411 162.994 55.892 162.225 55.892C161.456 55.892 161.456 55.0672 160.688 55.0672C159.919 55.0672 159.919 55.0868 159.15 55.0868C158.381 55.0868 158.381 55.2341 157.613 55.2341C156.844 55.2341 156.844 55.7545 156.075 55.7545C155.307 55.7545 155.307 55.1555 154.538 55.1555C153.769 55.1555 153.769 55.5778 153 55.5778C152.232 55.5778 152.232 55.3912 151.463 55.3912C150.694 55.3912 150.694 55.3126 149.926 55.3126C149.157 55.3126 149.157 55.5385 148.388 55.5385C147.619 55.5385 147.619 55.7349 146.851 55.7349C146.082 55.7349 146.082 55.9018 145.313 55.9018C144.545 55.9018 144.545 55.4207 143.776 55.4207C143.007 55.4207 143.007 54.969 142.239 54.969C141.47 54.969 141.47 55.6367 140.701 55.6367C139.932 55.6367 139.932 55.0377 139.164 55.0377C138.395 55.0377 138.395 55.2537 137.626 55.2537C136.858 55.2537 136.858 55.7349 136.089 55.7349C135.32 55.7349 135.32 55.892 134.551 55.892C133.783 55.892 133.783 55.1064 133.014 55.1064C132.245 55.1064 132.245 55.3323 131.477 55.3323C130.708 55.3323 130.708 55.4403 129.939 55.4403C129.17 55.4403 129.17 55.1163 128.402 55.1163C127.633 55.1163 127.633 55.1359 126.864 55.1359C126.096 55.1359 126.096 55.9705 125.327 55.9705C124.558 55.9705 124.558 55.2144 123.79 55.2144C123.021 55.2144 123.021 55.8822 122.252 55.8822C121.483 55.8822 121.483 55.1653 120.715 55.1653C119.946 55.1653 119.946 55.6661 119.177 55.6661C118.409 55.6661 118.409 55.9411 117.64 55.9411C116.871 55.9411 116.871 55.4796 116.102 55.4796C115.334 55.4796 115.334 55.9804 114.565 55.9804C113.796 55.9804 113.796 55.8625 113.028 55.8625C112.259 55.8625 112.259 55.1752 111.49 55.1752C110.721 55.1752 110.721 55.5581 109.953 55.5581C109.184 55.5581 109.184 55.1555 108.415 55.1555C107.647 55.1555 107.647 55.3617 106.878 55.3617C106.109 55.3617 106.109 55.4108 105.341 55.4108C104.572 55.4108 104.572 55.2832 103.803 55.2832C103.034 55.2832 103.034 55.0181 102.266 55.0181C101.497 55.0181 101.497 55.7349 100.728 55.7349C99.9596 55.7349 99.9596 55.1163 99.1909 55.1163C98.4222 55.1163 98.4221 55.892 97.6534 55.892C96.8847 55.892 96.8847 55.9509 96.116 55.9509C95.3473 55.9509 95.3473 55.6465 94.5786 55.6465C93.8099 55.6465 93.8099 55.4698 93.0412 55.4698C92.2725 55.4698 92.2725 55.8527 91.5038 55.8527C90.735 55.8527 90.7351 55.7447 89.9664 55.7447C89.1976 55.7447 89.1976 55.3716 88.4289 55.3716C87.6602 55.3716 87.6602 55.0966 86.8915 55.0966C86.1228 55.0966 86.1228 55.0966 85.3541 55.0966C84.5854 55.0966 84.5854 55.0181 83.8167 55.0181C83.048 55.0181 83.048 55.9116 82.2724 55.9116C81.4968 55.9116 81.5037 55.3617 80.735 55.3617C79.9663 55.3617 79.9663 55.0377 79.1976 55.0377C78.4289 55.0377 78.4289 55.5778 77.6601 55.5778C76.8914 55.5778 76.8914 55.9411 76.1227 55.9411C75.354 55.9411 75.354 55.8723 74.5853 55.8723C73.8166 55.8723 73.8166 55.7938 73.0479 55.7938C72.2792 55.7938 72.2792 55.9313 71.5105 55.9313C70.7418 55.9313 70.7418 55.3519 69.9662 55.3519C69.1906 55.3519 69.1975 55.2832 68.4288 55.2832C67.6601 55.2832 67.6601 55.293 66.8914 55.293C66.1227 55.293 66.1227 55.0181 65.354 55.0181C64.5852 55.0181 64.5852 55.7742 63.8165 55.7742C63.0478 55.7742 63.0478 55.0377 62.2722 55.0377C61.4967 55.0377 61.5035 54.9886 60.7348 54.9886C59.9661 54.9886 59.9661 55.9804 59.1974 55.9804C58.4287 55.9804 58.4287 55.4698 57.66 55.4698C56.8913 55.4698 56.8913 55.8429 56.1226 55.8429C55.3539 55.8429 55.3539 55.5876 54.5783 55.5876C53.8027 55.5876 53.8096 55.3323 53.0409 55.3323C52.2722 55.3323 52.2722 55.1948 51.5035 55.1948C50.7348 55.1948 50.7348 56 49.9592 56C49.1836 56 49.1905 55.9018 48.4149 55.9018C47.6393 55.9018 47.6462 55.0082 46.8775 55.0082C46.1088 55.0082 46.1088 55.6563 45.3332 55.6563C44.5576 55.6563 44.5645 55.3323 43.7889 55.3323C43.0134 55.3323 43.0202 55.4992 42.2515 55.4992C41.4828 55.4992 41.4828 55.2243 40.7141 55.2243C39.9454 55.2243 39.9454 55.6563 39.1767 55.6563C38.408 55.6563 38.408 55.7643 37.6324 55.7643C36.8568 55.7643 36.8637 55.9018 36.0881 55.9018C35.3125 55.9018 35.3194 55.8527 34.5507 55.8527C33.782 55.8527 33.782 55.892 33.0133 55.892C32.2446 55.892 32.2446 55.7349 31.469 55.7349C30.6934 55.7349 30.7003 55.8232 29.9316 55.8232C29.1629 55.8232 29.1629 55.1555 28.3873 55.1555C27.6117 55.1555 27.6186 55.3617 26.843 55.3617C26.0675 55.3617 26.0743 55.3028 25.2987 55.3028C24.5232 55.3028 24.53 55.4796 23.7545 55.4796C22.9789 55.4796 22.9858 55.5188 22.2102 55.5188C21.4346 55.5188 21.4415 55.8331 20.6659 55.8331C19.8903 55.8331 19.8972 55.0279 19.1285 55.0279C18.3598 55.0279 18.3598 55.617 17.5842 55.617C16.8086 55.617 16.8155 55.401 16.0399 55.401C15.2644 55.401 15.2644 55.0181 14.4956 55.0181C13.7269 55.0181 13.7201 55.0573 12.9514 55.0573C12.1827 55.0573 12.1758 54.9984 11.4071 54.9984C10.6384 54.9984 10.6315 55.3912 9.8628 55.3912C9.35491 55.3912 8.84015 55.5385 8.35971 55.4305C7.87926 55.3225 7.37823 55.0672 6.91151 54.8511C6.4448 54.6351 6.10162 53.9674 5.66236 53.6433C5.2231 53.3193 4.76325 53.0935 4.36517 52.6712C3.96708 52.249 3.30819 52.2293 2.95816 51.7187C2.60812 51.2081 2.16199 50.727 1.86686 50.1476C1.57173 49.5683 1.64723 48.6256 1.42074 47.9874C1.19424 47.3491 0.67262 46.8581 0.521624 46.1708C0.370627 45.4834 0.720664 44.6291 0.645166 43.9123C0.569668 43.1955 0.384354 42.5474 0.384354 41.8208C0.384354 40.7603 0.638303 40.7603 0.638303 39.69C0.638303 38.6197 0.288266 38.6295 0.288266 37.5592C0.288266 36.4889 0 36.4889 0 35.4284C0 34.3679 0.432399 34.3679 0.432399 33.2976C0.432399 32.2273 0.535351 32.2272 0.535351 31.1668C0.535351 30.1063 0.466716 30.0964 0.466716 29.0359C0.466716 27.9755 0.295129 27.9754 0.295129 26.9051C0.295129 25.8348 0.49417 25.8446 0.49417 24.7743C0.49417 23.704 0.0480443 23.704 0.0480443 22.6435C0.0480443 21.583 0.562804 21.5732 0.562804 20.5127C0.562804 19.4522 0.51476 19.4424 0.51476 18.3819C0.51476 17.3214 0.377491 17.3116 0.377491 16.2413C0.377491 15.171 0.171587 15.171 0.171587 14.1006C0.171587 13.374 0.590258 12.7063 0.67262 12.0091C0.754982 11.3119 1.01579 10.713 1.16679 10.0452C1.31779 9.37752 1.37956 8.69998 1.60605 8.06172C1.83255 7.42347 2.05218 6.83429 2.34731 6.26477C2.64244 5.69525 2.65616 4.7624 3.0062 4.26162C3.35624 3.76083 4.09063 3.90812 4.49557 3.48588C4.90052 3.06365 5.1476 2.36647 5.59373 2.04243C6.03985 1.7184 6.5203 1.60056 7.00074 1.38453C7.48118 1.16851 7.91358 0.903384 8.41461 0.785551C8.91565 0.667719 9.38236 0.235665 9.89026 0.235665C10.659 0.235665 10.659 0.0196388 11.4277 0.0196388C12.1964 0.0196388 12.1964 0.746274 12.9651 0.746274C13.7338 0.746274 13.7338 0.706996 14.5025 0.706996C15.2712 0.706996 15.2712 0.549886 16.0399 0.549886C16.8086 0.549886 16.8086 0.098194 17.5773 0.098194C18.3461 0.098194 18.3461 0.677538 19.1148 0.677538C19.8835 0.677538 19.8835 0.795371 20.6522 0.795371C21.4209 0.795371 21.4209 0.412415 22.1896 0.412415C22.9583 0.412415 22.9583 0.147291 23.727 0.147291C24.4957 0.147291 24.4957 0.235665 25.2644 0.235665C26.0331 0.235665 26.0331 0.795371 26.8018 0.795371C27.5706 0.795371 27.5706 0.942662 28.3393 0.942662C29.108 0.942662 29.108 0.441873 29.8767 0.441873C30.6454 0.441873 30.6454 0.549886 31.4141 0.549886C32.1828 0.549886 32.1828 0.618622 32.9515 0.618622C33.7202 0.618622 33.7202 0.363318 34.4889 0.363318C35.2576 0.363318 35.2576 0.893565 36.0263 0.893565C36.7951 0.893565 36.7951 0.510608 37.5638 0.510608C38.3325 0.510608 38.3325 0.589164 39.1012 0.589164C39.8699 0.589164 39.8699 0.500789 40.6386 0.500789C41.4073 0.500789 41.4073 0.0785551 42.176 0.0785551C42.9447 0.0785551 42.9447 0.549886 43.7134 0.549886C44.4821 0.549886 44.4821 0.756093 45.2508 0.756093C46.0196 0.756093 46.0196 0.697177 46.7883 0.697177C47.557 0.697177 47.557 0.108013 48.3257 0.108013C49.0944 0.108013 49.0944 0.471331 49.8631 0.471331C50.6318 0.471331 50.6318 0.638261 51.4005 0.638261C52.1692 0.638261 52.1692 0.127652 52.9379 0.127652C53.7066 0.127652 53.7066 0.0589164 54.4754 0.0589164C55.2441 0.0589164 55.2441 0.540067 56.0128 0.540067C56.7815 0.540067 56.7815 0.343679 57.5502 0.343679C58.3189 0.343679 58.3189 0.854287 59.0876 0.854287C59.8563 0.854287 59.8563 0.304401 60.625 0.304401C61.3937 0.304401 61.3937 0.0589164 62.1624 0.0589164C62.9311 0.0589164 62.9311 0.598983 63.6999 0.598983C64.4686 0.598983 64.4686 0.108013 65.2373 0.108013C66.006 0.108013 66.006 0.923023 66.7747 0.923023C67.5434 0.923023 67.5434 0.48115 68.3121 0.48115C69.0808 0.48115 69.0808 0.304401 69.8495 0.304401C70.6182 0.304401 70.6182 0.795371 71.3869 0.795371C72.1556 0.795371 72.1556 0.108013 72.9244 0.108013C73.6931 0.108013 73.6931 0.844468 74.4618 0.844468C75.2305 0.844468 75.2305 0.873926 75.9992 0.873926C76.7679 0.873926 76.7679 0.392776 77.5366 0.392776C78.3053 0.392776 78.3053 0.49097 79.074 0.49097C79.8427 0.49097 79.8427 0.15711 80.6114 0.15711C81.3801 0.15711 81.3802 0.176749 82.1489 0.176749C82.9176 0.176749 82.9176 0.952481 83.6863 0.952481C84.455 0.952481 84.455 0.520428 85.2237 0.520428C85.9924 0.520428 85.9924 0.677538 86.7611 0.677538C87.5298 0.677538 87.5298 1.00158 88.2985 1.00158C89.0672 1.00158 89.0672 0.225846 89.8359 0.225846C90.6046 0.225846 90.6047 0.0196388 91.3734 0.0196388C92.1421 0.0196388 92.1421 0.382956 92.9108 0.382956C93.6795 0.382956 93.6795 0.16693 94.4482 0.16693C95.2169 0.16693 95.2169 0.510608 95.9856 0.510608C96.7543 0.510608 96.7543 0.382956 97.523 0.382956C98.2917 0.382956 98.2917 0.363318 99.0604 0.363318C99.8292 0.363318 99.8291 0 100.598 0C101.367 0 101.367 0.333859 102.135 0.333859C102.904 0.333859 102.904 0.706996 103.68 0.706996C104.455 0.706996 104.448 0.402595 105.217 0.402595C105.986 0.402595 105.986 0.903384 106.754 0.903384C107.523 0.903384 107.523 0.32404 108.292 0.32404C109.061 0.32404 109.061 0.265124 109.829 0.265124C110.598 0.265124 110.598 0.235665 111.367 0.235665C112.135 0.235665 112.135 0.873926 112.904 0.873926C113.673 0.873926 113.673 0.176749 114.441 0.176749C115.21 0.176749 115.21 0.0196388 115.986 0.0196388C116.761 0.0196388 116.754 0.893565 117.523 0.893565C118.292 0.893565 118.292 0.942662 119.061 0.942662C119.829 0.942662 119.829 0.864107 120.598 0.864107C121.367 0.864107 121.367 0.81501 122.135 0.81501C122.904 0.81501 122.904 0.15711 123.68 0.15711C124.455 0.15711 124.448 0.0392776 125.217 0.0392776C125.986 0.0392776 125.986 0.893565 126.755 0.893565C127.523 0.893565 127.523 0.618622 128.292 0.618622C129.061 0.618622 129.061 0.0294582 129.829 0.0294582C130.598 0.0294582 130.598 0.48115 131.374 0.48115C132.149 0.48115 132.142 0.628441 132.911 0.628441C133.68 0.628441 133.68 0 134.448 0C135.217 0 135.217 0.0392776 135.993 0.0392776C136.768 0.0392776 136.761 0.098194 137.537 0.098194C138.313 0.098194 138.306 0.235665 139.074 0.235665C139.843 0.235665 139.843 0.15711 140.619 0.15711C141.394 0.15711 141.387 0.549886 142.163 0.549886C142.939 0.549886 142.932 0.80519 143.7 0.80519C144.469 0.80519 144.469 0.245485 145.238 0.245485C146.007 0.245485 146.007 0.795371 146.775 0.795371C147.544 0.795371 147.544 0.716816 148.32 0.716816C149.095 0.716816 149.088 0.0687357 149.864 0.0687357C150.639 0.0687357 150.633 0.530247 151.401 0.530247C152.17 0.530247 152.17 0.952481 152.939 0.952481C153.707 0.952481 153.707 0.176749 154.483 0.176749C155.259 0.176749 155.252 0.245485 156.02 0.245485C156.789 0.245485 156.789 0.569525 157.565 0.569525C158.34 0.569525 158.333 0.687358 159.109 0.687358C159.884 0.687358 159.878 0.942662 160.653 0.942662C161.429 0.942662 161.422 0.363318 162.197 0.363318C162.973 0.363318 162.966 0.049097 163.742 0.049097C164.517 0.049097 164.51 0.49097 165.286 0.49097C166.062 0.49097 166.055 0.520428 166.823 0.520428C167.592 0.520428 167.592 0.765913 168.368 0.765913C169.143 0.765913 169.136 0.16693 169.912 0.16693C170.688 0.16693 170.688 0.176749 171.456 0.176749C172.225 0.176749 172.232 0.176749 173.001 0.176749C173.769 0.176749 173.776 0.314221 174.545 0.314221C175.314 0.314221 175.32 0.864107 176.089 0.864107C176.597 0.864107 177.05 1.02122 177.53 1.12923C178.011 1.23724 178.567 0.942663 179.04 1.15869C179.514 1.37471 179.967 1.69876 180.413 2.02279C180.859 2.34683 181.271 2.73961 181.676 3.16184C182.081 3.58408 182.486 3.9965 182.843 4.5071C183.2 5.0177 183.481 5.60688 183.776 6.18622C184.071 6.76556 184.264 7.41365 184.49 8.0519C184.717 8.69016 184.717 9.40698 184.868 10.0943C185.019 10.7817 185.417 11.3316 185.499 12.0386C185.581 12.7456 185.533 13.4428 185.533 14.1694C185.533 15.2299 185.849 15.2299 185.849 16.3002C185.849 17.3705 185.787 17.3607 185.787 18.431C185.787 19.5013 185.87 19.5013 185.87 20.5618C185.87 21.6223 186 21.6223 186 22.6926C186 23.7629 185.327 23.7629 185.327 24.8234C185.327 25.8839 185.472 25.8937 185.472 26.9542C185.472 28.0147 185.664 28.0147 185.664 29.085C185.664 30.1553 185.568 30.1455 185.568 31.2159C185.568 32.2862 185.616 32.2862 185.616 33.3467C185.616 34.4071 185.314 34.417 185.314 35.4775C185.314 36.538 185.286 36.5478 185.286 37.6083C185.286 38.6688 185.925 38.6786 185.925 39.7489C185.925 40.8192 185.623 40.8192 185.623 41.8895C185.623 42.6162 185.801 43.3723 185.725 44.0694C185.65 44.7666 185.424 45.4834 185.266 46.1511C185.108 46.8189 184.511 47.2313 184.291 47.8597C184.071 48.4882 183.824 49.0381 183.529 49.6076C183.234 50.1771 182.946 50.6681 182.596 51.1787C182.246 51.6893 182.287 52.8578 181.882 53.28C181.477 53.7023 181.01 54.1049 180.564 54.4289C180.118 54.7529 179.418 54.1932 178.944 54.4191C178.471 54.6449 178.045 54.861 177.551 54.9788C177.057 55.0966 176.611 55.2537 176.103 55.2537L176.062 55.2144Z"/>
</mask>
<path d="M176.062 55.2144C175.293 55.2144 175.293 55.3912 174.524 55.3912C173.756 55.3912 173.756 55.401 172.987 55.401C172.218 55.401 172.218 55.1359 171.449 55.1359C170.681 55.1359 170.681 55.185 169.912 55.185C169.143 55.185 169.143 55.1163 168.375 55.1163C167.606 55.1163 167.606 55.2439 166.837 55.2439C166.069 55.2439 166.068 54.969 165.3 54.969C164.531 54.969 164.531 55.9411 163.762 55.9411C162.994 55.9411 162.994 55.892 162.225 55.892C161.456 55.892 161.456 55.0672 160.688 55.0672C159.919 55.0672 159.919 55.0868 159.15 55.0868C158.381 55.0868 158.381 55.2341 157.613 55.2341C156.844 55.2341 156.844 55.7545 156.075 55.7545C155.307 55.7545 155.307 55.1555 154.538 55.1555C153.769 55.1555 153.769 55.5778 153 55.5778C152.232 55.5778 152.232 55.3912 151.463 55.3912C150.694 55.3912 150.694 55.3126 149.926 55.3126C149.157 55.3126 149.157 55.5385 148.388 55.5385C147.619 55.5385 147.619 55.7349 146.851 55.7349C146.082 55.7349 146.082 55.9018 145.313 55.9018C144.545 55.9018 144.545 55.4207 143.776 55.4207C143.007 55.4207 143.007 54.969 142.239 54.969C141.47 54.969 141.47 55.6367 140.701 55.6367C139.932 55.6367 139.932 55.0377 139.164 55.0377C138.395 55.0377 138.395 55.2537 137.626 55.2537C136.858 55.2537 136.858 55.7349 136.089 55.7349C135.32 55.7349 135.32 55.892 134.551 55.892C133.783 55.892 133.783 55.1064 133.014 55.1064C132.245 55.1064 132.245 55.3323 131.477 55.3323C130.708 55.3323 130.708 55.4403 129.939 55.4403C129.17 55.4403 129.17 55.1163 128.402 55.1163C127.633 55.1163 127.633 55.1359 126.864 55.1359C126.096 55.1359 126.096 55.9705 125.327 55.9705C124.558 55.9705 124.558 55.2144 123.79 55.2144C123.021 55.2144 123.021 55.8822 122.252 55.8822C121.483 55.8822 121.483 55.1653 120.715 55.1653C119.946 55.1653 119.946 55.6661 119.177 55.6661C118.409 55.6661 118.409 55.9411 117.64 55.9411C116.871 55.9411 116.871 55.4796 116.102 55.4796C115.334 55.4796 115.334 55.9804 114.565 55.9804C113.796 55.9804 113.796 55.8625 113.028 55.8625C112.259 55.8625 112.259 55.1752 111.49 55.1752C110.721 55.1752 110.721 55.5581 109.953 55.5581C109.184 55.5581 109.184 55.1555 108.415 55.1555C107.647 55.1555 107.647 55.3617 106.878 55.3617C106.109 55.3617 106.109 55.4108 105.341 55.4108C104.572 55.4108 104.572 55.2832 103.803 55.2832C103.034 55.2832 103.034 55.0181 102.266 55.0181C101.497 55.0181 101.497 55.7349 100.728 55.7349C99.9596 55.7349 99.9596 55.1163 99.1909 55.1163C98.4222 55.1163 98.4221 55.892 97.6534 55.892C96.8847 55.892 96.8847 55.9509 96.116 55.9509C95.3473 55.9509 95.3473 55.6465 94.5786 55.6465C93.8099 55.6465 93.8099 55.4698 93.0412 55.4698C92.2725 55.4698 92.2725 55.8527 91.5038 55.8527C90.735 55.8527 90.7351 55.7447 89.9664 55.7447C89.1976 55.7447 89.1976 55.3716 88.4289 55.3716C87.6602 55.3716 87.6602 55.0966 86.8915 55.0966C86.1228 55.0966 86.1228 55.0966 85.3541 55.0966C84.5854 55.0966 84.5854 55.0181 83.8167 55.0181C83.048 55.0181 83.048 55.9116 82.2724 55.9116C81.4968 55.9116 81.5037 55.3617 80.735 55.3617C79.9663 55.3617 79.9663 55.0377 79.1976 55.0377C78.4289 55.0377 78.4289 55.5778 77.6601 55.5778C76.8914 55.5778 76.8914 55.9411 76.1227 55.9411C75.354 55.9411 75.354 55.8723 74.5853 55.8723C73.8166 55.8723 73.8166 55.7938 73.0479 55.7938C72.2792 55.7938 72.2792 55.9313 71.5105 55.9313C70.7418 55.9313 70.7418 55.3519 69.9662 55.3519C69.1906 55.3519 69.1975 55.2832 68.4288 55.2832C67.6601 55.2832 67.6601 55.293 66.8914 55.293C66.1227 55.293 66.1227 55.0181 65.354 55.0181C64.5852 55.0181 64.5852 55.7742 63.8165 55.7742C63.0478 55.7742 63.0478 55.0377 62.2722 55.0377C61.4967 55.0377 61.5035 54.9886 60.7348 54.9886C59.9661 54.9886 59.9661 55.9804 59.1974 55.9804C58.4287 55.9804 58.4287 55.4698 57.66 55.4698C56.8913 55.4698 56.8913 55.8429 56.1226 55.8429C55.3539 55.8429 55.3539 55.5876 54.5783 55.5876C53.8027 55.5876 53.8096 55.3323 53.0409 55.3323C52.2722 55.3323 52.2722 55.1948 51.5035 55.1948C50.7348 55.1948 50.7348 56 49.9592 56C49.1836 56 49.1905 55.9018 48.4149 55.9018C47.6393 55.9018 47.6462 55.0082 46.8775 55.0082C46.1088 55.0082 46.1088 55.6563 45.3332 55.6563C44.5576 55.6563 44.5645 55.3323 43.7889 55.3323C43.0134 55.3323 43.0202 55.4992 42.2515 55.4992C41.4828 55.4992 41.4828 55.2243 40.7141 55.2243C39.9454 55.2243 39.9454 55.6563 39.1767 55.6563C38.408 55.6563 38.408 55.7643 37.6324 55.7643C36.8568 55.7643 36.8637 55.9018 36.0881 55.9018C35.3125 55.9018 35.3194 55.8527 34.5507 55.8527C33.782 55.8527 33.782 55.892 33.0133 55.892C32.2446 55.892 32.2446 55.7349 31.469 55.7349C30.6934 55.7349 30.7003 55.8232 29.9316 55.8232C29.1629 55.8232 29.1629 55.1555 28.3873 55.1555C27.6117 55.1555 27.6186 55.3617 26.843 55.3617C26.0675 55.3617 26.0743 55.3028 25.2987 55.3028C24.5232 55.3028 24.53 55.4796 23.7545 55.4796C22.9789 55.4796 22.9858 55.5188 22.2102 55.5188C21.4346 55.5188 21.4415 55.8331 20.6659 55.8331C19.8903 55.8331 19.8972 55.0279 19.1285 55.0279C18.3598 55.0279 18.3598 55.617 17.5842 55.617C16.8086 55.617 16.8155 55.401 16.0399 55.401C15.2644 55.401 15.2644 55.0181 14.4956 55.0181C13.7269 55.0181 13.7201 55.0573 12.9514 55.0573C12.1827 55.0573 12.1758 54.9984 11.4071 54.9984C10.6384 54.9984 10.6315 55.3912 9.8628 55.3912C9.35491 55.3912 8.84015 55.5385 8.35971 55.4305C7.87926 55.3225 7.37823 55.0672 6.91151 54.8511C6.4448 54.6351 6.10162 53.9674 5.66236 53.6433C5.2231 53.3193 4.76325 53.0935 4.36517 52.6712C3.96708 52.249 3.30819 52.2293 2.95816 51.7187C2.60812 51.2081 2.16199 50.727 1.86686 50.1476C1.57173 49.5683 1.64723 48.6256 1.42074 47.9874C1.19424 47.3491 0.67262 46.8581 0.521624 46.1708C0.370627 45.4834 0.720664 44.6291 0.645166 43.9123C0.569668 43.1955 0.384354 42.5474 0.384354 41.8208C0.384354 40.7603 0.638303 40.7603 0.638303 39.69C0.638303 38.6197 0.288266 38.6295 0.288266 37.5592C0.288266 36.4889 0 36.4889 0 35.4284C0 34.3679 0.432399 34.3679 0.432399 33.2976C0.432399 32.2273 0.535351 32.2272 0.535351 31.1668C0.535351 30.1063 0.466716 30.0964 0.466716 29.0359C0.466716 27.9755 0.295129 27.9754 0.295129 26.9051C0.295129 25.8348 0.49417 25.8446 0.49417 24.7743C0.49417 23.704 0.0480443 23.704 0.0480443 22.6435C0.0480443 21.583 0.562804 21.5732 0.562804 20.5127C0.562804 19.4522 0.51476 19.4424 0.51476 18.3819C0.51476 17.3214 0.377491 17.3116 0.377491 16.2413C0.377491 15.171 0.171587 15.171 0.171587 14.1006C0.171587 13.374 0.590258 12.7063 0.67262 12.0091C0.754982 11.3119 1.01579 10.713 1.16679 10.0452C1.31779 9.37752 1.37956 8.69998 1.60605 8.06172C1.83255 7.42347 2.05218 6.83429 2.34731 6.26477C2.64244 5.69525 2.65616 4.7624 3.0062 4.26162C3.35624 3.76083 4.09063 3.90812 4.49557 3.48588C4.90052 3.06365 5.1476 2.36647 5.59373 2.04243C6.03985 1.7184 6.5203 1.60056 7.00074 1.38453C7.48118 1.16851 7.91358 0.903384 8.41461 0.785551C8.91565 0.667719 9.38236 0.235665 9.89026 0.235665C10.659 0.235665 10.659 0.0196388 11.4277 0.0196388C12.1964 0.0196388 12.1964 0.746274 12.9651 0.746274C13.7338 0.746274 13.7338 0.706996 14.5025 0.706996C15.2712 0.706996 15.2712 0.549886 16.0399 0.549886C16.8086 0.549886 16.8086 0.098194 17.5773 0.098194C18.3461 0.098194 18.3461 0.677538 19.1148 0.677538C19.8835 0.677538 19.8835 0.795371 20.6522 0.795371C21.4209 0.795371 21.4209 0.412415 22.1896 0.412415C22.9583 0.412415 22.9583 0.147291 23.727 0.147291C24.4957 0.147291 24.4957 0.235665 25.2644 0.235665C26.0331 0.235665 26.0331 0.795371 26.8018 0.795371C27.5706 0.795371 27.5706 0.942662 28.3393 0.942662C29.108 0.942662 29.108 0.441873 29.8767 0.441873C30.6454 0.441873 30.6454 0.549886 31.4141 0.549886C32.1828 0.549886 32.1828 0.618622 32.9515 0.618622C33.7202 0.618622 33.7202 0.363318 34.4889 0.363318C35.2576 0.363318 35.2576 0.893565 36.0263 0.893565C36.7951 0.893565 36.7951 0.510608 37.5638 0.510608C38.3325 0.510608 38.3325 0.589164 39.1012 0.589164C39.8699 0.589164 39.8699 0.500789 40.6386 0.500789C41.4073 0.500789 41.4073 0.0785551 42.176 0.0785551C42.9447 0.0785551 42.9447 0.549886 43.7134 0.549886C44.4821 0.549886 44.4821 0.756093 45.2508 0.756093C46.0196 0.756093 46.0196 0.697177 46.7883 0.697177C47.557 0.697177 47.557 0.108013 48.3257 0.108013C49.0944 0.108013 49.0944 0.471331 49.8631 0.471331C50.6318 0.471331 50.6318 0.638261 51.4005 0.638261C52.1692 0.638261 52.1692 0.127652 52.9379 0.127652C53.7066 0.127652 53.7066 0.0589164 54.4754 0.0589164C55.2441 0.0589164 55.2441 0.540067 56.0128 0.540067C56.7815 0.540067 56.7815 0.343679 57.5502 0.343679C58.3189 0.343679 58.3189 0.854287 59.0876 0.854287C59.8563 0.854287 59.8563 0.304401 60.625 0.304401C61.3937 0.304401 61.3937 0.0589164 62.1624 0.0589164C62.9311 0.0589164 62.9311 0.598983 63.6999 0.598983C64.4686 0.598983 64.4686 0.108013 65.2373 0.108013C66.006 0.108013 66.006 0.923023 66.7747 0.923023C67.5434 0.923023 67.5434 0.48115 68.3121 0.48115C69.0808 0.48115 69.0808 0.304401 69.8495 0.304401C70.6182 0.304401 70.6182 0.795371 71.3869 0.795371C72.1556 0.795371 72.1556 0.108013 72.9244 0.108013C73.6931 0.108013 73.6931 0.844468 74.4618 0.844468C75.2305 0.844468 75.2305 0.873926 75.9992 0.873926C76.7679 0.873926 76.7679 0.392776 77.5366 0.392776C78.3053 0.392776 78.3053 0.49097 79.074 0.49097C79.8427 0.49097 79.8427 0.15711 80.6114 0.15711C81.3801 0.15711 81.3802 0.176749 82.1489 0.176749C82.9176 0.176749 82.9176 0.952481 83.6863 0.952481C84.455 0.952481 84.455 0.520428 85.2237 0.520428C85.9924 0.520428 85.9924 0.677538 86.7611 0.677538C87.5298 0.677538 87.5298 1.00158 88.2985 1.00158C89.0672 1.00158 89.0672 0.225846 89.8359 0.225846C90.6046 0.225846 90.6047 0.0196388 91.3734 0.0196388C92.1421 0.0196388 92.1421 0.382956 92.9108 0.382956C93.6795 0.382956 93.6795 0.16693 94.4482 0.16693C95.2169 0.16693 95.2169 0.510608 95.9856 0.510608C96.7543 0.510608 96.7543 0.382956 97.523 0.382956C98.2917 0.382956 98.2917 0.363318 99.0604 0.363318C99.8292 0.363318 99.8291 0 100.598 0C101.367 0 101.367 0.333859 102.135 0.333859C102.904 0.333859 102.904 0.706996 103.68 0.706996C104.455 0.706996 104.448 0.402595 105.217 0.402595C105.986 0.402595 105.986 0.903384 106.754 0.903384C107.523 0.903384 107.523 0.32404 108.292 0.32404C109.061 0.32404 109.061 0.265124 109.829 0.265124C110.598 0.265124 110.598 0.235665 111.367 0.235665C112.135 0.235665 112.135 0.873926 112.904 0.873926C113.673 0.873926 113.673 0.176749 114.441 0.176749C115.21 0.176749 115.21 0.0196388 115.986 0.0196388C116.761 0.0196388 116.754 0.893565 117.523 0.893565C118.292 0.893565 118.292 0.942662 119.061 0.942662C119.829 0.942662 119.829 0.864107 120.598 0.864107C121.367 0.864107 121.367 0.81501 122.135 0.81501C122.904 0.81501 122.904 0.15711 123.68 0.15711C124.455 0.15711 124.448 0.0392776 125.217 0.0392776C125.986 0.0392776 125.986 0.893565 126.755 0.893565C127.523 0.893565 127.523 0.618622 128.292 0.618622C129.061 0.618622 129.061 0.0294582 129.829 0.0294582C130.598 0.0294582 130.598 0.48115 131.374 0.48115C132.149 0.48115 132.142 0.628441 132.911 0.628441C133.68 0.628441 133.68 0 134.448 0C135.217 0 135.217 0.0392776 135.993 0.0392776C136.768 0.0392776 136.761 0.098194 137.537 0.098194C138.313 0.098194 138.306 0.235665 139.074 0.235665C139.843 0.235665 139.843 0.15711 140.619 0.15711C141.394 0.15711 141.387 0.549886 142.163 0.549886C142.939 0.549886 142.932 0.80519 143.7 0.80519C144.469 0.80519 144.469 0.245485 145.238 0.245485C146.007 0.245485 146.007 0.795371 146.775 0.795371C147.544 0.795371 147.544 0.716816 148.32 0.716816C149.095 0.716816 149.088 0.0687357 149.864 0.0687357C150.639 0.0687357 150.633 0.530247 151.401 0.530247C152.17 0.530247 152.17 0.952481 152.939 0.952481C153.707 0.952481 153.707 0.176749 154.483 0.176749C155.259 0.176749 155.252 0.245485 156.02 0.245485C156.789 0.245485 156.789 0.569525 157.565 0.569525C158.34 0.569525 158.333 0.687358 159.109 0.687358C159.884 0.687358 159.878 0.942662 160.653 0.942662C161.429 0.942662 161.422 0.363318 162.197 0.363318C162.973 0.363318 162.966 0.049097 163.742 0.049097C164.517 0.049097 164.51 0.49097 165.286 0.49097C166.062 0.49097 166.055 0.520428 166.823 0.520428C167.592 0.520428 167.592 0.765913 168.368 0.765913C169.143 0.765913 169.136 0.16693 169.912 0.16693C170.688 0.16693 170.688 0.176749 171.456 0.176749C172.225 0.176749 172.232 0.176749 173.001 0.176749C173.769 0.176749 173.776 0.314221 174.545 0.314221C175.314 0.314221 175.32 0.864107 176.089 0.864107C176.597 0.864107 177.05 1.02122 177.53 1.12923C178.011 1.23724 178.567 0.942663 179.04 1.15869C179.514 1.37471 179.967 1.69876 180.413 2.02279C180.859 2.34683 181.271 2.73961 181.676 3.16184C182.081 3.58408 182.486 3.9965 182.843 4.5071C183.2 5.0177 183.481 5.60688 183.776 6.18622C184.071 6.76556 184.264 7.41365 184.49 8.0519C184.717 8.69016 184.717 9.40698 184.868 10.0943C185.019 10.7817 185.417 11.3316 185.499 12.0386C185.581 12.7456 185.533 13.4428 185.533 14.1694C185.533 15.2299 185.849 15.2299 185.849 16.3002C185.849 17.3705 185.787 17.3607 185.787 18.431C185.787 19.5013 185.87 19.5013 185.87 20.5618C185.87 21.6223 186 21.6223 186 22.6926C186 23.7629 185.327 23.7629 185.327 24.8234C185.327 25.8839 185.472 25.8937 185.472 26.9542C185.472 28.0147 185.664 28.0147 185.664 29.085C185.664 30.1553 185.568 30.1455 185.568 31.2159C185.568 32.2862 185.616 32.2862 185.616 33.3467C185.616 34.4071 185.314 34.417 185.314 35.4775C185.314 36.538 185.286 36.5478 185.286 37.6083C185.286 38.6688 185.925 38.6786 185.925 39.7489C185.925 40.8192 185.623 40.8192 185.623 41.8895C185.623 42.6162 185.801 43.3723 185.725 44.0694C185.65 44.7666 185.424 45.4834 185.266 46.1511C185.108 46.8189 184.511 47.2313 184.291 47.8597C184.071 48.4882 183.824 49.0381 183.529 49.6076C183.234 50.1771 182.946 50.6681 182.596 51.1787C182.246 51.6893 182.287 52.8578 181.882 53.28C181.477 53.7023 181.01 54.1049 180.564 54.4289C180.118 54.7529 179.418 54.1932 178.944 54.4191C178.471 54.6449 178.045 54.861 177.551 54.9788C177.057 55.0966 176.611 55.2537 176.103 55.2537L176.062 55.2144Z" fill="#9E4AFF" stroke="black" stroke-width="2" stroke-miterlimit="10" mask="url(#path-1-inside-1_575_2852)"/>
<path d="M50.6264 19.909H50.7944C51.2844 19.909 51.5644 20.273 51.6344 21.001V21.757C51.8164 21.757 52.2924 21.785 53.0624 21.841C53.2724 21.841 54.0564 21.813 55.4144 21.757C56.4224 21.757 56.9264 22.037 56.9264 22.597V22.849C56.9264 23.353 56.6184 23.605 56.0024 23.605H51.6344V23.689C51.6344 24.809 52.4744 25.985 54.1544 27.217C56.2264 28.029 57.2624 28.589 57.2624 28.897C57.2624 28.925 57.2904 29.037 57.3464 29.233C57.2064 29.793 56.8984 30.073 56.4224 30.073C54.5324 29.569 52.9924 28.757 51.8024 27.637C51.1024 27.007 50.7384 26.559 50.7104 26.293C49.3944 28.057 47.4624 29.317 44.9144 30.073C44.4524 30.073 44.1724 29.737 44.0744 29.065C44.0744 28.631 44.9704 28.071 46.7624 27.385C48.7224 26.097 49.7024 24.893 49.7024 23.773V23.605C49.3384 23.605 47.8824 23.633 45.3344 23.689C44.9284 23.689 44.6764 23.353 44.5784 22.681V22.597C44.8024 22.093 45.1944 21.841 45.7544 21.841H46.6784C47.3364 21.841 48.3724 21.813 49.7864 21.757V20.917C49.8424 20.245 50.1224 19.909 50.6264 19.909ZM50.7524 29.17C51.3124 29.31 51.5924 29.618 51.5924 30.094L51.6134 33.139H55.3934C55.7154 33.139 56.1634 33.167 56.7374 33.223C56.8354 33.167 56.9754 33.139 57.1574 33.139C57.7174 33.293 57.9974 33.573 57.9974 33.979V34.147C57.8714 34.707 57.5914 34.987 57.1574 34.987C50.5774 34.931 46.2934 34.903 44.3054 34.903C43.5214 34.903 43.1294 34.623 43.1294 34.063V33.895C43.1294 33.447 43.4374 33.167 44.0534 33.055H49.7654C49.7654 32.943 49.7724 32.411 49.7864 31.459C49.7584 30.717 49.7444 30.262 49.7444 30.094C49.7444 29.632 50.0804 29.324 50.7524 29.17ZM71.5253 18.817C72.1553 18.817 72.5753 19.321 72.7853 20.329C72.6173 23.353 72.5333 25.173 72.5333 25.789C72.5333 26.251 72.2253 26.531 71.6093 26.629C71.1613 26.629 70.8813 26.321 70.7693 25.705V23.857C66.5973 23.913 63.8533 23.969 62.5373 24.025C62.0613 24.025 61.7533 23.689 61.6133 23.017C61.6133 22.625 61.8933 22.345 62.4533 22.177C64.2873 22.121 65.7153 22.093 66.7373 22.093H70.7693C70.8813 22.093 70.9373 22.037 70.9373 21.925V20.665H65.2253C64.8753 20.665 64.4553 20.693 63.9653 20.749C62.5093 20.749 61.7813 20.469 61.7813 19.909V19.489C61.9773 19.097 62.2573 18.901 62.6213 18.901C64.8333 18.901 67.8013 18.873 71.5253 18.817ZM66.9893 24.193H67.4093C67.8013 24.417 67.9973 24.753 67.9973 25.201V26.629H68.6693C69.5093 26.629 70.8813 26.685 72.7853 26.797L73.6253 26.713C74.1293 26.881 74.3813 27.161 74.3813 27.553V27.721C74.2553 28.281 73.9753 28.561 73.5413 28.561C72.9953 28.561 70.0833 28.505 64.8053 28.393C62.5653 28.449 61.2773 28.477 60.9413 28.477C60.1013 28.379 59.6813 28.071 59.6813 27.553V27.469C59.7933 26.909 60.0733 26.629 60.5213 26.629C61.5433 26.629 63.4473 26.601 66.2333 26.545L66.1493 26.377V25.705C66.1493 24.697 66.4293 24.193 66.9893 24.193ZM62.2643 29.485H67.8923C70.8043 29.485 72.2603 29.625 72.2603 29.905C72.4283 30.339 72.5123 31.039 72.5123 32.005C72.5123 33.349 71.9243 34.021 70.7483 34.021C69.3763 34.077 66.8563 34.133 63.1883 34.189V35.155H66.9683C67.9483 35.155 68.9563 35.183 69.9923 35.239C70.2443 35.183 70.8603 35.155 71.8403 35.155C72.3723 35.155 72.6523 35.519 72.6803 36.247C72.5123 36.751 72.1483 37.003 71.5883 37.003H62.4323C61.7043 36.877 61.3403 36.597 61.3403 36.163L61.4243 35.575V35.407C61.4243 35.141 61.3963 34.791 61.3403 34.357C61.3403 33.013 61.8163 32.341 62.7683 32.341C62.9923 32.341 63.1043 32.369 63.1043 32.425C63.1603 32.425 63.3843 32.397 63.7763 32.341C67.3323 32.285 69.4323 32.257 70.0763 32.257L70.6643 32.173V31.333C68.0743 31.277 66.0583 31.249 64.6163 31.249H62.5163C62.3903 31.249 62.2783 31.277 62.1803 31.333C61.8023 31.333 61.4943 31.109 61.2563 30.661V30.325C61.2563 29.821 61.5923 29.541 62.2643 29.485ZM82.1172 20.245C82.9572 20.399 83.3772 20.791 83.3772 21.421C83.3772 23.885 83.1252 25.117 82.6212 25.117C82.6212 25.243 82.3972 25.355 81.9492 25.453C80.2972 25.509 78.9532 25.537 77.9172 25.537V27.175H78.0852C79.2052 27.175 80.9622 27.154 83.3562 27.112C83.8042 27.35 84.0282 27.63 84.0282 27.952C84.0282 28.624 83.3002 28.96 81.8442 28.96C80.4582 29.002 78.9252 29.023 77.2452 29.023C76.5172 28.883 76.1532 28.575 76.1532 28.099C76.0972 26.265 76.0692 25.019 76.0692 24.361C76.2372 23.913 76.5732 23.689 77.0772 23.689H80.1852C80.4652 23.689 80.8852 23.661 81.4452 23.605V23.521C81.5012 22.653 81.5292 22.177 81.5292 22.093H81.4452C80.8292 22.149 80.2972 22.177 79.8492 22.177H77.1612C76.4892 22.121 76.1532 21.841 76.1532 21.337V21.169C76.1532 20.665 76.4892 20.385 77.1612 20.329H80.9412C81.2492 20.329 81.6412 20.301 82.1172 20.245ZM87.7662 19.321H87.9342C88.4242 19.321 88.7042 19.685 88.7742 20.413V22.765C88.7742 24.165 88.8022 26.153 88.8582 28.729C88.7602 28.981 88.5642 29.205 88.2702 29.401H87.6822C87.1782 29.401 86.9262 28.113 86.9262 25.537V24.025L87.0102 23.521C86.9542 23.157 86.9262 22.793 86.9262 22.429V20.329C86.9822 19.657 87.2622 19.321 87.7662 19.321ZM83.2512 29.863C83.8252 29.863 84.1892 30.388 84.3432 31.438C84.8892 32.922 86.1772 34.147 88.2072 35.113C89.1032 35.239 89.5512 35.617 89.5512 36.247C89.4112 36.835 89.1032 37.129 88.6272 37.129C87.4932 37.129 85.9252 36.191 83.9232 34.315C83.4752 33.755 83.2512 33.405 83.2512 33.265H83.1672C82.2712 34.847 80.6192 36.107 78.2112 37.045C78.1272 37.101 77.9592 37.129 77.7072 37.129C77.3292 37.129 77.0772 36.835 76.9512 36.247V36.163C76.9512 35.617 77.5952 35.148 78.8832 34.756C80.6752 33.622 81.7672 32.488 82.1592 31.354C82.3552 30.36 82.7192 29.863 83.2512 29.863ZM109.378 20.875H109.546C110.036 20.875 110.316 21.239 110.386 21.967C110.442 24.907 110.47 27.147 110.47 28.687C110.218 29.359 109.77 29.695 109.126 29.695H107.614C106.228 29.695 104.856 29.723 103.498 29.779C102.924 29.723 101.916 29.695 100.474 29.695C99.6901 29.695 99.2981 28.995 99.2981 27.595C99.2421 27.021 99.2141 26.573 99.2141 26.251C99.2701 24.725 99.2981 23.269 99.2981 21.883C99.3961 21.267 99.6761 20.959 100.138 20.959H100.306C100.866 20.959 101.146 21.379 101.146 22.219C101.146 22.317 101.118 22.821 101.062 23.731L102.07 23.815H102.91C103.708 23.815 104.296 23.843 104.674 23.899C105.164 23.843 105.78 23.815 106.522 23.815H108.538V21.883C108.594 21.211 108.874 20.875 109.378 20.875ZM101.062 25.579V27.427L101.146 27.847C102.35 27.903 103.246 27.931 103.834 27.931H106.354C106.83 27.931 107.586 27.903 108.622 27.847V25.663H102.91C102.518 25.663 101.902 25.635 101.062 25.579ZM104.758 29.17C105.318 29.31 105.598 29.618 105.598 30.094L105.619 33.139H109.399C109.721 33.139 110.169 33.167 110.743 33.223C110.841 33.167 110.981 33.139 111.163 33.139C111.723 33.293 112.003 33.573 112.003 33.979V34.147C111.877 34.707 111.597 34.987 111.163 34.987C104.583 34.931 100.299 34.903 98.3111 34.903C97.5271 34.903 97.1351 34.623 97.1351 34.063V33.895C97.1351 33.447 97.4431 33.167 98.0591 33.055H103.771C103.771 32.943 103.778 32.411 103.792 31.459C103.764 30.717 103.75 30.262 103.75 30.094C103.75 29.632 104.086 29.324 104.758 29.17ZM114.611 20.497C115.227 20.497 115.535 21.169 115.535 22.513C115.591 24.375 115.619 25.999 115.619 27.385V29.737C117.257 29.737 119.441 29.569 122.171 29.233C122.381 29.233 122.633 29.429 122.927 29.821V30.241C122.927 30.969 121.807 31.333 119.567 31.333C118.391 31.445 117.019 31.529 115.451 31.585C114.387 31.585 113.855 31.053 113.855 29.989C113.799 28.757 113.743 25.845 113.687 21.253C113.869 20.749 114.177 20.497 114.611 20.497ZM128.156 19.195C128.604 19.405 128.828 19.685 128.828 20.035C128.828 21.323 128.856 23.563 128.912 26.755C128.912 26.979 128.884 27.483 128.828 28.267C128.94 30.101 128.996 32.369 128.996 35.071C128.996 35.505 128.688 35.813 128.072 35.995C127.554 35.995 127.246 35.603 127.148 34.819V34.399C127.148 32.775 127.12 30.535 127.064 27.679H125.3V32.215C125.3 32.733 125.328 33.461 125.384 34.399C125.16 34.959 124.852 35.239 124.46 35.239C123.844 35.239 123.536 34.651 123.536 33.475C123.48 32.873 123.452 31.921 123.452 30.619C123.452 30.003 123.48 29.611 123.536 29.443C123.48 28.687 123.452 28.043 123.452 27.511V20.539C123.452 19.811 123.76 19.447 124.376 19.447C124.992 19.545 125.3 19.853 125.3 20.371V25.831H125.384C125.538 25.831 126.098 25.859 127.064 25.915V25.579C127.064 24.417 127.036 22.653 126.98 20.287C126.98 19.587 127.372 19.223 128.156 19.195ZM132.034 20.791H137.746C138.362 20.889 138.67 21.197 138.67 21.715V21.967C138.67 23.759 137.858 25.999 136.234 28.687C134.092 31.319 132.636 32.635 131.866 32.635C131.488 32.537 131.236 32.341 131.11 32.047V31.627C131.11 31.319 131.81 30.591 133.21 29.443C135.226 27.189 136.346 25.173 136.57 23.395C136.682 22.975 136.738 22.723 136.738 22.639H131.614C130.998 22.527 130.69 22.247 130.69 21.799V21.715C130.69 21.099 131.138 20.791 132.034 20.791ZM143.353 18.838C143.913 18.838 144.193 19.454 144.193 20.686C144.249 21.386 144.277 21.75 144.277 21.778C144.165 25.278 144.109 27.63 144.109 28.834C144.165 31.284 144.221 32.628 144.277 32.866C144.221 33.076 144.193 33.328 144.193 33.622V33.79C144.193 34.028 144.221 34.336 144.277 34.714C144.277 35.19 143.941 35.498 143.269 35.638C142.807 35.638 142.527 35.302 142.429 34.63C142.429 33.3 142.373 31.172 142.261 28.246C142.373 25.348 142.429 23.052 142.429 21.358C142.429 21.204 142.401 20.644 142.345 19.678C142.345 19.216 142.681 18.936 143.353 18.838Z" fill="white"/>
</g>
<defs>
<clipPath id="clip0_575_2852">
<rect width="186" height="56" fill="white"/>
</clipPath>
</defs>
</svg>
