<svg width="270" height="56" viewBox="0 0 270 56" fill="none" xmlns="http://www.w3.org/2000/svg">
<g clip-path="url(#clip0_15_634)">
<mask id="path-1-inside-1_15_634" fill="white">
<path d="M255.573 55.2145C254.458 55.2145 254.458 55.3912 253.342 55.3912C252.226 55.3912 252.226 55.401 251.11 55.401C249.994 55.401 249.994 55.1359 248.878 55.1359C247.762 55.1359 247.762 55.185 246.646 55.185C245.531 55.185 245.531 55.1163 244.415 55.1163C243.299 55.1163 243.299 55.2439 242.183 55.2439C241.067 55.2439 241.067 54.969 239.951 54.969C238.835 54.969 238.835 55.9411 237.72 55.9411C236.604 55.9411 236.604 55.892 235.488 55.892C234.372 55.892 234.372 55.0672 233.256 55.0672C232.14 55.0672 232.14 55.0868 231.024 55.0868C229.908 55.0868 229.908 55.2341 228.793 55.2341C227.677 55.2341 227.677 55.7545 226.561 55.7545C225.445 55.7545 225.445 55.1555 224.329 55.1555C223.213 55.1555 223.213 55.5778 222.097 55.5778C220.982 55.5778 220.982 55.3912 219.866 55.3912C218.75 55.3912 218.75 55.3126 217.634 55.3126C216.518 55.3126 216.518 55.5385 215.402 55.5385C214.286 55.5385 214.286 55.7349 213.17 55.7349C212.055 55.7349 212.055 55.9018 210.939 55.9018C209.823 55.9018 209.823 55.4207 208.707 55.4207C207.591 55.4207 207.591 54.969 206.475 54.969C205.359 54.969 205.359 55.6367 204.244 55.6367C203.128 55.6367 203.128 55.0377 202.012 55.0377C200.896 55.0377 200.896 55.2537 199.78 55.2537C198.664 55.2537 198.664 55.7349 197.548 55.7349C196.432 55.7349 196.432 55.892 195.317 55.892C194.201 55.892 194.201 55.1064 193.085 55.1064C191.969 55.1064 191.969 55.3323 190.853 55.3323C189.737 55.3323 189.737 55.4403 188.621 55.4403C187.506 55.4403 187.506 55.1163 186.39 55.1163C185.274 55.1163 185.274 55.1359 184.158 55.1359C183.042 55.1359 183.042 55.9705 181.926 55.9705C180.81 55.9705 180.81 55.2145 179.694 55.2145C178.579 55.2145 178.579 55.8822 177.463 55.8822C176.347 55.8822 176.347 55.1654 175.231 55.1654C174.115 55.1654 174.115 55.6661 172.999 55.6661C171.883 55.6661 171.883 55.9411 170.768 55.9411C169.652 55.9411 169.652 55.4796 168.536 55.4796C167.42 55.4796 167.42 55.9804 166.304 55.9804C165.188 55.9804 165.188 55.8625 164.072 55.8625C162.956 55.8625 162.956 55.1752 161.841 55.1752C160.725 55.1752 160.725 55.5581 159.609 55.5581C158.493 55.5581 158.493 55.1555 157.377 55.1555C156.261 55.1555 156.261 55.3617 155.145 55.3617C154.03 55.3617 154.03 55.4108 152.914 55.4108C151.798 55.4108 151.798 55.2832 150.682 55.2832C149.566 55.2832 149.566 55.0181 148.45 55.0181C147.334 55.0181 147.334 55.7349 146.218 55.7349C145.103 55.7349 145.103 55.1163 143.987 55.1163C142.871 55.1163 142.871 55.892 141.755 55.892C140.639 55.892 140.639 55.9509 139.523 55.9509C138.407 55.9509 138.407 55.6465 137.292 55.6465C136.176 55.6465 136.176 55.4698 135.06 55.4698C133.944 55.4698 133.944 55.8527 132.828 55.8527C131.712 55.8527 131.712 55.7447 130.596 55.7447C129.48 55.7447 129.48 55.3716 128.365 55.3716C127.249 55.3716 127.249 55.0966 126.133 55.0966C125.017 55.0966 125.017 55.0966 123.901 55.0966C122.785 55.0966 122.785 55.0181 121.669 55.0181C120.554 55.0181 120.554 55.9116 119.428 55.9116C118.302 55.9116 118.312 55.3617 117.196 55.3617C116.08 55.3617 116.08 55.0377 114.964 55.0377C113.848 55.0377 113.848 55.5778 112.732 55.5778C111.617 55.5778 111.617 55.9411 110.501 55.9411C109.385 55.9411 109.385 55.8724 108.269 55.8724C107.153 55.8724 107.153 55.7938 106.037 55.7938C104.921 55.7938 104.921 55.9313 103.806 55.9313C102.69 55.9313 102.69 55.3519 101.564 55.3519C100.438 55.3519 100.448 55.2832 99.3321 55.2832C98.2162 55.2832 98.2162 55.293 97.1004 55.293C95.9845 55.293 95.9845 55.0181 94.8686 55.0181C93.7528 55.0181 93.7528 55.7742 92.6369 55.7742C91.521 55.7742 91.521 55.0377 90.3952 55.0377C89.2694 55.0377 89.2793 54.9886 88.1635 54.9886C87.0476 54.9886 87.0476 55.9804 85.9317 55.9804C84.8159 55.9804 84.8159 55.4698 83.7 55.4698C82.5841 55.4698 82.5841 55.8429 81.4683 55.8429C80.3524 55.8429 80.3524 55.5876 79.2266 55.5876C78.1007 55.5876 78.1107 55.3323 76.9948 55.3323C75.879 55.3323 75.879 55.1948 74.7631 55.1948C73.6472 55.1948 73.6472 56 72.5214 56C71.3956 56 71.4055 55.9018 70.2797 55.9018C69.1539 55.9018 69.1638 55.0082 68.048 55.0082C66.9321 55.0082 66.9321 55.6563 65.8063 55.6563C64.6804 55.6563 64.6904 55.3323 63.5646 55.3323C62.4387 55.3323 62.4487 55.4992 61.3328 55.4992C60.217 55.4992 60.217 55.2243 59.1011 55.2243C57.9852 55.2243 57.9852 55.6563 56.8694 55.6563C55.7535 55.6563 55.7535 55.7643 54.6277 55.7643C53.5018 55.7643 53.5118 55.9018 52.386 55.9018C51.2601 55.9018 51.2701 55.8527 50.1542 55.8527C49.0384 55.8527 49.0384 55.892 47.9225 55.892C46.8066 55.892 46.8066 55.7349 45.6808 55.7349C44.555 55.7349 44.5649 55.8233 43.4491 55.8233C42.3332 55.8233 42.3332 55.1555 41.2074 55.1555C40.0816 55.1555 40.0915 55.3617 38.9657 55.3617C37.8399 55.3617 37.8498 55.3028 36.724 55.3028C35.5982 55.3028 35.6081 55.4796 34.4823 55.4796C33.3565 55.4796 33.3664 55.5189 32.2406 55.5189C31.1148 55.5189 31.1247 55.8331 29.9989 55.8331C28.8731 55.8331 28.883 55.0279 27.7672 55.0279C26.6513 55.0279 26.6513 55.617 25.5255 55.617C24.3996 55.617 24.4096 55.401 23.2838 55.401C22.1579 55.401 22.1579 55.0181 21.0421 55.0181C19.9262 55.0181 19.9162 55.0573 18.8004 55.0573C17.6845 55.0573 17.6745 54.9984 16.5587 54.9984C15.4428 54.9984 15.4328 55.3912 14.317 55.3912C13.5797 55.3912 12.8325 55.5385 12.1351 55.4305C11.4376 55.3225 10.7103 55.0672 10.0328 54.8511C9.35535 54.6351 8.85719 53.9674 8.21956 53.6433C7.58192 53.3193 6.91439 53.0935 6.33653 52.6712C5.75867 52.249 4.80221 52.2294 4.2941 51.7187C3.78598 51.2081 3.13838 50.727 2.70996 50.1476C2.28155 49.5683 2.39114 48.6256 2.06236 47.9874C1.73358 47.3491 0.976384 46.8581 0.757196 46.1708C0.538007 45.4834 1.04613 44.6291 0.936531 43.9123C0.826937 43.1955 0.557934 42.5474 0.557934 41.8208C0.557934 40.7603 0.926568 40.7603 0.926568 39.69C0.926568 38.6197 0.41845 38.6295 0.41845 37.5592C0.41845 36.4889 0 36.4889 0 35.4284C0 34.3679 0.627675 34.3679 0.627675 33.2976C0.627675 32.2272 0.777122 32.2273 0.777122 31.1668C0.777122 30.1063 0.677491 30.0964 0.677491 29.0359C0.677491 27.9755 0.428413 27.9755 0.428413 26.9051C0.428413 25.8348 0.717343 25.8446 0.717343 24.7743C0.717343 23.704 0.0697417 23.704 0.0697417 22.6435C0.0697417 21.583 0.816974 21.5732 0.816974 20.5127C0.816974 19.4522 0.747232 19.4424 0.747232 18.3819C0.747232 17.3214 0.54797 17.3116 0.54797 16.2413C0.54797 15.171 0.249077 15.171 0.249077 14.1006C0.249077 13.374 0.856827 12.7063 0.976384 12.0091C1.09594 11.3119 1.47454 10.713 1.69373 10.0452C1.91291 9.37752 2.00258 8.69998 2.33137 8.06172C2.66015 7.42346 2.97897 6.8343 3.40738 6.26477C3.83579 5.69525 3.85572 4.76241 4.36384 4.26162C4.87196 3.76083 5.93801 3.90812 6.52583 3.48588C7.11365 3.06365 7.47233 2.36647 8.11993 2.04243C8.76753 1.71839 9.46494 1.60056 10.1624 1.38453C10.8598 1.16851 11.4875 0.903384 12.2148 0.785551C12.9421 0.667719 13.6196 0.235665 14.3568 0.235665C15.4727 0.235665 15.4727 0.0196388 16.5886 0.0196388C17.7044 0.0196388 17.7044 0.746274 18.8203 0.746274C19.9362 0.746274 19.9362 0.706996 21.052 0.706996C22.1679 0.706996 22.1679 0.549886 23.2838 0.549886C24.3996 0.549886 24.3996 0.098194 25.5155 0.098194C26.6314 0.098194 26.6314 0.677538 27.7472 0.677538C28.8631 0.677538 28.8631 0.795371 29.979 0.795371C31.0948 0.795371 31.0948 0.412415 32.2107 0.412415C33.3266 0.412415 33.3266 0.147291 34.4424 0.147291C35.5583 0.147291 35.5583 0.235665 36.6742 0.235665C37.79 0.235665 37.79 0.795371 38.9059 0.795371C40.0218 0.795371 40.0218 0.942662 41.1376 0.942662C42.2535 0.942662 42.2535 0.441873 43.3694 0.441873C44.4852 0.441873 44.4852 0.549886 45.6011 0.549886C46.717 0.549886 46.717 0.618622 47.8328 0.618622C48.9487 0.618622 48.9487 0.363318 50.0646 0.363318C51.1804 0.363318 51.1804 0.893565 52.2963 0.893565C53.4122 0.893565 53.4122 0.510608 54.528 0.510608C55.6439 0.510608 55.6439 0.589164 56.7598 0.589164C57.8756 0.589164 57.8756 0.500789 58.9915 0.500789C60.1074 0.500789 60.1074 0.0785551 61.2232 0.0785551C62.3391 0.0785551 62.3391 0.549886 63.455 0.549886C64.5708 0.549886 64.5708 0.756093 65.6867 0.756093C66.8026 0.756093 66.8026 0.697177 67.9184 0.697177C69.0343 0.697177 69.0343 0.108013 70.1502 0.108013C71.266 0.108013 71.2661 0.471331 72.3819 0.471331C73.4978 0.471331 73.4978 0.638261 74.6136 0.638261C75.7295 0.638261 75.7295 0.127652 76.8454 0.127652C77.9613 0.127652 77.9613 0.0589164 79.0771 0.0589164C80.193 0.0589164 80.193 0.540067 81.3089 0.540067C82.4247 0.540067 82.4247 0.343679 83.5406 0.343679C84.6565 0.343679 84.6564 0.854287 85.7723 0.854287C86.8882 0.854287 86.8882 0.304401 88.0041 0.304401C89.1199 0.304401 89.1199 0.0589164 90.2358 0.0589164C91.3517 0.0589164 91.3517 0.598983 92.4675 0.598983C93.5834 0.598983 93.5834 0.108013 94.6993 0.108013C95.8151 0.108013 95.8151 0.923023 96.931 0.923023C98.0469 0.923023 98.0469 0.48115 99.1627 0.48115C100.279 0.48115 100.279 0.304401 101.394 0.304401C102.51 0.304401 102.51 0.795371 103.626 0.795371C104.742 0.795371 104.742 0.108013 105.858 0.108013C106.974 0.108013 106.974 0.844468 108.09 0.844468C109.206 0.844468 109.206 0.873926 110.321 0.873926C111.437 0.873926 111.437 0.392776 112.553 0.392776C113.669 0.392776 113.669 0.49097 114.785 0.49097C115.901 0.49097 115.901 0.15711 117.017 0.15711C118.132 0.15711 118.132 0.176749 119.248 0.176749C120.364 0.176749 120.364 0.952481 121.48 0.952481C122.596 0.952481 122.596 0.520428 123.712 0.520428C124.828 0.520428 124.828 0.677538 125.944 0.677538C127.059 0.677538 127.059 1.00158 128.175 1.00158C129.291 1.00158 129.291 0.225846 130.407 0.225846C131.523 0.225846 131.523 0.0196388 132.639 0.0196388C133.755 0.0196388 133.755 0.382956 134.87 0.382956C135.986 0.382956 135.986 0.16693 137.102 0.16693C138.218 0.16693 138.218 0.510608 139.334 0.510608C140.45 0.510608 140.45 0.382956 141.566 0.382956C142.682 0.382956 142.682 0.363318 143.797 0.363318C144.913 0.363318 144.913 0 146.029 0C147.145 0 147.145 0.333859 148.261 0.333859C149.377 0.333859 149.377 0.706996 150.503 0.706996C151.628 0.706996 151.618 0.402595 152.734 0.402595C153.85 0.402595 153.85 0.903384 154.966 0.903384C156.082 0.903384 156.082 0.32404 157.198 0.32404C158.314 0.32404 158.314 0.265124 159.43 0.265124C160.545 0.265124 160.545 0.235665 161.661 0.235665C162.777 0.235665 162.777 0.873926 163.893 0.873926C165.009 0.873926 165.009 0.176749 166.125 0.176749C167.241 0.176749 167.241 0.0196388 168.366 0.0196388C169.492 0.0196388 169.482 0.893565 170.598 0.893565C171.714 0.893565 171.714 0.942662 172.83 0.942662C173.946 0.942662 173.946 0.864107 175.062 0.864107C176.177 0.864107 176.177 0.81501 177.293 0.81501C178.409 0.81501 178.409 0.15711 179.535 0.15711C180.661 0.15711 180.651 0.0392776 181.767 0.0392776C182.883 0.0392776 182.883 0.893565 183.999 0.893565C185.114 0.893565 185.114 0.618622 186.23 0.618622C187.346 0.618622 187.346 0.0294582 188.462 0.0294582C189.578 0.0294582 189.578 0.48115 190.704 0.48115C191.83 0.48115 191.82 0.628441 192.935 0.628441C194.051 0.628441 194.051 0 195.167 0C196.283 0 196.283 0.0392776 197.409 0.0392776C198.535 0.0392776 198.525 0.098194 199.651 0.098194C200.776 0.098194 200.766 0.235665 201.882 0.235665C202.998 0.235665 202.998 0.15711 204.124 0.15711C205.25 0.15711 205.24 0.549886 206.366 0.549886C207.492 0.549886 207.482 0.80519 208.597 0.80519C209.713 0.80519 209.713 0.245485 210.829 0.245485C211.945 0.245485 211.945 0.795371 213.061 0.795371C214.177 0.795371 214.177 0.716816 215.303 0.716816C216.428 0.716816 216.418 0.0687357 217.544 0.0687357C218.67 0.0687357 218.66 0.530247 219.776 0.530247C220.892 0.530247 220.892 0.952481 222.008 0.952481C223.124 0.952481 223.124 0.176749 224.249 0.176749C225.375 0.176749 225.365 0.245485 226.481 0.245485C227.597 0.245485 227.597 0.569525 228.723 0.569525C229.849 0.569525 229.839 0.687358 230.965 0.687358C232.09 0.687358 232.08 0.942662 233.206 0.942662C234.332 0.942662 234.322 0.363318 235.448 0.363318C236.574 0.363318 236.564 0.049097 237.69 0.049097C238.815 0.049097 238.806 0.49097 239.931 0.49097C241.057 0.49097 241.047 0.520428 242.163 0.520428C243.279 0.520428 243.279 0.765913 244.405 0.765913C245.531 0.765913 245.521 0.16693 246.646 0.16693C247.772 0.16693 247.772 0.176749 248.888 0.176749C250.004 0.176749 250.014 0.176749 251.13 0.176749C252.246 0.176749 252.256 0.314221 253.372 0.314221C254.487 0.314221 254.497 0.864107 255.613 0.864107C256.351 0.864107 257.008 1.02122 257.706 1.12923C258.403 1.23724 259.21 0.942662 259.897 1.15869C260.585 1.37472 261.242 1.69876 261.89 2.02279C262.538 2.34684 263.135 2.73961 263.723 3.16184C264.311 3.58408 264.899 3.99649 265.417 4.5071C265.935 5.01771 266.344 5.60687 266.772 6.18622C267.2 6.76556 267.479 7.41364 267.808 8.0519C268.137 8.69016 268.137 9.40698 268.356 10.0943C268.575 10.7817 269.153 11.3316 269.273 12.0386C269.392 12.7456 269.323 13.4427 269.323 14.1694C269.323 15.2299 269.781 15.2299 269.781 16.3002C269.781 17.3705 269.691 17.3607 269.691 18.431C269.691 19.5013 269.811 19.5013 269.811 20.5618C269.811 21.6223 270 21.6223 270 22.6926C270 23.7629 269.024 23.7629 269.024 24.8234C269.024 25.8839 269.233 25.8937 269.233 26.9542C269.233 28.0147 269.512 28.0147 269.512 29.085C269.512 30.1554 269.372 30.1455 269.372 31.2159C269.372 32.2862 269.442 32.2862 269.442 33.3467C269.442 34.4072 269.004 34.417 269.004 35.4775C269.004 36.538 268.964 36.5478 268.964 37.6083C268.964 38.6688 269.89 38.6786 269.89 39.7489C269.89 40.8192 269.452 40.8192 269.452 41.8895C269.452 42.6162 269.711 43.3723 269.601 44.0694C269.492 44.7666 269.163 45.4834 268.934 46.1511C268.705 46.8189 267.838 47.2313 267.519 47.8597C267.2 48.4882 266.842 49.0381 266.413 49.6076C265.985 50.1771 265.566 50.6681 265.058 51.1787C264.55 51.6893 264.61 52.8578 264.022 53.28C263.434 53.7023 262.757 54.1049 262.109 54.4289C261.462 54.7529 260.445 54.1932 259.758 54.4191C259.07 54.6449 258.453 54.861 257.735 54.9788C257.018 55.0966 256.37 55.2537 255.633 55.2537L255.573 55.2145Z"/>
</mask>
<path d="M255.573 55.2145C254.458 55.2145 254.458 55.3912 253.342 55.3912C252.226 55.3912 252.226 55.401 251.11 55.401C249.994 55.401 249.994 55.1359 248.878 55.1359C247.762 55.1359 247.762 55.185 246.646 55.185C245.531 55.185 245.531 55.1163 244.415 55.1163C243.299 55.1163 243.299 55.2439 242.183 55.2439C241.067 55.2439 241.067 54.969 239.951 54.969C238.835 54.969 238.835 55.9411 237.72 55.9411C236.604 55.9411 236.604 55.892 235.488 55.892C234.372 55.892 234.372 55.0672 233.256 55.0672C232.14 55.0672 232.14 55.0868 231.024 55.0868C229.908 55.0868 229.908 55.2341 228.793 55.2341C227.677 55.2341 227.677 55.7545 226.561 55.7545C225.445 55.7545 225.445 55.1555 224.329 55.1555C223.213 55.1555 223.213 55.5778 222.097 55.5778C220.982 55.5778 220.982 55.3912 219.866 55.3912C218.75 55.3912 218.75 55.3126 217.634 55.3126C216.518 55.3126 216.518 55.5385 215.402 55.5385C214.286 55.5385 214.286 55.7349 213.17 55.7349C212.055 55.7349 212.055 55.9018 210.939 55.9018C209.823 55.9018 209.823 55.4207 208.707 55.4207C207.591 55.4207 207.591 54.969 206.475 54.969C205.359 54.969 205.359 55.6367 204.244 55.6367C203.128 55.6367 203.128 55.0377 202.012 55.0377C200.896 55.0377 200.896 55.2537 199.78 55.2537C198.664 55.2537 198.664 55.7349 197.548 55.7349C196.432 55.7349 196.432 55.892 195.317 55.892C194.201 55.892 194.201 55.1064 193.085 55.1064C191.969 55.1064 191.969 55.3323 190.853 55.3323C189.737 55.3323 189.737 55.4403 188.621 55.4403C187.506 55.4403 187.506 55.1163 186.39 55.1163C185.274 55.1163 185.274 55.1359 184.158 55.1359C183.042 55.1359 183.042 55.9705 181.926 55.9705C180.81 55.9705 180.81 55.2145 179.694 55.2145C178.579 55.2145 178.579 55.8822 177.463 55.8822C176.347 55.8822 176.347 55.1654 175.231 55.1654C174.115 55.1654 174.115 55.6661 172.999 55.6661C171.883 55.6661 171.883 55.9411 170.768 55.9411C169.652 55.9411 169.652 55.4796 168.536 55.4796C167.42 55.4796 167.42 55.9804 166.304 55.9804C165.188 55.9804 165.188 55.8625 164.072 55.8625C162.956 55.8625 162.956 55.1752 161.841 55.1752C160.725 55.1752 160.725 55.5581 159.609 55.5581C158.493 55.5581 158.493 55.1555 157.377 55.1555C156.261 55.1555 156.261 55.3617 155.145 55.3617C154.03 55.3617 154.03 55.4108 152.914 55.4108C151.798 55.4108 151.798 55.2832 150.682 55.2832C149.566 55.2832 149.566 55.0181 148.45 55.0181C147.334 55.0181 147.334 55.7349 146.218 55.7349C145.103 55.7349 145.103 55.1163 143.987 55.1163C142.871 55.1163 142.871 55.892 141.755 55.892C140.639 55.892 140.639 55.9509 139.523 55.9509C138.407 55.9509 138.407 55.6465 137.292 55.6465C136.176 55.6465 136.176 55.4698 135.06 55.4698C133.944 55.4698 133.944 55.8527 132.828 55.8527C131.712 55.8527 131.712 55.7447 130.596 55.7447C129.48 55.7447 129.48 55.3716 128.365 55.3716C127.249 55.3716 127.249 55.0966 126.133 55.0966C125.017 55.0966 125.017 55.0966 123.901 55.0966C122.785 55.0966 122.785 55.0181 121.669 55.0181C120.554 55.0181 120.554 55.9116 119.428 55.9116C118.302 55.9116 118.312 55.3617 117.196 55.3617C116.08 55.3617 116.08 55.0377 114.964 55.0377C113.848 55.0377 113.848 55.5778 112.732 55.5778C111.617 55.5778 111.617 55.9411 110.501 55.9411C109.385 55.9411 109.385 55.8724 108.269 55.8724C107.153 55.8724 107.153 55.7938 106.037 55.7938C104.921 55.7938 104.921 55.9313 103.806 55.9313C102.69 55.9313 102.69 55.3519 101.564 55.3519C100.438 55.3519 100.448 55.2832 99.3321 55.2832C98.2162 55.2832 98.2162 55.293 97.1004 55.293C95.9845 55.293 95.9845 55.0181 94.8686 55.0181C93.7528 55.0181 93.7528 55.7742 92.6369 55.7742C91.521 55.7742 91.521 55.0377 90.3952 55.0377C89.2694 55.0377 89.2793 54.9886 88.1635 54.9886C87.0476 54.9886 87.0476 55.9804 85.9317 55.9804C84.8159 55.9804 84.8159 55.4698 83.7 55.4698C82.5841 55.4698 82.5841 55.8429 81.4683 55.8429C80.3524 55.8429 80.3524 55.5876 79.2266 55.5876C78.1007 55.5876 78.1107 55.3323 76.9948 55.3323C75.879 55.3323 75.879 55.1948 74.7631 55.1948C73.6472 55.1948 73.6472 56 72.5214 56C71.3956 56 71.4055 55.9018 70.2797 55.9018C69.1539 55.9018 69.1638 55.0082 68.048 55.0082C66.9321 55.0082 66.9321 55.6563 65.8063 55.6563C64.6804 55.6563 64.6904 55.3323 63.5646 55.3323C62.4387 55.3323 62.4487 55.4992 61.3328 55.4992C60.217 55.4992 60.217 55.2243 59.1011 55.2243C57.9852 55.2243 57.9852 55.6563 56.8694 55.6563C55.7535 55.6563 55.7535 55.7643 54.6277 55.7643C53.5018 55.7643 53.5118 55.9018 52.386 55.9018C51.2601 55.9018 51.2701 55.8527 50.1542 55.8527C49.0384 55.8527 49.0384 55.892 47.9225 55.892C46.8066 55.892 46.8066 55.7349 45.6808 55.7349C44.555 55.7349 44.5649 55.8233 43.4491 55.8233C42.3332 55.8233 42.3332 55.1555 41.2074 55.1555C40.0816 55.1555 40.0915 55.3617 38.9657 55.3617C37.8399 55.3617 37.8498 55.3028 36.724 55.3028C35.5982 55.3028 35.6081 55.4796 34.4823 55.4796C33.3565 55.4796 33.3664 55.5189 32.2406 55.5189C31.1148 55.5189 31.1247 55.8331 29.9989 55.8331C28.8731 55.8331 28.883 55.0279 27.7672 55.0279C26.6513 55.0279 26.6513 55.617 25.5255 55.617C24.3996 55.617 24.4096 55.401 23.2838 55.401C22.1579 55.401 22.1579 55.0181 21.0421 55.0181C19.9262 55.0181 19.9162 55.0573 18.8004 55.0573C17.6845 55.0573 17.6745 54.9984 16.5587 54.9984C15.4428 54.9984 15.4328 55.3912 14.317 55.3912C13.5797 55.3912 12.8325 55.5385 12.1351 55.4305C11.4376 55.3225 10.7103 55.0672 10.0328 54.8511C9.35535 54.6351 8.85719 53.9674 8.21956 53.6433C7.58192 53.3193 6.91439 53.0935 6.33653 52.6712C5.75867 52.249 4.80221 52.2294 4.2941 51.7187C3.78598 51.2081 3.13838 50.727 2.70996 50.1476C2.28155 49.5683 2.39114 48.6256 2.06236 47.9874C1.73358 47.3491 0.976384 46.8581 0.757196 46.1708C0.538007 45.4834 1.04613 44.6291 0.936531 43.9123C0.826937 43.1955 0.557934 42.5474 0.557934 41.8208C0.557934 40.7603 0.926568 40.7603 0.926568 39.69C0.926568 38.6197 0.41845 38.6295 0.41845 37.5592C0.41845 36.4889 0 36.4889 0 35.4284C0 34.3679 0.627675 34.3679 0.627675 33.2976C0.627675 32.2272 0.777122 32.2273 0.777122 31.1668C0.777122 30.1063 0.677491 30.0964 0.677491 29.0359C0.677491 27.9755 0.428413 27.9755 0.428413 26.9051C0.428413 25.8348 0.717343 25.8446 0.717343 24.7743C0.717343 23.704 0.0697417 23.704 0.0697417 22.6435C0.0697417 21.583 0.816974 21.5732 0.816974 20.5127C0.816974 19.4522 0.747232 19.4424 0.747232 18.3819C0.747232 17.3214 0.54797 17.3116 0.54797 16.2413C0.54797 15.171 0.249077 15.171 0.249077 14.1006C0.249077 13.374 0.856827 12.7063 0.976384 12.0091C1.09594 11.3119 1.47454 10.713 1.69373 10.0452C1.91291 9.37752 2.00258 8.69998 2.33137 8.06172C2.66015 7.42346 2.97897 6.8343 3.40738 6.26477C3.83579 5.69525 3.85572 4.76241 4.36384 4.26162C4.87196 3.76083 5.93801 3.90812 6.52583 3.48588C7.11365 3.06365 7.47233 2.36647 8.11993 2.04243C8.76753 1.71839 9.46494 1.60056 10.1624 1.38453C10.8598 1.16851 11.4875 0.903384 12.2148 0.785551C12.9421 0.667719 13.6196 0.235665 14.3568 0.235665C15.4727 0.235665 15.4727 0.0196388 16.5886 0.0196388C17.7044 0.0196388 17.7044 0.746274 18.8203 0.746274C19.9362 0.746274 19.9362 0.706996 21.052 0.706996C22.1679 0.706996 22.1679 0.549886 23.2838 0.549886C24.3996 0.549886 24.3996 0.098194 25.5155 0.098194C26.6314 0.098194 26.6314 0.677538 27.7472 0.677538C28.8631 0.677538 28.8631 0.795371 29.979 0.795371C31.0948 0.795371 31.0948 0.412415 32.2107 0.412415C33.3266 0.412415 33.3266 0.147291 34.4424 0.147291C35.5583 0.147291 35.5583 0.235665 36.6742 0.235665C37.79 0.235665 37.79 0.795371 38.9059 0.795371C40.0218 0.795371 40.0218 0.942662 41.1376 0.942662C42.2535 0.942662 42.2535 0.441873 43.3694 0.441873C44.4852 0.441873 44.4852 0.549886 45.6011 0.549886C46.717 0.549886 46.717 0.618622 47.8328 0.618622C48.9487 0.618622 48.9487 0.363318 50.0646 0.363318C51.1804 0.363318 51.1804 0.893565 52.2963 0.893565C53.4122 0.893565 53.4122 0.510608 54.528 0.510608C55.6439 0.510608 55.6439 0.589164 56.7598 0.589164C57.8756 0.589164 57.8756 0.500789 58.9915 0.500789C60.1074 0.500789 60.1074 0.0785551 61.2232 0.0785551C62.3391 0.0785551 62.3391 0.549886 63.455 0.549886C64.5708 0.549886 64.5708 0.756093 65.6867 0.756093C66.8026 0.756093 66.8026 0.697177 67.9184 0.697177C69.0343 0.697177 69.0343 0.108013 70.1502 0.108013C71.266 0.108013 71.2661 0.471331 72.3819 0.471331C73.4978 0.471331 73.4978 0.638261 74.6136 0.638261C75.7295 0.638261 75.7295 0.127652 76.8454 0.127652C77.9613 0.127652 77.9613 0.0589164 79.0771 0.0589164C80.193 0.0589164 80.193 0.540067 81.3089 0.540067C82.4247 0.540067 82.4247 0.343679 83.5406 0.343679C84.6565 0.343679 84.6564 0.854287 85.7723 0.854287C86.8882 0.854287 86.8882 0.304401 88.0041 0.304401C89.1199 0.304401 89.1199 0.0589164 90.2358 0.0589164C91.3517 0.0589164 91.3517 0.598983 92.4675 0.598983C93.5834 0.598983 93.5834 0.108013 94.6993 0.108013C95.8151 0.108013 95.8151 0.923023 96.931 0.923023C98.0469 0.923023 98.0469 0.48115 99.1627 0.48115C100.279 0.48115 100.279 0.304401 101.394 0.304401C102.51 0.304401 102.51 0.795371 103.626 0.795371C104.742 0.795371 104.742 0.108013 105.858 0.108013C106.974 0.108013 106.974 0.844468 108.09 0.844468C109.206 0.844468 109.206 0.873926 110.321 0.873926C111.437 0.873926 111.437 0.392776 112.553 0.392776C113.669 0.392776 113.669 0.49097 114.785 0.49097C115.901 0.49097 115.901 0.15711 117.017 0.15711C118.132 0.15711 118.132 0.176749 119.248 0.176749C120.364 0.176749 120.364 0.952481 121.48 0.952481C122.596 0.952481 122.596 0.520428 123.712 0.520428C124.828 0.520428 124.828 0.677538 125.944 0.677538C127.059 0.677538 127.059 1.00158 128.175 1.00158C129.291 1.00158 129.291 0.225846 130.407 0.225846C131.523 0.225846 131.523 0.0196388 132.639 0.0196388C133.755 0.0196388 133.755 0.382956 134.87 0.382956C135.986 0.382956 135.986 0.16693 137.102 0.16693C138.218 0.16693 138.218 0.510608 139.334 0.510608C140.45 0.510608 140.45 0.382956 141.566 0.382956C142.682 0.382956 142.682 0.363318 143.797 0.363318C144.913 0.363318 144.913 0 146.029 0C147.145 0 147.145 0.333859 148.261 0.333859C149.377 0.333859 149.377 0.706996 150.503 0.706996C151.628 0.706996 151.618 0.402595 152.734 0.402595C153.85 0.402595 153.85 0.903384 154.966 0.903384C156.082 0.903384 156.082 0.32404 157.198 0.32404C158.314 0.32404 158.314 0.265124 159.43 0.265124C160.545 0.265124 160.545 0.235665 161.661 0.235665C162.777 0.235665 162.777 0.873926 163.893 0.873926C165.009 0.873926 165.009 0.176749 166.125 0.176749C167.241 0.176749 167.241 0.0196388 168.366 0.0196388C169.492 0.0196388 169.482 0.893565 170.598 0.893565C171.714 0.893565 171.714 0.942662 172.83 0.942662C173.946 0.942662 173.946 0.864107 175.062 0.864107C176.177 0.864107 176.177 0.81501 177.293 0.81501C178.409 0.81501 178.409 0.15711 179.535 0.15711C180.661 0.15711 180.651 0.0392776 181.767 0.0392776C182.883 0.0392776 182.883 0.893565 183.999 0.893565C185.114 0.893565 185.114 0.618622 186.23 0.618622C187.346 0.618622 187.346 0.0294582 188.462 0.0294582C189.578 0.0294582 189.578 0.48115 190.704 0.48115C191.83 0.48115 191.82 0.628441 192.935 0.628441C194.051 0.628441 194.051 0 195.167 0C196.283 0 196.283 0.0392776 197.409 0.0392776C198.535 0.0392776 198.525 0.098194 199.651 0.098194C200.776 0.098194 200.766 0.235665 201.882 0.235665C202.998 0.235665 202.998 0.15711 204.124 0.15711C205.25 0.15711 205.24 0.549886 206.366 0.549886C207.492 0.549886 207.482 0.80519 208.597 0.80519C209.713 0.80519 209.713 0.245485 210.829 0.245485C211.945 0.245485 211.945 0.795371 213.061 0.795371C214.177 0.795371 214.177 0.716816 215.303 0.716816C216.428 0.716816 216.418 0.0687357 217.544 0.0687357C218.67 0.0687357 218.66 0.530247 219.776 0.530247C220.892 0.530247 220.892 0.952481 222.008 0.952481C223.124 0.952481 223.124 0.176749 224.249 0.176749C225.375 0.176749 225.365 0.245485 226.481 0.245485C227.597 0.245485 227.597 0.569525 228.723 0.569525C229.849 0.569525 229.839 0.687358 230.965 0.687358C232.09 0.687358 232.08 0.942662 233.206 0.942662C234.332 0.942662 234.322 0.363318 235.448 0.363318C236.574 0.363318 236.564 0.049097 237.69 0.049097C238.815 0.049097 238.806 0.49097 239.931 0.49097C241.057 0.49097 241.047 0.520428 242.163 0.520428C243.279 0.520428 243.279 0.765913 244.405 0.765913C245.531 0.765913 245.521 0.16693 246.646 0.16693C247.772 0.16693 247.772 0.176749 248.888 0.176749C250.004 0.176749 250.014 0.176749 251.13 0.176749C252.246 0.176749 252.256 0.314221 253.372 0.314221C254.487 0.314221 254.497 0.864107 255.613 0.864107C256.351 0.864107 257.008 1.02122 257.706 1.12923C258.403 1.23724 259.21 0.942662 259.897 1.15869C260.585 1.37472 261.242 1.69876 261.89 2.02279C262.538 2.34684 263.135 2.73961 263.723 3.16184C264.311 3.58408 264.899 3.99649 265.417 4.5071C265.935 5.01771 266.344 5.60687 266.772 6.18622C267.2 6.76556 267.479 7.41364 267.808 8.0519C268.137 8.69016 268.137 9.40698 268.356 10.0943C268.575 10.7817 269.153 11.3316 269.273 12.0386C269.392 12.7456 269.323 13.4427 269.323 14.1694C269.323 15.2299 269.781 15.2299 269.781 16.3002C269.781 17.3705 269.691 17.3607 269.691 18.431C269.691 19.5013 269.811 19.5013 269.811 20.5618C269.811 21.6223 270 21.6223 270 22.6926C270 23.7629 269.024 23.7629 269.024 24.8234C269.024 25.8839 269.233 25.8937 269.233 26.9542C269.233 28.0147 269.512 28.0147 269.512 29.085C269.512 30.1554 269.372 30.1455 269.372 31.2159C269.372 32.2862 269.442 32.2862 269.442 33.3467C269.442 34.4072 269.004 34.417 269.004 35.4775C269.004 36.538 268.964 36.5478 268.964 37.6083C268.964 38.6688 269.89 38.6786 269.89 39.7489C269.89 40.8192 269.452 40.8192 269.452 41.8895C269.452 42.6162 269.711 43.3723 269.601 44.0694C269.492 44.7666 269.163 45.4834 268.934 46.1511C268.705 46.8189 267.838 47.2313 267.519 47.8597C267.2 48.4882 266.842 49.0381 266.413 49.6076C265.985 50.1771 265.566 50.6681 265.058 51.1787C264.55 51.6893 264.61 52.8578 264.022 53.28C263.434 53.7023 262.757 54.1049 262.109 54.4289C261.462 54.7529 260.445 54.1932 259.758 54.4191C259.07 54.6449 258.453 54.861 257.735 54.9788C257.018 55.0966 256.37 55.2537 255.633 55.2537L255.573 55.2145Z" fill="#9E4AFF" stroke="black" stroke-width="2" stroke-miterlimit="10" mask="url(#path-1-inside-1_15_634)"/>
<g clip-path="url(#clip1_15_634)">
<path d="M100.384 31.9502L97.9373 34.3967C97.227 35.088 96.2731 35.4719 95.2819 35.4652C94.2907 35.4586 93.342 35.062 92.6411 34.3612C91.9401 33.6604 91.5432 32.7118 91.5363 31.7207C91.5294 30.7295 91.913 29.7755 92.6041 29.065L95.0506 26.6162C95.1912 26.4755 95.2702 26.2847 95.2701 26.0857C95.27 25.8867 95.1909 25.696 95.0502 25.5553C94.9095 25.4147 94.7186 25.3357 94.5197 25.3358C94.3207 25.3359 94.13 25.415 93.9893 25.5557L91.5436 28.0045C90.5553 28.9933 90.0003 30.3341 90.0006 31.7322C90.001 33.1302 90.5567 34.4708 91.5455 35.4591C92.5342 36.4474 93.8751 37.0024 95.2732 37.002C96.6712 37.0017 98.0118 36.446 99.0001 35.4572L101.447 33.0107C101.583 32.8693 101.659 32.6798 101.657 32.4832C101.655 32.2865 101.576 32.0984 101.437 31.9593C101.298 31.8203 101.11 31.7414 100.914 31.7397C100.717 31.738 100.528 31.8136 100.386 31.9502H100.384Z" fill="white"/>
<path d="M106.458 20.546C105.97 20.0546 105.389 19.665 104.75 19.3996C104.11 19.1343 103.424 18.9986 102.731 19.0003C102.039 18.9984 101.353 19.1338 100.714 19.3986C100.074 19.6634 99.4937 20.0524 99.0054 20.543L96.5551 22.9903C96.4144 23.1309 96.3353 23.3217 96.3352 23.5206C96.3351 23.7196 96.4141 23.9104 96.5547 24.0511C96.6954 24.1919 96.8861 24.271 97.0851 24.271C97.284 24.2711 97.4749 24.1921 97.6156 24.0515L100.064 21.605C100.414 21.2537 100.829 20.9752 101.286 20.7856C101.744 20.596 102.235 20.499 102.73 20.5003C103.476 20.5005 104.204 20.7218 104.824 21.1363C105.444 21.5507 105.927 22.1396 106.213 22.8286C106.498 23.5175 106.573 24.2756 106.427 25.007C106.282 25.7384 105.923 26.4102 105.395 26.9375L102.949 29.384C102.808 29.5247 102.729 29.7156 102.729 29.9146C102.729 30.1137 102.808 30.3045 102.949 30.4453C103.09 30.586 103.28 30.6651 103.479 30.6651C103.679 30.6651 103.869 30.586 104.01 30.4453L106.457 28.0003C107.444 27.0111 107.998 25.6708 107.998 24.2734C107.999 22.8761 107.445 21.5356 106.458 20.546Z" fill="white"/>
<path d="M100.72 25.2198L96.2199 29.7198C96.1483 29.789 96.0912 29.8717 96.0519 29.9632C96.0125 30.0548 95.9919 30.1532 95.991 30.2528C95.9901 30.3523 96.0091 30.4511 96.0468 30.5433C96.0845 30.6354 96.1402 30.7192 96.2106 30.7896C96.2811 30.86 96.3648 30.9157 96.457 30.9534C96.5491 30.9911 96.6479 31.0101 96.7475 31.0092C96.8471 31.0084 96.9455 30.9877 97.037 30.9484C97.1285 30.9091 97.2112 30.8519 97.2804 30.7803L101.78 26.2803C101.917 26.1389 101.993 25.9494 101.991 25.7528C101.989 25.5561 101.91 25.368 101.771 25.2289C101.632 25.0899 101.444 25.011 101.247 25.0093C101.051 25.0076 100.861 25.0832 100.72 25.2198Z" fill="white"/>
</g>
<path d="M120.287 19.006C125.453 19.062 128.281 19.09 128.771 19.09C129.779 19.09 130.283 19.482 130.283 20.266V20.35C130.283 22.24 130.031 24.06 129.527 25.81C129.289 26.034 129.065 26.146 128.855 26.146H128.519C128.127 25.95 127.931 25.67 127.931 25.306C128.267 22.982 128.435 21.61 128.435 21.19V20.938C125.663 20.882 123.507 20.854 121.967 20.854H119.783C119.419 20.854 119.139 20.658 118.943 20.266V19.678C119.139 19.23 119.587 19.006 120.287 19.006ZM124.571 24.193H124.991C125.383 24.417 125.579 24.753 125.579 25.201V26.629H126.251C127.091 26.629 128.463 26.685 130.367 26.797L131.207 26.713C131.711 26.881 131.963 27.161 131.963 27.553V27.721C131.837 28.281 131.557 28.561 131.123 28.561C130.577 28.561 127.665 28.505 122.387 28.393C120.147 28.449 118.859 28.477 118.523 28.477C117.683 28.379 117.263 28.071 117.263 27.553V27.469C117.375 26.909 117.655 26.629 118.103 26.629C119.125 26.629 121.029 26.601 123.815 26.545L123.731 26.377V25.705C123.731 24.697 124.011 24.193 124.571 24.193ZM124.76 29.695C127.28 29.695 129.016 30.528 129.968 32.194C130.192 32.768 130.304 33.335 130.304 33.895C130.304 35.925 128.792 37.241 125.768 37.843H125.012C121.82 37.843 119.832 37.003 119.048 35.323C118.88 34.875 118.796 34.462 118.796 34.084V33.811C118.796 32.061 119.748 30.836 121.652 30.136C122.366 29.842 123.402 29.695 124.76 29.695ZM120.56 34.084C120.924 35.274 122.184 35.869 124.34 35.869H125.6C126.916 35.869 127.868 35.274 128.456 34.084V33.727C128.456 32.537 127.28 31.851 124.928 31.669H124.676C121.932 31.669 120.56 32.474 120.56 34.084ZM141.378 19.699C143.898 19.699 145.634 20.483 146.586 22.051C146.81 22.583 146.922 23.115 146.922 23.647C146.922 25.551 145.41 26.783 142.386 27.343H141.63C138.438 27.343 136.45 26.559 135.666 24.991C135.498 24.557 135.414 24.165 135.414 23.815V23.563C135.414 21.911 136.366 20.763 138.27 20.119C138.984 19.839 140.02 19.699 141.378 19.699ZM137.178 23.815C137.542 24.935 138.802 25.495 140.958 25.495H142.218C143.534 25.495 144.486 24.935 145.074 23.815V23.479C145.074 22.373 143.898 21.729 141.546 21.547H141.294C138.55 21.547 137.178 22.303 137.178 23.815ZM136.338 28.477C138.368 28.533 140.076 28.561 141.462 28.561H147.426C148.21 28.659 148.602 28.967 148.602 29.485C148.49 30.101 148.182 30.409 147.678 30.409H147.006C146.53 30.409 145.774 30.381 144.738 30.325V35.617C144.542 36.009 144.262 36.205 143.898 36.205C143.226 36.205 142.89 35.505 142.89 34.105V30.325H139.278V35.197C139.278 35.505 139.082 35.785 138.69 36.037H138.102C137.85 35.953 137.626 35.673 137.43 35.197C137.486 34.357 137.514 33.741 137.514 33.349V30.325H134.658C133.986 30.283 133.65 29.975 133.65 29.401C133.65 28.841 134.182 28.561 135.246 28.561C135.61 28.561 135.974 28.533 136.338 28.477ZM155.324 19.741C155.94 19.741 156.248 20.105 156.248 20.833V22.009L156.332 22.177L157.34 22.093H158.852C159.86 22.093 160.364 22.429 160.364 23.101C160.224 23.661 159.916 23.941 159.44 23.941H152.972C152.524 23.941 151.936 23.969 151.208 24.025C150.732 24.025 150.424 23.689 150.284 23.017C150.284 22.527 150.648 22.247 151.376 22.177H154.232C154.344 22.177 154.4 22.121 154.4 22.009V20.833C154.4 20.105 154.708 19.741 155.324 19.741ZM155.24 24.865C157.074 24.865 158.39 25.817 159.188 27.721C159.244 27.931 159.272 28.155 159.272 28.393V28.645C159.272 30.647 158.124 31.963 155.828 32.593L155.324 32.677C153.476 32.677 152.16 31.753 151.376 29.905L151.292 29.317V29.149C151.292 27.147 152.048 25.831 153.56 25.201C154.204 24.977 154.764 24.865 155.24 24.865ZM153.14 28.897V29.233C153.14 29.947 153.7 30.451 154.82 30.745L155.408 30.829C156.108 30.829 156.752 30.353 157.34 29.401L157.424 28.561V28.393C157.13 27.273 156.262 26.713 154.82 26.713C153.7 26.923 153.14 27.651 153.14 28.897ZM162.674 19.048C163.066 19.048 163.346 19.3 163.514 19.804C163.514 20.112 163.486 20.42 163.43 20.728C163.486 22.17 163.514 23.402 163.514 24.424V25.516H165.866C166.258 25.712 166.454 25.992 166.454 26.356C166.454 27.028 165.978 27.364 165.026 27.364H163.514V32.152C163.514 32.88 163.542 33.832 163.598 35.008C163.444 35.568 163.164 35.848 162.758 35.848H162.59C162.03 35.736 161.75 35.456 161.75 35.008C161.75 34.154 161.722 33.174 161.666 32.068C161.666 31.424 161.694 30.164 161.75 28.288C161.694 25.124 161.666 22.38 161.666 20.056C161.806 19.384 162.142 19.048 162.674 19.048ZM169.493 20.791H175.205C175.821 20.889 176.129 21.197 176.129 21.715V21.967C176.129 23.759 175.317 25.999 173.693 28.687C171.551 31.319 170.095 32.635 169.325 32.635C168.947 32.537 168.695 32.341 168.569 32.047V31.627C168.569 31.319 169.269 30.591 170.669 29.443C172.685 27.189 173.805 25.173 174.029 23.395C174.141 22.975 174.197 22.723 174.197 22.639H169.073C168.457 22.527 168.149 22.247 168.149 21.799V21.715C168.149 21.099 168.597 20.791 169.493 20.791ZM180.812 18.838C181.372 18.838 181.652 19.454 181.652 20.686C181.708 21.386 181.736 21.75 181.736 21.778C181.624 25.278 181.568 27.63 181.568 28.834C181.624 31.284 181.68 32.628 181.736 32.866C181.68 33.076 181.652 33.328 181.652 33.622V33.79C181.652 34.028 181.68 34.336 181.736 34.714C181.736 35.19 181.4 35.498 180.728 35.638C180.266 35.638 179.986 35.302 179.888 34.63C179.888 33.3 179.832 31.172 179.72 28.246C179.832 25.348 179.888 23.052 179.888 21.358C179.888 21.204 179.86 20.644 179.804 19.678C179.804 19.216 180.14 18.936 180.812 18.838Z" fill="white"/>
</g>
<defs>
<clipPath id="clip0_15_634">
<rect width="270" height="56" fill="white"/>
</clipPath>
<clipPath id="clip1_15_634">
<rect width="18" height="18" fill="white" transform="translate(90 19)"/>
</clipPath>
</defs>
</svg>
