<svg width="28" height="28" viewBox="0 0 28 28" fill="none" xmlns="http://www.w3.org/2000/svg">
<g id="Layer_1" clip-path="url(#clip0_400_3621)">
<path id="Vector" d="M25.2542 9.13724L25.2311 9.40429L25.4408 9.57132C26.7088 10.5815 27.4763 12.1914 27.4997 13.9184V13.9995V14.0006C27.4997 15.7532 26.7312 17.4055 25.3892 18.5353L25.1843 18.7079L25.2144 18.9742C25.3999 20.6097 24.7828 22.3195 23.5419 23.5624C22.3032 24.8019 20.5918 25.422 18.8457 25.2754L18.5731 25.2525L18.4068 25.4698C17.3706 26.8241 15.6877 27.5102 13.9635 27.4989C12.239 27.4876 10.535 26.7786 9.46787 25.4232L9.29541 25.2042L9.01843 25.2358C7.38176 25.4222 5.6769 24.8041 4.43482 23.5622C3.19634 22.3211 2.57179 20.6092 2.72274 18.8612L2.74632 18.588L2.52873 18.4213C1.17494 17.3838 0.489279 15.6991 0.500689 13.973C0.5121 12.2466 1.22098 10.5412 2.57526 9.47316L2.79381 9.3008L2.76246 9.02424C2.57705 7.38867 3.19411 5.67889 4.43498 4.43604C5.67381 3.19524 7.38112 2.56783 9.12884 2.7228L9.40291 2.7471L9.57011 2.52858C10.6063 1.17427 12.2892 0.488238 14.0134 0.499526C15.7379 0.510816 17.4419 1.21983 18.509 2.57516L18.6812 2.79376L18.9577 2.76272C20.5974 2.5786 22.3002 3.19454 23.5418 4.43597C24.7805 5.67709 25.4051 7.38908 25.2542 9.13724ZM20.8045 12.6837L20.8046 12.6838L20.8119 12.6765L20.8124 12.6759L20.9579 12.5297V12.513C21.4658 11.8682 21.4336 10.9298 20.8465 10.3222C20.207 9.66024 19.1523 9.64191 18.4892 10.2789L18.4885 10.2797L12.9396 15.6329L12.9395 15.6329L12.9327 15.6398C12.6806 15.8926 12.2597 15.9106 11.9587 15.6099L11.9524 15.6037L11.9459 15.5976L9.28664 13.1247C9.28652 13.1246 9.2864 13.1245 9.28628 13.1243C8.61443 12.4971 7.5573 12.5354 6.92965 13.2102C6.30173 13.8848 6.34271 14.9411 7.01567 15.5677L7.01594 15.568L9.63876 18.0065C11.1893 19.5522 13.7206 19.5674 15.2741 18.0187L20.8045 12.6837Z" fill="#9E4AFF" stroke="black"/>
<path id="Vector_2" d="M20.4572 12.3241L14.9236 17.6621C13.5657 19.0189 11.3435 19.0068 9.98558 17.6467L7.35618 15.2021C6.88438 14.7627 6.85647 14.0227 7.29543 13.5511C7.73549 13.0778 8.47603 13.0521 8.94509 13.4903L11.6051 15.964C12.0934 16.4515 12.8312 16.4499 13.2866 15.993L18.8354 10.6397C19.3001 10.1933 20.039 10.2065 20.4867 10.6699C20.935 11.1338 20.9213 11.8744 20.4577 12.3225V12.3236L20.4572 12.3241Z" fill="white"/>
</g>
<defs>
<clipPath id="clip0_400_3621">
<rect width="28" height="28" fill="white"/>
</clipPath>
</defs>
</svg>
