<svg xmlns="http://www.w3.org/2000/svg" width="29" height="25" viewBox="0 0 29 25" fill="none">
<path d="M26.4962 7.56984C26.1737 7.21366 25.7405 6.98262 25.3988 6.65051C25.057 6.31839 24.7827 5.92371 24.4121 5.61566C24.0415 5.30761 23.8008 4.85035 23.4109 4.56637C23.021 4.28239 22.7371 3.83476 22.3279 3.57965C21.9188 3.32455 21.2594 3.50264 20.8406 3.27642C20.4219 3.0502 20.1475 2.52555 19.7095 2.32821C19.2715 2.13087 18.7758 2.05867 18.3281 1.8902C17.8805 1.72174 17.3751 1.74099 16.913 1.60141C16.451 1.46182 15.9841 1.41369 15.5172 1.30299C15.0503 1.19228 14.6027 1.06232 14.131 0.985312C13.6593 0.9083 13.2068 0.70133 12.7303 0.662824C12.2538 0.624318 11.7773 0.605065 11.296 0.595438C10.8483 0.590625 10.4055 0.542492 9.95788 0.566559C9.51025 0.590625 9.02893 0.388468 8.59092 0.45104C8.15291 0.513613 7.70528 0.682076 7.27209 0.787968C6.8389 0.893859 6.36238 0.956432 5.94363 1.10564C5.52488 1.25485 5.26978 1.80356 4.87028 2.01053C4.47078 2.2175 3.88356 2.11643 3.51775 2.37634C3.15195 2.63626 2.99792 3.17053 2.68025 3.47857C2.36257 3.78662 2.04009 4.09467 1.77536 4.45567C1.51063 4.81666 1.21702 5.16321 1.01968 5.56271C0.822334 5.96221 0.774201 6.41947 0.658683 6.85266C0.543165 7.28586 0.673123 7.71423 0.658683 8.16187C0.644243 8.6095 0.345822 9.05713 0.422834 9.49514C0.499846 9.93314 0.547978 10.4145 0.721255 10.8236C0.894532 11.2327 1.33254 11.5119 1.59727 11.8681C1.862 12.2243 2.03527 12.6863 2.39145 12.9607C2.75726 13.2398 3.29634 13.1725 3.70066 13.3409C4.10497 13.5094 4.40821 14.0918 4.85102 14.1784C5.29384 14.2651 5.77517 14.1351 6.22761 14.1496C6.68006 14.164 7.13732 14.3084 7.58495 14.2795C8.03258 14.2506 8.48022 14.1062 8.92303 14.0485C9.36585 13.9907 9.8568 13.7693 10.29 13.6971C9.90012 14.0388 9.66909 14.5346 9.44768 14.9919C9.22627 15.4491 8.77382 15.8727 8.72569 16.3877C8.67756 16.9027 8.62943 17.4948 8.74013 17.9905C8.85083 18.4863 9.18295 18.9965 9.45249 19.4297C9.72203 19.8629 10.1167 20.2816 10.5451 20.5752C10.9735 20.8688 11.4981 21.1384 11.9987 21.2347C12.4993 21.3309 13.0865 21.3598 13.5967 21.2828C14.1069 21.2058 14.5497 20.8111 15.0118 20.5801C15.4739 20.349 16.013 20.1757 16.3643 19.8051C16.7157 19.4345 16.7157 18.7703 16.8986 18.2793C16.7446 18.7318 16.759 19.343 16.7783 19.8147C16.7975 20.2864 17.2403 20.6571 17.4088 21.0999C17.5773 21.5427 17.5869 22.0288 17.8757 22.4043C18.1645 22.7797 18.6121 22.9434 19.002 23.2081C19.3919 23.4728 19.7721 23.6317 20.2245 23.7712C20.677 23.9108 21.0813 24.0793 21.553 24.0985C22.0247 24.1178 22.5157 24.3151 22.9825 24.2189C23.4494 24.1226 23.8152 23.7424 24.2436 23.5354C24.672 23.3284 25.264 23.3573 25.6298 23.0589C25.9956 22.7605 26.2892 22.3369 26.5925 21.9711C26.8957 21.6053 27.0882 21.148 27.3193 20.7341C27.5503 20.3201 27.7717 19.8918 27.9257 19.4441" stroke="black" stroke-width="0.481325" stroke-miterlimit="10"/>
</svg>