<svg xmlns="http://www.w3.org/2000/svg" width="27" height="26" viewBox="0 0 27 26" fill="none">
<mask id="path-1-inside-1_350_763" fill="white">
<path d="M0.282227 10.0204C0.542142 9.62095 0.705792 9.13481 0.9994 8.74975C1.29301 8.36469 1.68288 8.05183 1.99574 7.69084C2.3086 7.32984 2.78512 7.11325 3.12686 6.77632C3.4686 6.43939 3.94511 6.26611 4.31091 5.95325C4.67672 5.64039 4.75374 4.98098 5.13398 4.69218C5.51423 4.40339 6.10144 4.39376 6.50094 4.12903C6.90044 3.8643 7.247 3.51775 7.66094 3.2819C8.07488 3.04605 8.43106 2.67062 8.85943 2.46365C9.28781 2.25668 9.7162 1.99676 10.159 1.81867C10.6018 1.64058 11.0832 1.51544 11.5404 1.37104C11.9977 1.22664 12.5031 1.23145 12.97 1.11594C13.4368 1.00042 13.9085 0.89934 14.3802 0.817514C14.8182 0.740502 15.2707 0.735689 15.7135 0.69237C16.1563 0.649051 16.6088 0.860834 17.0516 0.85602C17.4944 0.851207 17.9276 0.783822 18.3704 0.822328C18.8132 0.860834 19.2272 0.990791 19.6652 1.07743C20.1032 1.16407 20.6278 0.908966 21.0514 1.04855C21.475 1.18813 21.7349 1.70315 22.1344 1.90531C22.5339 2.10747 23.0585 2.07859 23.4195 2.3385C23.7805 2.59842 24.1126 2.91609 24.4255 3.22895C24.7384 3.54181 24.9838 3.92206 25.2389 4.28787C25.494 4.65367 25.8117 4.9906 25.9946 5.39973C26.1775 5.80885 26.4856 6.21317 26.5722 6.65599C26.6588 7.09881 26.3845 7.58494 26.3749 8.03258C26.3652 8.48021 26.2256 8.88933 26.1149 9.31771C26.0042 9.74609 26.0668 10.2467 25.8598 10.6365C25.6529 11.0264 25.2389 11.2767 24.9261 11.5992C24.6084 11.9265 24.4447 12.4511 24.0693 12.6822C23.6939 12.9132 23.097 12.6966 22.6686 12.8506C22.2403 13.0047 21.8889 13.2694 21.4461 13.356C21.0033 13.4427 20.5604 13.356 20.1128 13.3945C19.6652 13.433 19.2368 13.5486 18.7892 13.5582C18.3415 13.5678 17.9517 13.7074 17.5088 13.7026C17.9469 13.9818 18.3752 14.2705 18.6592 14.6893C18.9432 15.1081 18.871 15.7097 19.001 16.2103C19.1309 16.7109 19.0972 17.1633 19.0683 17.6735C19.0395 18.1837 19.0443 18.6602 18.8421 19.1271C18.64 19.594 18.38 19.9839 18.0046 20.3401C17.6292 20.6962 17.2104 20.8888 16.7291 21.062C16.2478 21.2353 15.8001 21.2979 15.2851 21.3027C14.7701 21.3075 14.2503 21.4567 13.7593 21.3027C13.2684 21.1487 12.8978 20.7684 12.4934 20.4604C12.0891 20.1523 11.5115 20.0224 11.2612 19.5651C11.4827 19.9887 11.6656 20.3015 11.7233 20.7684C11.7811 21.2353 12.0939 21.7503 11.9977 22.2172C11.9014 22.6841 11.5212 23.0932 11.2949 23.5072C11.0687 23.9211 10.8954 24.4409 10.5489 24.7634C10.2023 25.0859 9.75951 25.4036 9.33595 25.6106C8.91238 25.8175 8.38293 25.8897 7.91604 25.9764C7.44916 26.063 6.95821 25.8705 6.48169 25.8464C6.00518 25.8223 5.49498 25.9667 5.04253 25.8272C4.59009 25.6876 4.29166 25.2014 3.87772 24.9656C3.46379 24.7297 3.05466 24.542 2.69848 24.2292C2.3423 23.9163 1.95724 23.6371 1.66844 23.2665C1.37965 22.8959 1.1438 22.482 0.92239 22.0632"/>
</mask>
<path d="M0.282227 10.0204C0.542142 9.62095 0.705792 9.13481 0.9994 8.74975C1.29301 8.36469 1.68288 8.05183 1.99574 7.69084C2.3086 7.32984 2.78512 7.11325 3.12686 6.77632C3.4686 6.43939 3.94511 6.26611 4.31091 5.95325C4.67672 5.64039 4.75374 4.98098 5.13398 4.69218C5.51423 4.40339 6.10144 4.39376 6.50094 4.12903C6.90044 3.8643 7.247 3.51775 7.66094 3.2819C8.07488 3.04605 8.43106 2.67062 8.85943 2.46365C9.28781 2.25668 9.7162 1.99676 10.159 1.81867C10.6018 1.64058 11.0832 1.51544 11.5404 1.37104C11.9977 1.22664 12.5031 1.23145 12.97 1.11594C13.4368 1.00042 13.9085 0.89934 14.3802 0.817514C14.8182 0.740502 15.2707 0.735689 15.7135 0.69237C16.1563 0.649051 16.6088 0.860834 17.0516 0.85602C17.4944 0.851207 17.9276 0.783822 18.3704 0.822328C18.8132 0.860834 19.2272 0.990791 19.6652 1.07743C20.1032 1.16407 20.6278 0.908966 21.0514 1.04855C21.475 1.18813 21.7349 1.70315 22.1344 1.90531C22.5339 2.10747 23.0585 2.07859 23.4195 2.3385C23.7805 2.59842 24.1126 2.91609 24.4255 3.22895C24.7384 3.54181 24.9838 3.92206 25.2389 4.28787C25.494 4.65367 25.8117 4.9906 25.9946 5.39973C26.1775 5.80885 26.4856 6.21317 26.5722 6.65599C26.6588 7.09881 26.3845 7.58494 26.3749 8.03258C26.3652 8.48021 26.2256 8.88933 26.1149 9.31771C26.0042 9.74609 26.0668 10.2467 25.8598 10.6365C25.6529 11.0264 25.2389 11.2767 24.9261 11.5992C24.6084 11.9265 24.4447 12.4511 24.0693 12.6822C23.6939 12.9132 23.097 12.6966 22.6686 12.8506C22.2403 13.0047 21.8889 13.2694 21.4461 13.356C21.0033 13.4427 20.5604 13.356 20.1128 13.3945C19.6652 13.433 19.2368 13.5486 18.7892 13.5582C18.3415 13.5678 17.9517 13.7074 17.5088 13.7026C17.9469 13.9818 18.3752 14.2705 18.6592 14.6893C18.9432 15.1081 18.871 15.7097 19.001 16.2103C19.1309 16.7109 19.0972 17.1633 19.0683 17.6735C19.0395 18.1837 19.0443 18.6602 18.8421 19.1271C18.64 19.594 18.38 19.9839 18.0046 20.3401C17.6292 20.6962 17.2104 20.8888 16.7291 21.062C16.2478 21.2353 15.8001 21.2979 15.2851 21.3027C14.7701 21.3075 14.2503 21.4567 13.7593 21.3027C13.2684 21.1487 12.8978 20.7684 12.4934 20.4604C12.0891 20.1523 11.5115 20.0224 11.2612 19.5651C11.4827 19.9887 11.6656 20.3015 11.7233 20.7684C11.7811 21.2353 12.0939 21.7503 11.9977 22.2172C11.9014 22.6841 11.5212 23.0932 11.2949 23.5072C11.0687 23.9211 10.8954 24.4409 10.5489 24.7634C10.2023 25.0859 9.75951 25.4036 9.33595 25.6106C8.91238 25.8175 8.38293 25.8897 7.91604 25.9764C7.44916 26.063 6.95821 25.8705 6.48169 25.8464C6.00518 25.8223 5.49498 25.9667 5.04253 25.8272C4.59009 25.6876 4.29166 25.2014 3.87772 24.9656C3.46379 24.7297 3.05466 24.542 2.69848 24.2292C2.3423 23.9163 1.95724 23.6371 1.66844 23.2665C1.37965 22.8959 1.1438 22.482 0.92239 22.0632" fill="white"/>
<path d="M14.3802 0.817514L14.4625 1.29176L14.4636 1.29157L14.3802 0.817514ZM24.9261 11.5992L25.2715 11.9344L25.2715 11.9343L24.9261 11.5992ZM17.5088 13.7026L17.5141 13.2213L15.8294 13.203L17.2501 14.1085L17.5088 13.7026ZM11.2612 19.5651L11.6835 19.334L10.8347 19.7881L11.2612 19.5651ZM0.685679 10.2829C0.834255 10.0546 0.954966 9.80182 1.05845 9.59541C1.16831 9.3763 1.26535 9.19478 1.38215 9.0416L0.616648 8.4579C0.439842 8.68978 0.308257 8.94386 0.197904 9.16396C0.0811848 9.39676 -0.00988626 9.58683 -0.121226 9.75796L0.685679 10.2829ZM1.38215 9.0416C1.50688 8.87802 1.65667 8.72384 1.82891 8.55339C1.994 8.39003 2.18761 8.20438 2.35947 8.00607L1.63201 7.3756C1.49102 7.53829 1.33326 7.68956 1.15179 7.86914C0.97748 8.04164 0.78553 8.23642 0.616648 8.4579L1.38215 9.0416ZM2.35947 8.00607C2.47273 7.87539 2.62448 7.761 2.82744 7.6182C3.01455 7.48655 3.25878 7.32218 3.46478 7.11907L2.78893 6.43356C2.6532 6.56738 2.4883 6.67977 2.2735 6.8309C2.07455 6.97088 1.83162 7.14528 1.63201 7.3756L2.35947 8.00607ZM3.46478 7.11907C3.5899 6.99572 3.74813 6.89412 3.9575 6.76849C4.15166 6.652 4.40318 6.50769 4.62376 6.31904L3.99807 5.58746C3.85284 5.71167 3.68321 5.81043 3.46222 5.94303C3.25645 6.06649 3.00556 6.21999 2.78893 6.43356L3.46478 7.11907ZM4.62376 6.31904C4.902 6.08107 5.0544 5.72805 5.15287 5.51796C5.27646 5.25425 5.3461 5.13549 5.4251 5.07549L4.84286 4.30887C4.54162 4.53767 4.38263 4.89301 4.2812 5.10943C4.15465 5.37945 4.08564 5.51257 3.99807 5.58746L4.62376 6.31904ZM5.4251 5.07549C5.53357 4.9931 5.68874 4.93877 5.94563 4.86347C6.16733 4.79849 6.49358 4.71132 6.76682 4.53026L6.23507 3.7278C6.10881 3.81147 5.9417 3.86148 5.67486 3.93969C5.4432 4.00759 5.11464 4.10246 4.84286 4.30887L5.4251 5.07549ZM6.76682 4.53026C6.98822 4.38355 7.19548 4.21369 7.37444 4.07189C7.56173 3.9235 7.72695 3.79826 7.89922 3.7001L7.42266 2.86369C7.18099 3.00139 6.96596 3.16735 6.77661 3.31738C6.57894 3.474 6.41317 3.60979 6.23507 3.7278L6.76682 4.53026ZM7.89922 3.7001C8.14181 3.56188 8.3651 3.38407 8.5479 3.24371C8.74362 3.09344 8.90438 2.97649 9.06883 2.89704L8.65004 2.03025C8.38611 2.15777 8.15459 2.33203 7.96164 2.48017C7.75578 2.63823 7.59401 2.76606 7.42266 2.86369L7.89922 3.7001ZM9.06883 2.89704C9.29236 2.78904 9.52075 2.66479 9.7271 2.55672C9.94027 2.44509 10.1405 2.34489 10.3386 2.26523L9.97942 1.37211C9.73467 1.47054 9.49934 1.58934 9.28052 1.70393C9.05488 1.82209 8.85489 1.93128 8.65004 2.03025L9.06883 2.89704ZM10.3386 2.26523C10.7591 2.09613 11.195 1.98488 11.6854 1.83002L11.3955 0.912055C10.9713 1.04599 10.4446 1.18503 9.97942 1.37211L10.3386 2.26523ZM11.6854 1.83002C11.8688 1.77209 12.071 1.74136 12.3133 1.71001C12.5426 1.68035 12.8189 1.64915 13.0856 1.58317L12.8543 0.6487C12.6541 0.698236 12.4443 0.722393 12.1898 0.755309C11.9485 0.78653 11.6693 0.825584 11.3955 0.912055L11.6854 1.83002ZM13.0856 1.58317C13.5427 1.47006 14.0032 1.37143 14.4625 1.29176L14.298 0.343272C13.8138 0.427253 13.331 0.530774 12.8543 0.6487L13.0856 1.58317ZM14.4636 1.29157C14.8825 1.21791 15.2562 1.22073 15.7604 1.17141L15.6666 0.213332C15.2852 0.250647 14.754 0.263093 14.2969 0.343461L14.4636 1.29157ZM15.7604 1.17141C15.8991 1.15783 16.0556 1.18299 16.2838 1.23084C16.4871 1.27348 16.7707 1.34043 17.0568 1.33732L17.0464 0.374724C16.8897 0.376427 16.7256 0.33989 16.4813 0.288674C16.2619 0.242666 15.9707 0.183588 15.6666 0.213332L15.7604 1.17141ZM17.0568 1.33732C17.2932 1.33475 17.5354 1.31519 17.7387 1.30346C17.9521 1.29114 18.143 1.28569 18.3287 1.30184L18.4121 0.342812C18.155 0.320456 17.9079 0.329444 17.6833 0.342403C17.4486 0.355941 17.2528 0.37248 17.0464 0.374724L17.0568 1.33732ZM18.3287 1.30184C18.5178 1.31828 18.7072 1.35483 18.9138 1.40138C19.1093 1.44544 19.3456 1.50487 19.5718 1.54961L19.7586 0.605253C19.5467 0.563348 19.3571 0.514488 19.1254 0.462279C18.9048 0.412568 18.6659 0.364876 18.4121 0.342812L18.3287 1.30184ZM19.5718 1.54961C19.8915 1.61285 20.2291 1.54975 20.4345 1.51923C20.688 1.48155 20.8133 1.47689 20.9007 1.50569L21.202 0.591408C20.8659 0.480628 20.5171 0.533727 20.293 0.567039C20.0206 0.607521 19.8768 0.628646 19.7586 0.605253L19.5718 1.54961ZM20.9007 1.50569C20.986 1.53379 21.0816 1.61 21.258 1.79017C21.401 1.93631 21.6292 2.1891 21.9171 2.33478L22.3517 1.47584C22.2401 1.41936 22.1385 1.31357 21.9459 1.11676C21.7865 0.953984 21.5404 0.7029 21.202 0.591408L20.9007 1.50569ZM21.9171 2.33478C22.1842 2.46996 22.4899 2.52608 22.6864 2.56999C22.9162 2.62131 23.0469 2.66329 23.1383 2.72911L23.7008 1.94789C23.4312 1.7538 23.1191 1.68026 22.8963 1.6305C22.6404 1.57333 22.4841 1.54281 22.3517 1.47584L21.9171 2.33478ZM23.1383 2.72911C23.4656 2.96477 23.7746 3.25876 24.0851 3.5693L24.7658 2.8886C24.4507 2.57342 24.0954 2.23206 23.7008 1.94789L23.1383 2.72911ZM24.0851 3.5693C24.3595 3.84369 24.5739 4.17564 24.8441 4.56319L25.6337 4.01254C25.3938 3.66848 25.1172 3.23994 24.7658 2.8886L24.0851 3.5693ZM24.8441 4.56319C24.9736 4.74885 25.1442 4.96173 25.2571 5.11408C25.3842 5.28566 25.485 5.43922 25.5552 5.59617L26.434 5.20329C26.3213 4.95111 26.1718 4.73165 26.0306 4.54103C25.8751 4.33118 25.7594 4.19269 25.6337 4.01254L24.8441 4.56319ZM25.5552 5.59617C25.6554 5.82022 25.8013 6.0664 25.8948 6.24173C26.0006 6.44011 26.0708 6.60003 26.0998 6.74841L27.0446 6.56357C26.987 6.26912 26.8598 6.00547 26.7442 5.78872C26.6163 5.5489 26.5168 5.38836 26.434 5.20329L25.5552 5.59617ZM26.0998 6.74841C26.1203 6.85323 26.1022 6.99048 26.043 7.22432C25.9935 7.41999 25.9 7.7278 25.8936 8.02223L26.8561 8.04292C26.8594 7.88972 26.9078 7.73065 26.9762 7.46063C27.0349 7.22879 27.1107 6.90157 27.0446 6.56357L26.0998 6.74841ZM25.8936 8.02223C25.8856 8.39657 25.7718 8.72199 25.6489 9.19728L26.581 9.43814C26.6795 9.05668 26.8449 8.56385 26.8561 8.04292L25.8936 8.02223ZM25.6489 9.19728C25.5818 9.45708 25.565 9.75035 25.5448 9.94092C25.5215 10.1612 25.4917 10.3035 25.4347 10.4109L26.285 10.8622C26.435 10.5797 26.4773 10.2768 26.5021 10.0422C26.5301 9.77794 26.5374 9.60673 26.581 9.43814L25.6489 9.19728ZM25.4347 10.4109C25.3718 10.5293 25.2681 10.6437 25.1107 10.7854C24.976 10.9066 24.7504 11.089 24.5806 11.264L25.2715 11.9343C25.4146 11.7869 25.5524 11.6829 25.7547 11.5009C25.9341 11.3394 26.1409 11.1336 26.285 10.8622L25.4347 10.4109ZM24.5807 11.264C24.377 11.4738 24.2198 11.7506 24.113 11.9188C23.9855 12.1196 23.9011 12.2205 23.817 12.2723L24.3216 13.0921C24.6129 12.9128 24.7981 12.6358 24.9257 12.4347C25.074 12.2011 25.1575 12.0519 25.2715 11.9344L24.5807 11.264ZM23.817 12.2723C23.7687 12.302 23.6707 12.3206 23.4004 12.3141C23.1945 12.3091 22.8258 12.2827 22.5058 12.3977L22.8315 13.3036C22.9399 13.2646 23.0838 13.2694 23.3772 13.2765C23.6063 13.282 23.9945 13.2934 24.3216 13.0921L23.817 12.2723ZM22.5058 12.3977C22.2589 12.4865 22.0265 12.6105 21.8512 12.6963C21.6618 12.789 21.5102 12.853 21.3537 12.8837L21.5385 13.8284C21.8248 13.7724 22.0703 13.6608 22.2743 13.5609C22.4925 13.4542 22.6501 13.3688 22.8315 13.3036L22.5058 12.3977ZM21.3537 12.8837C21.1881 12.916 21.0123 12.9181 20.7943 12.9122C20.5906 12.9067 20.3302 12.8927 20.0716 12.915L20.1541 13.8741C20.343 13.8578 20.5279 13.868 20.7682 13.8745C20.9942 13.8806 21.2612 13.8827 21.5385 13.8284L21.3537 12.8837ZM20.0716 12.915C19.8256 12.9361 19.5834 12.9787 19.3753 13.0119C19.1584 13.0464 18.9673 13.0729 18.7788 13.077L18.7995 14.0394C19.0587 14.0338 19.3056 13.9978 19.5267 13.9625C19.7566 13.9259 19.9524 13.8914 20.1541 13.8741L20.0716 12.915ZM18.7788 13.077C18.5129 13.0827 18.267 13.1272 18.0665 13.1613C17.8556 13.1971 17.6869 13.2232 17.5141 13.2213L17.5036 14.1839C17.7736 14.1868 18.0212 14.1455 18.2279 14.1103C18.4449 14.0734 18.6178 14.0433 18.7995 14.0394L18.7788 13.077ZM17.2501 14.1085C17.6946 14.3918 18.0399 14.6336 18.2609 14.9595L19.0576 14.4191C18.7106 13.9075 18.1991 13.5718 17.7675 13.2967L17.2501 14.1085ZM18.2609 14.9595C18.3351 15.0689 18.3781 15.2261 18.4104 15.4797C18.4377 15.6948 18.4599 16.0415 18.5351 16.3312L19.4668 16.0893C19.4121 15.8785 19.4054 15.6741 19.3653 15.3585C19.3302 15.0814 19.2673 14.7285 19.0576 14.4191L18.2609 14.9595ZM18.5351 16.3312C18.6427 16.7457 18.6176 17.1198 18.5878 17.6463L19.5489 17.7007C19.5769 17.2069 19.6191 16.676 19.4668 16.0893L18.5351 16.3312ZM18.5878 17.6463C18.5563 18.2024 18.5597 18.5681 18.4004 18.9359L19.2838 19.3184C19.5289 18.7524 19.5226 18.165 19.5489 17.7007L18.5878 17.6463ZM18.4004 18.9359C18.2214 19.3492 17.9971 19.6837 17.6733 19.9909L18.3359 20.6892C18.7629 20.2841 19.0585 19.8388 19.2838 19.3184L18.4004 18.9359ZM17.6733 19.9909C17.3697 20.2789 17.025 20.444 16.5661 20.6092L16.8921 21.5149C17.3959 21.3336 17.8886 21.1136 18.3359 20.6892L17.6733 19.9909ZM16.5661 20.6092C16.1463 20.7603 15.7543 20.817 15.2806 20.8214L15.2896 21.784C15.846 21.7788 16.3492 21.7104 16.8921 21.5149L16.5661 20.6092ZM15.2806 20.8214C15.0077 20.824 14.6804 20.8675 14.4782 20.8822C14.2417 20.8995 14.0616 20.8931 13.9034 20.8435L13.6152 21.762C13.948 21.8664 14.2733 21.8624 14.5482 21.8423C14.8574 21.8198 15.0476 21.7863 15.2896 21.784L15.2806 20.8214ZM13.9034 20.8435C13.7321 20.7897 13.5669 20.6919 13.382 20.5537C13.2895 20.4846 13.1977 20.4099 13.0979 20.328C13.0007 20.2484 12.8945 20.1608 12.7851 20.0775L12.2017 20.8432C12.2946 20.914 12.3863 20.9895 12.4876 21.0725C12.5863 21.1535 12.6937 21.2412 12.8058 21.3249C13.03 21.4924 13.2956 21.6617 13.6152 21.762L13.9034 20.8435ZM12.7851 20.0775C12.5493 19.8978 12.2258 19.7457 12.0568 19.6499C11.8494 19.5324 11.7417 19.4405 11.6835 19.334L10.839 19.7962C11.031 20.147 11.3373 20.3487 11.5823 20.4875C11.8658 20.6481 12.0333 20.7149 12.2017 20.8432L12.7851 20.0775ZM10.8347 19.7881C11.0678 20.234 11.2007 20.4646 11.2456 20.8275L12.201 20.7093C12.1304 20.1385 11.8975 19.7433 11.6878 19.3421L10.8347 19.7881ZM11.2456 20.8275C11.2811 21.1144 11.3983 21.4341 11.4571 21.6307C11.5286 21.8699 11.5482 22.0138 11.5263 22.12L12.4691 22.3144C12.5434 21.9538 12.4547 21.6068 12.3794 21.3549C12.2914 21.0607 12.2233 20.8893 12.201 20.7093L11.2456 20.8275ZM11.5263 22.12C11.4966 22.2641 11.4174 22.4221 11.2892 22.6233C11.1801 22.7945 10.9945 23.0533 10.8726 23.2763L11.7173 23.738C11.8217 23.5471 11.9393 23.3944 12.1009 23.1408C12.2434 22.9172 12.4025 22.6372 12.4691 22.3144L11.5263 22.12ZM10.8726 23.2763C10.809 23.3927 10.7507 23.5136 10.6973 23.6253C10.6422 23.7407 10.5926 23.8459 10.5396 23.9483C10.4324 24.1554 10.3329 24.3069 10.221 24.4111L10.8768 25.1158C11.1114 24.8975 11.2718 24.6279 11.3945 24.3909C11.4564 24.2712 11.5142 24.1487 11.566 24.0401C11.6196 23.9279 11.6678 23.8286 11.7173 23.738L10.8726 23.2763ZM10.221 24.4111C9.90368 24.7063 9.49939 24.995 9.12463 25.1781L9.54726 26.043C10.0196 25.8122 10.501 25.4655 10.8768 25.1158L10.221 24.4111ZM9.12463 25.1781C8.77666 25.3481 8.33698 25.4087 7.82822 25.5031L8.00386 26.4496C8.42887 26.3707 9.04811 26.2869 9.54726 26.043L9.12463 25.1781ZM7.82822 25.5031C7.6824 25.5302 7.51327 25.5169 7.28199 25.4782C7.07716 25.4439 6.78128 25.3796 6.50597 25.3657L6.45742 26.3271C6.65862 26.3373 6.84648 26.3813 7.12296 26.4276C7.37301 26.4695 7.6828 26.5092 8.00386 26.4496L7.82822 25.5031ZM6.50597 25.3657C6.23097 25.3518 5.92766 25.3866 5.72225 25.3998C5.48869 25.4148 5.32217 25.4097 5.18443 25.3672L4.90064 26.2871C5.21533 26.3842 5.53014 26.3767 5.78393 26.3604C6.06586 26.3423 6.25591 26.3169 6.45742 26.3271L6.50597 25.3657ZM5.18443 25.3672C5.07221 25.3326 4.95449 25.2467 4.77177 25.0784C4.61638 24.9353 4.3842 24.7002 4.11601 24.5474L3.63944 25.3838C3.78519 25.4668 3.90919 25.5927 4.1196 25.7865C4.3027 25.9552 4.56041 26.1821 4.90064 26.2871L5.18443 25.3672ZM4.11601 24.5474C3.65519 24.2848 3.32343 24.1375 3.01613 23.8675L2.38083 24.5908C2.78589 24.9466 3.27238 25.1747 3.63944 25.3838L4.11601 24.5474ZM3.01613 23.8675C2.61401 23.5143 2.29969 23.2935 2.04811 22.9707L1.28877 23.5624C1.61478 23.9807 2.07059 24.3183 2.38083 24.5908L3.01613 23.8675ZM2.04811 22.9707C1.7861 22.6344 1.5661 22.2509 1.3479 21.8382L0.496882 22.2882C0.721494 22.713 0.973194 23.1574 1.28877 23.5624L2.04811 22.9707Z" fill="black" mask="url(#path-1-inside-1_350_763)"/>
</svg>