<svg width="40" height="40" viewBox="0 0 40 40" fill="none" xmlns="http://www.w3.org/2000/svg">
<path id="Vector" d="M39.5228 2.84503L2.87274 39.477C2.71763 39.6316 2.53357 39.7542 2.33108 39.8377C2.12859 39.9212 1.91163 39.964 1.69258 39.9637C1.2502 39.9631 0.826178 39.7868 0.513806 39.4737C0.201434 39.1606 0.0262961 38.7363 0.0269209 38.2941C0.0275457 37.852 0.203882 37.4282 0.517138 37.1159L8.91833 28.7222C1.93983 20.9662 -3.69595 10.5144 3.00101 3.10645L4.91681 1.44136C5.88656 0.504536 7.18626 -0.0131447 8.53487 0.000253743C9.88348 0.0136522 11.1726 0.557053 12.1235 1.51296C12.1752 1.56291 15.2621 5.57078 15.2621 5.57078C16.1776 6.5325 16.6872 7.80978 16.685 9.13725C16.6828 10.4647 16.1691 11.7403 15.2505 12.699L12.585 15.8627C13.4838 17.9117 14.6689 19.8229 16.1051 21.539L37.1672 0.495586C37.4838 0.20825 37.8988 0.0536044 38.3263 0.0636688C38.7539 0.0737331 39.1611 0.247736 39.4638 0.549651C39.7665 0.851567 39.9415 1.25827 39.9525 1.68556C39.9635 2.11284 39.8096 2.52798 39.5228 2.84503ZM34.4401 24.736C33.4781 23.8207 32.2003 23.3111 30.8722 23.313C29.5441 23.3148 28.2677 23.828 27.3083 24.746L24.1331 27.4201C23.4667 27.137 22.8254 26.8223 22.2056 26.4843C21.8941 26.3187 21.5374 26.258 21.1885 26.3114C20.8397 26.3648 20.5175 26.5294 20.2699 26.7807L15.1705 31.8776C15.0005 32.0455 14.8687 32.248 14.7839 32.4713C14.6992 32.6946 14.6635 32.9336 14.6793 33.1719C14.6951 33.4103 14.762 33.6424 14.8755 33.8526C14.989 34.0628 15.1464 34.2462 15.3371 34.3902C22.6804 39.3455 30.5152 42.7856 36.9773 36.9045L38.4933 35.1595C39.4582 34.1919 40 32.8815 40 31.5154C40 30.1493 39.4582 28.8389 38.4933 27.8714C38.4483 27.8181 34.4401 24.736 34.4401 24.736Z" fill="white"/>
</svg>
