<svg width="29" height="28" viewBox="0 0 29 28" fill="none" xmlns="http://www.w3.org/2000/svg">
<g id="envelope-heart 1" clip-path="url(#clip0_361_624)">
<path id="Vector" d="M20.457 9.72533C21.108 10.2445 21.8873 10.5047 22.6667 10.5047C23.446 10.5047 24.2253 10.2445 24.8752 9.7265C26.2763 8.61 28.5 5.9955 28.5 3.73333C28.5 1.67417 26.9297 0 25 0C24.1227 0 23.2955 0.362833 22.6667 0.940333C22.0378 0.362833 21.2107 0 20.3333 0C18.4037 0 16.8333 1.67533 16.8333 3.73333C16.8333 5.99433 19.057 8.61 20.457 9.72533ZM20.3333 2.33333C20.9797 2.33333 21.5 2.9715 21.5 3.5C21.5 4.14517 22.0215 4.66667 22.6667 4.66667C23.3118 4.66667 23.8333 4.14517 23.8333 3.5C23.8333 2.9715 24.3537 2.33333 25 2.33333C25.6463 2.33333 26.1667 2.961 26.1667 3.73333C26.1667 4.86733 24.7177 6.86933 23.4203 7.90183C22.9758 8.25533 22.3575 8.2565 21.913 7.90183C20.6168 6.86933 19.1667 4.86733 19.1667 3.7345C19.1667 2.96217 19.6893 2.33333 20.3333 2.33333ZM28.5 12.8333V22.1667C28.5 25.3832 25.8832 28 22.6667 28H6.33333C3.11683 28 0.5 25.3832 0.5 22.1667V9.33333C0.5 6.11683 3.11683 3.5 6.33333 3.5H13.3333C13.9773 3.5 14.5 4.0215 14.5 4.66667C14.5 5.31183 13.9773 5.83333 13.3333 5.83333H6.33333C4.994 5.83333 3.8425 6.5975 3.2545 7.70467L12.0243 16.4745C13.3473 17.7963 15.6527 17.7963 16.9745 16.4745L20.6752 12.7738C21.1313 12.3177 21.8687 12.3177 22.3248 12.7738C22.781 13.23 22.781 13.9673 22.3248 14.4235L18.6242 18.1242C17.524 19.2255 16.0587 19.8333 14.5 19.8333C12.9413 19.8333 11.4772 19.2255 10.3747 18.1242L2.83333 10.5828V22.1667C2.83333 24.0963 4.40367 25.6667 6.33333 25.6667H22.6667C24.5963 25.6667 26.1667 24.0963 26.1667 22.1667V12.8333C26.1667 12.1882 26.6882 11.6667 27.3333 11.6667C27.9785 11.6667 28.5 12.1882 28.5 12.8333Z" fill="#9E4AFF"/>
</g>
<defs>
<clipPath id="clip0_361_624">
<rect width="28" height="28" fill="white" transform="translate(0.5)"/>
</clipPath>
</defs>
</svg>
