<svg width="28" height="28" viewBox="0 0 28 28" fill="none" xmlns="http://www.w3.org/2000/svg">
<g id="envelope-heart 1" clip-path="url(#clip0_205_1764)">
<path id="Vector" d="M19.957 9.72533C20.608 10.2445 21.3873 10.5047 22.1667 10.5047C22.946 10.5047 23.7253 10.2445 24.3752 9.7265C25.7763 8.61 28 5.9955 28 3.73333C28 1.67417 26.4297 0 24.5 0C23.6227 0 22.7955 0.362833 22.1667 0.940333C21.5378 0.362833 20.7107 0 19.8333 0C17.9037 0 16.3333 1.67533 16.3333 3.73333C16.3333 5.99433 18.557 8.61 19.957 9.72533ZM19.8333 2.33333C20.4797 2.33333 21 2.9715 21 3.5C21 4.14517 21.5215 4.66667 22.1667 4.66667C22.8118 4.66667 23.3333 4.14517 23.3333 3.5C23.3333 2.9715 23.8537 2.33333 24.5 2.33333C25.1463 2.33333 25.6667 2.961 25.6667 3.73333C25.6667 4.86733 24.2177 6.86933 22.9203 7.90183C22.4758 8.25533 21.8575 8.2565 21.413 7.90183C20.1168 6.86933 18.6667 4.86733 18.6667 3.7345C18.6667 2.96217 19.1893 2.33333 19.8333 2.33333ZM28 12.8333V22.1667C28 25.3832 25.3832 28 22.1667 28H5.83333C2.61683 28 0 25.3832 0 22.1667V9.33333C0 6.11683 2.61683 3.5 5.83333 3.5H12.8333C13.4773 3.5 14 4.0215 14 4.66667C14 5.31183 13.4773 5.83333 12.8333 5.83333H5.83333C4.494 5.83333 3.3425 6.5975 2.7545 7.70467L11.5243 16.4745C12.8473 17.7963 15.1527 17.7963 16.4745 16.4745L20.1752 12.7738C20.6313 12.3177 21.3687 12.3177 21.8248 12.7738C22.281 13.23 22.281 13.9673 21.8248 14.4235L18.1242 18.1242C17.024 19.2255 15.5587 19.8333 14 19.8333C12.4413 19.8333 10.9772 19.2255 9.87467 18.1242L2.33333 10.5828V22.1667C2.33333 24.0963 3.90367 25.6667 5.83333 25.6667H22.1667C24.0963 25.6667 25.6667 24.0963 25.6667 22.1667V12.8333C25.6667 12.1882 26.1882 11.6667 26.8333 11.6667C27.4785 11.6667 28 12.1882 28 12.8333Z" fill="white"/>
</g>
<defs>
<clipPath id="clip0_205_1764">
<rect width="28" height="28" fill="white"/>
</clipPath>
</defs>
</svg>
