<svg width="16" height="18" viewBox="0 0 16 18" fill="none" xmlns="http://www.w3.org/2000/svg">
<path id="Vector" d="M6.125 1.71429C5.87708 1.71429 5.66927 1.63214 5.50156 1.46786C5.33385 1.30357 5.25 1.1 5.25 0.857143C5.25 0.614286 5.33385 0.410714 5.50156 0.246429C5.66927 0.0821429 5.87708 0 6.125 0H9.625C9.87292 0 10.0807 0.0821429 10.2484 0.246429C10.4161 0.410714 10.5 0.614286 10.5 0.857143C10.5 1.1 10.4161 1.30357 10.2484 1.46786C10.0807 1.63214 9.87292 1.71429 9.625 1.71429H6.125ZM7.875 11.1429C8.12292 11.1429 8.33073 11.0607 8.49844 10.8964C8.66615 10.7321 8.75 10.5286 8.75 10.2857V6.85714C8.75 6.61429 8.66615 6.41071 8.49844 6.24643C8.33073 6.08214 8.12292 6 7.875 6C7.62708 6 7.41927 6.08214 7.25156 6.24643C7.08385 6.41071 7 6.61429 7 6.85714V10.2857C7 10.5286 7.08385 10.7321 7.25156 10.8964C7.41927 11.0607 7.62708 11.1429 7.875 11.1429ZM7.875 18C6.79583 18 5.77865 17.7964 4.82344 17.3893C3.86823 16.9821 3.03333 16.4286 2.31875 15.7286C1.60417 15.0286 1.03906 14.2107 0.623437 13.275C0.207813 12.3393 0 11.3429 0 10.2857C0 9.22857 0.207813 8.23214 0.623437 7.29643C1.03906 6.36071 1.60417 5.54286 2.31875 4.84286C3.03333 4.14286 3.86823 3.58929 4.82344 3.18214C5.77865 2.775 6.79583 2.57143 7.875 2.57143C8.77917 2.57143 9.64687 2.71429 10.4781 3C11.3094 3.28571 12.0896 3.7 12.8187 4.24286L13.4312 3.64286C13.5917 3.48571 13.7958 3.40714 14.0437 3.40714C14.2917 3.40714 14.4958 3.48571 14.6562 3.64286C14.8167 3.8 14.8969 4 14.8969 4.24286C14.8969 4.48571 14.8167 4.68571 14.6562 4.84286L14.0437 5.44286C14.5979 6.15714 15.0208 6.92143 15.3125 7.73571C15.6042 8.55 15.75 9.4 15.75 10.2857C15.75 11.3429 15.5422 12.3393 15.1266 13.275C14.7109 14.2107 14.1458 15.0286 13.4312 15.7286C12.7167 16.4286 11.8818 16.9821 10.9266 17.3893C9.97135 17.7964 8.95417 18 7.875 18ZM7.875 16.2857C9.56667 16.2857 11.0104 15.7 12.2063 14.5286C13.4021 13.3571 14 11.9429 14 10.2857C14 8.62857 13.4021 7.21429 12.2063 6.04286C11.0104 4.87143 9.56667 4.28571 7.875 4.28571C6.18333 4.28571 4.73958 4.87143 3.54375 6.04286C2.34792 7.21429 1.75 8.62857 1.75 10.2857C1.75 11.9429 2.34792 13.3571 3.54375 14.5286C4.73958 15.7 6.18333 16.2857 7.875 16.2857Z" fill="#9E4AFF"/>
</svg>
