<svg width="29" height="25" viewBox="0 0 29 25" fill="none" xmlns="http://www.w3.org/2000/svg">
<path id="Vector" d="M26.4967 8.06984C26.1742 7.71366 25.741 7.48262 25.3993 7.15051C25.0575 6.81839 24.7832 6.42371 24.4126 6.11566C24.0419 5.80761 23.8013 5.35035 23.4114 5.06637C23.0215 4.78239 22.7375 4.33476 22.3284 4.07965C21.9193 3.82455 21.2599 4.00264 20.8411 3.77642C20.4224 3.5502 20.148 3.02555 19.71 2.82821C19.272 2.63087 18.7762 2.55867 18.3286 2.3902C17.881 2.22174 17.3756 2.24099 16.9135 2.10141C16.4514 1.96182 15.9846 1.91369 15.5177 1.80299C15.0508 1.69228 14.6032 1.56232 14.1315 1.48531C13.6598 1.4083 13.2073 1.20133 12.7308 1.16282C12.2543 1.12432 11.7778 1.10506 11.2965 1.09544C10.8488 1.09062 10.406 1.04249 9.95837 1.06656C9.51074 1.09062 9.02941 0.888468 8.59141 0.95104C8.1534 1.01361 7.70577 1.18208 7.27258 1.28797C6.83938 1.39386 6.36287 1.45643 5.94412 1.60564C5.52537 1.75485 5.27027 2.30356 4.87077 2.51053C4.47127 2.7175 3.88405 2.61643 3.51824 2.87634C3.15243 3.13626 2.99841 3.67053 2.68074 3.97857C2.36306 4.28662 2.04057 4.59467 1.77585 4.95567C1.51112 5.31666 1.21751 5.66321 1.02017 6.06271C0.822822 6.46221 0.774689 6.91947 0.659171 7.35266C0.543653 7.78586 0.673611 8.21423 0.659171 8.66187C0.644732 9.1095 0.34631 9.55713 0.423322 9.99514C0.500334 10.4331 0.548467 10.9145 0.721744 11.3236C0.895021 11.7327 1.33303 12.0119 1.59776 12.3681C1.86248 12.7243 2.03576 13.1863 2.39194 13.4607C2.75775 13.7398 3.29683 13.6725 3.70115 13.8409C4.10546 14.0094 4.40869 14.5918 4.85151 14.6784C5.29433 14.7651 5.77566 14.6351 6.2281 14.6496C6.68055 14.664 7.13781 14.8084 7.58544 14.7795C8.03307 14.7506 8.4807 14.6062 8.92352 14.5485C9.36634 14.4907 9.85729 14.2693 10.2905 14.1971C9.90061 14.5388 9.66958 15.0346 9.44817 15.4919C9.22676 15.9491 8.77431 16.3727 8.72618 16.8877C8.67805 17.4027 8.62991 17.9948 8.74062 18.4905C8.85132 18.9863 9.18344 19.4965 9.45298 19.9297C9.72252 20.3629 10.1172 20.7816 10.5456 21.0752C10.974 21.3688 11.4986 21.6384 11.9992 21.7347C12.4998 21.8309 13.087 21.8598 13.5972 21.7828C14.1074 21.7058 14.5502 21.3111 15.0123 21.0801C15.4744 20.849 16.0134 20.6757 16.3648 20.3051C16.7162 19.9345 16.7162 19.2703 16.8991 18.7793C16.7451 19.2318 16.7595 19.843 16.7787 20.3147C16.798 20.7864 17.2408 21.1571 17.4093 21.5999C17.5777 22.0427 17.5874 22.5288 17.8762 22.9043C18.165 23.2797 18.6126 23.4434 19.0025 23.7081C19.3923 23.9728 19.7726 24.1317 20.225 24.2712C20.6775 24.4108 21.0818 24.5793 21.5535 24.5985C22.0252 24.6178 22.5161 24.8151 22.983 24.7189C23.4499 24.6226 23.8157 24.2424 24.2441 24.0354C24.6725 23.8284 25.2645 23.8573 25.6303 23.5589C25.9961 23.2605 26.2897 22.8369 26.593 22.4711C26.8962 22.1053 27.0887 21.648 27.3198 21.2341C27.5508 20.8201 27.7722 20.3918 27.9262 19.9441" stroke="black" stroke-width="0.481325" stroke-miterlimit="10"/>
</svg>
