<svg width="27" height="26" viewBox="0 0 27 26" fill="none" xmlns="http://www.w3.org/2000/svg">
<g id="Vector">
<mask id="path-1-inside-1_288_2046" fill="white">
<path d="M0.282715 9.52045C0.54263 9.12095 0.70628 8.63481 0.999888 8.24975C1.2935 7.86469 1.68337 7.55183 1.99623 7.19084C2.30909 6.82984 2.78561 6.61325 3.12735 6.27632C3.46909 5.93939 3.9456 5.76611 4.3114 5.45325C4.67721 5.14039 4.75422 4.48098 5.13447 4.19218C5.51472 3.90339 6.10193 3.89376 6.50143 3.62903C6.90093 3.3643 7.24749 3.01775 7.66143 2.7819C8.07537 2.54605 8.43154 2.17062 8.85992 1.96365C9.2883 1.75668 9.71669 1.49676 10.1595 1.31867C10.6023 1.14058 11.0836 1.01544 11.5409 0.871038C11.9982 0.726641 12.5036 0.731454 12.9704 0.615936C13.4373 0.500418 13.909 0.39934 14.3807 0.317514C14.8187 0.240502 15.2712 0.235689 15.714 0.19237C16.1568 0.149051 16.6093 0.360834 17.0521 0.35602C17.4949 0.351207 17.9281 0.283822 18.3709 0.322328C18.8137 0.360834 19.2277 0.490791 19.6657 0.57743C20.1037 0.664068 20.6283 0.408966 21.0519 0.54855C21.4755 0.688135 21.7354 1.20315 22.1349 1.40531C22.5344 1.60747 23.059 1.57859 23.42 1.8385C23.781 2.09842 24.1131 2.41609 24.426 2.72895C24.7388 3.04181 24.9843 3.42206 25.2394 3.78787C25.4945 4.15367 25.8122 4.4906 25.9951 4.89973C26.178 5.30885 26.486 5.71317 26.5727 6.15599C26.6593 6.59881 26.385 7.08494 26.3753 7.53258C26.3657 7.98021 26.2261 8.38933 26.1154 8.81771C26.0047 9.24609 26.0673 9.74667 25.8603 10.1365C25.6534 10.5264 25.2394 10.7767 24.9266 11.0992C24.6089 11.4265 24.4452 11.9511 24.0698 12.1822C23.6944 12.4132 23.0975 12.1966 22.6691 12.3506C22.2408 12.5047 21.8894 12.7694 21.4466 12.856C21.0038 12.9427 20.5609 12.856 20.1133 12.8945C19.6657 12.933 19.2373 13.0486 18.7897 13.0582C18.342 13.0678 17.9522 13.2074 17.5093 13.2026C17.9473 13.4818 18.3757 13.7705 18.6597 14.1893C18.9437 14.6081 18.8715 15.2097 19.0014 15.7103C19.1314 16.2109 19.0977 16.6633 19.0688 17.1735C19.0399 17.6837 19.0448 18.1602 18.8426 18.6271C18.6404 19.094 18.3805 19.4839 18.0051 19.8401C17.6297 20.1962 17.2109 20.3888 16.7296 20.562C16.2483 20.7353 15.8006 20.7979 15.2856 20.8027C14.7706 20.8075 14.2508 20.9567 13.7598 20.8027C13.2689 20.6487 12.8982 20.2684 12.4939 19.9604C12.0896 19.6523 11.512 19.5224 11.2617 19.0651C11.4831 19.4887 11.6661 19.8015 11.7238 20.2684C11.7816 20.7353 12.0944 21.2503 11.9982 21.7172C11.9019 22.1841 11.5217 22.5932 11.2954 23.0072C11.0692 23.4211 10.8959 23.9409 10.5494 24.2634C10.2028 24.5859 9.76 24.9036 9.33644 25.1106C8.91287 25.3175 8.38341 25.3897 7.91653 25.4764C7.44964 25.563 6.95869 25.3705 6.48218 25.3464C6.00567 25.3223 5.49546 25.4667 5.04302 25.3272C4.59057 25.1876 4.29215 24.7014 3.87821 24.4656C3.46427 24.2297 3.05515 24.042 2.69897 23.7292C2.34279 23.4163 1.95772 23.1371 1.66893 22.7665C1.38013 22.3959 1.14429 21.982 0.922878 21.5632"/>
</mask>
<path d="M0.282715 9.52045C0.54263 9.12095 0.70628 8.63481 0.999888 8.24975C1.2935 7.86469 1.68337 7.55183 1.99623 7.19084C2.30909 6.82984 2.78561 6.61325 3.12735 6.27632C3.46909 5.93939 3.9456 5.76611 4.3114 5.45325C4.67721 5.14039 4.75422 4.48098 5.13447 4.19218C5.51472 3.90339 6.10193 3.89376 6.50143 3.62903C6.90093 3.3643 7.24749 3.01775 7.66143 2.7819C8.07537 2.54605 8.43154 2.17062 8.85992 1.96365C9.2883 1.75668 9.71669 1.49676 10.1595 1.31867C10.6023 1.14058 11.0836 1.01544 11.5409 0.871038C11.9982 0.726641 12.5036 0.731454 12.9704 0.615936C13.4373 0.500418 13.909 0.39934 14.3807 0.317514C14.8187 0.240502 15.2712 0.235689 15.714 0.19237C16.1568 0.149051 16.6093 0.360834 17.0521 0.35602C17.4949 0.351207 17.9281 0.283822 18.3709 0.322328C18.8137 0.360834 19.2277 0.490791 19.6657 0.57743C20.1037 0.664068 20.6283 0.408966 21.0519 0.54855C21.4755 0.688135 21.7354 1.20315 22.1349 1.40531C22.5344 1.60747 23.059 1.57859 23.42 1.8385C23.781 2.09842 24.1131 2.41609 24.426 2.72895C24.7388 3.04181 24.9843 3.42206 25.2394 3.78787C25.4945 4.15367 25.8122 4.4906 25.9951 4.89973C26.178 5.30885 26.486 5.71317 26.5727 6.15599C26.6593 6.59881 26.385 7.08494 26.3753 7.53258C26.3657 7.98021 26.2261 8.38933 26.1154 8.81771C26.0047 9.24609 26.0673 9.74667 25.8603 10.1365C25.6534 10.5264 25.2394 10.7767 24.9266 11.0992C24.6089 11.4265 24.4452 11.9511 24.0698 12.1822C23.6944 12.4132 23.0975 12.1966 22.6691 12.3506C22.2408 12.5047 21.8894 12.7694 21.4466 12.856C21.0038 12.9427 20.5609 12.856 20.1133 12.8945C19.6657 12.933 19.2373 13.0486 18.7897 13.0582C18.342 13.0678 17.9522 13.2074 17.5093 13.2026C17.9473 13.4818 18.3757 13.7705 18.6597 14.1893C18.9437 14.6081 18.8715 15.2097 19.0014 15.7103C19.1314 16.2109 19.0977 16.6633 19.0688 17.1735C19.0399 17.6837 19.0448 18.1602 18.8426 18.6271C18.6404 19.094 18.3805 19.4839 18.0051 19.8401C17.6297 20.1962 17.2109 20.3888 16.7296 20.562C16.2483 20.7353 15.8006 20.7979 15.2856 20.8027C14.7706 20.8075 14.2508 20.9567 13.7598 20.8027C13.2689 20.6487 12.8982 20.2684 12.4939 19.9604C12.0896 19.6523 11.512 19.5224 11.2617 19.0651C11.4831 19.4887 11.6661 19.8015 11.7238 20.2684C11.7816 20.7353 12.0944 21.2503 11.9982 21.7172C11.9019 22.1841 11.5217 22.5932 11.2954 23.0072C11.0692 23.4211 10.8959 23.9409 10.5494 24.2634C10.2028 24.5859 9.76 24.9036 9.33644 25.1106C8.91287 25.3175 8.38341 25.3897 7.91653 25.4764C7.44964 25.563 6.95869 25.3705 6.48218 25.3464C6.00567 25.3223 5.49546 25.4667 5.04302 25.3272C4.59057 25.1876 4.29215 24.7014 3.87821 24.4656C3.46427 24.2297 3.05515 24.042 2.69897 23.7292C2.34279 23.4163 1.95772 23.1371 1.66893 22.7665C1.38013 22.3959 1.14429 21.982 0.922878 21.5632" fill="white"/>
<path d="M14.3807 0.317514L14.463 0.791758L14.4641 0.791568L14.3807 0.317514ZM24.9266 11.0992L25.2719 11.4344L25.272 11.4343L24.9266 11.0992ZM17.5093 13.2026L17.5146 12.7213L15.8299 12.703L17.2506 13.6085L17.5093 13.2026ZM11.2617 19.0651L11.6839 18.834L10.8352 19.2881L11.2617 19.0651ZM0.686168 9.78294C0.834743 9.55457 0.955455 9.30182 1.05894 9.09541C1.16879 8.8763 1.26584 8.69478 1.38264 8.5416L0.617137 7.9579C0.440331 8.18978 0.308745 8.44386 0.198392 8.66396C0.081673 8.89676 -0.00939798 9.08683 -0.120738 9.25796L0.686168 9.78294ZM1.38264 8.5416C1.50737 8.37802 1.65716 8.22384 1.8294 8.05339C1.99448 7.89003 2.1881 7.70438 2.35996 7.50607L1.6325 6.8756C1.4915 7.03829 1.33375 7.18956 1.15228 7.36914C0.977968 7.54164 0.786018 7.73642 0.617137 7.9579L1.38264 8.5416ZM2.35996 7.50607C2.47322 7.37539 2.62497 7.261 2.82793 7.1182C3.01504 6.98655 3.25926 6.82218 3.46527 6.61907L2.78942 5.93356C2.65369 6.06738 2.48879 6.17977 2.27399 6.3309C2.07504 6.47088 1.83211 6.64528 1.6325 6.8756L2.35996 7.50607ZM3.46527 6.61907C3.59038 6.49572 3.74862 6.39412 3.95799 6.26849C4.15214 6.152 4.40367 6.00769 4.62425 5.81904L3.99856 5.08746C3.85333 5.21167 3.6837 5.31043 3.46271 5.44303C3.25694 5.56649 3.00605 5.71998 2.78942 5.93356L3.46527 6.61907ZM4.62425 5.81904C4.90249 5.58107 5.05489 5.22805 5.15335 5.01796C5.27695 4.75425 5.34659 4.63549 5.42559 4.57549L4.84335 3.80887C4.54211 4.03767 4.38312 4.39301 4.28169 4.60943C4.15514 4.87945 4.08612 5.01257 3.99856 5.08746L4.62425 5.81904ZM5.42559 4.57549C5.53406 4.4931 5.68923 4.43877 5.94612 4.36347C6.16782 4.29849 6.49407 4.21132 6.76731 4.03026L6.23556 3.2278C6.1093 3.31147 5.94219 3.36148 5.67535 3.43969C5.44369 3.50759 5.11513 3.60246 4.84335 3.80887L5.42559 4.57549ZM6.76731 4.03026C6.98871 3.88355 7.19596 3.71369 7.37493 3.57189C7.56222 3.4235 7.72744 3.29826 7.89971 3.2001L7.42315 2.36369C7.18148 2.50139 6.96645 2.66735 6.7771 2.81738C6.57943 2.974 6.41366 3.10979 6.23556 3.2278L6.76731 4.03026ZM7.89971 3.2001C8.1423 3.06188 8.36559 2.88407 8.54839 2.74371C8.74411 2.59344 8.90487 2.47649 9.06931 2.39704L8.65053 1.53025C8.3866 1.65777 8.15508 1.83203 7.96213 1.98017C7.75627 2.13823 7.5945 2.26606 7.42315 2.36369L7.89971 3.2001ZM9.06931 2.39704C9.29284 2.28904 9.52124 2.16479 9.72759 2.05672C9.94076 1.94509 10.141 1.84489 10.3391 1.76523L9.97991 0.872107C9.73516 0.97054 9.49983 1.08934 9.28101 1.20393C9.05537 1.32209 8.85538 1.43128 8.65053 1.53025L9.06931 2.39704ZM10.3391 1.76523C10.7596 1.59613 11.1955 1.48488 11.6858 1.33002L11.396 0.412055C10.9718 0.54599 10.4451 0.685032 9.97991 0.872107L10.3391 1.76523ZM11.6858 1.33002C11.8693 1.27209 12.0714 1.24136 12.3138 1.21001C12.5431 1.18035 12.8194 1.14915 13.086 1.08317L12.8548 0.1487C12.6546 0.198236 12.4448 0.222393 12.1903 0.255309C11.949 0.28653 11.6698 0.325584 11.396 0.412055L11.6858 1.33002ZM13.086 1.08317C13.5432 0.970062 14.0037 0.871426 14.463 0.791757L14.2985 -0.156728C13.8143 -0.0727465 13.3315 0.0307736 12.8548 0.1487L13.086 1.08317ZM14.4641 0.791568C14.883 0.717911 15.2567 0.720731 15.7609 0.671408L15.6671 -0.286668C15.2857 -0.249353 14.7545 -0.236907 14.2974 -0.156539L14.4641 0.791568ZM15.7609 0.671408C15.8996 0.657832 16.0561 0.682986 16.2843 0.730836C16.4876 0.773479 16.7712 0.840427 17.0573 0.837317L17.0468 -0.125276C16.8902 -0.123573 16.7261 -0.16011 16.4818 -0.211326C16.2624 -0.257334 15.9712 -0.316412 15.6671 -0.286668L15.7609 0.671408ZM17.0573 0.837317C17.2937 0.834747 17.5359 0.815187 17.7392 0.803455C17.9526 0.791145 18.1435 0.785693 18.3292 0.801843L18.4126 -0.157188C18.1555 -0.179544 17.9084 -0.170556 17.6838 -0.157597C17.4491 -0.144059 17.2533 -0.12752 17.0468 -0.125276L17.0573 0.837317ZM18.3292 0.801843C18.5183 0.818285 18.7077 0.854825 18.9143 0.901379C19.1098 0.945435 19.3461 1.00487 19.5723 1.04961L19.7591 0.105253C19.5472 0.0633485 19.3576 0.0144876 19.1259 -0.037721C18.9053 -0.0874324 18.6663 -0.135124 18.4126 -0.157188L18.3292 0.801843ZM19.5723 1.04961C19.892 1.11285 20.2296 1.04975 20.435 1.01923C20.6885 0.981548 20.8138 0.976888 20.9012 1.00569L21.2025 0.0914085C20.8664 -0.0193721 20.5176 0.0337269 20.2934 0.0670393C20.0211 0.107521 19.8773 0.128646 19.7591 0.105253L19.5723 1.04961ZM20.9012 1.00569C20.9865 1.03379 21.0821 1.11 21.2585 1.29017C21.4015 1.43631 21.6297 1.6891 21.9175 1.83478L22.3522 0.975839C22.2406 0.919364 22.139 0.813567 21.9464 0.616757C21.787 0.453984 21.5409 0.2029 21.2025 0.0914085L20.9012 1.00569ZM21.9175 1.83478C22.1847 1.96996 22.4904 2.02608 22.6869 2.06999C22.9167 2.12131 23.0473 2.16329 23.1388 2.22911L23.7012 1.44789C23.4317 1.2538 23.1195 1.18026 22.8968 1.1305C22.6409 1.07333 22.4845 1.04281 22.3522 0.975839L21.9175 1.83478ZM23.1388 2.22911C23.4661 2.46477 23.7751 2.75876 24.0856 3.0693L24.7663 2.3886C24.4511 2.07342 24.0959 1.73206 23.7012 1.44789L23.1388 2.22911ZM24.0856 3.0693C24.36 3.34369 24.5744 3.67564 24.8446 4.06319L25.6342 3.51254C25.3943 3.16848 25.1177 2.73994 24.7663 2.3886L24.0856 3.0693ZM24.8446 4.06319C24.9741 4.24885 25.1447 4.46173 25.2576 4.61408C25.3847 4.78566 25.4855 4.93922 25.5557 5.09617L26.4345 4.70329C26.3218 4.45111 26.1723 4.23165 26.0311 4.04103C25.8756 3.83118 25.7599 3.69269 25.6342 3.51254L24.8446 4.06319ZM25.5557 5.09617C25.6558 5.32022 25.8018 5.5664 25.8953 5.74173C26.0011 5.94011 26.0713 6.10003 26.1003 6.24841L27.0451 6.06357C26.9874 5.76912 26.8603 5.50547 26.7447 5.28872C26.6168 5.0489 26.5172 4.88836 26.4345 4.70329L25.5557 5.09617ZM26.1003 6.24841C26.1208 6.35323 26.1027 6.49048 26.0435 6.72432C25.994 6.91999 25.9005 7.2278 25.8941 7.52223L26.8566 7.54293C26.8599 7.38972 26.9083 7.23065 26.9767 6.96063C27.0354 6.72879 27.1112 6.40157 27.0451 6.06357L26.1003 6.24841ZM25.8941 7.52223C25.8861 7.89657 25.7722 8.22199 25.6494 8.69728L26.5814 8.93814C26.68 8.55668 26.8454 8.06385 26.8566 7.54293L25.8941 7.52223ZM25.6494 8.69728C25.5823 8.95708 25.5655 9.25035 25.5453 9.44092C25.522 9.66119 25.4922 9.80355 25.4352 9.91086L26.2855 10.3622C26.4355 10.0797 26.4778 9.7768 26.5026 9.54222C26.5306 9.27794 26.5379 9.10673 26.5814 8.93814L25.6494 8.69728ZM25.4352 9.91086C25.3723 10.0293 25.2686 10.1437 25.1112 10.2854C24.9765 10.4066 24.7509 10.589 24.5811 10.764L25.272 11.4343C25.4151 11.2869 25.5529 11.1829 25.7551 11.0009C25.9346 10.8394 26.1414 10.6336 26.2855 10.3622L25.4352 9.91086ZM24.5812 10.764C24.3775 10.9738 24.2202 11.2506 24.1135 11.4188C23.986 11.6196 23.9016 11.7205 23.8175 11.7723L24.3221 12.5921C24.6134 12.4128 24.7986 12.1358 24.9262 11.9347C25.0745 11.7011 25.158 11.5519 25.2719 11.4344L24.5812 10.764ZM23.8175 11.7723C23.7692 11.802 23.6712 11.8206 23.4009 11.8141C23.195 11.8091 22.8262 11.7827 22.5063 11.8977L22.832 12.8036C22.9404 12.7646 23.0843 12.7694 23.3777 12.7765C23.6068 12.782 23.995 12.7934 24.3221 12.5921L23.8175 11.7723ZM22.5063 11.8977C22.2594 11.9865 22.027 12.1105 21.8517 12.1963C21.6622 12.289 21.5106 12.353 21.3542 12.3837L21.539 13.3284C21.8253 13.2724 22.0708 13.1608 22.2748 13.0609C22.493 12.9542 22.6505 12.8688 22.832 12.8036L22.5063 11.8977ZM21.3542 12.3837C21.1886 12.416 21.0128 12.4181 20.7948 12.4122C20.5911 12.4067 20.3307 12.3927 20.0721 12.415L20.1546 13.3741C20.3435 13.3578 20.5283 13.368 20.7687 13.3745C20.9947 13.3806 21.2617 13.3827 21.539 13.3284L21.3542 12.3837ZM20.0721 12.415C19.8261 12.4361 19.5839 12.4787 19.3757 12.5119C19.1589 12.5464 18.9677 12.5729 18.7793 12.577L18.8 13.5394C19.0592 13.5338 19.3061 13.4978 19.5272 13.4625C19.7571 13.4259 19.9529 13.3914 20.1546 13.3741L20.0721 12.415ZM18.7793 12.577C18.5134 12.5827 18.2675 12.6272 18.067 12.6613C17.8561 12.6971 17.6874 12.7232 17.5146 12.7213L17.5041 13.6839C17.7741 13.6868 18.0217 13.6455 18.2284 13.6103C18.4454 13.5734 18.6183 13.5433 18.8 13.5394L18.7793 12.577ZM17.2506 13.6085C17.6951 13.8918 18.0404 14.1336 18.2613 14.4595L19.0581 13.9191C18.7111 13.4075 18.1996 13.0718 17.768 12.7967L17.2506 13.6085ZM18.2613 14.4595C18.3356 14.5689 18.3786 14.7261 18.4108 14.9797C18.4382 15.1948 18.4603 15.5415 18.5356 15.8312L19.4673 15.5893C19.4126 15.3785 19.4059 15.1741 19.3658 14.8585C19.3306 14.5814 19.2678 14.2285 19.0581 13.9191L18.2613 14.4595ZM18.5356 15.8312C18.6432 16.2457 18.6181 16.6198 18.5883 17.1463L19.5494 17.2007C19.5773 16.7069 19.6196 16.176 19.4673 15.5893L18.5356 15.8312ZM18.5883 17.1463C18.5568 17.7024 18.5602 18.0681 18.4009 18.4359L19.2843 18.8184C19.5294 18.2524 19.5231 17.665 19.5494 17.2007L18.5883 17.1463ZM18.4009 18.4359C18.2219 18.8492 17.9976 19.1837 17.6738 19.4909L18.3364 20.1892C18.7634 19.7841 19.059 19.3388 19.2843 18.8184L18.4009 18.4359ZM17.6738 19.4909C17.3702 19.7789 17.0254 19.944 16.5666 20.1092L16.8926 21.0149C17.3964 20.8336 17.8891 20.6136 18.3364 20.1892L17.6738 19.4909ZM16.5666 20.1092C16.1468 20.2603 15.7548 20.317 15.2811 20.3214L15.2901 21.284C15.8465 21.2788 16.3497 21.2104 16.8926 21.0149L16.5666 20.1092ZM15.2811 20.3214C15.0082 20.324 14.6809 20.3675 14.4787 20.3822C14.2422 20.3995 14.0621 20.3931 13.9039 20.3435L13.6157 21.262C13.9485 21.3664 14.2738 21.3624 14.5487 21.3423C14.8579 21.3198 15.0481 21.2863 15.2901 21.284L15.2811 20.3214ZM13.9039 20.3435C13.7326 20.2897 13.5674 20.1919 13.3824 20.0537C13.29 19.9846 13.1982 19.9099 13.0984 19.828C13.0012 19.7484 12.895 19.6608 12.7856 19.5775L12.2022 20.3432C12.2951 20.414 12.3868 20.4895 12.4881 20.5725C12.5868 20.6535 12.6942 20.7412 12.8063 20.8249C13.0305 20.9924 13.2961 21.1617 13.6157 21.262L13.9039 20.3435ZM12.7856 19.5775C12.5498 19.3978 12.2263 19.2457 12.0573 19.1499C11.8499 19.0324 11.7422 18.9405 11.6839 18.834L10.8395 19.2962C11.0315 19.647 11.3378 19.8487 11.5828 19.9875C11.8663 20.1481 12.0337 20.2149 12.2022 20.3432L12.7856 19.5775ZM10.8352 19.2881C11.0683 19.734 11.2012 19.9646 11.2461 20.3275L12.2015 20.2093C12.1309 19.6385 11.898 19.2433 11.6883 18.8421L10.8352 19.2881ZM11.2461 20.3275C11.2816 20.6144 11.3988 20.9341 11.4576 21.1307C11.5291 21.3699 11.5487 21.5138 11.5268 21.62L12.4696 21.8144C12.5439 21.4538 12.4552 21.1068 12.3799 20.8549C12.2919 20.5607 12.2238 20.3893 12.2015 20.2093L11.2461 20.3275ZM11.5268 21.62C11.4971 21.7641 11.4179 21.9221 11.2896 22.1233C11.1806 22.2945 10.9949 22.5533 10.8731 22.7763L11.7178 23.238C11.8222 23.0471 11.9397 22.8944 12.1014 22.6408C12.2439 22.4172 12.403 22.1372 12.4696 21.8144L11.5268 21.62ZM10.8731 22.7763C10.8095 22.8927 10.7512 23.0136 10.6978 23.1253C10.6427 23.2407 10.5931 23.3459 10.5401 23.4483C10.4329 23.6554 10.3334 23.8069 10.2215 23.9111L10.8773 24.6158C11.1119 24.3975 11.2723 24.1279 11.395 23.8909C11.4569 23.7712 11.5147 23.6487 11.5665 23.5401C11.6201 23.4279 11.6683 23.3286 11.7178 23.238L10.8731 22.7763ZM10.2215 23.9111C9.90417 24.2063 9.49988 24.495 9.12512 24.6781L9.54775 25.543C10.0201 25.3122 10.5015 24.9655 10.8773 24.6158L10.2215 23.9111ZM9.12512 24.6781C8.77714 24.8481 8.33747 24.9087 7.82871 25.0031L8.00435 25.9496C8.42936 25.8707 9.0486 25.7869 9.54775 25.543L9.12512 24.6781ZM7.82871 25.0031C7.68289 25.0302 7.51376 25.0169 7.28248 24.9782C7.07764 24.9439 6.78177 24.8796 6.50646 24.8657L6.4579 25.8271C6.65911 25.8373 6.84696 25.8813 7.12345 25.9276C7.3735 25.9695 7.68328 26.0092 8.00435 25.9496L7.82871 25.0031ZM6.50646 24.8657C6.23146 24.8518 5.92815 24.8866 5.72274 24.8998C5.48918 24.9148 5.32266 24.9097 5.18491 24.8672L4.90112 25.7871C5.21582 25.8842 5.53063 25.8767 5.78441 25.8604C6.06634 25.8423 6.2564 25.8169 6.4579 25.8271L6.50646 24.8657ZM5.18491 24.8672C5.0727 24.8326 4.95497 24.7467 4.77226 24.5784C4.61687 24.4353 4.38469 24.2002 4.11649 24.0474L3.63993 24.8838C3.78568 24.9668 3.90968 25.0927 4.12009 25.2865C4.30318 25.4552 4.5609 25.6821 4.90112 25.7871L5.18491 24.8672ZM4.11649 24.0474C3.65568 23.7848 3.32392 23.6375 3.01661 23.3675L2.38132 24.0908C2.78638 24.4466 3.27287 24.6747 3.63993 24.8838L4.11649 24.0474ZM3.01661 23.3675C2.61449 23.0143 2.30018 22.7935 2.0486 22.4707L1.28926 23.0624C1.61527 23.4807 2.07108 23.8183 2.38132 24.0908L3.01661 23.3675ZM2.0486 22.4707C1.78659 22.1344 1.56659 21.7509 1.34839 21.3382L0.49737 21.7882C0.721983 22.213 0.973682 22.6574 1.28926 23.0624L2.0486 22.4707Z" fill="black" mask="url(#path-1-inside-1_288_2046)"/>
</g>
</svg>
