<svg width="361" height="178" viewBox="0 0 361 178" fill="none" xmlns="http://www.w3.org/2000/svg">
<rect width="361" height="178" rx="20" fill="white"/>
<path d="M341 20L328 32.9999" stroke="#CBCCD1" stroke-width="3" stroke-linecap="round"/>
<path d="M341 33L328 20" stroke="#CBCCD1" stroke-width="3" stroke-linecap="round"/>
<path d="M126.09 37.426C126.618 37.426 126.882 38.002 126.882 39.154C126.93 40.75 126.954 42.142 126.954 43.33V45.346C128.358 45.346 130.23 45.202 132.57 44.914C132.75 44.914 132.966 45.082 133.218 45.418V45.778C133.218 46.402 132.258 46.714 130.338 46.714C129.33 46.81 128.154 46.882 126.81 46.93C125.898 46.93 125.442 46.474 125.442 45.562C125.394 44.506 125.346 42.01 125.298 38.074C125.454 37.642 125.718 37.426 126.09 37.426ZM135.576 36.184C135.912 36.184 136.152 36.4 136.296 36.832C136.296 37.096 136.272 37.36 136.224 37.624C136.272 38.86 136.296 39.916 136.296 40.792V41.728H138.312C138.648 41.896 138.816 42.136 138.816 42.448C138.816 43.024 138.408 43.312 137.592 43.312H136.296V47.416C136.296 48.04 136.32 48.856 136.368 49.864C136.236 50.344 135.996 50.584 135.648 50.584H135.504C135.024 50.488 134.784 50.248 134.784 49.864C134.784 49.132 134.76 48.292 134.712 47.344C134.712 46.792 134.736 45.712 134.784 44.104C134.736 41.392 134.712 39.04 134.712 37.048C134.832 36.472 135.12 36.184 135.576 36.184ZM150.623 37.948C151.151 37.948 151.415 38.164 151.415 38.596V38.956C151.247 39.292 151.007 39.46 150.695 39.46C150.239 39.46 149.783 39.484 149.327 39.532C149.159 39.532 148.943 39.508 148.679 39.46C147.575 39.508 146.567 39.532 145.655 39.532H143.279V40.324C143.279 41.056 143.303 42.184 143.351 43.708C145.571 43.756 147.299 43.78 148.535 43.78H150.983C151.415 43.78 151.655 44.068 151.703 44.644C151.703 45.064 151.295 45.304 150.479 45.364H150.263C144.839 45.364 142.127 45.268 142.127 45.076C141.923 44.872 141.803 44.512 141.767 43.996C141.719 41.428 141.695 39.892 141.695 39.388C141.695 38.428 142.079 37.948 142.847 37.948H150.623ZM146.735 44.86C147.215 44.98 147.455 45.244 147.455 45.652L147.473 48.262H150.713C150.989 48.262 151.373 48.286 151.865 48.334C151.949 48.286 152.069 48.262 152.225 48.262C152.705 48.394 152.945 48.634 152.945 48.982V49.126C152.837 49.606 152.597 49.846 152.225 49.846C146.585 49.798 142.913 49.774 141.209 49.774C140.537 49.774 140.201 49.534 140.201 49.054V48.91C140.201 48.526 140.465 48.286 140.993 48.19H145.889C145.889 48.094 145.895 47.638 145.907 46.822C145.883 46.186 145.871 45.796 145.871 45.652C145.871 45.256 146.159 44.992 146.735 44.86ZM165.745 36.922H165.889C166.309 36.922 166.549 37.234 166.609 37.858V38.506C166.765 38.506 167.173 38.53 167.833 38.578C168.013 38.578 168.685 38.554 169.849 38.506C170.713 38.506 171.145 38.746 171.145 39.226V39.442C171.145 39.874 170.881 40.09 170.353 40.09H166.609V40.162C166.609 41.122 167.329 42.13 168.769 43.186C170.545 43.882 171.433 44.362 171.433 44.626C171.433 44.65 171.457 44.746 171.505 44.914C171.385 45.394 171.121 45.634 170.713 45.634C169.093 45.202 167.773 44.506 166.753 43.546C166.153 43.006 165.841 42.622 165.817 42.394C164.689 43.906 163.033 44.986 160.849 45.634C160.453 45.634 160.213 45.346 160.129 44.77C160.129 44.398 160.897 43.918 162.433 43.33C164.113 42.226 164.953 41.194 164.953 40.234V40.09C164.641 40.09 163.393 40.114 161.209 40.162C160.861 40.162 160.645 39.874 160.561 39.298V39.226C160.753 38.794 161.089 38.578 161.569 38.578H162.361C162.925 38.578 163.813 38.554 165.025 38.506V37.786C165.073 37.21 165.313 36.922 165.745 36.922ZM165.853 44.86C166.333 44.98 166.573 45.244 166.573 45.652L166.591 48.262H169.831C170.107 48.262 170.491 48.286 170.983 48.334C171.067 48.286 171.187 48.262 171.343 48.262C171.823 48.394 172.063 48.634 172.063 48.982V49.126C171.955 49.606 171.715 49.846 171.343 49.846C165.703 49.798 162.031 49.774 160.327 49.774C159.655 49.774 159.319 49.534 159.319 49.054V48.91C159.319 48.526 159.583 48.286 160.111 48.19H165.007C165.007 48.094 165.013 47.638 165.025 46.822C165.001 46.186 164.989 45.796 164.989 45.652C164.989 45.256 165.277 44.992 165.853 44.86ZM183.6 35.986C184.14 35.986 184.5 36.418 184.68 37.282C184.536 39.874 184.464 41.434 184.464 41.962C184.464 42.358 184.2 42.598 183.672 42.682C183.288 42.682 183.048 42.418 182.952 41.89V40.306C179.376 40.354 177.024 40.402 175.896 40.45C175.488 40.45 175.224 40.162 175.104 39.586C175.104 39.25 175.344 39.01 175.824 38.866C177.396 38.818 178.62 38.794 179.496 38.794H182.952C183.048 38.794 183.096 38.746 183.096 38.65V37.57H178.2C177.9 37.57 177.54 37.594 177.12 37.642C175.872 37.642 175.248 37.402 175.248 36.922V36.562C175.416 36.226 175.656 36.058 175.968 36.058C177.864 36.058 180.408 36.034 183.6 35.986ZM179.712 40.594H180.072C180.408 40.786 180.576 41.074 180.576 41.458V42.682H181.152C181.872 42.682 183.048 42.73 184.68 42.826L185.4 42.754C185.832 42.898 186.048 43.138 186.048 43.474V43.618C185.94 44.098 185.7 44.338 185.328 44.338C184.86 44.338 182.364 44.29 177.84 44.194C175.92 44.242 174.816 44.266 174.528 44.266C173.808 44.182 173.448 43.918 173.448 43.474V43.402C173.544 42.922 173.784 42.682 174.168 42.682C175.044 42.682 176.676 42.658 179.064 42.61L178.992 42.466V41.89C178.992 41.026 179.232 40.594 179.712 40.594ZM175.662 45.13H180.486C182.982 45.13 184.23 45.25 184.23 45.49C184.374 45.862 184.446 46.462 184.446 47.29C184.446 48.442 183.942 49.018 182.934 49.018C181.758 49.066 179.598 49.114 176.454 49.162V49.99H179.694C180.534 49.99 181.398 50.014 182.286 50.062C182.502 50.014 183.03 49.99 183.87 49.99C184.326 49.99 184.566 50.302 184.59 50.926C184.446 51.358 184.134 51.574 183.654 51.574H175.806C175.182 51.466 174.87 51.226 174.87 50.854L174.942 50.35V50.206C174.942 49.978 174.918 49.678 174.87 49.306C174.87 48.154 175.278 47.578 176.094 47.578C176.286 47.578 176.382 47.602 176.382 47.65C176.43 47.65 176.622 47.626 176.958 47.578C180.006 47.53 181.806 47.506 182.358 47.506L182.862 47.434V46.714C180.642 46.666 178.914 46.642 177.678 46.642H175.878C175.77 46.642 175.674 46.666 175.59 46.714C175.266 46.714 175.002 46.522 174.798 46.138V45.85C174.798 45.418 175.086 45.178 175.662 45.13ZM192.62 37.21C193.34 37.342 193.7 37.678 193.7 38.218C193.7 40.33 193.484 41.386 193.052 41.386C193.052 41.494 192.86 41.59 192.476 41.674C191.06 41.722 189.908 41.746 189.02 41.746V43.15H189.164C190.124 43.15 191.63 43.132 193.682 43.096C194.066 43.3 194.258 43.54 194.258 43.816C194.258 44.392 193.634 44.68 192.386 44.68C191.198 44.716 189.884 44.734 188.444 44.734C187.82 44.614 187.508 44.35 187.508 43.942C187.46 42.37 187.436 41.302 187.436 40.738C187.58 40.354 187.868 40.162 188.3 40.162H190.964C191.204 40.162 191.564 40.138 192.044 40.09V40.018C192.092 39.274 192.116 38.866 192.116 38.794H192.044C191.516 38.842 191.06 38.866 190.676 38.866H188.372C187.796 38.818 187.508 38.578 187.508 38.146V38.002C187.508 37.57 187.796 37.33 188.372 37.282H191.612C191.876 37.282 192.212 37.258 192.62 37.21ZM197.462 36.418H197.606C198.026 36.418 198.266 36.73 198.326 37.354V39.37C198.326 40.57 198.35 42.274 198.398 44.482C198.314 44.698 198.146 44.89 197.894 45.058H197.39C196.958 45.058 196.742 43.954 196.742 41.746V40.45L196.814 40.018C196.766 39.706 196.742 39.394 196.742 39.082V37.282C196.79 36.706 197.03 36.418 197.462 36.418ZM193.592 45.454C194.084 45.454 194.396 45.904 194.528 46.804C194.996 48.076 196.1 49.126 197.84 49.954C198.608 50.062 198.992 50.386 198.992 50.926C198.872 51.43 198.608 51.682 198.2 51.682C197.228 51.682 195.884 50.878 194.168 49.27C193.784 48.79 193.592 48.49 193.592 48.37H193.52C192.752 49.726 191.336 50.806 189.272 51.61C189.2 51.658 189.056 51.682 188.84 51.682C188.516 51.682 188.3 51.43 188.192 50.926V50.854C188.192 50.386 188.744 49.984 189.848 49.648C191.384 48.676 192.32 47.704 192.656 46.732C192.824 45.88 193.136 45.454 193.592 45.454ZM211.064 37.048H211.208C211.592 37.048 211.832 37.312 211.928 37.84V43.348C211.928 44.02 211.616 44.356 210.992 44.356H208.256C206.336 44.356 205.376 44.044 205.376 43.42V38.272C205.376 37.888 205.544 37.6 205.88 37.408H206.24C206.672 37.468 206.888 37.684 206.888 38.056V38.488L206.96 39.352H210.416V39.28C210.416 39.028 210.392 38.548 210.344 37.84C210.44 37.312 210.68 37.048 211.064 37.048ZM207.104 40.936H206.888L206.96 42.34V42.772H210.416L210.344 42.052V40.936H210.272C209.708 40.936 209.252 40.912 208.904 40.864C208.424 40.912 207.824 40.936 207.104 40.936ZM215.006 36.4C215.306 36.4 215.546 36.616 215.726 37.048C215.774 38.224 215.798 39.16 215.798 39.856V39.928H217.382C217.85 39.928 218.114 40.216 218.174 40.792C218.006 41.224 217.766 41.44 217.454 41.44H215.726V41.512C215.726 41.8 215.75 41.944 215.798 41.944L215.726 42.664V44.176C215.726 44.284 215.75 44.38 215.798 44.464C215.666 45.04 215.378 45.328 214.934 45.328C214.454 45.196 214.214 44.932 214.214 44.536V38.992C214.214 38.512 214.19 37.936 214.142 37.264C214.274 36.688 214.562 36.4 215.006 36.4ZM210.38 45.382C212.672 45.43 214.352 45.454 215.42 45.454C215.9 45.562 216.14 45.802 216.14 46.174V46.246C216.14 46.69 215.804 46.954 215.132 47.038C212.804 46.99 210.884 46.966 209.372 46.966H208.292L208.148 47.038L208.22 47.182V47.47C208.22 47.806 208.244 48.574 208.292 49.774H211.964C213.176 49.774 214.352 49.726 215.492 49.63C215.972 49.798 216.212 50.086 216.212 50.494C216.212 51.022 215.552 51.286 214.232 51.286C213.404 51.334 212.84 51.358 212.54 51.358C210.284 51.31 208.556 51.286 207.356 51.286C207.128 51.286 206.912 51.07 206.708 50.638C206.756 50.386 206.78 50.242 206.78 50.206C206.684 49.03 206.636 48.094 206.636 47.398V46.246C206.636 45.874 206.852 45.61 207.284 45.454C208.028 45.454 209.06 45.43 210.38 45.382ZM220.71 37.678H225.606C226.134 37.762 226.398 38.026 226.398 38.47V38.686C226.398 40.222 225.702 42.142 224.31 44.446C222.474 46.702 221.226 47.83 220.566 47.83C220.242 47.746 220.026 47.578 219.918 47.326V46.966C219.918 46.702 220.518 46.078 221.718 45.094C223.446 43.162 224.406 41.434 224.598 39.91C224.694 39.55 224.742 39.334 224.742 39.262H220.35C219.822 39.166 219.558 38.926 219.558 38.542V38.47C219.558 37.942 219.942 37.678 220.71 37.678ZM230.412 36.004C230.892 36.004 231.132 36.532 231.132 37.588C231.18 38.188 231.204 38.5 231.204 38.524C231.108 41.524 231.06 43.54 231.06 44.572C231.108 46.672 231.156 47.824 231.204 48.028C231.156 48.208 231.132 48.424 231.132 48.676V48.82C231.132 49.024 231.156 49.288 231.204 49.612C231.204 50.02 230.916 50.284 230.34 50.404C229.944 50.404 229.704 50.116 229.62 49.54C229.62 48.4 229.572 46.576 229.476 44.068C229.572 41.584 229.62 39.616 229.62 38.164C229.62 38.032 229.596 37.552 229.548 36.724C229.548 36.328 229.836 36.088 230.412 36.004ZM234.145 37.156C234.721 37.156 235.009 37.78 235.009 39.028V45.94C234.913 46.468 234.649 46.732 234.217 46.732C233.737 46.6 233.497 46.36 233.497 46.012C233.497 45.184 233.473 42.664 233.425 38.452L233.353 37.948C233.449 37.42 233.713 37.156 234.145 37.156ZM234.001 48.244H234.289C234.865 48.364 235.153 48.652 235.153 49.108V49.468C235.033 50.044 234.745 50.332 234.289 50.332H234.001C233.509 50.332 233.221 49.948 233.137 49.18C233.305 48.556 233.593 48.244 234.001 48.244Z" fill="black"/>
<rect x="41.5" y="70.5" width="82" height="80" rx="8.43333" fill="#AEDFFF"/>
<rect x="41.5" y="70.5" width="82" height="80" rx="8.43333" stroke="black"/>
<g clip-path="url(#clip0_758_2913)">
<path d="M84.6526 116.645L80.847 120.45C79.7421 121.526 78.2582 122.123 76.7163 122.112C75.1745 122.102 73.6988 121.485 72.6083 120.395C71.5179 119.305 70.9006 117.829 70.8898 116.287C70.879 114.746 71.4757 113.262 72.5508 112.156L76.3565 108.347C76.5752 108.128 76.6981 107.831 76.698 107.522C76.6979 107.212 76.5748 106.916 76.3559 106.697C76.137 106.478 75.8401 106.355 75.5307 106.355C75.2212 106.356 74.9244 106.479 74.7056 106.698L70.9011 110.507C69.3638 112.045 68.5004 114.131 68.501 116.305C68.5015 118.48 69.3659 120.565 70.9041 122.103C72.4422 123.64 74.528 124.503 76.7027 124.503C78.8774 124.502 80.9628 123.638 82.5001 122.1L86.3058 118.294C86.5183 118.074 86.6359 117.779 86.6333 117.474C86.6306 117.168 86.5079 116.875 86.2916 116.659C86.0753 116.442 85.7827 116.32 85.4768 116.317C85.1709 116.314 84.8762 116.432 84.6561 116.645H84.6526Z" fill="black"/>
<path d="M94.1012 98.9045C93.3421 98.1401 92.4387 97.534 91.4436 97.1213C90.4485 96.7085 89.3814 96.4974 88.3041 96.5C87.2273 96.4972 86.1607 96.7078 85.1658 97.1197C84.171 97.5316 83.2676 98.1367 82.5081 98.8999L78.6966 102.707C78.4776 102.925 78.3546 103.222 78.3545 103.532C78.3544 103.841 78.4772 104.138 78.696 104.357C78.9147 104.576 79.2115 104.699 79.521 104.699C79.8305 104.699 80.1273 104.576 80.3462 104.358L84.1554 100.552C84.6985 100.005 85.3447 99.5722 86.0564 99.2772C86.7681 98.9822 87.5313 98.8314 88.3017 98.8334C89.4617 98.8337 90.5955 99.178 91.5599 99.8227C92.5242 100.467 93.2758 101.383 93.7195 102.455C94.1633 103.527 94.2794 104.706 94.0531 105.844C93.8267 106.982 93.2682 108.027 92.4481 108.847L88.6424 112.653C88.4235 112.871 88.3005 113.168 88.3005 113.478C88.3005 113.788 88.4235 114.084 88.6424 114.303C88.8613 114.522 89.1582 114.645 89.4678 114.645C89.7774 114.645 90.0743 114.522 90.2932 114.303L94.0989 110.5C95.6343 108.961 96.4968 106.876 96.4972 104.703C96.4976 102.529 95.636 100.444 94.1012 98.9045Z" fill="black"/>
<path d="M85.1755 106.175L78.1755 113.175C78.0641 113.283 77.9752 113.411 77.9141 113.554C77.8529 113.696 77.8207 113.849 77.8194 114.004C77.818 114.159 77.8476 114.313 77.9062 114.456C77.9649 114.599 78.0515 114.73 78.161 114.839C78.2706 114.949 78.4008 115.035 78.5442 115.094C78.6876 115.153 78.8412 115.182 78.9961 115.181C79.151 115.18 79.3041 115.147 79.4465 115.086C79.5888 115.025 79.7176 114.936 79.8252 114.825L86.8252 107.825C87.0377 107.605 87.1553 107.31 87.1526 107.004C87.15 106.698 87.0273 106.406 86.811 106.189C86.5947 105.973 86.302 105.85 85.9961 105.848C85.6902 105.845 85.3955 105.963 85.1755 106.175Z" fill="black"/>
</g>
<rect x="139.5" y="70.5" width="82" height="80" rx="8.43333" fill="#464854"/>
<rect x="139.5" y="70.5" width="82" height="80" rx="8.43333" stroke="black"/>
<path d="M168.875 107.917V100.167C168.875 99.8007 168.999 99.4939 169.246 99.2464C169.494 98.9988 169.801 98.875 170.167 98.875H177.917C178.283 98.875 178.589 98.9988 178.837 99.2464C179.085 99.4939 179.208 99.8007 179.208 100.167V107.917C179.208 108.283 179.085 108.589 178.837 108.837C178.589 109.085 178.283 109.208 177.917 109.208H170.167C169.801 109.208 169.494 109.085 169.246 108.837C168.999 108.589 168.875 108.283 168.875 107.917ZM171.458 106.625H176.625V101.458H171.458V106.625ZM168.875 120.833V113.083C168.875 112.717 168.999 112.411 169.246 112.163C169.494 111.915 169.801 111.792 170.167 111.792H177.917C178.283 111.792 178.589 111.915 178.837 112.163C179.085 112.411 179.208 112.717 179.208 113.083V120.833C179.208 121.199 179.085 121.506 178.837 121.754C178.589 122.001 178.283 122.125 177.917 122.125H170.167C169.801 122.125 169.494 122.001 169.246 121.754C168.999 121.506 168.875 121.199 168.875 120.833ZM171.458 119.542H176.625V114.375H171.458V119.542ZM181.792 107.917V100.167C181.792 99.8007 181.915 99.4939 182.163 99.2464C182.411 98.9988 182.717 98.875 183.083 98.875H190.833C191.199 98.875 191.506 98.9988 191.754 99.2464C192.001 99.4939 192.125 99.8007 192.125 100.167V107.917C192.125 108.283 192.001 108.589 191.754 108.837C191.506 109.085 191.199 109.208 190.833 109.208H183.083C182.717 109.208 182.411 109.085 182.163 108.837C181.915 108.589 181.792 108.283 181.792 107.917ZM184.375 106.625H189.542V101.458H184.375V106.625ZM189.542 122.125V119.542H192.125V122.125H189.542ZM181.792 114.375V111.792H184.375V114.375H181.792ZM184.375 116.958V114.375H186.958V116.958H184.375ZM181.792 119.542V116.958H184.375V119.542H181.792ZM184.375 122.125V119.542H186.958V122.125H184.375ZM186.958 119.542V116.958H189.542V119.542H186.958ZM186.958 114.375V111.792H189.542V114.375H186.958ZM189.542 116.958V114.375H192.125V116.958H189.542Z" fill="#E8EAED"/>
<rect x="237.5" y="70.5" width="82" height="80" rx="8.43333" fill="#FFF5AE"/>
<rect x="237.5" y="70.5" width="82" height="80" rx="8.43333" stroke="black"/>
<circle cx="278.5" cy="110.5" r="32.7556" fill="#FFF5AE"/>
<path d="M278.595 93.5527C268.404 93.5527 260.186 100.127 260.186 108.109C260.186 113.29 263.604 117.827 268.733 120.417L266.997 126.9C266.964 126.997 266.959 127.102 266.983 127.201C267.006 127.301 267.056 127.393 267.129 127.465C267.234 127.558 267.369 127.61 267.51 127.61C267.626 127.601 267.737 127.555 267.825 127.479L275.294 122.442C276.397 122.595 277.508 122.674 278.621 122.679C288.799 122.679 297.031 116.104 297.031 108.109C297.031 100.114 288.773 93.5527 278.595 93.5527Z" fill="#392020"/>
<path d="M266.628 105.808H264.616C264.367 105.815 264.121 105.751 263.906 105.623C263.811 105.564 263.729 105.485 263.666 105.392C263.602 105.299 263.559 105.195 263.538 105.084C263.532 105.014 263.532 104.944 263.538 104.874C263.532 104.743 263.557 104.612 263.612 104.493C263.667 104.374 263.75 104.27 263.854 104.19C264.083 104.024 264.36 103.936 264.643 103.94H270.705C270.956 103.931 271.204 104 271.415 104.137C271.512 104.194 271.596 104.273 271.659 104.366C271.723 104.459 271.765 104.565 271.783 104.677C271.789 104.742 271.789 104.808 271.783 104.874C271.789 105.007 271.764 105.139 271.709 105.26C271.654 105.381 271.571 105.488 271.467 105.571C271.244 105.737 270.97 105.82 270.691 105.808H268.745V112.724C268.753 112.872 268.73 113.019 268.678 113.157C268.626 113.295 268.546 113.421 268.443 113.526C268.344 113.627 268.225 113.706 268.093 113.758C267.962 113.81 267.821 113.834 267.68 113.829C267.433 113.836 267.191 113.757 266.996 113.605C266.811 113.457 266.685 113.247 266.641 113.013C266.628 112.917 266.628 112.82 266.641 112.724L266.628 105.808Z" fill="#FFF5AE"/>
<path d="M272.363 104.454C272.421 104.237 272.557 104.05 272.745 103.928C272.945 103.814 273.173 103.76 273.402 103.77H273.902C274.146 103.761 274.387 103.82 274.599 103.941C274.823 104.092 274.983 104.322 275.046 104.585L277.676 112.015C277.744 112.208 277.801 112.406 277.847 112.606C277.851 112.69 277.851 112.773 277.847 112.856C277.851 112.984 277.828 113.112 277.778 113.23C277.728 113.348 277.653 113.454 277.557 113.54C277.465 113.634 277.355 113.709 277.233 113.759C277.11 113.808 276.979 113.832 276.847 113.829C276.645 113.849 276.441 113.801 276.269 113.691C276.097 113.581 275.968 113.417 275.901 113.224L275.348 111.607H271.89L271.338 113.224C271.272 113.421 271.141 113.588 270.966 113.699C270.791 113.809 270.583 113.855 270.378 113.829C270.155 113.835 269.938 113.766 269.76 113.632C269.586 113.494 269.47 113.298 269.431 113.08C269.424 113.005 269.424 112.931 269.431 112.856C269.408 112.726 269.408 112.592 269.431 112.462C269.431 112.317 269.523 112.159 269.576 112.015L272.363 104.454ZM273.678 106.176L272.429 110.121H274.914L273.678 106.176Z" fill="#FFF5AE"/>
<path d="M278.148 104.874C278.134 104.579 278.238 104.291 278.437 104.072C278.538 103.97 278.659 103.891 278.793 103.839C278.926 103.787 279.069 103.763 279.213 103.77C279.459 103.767 279.699 103.845 279.897 103.993C280.079 104.147 280.2 104.362 280.238 104.598C280.251 104.69 280.251 104.783 280.238 104.874V111.791H283.855C284.105 111.788 284.352 111.856 284.565 111.988C284.66 112.047 284.743 112.126 284.806 112.219C284.869 112.312 284.913 112.417 284.933 112.527C284.933 112.527 284.933 112.659 284.933 112.725C284.939 112.856 284.914 112.986 284.859 113.105C284.804 113.224 284.721 113.328 284.617 113.408C284.388 113.574 284.111 113.662 283.828 113.658H279.384C279.101 113.676 278.819 113.603 278.582 113.448C278.369 113.289 278.227 113.053 278.187 112.79C278.177 112.646 278.177 112.501 278.187 112.356L278.148 104.874Z" fill="#FFF5AE"/>
<path d="M285.17 104.874C285.162 104.58 285.265 104.294 285.459 104.072C285.656 103.893 285.909 103.787 286.175 103.773C286.441 103.759 286.703 103.836 286.919 103.993C287.105 104.146 287.231 104.361 287.274 104.598C287.28 104.69 287.28 104.782 287.274 104.874V108.096L290.6 104.256C290.729 104.125 290.865 104.002 291.008 103.888C291.143 103.808 291.298 103.767 291.455 103.77C291.685 103.768 291.91 103.837 292.1 103.967C292.189 104.027 292.265 104.105 292.324 104.195C292.383 104.286 292.423 104.387 292.441 104.493C292.447 104.519 292.447 104.546 292.441 104.572C292.435 104.602 292.435 104.634 292.441 104.664C292.441 104.802 292.405 104.938 292.336 105.058C292.266 105.186 292.183 105.305 292.086 105.413L289.904 107.807L292.533 111.883V112.015C292.67 112.203 292.776 112.412 292.849 112.633V112.698C292.864 112.851 292.842 113.004 292.785 113.146C292.728 113.288 292.637 113.414 292.52 113.514C292.301 113.679 292.033 113.767 291.758 113.764C291.575 113.771 291.394 113.73 291.232 113.645C291.057 113.528 290.912 113.37 290.811 113.185L288.365 109.24L287.195 110.463V112.659C287.203 112.953 287.099 113.239 286.905 113.461C286.802 113.563 286.678 113.642 286.542 113.694C286.407 113.746 286.262 113.77 286.116 113.764C285.874 113.769 285.637 113.69 285.446 113.54C285.26 113.392 285.134 113.182 285.091 112.948C285.078 112.852 285.078 112.755 285.091 112.659L285.17 104.874Z" fill="#FFF5AE"/>
<defs>
<clipPath id="clip0_758_2913">
<rect width="28" height="28" fill="white" transform="translate(68.5 96.5)"/>
</clipPath>
</defs>
</svg>
