<?xml version="1.0" encoding="UTF-8"?><svg id="_레이어_2" xmlns="http://www.w3.org/2000/svg" xmlns:xlink="http://www.w3.org/1999/xlink" viewBox="18 0 83.24 80.5"><defs><style>.cls-1{stroke-width:0px;}.cls-1,.cls-2{fill:none;}.cls-1,.cls-2,.cls-3{stroke:#000;stroke-miterlimit:10;}.cls-4{fill:#5b231b;}.cls-5{fill:#eec897;}.cls-6{clip-path:url(#clippath-1);}.cls-7{fill:#edd3ae;}.cls-8,.cls-3{fill:#70382d;}.cls-9{fill:#dbb183;}</style><clipPath id="clippath-1"><path class="cls-3" d="M99.93,41.98c0,.9-.27,1.77-.27,2.65s-.08,1.72-.19,2.59c-.08.6.78,1.2.92,1.85s.32,1.26.44,1.87c.13.66-.44,1.32-.6,1.9s-.63.88-1.24,1.34c-.53.4-1.15.74-1.7,1.13-.62.44-.64,1.33-.88,1.89s-.16,1.09-.05,1.82c.1.66-.24,1.41-.15,2.06.09.74.01,1.28-.3,1.82-.45.77-.48,1.85-1,2.62s-1.46,1.26-2,1.96-.8,1.76-1.49,2.39-1.91.69-2.54,1.31-1.01,1.58-1.79,2.09-1.7.77-2.4,1.31-1.62.61-2.53.86-1.76.66-2.53,1.1-1.3,1.26-2.05,1.7-1.79.3-2.62.64-1.53.94-2.38,1.14-1.76.11-2.62.34-1.44,1.15-2.24,1.69-1.76.81-2.65.93-1.79.32-2.7.55-1.8.85-2.7.85-1.74-.81-2.63-1.17-1.84-.5-2.71-.61-1.77-.28-2.66-.4-1.82-.14-2.67-.37-1.77-.44-2.6-.77-1.66-.7-2.48-1.04-1.19-1.43-1.82-2.12-1.27-1.5-2.03-1.94-1.62-.69-2.35-1.12-1.27-1.11-1.98-1.65-1.83-.58-2.41-1.21-.75-1.65-1.37-2.27-1.6-.84-2.25-1.4-1.15-1.32-1.69-2.03-1.16-1.36-1.85-1.96-1.12-1.31-1.57-2.08-.89-1.49-1.12-2.36-.88-1.57-1.22-2.39.23-1.88.09-2.75-.65-1.66-.88-2.52-.54-1.67-.87-2.48-.76-1.6-.88-2.49.49-1.69.68-2.57-.18-1.8-.18-2.69c0-.6.23-1.29-.03-1.89s-1.06-.94-1.29-1.51c-.25-.62,0-1.35.08-1.96.12-.88.41-1.79.46-2.71s-.54-1.94-.32-2.8c.16-.6.75-1.18,1.25-1.65.46-.43,1.34-.46,1.82-.88.52-.46.49-1.27.72-1.83s.4-1.08.39-1.74c-.01-.63.4-1.29.4-1.91,0-.67-.11-1.25.2-1.77s.85-.75,1.46-1.07c.56-.29,1.18-.53,1.75-.81.62-.3.76-1.1,1.13-1.58.54-.7,1.48-1.21,1.8-2.07s.44-1.74,1.07-2.37.8-1.66,1.32-2.43,1.44-1.17,2.15-1.71,1.38-1.11,2.22-1.49,1.55-.96,2.32-1.41,1.82-.26,2.76-.34,1.78-.41,2.6-.75,1.5-.88,2.23-1.43,1.61-.79,2.48-1.02,1.68-.63,2.56-.74,1.8.17,2.68.05,1.71-.06,2.6-.02,1.75-.48,2.64-.48c.6,0,1.31.43,1.93.21s1-1,1.58-1.19c.63-.2,1.31.07,1.91.15s.99.52,1.52.97c.48.41.93.9,1.41,1.33.52.47,1.18.96,1.76,1.11.86.23,1.87-.12,2.65.2s1.35,1.15,2.17,1.49,1.82.41,2.75.45,2.02-.31,2.79.13,1.59.78,2.48,1.08,1.67.83,2.38,1.37,1.54,1.01,2.16,1.69,1.05,1.52,1.67,2.15,1.23,1.32,1.74,2.07.72,1.71,1.26,2.41.95,1.46,1.16,2.37.13,1.98.57,2.74c.3.52,1.08.82,1.65,1.2.53.36.99.86,1.5,1.23.56.4,1.45.53,1.68,1.1.34.82-.01,1.88-.04,2.84s.41,1.81.64,2.66.13,1.84.12,2.73-.67,1.8-.56,2.69.74,1.67.97,2.52.39,1.7.39,2.6Z"/></clipPath></defs><g id="_레이어_1-2"><path class="cls-8" d="M99.93,41.98c0,.9-.27,1.77-.27,2.65s-.08,1.72-.19,2.59c-.08.6.78,1.2.92,1.85s.32,1.26.44,1.87c.13.66-.44,1.32-.6,1.9s-.63.88-1.24,1.34c-.53.4-1.15.74-1.7,1.13-.62.44-.64,1.33-.88,1.89s-.16,1.09-.05,1.82c.1.66-.24,1.41-.15,2.06.09.74.01,1.28-.3,1.82-.45.77-.48,1.85-1,2.62s-1.46,1.26-2,1.96-.8,1.76-1.49,2.39-1.91.69-2.54,1.31-1.01,1.58-1.79,2.09-1.7.77-2.4,1.31-1.62.61-2.53.86-1.76.66-2.53,1.1-1.3,1.26-2.05,1.7-1.79.3-2.62.64-1.53.94-2.38,1.14-1.76.11-2.62.34-1.44,1.15-2.24,1.69-1.76.81-2.65.93-1.79.32-2.7.55-1.8.85-2.7.85-1.74-.81-2.63-1.17-1.84-.5-2.71-.61-1.77-.28-2.66-.4-1.82-.14-2.67-.37-1.77-.44-2.6-.77-1.66-.7-2.48-1.04-1.19-1.43-1.82-2.12-1.27-1.5-2.03-1.94-1.62-.69-2.35-1.12-1.27-1.11-1.98-1.65-1.83-.58-2.41-1.21-.75-1.65-1.37-2.27-1.6-.84-2.25-1.4-1.15-1.32-1.69-2.03-1.16-1.36-1.85-1.96-1.12-1.31-1.57-2.08-.89-1.49-1.12-2.36-.88-1.57-1.22-2.39.23-1.88.09-2.75-.65-1.66-.88-2.52-.54-1.67-.87-2.48-.76-1.6-.88-2.49.49-1.69.68-2.57-.18-1.8-.18-2.69c0-.6.23-1.29-.03-1.89s-1.06-.94-1.29-1.51c-.25-.62,0-1.35.08-1.96.12-.88.41-1.79.46-2.71s-.54-1.94-.32-2.8c.16-.6.75-1.18,1.25-1.65.46-.43,1.34-.46,1.82-.88.52-.46.49-1.27.72-1.83s.4-1.08.39-1.74c-.01-.63.4-1.29.4-1.91,0-.67-.11-1.25.2-1.77s.85-.75,1.46-1.07c.56-.29,1.18-.53,1.75-.81.62-.3.76-1.1,1.13-1.58.54-.7,1.48-1.21,1.8-2.07s.44-1.74,1.07-2.37.8-1.66,1.32-2.43,1.44-1.17,2.15-1.71,1.38-1.11,2.22-1.49,1.55-.96,2.32-1.41,1.82-.26,2.76-.34,1.78-.41,2.6-.75,1.5-.88,2.23-1.43,1.61-.79,2.48-1.02,1.68-.63,2.56-.74,1.8.17,2.68.05,1.71-.06,2.6-.02,1.75-.48,2.64-.48c.6,0,1.31.43,1.93.21s1-1,1.58-1.19c.63-.2,1.31.07,1.91.15s.99.52,1.52.97c.48.41.93.9,1.41,1.33.52.47,1.18.96,1.76,1.11.86.23,1.87-.12,2.65.2s1.35,1.15,2.17,1.49,1.82.41,2.75.45,2.02-.31,2.79.13,1.59.78,2.48,1.08,1.67.83,2.38,1.37,1.54,1.01,2.16,1.69,1.05,1.52,1.67,2.15,1.23,1.32,1.74,2.07.72,1.71,1.26,2.41.95,1.46,1.16,2.37.13,1.98.57,2.74c.3.52,1.08.82,1.65,1.2.53.36.99.86,1.5,1.23.56.4,1.45.53,1.68,1.1.34.82-.01,1.88-.04,2.84s.41,1.81.64,2.66.13,1.84.12,2.73-.67,1.8-.56,2.69.74,1.67.97,2.52.39,1.7.39,2.6Z"/><g class="cls-6"><path class="cls-4" d="M77.22,57.57c-2.76,1.13-5.59,1.96-8.32,3.19-2.91,1.31,3.63-1.02,1.39-.59-2.35.47-.61.79,5.23.97,7.2,1.57,7.59,1.21,1.17-1.06-11.87-2.7-21.42,4.3-25.12,15.26l8.73-11.35-.64.37,14.64-1.92-.86-.22,11.35,8.73c-4.39-6.23-10.66-11.14-18.65-11.14s-14.21,4.28-18.51,10.73l11.35-8.73-.79.21,14.64,1.92-.77-.37,6.82,6.82c-2.19-4.12-5.92-7.15-10.15-8.94-2.42-1.02-5.02-1.64-7.68-1.66-2.37-.02-8.58.61-9.95,2.57.49-.7,17.53,1.16,14.13-.88-1.54-.93-3.71-1.79-5.49-2.22-3.97-.96-8.87-1.02-12.74.42h10.1l-.86-.13,8.38,4.89-.57-.62,5.56,13.44c-1.11-10.22-6-17.81-16.33-20.64l8.38,4.89c-6.72-7.49-17.28-8.16-25.82-3.74l9.59-2.59-.84.09,9.59,2.59c4.54,5.27,5.87,6.58,4,3.92-1.09-1.59-2.28-3.1-3.57-4.52-1.74-1.98-3.41-3.68-5.8-5.07,2.12,1.24-6.85-3.32-7.31-2.63,3.06,1.44,3.69,1.74,1.89.89-1.8-.8-3.62-1.56-5.45-2.28l8.38,4.89c2.49,2.08,2.31,2.81.89.52-1.49-2.41-3.36-4.26-5.57-5.97-5.17-3.99-11.76-4.94-18.07-3.35h10.1c7.8,7.6,10.38,9.56,7.74,5.87-3.66-4.56-3.99-5.1-1-1.61,1.28,2.99,1.65,3.53,1.1,1.63.44,3.94.43,4.13-.02.57-1.2-8.91-7.13-14.32-15.17-17.39l8.38,4.89-.48-.61,4.89,8.38-.14-.71v10.1c.89-2.56,1.39-5.6,1.3-8.27-.12-3.42-1.09-6.55-2.59-9.59-.16-.5-.39-.95-.7-1.36-.82-1.26-.48-.53,1,2.2v10.1c1.09-4.02,1.55-7.86.49-11.98-.51-1.83-1.22-3.59-2.13-5.28-4.3-5.86-4.03-5.08.8,2.36v10.1l-1.17,2.83-6.82,6.82c10.61-5.39,12.79-18.37,7.78-28.27l2.59,9.59v-.73c-1.86,4.48-3.72,8.96-5.57,13.44-3.37,2.57-3.64,2.76-.81.58.97-.53,1.78-1.23,2.43-2.1,2.48-2.49,4.29-5.87,5.05-9.3l.68-5.05c-.56,3.49-.53,4.28.1,2.37.55-2.24.7-4.71.72-7.02l-5.56,13.44-2.79,2.09c1.67-.78,3.02-1.86,4.07-3.26,2.2-2.41,4.38-5.46,5.11-8.67.42-1.84.63-3.94.64-5.82.1-2.62-.45-5.06-1.64-7.32-1.44-3.32-1.27-3.03.51.87v10.1c-1.25,2.86-1.49,3.61-.74,2.26.83-1.36.28-.72-1.65,1.91L7.65,18.94l.02.37,2.59-9.59-.58.91,6.82-6.82c-5.57,3.78-9.4,8.5-10.31,15.31-.37,2.72-.31,5.71.49,8.38l1.92,4.54c3.66,4.67,3.97,5.12.94,1.35l-2.59-9.59.43-3.06,4.89-8.38c6.11-6.17-3.34,3.25-4.38,4.86-2.5,3.88-3.2,8.38-2.6,12.84.92,6.85,4.84,12.08,10.84,15.42l-8.73-11.35.31.75,1.92-14.64-.38.73,11.35-8.73c-7.14,2.51-13.48,7.4-15.58,15.01-.92,3.33-1.02,7.81-.1,11.14.75,1.81,1.51,3.61,2.29,5.41,3.63,4.67,3.97,5.12,1.02,1.36l-1.92-14.64-.28.95,4.89-8.38c-1.91,1.9-3.84,4.24-5.07,6.58-.85,1.62-1.56,3.49-2.05,5.24-.79,2.53-.9,5.05-.34,7.58.53,3.8.44,3.37-.26-1.29l2.59-9.59c3.19-4.02,2.93-3.65-.78,1.1-.86,1.69-1.62,3.44-2.26,5.23-.63,2.3-.77,4.95-.72,7.37.08,3.97.74,7.44,2.7,10.92.97,1.62,2.1,3.12,3.39,4.52,4.78,3.62,5.14,3.95,1.06.98l-5.56-13.44c-.38,4.07.42,7.82,2.41,11.44.85,1.75,1.99,3.32,3.42,4.7-2.27-2.89-2.37-2.99-.29-.32,5.48,7.1,13.52,9.44,22.17,7.52h-10.1c-2.19-.36-14.33-23.72-9.99-7.94.81,2.95,3.07,6.91,5.35,9,5.23,4.8,13.13,7.17,20.05,4.81h-10.1l.88.12-8.38-4.89.53.49-4.89-8.38c1.35,4.89,4.2,8.66,8.15,11.71,2.17,1.68,4.74,3.06,7.45,3.71l5.05.68c2.06.25,1.08.13-2.93-.36l-8.38-4.89-2.18-2.87,2.97,3.85c1.89,2.12,4.1,3.41,6.64,4.48,4.5,1.9,8.87,2.05,13.69,1.05h-10.1l.76.12-8.38-4.89c6.11,5.46,14.5,10.54,23.01,7.04h-10.1l.69.16-11.35-8.73c-1.58-3.83-1.67-4.1-.3-.81.77,2.36,2.08,4.39,3.93,6.11,1.98,2.05,4.14,3.44,6.71,4.52s5.34,1.76,8.06,1.72l5.05-.68c5.6-2.41,6.05-2.56,1.33-.47h-10.1c-4.46-1.78-3.92-1.53,1.6.76,1.98.33,3.98.58,5.98.77-3.47-.7-4.26-.73-2.36-.12,6.11.78,6.74.89,1.89.33l-8.38-4.89c1.99,2.03,3.54,3.91,6.21,5.41,2.39,1.34,4.74,2.15,7.44,2.52,1,.17,2,.29,3,.39,1.57.15.63.08-2.83-.2l-8.38-4.89.61.61-4.89-8.38c.77,2.14,1.63,4.31,2.7,6.31,2.88,5.41,10.13,10.03,16.41,9.41s9.72-2.2,14.33-5.95c-7.67.99-15.35,1.98-23.02,2.97l.18.1c-2.27-8.67-4.54-17.33-6.82-26l-.29.46,21.46-8.73-.66-.18,8.38,4.89-.54-.69,4.89,8.38c-1.55-6.22-5.95-11.17-11.79-13.64-2.55-1.07-5.34-1.72-8.14-1.62l-5.05.68c-5.55,2.36-6.05,2.56-1.5.59l14.64,1.92c-2.95-1.25-5.65-2.6-8.86-3.03-1.1-.27-2.21-.38-3.34-.33-6.28.89-6.73.92-1.36.08l9.59,2.59-.64-.33,6.82,6.82c-4.38-6.29-10.61-10.9-18.66-10.56l9.59,2.59-.66-.3,6.82,6.82c1.81,4.7,1.56,4.24-.73-1.36l-.53-.7c-2.47-3.96-5.74-6.49-9.92-8.25-5.98-2.52-14.05-2.14-19.5,1.74l9.59-2.59h-.9c4.48,1.85,8.96,3.71,13.44,5.56l-.65-.58,4.89,8.38c-.99-4.91-5.02-10.58-9.44-12.92-1.57-.83-3.5-1.66-5.21-2.18-2.53-.79-5.05-.9-7.58-.34-3.78.54-3.37.44,1.22-.32l9.59,2.59c-2.18-1.15-3.67-1.77-6.23-3-1.37-.55-1.22-.49.46.18,2.9,1.16,1.84.71-3.16-1.37-2.53-.77-10-1.09-3.17-.59-2.18-.16-4.31-.65-6.49-.75l9.59,2.59-.6-.44,6.82,6.82-.36-.83,2.59,9.59c.05-5.36-2.09-11.15-5.93-14.98-1.13-1.13-7.98-6.81-2.25-1.15,3.62,3.57,2.58,2.52,1.55.53-1.18-2.28.57,1.64.73,1.98-.93-1.88-1.41-4.01-2.43-5.85-1.91-3.48-5.33-7.25-9.05-8.83l6.82,6.82-.43-.75,1.92,14.64.12-.78-8.73,11.35c7.44-5.54,13.84-15.37,10.03-25.1v10.1l.07-.38-13.27,13.27.32-.12c-7.15-2.91-14.3-5.82-21.46-8.73-1.36-3.57-1.69-4.35-.99-2.33.59,2.47,1.72,4.63,3.4,6.46,1.91,2.47,4.2,4.48,7.04,5.81l-6.82-6.82c2.4,3.93,5.39,7.16,9.54,9.21l-6.82-6.82c1.49,2.46,3.18,4.8,5.24,6.82,7.1,6.97,19.89,7.61,26.87,0s7.57-19.43,0-26.87c-1.35-1.38-.95-.82,1.19,1.68-.55-.98-1.21-1.89-1.97-2.73-1.93-2.5-4.22-4.35-7.06-5.74l6.82,6.82c-2.71-3.95-5.47-6.78-9.52-9.28l8.73,11.35c-.77-2.29-1.52-4.75-2.84-6.74-4.29-6.49-13.42-11.8-21.46-8.73-5.75,2.19-10.14,5.21-12.64,11.12-1.2,2.84-.95,2.08-1.37,5.17-.45,1.68-.45,3.37,0,5.05.58,5.06.65,3.35.22-5.13l4.89-8.38c3.97-2.74,3.58-2.34-1.18,1.19l-2.97,3.85c-2.4,3.72-2.95,8.65-2.38,12.9.99,7.39,5.13,11.42,10.96,15.47l-6.82-6.82c1.12,1.59.91.91-.62-2.05.65,1.85,1.39,3.65,2.23,5.42.4.88.87,1.74,1.28,2.61,2.28,4.76,5.82,7.44,10.07,10.35l-6.82-6.82.37.82-2.59-9.59c-.06,6.47,2.75,12.55,7.84,16.48,2.22,1.72,4.34,2.96,7.06,3.84,3.73,1.21,8.62.5,2.57.23l5.05.68c-7.39-2.2-8.86-2.44-4.43-.71,5.71,2.41,1.58-.17.4.34,1.01.56,2.06,1.04,3.15,1.42,2.26,1.19,4.7,1.74,7.32,1.64,2.14.05,4.23-.38,6.35-.7h-10.1l.67.26-11.35-8.73c-1.53-3.73-1.61-3.97-.25-.71.77,2.36,2.08,4.39,3.93,6.11,1.98,2.04,4.2,3.43,6.77,4.51s5.4,1.74,8.22,1.64l5.05-.68c6.83-2.63,6.02-2.66-2.46-.1l-9.59-2.59.84.48-6.82-6.82-1.18-3.18,1.92,4.54c1.31,2.45,3.26,4.37,5.42,6.04s2.34,1.68,4.86,2.74c1.55.65,12.6,3.5,3.62,1.13l-8.38-4.89-2.07-2.86,2.97,3.85c1.96,1.96,4.26,3.21,6.76,4.26s5.04,1.64,7.72,1.66c.98.09,1.96,0,2.92-.31,3.75-.51,3.37-.45-1.15.19l-9.59-2.59c7.48,3.3,15.14,4.93,22.47.18l-9.59,2.59.82-.02-13.44-5.56.6.57-4.89-8.38c1.82,7.3,7.45,12.93,14.65,14.9,8.31,2.27,16.99-1.56,21.46-8.73l.29-.46c5.34-8.56,1.98-21.12-6.82-26l-.18-.1c-8.05-4.46-16.27-2.53-23.02,2.97l-.42.34,13.44-5.56-.48.05,16.41,9.41,1.13,2.76c-.59-2.47-1.72-4.63-3.4-6.46-1.78-2.3-3.13-4.01-5.94-5.5-3.99-2.11-7.83-2.69-12.29-3.12l9.59,2.59c4.38,3.04,2.3,1.44,1.1.27-2.48-2.41-5.89-4.33-9.29-5.13l-5.05-.68c3.48.5,4.25.52,2.33.04-2.28-.47-4.62-.55-6.93-.78l9.59,2.59c-6.98-4.3-15-4.13-22.11-.29l9.59-2.59-.74-.08,13.44,5.56-.6-.6,4.89,8.38c-.89-4.85-5.09-10.54-9.39-12.81-1.6-.85-3.49-1.58-5.23-2.08-2.53-.79-5.05-.9-7.58-.34-3.75.48-3.37.47,1.15-.03l9.59,2.59c.4.19,3.4,2.96,1.44,1.18-2.13-1.94-4.23-3.49-6.87-4.6-4.44-1.88-9.01-1.93-13.74-.95h10.1l-.7-.22,8.38,4.89,2.22,2.81-2.97-3.85c-1.89-2.06-4.17-3.36-6.68-4.42s-2.77-1.18-5.54-1.55c-5.02-.67-2.21-.77.16-.03l8.38,4.89,3.55,6.54c-.59-2.47-1.72-4.63-3.4-6.46-1.75-2.27-3.08-3.91-5.86-5.38-4.87-2.57-10.92-3.61-16.23-1.8h10.1l-.86-.16,11.35,8.73-.46-.62,2.59,9.59c.94-15.53-13.33-26.76-28.02-23.49h10.1l-.79-.19,8.38,4.89c2.18,2.95,2.25,3.08.2.39-2.11-2.67-1.97-2.57.41.32l2.59,9.59c.84-8.08-3.6-15.1-10.29-19.24l6.82,6.82c4.07,6.55,1.81,9.55,2.1,5.26l-2.59,9.59c-3.19,4.02-2.92,3.65.78-1.1.85-1.7,1.6-3.44,2.26-5.23,1.07-3.9.77-7.44-.08-11.34v10.1c-.55,2.83-6.18,9.12-2.66,4.95,2.33-2.76,4.32-5.77,5.17-9.33,1.2-5.04.59-10.06-1.92-14.64l-.41-.87c-3.64-4.66-3.97-5.12-.98-1.37l2.59,9.59.1-1.04-2.59,9.59.64-.89-6.82,6.82c-4.4,1.67-3.84,1.38,1.66-.86,2.86-1.69,5.13-3.96,6.82-6.82,1.89-3.12,2.98-6.65,2.98-10.32,0-7.63-4.56-14.33-11.15-17.94l6.82,6.82-.34-.75v19.18l.34-.73-6.82,6.82c13.23-6.27,14.01-24.53,4.56-34.2l4.89,8.38-.15-.81-1.92,14.64.51-.93-6.82,6.82c6.05-4.11,11.16-10.35,10.71-18.19s-4.42-14.3-11.68-17.36C27.43-1.19,18.13-.24,13.22,5.5c-7.05,8.25-10.75,18.39-5.02,28.64l-2.59-9.59.04.77,5.56-13.44c3.43-2.59,3.72-2.79.87-.61-.98.5-1.77,1.19-2.37,2.07-2.87,3.15-4.65,6.66-5.23,10.91-.41,3.07.28,5.35-.03.31.15,2.4-2.01,10.38-.61,2.72l4.89-8.38,2.73-2.07c-1.64.81-3.01,1.9-4.1,3.28-2.22,2.42-4.4,5.46-5.14,8.69-1.28,5.63-.39,10.79,2.22,15.95l-2.59-9.59-.04.71,5.56-13.44c3.92-2.97,3.51-2.64-1.21.99l-2.97,3.85c-1.96,2.85-2.56,5.52-3,8.77-.91,6.77,1.64,13.27,6.34,18.14l-4.89-8.38.22.74v-10.1c-1.03,4.12-1.63,8.26-.41,12.48.81,2.79,2.3,5.15,3.45,7.75l-2.59-9.59c.06-4.06.48-3.72.06-1.83-.76,3.44-.88,7.37.14,10.81.97,3.26,2.89,6.7,5.37,9l3.85,2.97c5.64,2.29,6.06,2.53,1.25.73l-8.73-11.35c-.43-4.04-.42-4.27.03-.68,0,1.04.16,2.04.49,3.01.17.8.33,1.68.57,2.47.59,1.9,1.5,4.16,2.52,5.9.94,1.62,6.32,6.55,1.35,2,1.41,1.29,2.26,3.24,3.57,4.63,1.38,1.46,3.33,2.83,5.03,3.87,4.88,3.01,11.15,3.48,16.58,2.1h-10.1l.83.12-8.38-4.89c-1.84-2.69-2.3-3.16-1.38-1.39.8,1.8,1.93,3.38,3.41,4.76,2.71,2.78,5.58,4.06,9.11,5.49-8.6-3.49,4.46,1.7,2.68,1.15,1.21.37,2.45.57,3.65.94l-8.38-4.89c.97.93,4.2,4.67.17-.2,2.14,2.58,3.59,4.94,6.21,6.97,7.07,5.46,15.67,5.52,23.45,1.49l-9.59,2.59.83-.05-9.59-2.59-2.48-1.85c1.72,1.85,3.76,3.16,6.11,3.93,1.42.6,2.76,1.03,4.16,1.59l-11.35-8.73.4.87-2.59-9.59c.63,5.76,2.07,10.63,6.22,14.89,2.43,2.49,5.87,4.27,9.25,5.02,2.07.45,9.25,1.71,10.44-.13,2.06-.71.36-.95-5.1-.71-5.5-1.42-7.02-1.43-4.56-.01,2.49,1.46,5.26,2.17,8.08,2.55,5.06.68,9.96-.3,14.41-2.85l-9.59,2.59.72.05-9.59-2.59.73.55-6.82-6.82c3.17,5.95,10.6,10.7,17.51,10.39,7.62-.34,13.41-3.93,17.6-10.23l-6.82,6.82-2.84,1.2h-10.1l.94.36-8.38-4.89c-2.62-3.78-2.18-3.32,1.31,1.37,2.37,2.35,5.17,3.98,8.38,4.89,3.58,1.06,7.34,1.22,10.96.22,7.3-2.01,12.26-7.82,14.32-14.98l-4.89,8.38.59-.53-8.38,4.89.74-.12-14.64-1.92c6.28,2.7,11.55,3.89,18.34,2.01,2.36-.66,4.57-1.8,6.8-2.8-5.83,2.64-1.19.74.13.2,9.17-3.74,16.69-12.8,13.27-23.37-2.86-8.84-13.52-17.29-23.37-13.27h0Z"/></g><path class="cls-2" d="M99.93,41.98c0,.9-.27,1.77-.27,2.65s-.08,1.72-.19,2.59c-.08.6.78,1.2.92,1.85s.32,1.26.44,1.87c.13.66-.44,1.32-.6,1.9s-.63.88-1.24,1.34c-.53.4-1.15.74-1.7,1.13-.62.44-.64,1.33-.88,1.89s-.16,1.09-.05,1.82c.1.66-.24,1.41-.15,2.06.09.74.01,1.28-.3,1.82-.45.77-.48,1.85-1,2.62s-1.46,1.26-2,1.96-.8,1.76-1.49,2.39-1.91.69-2.54,1.31-1.01,1.58-1.79,2.09-1.7.77-2.4,1.31-1.62.61-2.53.86-1.76.66-2.53,1.1-1.3,1.26-2.05,1.7-1.79.3-2.62.64-1.53.94-2.38,1.14-1.76.11-2.62.34-1.44,1.15-2.24,1.69-1.76.81-2.65.93-1.79.32-2.7.55-1.8.85-2.7.85-1.74-.81-2.63-1.17-1.84-.5-2.71-.61-1.77-.28-2.66-.4-1.82-.14-2.67-.37-1.77-.44-2.6-.77-1.66-.7-2.48-1.04-1.19-1.43-1.82-2.12-1.27-1.5-2.03-1.94-1.62-.69-2.35-1.12-1.27-1.11-1.98-1.65-1.83-.58-2.41-1.21-.75-1.65-1.37-2.27-1.6-.84-2.25-1.4-1.15-1.32-1.69-2.03-1.16-1.36-1.85-1.96-1.12-1.31-1.57-2.08-.89-1.49-1.12-2.36-.88-1.57-1.22-2.39.23-1.88.09-2.75-.65-1.66-.88-2.52-.54-1.67-.87-2.48-.76-1.6-.88-2.49.49-1.69.68-2.57-.18-1.8-.18-2.69c0-.6.23-1.29-.03-1.89s-1.06-.94-1.29-1.51c-.25-.62,0-1.35.08-1.96.12-.88.41-1.79.46-2.71s-.54-1.94-.32-2.8c.16-.6.75-1.18,1.25-1.65.46-.43,1.34-.46,1.82-.88.52-.46.49-1.27.72-1.83s.4-1.08.39-1.74c-.01-.63.4-1.29.4-1.91,0-.67-.11-1.25.2-1.77s.85-.75,1.46-1.07c.56-.29,1.18-.53,1.75-.81.62-.3.76-1.1,1.13-1.58.54-.7,1.48-1.21,1.8-2.07s.44-1.74,1.07-2.37.8-1.66,1.32-2.43,1.44-1.17,2.15-1.71,1.38-1.11,2.22-1.49,1.55-.96,2.32-1.41,1.82-.26,2.76-.34,1.78-.41,2.6-.75,1.5-.88,2.23-1.43,1.61-.79,2.48-1.02,1.68-.63,2.56-.74,1.8.17,2.68.05,1.71-.06,2.6-.02,1.75-.48,2.64-.48c.6,0,1.31.43,1.93.21s1-1,1.58-1.19c.63-.2,1.31.07,1.91.15s.99.52,1.52.97c.48.41.93.9,1.41,1.33.52.47,1.18.96,1.76,1.11.86.23,1.87-.12,2.65.2s1.35,1.15,2.17,1.49,1.82.41,2.75.45,2.02-.31,2.79.13,1.59.78,2.48,1.08,1.67.83,2.38,1.37,1.54,1.01,2.16,1.69,1.05,1.52,1.67,2.15,1.23,1.32,1.74,2.07.72,1.71,1.26,2.41.95,1.46,1.16,2.37.13,1.98.57,2.74c.3.52,1.08.82,1.65,1.2.53.36.99.86,1.5,1.23.56.4,1.45.53,1.68,1.1.34.82-.01,1.88-.04,2.84s.41,1.81.64,2.66.13,1.84.12,2.73-.67,1.8-.56,2.69.74,1.67.97,2.52.39,1.7.39,2.6Z"/><path class="cls-9" d="M62.8,6.3c0-1.01.36-1.01.36-2.02,0-.67-.15-1.28.16-1.82s.75-1.06,1.31-1.38,1.18-.38,1.85-.38c.37,0,.37-.19.74-.19.67,0,1.23.41,1.77.72s1.43.48,1.75,1.03.34,1.37.34,2.03c0,1.01-.26,1.01-.26,2.02,0,.67.18,1.46-.13,2s-.94,1.09-1.49,1.41-1.3,0-1.97,0c-.37,0-.37-.04-.74-.04-.67,0-1.13-.17-1.67-.48s-1.01-.61-1.33-1.16-.68-1.06-.68-1.73Z"/><path class="cls-2" d="M62.8,6.3c0-1.01.36-1.01.36-2.02,0-.67-.15-1.28.16-1.82s.75-1.06,1.31-1.38,1.18-.38,1.85-.38c.37,0,.37-.19.74-.19.67,0,1.23.41,1.77.72s1.43.48,1.75,1.03.34,1.37.34,2.03c0,1.01-.26,1.01-.26,2.02,0,.67.18,1.46-.13,2s-.94,1.09-1.49,1.41-1.3,0-1.97,0c-.37,0-.37-.04-.74-.04-.67,0-1.13-.17-1.67-.48s-1.01-.61-1.33-1.16-.68-1.06-.68-1.73Z"/><path class="cls-9" d="M22.93,42.99c0-1.01-.25-1.01-.25-2.02,0-.67.28-1.46.59-2s.91-1.13,1.47-1.45,1.32-.05,1.99-.05c.37,0,.37.03.74.03.67,0,1.37-.15,1.91.16s1.02.88,1.35,1.43.71,1.22.71,1.88c0,1.01-.22,1.01-.22,2.02,0,.67-.49,1.15-.81,1.69s-.74.83-1.29,1.16-.98.53-1.64.53c-.37,0-.37.19-.74.19-.67,0-1.37.05-1.91-.27s-1.15-.8-1.47-1.36-.42-1.28-.42-1.95Z"/><path class="cls-2" d="M22.93,42.99c0-1.01-.25-1.01-.25-2.02,0-.67.28-1.46.59-2s.91-1.13,1.47-1.45,1.32-.05,1.99-.05c.37,0,.37.03.74.03.67,0,1.37-.15,1.91.16s1.02.88,1.35,1.43.71,1.22.71,1.88c0,1.01-.22,1.01-.22,2.02,0,.67-.49,1.15-.81,1.69s-.74.83-1.29,1.16-.98.53-1.64.53c-.37,0-.37.19-.74.19-.67,0-1.37.05-1.91-.27s-1.15-.8-1.47-1.36-.42-1.28-.42-1.95Z"/><path class="cls-9" d="M89.57,19.16c0-.5.03-.5.03-1.01,0-1.01.92-1.92,1.93-1.92.19,0,.19.07.37.07,1.01,0,1.99.84,1.99,1.85,0,.5-.31.5-.31,1.01,0,1.01-.66,1.94-1.67,1.94-.19,0-.19-.15-.37-.15-1.01,0-1.96-.78-1.96-1.79Z"/><path class="cls-1" d="M89.57,19.16c0-.5.03-.5.03-1.01,0-1.01.92-1.92,1.93-1.92.19,0,.19.07.37.07,1.01,0,1.99.84,1.99,1.85,0,.5-.31.5-.31,1.01,0,1.01-.66,1.94-1.67,1.94-.19,0-.19-.15-.37-.15-1.01,0-1.96-.78-1.96-1.79Z"/><path class="cls-7" d="M39.4,21.23c-.64-.32-1.28-.62-1.92-.95-.16-.08-.3-.16-.47-.1-.14.05-.21.16-.28.29-.33.59-.63,1.19-.83,1.83s-.38,1.3-.47,1.97-.14,1.34-.16,2.02.03,1.35.06,2.02c.01.31.04.62.16.9.15.34.42.62.71.85.55.43,1.13.82,1.75,1.13s1.28.56,1.95.75,1.36.31,2.06.35c.44.03.89-.04,1.29-.24.66-.32.97-1.06,1.17-1.77.23-.8.4-1.62.29-2.44s-.52-1.6-1.22-2.04"/><path d="M39.63,20.85c-.53-.27-1.07-.52-1.6-.79-.37-.18-.76-.45-1.19-.28-.37.15-.54.54-.71.87-.26.5-.49,1.01-.66,1.54-.36,1.12-.55,2.26-.62,3.43-.07,1.06-.1,2.22.08,3.28.16.96.95,1.54,1.71,2.05.87.59,1.83,1.03,2.83,1.34,1.74.53,4.14.96,5.07-1.05.87-1.88,1.08-4.51-.83-5.82-.48-.33-.93.45-.45.78.84.58,1.09,1.57,1.01,2.54-.07.82-.3,2.12-.95,2.71-.78.71-2.19.34-3.09.11-1.02-.26-1.99-.66-2.88-1.22-.41-.26-.86-.54-1.19-.91-.39-.43-.38-.91-.41-1.45-.05-1.06-.06-2.09.05-3.15s.38-2.23.85-3.23c.1-.22.2-.51.36-.7.23-.29.22-.24.57-.07.53.26,1.07.52,1.6.79s.97-.52.45-.78h0Z"/><path class="cls-9" d="M63.84,12.77c-.15,1.03-.23,2.09.02,3.11s.8,2.01,1.69,2.57c.57.36,1.22.56,1.88.68s1.33.17,1.97.33c.77.19,1.55.51,2.32.73s1.62.3,2.39,0c.63-.24,1.1-.69,1.47-1.25s.6-1.18.78-1.8c.13-.46.31-.94.22-1.41-.11-.53-.46-.99-.79-1.41-.49-.63-1.03-1.23-1.59-1.8s-1.19-1.08-1.91-1.43"/><path d="M63.41,12.65c-.26,1.88-.24,3.86,1.03,5.4s3.38,1.41,5.19,1.94,3.8,1.49,5.49.15c.69-.55,1.13-1.33,1.44-2.14s.66-1.74.41-2.57c-.29-.95-1.14-1.79-1.79-2.51-.78-.86-1.62-1.66-2.67-2.2-.52-.26-.97.51-.45.78.95.48,1.69,1.19,2.4,1.97.61.67,1.77,1.69,1.7,2.68-.07.9-.53,2.03-1.07,2.74-.68.91-1.72,1.19-2.8.98-1.02-.2-1.97-.66-2.98-.89-.94-.21-1.93-.22-2.84-.57-2.27-.86-2.47-3.44-2.19-5.51.08-.57-.79-.81-.87-.24h0Z"/><path class="cls-7" d="M67.65,26c-.58.11-1.17.21-1.75.33s-1.16.26-1.72.42c-.57.17-1.15.37-1.64.71-.79.55-1.28,1.47-1.35,2.42s.28,1.93.98,2.59c.42.39.94.64,1.48.84.84.31,1.71.48,2.6.51s1.78-.01,2.66-.08c.28-.02.59-.08.8-.27.34-.3.27-.85.1-1.27s-.47-.82-.47-1.27"/><path d="M67.53,25.57c-1.64.3-3.5.5-4.96,1.35-1.24.72-1.96,2.16-1.81,3.59.4,3.72,4.98,3.91,7.84,3.73.72-.05,1.57-.16,1.78-.99.09-.35.03-.75-.1-1.08-.15-.4-.45-.77-.48-1.2-.04-.58-.94-.58-.9,0,.04.61.4,1.04.56,1.61.07.23.11.5-.12.64-.25.15-.64.12-.92.14-1.41.08-2.83.12-4.2-.3-1.24-.38-2.33-1.08-2.56-2.45-.2-1.24.44-2.44,1.55-3,1.37-.7,3.06-.87,4.55-1.15.57-.11.33-.97-.24-.87h0Z"/><path class="cls-7" d="M90.03,23.41c.61-.24,1.26-.42,1.9-.54s1.31-.12,1.97-.12c.79,0,1.65.08,2.2.64.42.43.6,1.05.72,1.64.16.81.23,1.64.29,2.47s.04,1.65-.01,2.48c-.01.17-.03.34-.1.49-.2.4-.69.54-1.13.6-.73.1-1.47.14-2.19,0s-1.44-.55-1.71-1.23"/><path d="M90.15,23.84c1.4-.54,2.89-.77,4.39-.63.67.06,1.24.3,1.55.92.33.66.41,1.47.48,2.19.08.8.13,1.6.13,2.4,0,.41,0,.83-.05,1.24-.04.35-.18.49-.51.58-1.16.33-3.21.36-3.78-.94-.23-.53-1.01-.07-.78.45.56,1.27,2.1,1.58,3.35,1.54.64-.02,1.41-.05,1.97-.4.6-.38.65-.99.68-1.64.08-1.56,0-3.18-.33-4.72-.13-.62-.34-1.25-.78-1.73s-1.06-.69-1.68-.77c-1.63-.21-3.35.04-4.88.63-.53.21-.3,1.08.24.87h0Z"/><path class="cls-7" d="M90.05,25.59c0,.14,0,.28,0,.43"/><path d="M89.6,25.59c0,.14,0,.28,0,.43,0,.06.01.12.04.17.02.06.05.1.09.14.04.04.09.07.14.09.05.03.11.04.17.04l.12-.02c.08-.02.14-.06.2-.12l.07-.09c.04-.07.06-.15.06-.23,0-.14,0-.28,0-.43,0-.06-.01-.12-.04-.17-.02-.06-.05-.1-.09-.14-.04-.04-.09-.07-.14-.09-.05-.03-.11-.04-.17-.04l-.12.02c-.08.02-.14.06-.2.12l-.07.09c-.04.07-.06.15-.06.23h0Z"/><path class="cls-7" d="M76.57,4.17c-.09-.14.15-.28.32-.32.72-.13,1.44-.28,2.16-.4s1.45-.21,2.18-.31,1.46-.17,2.18-.25c.19-.02.39-.08.56,0,.22.09.32.35.43.56.35.67.63,1.36.77,2.1s.16,1.48.18,2.24-.02,1.5-.04,2.25c-.02.53.02,1.11-.27,1.55-.39.6-1.16.86-1.87.99-.82.16-1.66.21-2.49.25-.35.01-.74.05-1.06-.11s-.5-.54-.41-.88"/><path d="M77,4.05l-.02-.08-.05.35c.04-.08.52-.11.61-.13.24-.05.48-.09.72-.14.42-.08.84-.15,1.26-.22.87-.13,1.74-.25,2.61-.35.46-.05.93-.13,1.39-.16.22-.01.24-.03.37.13.11.14.19.37.27.53.39.82.61,1.68.68,2.58s.07,1.82.04,2.73c-.02.75.15,1.84-.51,2.35s-1.58.58-2.35.65c-.41.04-2.5.39-2.39-.34.09-.57-.78-.81-.87-.24-.33,2.12,2.68,1.57,3.89,1.4.8-.11,1.66-.27,2.31-.8s.76-1.3.79-2.12c.05-1.93.23-4-.46-5.85-.22-.59-.53-1.67-1.21-1.9-.35-.12-.78,0-1.14.04-.52.06-1.03.11-1.55.18-1.07.14-2.14.28-3.2.47-.63.12-2.29.13-2.08,1.14.12.57.99.33.87-.24h0Z"/><path class="cls-7" d="M57.15,6.59c-.62-.48-1.24-.96-1.87-1.43s-1.26-.94-1.89-1.4c-.32-.24-.69-.47-1.08-.54-.54-.11-1.1.11-1.58.36-.66.34-1.29.77-1.85,1.26s-1.07,1.05-1.51,1.65-.81,1.25-1.1,1.94c-.17.4-.33.83-.28,1.26.07.63.52,1.17,1.05,1.53.48.33,1.03.53,1.6.68s1.15.27,1.73.2"/><path d="M57.47,6.27c-.88-.68-1.76-1.35-2.64-2.01-.72-.54-1.49-1.29-2.39-1.48s-1.83.31-2.58.78c-.8.5-1.53,1.11-2.16,1.81-.66.74-1.22,1.56-1.65,2.46-.38.79-.71,1.63-.35,2.49.68,1.64,3.03,2.36,4.66,2.23.57-.04.58-.94,0-.9-1.24.09-3.64-.43-3.91-1.92-.13-.74.45-1.64.81-2.25.41-.68.9-1.31,1.47-1.88.52-.52,1.11-.98,1.75-1.36.71-.42,1.47-.82,2.26-.38.7.39,1.34.95,1.98,1.44.71.53,1.42,1.07,2.12,1.62.45.35,1.09-.28.64-.64h0Z"/><path class="cls-7" d="M29.42,20.76c-.26.76-.58,1.5-.89,2.25s-.58,1.5-.93,2.23c-.09.19-.22.36-.4.47-.32.2-.74.03-1.05-.17-.68-.45-1.29-1.03-1.76-1.7s-.77-1.46-.94-2.25-.23-1.63-.09-2.44.45-1.58.88-2.28c.12-.2.27-.37.48-.48.31-.18.67-.13,1.02-.08.86.13,1.72.28,2.58.42s1.73.24,2.59.37"/><path d="M28.98,20.64c-.3.87-.67,1.71-1.02,2.57-.15.37-.29.75-.45,1.12-.13.32-.3,1.02-.72,1.01-.35,0-.81-.47-1.06-.68-.27-.24-.52-.49-.75-.77-.55-.68-.89-1.5-1.09-2.35-.21-.91-.24-1.86-.01-2.76.1-.39.24-.76.41-1.12s.37-.86.8-.96,1.01.1,1.43.17.86.14,1.29.21c.98.16,1.97.28,2.96.42.57.09.81-.78.24-.87-.96-.14-1.91-.26-2.87-.41-.9-.14-1.82-.36-2.73-.43-1.66-.12-2.34,2.07-2.53,3.39-.24,1.65.17,3.49,1.11,4.87.44.64.99,1.18,1.61,1.64.56.41,1.28.78,1.92.32.33-.23.48-.6.64-.95.19-.43.36-.87.54-1.31.38-.96.8-1.91,1.14-2.89.19-.55-.68-.78-.87-.24h0Z"/><path class="cls-7" d="M63.05,49.76c-.56-.29-1.25-.25-1.83-.03s-1.12.65-1.35,1.23c-.22.54-.23,1.16-.22,1.75.01.67.06,1.33.09,2,.02.39.06.79.26,1.12.24.41.67.66,1.1.85.67.3,1.37.53,2.07.75s1.41.38,2.13.51,1.44.26,2.18.31,1.47.06,2.2.02c.11,0,.25-.02.34-.09.13-.1.18-.3.2-.46.08-.62.11-1.25.14-1.88s0-1.26-.05-1.89c-.03-.41-.05-.89-.35-1.16-.35-.31-1.1-.39-1.06-.86"/><path d="M63.28,49.37c-1.61-.73-3.65.2-3.99,1.97-.2,1.03-.06,2.12,0,3.16.05.86.18,1.63.91,2.17.81.6,1.91.89,2.86,1.18,1.05.32,2.13.53,3.22.7s2.14.22,3.21.16c.35-.02.71-.03.95-.32.27-.32.27-.81.31-1.21.11-1.21.14-2.46,0-3.67-.05-.39-.16-.78-.45-1.05-.12-.11-.92-.43-.92-.54-.02-.58-.92-.58-.9,0,.01.53.38.77.82.98.27.13.46.21.53.52.1.39.08.84.1,1.24.04.87.01,1.75-.08,2.62-.02.17,0,.41-.15.51-.11.07-.47.02-.6.02-.43,0-.87,0-1.3-.02-1.71-.08-3.44-.47-5.06-1-.7-.23-1.62-.45-2.15-1s-.4-1.6-.43-2.31c-.04-.84-.19-1.95.33-2.68s1.58-1.03,2.37-.67c.52.24.98-.54.45-.78h0Z"/><path class="cls-7" d="M94.74,43.39c.89.49,1.89.79,2.91.83.84.03,1.76-.07,2.44.42.86.61.95,1.83.93,2.89-.01.71-.04,1.44-.34,2.08-.4.83-1.24,1.4-2.12,1.65s-1.82.22-2.74.22c-.59,0-1.19.03-1.75-.15-.92-.29-1.61-1.07-1.98-1.96s-.4-1.88-.21-2.83"/><path d="M94.51,43.78c.67.36,1.39.64,2.14.78.69.13,1.37.09,2.06.13s1.3.26,1.59.92c.25.55.26,1.19.26,1.78,0,.72,0,1.52-.38,2.16-.35.6-.98,1.01-1.63,1.23-.73.24-1.5.25-2.26.25s-1.59.1-2.3-.2c-1.58-.67-1.97-2.64-1.69-4.16.11-.57-.76-.81-.87-.24-.31,1.67-.01,3.55,1.35,4.69.64.54,1.39.77,2.22.81.92.04,1.89.05,2.81-.07,1.69-.21,3.25-1.23,3.55-3,.23-1.34.31-3.36-.77-4.38-.69-.65-1.63-.69-2.53-.7-1.11-.01-2.12-.25-3.1-.77-.51-.27-.97.5-.45.78h0Z"/><path class="cls-9" d="M80.09,68.37c.14.57.44,1.07.72,1.59.3.57.53,1.19.72,1.8s.32,1.26.4,1.9.12,1.29.08,1.94c-.05.73-.24,1.46-.71,2.02-.44.51-1.07.75-1.71.94-.64.19-1.28.34-1.93.45s-1.31.16-1.97.22-1.31.19-1.97.24c-.35.02-.75.03-1.05-.15-.26-.15-.38-.46-.52-.72-.39-.75-.74-1.53-.89-2.37s-.14-1.7-.04-2.53.38-1.64.73-2.41c.24-.53.7-1.13,1.25-.92"/><path d="M79.65,68.49c.22.79.69,1.47,1.02,2.22.34.79.59,1.64.74,2.49.27,1.59.5,3.9-1.27,4.68-1.56.69-3.3.73-4.96.95-.63.08-2.06.53-2.48-.13s-.78-1.52-.96-2.31c-.23-1.01-.22-2.14,0-3.16.11-.49.59-2.63,1.33-2.44.56.14.8-.73.24-.87-.92-.23-1.51.55-1.84,1.3-.44.99-.71,2.01-.77,3.09s.06,2.21.47,3.24c.29.74.66,1.92,1.47,2.24.92.36,2.1-.03,3.04-.13,1.1-.11,2.18-.21,3.26-.48.9-.22,1.89-.48,2.56-1.15s.93-1.71.97-2.67c.05-1.22-.13-2.48-.47-3.65-.17-.56-.37-1.12-.62-1.66-.29-.61-.66-1.17-.84-1.83-.16-.56-1.02-.32-.87.24h0Z"/><path class="cls-9" d="M45.27,56.25c-.68.14-1.34.45-1.94.8s-1.1.85-1.57,1.37-.93,1.06-1.2,1.71c-.12.29-.21.64-.11.94.1.28.41.41.66.57.73.46,1.47.89,2.29,1.15s1.65.46,2.5.6,1.71.19,2.55.29c.61.07,1.24.22,1.85.13.81-.12,1.57-.55,2.15-1.12s.99-1.32,1.26-2.07.45-1.57.49-2.38-.02-1.63-.07-2.43c0-.1-.04-.21-.09-.29-.09-.13-.25-.16-.41-.19-.59-.12-1.15-.33-1.74-.45"/><path d="M45.15,55.82c-2.04.48-4.03,2.06-4.92,3.98-.35.75-.39,1.54.36,2.04.91.61,1.91,1.14,2.95,1.46,1.15.35,2.33.57,3.53.69,1.08.11,2.3.43,3.38.26,2.17-.35,3.47-2.33,3.98-4.32.34-1.32.36-2.76.19-4.11-.05-.37-.19-.67-.53-.83-.6-.28-1.4-.39-2.04-.54-.56-.13-.8.74-.24.87.33.08.66.17.99.26.21.06.59.07.75.19.19,0,.25.1.19.32l.02.27c.03.36.04.72.05,1.08.02,1.12-.15,2.23-.57,3.27s-1.15,1.99-2.22,2.44-2.2.11-3.3,0c-1.16-.11-2.31-.27-3.44-.58-1.02-.27-2.27-.71-3.08-1.42-.86-.75.65-2.18,1.2-2.75.82-.85,1.84-1.44,2.99-1.71.56-.13.33-1-.24-.87h0Z"/><path class="cls-7" d="M61.67,15.8c-.34-.08-.78-.14-.99.13-.06.08-.09.18-.12.28-.31,1.06-.63,2.11-.93,3.17-.14.49-.21,1.09.19,1.42.2.16.45.2.71.24.58.08,1.16.2,1.74.28s1.16.17,1.74.26c.09.01.19,0,.28-.03.1-.04.13-.16.18-.25.41-.78.87-1.55,1.03-2.4s.01-1.79-.55-2.47"/><path d="M61.79,15.37c-.5-.12-1.11-.16-1.46.29-.17.22-.22.51-.29.76-.11.36-.21.73-.32,1.09-.19.63-.4,1.27-.56,1.91-.12.52-.15,1.1.2,1.54.41.52,1.11.52,1.71.62.65.11,1.31.21,1.96.31.55.08,1.4.38,1.76-.22.32-.54.61-1.13.85-1.7.54-1.29.53-2.73-.36-3.86-.15-.19-.48-.16-.64,0-.19.19-.15.45,0,.64.54.69.57,1.63.33,2.44-.15.48-.38.93-.61,1.38-.1.19-.24.38-.31.58-.06.19.05-.08.06,0,0,0-.13-.01-.14-.01-.15-.02-.29-.04-.44-.06-1.01-.15-2.02-.3-3.03-.47-.17-.03-.37-.06-.47-.22-.09-.14-.07-.34-.05-.5.06-.46.24-.91.37-1.35.17-.56.34-1.13.5-1.69.04-.13.09-.56.2-.63.11-.07.38.02.49.04.56.13.8-.73.24-.87h0Z"/><path class="cls-5" d="M47.94,38.03c-.95,0-.95.53-1.91.53s-.95-.91-1.91-.91c-.9,0-1.8.11-2.4-.48s-.54-1.49-.54-2.4c0-1.24-.25-1.24-.25-2.47s.02-1.24.02-2.47c0-.9-.23-1.95.19-2.67s1.27-1.41,2.02-1.84,1.71-.57,2.61-.57c.25,0,.25.08.5.08.9,0,1.69.39,2.42.82s1.42.98,1.85,1.73.29,1.57.29,2.46c0,1.24.33,1.24.33,2.47s.07,1.24.07,2.47c0,.9-.69,1.43-1.29,2.03s-1.12,1.23-2.03,1.23Z"/><path class="cls-2" d="M47.94,38.03c-.95,0-.95.53-1.91.53s-.95-.91-1.91-.91c-.9,0-1.8.11-2.4-.48s-.54-1.49-.54-2.4c0-1.24-.25-1.24-.25-2.47s.02-1.24.02-2.47c0-.9-.23-1.95.19-2.67s1.27-1.41,2.02-1.84,1.71-.57,2.61-.57c.25,0,.25.08.5.08.9,0,1.69.39,2.42.82s1.42.98,1.85,1.73.29,1.57.29,2.46c0,1.24.33,1.24.33,2.47s.07,1.24.07,2.47c0,.9-.69,1.43-1.29,2.03s-1.12,1.23-2.03,1.23Z"/></g></svg>