<?xml version="1.0" encoding="UTF-8"?><svg id="_레이어_2" xmlns="http://www.w3.org/2000/svg" viewBox="0 0 69.96 60.9"><defs><style>.cls-1{fill:none;stroke:#000;stroke-miterlimit:10;}.cls-2{fill:#af6822;}.cls-3{fill:#cc7f3a;}.cls-4{fill:#381300;}.cls-5{fill:#471d0a;}</style></defs><g id="_레이어_1-2"><path class="cls-5" d="M18.48,2.12c-4.33.87-6.96,6.59-8.92,10.1-1.16,2.07-2.16,4.23-3.03,6.44-1.11,2.83-1.36,6.19-2.65,8.9-2.29,4.79,3.83,10.59,7.85,6.06,3.36-3.79,6.41-7.86,8.86-12.3s3.33-9.32,5.6-13.56l-2.99,2.3c4.53-.97,11.01.6,15.49,1.34,6.3,1.04,9-8.59,2.66-9.64-4.93-.82-9.89-1.43-14.89-1.61-3.69-.13-7.32-.44-9.28,3.26s-2.77,8.27-4.83,12.14-4.69,7.62-7.69,11l7.85,6.06c1.75-3.68,2.16-7.71,3.75-11.45.78-1.85,1.74-3.61,2.77-5.34.52-.86,3.39-4.32,2.1-4.06,6.3-1.27,3.64-10.91-2.66-9.64h0Z"/><path class="cls-5" d="M28.49,4.54c-4.22,1.7-7.37,4.12-9.66,8.1-2.02,3.51.62,7.19,4.32,7.52,10.09.9,20.36-1.58,30.35.54l1.33-9.82c-4.09-.06-9.48.7-13.46-.26l2.99,2.3c-.36-.65-.61-1.35-.74-2.09.23,1.23.95,1.71,2.16,1.45V2.28l-2-.44v9.64c3.25-.5,8.02.8,10.8,2.56,2.44,1.55,2.57,4.46,3.01,7.11,1.2,7.32,1.91,14.82.47,22.16l9.82,1.33c-.08-1.3.14-2.55.64-3.75h-9.64l.42.83,9.82,1.33c-.04-1.37-.02-2.7.06-4.07h-10c.17,4.66-.64,8.82-2.42,13.13l9.82,1.33c.21-8,.44-16.02-.26-24-.48-5.47-.29-13.88-7.11-15.24-6.28-1.25-8.97,8.39-2.66,9.64-1.61-.32-.82.32-.61,1.93.16,1.22.28,2.44.38,3.67.24,2.76.36,5.52.42,8.29.11,5.24-.03,10.48-.16,15.71-.16,6.09,7.81,6.18,9.82,1.33s2.98-10.32,2.78-15.78c-.23-6.46-9.61-6.41-10,0-.08,1.37-.1,2.7-.06,4.07.17,5.34,9.02,7.14,9.82,1.33.3-2.2.41-4.05-.42-6.14-1.75-4.44-8.1-5.03-9.64,0-.66,2.14-.95,4.17-1,6.4-.13,5.52,8.72,6.95,9.82,1.33,2.01-10.23,1.86-23.04-1.74-32.96C62.59,3.7,50.04.46,41.12,1.83c-5.13.79-4.37,8.37,0,9.64,1.64.48,2.96.65,4.65.8,6.45.56,6.31-9.33,0-10-7.53-.8-13.8,3.89-11.61,11.87.86,3.13,2.16,5.6,5.54,6.35,4.69,1.04,10.32.31,15.12.38,5.53.08,6.94-8.63,1.33-9.82-10.98-2.33-21.95.09-33.01-.9l4.32,7.52c.92-1.6,1.91-2.79,3.68-3.5,5.89-2.37,3.32-12.05-2.66-9.64h0Z"/><path class="cls-4" d="M30.94,20.57c-5.01-.58-10.05-.89-15.1-.89-1.22,0-2.55-.11-3.75.2s-2.14,1.06-2.94,1.97c-1.47,1.66-2.77,3.51-3.87,5.44-2.29,4.02-3.65,8.41-4.26,12.98-.33,2.44-.47,4.89-.55,7.36s-.19,5.07.67,7.45l1.75-3.08c-.36.06-.71.11-1.07.17l1.33,4.82c1.4-.25,2.76-.08,4.1.35l.66-4.91-2.16.29c-1.34.18-2.5,1.02-2.5,2.5,0,1.35,1.14,2.51,2.5,2.5l32.09-.12v-5l-3.55.43c-1.24.15-2.3.83-2.46,2.17-.13,1.11.55,2.56,1.79,2.74,6.03.89,12.09,1.64,18.16,2.22,1.46.14,2.93.27,4.39.39,1.38.11,3.03.48,4.39.12,1.61-.41,2.78-1.97,2.52-3.64s-1.52-2.17-2.94-2.66l1.1.64-.18-.17.64,2.43-1.21.98c-.68-.67-.98-.82-.91-.46.02,0-.03,1-.01.44h5c.07-2.27-.47-4.41-1.51-6.42l.34,1.26c.35-4.42.28-8.85-.22-13.25l-4.91.66c.62,1.88.71,3.78.83,5.74.13,2.23.27,4.47.4,6.7l4.91-.66c-1-4.77-1.86-9.49-2.17-14.36-.16-2.48-.32-4.98-.87-7.41-.25-1.11-.54-2.41-1.16-3.38-.68-1.07-1.67-1.56-2.81-2.01-4.42-1.74-9.08-2.94-13.78-3.61-2.43-.35-4.86-.6-7.31-.69-1.23-.05-2.46-.05-3.68-.03-.69.02-2.06.34-2.7.07l-1.26,4.66c4.29-.1,8.57-.19,12.86-.29,2.14-.05,4.29-.1,6.43-.15,1.07-.02,2.14-.05,3.21-.07.88-.02,1.94-.18,2.82,0,1.26.25,1.62,1.77,2.01,2.82.7,1.88,1.31,3.78,1.84,5.72,1.03,3.8,1.71,7.68,2.02,11.61.11,1.35,1.07,2.5,2.5,2.5,1.27,0,2.61-1.15,2.5-2.5-.36-4.52-1.1-9.01-2.32-13.38-.61-2.19-1.33-4.37-2.18-6.48-.75-1.86-1.73-3.66-3.6-4.58s-4.21-.73-6.32-.68c-2.47.06-4.95.11-7.42.17-4.78.11-9.56.22-14.34.32-1.1.02-2.12.76-2.41,1.84-.27.97.15,2.4,1.15,2.82,2.15.92,4.32.59,6.6.59s4.61.13,6.89.38c4.42.49,8.81,1.54,13.01,2.99.51.18,1.01.36,1.52.55.29.11.57.22.86.33-.16-.07-.28-.19-.36-.35.22-.01.76,2.8.81,3.04.4,2.16.45,4.37.6,6.56.34,4.84,1.27,9.59,2.26,14.33.57,2.74,5.08,2.16,4.91-.66-.14-2.4-.29-4.8-.43-7.2-.13-2.21-.28-4.45-.98-6.57-.39-1.18-1.48-1.98-2.74-1.79-1.11.17-2.31,1.2-2.17,2.46.36,3.26.51,6.54.41,9.82-.05,1.63-.46,3.36.24,4.88.56,1.21.78,2.39.73,3.72-.11,3.22,4.87,3.21,5,0,.08-2.03-.9-4.23-3.01-4.82s-4.04.55-4.69,2.53c-.27.82.02,1.85.64,2.43.39.37.76.64,1.28.81.08.03.73.27.42.09l-.9-.9.13.25-.34-1.26v.29c.1-.42.22-.84.33-1.26l.04-.03,1.1-.64c-.74.28-2.14-.06-2.94-.13-.98-.08-1.95-.16-2.93-.25-2.11-.19-4.22-.4-6.33-.63-4.16-.45-8.31-.98-12.45-1.59l-.66,4.91,3.55-.43c1.34-.16,2.5-1.03,2.5-2.5,0-1.35-1.14-2.51-2.5-2.5l-32.09.12v5l2.16-.29c1.23-.17,2.3-.82,2.46-2.17.15-1.25-.58-2.36-1.79-2.74-2.23-.7-4.47-.75-6.76-.35-1.33.24-2.08,1.86-1.75,3.08.39,1.42,1.74,1.96,3.08,1.75.36-.06.71-.11,1.07-.17,1.27-.2,2.17-1.91,1.75-3.08-.71-1.98-.55-4.05-.49-6.12.07-2.19.16-4.39.44-6.56.49-3.81,1.61-7.52,3.47-10.89.87-1.57,1.86-3.1,3.02-4.48.52-.62.7-.99,1.47-1.01,1.14-.03,2.28-.02,3.42,0,4.56.06,9.11.36,13.64.88,1.34.16,2.5-1.26,2.5-2.5,0-1.48-1.15-2.34-2.5-2.5h0Z"/><path class="cls-2" d="M14.11,49.9c.37-3.84.48-7.89,1.46-11.63.64-2.46,1.03-4.23,3.45-5.14,1.48-.55,4.29.05,5.81.09,3.87.1,7.75.28,11.61.55,2.41.17,11.79-.24,13.04,1.72,2.09,3.26,7.47,2.07,7.45-2.02v-1.18c-2.62.35-5.24.71-7.86,1.06.76,5.54,3.6,11.54,2.05,17.24l1.84-2.39c-2.1,1.52-6.56.28-8.89-.09-3.02-.47-5.69-.09-8.3-2.04-2.11-1.58-5.26.13-5.88,2.39l-.28,1.03,3.86-2.94c-3.5-.26-7.08-.66-10.61-.94s-6.47-.3-10.08-.04l3.45,6.02c1.89-3.48,5.44-5.84,6.76-9.68,1.38-4.03-.38-5.57-2.25-8.83-1.7-2.96-6.44-2.37-7.31.96-.38,1.46-.68,2.89-.92,4.38-.56,3.47,3.84,7.32,6.69,3.89.56-.67,1.42-2.24,2.19-2.63,1.17-.6,3.6-.28,4.94-.3,2.92-.04,5.85-.08,8.77-.12,2.6-.03,5.2-.07,7.8-.1l4.87-.06,1.95-.03c1.49.03,1.3-.04-.58-.21l2.79-2.79c-2.46.97-6.22.59-8.81.73-3.09.17-6.19.29-9.29.37-4.97.13-10.9-.43-15.22,2.47-2.25,1.51-2.93,5.57,0,6.91,10.25,4.68,22,3.19,32.96,4.06,5.13.41,5.11-7.6,0-8-9.2-.73-20.34.95-28.93-2.97v6.91c3.51-2.36,9.87-1.32,13.96-1.46,4.64-.16,9.29-.39,13.92-.77,2.56-.21,5.39-.4,6.31-3.32.68-2.17-.09-5.84-1.36-7.64-1.66-2.35-4.14-2.27-6.76-2.27-4.55.01-9.1.12-13.65.18s-9.16-.21-13.65.18c-4,.34-5.46,2.26-7.91,5.2l6.69,3.89c.24-1.49.54-2.92.92-4.38l-7.31.96c.08.13,2.01,2.62,2.01,2.54,0,.07-1.88,1.82-2.19,2.19-1.57,1.87-3.15,3.54-4.32,5.7-1.36,2.49.3,6.25,3.45,6.02,7.04-.5,13.71.45,20.7.98,1.73.13,3.42-1.33,3.86-2.94l.28-1.03-5.88,2.39c3.82,2.87,7.84,2.57,12.34,3.26,3.68.56,8.91,1.19,12.35-.7,3.2-1.76,3-5.79,2.93-8.97-.1-5.31-1.86-10.13-2.57-15.33-.62-4.53-7.88-3.34-7.86,1.06v1.18c2.49-.67,4.97-1.35,7.46-2.02-3.18-4.96-8.79-4.74-14.15-5.22-7.07-.64-14.18-1.06-21.28-1.09-6.26-.02-9.55,1.8-12.01,7.74-2.2,5.31-2.29,11.36-2.83,17.01-.5,5.12,7.51,5.09,8,0h0Z"/><path class="cls-4" d="M14.61,20.75c-3.84-.86-6.11,2.53-7.89,5.36s-2.89,6.23-3.54,9.61c-.7,3.63-1.29,7.31-1.64,10.99-.17,1.79-.25,3.59-.17,5.38s.46,3.47,2.11,4.54c2.71,1.75,5.22-2.57,2.52-4.32l.44.56-.07-.31c.01-.1,0-.51-.01-.71-.02-.65-.02-1.31,0-1.96.03-1.47.15-2.94.32-4.4.3-2.68.75-5.36,1.25-8.01.44-2.35.96-4.76,2.02-6.91.59-1.2,1.34-2.33,2.09-3.43.26-.38.51-.74.83-1.08.16-.17.32-.32.52-.45.35-.24-.08-.04-.09-.04,3.13.7,4.47-4.12,1.33-4.82h0Z"/><path class="cls-1" d="M51.52,2.1c-3.79-.73-7.67-1-11.51-.68-1.42.12-2.83.32-4.25.25-1.65-.08-3.25-.52-4.87-.8-4.42-.76-9.03-.36-13.24,1.17-.45.16-.9.34-1.29.63-.44.32-.76.76-1.08,1.2-2.74,3.81-5.05,7.92-6.88,12.24-1.74,4.1-3.06,8.42-5.52,12.13"/><path class="cls-1" d="M53.94,3.37c1.99.55,3.96,1.19,5.91,1.9,1.04.38,2.11.81,2.88,1.61.68.71,1.06,1.65,1.42,2.56,1.23,3.08,2.47,6.18,3.21,9.42.34,1.5.57,3.03.78,4.55.93,6.86,1.38,13.8,1.32,20.72,0,1.15-.03,2.32-.29,3.44-.27,1.17-.79,2.27-1.27,3.37-1,2.28-1.87,4.62-2.59,7"/><path class="cls-1" d="M59.94,8.37c-1.86,3.23-3.41,6.64-4.61,10.17"/><path class="cls-1" d="M11.53,28.42c.94-1.36,2.13-2.7,3.74-3.12.69-.18,1.41-.19,2.12-.19,2.92-.01,5.85-.02,8.76.27,2.35.23,4.67.65,7.02.82,2.95.21,5.92,0,8.88.11,4.14.14,8.26.88,12.19,2.18.56.18,1.13.39,1.57.78,1.01.89,1.06,2.4,1.14,3.74.37,6.31,3.02,12.57,1.84,18.78-.18.97-.48,1.96-1.14,2.69-.69.78-1.71,1.18-2.72,1.43-2.03.49-4.15.45-6.24.4-3.48-.08-7-.17-10.4-.93-1.76-.39-3.47-.96-5.24-1.3-2.17-.42-4.4-.49-6.61-.56-2.66-.08-5.32-.16-7.99-.25-1.11-.03-2.21-.07-3.32.01-2.24.16-4.58.79-6.82.29-2.49-.55-1.91-2.55-1.93-4.7-.02-4.56.39-9.19,1.79-13.55.78-2.44,1.88-4.78,3.34-6.89Z"/><path class="cls-1" d="M50.83,20.8c1.41.34,2.89-.54,4.3-.24,1.26.26,2.15,1.37,2.84,2.46,2.32,3.67,3.62,7.88,4.9,12.03.38,1.24.76,2.48,1,3.76.34,1.85.38,3.74.41,5.63.09,5.21.18,10.43.28,15.64-8.99,1.09-18.04-.82-27.06-1.64-6.87-.63-13.79-.63-20.69-.63-3.5,0-7.01,0-10.51,0-1.88,0-4.2-.75-5.73-1.84.06-5.08.26-10.16.6-15.22.15-2.26.34-4.53.93-6.71,1.21-4.48,4.04-8.32,6.81-12.04.52-.69,1.06-1.41,1.84-1.8.64-.32,1.37-.39,2.08-.44,11.37-.8,22.76,1.24,34.15.92"/><path class="cls-2" d="M18.6,37.58c6.24-1.28,12.3-.59,18.21,1.71,4.8,1.87,6.88-5.87,2.13-7.71-7.25-2.82-14.87-3.27-22.46-1.71-5.04,1.04-2.91,8.75,2.13,7.71h0Z"/><path class="cls-3" d="M10.16,52.01c8.26-2.84,16.98.04,25.45-.56,1.28-.09,1.29-2.09,0-2-8.66.62-17.52-2.27-25.98.63-1.21.42-.69,2.35.53,1.93h0Z"/><path class="cls-3" d="M40.15,53.25c1.62.24,3.24.5,4.85.8s3.19.64,4.79-.02c2.42-1,4.22-3.24,4.73-5.8.25-1.26-1.68-1.79-1.93-.53-.4,2.01-1.79,3.91-3.78,4.57-1.26.42-2.65-.04-3.91-.27-1.4-.25-2.81-.47-4.22-.68-.54-.08-1.07.13-1.23.7-.13.47.16,1.15.7,1.23h0Z"/><path class="cls-3" d="M32.86,31.09c7.02-.38,13.99.63,20.62,2.98l-.24-1.83c-4.81,3.31-10.45,5.07-16.29,5.03-.49,0-1.07.46-1,1,.18,1.41,1.22,1.87,2.52,2.08,2.11.34,4.07.89,5.98,1.88l-.36-1.37c-.63.97-1.96,1.04-3,1.15-1.12.11-2.17.28-3.17.82-.73.4-.6,1.65.24,1.83,2.75.57,5.53.94,8.34,1.11l-.27-1.96c-5.62,2.01-11.6,1.73-17.47,1.42-1.29-.07-1.28,1.93,0,2,6.03.32,12.22.58,18-1.49,1.06-.38.89-1.9-.27-1.96-2.63-.15-5.23-.5-7.81-1.04l.24,1.83c1.29-.7,2.81-.48,4.2-.84,1.12-.29,2.05-.87,2.68-1.85.28-.44.1-1.13-.36-1.37-1.27-.65-2.59-1.2-3.96-1.58-.33-.09-3.54-.61-3.54-.65l-1,1c6.17.04,12.22-1.8,17.3-5.3.73-.5.59-1.53-.24-1.83-6.78-2.4-13.97-3.44-21.15-3.05-1.28.07-1.29,2.07,0,2h0Z"/><path class="cls-3" d="M24.63,46.42c1.29,0,1.29-2,0-2s-1.29,2,0,2h0Z"/></g></svg>