<?xml version="1.0" encoding="UTF-8"?><svg id="_레이어_2" xmlns="http://www.w3.org/2000/svg" viewBox="0 0 83.24 80.5"><defs><style>.cls-1{fill:#a5704c;}.cls-2{fill:none;stroke:#000;stroke-linecap:round;stroke-linejoin:round;}.cls-3{fill:#72400a;}</style></defs><g id="_레이어_1-2"><path class="cls-3" d="M3.19,35.38c-.38,3.09-1.4,7.13-2.56,10.46-.47,1.34.08,2.92,1.03,3.89,1.78,1.84,4.64,1.87,6.62.35.94-.73,1.56-1.57,1.97-2.7.12-.32.24-.65.3-.99.15-.77-.34.4.14-.27l-7.31-.96c.06.34.12.69.18,1.03.29,1.65,2.23,3.01,3.86,2.94,1.85-.08,3.25-1.2,3.86-2.94.31-.87.61-1.74.92-2.6l-7.71-2.13c-1.16,4.15-2.13,8.42-1.13,12.71s3.7,6.73,7.12,8.94c.29.19.58.38.87.57.23.16.8.63.29.18.26.23.55.63.85.8s0-.03-.1-.17c.12.19.24.37.35.57,0,.01.27.6.12.24s.08.26.08.26c.22.63.48,1.27.77,1.87.5,1.07,1.26,1.97,2.19,2.68,1.6,1.24,3.43,1.63,5.4,1.83.7.07,1.41.09,2.12.14.32.02.65.04.97.09-.85-.11,0,.13.31.13.53,0-.62-.24-.12-.07.14.05.26.15.39.22-.1-.05-.61-.27-.21-.12.26.1.09.11-.05-.09.63.87,1.15,1.85,1.97,2.57,1.78,1.58,3.99,2.12,6.32,2.25,2.02.12,4.04-.15,6.05-.34.89-.08,1.78-.15,2.67-.17.51,0,1.03,0,1.54.04-.02,0,.69.08.34.03-.25-.04.47.1.55.12,1.93.45,3.64,1.47,5.63,1.74,2.6.35,4.79-.45,7.05-1.69,3.77-2.07,7.59-4.09,11.29-6.27,4.31-2.54,6.24-7.13,8.06-11.57,1.68-4.12,2.83-8.43,3.43-12.83.28-2-.32-3.88-2.32-4.72s-3.85-.03-5,1.64c-1.31,1.91-1.75,4.16-2.28,6.37-.12.5-.27,1-.41,1.49-.03.11-.28.71-.02.12-.11.23-.24.46-.36.68,0,0-.36.55-.14.25.24-.34-.27.3-.33.36-.42.44-.87.84-1.33,1.23-1.81,1.52-3.13,2.56-5.16,3.89s-3.8,2.18-6,2.85c-4.85,1.46-9.63,2.13-14.5,2.5-2.59.2-5.18.28-7.77.24s-4.45-.08-6.81-.89c-2.11-.73-4.54-1.99-6.85-3.14-2.6-1.3-5.15-2.67-7.67-4.1v6.91c-.1.04-.91.39-1.27.28.07.02-.51-.25-.45-.27.16-.05.91.94,1.03,1.09.78.9,1.59,1.64,2.54,2.36,1.6,1.21,3.5,1.99,5.39,2.6,1.76.57,3.57.97,5.35,1.46.83.23,1.65.48,2.46.79.11.04.77.33.31.12s.18.1.29.15c.45.23.87.49,1.31.75.13.08.62.44,0-.03.2.15.39.33.58.49.5.41,1.01.85,1.57,1.18,1.47.86,3.11,1.01,4.78,1.05,2.6.07,5.21.13,7.81.2,5.21.13,10.3-.1,15.21-2.04s10.64-4.27,14.02-8.73c1.27-1.68.32-4.55-1.44-5.47-2.11-1.11-4.12-.35-5.47,1.44.37-.49-.04.01-.12.08-.19.17-.37.36-.56.54-.07.07-.58.47-.1.1-.16.12-.32.23-.48.33-.88.59-1.82,1.08-2.76,1.56-1.89.94-4.05,2-5.63,2.6-2.22.85-4.43,1.41-6.49,1.55-2.46.17-4.93.07-7.4,0-1.22-.03-2.44-.06-3.66-.09s-2.66-.28-3.87-.1c.07-.01.37.16.36.16,0,0-.56-.34-.22-.11.37.24-.26-.22-.33-.28-.27-.22-.54-.43-.82-.64-.8-.62-1.64-1.16-2.56-1.59-3.47-1.64-7.24-2.15-10.81-3.46-.11-.04-.78-.3-.3-.11.5.2-.34-.16-.43-.21-.44-.22-.86-.47-1.28-.73-.14-.09-.27-.19-.4-.28.73.51-.09-.12-.2-.22-.35-.34-.66-.71-.98-1.08-2.4-2.75-5.58-3.9-9.01-2.35-2.8,1.26-2.41,5.53,0,6.91,4.84,2.76,9.82,5.35,14.97,7.48s11.18,1.93,16.73,1.61,11.31-1.09,16.75-2.51c2.68-.7,5.32-1.7,7.72-3.09s4.52-3.07,6.66-4.76c2.42-1.92,4.44-3.84,5.61-6.76.48-1.21.72-2.48,1.01-3.74.14-.63.32-1.24.51-1.86.04-.14.32-.66.03-.1.18-.34.37-.66.59-.98l-7.31-3.08c-.5,3.6-1.34,7.13-2.56,10.55-.61,1.72-.96,2.57-1.74,4.18-.39.8-.79,1.6-1.22,2.38-.49.89-.73,1.29-1.19,1.76s.72-.43-.27.24c-.33.22-.67.43-1.02.63-.8.47-1.62.9-2.43,1.35-1.88,1.04-3.77,2.09-5.65,3.13-.72.4-1.45.8-2.17,1.2-.42.23-.83.47-1.25.69.06-.03-1.22.57-.63.34-.04.01-1.31.26-.63.18l-.42-.02c.38.04.32.01-.17-.08-.94-.35-1.88-.7-2.82-1.04-3.64-1.33-7.39-.83-11.14-.51-.75.06-1.49.12-2.24.13-.45,0-.89-.03-1.34-.03-1.24,0,.55.24-.47-.05-.08-.02-1.25-.36-.41-.08-1.13-.38.45.1.12.2-.1.03-1.78-2.43-1.95-2.59-2.49-2.47-5.93-2.26-9.14-2.62,1.04.12-.44-.14-.73-.25.93.35-.15-.43.52.27l-.21-.21c.24.28.23.23-.01-.17.12.72-.15-.44-.18-.51-.22-.57-.43-1.14-.7-1.69-.45-.92-1.08-1.76-1.79-2.49-1.18-1.22-2.69-2.13-4.11-3.06-.29-.19-.58-.39-.87-.58-.37-.27-.38-.27-.02,0-.18-.14-.35-.29-.51-.45-.05-.05-.82-.9-.37-.33-.31-.4-.57-.88-.79-1.34.26.56,0-.02-.03-.13-.14-.51-.29-1-.38-1.52.15.81-.03-.42-.03-.5-.03-.57-.02-1.13.02-1.7.11-1.57.72-3.75,1.26-5.68s-.69-4.44-2.79-4.92c-2.24-.51-4.18.68-4.92,2.79-.31.87-.61,1.74-.92,2.6h7.71c-.06-.34-.12-.69-.18-1.03-.27-1.53-1.9-2.67-3.33-2.87-1.69-.23-3.01.57-3.99,1.91-.46.64-.74,1.42-.95,2.18-.06.19-.18.47-.18.67.02-.75,1.45-1.84,2.22-1.76l2.02.55.43.35,1.03,3.89c1.43-4.1,2.31-8.28,2.84-12.59.26-2.08-2.02-4.09-4-4-2.39.11-3.72,1.77-4,4h0Z"/><path class="cls-1" d="M10.59,51.26c3.11,2.92,7.07,3.97,11.2,4.43.78.09,1.57.14,2.36.17.39.01.79.02,1.18.04.05,0,.58,0,.59.04-.03-.09-1-.14-.19,0s.03,0-.17-.12c0,0-.76-.58-.3-.26.55.38,1.02.86,1.61,1.18,1.08.59,2.21.83,3.4,1.06,2.2.43,4.42.8,6.65,1.04,2.05.22,4.02.12,6.07.07.23,0,.47.02.69,0-.09,0-.75-.2-.2-.04.43.13.85.24,1.26.39.88.33,1.74.68,2.65.91,2.08.54,4.35.81,6.5.57,1.31-.15,2.55-.36,3.81-.75.47-.14.93-.3,1.4-.42.33-.09,1.58-.31.61-.19,2.23-.27,4.5-.02,6.72.21l-2.52-9.32c-.51.35-1.03.67-1.57.97-.24.13-.51.24-.74.38-.62.37.72-.25.04,0-1.24.44-2.45.74-3.73,1.03-.73.17.78-.04.03,0-.29.01-.58.05-.87.07-.63.03-1.26.03-1.89.05-1.52.04-3.09.17-4.53.68-2.36.85-3.93,2.9-3.58,5.49s2.4,4.15,4.91,4.34c3.25.24,6.44-.02,9.65-.56,2.45-.41,3.88-3.25,3.58-5.49-.33-2.49-2.4-4.25-4.91-4.34-2.34-.08-4.68-.06-6.99.32-1.91.31-3.66,1.22-5.56,1.6-.43.09-.87.15-1.3.22,1.15-.18-.3.02-.43.04-1.03.11-2.07.19-3.1.27-1.93.15-3.87.29-5.81.28-.96,0-1.92-.04-2.87-.13-.22-.02-.44-.04-.65-.07.61.09.62.08.04,0-.42-.08-.85-.16-1.27-.26s-.83-.21-1.24-.34c-.22-.07-1.86-.77-.78-.26-.75-.35-1.5-.72-2.26-1.05-1.18-.52-2.32-.94-3.56-1.29-.24-.07-.99-.18-1.17-.36.58.25.62.25.13,0l-.33-.2c-.85-.54-1.65-1.17-2.47-1.76-.38-.28-.77-.55-1.15-.83.47.39.5.4.09.04.24.3.44.63.59.99l-4.82,6.33c1.25.05-.87-.33.29.04.39.12.77.24,1.15.38-.82-.29-.1-.03.29.16.31.15.61.3.92.45,1.74.82,3.49,1.53,5.38,1.88s3.78.53,5.68.66c.89.06,1.77.11,2.66.18.37.03.73.06,1.1.1.22.02.44.04.66.07-.5-.07-.56-.08-.18-.02,3.8.73,7.56,1.64,11.42,2.03s7.87.12,11.78-.5c2.45-.39,3.88-3.27,3.58-5.49s-2.42-4.49-4.91-4.34c-7.86.48-15.73.59-23.6.34-2.62-.08-5.12,2.36-5,5,.13,2.92,2.2,4.74,5,5,4.19.39,8.44.28,12.64.34s8.51.13,12.76.19l-1.33-9.82c-.86.18-1.72.35-2.59.5-.39.07-.79.13-1.19.19-.2.03-1.58.22-.58.09-2.58.34-5.13,2.06-5,5,.11,2.45,2.22,5.33,5,5,3.82-.45,7.56-1.13,11.24-2.27,2.49-.78,4.34-3.52,3.49-6.15s-3.48-4.32-6.15-3.49c-1.53.48-3.08.89-4.65,1.23-.75.16-1.51.31-2.27.44-.38.07-.76.12-1.14.18-1.1.17.7-.08-.51.06v10c2.35-.31,4.69-.66,7.01-1.14s3.89-3.18,3.58-5.49c-.33-2.46-2.4-4.3-4.91-4.34-4.25-.06-8.51-.13-12.76-.19s-8.45.05-12.64-.34v10c7.87.25,15.74.14,23.6-.34l-1.33-9.82c-1.54.24,1-.09-.55.08-.47.05-.95.1-1.42.14-.79.06-1.59.1-2.38.12-1.75.03-3.5-.06-5.24-.24-1.54-.16.97.18-.55-.08-.47-.08-.94-.16-1.41-.25-.78-.15-1.56-.32-2.34-.49-2.07-.45-4.14-.85-6.25-1.1-1.61-.2-3.24-.28-4.86-.39-.81-.06-1.61-.13-2.42-.21.9.1,0,0-.39-.08-.35-.07-.7-.14-1.05-.23s-.69-.18-1.03-.29c-.18-.06-1.42-.6-.36-.1-.68-.32-1.35-.65-2.03-.97-2.05-.94-3.96-1.59-6.23-1.69-3.38-.14-5.51,3.29-4.82,6.33s3.5,4.65,5.84,6.34c1.83,1.32,3.67,2.26,5.86,2.87.54.15,1.06.32,1.58.52-1.05-.4.09.07.32.18,1.27.6,2.55,1.21,3.89,1.67,2.18.75,4.55,1.06,6.84,1.22,4.55.31,9.28-.17,13.79-.81,2.06-.29,3.91-.91,5.88-1.54.27-.09.55-.17.83-.24.57-.1.52-.1-.14,0,.07-.09,1.18-.07,1.28-.07,1.26-.05,2.53-.04,3.79,0l-1.33-9.82c-.3.05-.61.1-.91.14.51-.07.39-.05-.05,0-.69.06-1.39.12-2.08.14-1.32.05-2.63.02-3.94-.08l1.33,9.82c.31-.11.65-.17.96-.29.61-.22-.79.01-.12,0,.62,0,1.25-.05,1.87-.07,1.67-.04,3.34-.22,4.98-.53,2.8-.54,5.6-1.69,7.96-3.3,1.78-1.21,3.01-3.45,2.3-5.65s-2.53-3.44-4.82-3.67-4.76-.44-7.16-.15c-1.47.18-2.82.48-4.23.91-.54.17-1.08.3-1.63.44-1.09.27.65.06-.38.03-.58-.02-1.16,0-1.74-.03-.59-.06-.58-.05.03.02-.29-.05-.57-.11-.85-.17-1.14-.26-2.18-.71-3.28-1.1-2.62-.93-5.25-.43-7.95-.52-.55-.02-1.09-.05-1.64-.1-.19-.02-2.08-.27-1-.1-1.24-.19-2.46-.41-3.69-.65-.26-.05-1.53-.13-1.68-.35.36.11.68.3.95.57-.42-.34-.85-.68-1.29-1-1.23-.77-2.53-1.12-3.94-1.31-1.14-.15-2.27-.18-3.41-.24-.53-.03-1.05-.08-1.57-.12-.58-.07-.52-.06.15.03-.26-.04-.52-.08-.77-.13-.93-.18-2.09-.36-2.93-.83,1.2.68-.17-.18-.42-.3-.45-.31-.4-.25.16.17-.18-.15-.35-.3-.52-.46-1.91-1.79-5.21-2.03-7.07,0s-2.04,5.16,0,7.07h0Z"/><path class="cls-3" d="M40.66,32.1c-9.86-.53-19.66-2.13-29.22-4.79-.51-.14-1.04-.3-1.42-.7-1.04-1.12-.14-3,.77-4.24,1.34-1.82,2.67-3.65,4.01-5.47,1.29-1.76,2.6-3.54,4.29-4.83,1.56-1.19,3.39-1.91,5.22-2.5,6.58-2.12,13.51-2.68,20.38-2.66,1.9,0,3.83.06,5.66.6,1.83.54,3.5,1.54,5.24,2.35,5,2.32,10.94,3.27,14.44,7.79,1.76,2.28,2.81,5.37,5.24,6.75-.68-1.13-1.18-2.38-1.47-3.69,1.1.64,1.41,2.18,1.55,3.52.55,5.1.54,10.28-.04,15.38-.15,1.29-.33,2.6-.86,3.76-1.47,3.25-5.21,4.56-8.55,4.42s-6.55-1.39-9.88-1.79c-.88-.1-1.85-.12-2.55.47s-.8,2,.01,2.39c-3.89-3.81-9.67-5.2-14.68-3.52-1.39.47-3.04,1.11-4.19.13-.58-.5-.85-1.29-1.25-1.97-1.53-2.58-4.77-3.19-7.59-2.96-2.44.2-5.14.76-7.14-.77-1.82-1.4-2.99-4.44-5.2-4.14.05.58.11,1.17.16,1.75,2.17-2.31,4.34-4.62,6.52-6.94.8-.85,1.61-1.71,2.58-2.31,1.61-.99,3.52-1.19,5.36-1.37,10.43-1,20.85-2.01,31.28-3.01.89-.09,1.81-.17,2.68.08.93.26,1.73.88,2.5,1.49,2.17,1.69,4.33,3.38,6.5,5.07-3.41,2.38-7.58,3.46-11.61,3.02-3.01-.33-6.24-1.43-8.94.06-.54.3-1.07.74-1.24,1.37s.19,1.45.79,1.49"/><path class="cls-3" d="M40.66,25.6c-4.67-.28-9.3-.73-13.91-1.52-2.13-.36-4.26-.78-6.37-1.24-1.11-.25-6.36-2.28-7.21-1.8,1.21,4.82,2.46,6.13,3.74,3.93.5-.68,1-1.37,1.5-2.05,1.25-1.71,2.44-3.8,4.07-5.2,2.83-2.42,7.31-3.07,10.85-3.62,4.19-.65,9.02-1.07,13.26-.65,3.44.34,6.64,2.5,9.83,3.75,2.73,1.06,5.96,1.83,8.08,3.99,2.83,2.89,4.07,6.3,7.48,8.83,5.59,4.14,11.68-3.66,8.89-8.89-.43-.65-.7-1.36-.81-2.14l-10.86,6.32c-.88-.92-.14-.29-.17.84-.04,1.27.17,2.58.2,3.85.07,2.84.12,5.84-.32,8.66-.66,4.21-4.55,2.38-7.85,1.69-4.09-.86-8.81-1.7-12.17,1.53-3.57,3.44-2.7,8.11.01,11.59l9.19-9.19c-3.07-2.71-6.44-4.77-10.49-5.64-1.96-.42-4-.55-5.99-.4-1.09.08-4.3,1.35-5.25.97l3.88,2.99c-3.64-4.8-6.69-8.05-13.22-8.19-1.26-.03-3.09.68-4.22.3-.9-.3-1.25-1.06-2.01-1.83-2.16-2.2-4.28-3.03-7.34-3.33-3.28-.33-6.8,3.25-6.5,6.5l.16,1.75c.49,5.26,6.94,9.02,11.1,4.6,2.73-2.91,5.84-7.95,9.86-8.71,4.75-.9,9.84-.95,14.66-1.41s9.77-.98,14.66-1.41c1.1-.13,2.2-.22,3.3-.27-1.09-.28-.91-.03.54.76,1.5,1.51,3.52,2.74,5.2,4.06l1.32-10.21c-6.28,3.97-12.49-.15-19,2.42-6.9,2.72-7.74,10.36-2,14.74,2.81,2.14,7.25.42,8.89-2.33,1.99-3.32.45-6.78-2.33-8.89l-.69-.52,3.22,5.61c-3.08,2.53-3.42,3.68-1.02,3.46.95.16,1.9.3,2.86.42,1.89.24,3.62.37,5.52.19,4.03-.38,7.69-1.71,11.1-3.86,3.16-2,4.78-7.51,1.32-10.21-4.18-3.26-8.69-8.22-14.26-8.55-6.36-.37-13.26,1.09-19.61,1.7-5.9.57-12.42.47-18.18,1.93-6.27,1.58-10.34,7.42-14.55,11.9l11.1,4.6-.16-1.75-6.5,6.5c-2.04-.91-2.39-.75-1.06.47.49.65,1.04,1.24,1.67,1.76,1.62,1.4,3.46,2.24,5.54,2.66s4.13.25,6.2.01c2.21-.26,1.41-.23,2.53.79,1.72,1.56,2.24,2.98,4.58,3.9,2.1.83,3.99.8,6.19.33,3.83-.82,6.54-1.49,9.8,1.39,6.42,5.68,14.24-2.71,9.19-9.19l-.52-.66,1.9,4.6-.38,1.55-3.88,2.99c1.74-.71,5.43.88,7.31,1.17,2.31.36,4.47.48,6.79.1,4.49-.73,8.61-3.24,10.76-7.35s2.18-10.07,2.19-14.73c.01-5.48.14-11.63-3.86-15.81-4.53-4.73-12.57.15-10.86,6.32.51,1.84,1.22,3.56,2.12,5.24l8.89-8.89c-1.8-1.33-2.84-4.56-4.39-6.27s-3.56-3.21-5.65-4.32c-4.29-2.28-9.09-3.89-13.54-5.83C49.11-.17,42.49.17,36.25.74s-12.43,1.51-17.94,4.23c-4.98,2.46-7.95,7.02-11.13,11.37s-6.12,9.42-2.26,14.19c3.34,4.13,10.78,4.65,15.64,5.58,6.64,1.27,13.36,2.07,20.1,2.48,8.36.5,8.33-12.5,0-13h0Z"/><path class="cls-2" d="M4.59,32.17c.43-.28.9.3,1.13.75.33.63.72,1.24.97,1.9s.42,1.37.44,2.08c.02.71-.09,1.42,0,2.12.09.74.42,1.38.91,1.93s1.08,1,1.75,1.29,1.39.47,2.13.56,1.47.13,2.2.13"/><path class="cls-2" d="M3.71,29.53c-.18-.67-.14-1.39-.17-2.07s-.06-1.38.03-2.06.24-1.36.43-2.02.4-1.33.68-1.96.71-1.19,1.05-1.79.54-1.29.92-1.86,1-.98,1.4-1.54.75-1.16,1.16-1.71c.45-.6.86-1.22,1.32-1.82s.87-1.22,1.35-1.8,1.18-.95,1.69-1.5.78-1.33,1.33-1.84,1.31-.76,1.91-1.21c.72-.53,1.5-.93,2.27-1.36s1.43-1.12,2.24-1.47c.67-.29,1.37-.51,2.05-.75s1.35-.57,2.04-.77,1.49-.05,2.19-.21,1.37-.53,2.08-.66,1.45-.07,2.17-.16,1.45-.04,2.17-.09,1.43-.18,2.16-.21,1.44-.03,2.17-.03,1.45-.12,2.18-.1,1.46-.06,2.18-.01,1.43.33,2.15.4,1.47-.07,2.19.01,1.41.42,2.13.51,1.47-.06,2.19.05"/><path class="cls-2" d="M54.34,2.34c.73.22,1.37.71,2.08.96s1.49.36,2.19.64,1.5.37,2.19.68,1.13,1.18,1.81,1.51,1.46.46,2.14.8,1.39.61,2.06.97,1.35.7,2.01,1.08,1.4.62,2.05,1.01,1.28.82,1.93,1.22,1.07,1.17,1.71,1.57,1.28.82,1.92,1.21c.56.34,1.2.55,1.73.94s1.03.79,1.45,1.29c.57.68.86,1.48,1.17,2.31s.93,1.57,1.11,2.43c.15.71.05,1.47.16,2.19s.21,1.43.28,2.15.24,1.44.28,2.16-.25,1.45-.25,2.18.41,1.46.38,2.18,0,1.46-.06,2.18-.25,1.44-.34,2.16-.61,1.38-.72,2.09.04,1.47-.1,2.19-.53,1.37-.69,2.07-.19,1.44-.37,2.14-.11,1.47-.3,2.17-.3,1.43-.51,2.12-.96,1.22-1.19,1.9-.3,1.42-.54,2.11-.53,1.35-.77,2.03-.17,1.48-.43,2.16-.74,1.27-1.01,1.94-.8,1.24-1.07,1.91-.37,1.41-.65,2.08c-.26.62-.38,1.31-.66,1.94s-.73,1.16-1.06,1.75-.73,1.13-1.13,1.68-.5,1.4-.99,1.86-1.27.6-1.87.93"/><path class="cls-2" d="M9.21,43.01c-.1.67-.17,1.38-.26,2.07s.32,1.42.28,2.11-.22,1.38-.19,2.06-.06,1.41.07,2.08.16,1.44.43,2.08.82,1.16,1.25,1.72c.46.61.86,1.33,1.45,1.81s1.34.76,2,1.15,1.43.54,2.09.91,1.16,1.01,1.79,1.41c.56.36,1.25.52,1.8.91s1.19.56,1.77.89c.64.36,1.07,1.19,1.76,1.45s1.51.15,2.22.34,1.37.59,2.08.76c.66.16,1.41-.12,2.07.03s1.27.52,1.93.64,1.35.09,2.01.18c.75.1,1.47.27,2.22.32s1.5-.14,2.25-.14,1.52.62,2.27.58,1.47-.59,2.22-.65,1.49-.13,2.24-.22,1.54.19,2.29.09,1.42-.69,2.16-.81,1.57.25,2.31.13c.71-.12,1.34-.73,2.05-.85s1.49.09,2.19-.05,1.44-.2,2.14-.36,1.39-.42,2.08-.63,1.24-.83,1.92-1.08,1.38-.4,2.04-.7,1.29-.61,1.92-.97,1.31-.62,1.89-1.04,1.25-.76,1.79-1.24,1.16-.93,1.63-1.47.56-1.39.94-2.01.59-1.27.87-1.94"/><path class="cls-2" d="M14.83,44.24c.54.53.93,1.18,1.56,1.55s1.2.98,1.9,1.23,1.48.31,2.21.45,1.49-.02,2.24.04,1.47.15,2.21.14,1.47-.21,2.2-.27c.43-.03.77.29,1.11.55.31.25.77.37.96.72.34.64.82.88,1.5,1.14.64.24,1.28.61,1.96.69.67.08,1.38-.15,2.06-.07s1.32.45,2,.49,1.36.18,2.04.19,1.39.2,2.06.14,1.27-.72,1.94-.85c.68-.14,1.42.02,2.1.14,1.09.19,1.96.94,2.86,1.59.65.46,1.34.85,2.1,1.07s1.57.51,2.37.46,1.61-.32,2.34-.63c.65-.27,1.13-.87,1.75-1.21s1.32-.52,2.01-.69c.81-.2,1.59.04,2.4.17s1.61.18,2.41.4,1.62.24,2.42.34c.69.09,1.36.22,2.04.15s1.44.08,2.1-.11,1.11-.95,1.74-1.24,1.41-.27,1.99-.65,1.02-.94,1.56-1.38,1.06-.87,1.57-1.34,1.26-.69,1.74-1.19.57-1.37,1.03-1.87"/><path class="cls-2" d="M4.79,34.04c.13.63.03,1.36-.06,1.99s-.66,1.13-.89,1.73-.56,1.11-.86,1.66-.64,1.09-.96,1.64-.3,1.29-.57,1.86-.4,1.17-.56,1.78-.43,1.2-.38,1.83.34,1.21.61,1.76.48,1.23,1.03,1.58c.44.29.95.45,1.31.83.46.48.96,1.06.95,1.74-.01.63-.61,1.29-.66,1.91-.06.68.13,1.37.28,2.03s.64,1.17.97,1.76.66,1.11,1.14,1.59,1.01.78,1.61,1.09c.96.49,1.89,1.06,2.65,1.82.44.44.47,1.06.69,1.64s.36,1.18.57,1.75c.25.68.76,1.29,1.16,1.89s1.22.83,1.74,1.33.97,1.02,1.59,1.39,1.1,1.08,1.79,1.31,1.48.13,2.2.18c.67.05,1.35-.06,2.02-.02s1.23.45,1.85.72c.76.33,1.56.54,2.14,1.14s.84,1.54,1.48,2.04c.61.46,1.44.58,2.15.81s1.44.42,2.2.46,1.48-.26,2.23-.32,1.46-.32,2.18-.43,1.55.31,2.29.22,1.47-.19,2.21-.2,1.45.12,2.17.27,1.57-.01,2.23.36c.54.31,1.07.7,1.56,1.08s.9.84,1.45,1.12c.74.37,1.53.62,2.36.62s1.69-.11,2.43-.48c.57-.29.89-.92,1.37-1.34s1.23-.53,1.7-.96.94-.8,1.48-1.14c.64-.4,1.15-1.09,1.87-1.29s1.49-.26,2.23-.39,1.46-.31,2.18-.47,1.58.02,2.26-.29c.18-.08.43-.41.43-.6s-.61-.22-.57-.03"/><path class="cls-2" d="M9.36,32.61c.03-.77-.07-1.59.13-2.34s.82-1.34,1.18-2.02c.39-.75.66-1.56,1.2-2.2s1.01-1.38,1.63-1.95,1.48-.86,2.15-1.36c.59-.45,1.25-.78,1.86-1.2s1.08-1.04,1.7-1.44,1.2-.87,1.84-1.24,1.35-.62,2-.96,1.21-.89,1.87-1.21,1.38-.54,2.06-.84,1.42-.44,2.1-.72,1.28-.78,1.98-1.03,1.41-.44,2.11-.68,1.39-.52,2.09-.74,1.45-.33,2.16-.52,1.47-.21,2.19-.39,1.42-.39,2.14-.55,1.46-.2,2.19-.35,1.39-.59,2.11-.73,1.44-.33,2.17-.45,1.51.09,2.24-.01,1.44-.4,2.17-.5,1.47-.2,2.2-.29,1.49,0,2.22-.07"/><path class="cls-2" d="M8.64,21.49c.4-.65.52-1.48.96-2.1s1.19-1.01,1.67-1.6.99-1.14,1.51-1.7.88-1.28,1.44-1.79,1.14-1.02,1.73-1.5c.64-.51,1.39-.85,2.06-1.31s1.24-1.07,1.93-1.5,1.34-.93,2.04-1.34c.7-.41,1.5-.67,2.22-1.03s1.46-.75,2.23-1.01c.78-.26,1.66-.18,2.47-.33s1.61-.34,2.43-.45c.81-.11,1.62-.17,2.43-.27s1.62-.2,2.43-.29,1.61-.22,2.42-.31c.71-.07,1.41-.27,2.12-.33s1.42-.24,2.13-.29,1.43.05,2.15.03,1.43-.14,2.14-.13,1.42.33,2.13.37,1.41.15,2.12.24,1.46-.12,2.16.02,1.35.49,2.04.69"/><path class="cls-2" d="M17.07,38.89c.28-.62.75-1.14,1.14-1.69s.9-1,1.35-1.51.84-1.07,1.3-1.55c.5-.52,1.12-.92,1.62-1.44s.77-1.26,1.27-1.78,1.16-.89,1.66-1.41,1.03-1.01,1.53-1.53.85-1.18,1.35-1.7,1.07-.98,1.57-1.49c.51-.53,1.16-.92,1.68-1.44s.84-1.25,1.4-1.74c.56-.49,1.13-1,1.73-1.44s1.25-.84,1.88-1.24,1.28-.79,1.93-1.16,1.4-.56,2.06-.91,1.19-.96,1.87-1.29c.67-.33,1.5-.32,2.18-.63s1.31-.74,2-1.03,1.38-.58,2.08-.85,1.4-.53,2.11-.77,1.39-.56,2.11-.77,1.49-.22,2.22-.4,1.45-.37,2.18-.52,1.46-.32,2.2-.43"/><path class="cls-2" d="M29.62,42.15c.03-.78.28-1.53.48-2.28s.37-1.51.71-2.21.7-1.39,1.14-2.04.91-1.27,1.41-1.86,1.23-.98,1.77-1.53c.51-.52.87-1.2,1.41-1.7s1.11-.96,1.66-1.44,1.23-.81,1.79-1.28,1.09-.98,1.66-1.44,1.15-.9,1.74-1.34,1.14-.92,1.73-1.36,1.24-.79,1.82-1.23,1.17-.88,1.75-1.32,1.1-.98,1.67-1.43,1.09-.98,1.66-1.44,1.23-.81,1.79-1.28,1.09-.98,1.63-1.47,1.14-.93,1.66-1.45.88-1.19,1.37-1.73"/><path class="cls-2" d="M61.03,13.8c-.52.54-1.03,1.09-1.54,1.64s-.85,1.26-1.36,1.81-1.22.92-1.72,1.47-.96,1.15-1.46,1.72-.89,1.21-1.37,1.79-1.02,1.1-1.48,1.69-.78,1.29-1.22,1.89-.87,1.22-1.29,1.84-1,1.14-1.39,1.78-.72,1.32-1.08,1.98-.73,1.32-1.04,2-.52,1.41-.8,2.11-.55,1.4-.78,2.11-.54,1.41-.72,2.14-.33,1.47-.45,2.21-.19,1.49-.25,2.24"/><path class="cls-2" d="M68.03,15.31c-.67.41-1.36.8-1.96,1.29s-1.18,1.04-1.73,1.6-1.05,1.17-1.54,1.78-.96,1.24-1.4,1.88-.89,1.29-1.3,1.95-.72,1.39-1.11,2.07-.85,1.32-1.23,1.99c-.36.65-.55,1.39-.9,2.05s-.9,1.21-1.22,1.88-.57,1.38-.83,2.08c-.29.77-.55,1.57-.76,2.37s-.15,1.65-.28,2.47-.48,1.6-.55,2.42-.08,1.65-.12,2.48.08,1.65.07,2.48"/><path class="cls-2" d="M73.59,16.77c-.39.62-.7,1.31-1.07,1.94s-.69,1.31-1.05,1.95-.72,1.29-1.07,1.94-.71,1.29-1.03,1.96-.7,1.31-.99,1.98-.55,1.37-.81,2.06-.56,1.37-.79,2.07-.22,1.47-.41,2.19-.39,1.42-.54,2.14-.42,1.43-.52,2.16-.02,1.48-.07,2.22-.3,1.47-.3,2.21.25,1.47.31,2.2.03,1.48.15,2.21"/><path class="cls-1" d="M70.37,54.57c.14-.1-.02,0-.09.02.15-.06-.29,0-.08.02.1,0-.29-.07-.09,0,.05.02.11.03.16.05.19.06.37.14.56.17.41.08.82.06,1.19-.15.33-.19.53-.49.73-.8.07-.11.13-.1-.03.03.04-.03.07-.08.1-.11.07-.07.16-.13.23-.2-.21.21-.09.07-.02.02.04-.03.08-.06.13-.09.09-.06.18-.13.27-.2.47-.36.95-.81,1.03-1.43.05-.37.02-.7-.26-.97-.25-.25-.63-.36-.97-.26-1.09.33-2.17.8-3.11,1.45-.5.34-.94.73-1.28,1.23-.38.56-.49,1.21-.37,1.87.11.62.96.93,1.47.6s.98-.73,1.38-1.19c.34-.4.42-1.03,0-1.41-.39-.35-1.03-.41-1.41,0s-.74.8-1.1,1.19-.41,1.04,0,1.41c.39.35,1.03.41,1.41,0s.74-.8,1.1-1.19l-1.41-1.41c-.16.19-.34.37-.52.54-.04.04-.09.08-.13.11-.11.09-.08.05.02,0-.12.07-.22.16-.34.24l1.47.6c.01.08.02.22.01.06,0-.04.01-.11,0-.15,0,.04-.05.23,0,.09.01-.05.03-.09.04-.14.03-.11-.11.2-.02.05.02-.04.05-.09.07-.13s.06-.09.08-.13c.07-.11,0,.03-.04.05.08-.05.15-.17.22-.23.08-.08.16-.15.24-.22.1-.09,0,.01-.05.04.04-.02.09-.06.13-.09.09-.06.19-.13.28-.19.39-.25.81-.47,1.23-.66.06-.03.11-.05.17-.08.14-.06-.01.03-.04.01.04.02.3-.12.34-.13.23-.09.46-.16.7-.23l-1.23-1.23s-.01.09-.03.14c-.04.14-.08.06.03-.07-.02.02-.06.09-.07.12.07-.17.13-.16.04-.06-.07.07-.14.13-.21.2-.12.11.16-.12.06-.05-.04.03-.08.06-.12.09-.45.32-.86.63-1.18,1.09-.06.08-.15.19-.19.29l.09-.12c-.06.05-.05.05.02,0,.07-.05.08-.06.01-.02.16-.06.21-.08.13-.06-.1.03.29-.01.09-.02-.12,0,.26.06.11.01-.09-.03-.19-.05-.28-.08-.54-.19-1.17-.33-1.67.05-.22.16-.39.33-.46.6-.07.24-.04.56.1.77.27.41.92.69,1.37.36h0Z"/></g></svg>