<?xml version="1.0" encoding="UTF-8"?><svg id="_레이어_2" xmlns="http://www.w3.org/2000/svg" viewBox="0 0 91.29 86.82"><defs><style>.cls-1{fill:none;stroke:#000;stroke-miterlimit:10;}.cls-2{fill:#d3b792;}.cls-3{fill:#512600;}.cls-4{fill:#441e02;}</style></defs><g id="_레이어_1-2"><path class="cls-3" d="M43.03,2.16c-.33.17-4,2.06-2.23,1.25-1.48.67-3.11,1.28-4.63,1.9.95-.46.8-.49-.45-.08-1.23.45-2.43.98-3.59,1.59-.66.31-1.29.65-1.91,1.03.81-.29.85-.31.12-.07-1.7.74-3.55,1.14-5.19,2.06-1.04.8-2.07,1.59-3.1,2.39.61-.54.61-.58.01-.13-1.98,1.83-5.84,3.1-8.58,6.15l4.85-2.83c-5.13,1.76-10.71,3.51-14.26,9.1C1.09,29.22,0,35.09,0,39.51s1.63,10.12,3.97,13.99c1.63,2.69,3.62,5.08,6.34,6.7,1.27.75,2.96,1.67,4.46,1.95-.09-.02-.7-.21-.71-.22l9.5-16.55,4.04,1.6c-4.44,5.76-8.89,11.52-13.33,17.28,1.84,1.32,3.68,2.6,5.63,3.74.82.47,1.89,1.26,2.78,1.51,1.7.48-.13.25-.92-2.2,5.39-4.14,10.77-8.28,16.16-12.42-.82-.36-1.64-.71-2.47-1.07-5.45-2.36-11.8-1.61-15.05,3.95s-1.03,11.78,3.95,15.05c.39.25,3.29,2.56,2.19,1.59-.4-.86-.24-.73.48.4.69,1.28,1.64,2.31,2.83,3.09,1.86,1.52,4.74,3.5,5.89,4.69,2.72,2.8,6.96,3.86,10.7,2.83,4.14-1.14,7.54-3.47,11.3-5.45s6.64-2.37,10.28-6.13l-4.85,2.83c3.41-1,6.1-2.53,8.79-4.89s1.86-1.55,5.07-4.28c3.98-3.38,8-8.18,10.62-13.88.96-2.1-.45,1.09.67-1.26.73-1.53,1.27-3.06,1.58-4.72.1-.55.35-5.34.14-3.22.17-1.66.65-3.32.73-5.04.32-7.31-1.87-13.23-8.32-17.09l3.95,3.95c-4.65-6.34-8.63-9.86-15.55-13.09-2.42-1.13-3.17-1.9-6.17-3.45s-5.82-3.02-9.02-3.91l4.85,2.83c-4.93-3.91-10.88-6.67-17.15-4.02-3.7,1.57-6.62,5.45-7.11,9.54-.47,1.48-.37,1.63.29.45,1.09-1.54.69-1.06-1.18,1.44-.04.07-1.77,2.61-.74,1.53-.56.59-3.32,2.26-4.42,3.16-.03.03-2.33,1.7-2.94,2.31,1.2-1.2-3.81,4.01-2.26,2.69-4.58,3.93-6.19,6.81-9.84,11.71-2.87,3.85-1.45,10.16,1.72,13.33,3.58,3.58,8.96,3.96,13.33,1.72.57-.28,1.12-.58,1.68-.88l-5.55,1.5c2.74-.29,5.28-.47,7.8-1.76,1.18-.57,1.27-.72.25-.47,1.22-.5,2.43-1.01,3.64-1.52,1.17-.58,1.24-.75.21-.53.67-.28,1.35-.56,2.03-.82,1.67-.69,3.62-1.19,5.12-2.22.51-.21.97-.5,1.38-.88-1.05.2-.93.12.35-.25,1.95-1,3.47-1.93,5.32-3.02-1.45.85,1.95-.57,2.5-.74.68-.25,1.36-.49,2.04-.72,2.08-.62,1.55-.7-1.59-.26l-4.85-2.83.56.63-3.22-7.78-.09-.26,2.83-4.85c-1.02,1.07-2.2,2-3.18,3.11-3.94,4.48.57-.47,1.38-.14-.7-.29-2.83,1.3-3.55,1.73-2.93,1.73-6.48,3.32-9,5.58-.39.35-1,1.37-.19.63-.97.88-2.15,1.53-3.07,2.47-1.38,1.41-2.09,3.07-2.83,4.85-.14.33-.67,1.68-.23.62-1.87,4.51-3.77,9.19-2.33,14.14,1.98,6.78,7.78,8.83,14.12,8.57,4.68-.19-.94.18,1.3.17.77,0,1.48-.07,2.25-.15,2.44-.25,5.51-1.35,6.9-1.87,1.88-.7,6.28-2.2,8.91-3.84,3.6-2.24,6.23-4.22,8.93-8.73l-3.95,3.95c5.17-3.78,8.32-8.92,10.94-14.7,2.45-5.41,1.55-11.83-3.95-15.05-4.72-2.76-12.59-1.49-15.05,3.95-1.18,2.61-3.05,4.89-4.03,7.61-.84,1.2-.78,1.22.2.05,1.46-1.5.98-1.21-1.44.86-.89.97-1.65,2.02-2.28,3.17,2.38-2.3,2.18-2.3-.58,0,1.52-1.03-1.93,1.02-2.29,1.18,1.66-.75-1.34.4-1.53.47-1.25.44-2.47.94-3.68,1.5,2.71-.47,3.11-.59,1.2-.35-.84-.14-7.19.33-4.38.07l5.55,1.5-.84-.37,5.06,6.57c-.3,3.38-.21,4.02.25,1.92.39-1.18.48-1.46.28-.82-.2.54,1.49-3.73,1.85-4.58l-2.83,4.85c-2.23,1.98,4-3.07,2.03-1.89,1.27-.76,2.64-1.35,3.91-2.14.62-.4,1.24-.81,1.86-1.22-1.59.2-.93-.15,1.97-1.05,2.78-1.43,3.63-3.13,5.69-5.28-1.09,1.14,1.85-1.49,2.14-1.81,2.25-2.45,3.6-5.77,3.73-9.09.24-6.08-3.58-11.39-9.54-12.85-4.39-1.07-8.22.27-12.34,1.53-1.95.6-3.95,1.11-5.77,2.09-.4.22-3.58,2.68-2.03,1.75-1.73,1.04-3.71,1.64-5.45,2.75-1.2.53-1.32.61-.36.24-.68.27-1.35.54-2.03.82-1.22.49-2.43,1-3.64,1.52-1.17.59-1.23.76-.2.53-1.87.91-3.73,1.59-5.51,2.69l5.55-1.5c-3.46.42-6.35,1.04-9.47,2.64,5.02,5.02,10.03,10.03,15.05,15.05.23-.31,2.24-3.38,1.47-2.31.95-1.33,2.04-2.91,3.23-4-1.06.97,1.68-.92,1.7-.94,1.6-1.45,2.76-3.15,3.98-4.91l-3.95,3.95c4.27-3.29,7.69-4.63,11.16-9.2,1.84-2.42,2.26-3.01,3.76-5.51s1.73-5.27,2.7-8.03l-7.68,7.68c-4.76-.35-6.11-.34-4.06.05l1.63.33-4.85-2.83c2.14,1.7,4.01,3.11,6.57,4.19,1.26.4,1.4.41.4.02.6.4,1.24.72,1.91.97,2.71,1.39,5.27,3.15,8.01,4.43.8.36,1.61.68,2.44.96-.9-.13-.75.1.43.68,1.1.74,1.36.79.78.15.94.96,1.97,1.8,3.09,2.54,2,1.28-.53-1.54.53.59,1.21,2.42,3.64,3.76,5.86,5.09l-3.95-3.95c-.99-2.12-.44-.42-.54.89.15-1.16.06-1.09-.27.23-.41,1.33-.51,2.67-.28,4.02.03-.33,1.26-2.88.06-.46-.57,1.17-1.05,2.38-1.44,3.63.39-1.04.28-.98-.33.17-1.65,2.76,1.35-.72-1,1.53l-2.23,1.72c-1.07.9-1.23,1.11-.49.63-2.71,2.22-5.35,4.6-8.12,6.76l4.85-2.83c-3.51,1.12-6.06,2.57-8.69,5.16l4.85-2.83c-3.06,1.1-6.15,2.34-9.04,3.86-1.07.56-2.16,1.18-3.22,1.76-1.82.99-1.51,1.11-2.83,1.48,3.57.94,7.13,1.89,10.7,2.83-3.26-3.36-5.12-4.73-9.23-7.27l3.95,3.95c-3.03-4.08-6.31-7.09-10.56-9.88l-11.1,19c.82.36,1.64.71,2.47,1.07,4.15,1.8,8.43,2.16,12.22-.86,3.31-2.64,5.32-7.32,3.94-11.56-2.82-8.68-10.77-11.31-17.6-16.2-4.4-3.15-11.18-1.2-14.19,2.83-3.41,4.56-2.84,10.21.86,14.44,3.01,3.45,7.07,4.7,11.52,4.84,8.85.29,13.02-9.43,9.5-16.55-2.1-4.25-6.56-8.22-11.22-9.42-1.68-.77-1.64-.6.11.5,1.51,1.34,1.74,1.34.68,0-.15.95-.52-2.21-.64-2.94.52,3.14.84-3.29.26-1.31.36-1.23,2.22-4.19-.29-.42-2.07,1.08-1.6.93,1.41-.45-.73.44-.47.39.79-.15,2.78-1.09,4.59-2.49,6.5-4.69l-4.85,2.83c3.14-1.26,5.95-2.61,8.69-4.58,2.63-1.81,3.02-2.21,1.18-1.19-1.39.66-1.4.71-.03.15,1.8-.46,3.53-1.21,5.18-2.04.38-.19,3.54-1.68,1.78-.94,1.51-.64,3.11-1.28,4.64-1.88-1.68.66,2.59-.82,3.06-1.07,1.28-.65,2.51-1.43,3.8-2.08,5.29-2.7,6.82-10.13,3.95-15.05-3.14-5.38-9.74-6.66-15.05-3.95h0Z"/><path class="cls-2" d="M48.19,1.06c-5.98.59-11.42,3.41-14,9.17-1.19,2.67-1.89,6.36-.56,9.07.7,1.43,1.81,2.38,3.16,3.17,1,.58,4.25,1.18,4.78,2.18l-.45-3.47c-.03.1-1.95,3.04-2.4,4.25-.66,1.8-1.27,4.03-1.19,5.97.19,4.4,4.9,6.34,8.32,8.04l4.54-7.77c-1.85-.91-3.77-1.69-5.74-2.31-3.8-1.19-7.01,3.31-5.08,6.61,2.24,3.83,6.56,4.86,10.67,5.55,2.62.44,4.54-.68,5.54-3.14.87-2.14-.12-3.41,1.44-5.45,1.21-1.59,3.11-2.94,4.7-4.14,4.63-3.51,6.8-5.7,7.01-11.67s-.97-8.51-5.89-11.63c-3.95-2.51-8.33-5.31-13.18-4.22-1.52.34-2.73,1.69-3.14,3.14-.83,2.94-1.33,5.13-4.61,6.19l4.38,7.52c1.48-1.72,5.3-2.83,7.34-1.21l-1.32-3.18c.08.76-3.14,3.54-3.82,4.04l6.77,3.89c-.27-1.99.29-3.19,1.35-4.85-2.74-1.16-5.48-2.31-8.22-3.47-1.41,8.01-4.78,16.15-2.8,24.34,1.36,5.63,10.04,3.24,8.68-2.39-1.5-6.19,1.72-13.45,2.8-19.55.86-4.9-5.37-7.98-8.22-3.47-1.84,2.9-3.04,5.94-2.57,9.4.4,2.95,3.67,6.16,6.77,3.89,4.36-3.2,12.52-10.79,5.94-15.81-5.43-4.14-14.66-3.06-19.04,2.03-2.73,3.17-.21,9.01,4.38,7.52,6.62-2.15,9.4-7.14,10.9-12.48l-3.14,3.14c.69-.16,7.09,2.92,7.85,4.24.37.64.07,3.69-.14,4.38-.17.56-1.66,1.72-3.02,2.77-2.55,1.97-5.72,4.14-7.53,6.85-.9,1.35-1.62,3.19-2.04,4.76-.19.7-.34,1.47-.38,2.2-.06.54-.04,1.08.06,1.61.12,1.05.13.8.04-.77l5.54-3.14c-1.21-.2-4.76-.5-5.29-1.41l-5.08,6.61c1.25.39,2.41.83,3.59,1.4,5.18,2.54,9.74-5.19,4.54-7.77-2-.99-4.17-2.2-5.88-3.38l2.07,2.69c-.7-2.53,2.76-5.09,3.21-7.4.52-2.72-1.02-5.17-3.32-6.57-1.38-.85-3.06-1.38-4.54-2.03l-.07,1.2c.22-.66.39-1.33.49-2.02,1.08-2.45,3.24-3.83,5.83-4.09,5.71-.56,5.77-9.57,0-9h0Z"/><path class="cls-2" d="M51.32,41.97c.41-.02.89-.05,1.3.04-.26-.06.09.01.14.02.1.02.21.04.31.06.18.04.35.09.52.14.2.06.39.14.59.21.1.04.1.04-.02-.01.05.02.09.04.14.06.14.06.28.13.43.17.63.16,1.29-.09,1.62-.65.44-.75.25-1.78-.18-2.49s-1.12-1.25-1.92-1.44c-.51-.12-1.11.16-1.23.7s.15,1.1.7,1.23c.07.02.13.03.2.06.23.08-.16-.1,0,0,.1.06.2.13.3.19-.23-.14-.08-.06-.02,0,.05.05.1.1.14.15.16.18-.09-.16,0,0,.03.05.07.1.09.15.03.05.05.11.08.16-.14-.2-.04-.11-.01-.02.02.07.04.13.06.2.05.24,0-.2,0,0,0,.06,0,.12,0,.18,0,.08,0,.07,0-.03.02-.1.02-.1,0-.02-.05.16-.02.05.03-.04-.05.09-.03.06.07-.08.06-.06.12-.1.2-.13.07-.04.14-.05.22-.05.15.03.18.03.1.01-.07-.02-.04,0,.08.04-.05-.02-.09-.04-.14-.06-.2-.09-.4-.17-.6-.25-.31-.12-.64-.22-.97-.3-.74-.17-1.52-.24-2.28-.2-.52.03-1.03.44-1,1,.02.52.44,1.03,1,1h0Z"/><path class="cls-4" d="M6.5,32.22c.67.29,1.32.59,1.98.9s1.31.62,1.95.97,1.38.52,2,.9,1.09.99,1.69,1.4,1.44.49,2.02.92.96,1.14,1.53,1.6,1.27.75,1.82,1.23,1.09.98,1.61,1.49.8,1.25,1.29,1.79c.46.49.92.98,1.37,1.48s1.18.75,1.64,1.24.62,1.28,1.11,1.74,1.15.74,1.69,1.15c.65.49,1.29.99,1.98,1.4s1.42.77,2.13,1.16,1.4.79,2.09,1.22,1.29.95,1.91,1.47,1.22,1.04,1.71,1.67,1.13,1.22,1.41,1.99c.26.7.16,1.51.24,2.25s.28,1.49.28,2.23c0,.7-.16,1.4-.16,2.09s.22,1.4.21,2.1-.18,1.39-.2,2.09-.05,1.4-.08,2.09.12,1.41.08,2.1-.23,1.38-.29,2.08c-.06.72-.26,1.54-.86,1.95-.87.58-1.99-.16-2.79-.84-.56-.48-1.17-.89-1.73-1.37s-.93-1.16-1.49-1.64-1.38-.64-1.94-1.12-.93-1.16-1.49-1.64-1.12-.94-1.68-1.42-1.05-1.02-1.61-1.5-1.24-.8-1.8-1.28-1.19-.87-1.74-1.35-.97-1.12-1.53-1.6-1.25-.79-1.81-1.27-.91-1.19-1.47-1.67-1.3-.74-1.86-1.21-1.09-.98-1.65-1.46c-.51-.44-1-.91-1.5-1.36s-1.07-.84-1.55-1.32-.8-1.1-1.23-1.62c-.47-.56-.96-1.1-1.36-1.71s-.67-1.29-.99-1.95-.56-1.33-.8-2.02-.67-1.32-.83-2.04-.33-1.44-.4-2.17.18-1.47.19-2.2.03-1.44.12-2.17-.03-1.49.15-2.2.43-1.41.7-2.09"/><path class="cls-4" d="M4.22,36.1c4.43,1.96,8.34,4.27,12.09,7.29,3.44,2.77,5.28,6.18,8.34,8.67,3.47,2.83,10.1,4.28,10.67,9.31.23,2.04.14,4.23.08,6.27-.06,1.83.45,5.53-.64,7l2.69-2.07c1.69-.35-2.71-3.31-3.51-3.96-1.55-1.26-2.91-2.75-4.44-4.04-3.22-2.73-6.39-5.6-9.66-8.24-6.52-5.27-12.29-11.36-8.94-20.43,2.01-5.44-6.68-7.79-8.68-2.39-2.12,5.74-1.43,11.86.9,17.35s6.8,8.75,11.25,12.63c4.39,3.84,8.74,7.81,13.15,11.63,3.71,3.21,9.94,9.58,14.66,4.52,3.38-3.62,2.27-11.61,2.2-16.18-.05-2.98-.02-6.26-1.69-8.84s-4.39-4.72-7.05-6.32c-2.44-1.47-4.97-3.01-6.35-4.43-1.94-2-3.79-4.23-5.8-6.18-4.25-4.1-9.33-6.98-14.71-9.36s-9.83,5.43-4.54,7.77h0Z"/><path class="cls-1" d="M2.9,25.83c-.15.73-.37,1.45-.48,2.19s-.17,1.48-.26,2.22-.63,1.44-.69,2.19.29,1.52.25,2.27-.31,1.48-.33,2.23-.05,1.5-.06,2.25.1,1.5.1,2.25-.07,1.5-.07,2.25-.1,1.5-.09,2.25c0,.66-.24,1.35-.2,2.02s.1,1.38.22,2.04.75,1.19,1.01,1.81c.26.62.75,1.05,1.14,1.59s.64,1.15,1.1,1.64.77,1.12,1.24,1.57c.54.51,1.18.91,1.73,1.41s1.2.88,1.75,1.38,1.12.97,1.68,1.45.75,1.4,1.31,1.89,1.4.65,1.96,1.13,1.18.9,1.75,1.38.96,1.16,1.53,1.64,1.34.71,1.91,1.18,1.2.88,1.77,1.36.86,1.28,1.43,1.76,1.38.67,1.95,1.15,1.17.92,1.73,1.41.77,1.37,1.32,1.86,1.19.89,1.73,1.4.93,1.17,1.46,1.69,1.31.78,1.83,1.31,1.04,1.06,1.55,1.6c.46.48.92.98,1.42,1.47s1.09.81,1.62,1.23,1.11.74,1.69,1.06c.61.33,1.12.79,1.77.93s1.26-.07,1.96-.2c.91-.17,1.81-.3,2.64-.72.69-.35,1.53-.39,2.22-.74s1.08-1.28,1.76-1.63,1.55-.35,2.24-.7,1.38-.68,2.07-1.03,1.28-.88,1.97-1.23,1.26-.92,1.94-1.28,1.6-.26,2.28-.61,1.28-.89,1.96-1.24,1.51-.43,2.2-.78,1.32-.8,2.01-1.15,1.21-1.02,1.89-1.37,1.36-.72,2.05-1.07,1.44-.57,2.13-.92,1.31-.82,2-1.17"/><path class="cls-1" d="M76.97,67.7c.3-.72.69-1.44,1.15-2.04s1.06-1.13,1.63-1.66,1.35-.77,1.95-1.26,1.08-1.11,1.67-1.6,1.32-.85,1.86-1.39.96-1.23,1.4-1.86c.41-.58.88-1.14,1.17-1.78s.24-1.41.44-2.09.42-1.33.55-2.03.37-1.37.46-2.06-.06-1.42.01-2.12c.08-.77.32-1.52.4-2.29s.05-1.55.12-2.32-.06-1.56.02-2.33.16-1.54.24-2.31.59-1.49.67-2.26-.23-1.58-.16-2.35c.1-1.01.45-2.09.02-3.01-.34-.73-1.15-1.14-1.76-1.67-.59-.5-1.03-1.16-1.62-1.66s-1.34-.8-1.93-1.29-.92-1.3-1.51-1.79-1.17-1-1.76-1.49-1.25-.91-1.83-1.41c-.53-.45-1.11-.86-1.65-1.31s-1.03-.96-1.58-1.39-1.06-.93-1.63-1.34-1.35-.49-1.95-.85-1.19-.71-1.82-1.02"/><path class="cls-1" d="M47.86,18.71c.41-.49.77-1.01,1.06-1.58s.49-1.18.63-1.79.23-1.25.23-1.89c0-.78-.13-1.58-.59-2.21-.63-.87-1.89-1.27-2.88-.85"/><path class="cls-1" d="M50.71,17.58c.65-.11,1.23-.4,1.75-.82s1.01-.88,1.33-1.45.59-1.19.77-1.83.29-1.29.39-1.94c.13-.84.11-1.75.02-2.6s-.37-1.71-.98-2.35c-.57-.61-1.35-.97-2.13-1.26-.66-.24-1.31-.54-1.98-.71s-1.39-.2-2.09-.31-1.39-.2-2.09-.23-1.4-.05-2.1-.02-1.4.1-2.09.21-1.4.19-2.08.36c-.89.23-1.82.55-2.54,1.12-.88.68-1.4,1.75-1.88,2.75-.37.79-.75,1.58-1.04,2.4s-.57,1.66-.79,2.5c-.17.66-.21,1.37-.29,2.05s-.19,1.39-.09,2.07.29,1.37.65,1.98c.48.81,1.21,1.44,2.01,1.95s1.69.83,2.53,1.2"/><path class="cls-1" d="M50.98,3.44c.8-.06,1.6-.04,2.39.08s1.62.21,2.36.51,1.36.86,2.02,1.32,1.3.93,1.84,1.53c.57.64,1.2,1.3,1.46,2.12.22.68.14,1.41.07,2.11s-.11,1.43-.38,2.09-.67,1.27-1.06,1.84c-.4.59-.91,1.08-1.37,1.6s-.93,1.05-1.45,1.52-1.02.97-1.58,1.4-1.23.69-1.82,1.08-1.1.88-1.71,1.24-1.24.67-1.85,1.01-1.32.52-1.94.85c-.57.3-1.14.69-1.7,1.05s-1.04.86-1.52,1.3c-.5.47-.85,1.02-1.16,1.59s-.42,1.17-.43,1.86c0,.68.11,1.26.4,1.86s.49,1.24.92,1.76.85,1.05,1.31,1.5c.51.51,1.03,1.02,1.55,1.53"/><path class="cls-1" d="M50.47,18.04c-.74.17-1.44.49-2.14.76s-1.4.58-2.06.94-1.28.79-1.9,1.23-1.26.84-1.82,1.36-1.07,1.08-1.56,1.66-1.06,1.11-1.47,1.75-.68,1.37-1,2.05-.51,1.42-.75,2.14c-.18.57-.31,1.14-.39,1.73s-.31,1.21-.18,1.79c.15.68.53,1.29.94,1.85s.89,1.04,1.42,1.49,1.06.88,1.61,1.27c.53.38,1.11.7,1.66,1.07s1.15.65,1.71.98,1.11.71,1.7.98,1.2.55,1.83.73c.6.17,1.22.17,1.83.27s1.2.33,1.82.4c.87.1,1.75.1,2.62.2s1.74.18,2.61.28"/><path class="cls-1" d="M56.66,40.58c-.38-.74-.53-1.55-.65-2.36s-.26-1.64-.14-2.46.48-1.57.83-2.32.69-1.52,1.26-2.12c.51-.52,1.14-.89,1.75-1.29s1.28-.66,1.92-1.01,1.19-.86,1.82-1.21,1.28-.69,1.85-1.12,1.05-.96,1.51-1.53c.47-.58,1.09-1.08,1.38-1.76s.39-1.45.55-2.18c.16-.75.16-1.52.2-2.29s.12-1.53.04-2.3-.44-1.47-.63-2.21-.22-1.52-.5-2.24-.53-1.45-.88-2.13-.85-1.28-1.28-1.91c-.59-.87-1.25-1.72-2.15-2.26s-2.07-.72-3.01-.26"/><path class="cls-1" d="M5.02,22.79c.5-.49,1.04-.95,1.58-1.39s1.1-.87,1.68-1.26,1.26-.62,1.86-.98,1.1-.89,1.72-1.22,1.35-.43,1.97-.75,1.12-.88,1.75-1.19,1.33-.45,1.95-.77c.7-.35,1.35-.78,2.04-1.15s1.32-.83,2-1.21,1.48-.55,2.16-.94,1.25-.95,1.92-1.35,1.4-.69,2.07-1.1,1.36-.76,2.03-1.17,1.34-.8,2-1.22,1.29-.88,1.95-1.3,1.28-.89,1.94-1.31"/><path class="cls-1" d="M41.33,2.82c.67-.09,1.29-.36,1.9-.64s1.2-.6,1.81-.89,1.24-.52,1.9-.65c.54-.11,1.09-.13,1.64-.14.74-.01,1.5.03,2.24.1s1.5.18,2.2.42,1.39.57,1.98,1.05"/><path class="cls-1" d="M7.16,25.34c.51.53,1.08.97,1.63,1.45s1.23.78,1.81,1.23.85,1.3,1.44,1.73,1.33.66,1.93,1.08,1.14.92,1.73,1.36.92,1.18,1.48,1.65c.61.52,1.34.89,1.92,1.44s1.19,1.07,1.76,1.63,1.29.98,1.85,1.55.9,1.37,1.48,1.93c.54.52,1.15.97,1.7,1.47s1.2.9,1.77,1.38,1.19.91,1.77,1.38,1.08,1.05,1.67,1.5,1.11,1.02,1.71,1.46,1.35.68,1.96,1.12,1.06,1.09,1.67,1.52,1.3.76,1.91,1.18,1.41.59,2.02,1.02c.61.42,1.24.68,1.93.95.72.28,1.37.73,2.14.75.64.02,1.23-.39,1.86-.46s1.26,0,1.87-.18,1.4.05,1.98-.23c.66-.32.92-1.32,1.52-1.73s1.31-.66,1.9-1.08,1.1-1.03,1.72-1.4c.54-.32,1.21-.47,1.78-.74s1.31-.13,1.9-.36.97-.96,1.56-1.19c.7-.28,1.48-.37,2.17-.67s1.46-.44,2.15-.75,1.28-.83,1.97-1.15,1.51-.34,2.19-.68,1.21-.95,1.88-1.3,1.29-.79,1.95-1.15,1.3-.76,1.95-1.14,1.47-.49,2.11-.88,1.29-.8,1.92-1.21,1.2-.93,1.82-1.36,1.51-.49,2.13-.92,1.11-1.06,1.71-1.51"/></g></svg>