<?xml version="1.0" encoding="UTF-8"?><svg id="_레이어_2" xmlns="http://www.w3.org/2000/svg" xmlns:xlink="http://www.w3.org/1999/xlink" viewBox="0 0 72.24 72.41"><defs><style>.cls-1{stroke:#ffe8c7;}.cls-1,.cls-2{stroke-miterlimit:10;}.cls-1,.cls-2,.cls-3{fill:none;}.cls-2{stroke:#000;}.cls-4{fill:#5b231b;}.cls-5{fill:#5b2e10;}.cls-6{clip-path:url(#clippath-1);}.cls-7{fill:#683a23;}.cls-8{clip-path:url(#clippath-2);}.cls-9{clip-path:url(#clippath);}</style><clipPath id="clippath"><rect class="cls-3" width="72.24" height="72.41"/></clipPath><clipPath id="clippath-1"><path class="cls-3" d="M33.79.55c-.75.05-1.49.29-2.22.38-.74.09-1.43.5-2.16.63-.73.14-1.47.23-2.18.41-.72.19-1.53.08-2.24.31-.71.23-1.19,1.08-1.88,1.35-.69.27-1.44.38-2.11.69-.67.32-1.43.46-2.08.82-.65.36-1.43.53-2.06.92-.63.4-1.13,1.01-1.73,1.45-.6.44-1.06,1.06-1.63,1.53-.57.47-1.37.7-1.91,1.21-.54.51-1.12,1.01-1.63,1.55-.51.54-.67,1.39-1.15,1.97-.47.57-.82,1.22-1.26,1.83-.44.6-.88,1.18-1.27,1.81-.4.62-1.12,1.06-1.48,1.71-.36.65-.65,1.35-.96,2.02-.32.67-.27,1.5-.54,2.19-.27.69-.66,1.33-.89,2.03-.23.7-.34,1.44-.53,2.16-.18.72-.75,1.35-.89,2.08-.14.73.13,1.52.04,2.26-.09.73-.5,1.44-.54,2.19-.05.74.13,1.49.13,2.24s-.13,1.5-.08,2.23c.05.75.3,1.47.39,2.2.09.74.43,1.43.57,2.15.14.73-.2,1.57-.02,2.28.19.72.9,1.28,1.12,1.99.23.71.37,1.43.64,2.12.28.69.53,1.38.84,2.05.32.67.44,1.44.8,2.09.36.65.78,1.27,1.18,1.9.4.63.97,1.13,1.4,1.73.44.6.93,1.14,1.41,1.71.47.57.96,1.11,1.47,1.65.51.54.91,1.17,1.45,1.68.54.51.95,1.17,1.52,1.64.57.47,1.2.89,1.8,1.32.6.44,1.24.83,1.86,1.23.63.4,1.4.55,2.05.91.65.36,1.1,1.1,1.78,1.42.67.32,1.43.46,2.12.73.69.27,1.38.58,2.08.81.7.23,1.51.12,2.23.31.72.18,1.38.63,2.11.77.73.14,1.44.44,2.18.54.73.09,1.49.12,2.24.17.74.04,1.5-.52,2.24-.52s1.5.41,2.23.36c.75-.05,1.45-.41,2.19-.5.35-.04.72.01,1.09.07.4.06.81.13,1.19.05.73-.14,1.44-.45,2.15-.63.72-.18,1.32-.79,2.02-1.01.71-.23,1.51-.18,2.2-.45.69-.28,1.36-.6,2.03-.92.67-.32,1.45-.45,2.09-.81.65-.36,1.05-1.15,1.67-1.55.63-.4,1.45-.5,2.05-.94.6-.44.92-1.23,1.49-1.7.57-.47,1.11-.96,1.65-1.47.54-.51,1.32-.77,1.82-1.31.51-.54,1.21-.93,1.68-1.5.47-.57.86-1.23,1.3-1.83.44-.6.83-1.25,1.23-1.87.4-.62.83-1.25,1.19-1.9.36-.65.24-1.54.55-2.22.32-.67.58-1.35.85-2.04.27-.69.47-1.39.7-2.09.23-.7.73-1.32.91-2.04.18-.72.71-1.37.84-2.1.14-.73-.33-1.55-.24-2.29.09-.73.5-1.43.55-2.18.05-.74.25-1.48.25-2.23s-.51-1.48-.56-2.21c-.05-.74-.2-1.46-.29-2.19-.09-.74.07-1.51-.07-2.23-.14-.73-.14-1.5-.32-2.21-.18-.72-.41-1.44-.64-2.14-.23-.71-.61-1.36-.88-2.05-.27-.69-.65-1.33-.97-2.01-.32-.67-.76-1.27-1.11-1.92-.36-.65-.43-1.47-.83-2.09-.4-.63-1.15-1.01-1.59-1.61-.44-.6-.54-1.46-1.01-2.03-.48-.57-.88-1.22-1.39-1.76-.51-.54-1.33-.77-1.87-1.28-.54-.51-1.22-.84-1.79-1.31-.57-.47-.98-1.14-1.58-1.58-.6-.44-1.21-.85-1.84-1.25s-1.39-.54-2.04-.89c-.65-.36-1.25-.77-1.92-1.09-.67-.32-1.37-.52-2.06-.79-.69-.27-1.22-.95-1.93-1.18-.7-.23-1.53-.03-2.25-.21-.72-.18-1.37-.6-2.1-.74-.73-.14-1.43-.43-2.17-.52-.73-.09-1.48-.1-2.23-.14-.74-.05-1.48-.34-2.23-.34s-1.51,0-2.25.05"/></clipPath><clipPath id="clippath-2"><rect class="cls-3" width="72.24" height="72.41"/></clipPath></defs><g id="_레이어_1-2"><g class="cls-9"><path class="cls-7" d="M71.74,36.27c0,.75-.2,1.5-.25,2.23-.05.75-.46,1.45-.55,2.18-.09.74.37,1.57.24,2.29-.14.73-.66,1.39-.84,2.1-.18.72-.68,1.34-.91,2.04-.23.71-.42,1.41-.7,2.09-.28.69-.54,1.37-.86,2.04-.32.67-.2,1.57-.55,2.22-.36.65-.79,1.28-1.19,1.9-.4.63-.79,1.27-1.23,1.87-.44.6-.83,1.26-1.3,1.83-.47.57-1.17.96-1.68,1.5-.51.54-1.28.81-1.83,1.31-.54.51-1.08.99-1.65,1.47-.57.47-.89,1.26-1.49,1.7-.6.44-1.42.54-2.05.94-.63.4-1.02,1.19-1.67,1.55-.65.36-1.42.49-2.09.81-.67.32-1.34.64-2.03.92-.69.27-1.49.22-2.2.45-.7.23-1.3.83-2.02,1.01-.72.18-1.42.49-2.15.63-.73.14-1.54-.22-2.28-.13-.73.09-1.44.46-2.19.5-.74.05-1.48-.36-2.23-.36s-1.51.57-2.24.53c-.75-.05-1.51-.08-2.24-.17-.74-.09-1.46-.4-2.18-.54-.73-.14-1.39-.59-2.11-.77-.72-.18-1.53-.08-2.23-.31-.71-.23-1.4-.54-2.08-.81-.69-.27-1.45-.42-2.12-.73-.67-.32-1.13-1.06-1.78-1.42-.65-.36-1.42-.51-2.05-.91-.63-.4-1.26-.79-1.86-1.23-.6-.44-1.23-.85-1.8-1.32-.57-.47-.98-1.14-1.53-1.64-.54-.51-.95-1.14-1.45-1.68-.51-.54-.99-1.08-1.47-1.66-.47-.57-.97-1.11-1.41-1.71-.44-.6-1.01-1.11-1.4-1.73-.4-.62-.82-1.24-1.18-1.9-.36-.65-.48-1.42-.8-2.09-.32-.67-.57-1.36-.84-2.05-.27-.69-.41-1.41-.64-2.12-.23-.7-.94-1.27-1.12-1.99-.18-.72.16-1.55.02-2.28-.14-.73-.48-1.41-.57-2.15-.09-.73-.35-1.45-.39-2.2-.04-.74.08-1.49.08-2.23s-.18-1.5-.14-2.24c.05-.75.45-1.45.54-2.19.09-.74-.18-1.54-.04-2.26.14-.73.71-1.37.89-2.08.19-.72.3-1.45.53-2.16.23-.71.62-1.35.89-2.03.27-.69.22-1.52.54-2.19.32-.67.61-1.37.96-2.02.36-.65,1.09-1.08,1.48-1.71.4-.63.84-1.21,1.27-1.81.44-.6.79-1.26,1.26-1.83.47-.57.64-1.43,1.15-1.97.51-.54,1.09-1.04,1.63-1.55.54-.51,1.34-.73,1.91-1.21.57-.47,1.03-1.1,1.63-1.53.6-.44,1.1-1.05,1.73-1.45.62-.4,1.4-.57,2.06-.92.65-.36,1.4-.5,2.08-.82.67-.32,1.42-.42,2.11-.69.69-.27,1.17-1.12,1.88-1.35.7-.23,1.52-.12,2.24-.3.72-.18,1.45-.27,2.18-.41.73-.14,1.42-.54,2.16-.63.73-.09,1.47-.33,2.22-.38.74-.05,1.5-.05,2.25-.05s1.49.29,2.23.34c.74.05,1.5.05,2.23.14.74.09,1.45.38,2.18.52.73.14,1.39.56,2.1.74.72.19,1.55-.01,2.25.21.71.23,1.24.91,1.93,1.18.69.27,1.39.48,2.06.79.67.32,1.27.73,1.92,1.09.65.36,1.42.5,2.04.89.63.4,1.24.81,1.84,1.25.6.44,1.01,1.1,1.58,1.58.57.47,1.25.8,1.79,1.31s1.37.74,1.88,1.28c.51.54.92,1.19,1.39,1.76.47.57.58,1.43,1.01,2.03.44.6,1.19.98,1.59,1.6.4.62.47,1.44.83,2.09.36.65.8,1.25,1.11,1.92.32.67.69,1.31.96,2,.27.69.65,1.34.88,2.05.23.7.45,1.42.64,2.14.18.72.18,1.48.32,2.21.14.72-.02,1.49.07,2.23.09.73.24,1.45.29,2.19.05.74.56,1.46.56,2.21"/></g><g class="cls-6"><polyline class="cls-4" points="56.09 67.27 53.77 66.01 52.04 66.65 50.42 67.71 48.8 68.93 46.93 69.13 44.87 67.96 43.22 69.61 41.31 68.28 39.47 69.51 37.72 68.53 35.99 68.05 34.21 68.04 32.69 67.13 31.18 66.27 29.16 66.45 27.54 65.73 25.73 65.11 24.68 63.02 22.37 63.37 21.23 61.5 19.04 61.55 18.1 59.42 16.17 58.97 13.96 58.88 12.94 57.03 10.79 56.72 10.46 54.13 8.78 53.15 6.92 52.28 4.99 51.34 4.96 48.92 4.58 46.98 2.17 45.98 2.02 43.77 .99 41.79 1.7 39.57 2.33 37.48 .48 35.49 1.28 33.56 2.27 31.72 2.6 29.82 3.4 28.04 2.24 25.7 2.93 23.83 3.73 22.01 6.17 20.96 6.76 19.13 6.99 17.31 7.39 19.04 7.25 20.91 5.64 22.52 5.27 24.35 5.29 26.26 4.14 27.95 5.35 30.06 5.01 31.9 4.21 33.66 4.09 35.54 3.11 37.26 3.22 39.37 2.97 41.43 2.72 43.76 4.71 44.65 5.3 46.47 6.61 47.63 8.52 48.21 9.9 49.44 10.61 51.53 12.06 52.71 14.08 53.1 16.08 53.42 17.63 54.38 18.62 56.36 20.92 55.9 21.96 58.1 24.1 57.66 25.5 59.6 27.84 58.25 29.3 60.15 31.52 59.22 33.29 60.06 35.21 60.49 36.22 62.86 38.33 62.93 39.49 64.49 41.61 66.08 39.42 64.43 37.8 63.36 35.59 63.84 33.62 63.66 31.88 62.9 29.95 62.63 28.3 61.64 27.09 59.46 24.99 59.64 23.43 58.31 21.42 58.13 19.56 57.53 17.69 56.93 16.12 55.73 13.9 55.6 13.25 53.13 11.08 52.71 10.17 50.87 8.37 49.79 8.5 47.46 6.3 46.32 6.87 44.1 6.63 42.24 7.01 40.42 6.42 37.41 8.57 39.23 9.38 40.98 9.9 42.95 11.04 44.36 12.5 45.53 13 47.41"/><path class="cls-5" d="M65.68,50.87c-5.8-3.15-11.73-4.84-18.24-2.71-3.14,1.03-5.66,2.43-8.22,4.36,3.2-.86,6.39-1.73,9.59-2.59-.62.07-1.25.14-1.87.2,3.2.86,6.39,1.73,9.59,2.59-.69-.39-1.38-.78-2.06-1.17-7.36-4.16-17-3.04-23.02,2.97-.55.55-1.1,1.1-1.65,1.65,7.67-.99,15.35-1.98,23.02-2.97-.64-.45-1.27-.89-1.91-1.34-5.19-3.63-13.98-3.5-19.18,0-.61.41-1.22.82-1.83,1.23h19.18c-4.76-2.67-9.34-4.04-14.85-4.06,3.2.86,6.39,1.73,9.59,2.59-4.52-2.72-9.22-4.67-14.64-4.19,3.2.86,6.39,1.73,9.59,2.59-2.63-1.15-5.25-2.31-7.96-3.25,3.78,2.91,7.57,5.82,11.35,8.73-.35-.7-.71-1.4-1.06-2.1-4.11-8.13-13.4-9.96-21.46-8.73-.77.12-1.54.23-2.31.35,7.15,2.91,14.31,5.82,21.46,8.73-4.54-7.44-10.9-11.41-19.73-11.24,5.47,3.14,10.94,6.27,16.41,9.41-4.01-9.1-12.44-11.68-21.48-12.08,5.47,3.14,10.94,6.27,16.41,9.41-3.14-5.67-8-9.96-14.53-10.89,4.65,6.11,9.3,12.21,13.95,18.32-.22-1.7-.44-3.41-.67-5.11-.85-6.31-4.5-11.18-9.91-14.37-1.48-.87-3.08-1.54-4.63-2.3,3.14,5.47,6.27,10.94,9.41,16.41-.05-3.14-.19-6.4-1.1-9.41-2.45-8.13-8.45-11.28-15.68-14.27,4.65,6.11,9.3,12.21,13.95,18.32-.35-4.96-1.49-9.37-3.77-13.78.64,4.88,1.28,9.76,1.92,14.64.46-1.43.9-2.87,1.34-4.31,2.01-6.6-.31-13.6-4.89-18.49-.62-.66-1.24-1.32-1.86-1.98,1.63,6.16,3.26,12.32,4.89,18.49.22-.53.5-1.08.68-1.63-.54,1.32-1.09,2.63-1.63,3.95.11-.21.23-.42.34-.63.67-.29,3.52-11.4,2.41-5.46.23-1.25,1.05-2.65-.57.39-1.86,3.49-.59,1.35-.22.47,1.72-4.08,2.87-7.56,2.25-12.12-.46-3.42-1.91-6.36-3.42-9.41.64,4.88,1.28,9.76,1.92,14.64,1.58-4.3-2.25,4.98-.42.85l-6.82,6.82c9.16-3.92,11.53-12.14,12.67-21.1-12.44,1.68-24.88,3.37-37.32,5.05.94,4.05-.1-5.75-.42-1.45,1.86-4.48,3.71-8.96,5.57-13.43-5.36,5.34-7.62,11.35-7.52,18.78.87-3.2,1.73-6.39,2.59-9.59l-1.16,1.69c-3.79,5.54-3.2,13.58,0,19.18.4.71.81,1.41,1.21,2.12-.64-4.88-1.28-9.76-1.92-14.64-.79,4.25,2.49-4.98.78-.94-1.62,3.83-2.45,7.33-2.71,11.47.86-3.2,1.73-6.39,2.59-9.59-3.26,5.74-3.28,11.55-3.97,17.81-.65,5.93,3.96,13.97,9.41,16.41.66.3,1.33.59,1.99.89-2.91-3.78-5.82-7.57-8.73-11.35,2.9,8.89,8.15,14.08,17.08,16.83-2.8-1.63-5.59-3.26-8.38-4.89.46.41.92.82,1.38,1.23-1.63-2.79-3.26-5.59-4.89-8.38,2.41,7.03,6.13,12.61,13.17,15.58,1.56.66,2.8,1.17,4.44,1.37,4.46.54-4.55-2.77-1.15-.65-2.27-2.27-4.54-4.54-6.82-6.82.33.66.66,1.32,1,1.97,3.96,7.86,13.52,10.32,21.46,8.73l2.3-.46c-7.15-2.91-14.31-5.82-21.46-8.73.34.73.69,1.47,1.04,2.2,3.72,7.91,13.7,10.31,21.46,8.73.71-.15,1.43-.29,2.14-.43-7.15-2.91-14.31-5.82-21.46-8.73.47.65.93,1.29,1.39,1.94,6.01,8.36,16.41,12.36,26,6.82l2.34-1.35c-8.67-2.27-17.33-4.55-26-6.82.49.64.98,1.27,1.47,1.9,4.65,6.02,13.18,12.2,21.46,8.73.74-.31,1.48-.62,2.22-.93-4.88-.64-9.76-1.28-14.64-1.92,2.67,1.26,5.34,2.53,8.22,3.18-3.78-2.91-7.57-5.82-11.35-8.73.34.79.67,1.58,1.01,2.37,2.59,6.08,10.32,9.21,16.41,9.41.7.02,1.41.05,2.11.07-5.47-3.14-10.94-6.27-16.41-9.41,2.94,3.96,6.19,7.04,10.1,9.97,7.99,5.98,21.57,1.55,25.99-6.82,5.28-10,1.68-19.57-6.82-25.99-2-1.51-3.72-2.68-6.08-3.68-4.38-1.85-8.5-1.65-13.1-.8-3.76.69,6.08-.12,1.6-.53,3.2.86,6.39,1.73,9.59,2.59-2-.87-4.74-2.6-6.53-2.71-3.51-.21,4.71,2.78,1.21.69,2.27,2.27,4.54,4.54,6.82,6.82l-1.21-2.18c-3.01-5.44-10.02-9.96-16.41-9.41l-2.1.18c4.48,1.85,8.96,3.71,13.44,5.56-3.04-2.59-5.97-5.12-9.95-6.22,1.28.35-4.58-.78-6.06-.77-3.21.02,6.55.06,2.67.15-.62.01-1.25-.61-1.87-.6.54-.01,5.83,2.43,2.48.56-3.67-2.05-7.71-2.48-11.81-2.73,6.11,4.65,12.21,9.3,18.32,13.95-.22-.82-.43-1.65-.65-2.47-1.58-6-6.97-12.06-13.27-13.27-.72-.14-1.45-.28-2.17-.42,3.78,2.91,7.57,5.82,11.35,8.73-2.09-4.28-5.48-7.32-9.52-9.74,3.14,5.47,6.27,10.94,9.41,16.41.04-.78.09-1.55.14-2.33.37-6.31-3.81-13.52-9.41-16.41-.74-.38-1.47-.76-2.21-1.14,2.91,7.15,5.82,14.3,8.73,21.46.19-.74.43-1.47.58-2.22.35-1.73.62-3.78.62-5.53,0-3.41-1.06,5.39-.67,2.76.74-4.9.54-9.23-.4-14.02-10.59,6.16-21.17,12.32-31.76,18.49.97.82,3.23,3.28.66.03-3.09-3.9.29,1.96-1.68-2.64-1.58-3.68-.77-1.49-.46-.53,1.43,4.33,3.99,8.4,7.57,11.27-1.63-2.79-3.26-5.59-4.89-8.38.17.62.33,1.25.5,1.88,2.58,9.6,13.65,16.42,23.37,13.27,9.85-3.19,16.03-13.09,13.27-23.37-1.44-5.37-4.69-8.76-7.99-12.84,1.63,2.79,3.26,5.59,4.89,8.38-1.45-5.53-4-10.22-8.37-13.92-6.27-5.3-15.57-7.78-23.02-2.97-7.47,4.82-10.43,12.84-8.73,21.46.2,1,.4,2,.59,3.01v-10.1c-.49,2.36-1.21,4.99-.99,7.36.27,3,.76-3.38.77-3.33.04.49-.36,1.37-.49,1.87-2.03,7.79,1.25,17.6,8.73,21.46.74.38,1.47.76,2.21,1.14-3.14-5.47-6.27-10.94-9.41-16.4-.05.78-.09,1.55-.14,2.33-.39,6.61,3.91,13.12,9.41,16.41.6.36,1.2.72,1.81,1.08-2.27-2.27-4.54-4.54-6.82-6.82,2.88,5.88,8.04,9.76,14.43,10.99-4.42-4.42-8.85-8.85-13.27-13.27.22.82.43,1.65.65,2.47,2.23,8.46,9.98,13.45,18.32,13.95.74.04,1.48.09,2.22.13-3.2-.86-6.39-1.73-9.59-2.59,4.81,3.67,11.05,4.66,16.9,5.17-4.48-1.85-8.96-3.71-13.44-5.56,5.06,4.31,10.27,7.31,17.1,6.72-5.47-3.14-10.94-6.27-16.41-9.41,2.01,3.64,4.53,6.64,8.02,9,.53.36,1.1.68,1.66.99-2.05-1.14,9.81,4.84,4.17,1.3-4.05-2.55,1.07.41,1.77.7,2.67,1.13,5.36,1.68,8.3,1.73,2.8.04,5.52-.48,8.25-1.07-4.88-.64-9.76-1.28-14.64-1.92,1.31.86,2.56,1.78,3.82,2.72,6.39-10.94,12.79-21.88,19.18-32.81-.71-.53-1.42-1.06-2.13-1.59,2.27,2.27,4.54,4.54,6.82,6.82-2.91-3.92-5.54-7.35-10.24-9.33-3.02-1.28-6.17-1.6-9.43-1.71,5.47,3.14,10.94,6.27,16.41,9.41-.76-1.79-1.24-2.66-2.5-4.3-2.6-3.37-5.87-5.47-9.87-6.81-1.08-.36-2.9-1.16.37.47,3.48,1.73,1.54.64.71.28-3.25-1.42-6.23-2.7-9.82-2.7-2.6,0-4.94.63-7.27,1.61,7.15,2.91,14.3,5.82,21.46,8.73-.49-.63-.98-1.27-1.47-1.9-6.3-8.16-16.16-12.5-26-6.82-.78.45-1.56.9-2.34,1.35,8.67,2.27,17.33,4.54,26,6.82-.47-.65-.93-1.29-1.4-1.94-5.29-7.35-12.51-10.55-21.46-8.73-.71.15-1.43.29-2.14.43,7.15,2.91,14.31,5.82,21.46,8.73-.35-.73-.69-1.47-1.04-2.2-3.73-7.92-13.69-10.29-21.46-8.73-.77.15-1.53.31-2.3.46,7.15,2.91,14.31,5.82,21.46,8.73-3.74-7.41-10.18-10.88-17.92-12.38,2.79,1.63,5.59,3.26,8.38,4.89-.48-.39-.97-.79-1.45-1.18,1.63,2.79,3.26,5.59,4.89,8.38-3.07-8.97-8.03-14.33-17.27-17.17,2.79,1.63,5.59,3.26,8.38,4.89-.44-.39-.87-.77-1.31-1.16,1.63,2.79,3.26,5.59,4.89,8.38-2-6.12-5.3-11.37-11.32-14.06,3.14,5.47,6.27,10.94,9.41,16.41.24-2.2.51-4.29.39-6.5-.86,3.2-1.73,6.39-2.59,9.59,2.4-4.22,3.39-8.37,3.69-13.19-.87,3.2-1.73,6.39-2.59,9.59,3.92-8.68,4.94-16.11-.07-24.89v19.18c1.83-2.68,2.97-5.48,3.41-8.76-.25,1.88.4-4.09.32-3.94-.22.45-1.06,6.42-.32,2.72-1.63,2.79-3.26,5.59-4.89,8.38,6.73-6.7,8.31-14.75,6.24-23.7C23.18,3.04,13.4-2.55,4.46-1.35-5.63,0-10.8,7.77-12.01,17.31c-.55,4.32,1.23-5.64-.14-1.4,2.91-3.78,5.82-7.57,8.73-11.35-6.19,2.65-9.96,7.92-11.97,14.22-2.19,6.83-.72,12.59,2.39,18.85v-19.18c-.91,2.02-2.15,4.35-2.72,6.32-1.21,4.23,1.86-3.91,1.27-2.04-.83,2.61-2.31,5.14-3.39,7.71-2.58,6.18.67,13.99,4.89,18.49.62.66,1.24,1.32,1.86,1.98-1.63-6.16-3.26-12.32-4.89-18.49-.42,1.38-.92,2.75-1.29,4.14-1.64,6.2.08,11.38,2.88,16.79-.86-3.2-1.73-6.39-2.59-9.59.05.74.1,1.48.16,2.21.65,9.34,5.64,14.88,13.95,18.32.8.33,1.6.66,2.4.99-4.42-4.42-8.85-8.85-13.27-13.27.89,4.53-.35-6.31-.26-.69.1,6.34,3.46,13.48,9.41,16.41,1.85.91,3.69,1.75,5.46,2.79-3.14-5.47-6.27-10.94-9.41-16.41.11.86.22,1.73.33,2.59.95,7.5,5.17,17.06,13.95,18.32.72.1,1.44.21,2.15.31-3.79-2.91-7.57-5.82-11.35-8.73,2.75,4.97,6.68,9.01,12.38,10.58-.7-.19,4.59.82,6.15.73,3.36-.21-6.64-1.25-2.02-.19-3.78-2.91-7.57-5.82-11.35-8.73.31.71.63,1.42.94,2.13,2.57,5.84,10.34,9.53,16.4,9.41.73-.01,1.46-.03,2.19-.04-5.47-3.14-10.94-6.27-16.41-9.41.38.62.76,1.25,1.14,1.87,4.83,7.91,12.85,10.05,21.46,8.73.77-.12,1.54-.24,2.31-.35-7.15-2.91-14.3-5.82-21.46-8.73.78,1.54,1.45,2.6,2.54,4.02,2.07,2.68,4.48,4.53,7.6,5.85-1.18-.5,3.47,1.54,3.61,1.42.02-.01-5.49-2.34-2.87-1.23,1.58.67,3.31,1.65,4.96,2.1,2.29.63,4.72.71,7.07.5-3.2-.86-6.39-1.73-9.59-2.59,4.06,2.31,7.75,3.99,12.62,4.37,4.5.35-5.57-1.42-1.99-.32-6.16-1.89-4.31-1.92-2.34-.81,5.66,3.18,13.57,3.78,19.18,0,.61-.41,1.22-.82,1.83-1.23h-19.18c.64.44,1.27.89,1.91,1.34,6.83,4.78,17.41,2.63,23.02-2.97.55-.55,1.1-1.1,1.65-1.65-7.67.99-15.35,1.98-23.03,2.97,5.54,3.13,12.25,4.93,18.58,2.88,2.19-.71,4.22-1.64,6.03-3.04,3.6-2.78-4.9,1.53-1.06.12-4.88-.64-9.76-1.28-14.64-1.92.77.42,1.55.84,2.32,1.26,8.73,4.75,21.1,2.44,25.99-6.82,4.69-8.88,2.51-20.92-6.82-26"/><path class="cls-1" d="M62.29,63.72c-.03-.77-.34-1.51-.45-2.27-.1-.76.09-1.58-.08-2.33-.17-.75-.43-1.48-.66-2.22-.23-.73-.4-1.49-.67-2.21-.27-.72-.58-1.43-.89-2.14-.31-.7-.65-1.4-.99-2.09-.34-.69-.77-1.34-1.13-2.02-.36-.68-.59-1.43-.95-2.11-.37-.68-1.15-1.13-1.52-1.8-.4-.73-.46-1.68-.94-2.37-.48-.69-.98-1.46-1.65-1.98-.65-.51-1.58-.97-2.39-1.09-.84-.13-1.87.11-2.59.57-.61.39-1.14,1.03-1.41,1.67-.26.61-.14,1.41-.17,2.12-.03.69.16,1.38.28,2.04.2,1.07.49,2.1,1.21,2.92.52.59,1.11,1.12,1.87,1.32.75.2,1.53,0,2.29-.18.77-.17,1.47-.4,2.12-.84.65-.44,1.44-.76,1.95-1.36.49-.58.96-1.25,1.31-1.93.36-.68.29-1.54.49-2.27.21-.73.4-1.45.45-2.22.05-.78.23-1.56.12-2.31-.11-.76-.7-1.4-.93-2.14-.22-.73-.28-1.5-.59-2.21-.31-.7-.32-1.56-.68-2.24-.36-.68-1.01-1.21-1.39-1.87-.39-.67-.67-1.4-1.06-2.05-.39-.65-.75-1.32-1.12-2.01-.36-.68-.62-1.39-.93-2.09-.31-.71-.56-1.41-.79-2.14-.23-.74-.37-1.46-.49-2.21-.12-.76-.46-1.48-.43-2.25.03-.76.15-1.51.36-2.26.23-.82.65-1.63,1.22-2.27.59-.68,1.33-.92,2.22-1,.78-.07,1.36.12,2.01.56.63.42,1.33.8,1.74,1.44.4.62.8,1.25,1.03,1.93.23.68.19,1.44.26,2.16.07.71.31,1.45.23,2.18-.07.71-.37,1.41-.57,2.11-.19.69-.6,1.31-.9,1.97-.29.66-.64,1.28-1.02,1.88-.37.58-.65,1.24-1.12,1.74-.48.51-1.03.93-1.65,1.26-.66.35-1.35.64-2.08.72-.72.08-1.47-.05-2.21-.14-.73-.09-1.4-.5-2.1-.67-.78-.19-1.58-.28-2.36-.53-.77-.25-1.63-.26-2.38-.58-.75-.32-1.55-.59-2.24-1-.71-.42-1.15-1.21-1.77-1.72-.63-.52-1.4-.89-1.91-1.52-.51-.62-.84-1.38-1.2-2.13-.34-.71-.29-1.55-.51-2.3-.22-.75-.82-1.4-1.03-2.15-.21-.74-.04-1.61-.27-2.37-.23-.74-1.01-1.33-1.23-2.08-.23-.75,0-1.63-.19-2.38-.19-.76-.51-1.49-.64-2.25-.13-.78-.26-1.55-.29-2.32-.03-.79-.2-1.6-.09-2.37.11-.76.62-1.45.9-2.19.34-.9.81-1.93,1.74-2.14.57-.13,1.29-.17,1.82.08.71.33,1.02,1.23,1.52,1.83.5.59,1.36,1.03,1.6,1.77.24.74-.25,1.58-.34,2.36-.09.76.2,1.62-.11,2.32-.31.69-.86,1.3-1.24,1.95-.41.7-.83,1.4-1.26,2.1s-.83,1.42-1.29,2.09c-.46.67-1.22,1.12-1.73,1.76-.51.64-1.11,1.16-1.69,1.74-.57.58-.99,1.31-1.63,1.81-.65.5-1.23,1.12-1.94,1.52-.71.4-1.62.35-2.39.61-.77.27-1.47.69-2.29.79-.73.1-1.44-.06-2.17-.13-.73-.07-1.52.15-2.22-.06-.7-.21-1.36-.59-2.01-.93-.65-.34-1.31-.7-1.89-1.15-.58-.45-.94-1.13-1.43-1.68-.49-.55-1.32-.86-1.71-1.49-.38-.63-.72-1.35-.97-2.04-.25-.69.13-1.54.04-2.27"/></g><g class="cls-8"><path class="cls-2" d="M71.74,36.27c0,.75-.2,1.5-.25,2.23-.05.75-.46,1.45-.55,2.18-.09.74.37,1.57.24,2.29-.14.73-.66,1.39-.84,2.1-.18.72-.68,1.34-.91,2.04-.23.71-.42,1.41-.7,2.09-.28.69-.54,1.37-.86,2.04-.32.67-.2,1.57-.55,2.22-.36.65-.79,1.28-1.19,1.9-.4.63-.79,1.27-1.23,1.87-.44.6-.83,1.26-1.3,1.83-.47.57-1.17.96-1.68,1.5-.51.54-1.28.81-1.83,1.31-.54.51-1.08.99-1.65,1.47-.57.47-.89,1.26-1.49,1.7-.6.44-1.42.54-2.05.94-.63.4-1.02,1.19-1.67,1.55-.65.36-1.42.49-2.09.81-.67.32-1.34.64-2.03.92-.69.27-1.49.22-2.2.45-.7.23-1.3.83-2.02,1.01-.72.18-1.42.49-2.15.63-.73.14-1.54-.22-2.28-.13-.73.09-1.44.46-2.19.5-.74.05-1.48-.36-2.23-.36s-1.51.57-2.24.53c-.75-.05-1.51-.08-2.24-.17-.74-.09-1.46-.4-2.18-.54-.73-.14-1.39-.59-2.11-.77-.72-.18-1.53-.08-2.23-.31-.71-.23-1.4-.54-2.08-.81-.69-.27-1.45-.42-2.12-.73-.67-.32-1.13-1.06-1.78-1.42-.65-.36-1.42-.51-2.05-.91-.63-.4-1.26-.79-1.86-1.23-.6-.44-1.23-.85-1.8-1.32-.57-.47-.98-1.14-1.53-1.64-.54-.51-.95-1.14-1.45-1.68-.51-.54-.99-1.08-1.47-1.66-.47-.57-.97-1.11-1.41-1.71-.44-.6-1.01-1.11-1.4-1.73-.4-.62-.82-1.24-1.18-1.9-.36-.65-.48-1.42-.8-2.09-.32-.67-.57-1.36-.84-2.05-.27-.69-.41-1.41-.64-2.12-.23-.7-.94-1.27-1.12-1.99-.18-.72.16-1.55.02-2.28-.14-.73-.48-1.41-.57-2.15-.09-.73-.35-1.45-.39-2.2-.04-.74.08-1.49.08-2.23s-.18-1.5-.14-2.24c.05-.75.45-1.45.54-2.19.09-.74-.18-1.54-.04-2.26.14-.73.71-1.37.89-2.08.19-.72.3-1.45.53-2.16.23-.71.62-1.35.89-2.03.27-.69.22-1.52.54-2.19.32-.67.61-1.37.96-2.02.36-.65,1.09-1.08,1.48-1.71.4-.63.84-1.21,1.27-1.81.44-.6.79-1.26,1.26-1.83.47-.57.64-1.43,1.15-1.97.51-.54,1.09-1.04,1.63-1.55.54-.51,1.34-.73,1.91-1.21.57-.47,1.03-1.1,1.63-1.53.6-.44,1.1-1.05,1.73-1.45.62-.4,1.4-.57,2.06-.92.65-.36,1.4-.5,2.08-.82.67-.32,1.42-.42,2.11-.69.69-.27,1.17-1.12,1.88-1.35.7-.23,1.52-.12,2.24-.3.72-.18,1.45-.27,2.18-.41.73-.14,1.42-.54,2.16-.63.73-.09,1.47-.33,2.22-.38.74-.05,1.5-.05,2.25-.05s1.49.29,2.23.34c.74.05,1.5.05,2.23.14.74.09,1.45.38,2.18.52.73.14,1.39.56,2.1.74.72.19,1.55-.01,2.25.21.71.23,1.24.91,1.93,1.18.69.27,1.39.48,2.06.79.67.32,1.27.73,1.92,1.09.65.36,1.42.5,2.04.89.63.4,1.24.81,1.84,1.25.6.44,1.01,1.1,1.58,1.58.57.47,1.25.8,1.79,1.31s1.37.74,1.88,1.28c.51.54.92,1.19,1.39,1.76.47.57.58,1.43,1.01,2.03.44.6,1.19.98,1.59,1.6.4.62.47,1.44.83,2.09.36.65.8,1.25,1.11,1.92.32.67.69,1.31.96,2,.27.69.65,1.34.88,2.05.23.7.45,1.42.64,2.14.18.72.18,1.48.32,2.21.14.72-.02,1.49.07,2.23.09.73.24,1.45.29,2.19.05.74.56,1.46.56,2.21Z"/></g></g></svg>