<svg width="109" height="92" viewBox="0 0 109 92" fill="none" xmlns="http://www.w3.org/2000/svg">
<g clip-path="url(#clip0_196_14945)">
<path d="M48.496 29.6807C48.3625 30.1174 48.4257 30.6174 48.2852 31.04C48.1447 31.4626 48.0252 31.8993 47.8917 32.3219C47.7582 32.7445 47.0626 33.0333 46.9642 33.47C46.8659 33.9067 46.6691 34.2448 46.3881 34.6603C46.107 35.0759 46.2124 35.7239 45.9524 36.1112C45.6644 36.5338 45.5449 36.9001 45.4746 37.3579C45.4044 37.8298 45.573 38.1609 45.84 38.668C46.0789 39.1187 45.9173 39.8231 46.1632 40.2668C46.4443 40.7739 46.6129 41.1261 46.5708 41.591C46.5286 42.0558 46.6059 42.6052 46.2616 43.0489C45.9524 43.4434 45.6503 43.8871 45.3412 44.2815C44.9898 44.7323 44.3434 45.0492 44.3223 45.5141C44.3012 46.0001 44.6736 46.5002 44.6877 46.9861C44.7018 47.4721 44.3012 48.0215 44.3575 48.4864C44.4207 49.0076 45.0671 49.395 45.1655 49.8246C45.2779 50.3036 45.046 50.9022 45.2709 51.353C45.4957 51.8038 45.9243 52.1489 46.1913 52.5504C46.4864 52.9941 46.9151 53.3111 47.1821 53.6632C47.4701 54.0436 47.702 54.4521 48.0955 54.7409C48.489 55.0296 48.7489 55.5508 49.1705 55.7833C49.6132 56.0227 50.2737 55.8185 50.6812 56.0227C51.0887 56.227 51.4611 56.6003 51.9249 56.6214C52.3886 56.6426 52.8523 56.4031 53.3161 56.3679C53.7798 56.3326 54.2506 56.6214 54.6862 56.6707C55.3959 56.7482 56.0634 56.5792 56.6536 56.5792C57.3703 56.5792 57.9956 56.4735 58.5577 56.2974C59.1901 56.1002 59.8928 56.1636 60.4689 55.9382C61.0872 55.6917 61.558 55.1071 62.1482 54.9662C62.5768 54.8606 63.0265 55.093 63.4692 55.1775C63.9118 55.2621 64.3404 55.3395 64.762 55.4593C65.2117 55.579 65.6614 55.7762 66.076 55.7551C66.7013 55.7269 67.2002 55.9523 67.7834 56.1495C68.3244 56.3256 68.9076 56.5369 69.54 56.6778C70.1161 56.8046 70.7977 56.3327 71.4652 56.3045C72.0835 56.2763 72.8142 56.2622 73.4326 56.5228C73.9806 56.7482 74.4865 57.1849 75.0627 57.5159C75.5826 57.8118 76.222 57.9315 76.8052 58.2414C77.2057 58.4527 77.3603 59.1711 77.7608 59.3402C78.1824 59.5162 78.7515 59.2697 79.159 59.4106C79.5947 59.5585 79.9179 60.0093 80.3254 60.136C80.7681 60.2699 81.267 60.0938 81.6956 60.0304C82.1242 59.967 82.5317 59.7416 82.9533 59.6148C83.3749 59.4881 83.8246 59.1852 84.2532 59.1641C84.9066 59.1289 85.4828 59.2697 86.0519 59.157C86.621 59.0443 87.2885 59.2204 87.9069 58.9176C88.476 58.6429 88.6376 57.7906 89.1295 57.3751C89.5651 57.0018 90.2115 56.8186 90.7385 56.3749C91.1952 55.9805 91.7573 55.6494 92.3405 55.3748C92.9237 55.1001 93.5842 54.9592 94.1112 54.6775C94.6381 54.3957 95.1932 53.9661 95.8186 53.8886C96.4439 53.8111 97.1817 54.1844 97.7297 53.9731C98.2778 53.7618 98.6432 53.1138 99.142 52.7828C99.6409 52.4518 100.351 52.4799 100.892 52.2616C101.433 52.0433 101.791 51.4094 102.234 51.0713C102.676 50.7332 103.021 50.1697 103.505 49.8528C103.99 49.5358 104.777 49.7471 105.227 49.4795C105.677 49.2118 106.112 48.7399 106.428 48.2117C106.723 47.7116 106.351 47.12 106.309 46.5354C106.267 46.0423 106.66 45.5 106.702 44.8802C106.731 44.4153 106.78 44.0209 107.012 43.5983C107.243 43.1757 107.194 42.6052 107.426 42.2108C107.686 41.767 107.988 41.4501 107.995 41.0134C108.002 40.5767 107.96 40.0978 108.009 39.654C108.058 39.2103 108.122 38.7666 108.164 38.3299C108.199 37.8721 108.712 37.4072 108.67 36.9776C108.621 36.5198 107.855 36.3155 107.524 35.9211C107.229 35.5689 106.99 35.1322 106.667 34.7801C106.323 34.4068 106.302 33.8856 106.168 33.4559C106.035 33.0263 105.67 32.5966 105.733 32.0965C105.789 31.6387 106.049 31.188 106.07 30.7231C106.091 30.2582 106.239 29.6948 106.028 29.2792C105.817 28.8777 105.241 28.7157 104.798 28.4411C104.398 28.1875 104.068 27.7719 103.667 27.5184C103.224 27.2366 102.88 26.9901 102.676 26.5887C102.473 26.1872 102.142 25.8209 102.079 25.3561C102.016 24.8912 102.198 24.4193 102.142 23.9756C102.086 23.5319 101.742 23.1586 101.538 22.7641C101.334 22.3697 101.166 21.9119 101.06 21.4682C100.955 21.0244 101.313 20.4891 101.208 20.0595C101.102 19.6298 100.533 19.3552 100.329 18.9748C100.126 18.5945 100.231 17.9888 99.9571 17.6436C99.6831 17.2985 99.1491 17.1576 98.875 16.8125C98.601 16.4674 98.2216 16.1575 98.0038 15.7842C97.7859 15.4109 97.5049 15.1573 97.1395 14.8686C96.7741 14.5798 96.4088 14.3473 96.0504 14.0797C95.6921 13.8121 95.7202 13.1429 95.4743 12.7837C95.2283 12.4245 94.7154 12.1991 94.5679 11.7765C94.4203 11.3539 94.2728 10.9384 94.1182 10.5299C93.9636 10.1213 94.062 9.52267 93.7809 9.19163C93.3593 8.68451 92.8253 8.26895 92.3475 7.83227C91.8697 7.39558 91.2444 7.11385 90.7666 6.67716C90.2888 6.24047 89.8743 5.69814 89.3332 5.3671C88.7922 5.03606 88.1458 4.86702 87.6047 4.5219C87.2394 4.28947 86.9724 3.89504 86.6773 3.5147C86.3892 3.15549 85.9254 2.93011 85.6303 2.59203C85.3141 2.23282 85.0963 1.81726 84.6747 1.65526C84.2532 1.49327 83.8527 1.78909 83.3468 1.92995C82.9041 2.04969 82.3841 2.02152 81.9274 2.15534C81.4426 2.29621 80.9086 2.54977 80.4659 2.47229C79.8336 2.36664 79.2715 1.91587 78.6461 1.90882C78.0559 1.90882 77.4516 2.21169 76.7841 2.21169C76.3344 2.21169 75.9902 1.73274 75.5475 1.58483C75.1048 1.43692 74.6551 1.3524 74.2336 1.21858C73.7839 1.07771 73.3201 1.46509 72.8845 1.53553C72.4489 1.60596 71.9359 1.32423 71.4722 1.31014C71.0085 1.29605 70.5517 1.50735 70.1091 1.50735C69.6383 1.50735 69.2097 1.42283 68.7881 1.5637C68.3665 1.70457 67.952 1.86656 67.5515 2.08491C67.151 2.30325 66.7294 2.47933 66.343 2.71881C65.9565 2.95828 65.5279 3.14845 65.1414 3.35975C64.755 3.57105 64.4318 3.90913 64.0805 4.19086C63.7291 4.4726 63.5535 4.9445 63.2232 5.24032C62.893 5.53614 62.2606 5.49388 61.9093 5.76857C61.558 6.04326 61.6142 6.6842 61.3894 7.08567C61.1645 7.48714 61.031 7.9027 60.8273 8.31121C60.6235 8.71973 60.0614 8.90285 59.7522 9.22685C59.4431 9.55084 59.1971 10.1354 58.7123 10.3115C58.2626 10.4735 57.7005 10.3749 57.2649 10.551C56.7871 10.7412 56.3023 10.9032 56.0283 11.2765C55.7542 11.6498 55.7612 12.1287 55.6278 12.5936C55.5083 13.0302 55.3116 13.4599 55.1921 13.9036C55.0727 14.3473 54.6581 14.6432 54.4262 15.0306C54.1944 15.4179 54.2787 15.9673 54.1382 16.3899C53.9976 16.8125 53.9414 17.2562 53.8149 17.6788C53.6885 18.1014 53.6182 18.5663 53.4215 18.9607C53.2247 19.3552 52.6697 19.5172 52.3745 19.8693C52.0794 20.2215 51.8124 20.5737 51.5314 20.9188C51.2503 21.2639 51.2011 21.7851 51.0325 22.1936C50.8639 22.6021 50.8147 23.0318 50.7725 23.4896C50.7304 23.9474 50.885 24.4052 50.8498 24.849C50.8147 25.2927 50.5758 25.7646 50.4212 26.1872C50.2666 26.6098 50.0629 27.0183 49.831 27.4057C49.5991 27.7931 49.1986 28.0678 48.9738 28.4551C48.7489 28.8425 48.6506 29.2863 48.5171 29.7159L48.496 29.6807Z" fill="#70382D"/>
<mask id="mask0_196_14945" style="mask-type:luminance" maskUnits="userSpaceOnUse" x="44" y="1" width="65" height="60">
<path d="M48.496 29.6807C48.3625 30.1174 48.4257 30.6174 48.2852 31.04C48.1447 31.4626 48.0252 31.8993 47.8917 32.3219C47.7582 32.7445 47.0626 33.0333 46.9642 33.47C46.8659 33.9067 46.6691 34.2448 46.3881 34.6603C46.107 35.0759 46.2124 35.7239 45.9524 36.1112C45.6644 36.5338 45.5449 36.9001 45.4746 37.3579C45.4044 37.8298 45.573 38.1609 45.84 38.668C46.0789 39.1187 45.9173 39.8231 46.1632 40.2668C46.4443 40.7739 46.6129 41.1261 46.5708 41.591C46.5286 42.0558 46.6059 42.6052 46.2616 43.0489C45.9524 43.4434 45.6503 43.8871 45.3412 44.2815C44.9898 44.7323 44.3434 45.0492 44.3223 45.5141C44.3012 46.0001 44.6736 46.5002 44.6877 46.9861C44.7018 47.4721 44.3012 48.0215 44.3575 48.4864C44.4207 49.0076 45.0671 49.395 45.1655 49.8246C45.2779 50.3036 45.046 50.9022 45.2709 51.353C45.4957 51.8038 45.9243 52.1489 46.1913 52.5504C46.4864 52.9941 46.9151 53.3111 47.1821 53.6632C47.4701 54.0436 47.702 54.4521 48.0955 54.7409C48.489 55.0296 48.7489 55.5508 49.1705 55.7833C49.6132 56.0227 50.2737 55.8185 50.6812 56.0227C51.0887 56.227 51.4611 56.6003 51.9249 56.6214C52.3886 56.6426 52.8523 56.4031 53.3161 56.3679C53.7798 56.3326 54.2506 56.6214 54.6862 56.6707C55.3959 56.7482 56.0634 56.5792 56.6536 56.5792C57.3703 56.5792 57.9956 56.4735 58.5577 56.2974C59.1901 56.1002 59.8928 56.1636 60.4689 55.9382C61.0872 55.6917 61.558 55.1071 62.1482 54.9662C62.5768 54.8606 63.0265 55.093 63.4692 55.1775C63.9118 55.2621 64.3404 55.3395 64.762 55.4593C65.2117 55.579 65.6614 55.7762 66.076 55.7551C66.7013 55.7269 67.2002 55.9523 67.7834 56.1495C68.3244 56.3256 68.9076 56.5369 69.54 56.6778C70.1161 56.8046 70.7977 56.3327 71.4652 56.3045C72.0835 56.2763 72.8142 56.2622 73.4326 56.5228C73.9806 56.7482 74.4865 57.1849 75.0627 57.5159C75.5826 57.8118 76.222 57.9315 76.8052 58.2414C77.2057 58.4527 77.3603 59.1711 77.7608 59.3402C78.1824 59.5162 78.7515 59.2697 79.159 59.4106C79.5947 59.5585 79.9179 60.0093 80.3254 60.136C80.7681 60.2699 81.267 60.0938 81.6956 60.0304C82.1242 59.967 82.5317 59.7416 82.9533 59.6148C83.3749 59.4881 83.8246 59.1852 84.2532 59.1641C84.9066 59.1289 85.4828 59.2697 86.0519 59.157C86.621 59.0443 87.2885 59.2204 87.9069 58.9176C88.476 58.6429 88.6376 57.7906 89.1295 57.3751C89.5651 57.0018 90.2115 56.8186 90.7385 56.3749C91.1952 55.9805 91.7573 55.6494 92.3405 55.3748C92.9237 55.1001 93.5842 54.9592 94.1112 54.6775C94.6381 54.3957 95.1932 53.9661 95.8186 53.8886C96.4439 53.8111 97.1817 54.1844 97.7297 53.9731C98.2778 53.7618 98.6432 53.1138 99.142 52.7828C99.6409 52.4518 100.351 52.4799 100.892 52.2616C101.433 52.0433 101.791 51.4094 102.234 51.0713C102.676 50.7332 103.021 50.1697 103.505 49.8528C103.99 49.5358 104.777 49.7471 105.227 49.4795C105.677 49.2118 106.112 48.7399 106.428 48.2117C106.723 47.7116 106.351 47.12 106.309 46.5354C106.267 46.0423 106.66 45.5 106.702 44.8802C106.731 44.4153 106.78 44.0209 107.012 43.5983C107.243 43.1757 107.194 42.6052 107.426 42.2108C107.686 41.767 107.988 41.4501 107.995 41.0134C108.002 40.5767 107.96 40.0978 108.009 39.654C108.058 39.2103 108.122 38.7666 108.164 38.3299C108.199 37.8721 108.712 37.4072 108.67 36.9776C108.621 36.5198 107.855 36.3155 107.524 35.9211C107.229 35.5689 106.99 35.1322 106.667 34.7801C106.323 34.4068 106.302 33.8856 106.168 33.4559C106.035 33.0263 105.67 32.5966 105.733 32.0965C105.789 31.6387 106.049 31.188 106.07 30.7231C106.091 30.2582 106.239 29.6948 106.028 29.2792C105.817 28.8777 105.241 28.7157 104.798 28.4411C104.398 28.1875 104.068 27.7719 103.667 27.5184C103.224 27.2366 102.88 26.9901 102.676 26.5887C102.473 26.1872 102.142 25.8209 102.079 25.3561C102.016 24.8912 102.198 24.4193 102.142 23.9756C102.086 23.5319 101.742 23.1586 101.538 22.7641C101.334 22.3697 101.166 21.9119 101.06 21.4682C100.955 21.0244 101.313 20.4891 101.208 20.0595C101.102 19.6298 100.533 19.3552 100.329 18.9748C100.126 18.5945 100.231 17.9888 99.9571 17.6436C99.6831 17.2985 99.1491 17.1576 98.875 16.8125C98.601 16.4674 98.2216 16.1575 98.0038 15.7842C97.7859 15.4109 97.5049 15.1573 97.1395 14.8686C96.7741 14.5798 96.4088 14.3473 96.0504 14.0797C95.6921 13.8121 95.7202 13.1429 95.4743 12.7837C95.2283 12.4245 94.7154 12.1991 94.5679 11.7765C94.4203 11.3539 94.2728 10.9384 94.1182 10.5299C93.9636 10.1213 94.062 9.52267 93.7809 9.19163C93.3593 8.68451 92.8253 8.26895 92.3475 7.83227C91.8697 7.39558 91.2444 7.11385 90.7666 6.67716C90.2888 6.24047 89.8743 5.69814 89.3332 5.3671C88.7922 5.03606 88.1458 4.86702 87.6047 4.5219C87.2394 4.28947 86.9724 3.89504 86.6773 3.5147C86.3892 3.15549 85.9254 2.93011 85.6303 2.59203C85.3141 2.23282 85.0963 1.81726 84.6747 1.65526C84.2532 1.49327 83.8527 1.78909 83.3468 1.92995C82.9041 2.04969 82.3841 2.02152 81.9274 2.15534C81.4426 2.29621 80.9086 2.54977 80.4659 2.47229C79.8336 2.36664 79.2715 1.91587 78.6461 1.90882C78.0559 1.90882 77.4516 2.21169 76.7841 2.21169C76.3344 2.21169 75.9902 1.73274 75.5475 1.58483C75.1048 1.43692 74.6551 1.3524 74.2336 1.21858C73.7839 1.07771 73.3201 1.46509 72.8845 1.53553C72.4489 1.60596 71.9359 1.32423 71.4722 1.31014C71.0085 1.29605 70.5517 1.50735 70.1091 1.50735C69.6383 1.50735 69.2097 1.42283 68.7881 1.5637C68.3665 1.70457 67.952 1.86656 67.5515 2.08491C67.151 2.30325 66.7294 2.47933 66.343 2.71881C65.9565 2.95828 65.5279 3.14845 65.1414 3.35975C64.755 3.57105 64.4318 3.90913 64.0805 4.19086C63.7291 4.4726 63.5535 4.9445 63.2232 5.24032C62.893 5.53614 62.2606 5.49388 61.9093 5.76857C61.558 6.04326 61.6142 6.6842 61.3894 7.08567C61.1645 7.48714 61.031 7.9027 60.8273 8.31121C60.6235 8.71973 60.0614 8.90285 59.7522 9.22685C59.4431 9.55084 59.1971 10.1354 58.7123 10.3115C58.2626 10.4735 57.7005 10.3749 57.2649 10.551C56.7871 10.7412 56.3023 10.9032 56.0283 11.2765C55.7542 11.6498 55.7612 12.1287 55.6278 12.5936C55.5083 13.0302 55.3116 13.4599 55.1921 13.9036C55.0727 14.3473 54.6581 14.6432 54.4262 15.0306C54.1944 15.4179 54.2787 15.9673 54.1382 16.3899C53.9976 16.8125 53.9414 17.2562 53.8149 17.6788C53.6885 18.1014 53.6182 18.5663 53.4215 18.9607C53.2247 19.3552 52.6697 19.5172 52.3745 19.8693C52.0794 20.2215 51.8124 20.5737 51.5314 20.9188C51.2503 21.2639 51.2011 21.7851 51.0325 22.1936C50.8639 22.6021 50.8147 23.0318 50.7725 23.4896C50.7304 23.9474 50.885 24.4052 50.8498 24.849C50.8147 25.2927 50.5758 25.7646 50.4212 26.1872C50.2666 26.6098 50.0629 27.0183 49.831 27.4057C49.5991 27.7931 49.1986 28.0678 48.9738 28.4551C48.7489 28.8425 48.6506 29.2863 48.5171 29.7159L48.496 29.6807Z" fill="white"/>
</mask>
<g mask="url(#mask0_196_14945)">
<path d="M64.4388 40.5486C66.3781 41.3445 68.3666 41.9291 70.2848 42.7955C72.3294 43.7181 67.7342 42.077 69.3081 42.3799C70.9593 42.7109 69.7367 42.9363 65.6333 43.0631C60.5743 44.1689 60.3003 43.9154 64.8112 42.3165C73.1515 40.4148 79.8617 45.3451 82.4615 53.0646L76.3274 45.0705L76.7771 45.3311L66.4905 43.9787L67.0948 43.8238L59.1199 49.9726C62.2045 45.5846 66.61 42.1263 72.224 42.1263C77.8381 42.1263 82.2085 45.1409 85.2298 49.6838L77.2549 43.535L77.81 43.6829L67.5234 45.0352L68.0644 44.7746L63.2725 49.5782C64.8112 46.6763 67.4321 44.5422 70.4042 43.2815C72.1046 42.563 73.9315 42.1263 75.8005 42.1123C77.4657 42.0982 81.8291 42.5419 82.7917 43.9224C82.4474 43.4294 70.4745 44.7394 72.8634 43.3026C73.9455 42.6476 75.4702 42.0418 76.7209 41.739C79.5104 41.0628 82.9533 41.0205 85.6725 42.0348H78.5759L79.1801 41.9432L73.2921 45.3874L73.6926 44.9507L69.7859 54.417C70.5658 47.2187 74.0017 41.8728 81.26 39.8795L75.3719 43.3237C80.0936 38.0483 87.5134 37.5764 93.5139 40.6895L86.7757 38.8653L87.3659 38.9287L80.6276 40.7529C77.4376 44.4647 76.5031 45.3874 77.817 43.5139C78.5829 42.394 79.419 41.3304 80.3254 40.3303C81.548 38.9357 82.7214 37.7383 84.4007 36.7593C82.9111 37.6327 89.2138 34.4209 89.537 34.9069C87.3869 35.9212 86.9443 36.1325 88.209 35.5338C89.4738 34.9703 90.7526 34.435 92.0384 33.9279L86.1503 37.3721C84.4007 38.8371 84.5272 39.3513 85.525 37.7383C86.5719 36.0409 87.8858 34.7379 89.4386 33.5335C93.0713 30.7232 97.7016 30.0541 102.135 31.174H95.0387C89.5581 36.5269 87.7453 37.9074 89.6002 35.3084C92.1719 32.0966 92.4038 31.7163 90.3029 34.1744C89.4035 36.2804 89.1435 36.6607 89.53 35.3225C89.2208 38.0976 89.2278 38.2314 89.544 35.724C90.3872 29.4483 94.5538 25.6379 100.203 23.4756L94.3149 26.9198L94.6522 26.4901L91.2163 32.3925L91.3147 31.8924V39.0061C90.6893 37.2031 90.338 35.0619 90.4013 33.1813C90.4856 30.7725 91.1671 28.5679 92.2211 26.4268C92.3335 26.0746 92.4951 25.7576 92.7129 25.4689C93.2891 24.5814 93.0502 25.0956 92.0103 27.0184V34.1322C91.2444 31.3007 90.9212 28.5961 91.666 25.6943C92.0243 24.4053 92.5232 23.1657 93.1626 21.9754C96.184 17.848 95.9942 18.3974 92.6005 23.6376V30.7514L93.4226 32.7446L98.2146 37.5482C90.7596 33.7518 89.2279 24.6096 92.7481 17.6367L90.9282 24.3912V23.8771C92.2351 27.0325 93.542 30.1879 94.8419 33.3433C97.2098 35.1534 97.3995 35.2873 95.4111 33.7518C94.7295 33.3785 94.1604 32.8855 93.7036 32.2727C91.9611 30.5189 90.6893 28.1383 90.1553 25.7224L89.6775 22.1655C90.071 24.6237 90.0499 25.1801 89.6073 23.8348C89.2208 22.2571 89.1154 20.5174 89.1014 18.8904L93.008 28.3566L94.9684 29.8287C93.795 29.2793 92.8464 28.5186 92.1087 27.5326C90.5629 25.8351 89.0311 23.6869 88.5182 21.426C88.2231 20.13 88.0755 18.6509 88.0685 17.3268C87.9982 15.4814 88.3847 13.7628 89.2208 12.1711C90.2326 9.83267 90.1132 10.0369 88.8625 12.7838V19.8976C89.7408 21.912 89.9094 22.4402 89.3824 21.4894C88.7992 20.5315 89.1857 20.9823 90.5418 22.8347L113.314 13.3402L113.3 13.6008L111.48 6.84629L111.888 7.48724L107.096 2.68368C111.01 5.34606 113.701 8.67052 114.347 13.467C114.607 15.3828 114.565 17.4888 114.003 19.3693L112.654 22.567C110.082 25.8562 109.864 26.1732 111.993 23.5179L113.813 16.7633L113.511 14.608L110.089 8.69869C105.796 4.35295 112.436 10.9878 113.167 12.1217C114.923 14.8546 115.415 18.0241 114.994 21.1654C114.347 25.9901 111.593 29.6737 107.377 32.0262L113.511 24.032L113.293 24.5603L111.944 14.2488L112.211 14.763L104.236 8.61417C109.253 10.382 113.708 13.8262 115.183 19.1862C115.83 21.5316 115.9 24.6871 115.254 27.0325C114.727 28.3073 114.193 29.5751 113.644 30.8429C111.094 34.1322 110.855 34.4491 112.928 31.8008L114.277 21.4894L114.474 22.1585L111.038 16.2562C112.38 17.5944 113.736 19.2426 114.6 20.8907C115.197 22.0317 115.696 23.3488 116.04 24.5814C116.596 26.3634 116.673 28.1383 116.279 29.9202C115.907 32.5967 115.97 32.2938 116.462 29.0117L114.642 22.2571C112.401 19.4257 112.583 19.6863 115.19 23.0319C115.795 24.2222 116.329 25.4548 116.778 26.7155C117.221 28.3355 117.319 30.202 117.284 31.9065C117.228 34.7027 116.764 37.1467 115.387 39.5978C114.705 40.7388 113.911 41.7953 113.005 42.7814C109.646 45.3311 109.394 45.5635 112.26 43.4716L116.167 34.0054C116.434 36.872 115.872 39.5133 114.474 42.063C113.876 43.2955 113.075 44.4013 112.071 45.3733C113.666 43.3378 113.736 43.2674 112.274 45.1479C108.424 50.1487 102.775 51.7968 96.6969 50.4445H103.794C105.332 50.191 113.862 33.7377 110.813 44.8521C110.244 46.9299 108.656 49.7191 107.054 51.1911C103.379 54.5719 97.8281 56.2412 92.9659 54.579H100.063L99.4442 54.6635L105.332 51.2193L104.96 51.5644L108.396 45.6621C107.447 49.1063 105.445 51.7616 102.669 53.9098C101.145 55.0931 99.3388 56.0651 97.4346 56.5229L93.8863 57.0019C92.4389 57.1779 93.1275 57.0934 95.9451 56.7483L101.833 53.3041L103.365 51.2827L101.278 53.9944C99.9501 55.4875 98.3973 56.3961 96.6126 57.1498C93.4507 58.488 90.3802 58.5937 86.9935 57.8893H94.0901L93.5561 57.9738L99.4442 54.5297C95.1511 58.3753 89.256 61.9533 83.2765 59.4882H90.3731L89.8883 59.6009L97.8633 53.452C98.9734 50.7544 99.0367 50.5643 98.074 52.8815C97.533 54.5437 96.6126 55.9735 95.3127 57.185C93.9215 58.6289 92.4038 59.6079 90.598 60.3686C88.7922 61.1293 86.8459 61.6082 84.9347 61.58L81.3864 61.1011C77.4517 59.4036 77.1355 59.298 80.4519 60.77H87.5485C90.6823 59.5163 90.3029 59.6924 86.4243 61.3053C85.0331 61.5378 83.6278 61.7139 82.2226 61.8477C84.6607 61.3546 85.2158 61.3335 83.8808 61.7632C79.5877 62.3125 79.145 62.39 82.5528 61.9956L88.4409 58.5514C87.0427 59.9812 85.9536 61.3053 84.0775 62.3618C82.3982 63.3056 80.747 63.8762 78.8499 64.1368C78.1473 64.2565 77.4446 64.341 76.742 64.4114C75.6389 64.5171 76.2993 64.4678 78.7305 64.2706L84.6186 60.8264L84.1899 61.256L87.6258 55.3537C87.0848 56.861 86.4805 58.3894 85.7287 59.7981C83.7051 63.6085 78.611 66.8625 74.1985 66.4258C69.7859 65.9892 67.3688 64.8763 64.1297 62.2351L80.3044 64.3269L80.1779 64.3974C81.7729 58.2908 83.3679 52.1913 84.9699 46.0847L85.1736 46.4087L70.0951 40.2599L70.5588 40.1331L64.6707 43.5773L65.0501 43.0913L61.6142 48.9936C62.7033 44.6126 65.7949 41.1262 69.8983 39.3865C71.69 38.6329 73.6504 38.175 75.6178 38.2455L79.1661 38.7244C83.0657 40.3866 83.417 40.5275 80.2201 39.14L69.9335 40.4923C72.0062 39.6119 73.9033 38.661 76.1588 38.3582C76.9317 38.168 77.7116 38.0905 78.5056 38.1257C82.9182 38.7526 83.2344 38.7737 79.4612 38.1821L72.7229 40.0063L73.1726 39.7739L68.3806 44.5774C71.4582 40.1472 75.8356 36.9002 81.4918 37.1397L74.7535 38.9639L75.2173 38.7526L70.4253 43.5561C69.1535 46.8665 69.3292 46.5425 70.9382 42.5982L71.3106 42.1052C73.0461 39.3161 75.3438 37.5341 78.2808 36.2945C82.4825 34.5195 88.1528 34.7872 91.9822 37.52L85.2439 35.6958H85.8763C82.7285 36.9988 79.5807 38.3089 76.4328 39.6119L76.8896 39.2034L73.4537 45.1057C74.1493 41.6474 76.9809 37.6538 80.0865 36.0057C81.1897 35.4211 82.5458 34.8365 83.7473 34.4702C85.525 33.9138 87.2956 33.8363 89.0733 34.2308C91.7292 34.6111 91.4412 34.5407 88.2161 34.0054L81.4778 35.8296C83.0095 35.0196 84.0564 34.5829 85.8552 33.7166C86.8178 33.3292 86.7124 33.3715 85.532 33.8434C83.4943 34.6604 84.2391 34.3435 87.7523 32.8784C89.53 32.3361 94.7787 32.1107 89.9797 32.4629C91.5114 32.3502 93.008 32.0051 94.5398 31.9346L87.8015 33.7589L88.2231 33.449L83.4311 38.2525L83.684 37.6679L81.8642 44.4225C81.8291 40.6472 83.3327 36.5692 86.0309 33.8716C86.8248 33.0757 91.6379 29.075 87.6118 33.0616C85.0682 35.576 85.799 34.8365 86.5227 33.4349C87.3518 31.829 86.1222 34.59 86.0098 34.8295C86.6632 33.5053 87.0005 32.0051 87.7172 30.7091C89.0592 28.258 91.4622 25.6027 94.076 24.4898L89.2841 29.2934L89.5862 28.7651L88.2371 39.0766L88.1528 38.5272L94.2868 46.5214C89.0592 42.6194 84.5623 35.6958 87.2394 28.8426V35.9564L87.1902 35.6887L96.5142 45.0352L96.2893 44.9507C101.313 42.9011 106.337 40.8515 111.368 38.8019C112.324 36.2874 112.555 35.738 112.064 37.1608C111.649 38.9005 110.855 40.4219 109.675 41.7108C108.333 43.4505 106.723 44.8662 104.728 45.803L109.52 40.9994C107.834 43.7674 105.733 46.0424 102.817 47.4863L107.609 42.6828C106.562 44.4154 105.374 46.0636 103.927 47.4863C98.9383 52.3955 89.9516 52.8463 85.0472 47.4863C80.1428 42.1263 79.7282 33.8011 85.0472 28.5609C85.9957 27.5889 85.7147 27.9833 84.211 29.7442C84.5975 29.0539 85.0612 28.413 85.5952 27.8213C86.9513 26.0605 88.5603 24.7575 90.5558 23.7785L85.7639 28.582C87.668 25.7999 89.6073 23.8066 92.453 22.0458L86.3189 30.04C86.86 28.4271 87.3869 26.6944 88.3144 25.2928C91.3287 20.7217 97.7438 16.9816 103.393 19.144C107.433 20.6864 110.518 22.8135 112.274 26.9761C113.117 28.9764 112.942 28.4412 113.237 30.6175C113.553 31.8008 113.553 32.9911 113.237 34.1744C112.829 37.7383 112.78 36.5339 113.082 30.5612L109.675 24.673C106.885 22.7431 107.159 23.0248 110.504 25.5111L112.591 28.2228C114.277 30.8429 114.663 34.3153 114.263 37.3087C113.567 42.5137 110.658 45.3522 106.562 48.2047L111.354 43.4012C110.567 44.5211 110.714 44.0421 111.79 41.9573C111.333 43.2603 110.813 44.5281 110.223 45.7748C109.942 46.3946 109.611 47.0003 109.323 47.6131C107.721 50.9657 105.234 52.8533 102.248 54.9029L107.04 50.0994L106.78 50.6769L108.6 43.9224C108.642 48.4794 106.667 52.7618 103.091 55.5298C101.531 56.7413 100.041 57.6146 98.1303 58.2344C95.5094 59.0867 92.0735 58.5866 96.3245 58.3964L92.7762 58.8754C97.9686 57.3259 99.0015 57.1568 95.8888 58.3753C91.8768 60.0728 94.7787 58.2556 95.6078 58.6148C94.8981 59.0092 94.1604 59.3473 93.3945 59.6149C91.8065 60.4531 90.0921 60.8405 88.2512 60.77C86.7475 60.8053 85.279 60.5024 83.7894 60.277H90.8861L90.4153 60.4601L98.3902 54.3113C99.4653 51.6841 99.5215 51.5151 98.5659 53.8112C98.0249 55.4735 97.1044 56.9033 95.8045 58.1147C94.4133 59.5516 92.8535 60.5306 91.0477 61.2912C89.2419 62.0519 87.2534 62.5168 85.272 62.4464L81.7237 61.9674C76.9247 60.115 77.4938 60.0939 83.4522 61.897L90.1905 60.0728L89.6002 60.4108L94.3922 55.6073L95.2213 53.3675L93.8723 56.5652C92.9518 58.2908 91.5817 59.6431 90.064 60.8193C88.5463 61.9956 88.4198 62.0026 86.6492 62.7492C85.5601 63.207 77.796 65.2144 84.1056 63.5451L89.9937 60.1009L91.4482 58.0865L89.3613 60.7982C87.9842 62.1787 86.3681 63.0591 84.6115 63.7987C82.8549 64.5382 81.0702 64.9538 79.1872 64.9679C78.4986 65.0313 77.81 64.9679 77.1355 64.7495C74.5006 64.3903 74.7676 64.4326 77.9435 64.8834L84.6818 63.0591C79.4261 65.3834 74.0439 66.5315 68.8936 63.1859L75.6318 65.0101L75.0557 64.996L84.4991 61.08L84.0775 61.4814L87.5134 55.5791C86.2346 60.7207 82.2788 64.6861 77.2198 66.0737C71.3809 67.6725 65.282 64.9749 62.1412 59.9248L61.9375 59.6009C58.1854 53.5718 60.5462 44.7253 66.7294 41.2882L66.8559 41.2178C72.5121 38.0764 78.2878 39.4358 83.0306 43.3096L83.3257 43.5491L73.8823 39.633L74.2195 39.6682L62.6893 46.296L61.8953 48.24C62.3098 46.5003 63.1038 44.9789 64.2843 43.69C65.535 42.07 66.4835 40.8656 68.4579 39.8161C71.2614 38.33 73.9596 37.9215 77.0933 37.6186L70.355 39.4428C67.2775 41.584 68.739 40.4571 69.5821 39.633C71.3247 37.9356 73.7207 36.5832 76.1096 36.0198L79.6579 35.5408C77.2128 35.893 76.6717 35.9071 78.0208 35.569C79.6228 35.238 81.267 35.1816 82.8901 35.0196L76.1518 36.8438C81.0562 33.8152 86.6913 33.9349 91.6871 36.6396L84.9488 34.8154L85.4687 34.759L76.0253 38.6751L76.4469 38.2525L73.011 44.1548C73.6363 40.7388 76.5874 36.7312 79.6088 35.1323C80.733 34.5336 82.061 34.0195 83.2835 33.6673C85.0612 33.1109 86.8319 33.0334 88.6095 33.4278C91.2444 33.7659 90.9774 33.7589 87.8015 33.4067L81.0632 35.2309C80.7822 35.3647 78.6742 37.3158 80.0514 36.062C81.548 34.6956 83.0236 33.6039 84.8785 32.8221C87.9982 31.498 91.2093 31.4627 94.5328 32.153H87.4361L87.928 31.998L82.0399 35.4422L80.48 37.4214L82.5669 34.7097C83.8948 33.2588 85.4968 32.3432 87.2605 31.5966C89.0241 30.85 89.2068 30.7654 91.1531 30.5048C94.6803 30.0329 92.7059 29.9625 91.0407 30.4837L85.1526 33.9279L82.6582 38.5342C83.0728 36.7945 83.8667 35.2732 85.0472 33.9843C86.2768 32.3854 87.2113 31.2303 89.1646 30.1949C92.5865 28.3848 96.8374 27.6523 100.568 28.9271H93.4718L94.076 28.8144L86.1011 34.9633L86.4243 34.5266L84.6045 41.2811C83.944 30.3428 93.9706 22.4332 104.292 24.7364H97.1957L97.7508 24.6025L91.8627 28.0467C90.331 30.1245 90.2818 30.2161 91.7222 28.3214C93.2048 26.4408 93.1064 26.5113 91.4341 28.5468L89.6143 35.3014C89.0241 29.6103 92.1438 24.6659 96.8444 21.75L92.0524 26.5535C89.1927 31.1669 90.7807 33.2799 90.5769 30.2583L92.3967 37.0129C94.6382 39.8443 94.4484 39.5837 91.8487 36.2381C91.2514 35.0408 90.7245 33.8152 90.2607 32.5545C89.5089 29.8076 89.7197 27.3142 90.3169 24.5673V31.6811C90.7034 33.6743 94.6592 38.1046 92.1859 35.1675C90.5488 33.2236 89.1506 31.1035 88.5533 28.5961C87.7102 25.0463 88.1388 21.5105 89.9024 18.2847L90.1905 17.6719C92.7481 14.3897 92.9799 14.0657 90.879 16.707L89.0592 23.4615L88.989 22.729L90.8088 29.4836L90.3591 28.8567L95.1511 33.6603C98.2427 34.8365 97.8492 34.6322 93.9847 33.0545C91.9752 31.8642 90.3802 30.2654 89.1927 28.251C87.8647 26.0535 87.0989 23.5672 87.0989 20.9823C87.0989 15.6082 90.3029 10.8892 94.9333 8.34652L90.1413 13.1501L90.3802 12.6218V26.1309L90.1413 25.6168L94.9333 30.4203C85.6374 26.0042 85.0893 13.143 91.7292 6.33213L88.2933 12.2344L88.3987 11.6639L89.7478 21.9754L89.3895 21.3203L94.1814 26.1239C89.9305 23.2291 86.34 18.834 86.6562 13.3121C86.9724 7.7901 89.7197 3.26828 94.8208 1.10598C99.4231 -0.837983 105.958 -0.168866 109.408 3.87401C114.361 9.68476 116.961 16.8267 112.935 24.0461L114.755 17.2916L114.727 17.8339L110.82 8.3747C108.41 6.55047 108.206 6.40961 110.209 7.94505C110.897 8.29722 111.452 8.78321 111.874 9.40302C113.89 11.6217 115.141 14.0939 115.549 17.0873C115.837 19.2496 115.352 20.8555 115.57 17.3056C115.464 18.996 116.982 24.6166 115.998 19.2214L112.562 13.3191L110.644 11.8611C111.797 12.4317 112.759 13.1994 113.525 14.1714C115.085 15.8758 116.617 18.017 117.137 20.292C118.036 24.2574 117.411 27.8918 115.577 31.5261L117.397 24.7716L117.425 25.2717L113.518 15.8054C110.764 13.7135 111.052 13.946 114.368 16.5027L116.455 19.2144C117.832 21.2217 118.254 23.1023 118.563 25.3914C119.202 30.1597 117.411 34.7379 114.108 38.168L117.544 32.2657L117.39 32.7869V25.6731C118.113 28.575 118.535 31.4909 117.678 34.4632C117.108 36.4283 116.062 38.0905 115.254 39.9218L117.073 33.1672C117.031 30.3076 116.736 30.5471 117.031 31.8783C117.565 34.3012 117.649 37.0692 116.933 39.4921C116.251 41.7883 114.902 44.2112 113.16 45.8311L110.454 47.923C106.492 49.5359 106.197 49.705 109.576 48.4372L115.71 40.443C116.012 37.5975 116.005 37.4355 115.689 39.964C115.689 40.6965 115.577 41.4009 115.345 42.0841C115.225 42.6476 115.113 43.2674 114.944 43.8238C114.53 45.162 113.89 46.7538 113.174 47.9794C112.513 49.1204 108.733 52.5927 112.225 49.388C111.234 50.2966 110.637 51.6701 109.717 52.6491C108.747 53.6774 107.377 54.6423 106.182 55.3749C102.754 57.4949 98.3481 57.8259 94.5328 56.854H101.629L101.046 56.9385L106.934 53.4943C108.227 51.5996 108.55 51.2686 107.904 52.5153C107.342 53.7831 106.548 54.8959 105.508 55.8679C103.604 57.8259 101.587 58.7275 99.1069 59.7347C105.15 57.2766 95.9732 60.932 97.2239 60.5447C96.3737 60.8053 95.5024 60.9461 94.6592 61.2067L100.547 57.7625C99.8658 58.4176 97.5963 61.0518 100.428 57.6217C98.9242 59.4389 97.9054 61.1011 96.0645 62.5309C91.0969 66.3765 85.0542 66.4188 79.5877 63.5803L86.326 65.4046L85.7428 65.3693L92.4811 63.5451L94.2236 62.2421C93.0151 63.5451 91.5817 64.4678 89.9305 65.0101C88.9327 65.4327 87.9912 65.7356 87.0075 66.13L94.9824 59.9812L94.7014 60.594L96.5212 53.8394C96.0786 57.8964 95.0668 61.3265 92.1508 64.3269C90.4434 66.0807 88.0263 67.3344 85.6514 67.8627C84.197 68.1796 79.152 69.0671 78.3159 67.7711C76.8685 67.271 78.063 67.102 81.8994 67.271C85.7639 66.2709 86.8319 66.2638 85.1034 67.264C83.3538 68.2923 81.4075 68.7924 79.4261 69.0601C75.8707 69.539 72.4278 68.8487 69.3011 67.0527L76.0394 68.8769L75.5335 68.9121L82.2717 67.0879L81.7588 67.4753L86.5508 62.6717C84.3234 66.8625 79.1029 70.2081 74.2476 69.9898C68.8936 69.7503 64.8253 67.2217 61.8812 62.7844L66.6732 67.588L68.6687 68.4332H75.7653L75.1049 68.6868L80.993 65.2426C82.8339 62.5802 82.5247 62.9042 80.0725 66.2075C78.4072 67.8627 76.4399 69.0107 74.1844 69.6517C71.669 70.3983 69.0271 70.511 66.4835 69.8066C61.3543 68.3909 57.8692 64.2988 56.4218 59.2557L59.8576 65.158L59.4431 64.7847L65.3312 68.2289L64.8112 68.1444L75.0978 66.7921C70.6853 68.6938 66.9824 69.532 62.2115 68.2078C60.5533 67.7429 59.0004 66.94 57.4336 66.2357C61.5299 68.0951 58.2697 66.7569 57.3422 66.3765C50.899 63.7423 45.6152 57.3611 48.0182 49.9163C50.0278 43.69 57.5179 37.7383 64.4388 40.5698V40.5486Z" fill="#5B231B"/>
</g>
<path d="M48.496 29.6807C48.3625 30.1174 48.4257 30.6174 48.2852 31.04C48.1447 31.4626 48.0252 31.8993 47.8917 32.3219C47.7582 32.7445 47.0626 33.0333 46.9642 33.47C46.8659 33.9067 46.6691 34.2448 46.3881 34.6603C46.107 35.0759 46.2124 35.7239 45.9524 36.1112C45.6644 36.5338 45.5449 36.9001 45.4746 37.3579C45.4044 37.8298 45.573 38.1609 45.84 38.668C46.0789 39.1187 45.9173 39.8231 46.1632 40.2668C46.4443 40.7739 46.6129 41.1261 46.5708 41.591C46.5286 42.0558 46.6059 42.6052 46.2616 43.0489C45.9524 43.4434 45.6503 43.8871 45.3412 44.2815C44.9898 44.7323 44.3434 45.0492 44.3223 45.5141C44.3012 46.0001 44.6736 46.5002 44.6877 46.9861C44.7018 47.4721 44.3012 48.0215 44.3575 48.4864C44.4207 49.0076 45.0671 49.395 45.1655 49.8246C45.2779 50.3036 45.046 50.9022 45.2709 51.353C45.4957 51.8038 45.9243 52.1489 46.1913 52.5504C46.4864 52.9941 46.9151 53.3111 47.1821 53.6632C47.4701 54.0436 47.702 54.4521 48.0955 54.7409C48.489 55.0296 48.7489 55.5508 49.1705 55.7833C49.6132 56.0227 50.2737 55.8185 50.6812 56.0227C51.0887 56.227 51.4611 56.6003 51.9249 56.6214C52.3886 56.6426 52.8523 56.4031 53.3161 56.3679C53.7798 56.3326 54.2506 56.6214 54.6862 56.6707C55.3959 56.7482 56.0634 56.5792 56.6536 56.5792C57.3703 56.5792 57.9956 56.4735 58.5577 56.2974C59.1901 56.1002 59.8928 56.1636 60.4689 55.9382C61.0872 55.6917 61.558 55.1071 62.1482 54.9662C62.5768 54.8606 63.0265 55.093 63.4692 55.1775C63.9118 55.2621 64.3404 55.3395 64.762 55.4593C65.2117 55.579 65.6614 55.7762 66.076 55.7551C66.7013 55.7269 67.2002 55.9523 67.7834 56.1495C68.3244 56.3256 68.9076 56.5369 69.54 56.6778C70.1161 56.8046 70.7977 56.3327 71.4652 56.3045C72.0835 56.2763 72.8142 56.2622 73.4326 56.5228C73.9806 56.7482 74.4865 57.1849 75.0627 57.5159C75.5826 57.8118 76.222 57.9315 76.8052 58.2414C77.2057 58.4527 77.3603 59.1711 77.7608 59.3402C78.1824 59.5162 78.7515 59.2697 79.159 59.4106C79.5947 59.5585 79.9179 60.0093 80.3254 60.136C80.7681 60.2699 81.267 60.0938 81.6956 60.0304C82.1242 59.967 82.5317 59.7416 82.9533 59.6148C83.3749 59.4881 83.8245 59.1852 84.2532 59.1641C84.9066 59.1289 85.4828 59.2697 86.0519 59.157C86.621 59.0443 87.2885 59.2204 87.9069 58.9176C88.476 58.6429 88.6376 57.7906 89.1295 57.3751C89.5651 57.0018 90.2115 56.8186 90.7385 56.3749C91.1952 55.9805 91.7573 55.6494 92.3405 55.3748C92.9237 55.1001 93.5842 54.9592 94.1112 54.6775C94.6381 54.3957 95.1932 53.9661 95.8186 53.8886C96.4439 53.8111 97.1817 54.1844 97.7297 53.9731C98.2778 53.7618 98.6432 53.1138 99.142 52.7828C99.6409 52.4518 100.351 52.4799 100.892 52.2616C101.433 52.0433 101.791 51.4094 102.234 51.0713C102.676 50.7332 103.021 50.1697 103.505 49.8528C103.99 49.5358 104.777 49.7471 105.227 49.4795C105.677 49.2118 106.112 48.7399 106.428 48.2117C106.723 47.7116 106.351 47.12 106.309 46.5354C106.267 46.0423 106.66 45.5 106.702 44.8802C106.731 44.4153 106.78 44.0209 107.012 43.5983C107.243 43.1757 107.194 42.6052 107.426 42.2108C107.686 41.767 107.988 41.4501 107.995 41.0134C108.002 40.5767 107.96 40.0978 108.009 39.654C108.058 39.2103 108.122 38.7666 108.164 38.3299C108.199 37.8721 108.712 37.4072 108.67 36.9776C108.621 36.5198 107.855 36.3155 107.524 35.9211C107.229 35.5689 106.99 35.1322 106.667 34.7801C106.323 34.4068 106.302 33.8856 106.168 33.4559C106.035 33.0263 105.67 32.5966 105.733 32.0965C105.789 31.6387 106.049 31.188 106.07 30.7231C106.091 30.2582 106.239 29.6948 106.028 29.2792C105.817 28.8777 105.241 28.7157 104.798 28.4411C104.398 28.1875 104.068 27.7719 103.667 27.5184C103.224 27.2366 102.88 26.9901 102.676 26.5887C102.473 26.1872 102.142 25.8209 102.079 25.3561C102.016 24.8912 102.198 24.4193 102.142 23.9756C102.086 23.5319 101.742 23.1586 101.538 22.7641C101.334 22.3697 101.166 21.9119 101.06 21.4682C100.955 21.0244 101.313 20.4891 101.208 20.0595C101.102 19.6298 100.533 19.3552 100.329 18.9748C100.126 18.5945 100.231 17.9888 99.9571 17.6436C99.6831 17.2985 99.1491 17.1576 98.875 16.8125C98.601 16.4674 98.2216 16.1575 98.0038 15.7842C97.7859 15.4109 97.5049 15.1573 97.1395 14.8686C96.7741 14.5798 96.4088 14.3473 96.0504 14.0797C95.6921 13.8121 95.7202 13.1429 95.4743 12.7837C95.2283 12.4245 94.7154 12.1991 94.5679 11.7765C94.4203 11.3539 94.2728 10.9384 94.1182 10.5299C93.9636 10.1213 94.062 9.52267 93.7809 9.19163C93.3593 8.68451 92.8253 8.26895 92.3475 7.83227C91.8697 7.39558 91.2444 7.11385 90.7666 6.67716C90.2888 6.24047 89.8743 5.69814 89.3332 5.3671C88.7922 5.03606 88.1458 4.86702 87.6047 4.5219C87.2394 4.28947 86.9724 3.89504 86.6773 3.5147C86.3892 3.15549 85.9254 2.93011 85.6303 2.59203C85.3141 2.23282 85.0963 1.81726 84.6747 1.65526C84.2532 1.49327 83.8527 1.78909 83.3468 1.92995C82.9041 2.04969 82.3841 2.02152 81.9274 2.15534C81.4426 2.29621 80.9086 2.54977 80.4659 2.47229C79.8336 2.36664 79.2715 1.91587 78.6461 1.90882C78.0559 1.90882 77.4516 2.21169 76.7841 2.21169C76.3344 2.21169 75.9902 1.73274 75.5475 1.58483C75.1048 1.43692 74.6551 1.3524 74.2336 1.21858C73.7839 1.07771 73.3201 1.46509 72.8845 1.53553C72.4489 1.60596 71.9359 1.32423 71.4722 1.31014C71.0085 1.29605 70.5517 1.50735 70.1091 1.50735C69.6383 1.50735 69.2097 1.42283 68.7881 1.5637C68.3665 1.70457 67.952 1.86656 67.5515 2.08491C67.151 2.30325 66.7294 2.47933 66.343 2.71881C65.9565 2.95828 65.5279 3.14845 65.1414 3.35975C64.755 3.57105 64.4318 3.90913 64.0805 4.19086C63.7291 4.4726 63.5535 4.9445 63.2232 5.24032C62.893 5.53614 62.2606 5.49388 61.9093 5.76857C61.558 6.04326 61.6142 6.6842 61.3894 7.08567C61.1645 7.48714 61.031 7.9027 60.8273 8.31121C60.6235 8.71973 60.0614 8.90285 59.7522 9.22685C59.4431 9.55084 59.1971 10.1354 58.7123 10.3115C58.2626 10.4735 57.7005 10.3749 57.2649 10.551C56.7871 10.7412 56.3023 10.9032 56.0283 11.2765C55.7542 11.6498 55.7613 12.1287 55.6277 12.5936C55.5083 13.0302 55.3116 13.4599 55.1921 13.9036C55.0727 14.3473 54.6581 14.6432 54.4262 15.0306C54.1944 15.4179 54.2787 15.9673 54.1382 16.3899C53.9976 16.8125 53.9414 17.2562 53.8149 17.6788C53.6885 18.1014 53.6182 18.5663 53.4215 18.9607C53.2247 19.3552 52.6697 19.5172 52.3745 19.8693C52.0794 20.2215 51.8124 20.5737 51.5314 20.9188C51.2503 21.2639 51.2011 21.7851 51.0325 22.1936C50.8639 22.6021 50.8147 23.0318 50.7725 23.4896C50.7304 23.9474 50.885 24.4052 50.8498 24.849C50.8147 25.2927 50.5758 25.7646 50.4212 26.1872C50.2666 26.6098 50.0629 27.0183 49.831 27.4057C49.5991 27.7931 49.1986 28.0678 48.9738 28.4551C48.7489 28.8425 48.6506 29.2863 48.5171 29.7159L48.496 29.6807Z" stroke="black" stroke-miterlimit="10"/>
<path d="M74.5708 4.43746C74.5708 3.72609 74.3179 3.72609 74.3179 3.01471C74.3179 2.54281 74.4233 2.11316 74.2055 1.73282C73.9876 1.35248 73.6785 0.986232 73.285 0.760845C72.8915 0.535458 72.4559 0.493198 71.9851 0.493198C71.7252 0.493198 71.7252 0.359375 71.4652 0.359375C70.9944 0.359375 70.6009 0.648152 70.2215 0.866495C69.8421 1.08484 69.2167 1.20457 68.9919 1.59196C68.7671 1.97934 68.753 2.55689 68.753 3.02175C68.753 3.73313 68.9357 3.73313 68.9357 4.44451C68.9357 4.91641 68.8092 5.47283 69.027 5.85317C69.2448 6.23351 69.6875 6.6209 70.074 6.84628C70.4604 7.07167 70.9874 6.84628 71.4582 6.84628C71.7181 6.84628 71.7181 6.81811 71.9781 6.81811C72.4489 6.81811 72.7721 6.69837 73.1515 6.48003C73.5309 6.26169 73.8612 6.05039 74.086 5.663C74.3109 5.27562 74.5638 4.91641 74.5638 4.44451L74.5708 4.43746Z" fill="#DBB183"/>
<path d="M74.5708 4.43746C74.5708 3.72609 74.3179 3.72609 74.3179 3.01471C74.3179 2.54281 74.4233 2.11316 74.2055 1.73282C73.9876 1.35248 73.6785 0.986232 73.285 0.760845C72.8915 0.535458 72.4559 0.493198 71.9851 0.493198C71.7252 0.493198 71.7252 0.359375 71.4652 0.359375C70.9944 0.359375 70.6009 0.648152 70.2215 0.866495C69.8421 1.08484 69.2167 1.20457 68.9919 1.59196C68.7671 1.97934 68.753 2.55689 68.753 3.02175C68.753 3.73313 68.9357 3.73313 68.9357 4.44451C68.9357 4.91641 68.8092 5.47283 69.027 5.85317C69.2448 6.23351 69.6875 6.6209 70.074 6.84628C70.4604 7.07167 70.9874 6.84628 71.4582 6.84628C71.7181 6.84628 71.7181 6.81811 71.9781 6.81811C72.4489 6.81811 72.7721 6.69837 73.1515 6.48003C73.5309 6.26169 73.8612 6.05039 74.086 5.663C74.3109 5.27562 74.5638 4.91641 74.5638 4.44451L74.5708 4.43746Z" stroke="black" stroke-miterlimit="10"/>
<path d="M102.578 30.2793C102.578 29.5679 102.754 29.5679 102.754 28.8566C102.754 28.3846 102.557 27.8282 102.339 27.4479C102.121 27.0675 101.7 26.652 101.306 26.4266C100.913 26.2012 100.379 26.3914 99.9079 26.3914C99.6479 26.3914 99.6479 26.4125 99.3879 26.4125C98.9172 26.4125 98.4253 26.3069 98.0459 26.5252C97.6665 26.7436 97.3292 27.145 97.0973 27.5324C96.8655 27.9198 96.5985 28.3917 96.5985 28.8566C96.5985 29.5679 96.7531 29.5679 96.7531 30.2793C96.7531 30.7512 97.0973 31.0893 97.3222 31.4696C97.547 31.85 97.8421 32.0542 98.2286 32.2867C98.615 32.5191 98.9172 32.6599 99.3809 32.6599C99.6409 32.6599 99.6409 32.7938 99.9009 32.7938C100.372 32.7938 100.863 32.829 101.243 32.6036C101.622 32.3782 102.051 32.0401 102.276 31.6457C102.501 31.2513 102.571 30.7442 102.571 30.2723L102.578 30.2793Z" fill="#DBB183"/>
<path d="M102.578 30.2793C102.578 29.5679 102.754 29.5679 102.754 28.8566C102.754 28.3846 102.557 27.8282 102.339 27.4479C102.121 27.0675 101.7 26.652 101.306 26.4266C100.913 26.2012 100.379 26.3914 99.9079 26.3914C99.6479 26.3914 99.6479 26.4125 99.3879 26.4125C98.9172 26.4125 98.4253 26.3069 98.0459 26.5252C97.6665 26.7436 97.3292 27.145 97.0973 27.5324C96.8655 27.9198 96.5985 28.3917 96.5985 28.8566C96.5985 29.5679 96.7531 29.5679 96.7531 30.2793C96.7531 30.7512 97.0973 31.0893 97.3222 31.4696C97.547 31.85 97.8421 32.0542 98.2286 32.2867C98.615 32.5191 98.9172 32.6599 99.3809 32.6599C99.6409 32.6599 99.6409 32.7938 99.9009 32.7938C100.372 32.7938 100.863 32.829 101.243 32.6036C101.622 32.3782 102.051 32.0401 102.276 31.6457C102.501 31.2513 102.571 30.7442 102.571 30.2723L102.578 30.2793Z" stroke="black" stroke-miterlimit="10"/>
<path d="M55.7613 13.4953C55.7613 13.1432 55.7402 13.1432 55.7402 12.784C55.7402 12.0726 55.0938 11.4316 54.3841 11.4316C54.2506 11.4316 54.2506 11.4809 54.1241 11.4809C53.4145 11.4809 52.7259 12.0726 52.7259 12.784C52.7259 13.1361 52.9437 13.1361 52.9437 13.4953C52.9437 14.2067 53.4074 14.8617 54.1171 14.8617C54.2506 14.8617 54.2506 14.7561 54.3771 14.7561C55.0867 14.7561 55.7542 14.2067 55.7542 13.4953H55.7613Z" fill="#DBB183"/>
<path d="M55.7613 13.4953C55.7613 13.1432 55.7402 13.1432 55.7402 12.784C55.7402 12.0726 55.0938 11.4316 54.3841 11.4316C54.2506 11.4316 54.2506 11.4809 54.1241 11.4809C53.4145 11.4809 52.7259 12.0726 52.7259 12.784C52.7259 13.1361 52.9437 13.1361 52.9437 13.4953C52.9437 14.2067 53.4074 14.8617 54.1171 14.8617C54.2506 14.8617 54.2506 14.7561 54.3771 14.7561C55.0867 14.7561 55.7542 14.2067 55.7542 13.4953H55.7613Z" stroke="black" stroke-width="0.5" stroke-miterlimit="10"/>
<path d="M91.0055 14.953C91.4552 14.7276 91.9049 14.5163 92.3546 14.2839C92.467 14.2276 92.5654 14.1712 92.6848 14.2135C92.7832 14.2487 92.8324 14.3262 92.8815 14.4177C93.1134 14.8333 93.3242 15.2559 93.4647 15.7067C93.6053 16.1574 93.7317 16.6223 93.795 17.0942C93.8582 17.5661 93.8933 18.038 93.9074 18.517C93.9214 18.9959 93.8863 19.4678 93.8652 19.9397C93.8582 20.1581 93.8371 20.3764 93.7528 20.5736C93.6474 20.8131 93.4577 21.0103 93.2539 21.1723C92.8675 21.4752 92.46 21.7499 92.0243 21.9682C91.5887 22.1865 91.1249 22.3626 90.6542 22.4964C90.1834 22.6303 89.6986 22.7148 89.2067 22.743C88.8976 22.7641 88.5814 22.7148 88.3003 22.5739C87.8366 22.3485 87.6188 21.8273 87.4783 21.3273C87.3167 20.7638 87.1972 20.1862 87.2745 19.6087C87.3518 19.0311 87.6399 18.4817 88.1317 18.1718" fill="#EDD3AE"/>
<path d="M90.8439 14.6857C91.2163 14.4955 91.5957 14.3194 91.9681 14.1293C92.2281 14.0025 92.5021 13.8123 92.8042 13.9321C93.0642 14.0377 93.1837 14.3124 93.3031 14.5448C93.4858 14.897 93.6474 15.2562 93.7669 15.6295C94.0198 16.4183 94.1533 17.2213 94.2025 18.0454C94.2517 18.792 94.2728 19.609 94.1463 20.3556C94.0339 21.0317 93.4788 21.4402 92.9448 21.7995C92.3335 22.215 91.659 22.5249 90.9563 22.7433C89.7337 23.1166 88.0474 23.4194 87.3939 22.0037C86.7827 20.6796 86.6351 18.8272 87.9771 17.9045C88.3144 17.6721 88.6306 18.2214 88.2933 18.4539C87.7031 18.8624 87.5274 19.5597 87.5837 20.2429C87.6328 20.8204 87.7944 21.7361 88.2512 22.1516C88.7992 22.6517 89.7899 22.3911 90.4223 22.2291C91.139 22.046 91.8206 21.7642 92.4459 21.3698C92.734 21.1867 93.0502 20.9895 93.282 20.7289C93.5561 20.426 93.549 20.0879 93.5701 19.7076C93.6053 18.961 93.6123 18.2355 93.535 17.4889C93.4577 16.7423 93.268 15.9183 92.9377 15.2139C92.8675 15.059 92.7972 14.8547 92.6848 14.7209C92.5232 14.5166 92.5302 14.5519 92.2843 14.6716C91.9119 14.8547 91.5325 15.0379 91.1601 15.228C90.7877 15.4182 90.4785 14.8618 90.8439 14.6786V14.6857Z" fill="black"/>
<path d="M73.8331 8.99432C73.9384 9.71978 73.9947 10.4664 73.819 11.1848C73.6433 11.9032 73.2569 12.6005 72.6315 12.9949C72.231 13.2485 71.7743 13.3894 71.3106 13.4739C70.8468 13.5584 70.3761 13.5936 69.9264 13.7063C69.3854 13.8401 68.8373 14.0655 68.2963 14.2205C67.7552 14.3754 67.158 14.4318 66.617 14.2205C66.1743 14.0514 65.8441 13.7345 65.5841 13.3401C65.3241 12.9456 65.1625 12.5089 65.036 12.0723C64.9447 11.7483 64.8182 11.4102 64.8815 11.0791C64.9588 10.7058 65.2047 10.3819 65.4365 10.086C65.7808 9.6423 66.1603 9.2197 66.5537 8.81823C66.9472 8.41676 67.3899 8.05755 67.8958 7.81104" fill="#DBB183"/>
<path d="M74.1422 8.90976C74.3249 10.2339 74.3109 11.6285 73.4185 12.7132C72.5262 13.7978 71.0436 13.7063 69.7718 14.0796C68.5001 14.4529 67.1018 15.129 65.9143 14.1852C65.4295 13.7978 65.1204 13.2485 64.9026 12.6779C64.6847 12.1074 64.4388 11.4524 64.6145 10.8678C64.8182 10.1987 65.4155 9.60705 65.8722 9.09993C66.4202 8.4942 67.0105 7.93074 67.7482 7.5504C68.1136 7.36727 68.4298 7.90961 68.0644 8.09978C67.3969 8.43786 66.877 8.93793 66.3781 9.48731C65.9495 9.95922 65.1344 10.6776 65.1836 11.3749C65.2328 12.0088 65.556 12.8047 65.9354 13.3048C66.4132 13.9457 67.144 14.143 67.9028 13.995C68.6195 13.8542 69.287 13.5302 69.9967 13.3682C70.6571 13.2203 71.3528 13.2132 71.9922 12.9667C73.5871 12.361 73.7277 10.5438 73.5309 9.08584C73.4747 8.68437 74.086 8.51533 74.1422 8.9168V8.90976Z" fill="black"/>
<path d="M71.163 18.313C71.5706 18.3905 71.9851 18.4609 72.3927 18.5454C72.8002 18.6299 73.2077 18.7285 73.6012 18.8412C74.0017 18.961 74.4092 19.1018 74.7535 19.3413C75.3086 19.7287 75.6529 20.3767 75.7021 21.0458C75.7513 21.7149 75.5053 22.4052 75.0135 22.87C74.7184 23.1447 74.353 23.3208 73.9736 23.4617C73.3834 23.68 72.7721 23.7997 72.1467 23.8209C71.5214 23.842 70.896 23.8138 70.2777 23.7645C70.081 23.7504 69.8632 23.7082 69.7156 23.5744C69.4767 23.3631 69.5259 22.9757 69.6453 22.6799C69.7648 22.384 69.9756 22.1023 69.9756 21.7854" fill="#EDD3AE"/>
<path d="M71.2474 18.0098C72.3997 18.2211 73.7066 18.3619 74.7324 18.9606C75.6037 19.4677 76.1096 20.482 76.0042 21.4892C75.7232 24.1093 72.5051 24.2431 70.4955 24.1163C69.9896 24.0811 69.3924 24.0036 69.2449 23.419C69.1816 23.1725 69.2238 22.8908 69.3151 22.6584C69.4205 22.3766 69.6313 22.116 69.6524 21.8132C69.6805 21.4047 70.3129 21.4047 70.2848 21.8132C70.2566 22.2428 70.0037 22.5457 69.8913 22.9471C69.8421 23.1091 69.814 23.2993 69.9756 23.3979C70.1513 23.5036 70.4253 23.4824 70.622 23.4965C71.6127 23.5529 72.6105 23.581 73.5731 23.2852C74.4444 23.0176 75.2102 22.5245 75.3718 21.5596C75.5124 20.6862 75.0627 19.841 74.2828 19.4466C73.3201 18.9536 72.1327 18.8338 71.0858 18.6366C70.6853 18.5591 70.8539 17.9534 71.2544 18.0239L71.2474 18.0098Z" fill="black"/>
<path d="M55.431 16.4888C55.0024 16.3197 54.5457 16.193 54.096 16.1084C53.6463 16.0239 53.1756 16.0239 52.7118 16.0239C52.1567 16.0239 51.5525 16.0803 51.166 16.4747C50.8709 16.7776 50.7444 17.2142 50.6601 17.6298C50.5477 18.2003 50.4985 18.7849 50.4564 19.3695C50.4142 19.9541 50.4283 20.5317 50.4634 21.1163C50.4704 21.236 50.4845 21.3557 50.5337 21.4614C50.6742 21.7431 51.0185 21.8417 51.3276 21.884C51.8406 21.9544 52.3605 21.9826 52.8664 21.884C53.3723 21.7854 53.8782 21.4966 54.0679 21.0176" fill="#EDD3AE"/>
<path d="M55.3467 16.7915C54.363 16.4112 53.3161 16.2492 52.2621 16.3478C51.7914 16.39 51.3909 16.5591 51.173 16.9958C50.9412 17.4606 50.885 18.0311 50.8358 18.5383C50.7796 19.1017 50.7444 19.6652 50.7444 20.2287C50.7444 20.5174 50.7444 20.8133 50.7796 21.102C50.8077 21.3485 50.906 21.4472 51.1379 21.5105C51.953 21.743 53.3934 21.7641 53.7939 20.8485C53.9555 20.4752 54.5035 20.7992 54.3419 21.1654C53.9485 22.0599 52.8664 22.2783 51.9881 22.2501C51.5384 22.236 50.9974 22.2149 50.6039 21.9684C50.1823 21.7007 50.1472 21.2711 50.1261 20.8133C50.0699 19.7145 50.1261 18.5735 50.358 17.4888C50.4493 17.0521 50.5969 16.6084 50.906 16.2703C51.2152 15.9322 51.6508 15.7843 52.0865 15.728C53.2318 15.5801 54.4403 15.7561 55.5153 16.1717C55.8877 16.3196 55.7261 16.9324 55.3467 16.7845V16.7915Z" fill="black"/>
<path d="M55.7402 18.0242C55.7402 18.1228 55.7402 18.2214 55.7402 18.3271C55.7402 18.3693 55.7332 18.4116 55.7121 18.4468C55.698 18.489 55.6769 18.5172 55.6488 18.5454C55.6207 18.5736 55.5856 18.5947 55.5505 18.6088C55.5153 18.6299 55.4732 18.637 55.431 18.637L55.3467 18.6229C55.2905 18.6088 55.2483 18.5806 55.2062 18.5384L55.157 18.475C55.1289 18.4257 55.1148 18.3693 55.1148 18.313C55.1148 18.2144 55.1148 18.1158 55.1148 18.0101C55.1148 17.9678 55.1219 17.9256 55.1429 17.8904C55.157 17.8481 55.1781 17.8199 55.2062 17.7918C55.2343 17.7636 55.2694 17.7425 55.3045 17.7284C55.3397 17.7072 55.3818 17.7002 55.424 17.7002L55.5083 17.7143C55.5645 17.7284 55.6067 17.7565 55.6488 17.7988L55.698 17.8622C55.7261 17.9115 55.7402 17.9678 55.7402 18.0242Z" fill="black"/>
<path d="M64.8955 2.93735C64.9588 2.83874 64.7901 2.74013 64.6707 2.71196C64.1648 2.6204 63.6589 2.51475 63.153 2.43023C62.6471 2.34571 62.1342 2.28232 61.6212 2.21188C61.1083 2.14145 60.5954 2.09215 60.0895 2.0358C59.956 2.02171 59.8155 1.97945 59.696 2.0358C59.5414 2.09919 59.4712 2.28232 59.3939 2.43023C59.148 2.90213 58.9512 3.38812 58.8528 3.90933C58.7545 4.43053 58.7404 4.95174 58.7264 5.48703C58.7123 6.02233 58.7404 6.54353 58.7545 7.07178C58.7685 7.44508 58.7404 7.85359 58.9442 8.1635C59.2182 8.5861 59.7592 8.76923 60.2581 8.86079C60.8343 8.97348 61.4245 9.0087 62.0077 9.03687C62.2536 9.04392 62.5276 9.07209 62.7525 8.9594C62.9773 8.8467 63.1038 8.57906 63.0406 8.33958" fill="#EDD3AE"/>
<path d="M64.5864 2.8527L64.6004 2.79636L64.6355 3.04287C64.6074 2.98653 64.2702 2.9654 64.2069 2.95131C64.0383 2.91609 63.8697 2.88792 63.701 2.8527C63.4059 2.79636 63.1108 2.74705 62.8157 2.69775C62.2044 2.60619 61.5931 2.52167 60.9818 2.45123C60.6586 2.41602 60.3284 2.35967 60.0052 2.33854C59.8506 2.3315 59.8365 2.31741 59.7452 2.4301C59.6679 2.52871 59.6117 2.69071 59.5555 2.8034C59.2814 3.38095 59.1269 3.98668 59.0777 4.62058C59.0285 5.25448 59.0285 5.90247 59.0496 6.54341C59.0636 7.07166 58.9442 7.83938 59.4079 8.19859C59.8717 8.5578 60.5181 8.60711 61.0591 8.65641C61.3472 8.68458 62.8157 8.9311 62.7384 8.41694C62.6752 8.01547 63.2865 7.84643 63.3497 8.2479C63.5816 9.74108 61.4667 9.3537 60.6165 9.23396C60.0544 9.15649 59.4501 9.04379 58.9934 8.6705C58.5367 8.2972 58.4594 7.75486 58.4383 7.17731C58.4032 5.81795 58.2767 4.35998 58.7615 3.05696C58.9161 2.6414 59.1339 1.88072 59.6117 1.71873C59.8576 1.63421 60.1597 1.71873 60.4127 1.7469C60.7781 1.78916 61.1364 1.82438 61.5018 1.87368C62.2536 1.97229 63.0054 2.07089 63.7502 2.20472C64.1929 2.28924 65.3593 2.29628 65.2117 3.00766C65.1274 3.40913 64.5161 3.24009 64.6004 2.83862L64.5864 2.8527Z" fill="black"/>
<path d="M78.5407 4.64164C78.9764 4.30356 79.412 3.96548 79.8546 3.63444C80.2973 3.30341 80.74 2.97237 81.1826 2.64838C81.4075 2.47934 81.6674 2.31734 81.9415 2.26804C82.3209 2.19056 82.7144 2.34551 83.0516 2.5216C83.5154 2.76107 83.958 3.06393 84.3515 3.40906C84.745 3.75418 85.1033 4.14861 85.4125 4.57121C85.7217 4.99381 85.9816 5.45162 86.1854 5.93761C86.3048 6.21935 86.4173 6.52221 86.3821 6.82507C86.333 7.2688 86.0168 7.64914 85.6444 7.9027C85.3071 8.13513 84.9207 8.276 84.5202 8.38165C84.1196 8.4873 83.7121 8.57182 83.3046 8.52252" fill="#EDD3AE"/>
<path d="M78.3159 4.41645C78.9342 3.9375 79.5525 3.4656 80.1708 3.00074C80.6767 2.6204 81.2178 2.09215 81.8501 1.95833C82.4825 1.8245 83.136 2.17667 83.6629 2.50771C84.2251 2.85987 84.738 3.28952 85.1806 3.78255C85.6444 4.30376 86.0379 4.88131 86.34 5.51521C86.607 6.07163 86.8389 6.66327 86.5859 7.269C86.1081 8.42411 84.4569 8.93123 83.3116 8.83966C82.9111 8.81149 82.9041 8.17759 83.3116 8.20576C84.1829 8.26915 85.8692 7.9029 86.0589 6.85344C86.1503 6.33224 85.7428 5.69834 85.4898 5.26869C85.2017 4.78975 84.8574 4.34602 84.4569 3.94455C84.0916 3.57829 83.677 3.2543 83.2273 2.98665C82.7284 2.69083 82.1944 2.4091 81.6394 2.71901C81.1475 2.9937 80.6978 3.38812 80.2481 3.73325C79.7493 4.10654 79.2504 4.48688 78.7585 4.87427C78.4424 5.12078 77.9927 4.67705 78.3089 4.42349L78.3159 4.41645Z" fill="black"/>
<path d="M98.0248 14.6222C98.2075 15.1575 98.4324 15.6787 98.6502 16.207C98.868 16.7352 99.0577 17.2635 99.3036 17.7776C99.3669 17.9114 99.4582 18.0312 99.5847 18.1086C99.8095 18.2495 100.105 18.1298 100.322 17.9889C100.8 17.672 101.229 17.2635 101.559 16.7915C101.889 16.3196 102.1 15.7632 102.22 15.2068C102.339 14.6504 102.381 14.0587 102.283 13.4882C102.184 12.9177 101.967 12.3754 101.664 11.8823C101.58 11.7415 101.475 11.6217 101.327 11.5443C101.109 11.4175 100.856 11.4527 100.611 11.4879C100.006 11.5795 99.402 11.6851 98.7977 11.7837C98.1935 11.8823 97.5822 11.9528 96.9779 12.0443" fill="#EDD3AE"/>
<path d="M98.327 14.5375C98.5378 15.1503 98.7977 15.7419 99.0437 16.3476C99.1491 16.6083 99.2474 16.8759 99.3599 17.1365C99.4512 17.3619 99.5707 17.8549 99.8658 17.8479C100.112 17.8479 100.435 17.5168 100.611 17.3689C100.8 17.1999 100.976 17.0238 101.138 16.8266C101.524 16.3476 101.763 15.7701 101.903 15.1714C102.051 14.5305 102.072 13.8614 101.91 13.2275C101.84 12.9528 101.742 12.6922 101.622 12.4386C101.503 12.185 101.362 11.8329 101.06 11.7624C100.758 11.692 100.351 11.8329 100.055 11.8822C99.7604 11.9315 99.4512 11.9808 99.1491 12.0301C98.4605 12.1428 97.7649 12.2273 97.0693 12.3259C96.6688 12.3893 96.5001 11.7765 96.9006 11.7131C97.5752 11.6145 98.2427 11.53 98.9172 11.4244C99.5496 11.3258 100.196 11.1708 100.835 11.1215C102.002 11.037 102.48 12.5795 102.613 13.5092C102.782 14.6713 102.494 15.9673 101.833 16.9393C101.524 17.3901 101.138 17.7704 100.702 18.0944C100.308 18.3832 99.8025 18.6438 99.3528 18.3198C99.121 18.1578 99.0156 17.8972 98.9031 17.6507C98.7696 17.3478 98.6502 17.0379 98.5237 16.728C98.2567 16.0518 97.9616 15.3827 97.7227 14.6925C97.5892 14.3051 98.2005 14.1431 98.334 14.5234L98.327 14.5375Z" fill="black"/>
<path d="M74.3881 35.0476C74.7816 34.8434 75.2664 34.8715 75.674 35.0265C76.0815 35.1814 76.4609 35.4843 76.6225 35.8928C76.7771 36.2732 76.7841 36.7099 76.7771 37.1254C76.7701 37.5973 76.7349 38.0622 76.7139 38.5341C76.6998 38.8088 76.6717 39.0905 76.5312 39.3229C76.3626 39.6117 76.0604 39.7878 75.7583 39.9216C75.2875 40.1329 74.7957 40.2949 74.3038 40.4499C73.812 40.6048 73.3131 40.7175 72.8072 40.8091C72.3013 40.9006 71.7954 40.9922 71.2755 41.0274C70.7555 41.0626 70.2426 41.0697 69.7297 41.0415C69.6524 41.0415 69.554 41.0274 69.4908 40.9781C69.3994 40.9077 69.3643 40.7668 69.3502 40.6541C69.294 40.2174 69.2729 39.7737 69.2519 39.33C69.2308 38.8862 69.2519 38.4425 69.287 37.9988C69.3081 37.71 69.3221 37.3719 69.5329 37.1818C69.7788 36.9634 70.3058 36.9071 70.2777 36.576" fill="#EDD3AE"/>
<path d="M74.2336 34.773C75.3648 34.2588 76.7982 34.9138 77.0371 36.1605C77.1776 36.886 77.0793 37.6537 77.0371 38.3862C77.002 38.9919 76.9106 39.5343 76.3977 39.9146C75.8286 40.3372 75.0557 40.5415 74.3882 40.7457C73.6504 40.9711 72.8915 41.119 72.1257 41.2387C71.3598 41.3585 70.622 41.3937 69.8702 41.3514C69.6243 41.3373 69.3713 41.3303 69.2027 41.126C69.013 40.9007 69.013 40.5555 68.9849 40.2738C68.9076 39.4216 68.8865 38.5411 68.9849 37.6889C69.02 37.4142 69.0973 37.1395 69.3011 36.9494C69.3854 36.8719 69.9475 36.6465 69.9475 36.569C69.9615 36.1605 70.5939 36.1605 70.5799 36.569C70.5728 36.9423 70.3129 37.1114 70.0037 37.2593C69.814 37.3508 69.6805 37.4072 69.6313 37.6255C69.561 37.9002 69.5751 38.2172 69.561 38.4989C69.5329 39.1117 69.554 39.7315 69.6173 40.3442C69.6313 40.464 69.6173 40.633 69.7227 40.7034C69.7999 40.7528 70.0529 40.7175 70.1442 40.7175C70.4464 40.7175 70.7555 40.7175 71.0577 40.7034C72.2592 40.6471 73.4747 40.3724 74.613 39.9991C75.1048 39.8371 75.7513 39.6822 76.1237 39.2948C76.4961 38.9074 76.4047 38.1678 76.4258 37.6678C76.4539 37.0761 76.5593 36.2943 76.1939 35.7802C75.8286 35.266 75.0838 35.0547 74.5287 35.3083C74.1633 35.4773 73.8401 34.9279 74.2125 34.7589L74.2336 34.773Z" fill="black"/>
<path d="M52.1286 30.561C51.5033 30.9062 50.8006 31.1175 50.0839 31.1456C49.4937 31.1668 48.8473 31.0963 48.3695 31.4415C47.7652 31.8711 47.702 32.7304 47.7161 33.477C47.7231 33.9771 47.7442 34.4912 47.955 34.942C48.236 35.5266 48.8262 35.9281 49.4445 36.1041C50.0629 36.2802 50.7233 36.2591 51.3698 36.2591C51.7843 36.2591 52.2059 36.2802 52.5994 36.1534C53.2458 35.9492 53.7306 35.3998 53.9906 34.7729C54.2506 34.1461 54.2717 33.4488 54.1382 32.7797" fill="#EDD3AE"/>
<path d="M52.2832 30.836C51.8124 31.0896 51.3065 31.2868 50.7795 31.3854C50.2947 31.477 49.8169 31.4488 49.3321 31.477C48.8473 31.5052 48.4187 31.6601 48.2149 32.125C48.0393 32.5124 48.0322 32.9631 48.0322 33.3787C48.0322 33.8858 48.0322 34.4493 48.2992 34.9001C48.5452 35.3227 48.9878 35.6114 49.4445 35.7664C49.9575 35.9354 50.4985 35.9425 51.0325 35.9425C51.5665 35.9425 52.1497 36.0129 52.6486 35.8016C53.7587 35.3297 54.0327 33.9422 53.836 32.8716C53.7587 32.4701 54.37 32.3011 54.4473 32.7025C54.6651 33.8788 54.4543 35.2029 53.4987 36.0059C53.0491 36.3862 52.5221 36.5482 51.9389 36.5764C51.2925 36.6045 50.6109 36.6116 49.9645 36.5271C48.777 36.3792 47.6809 35.6607 47.4701 34.4141C47.3085 33.4703 47.2523 32.0475 48.0112 31.3291C48.496 30.8713 49.1565 30.8431 49.7888 30.836C50.5688 30.829 51.2784 30.66 51.967 30.2937C52.3253 30.1035 52.6486 30.6459 52.2832 30.8431V30.836Z" fill="black"/>
<path d="M62.4223 48.1553C62.3239 48.5567 62.1131 48.9089 61.9164 49.2752C61.7056 49.6766 61.544 50.1133 61.4105 50.543C61.277 50.9726 61.1856 51.4304 61.1294 51.8812C61.0732 52.332 61.0451 52.7898 61.0732 53.2476C61.1083 53.7618 61.2418 54.2759 61.5721 54.6704C61.8812 55.0296 62.3239 55.1986 62.7736 55.3324C63.2233 55.4662 63.6729 55.5719 64.1297 55.6494C64.5864 55.7269 65.0501 55.7621 65.5139 55.8043C65.9776 55.8466 66.4343 55.9382 66.898 55.9734C67.144 55.9875 67.425 55.9945 67.6358 55.8677C67.8185 55.7621 67.9028 55.5437 68.0012 55.3606C68.2752 54.8323 68.5211 54.283 68.6265 53.6913C68.7319 53.0997 68.7249 52.494 68.6546 51.9094C68.5844 51.3248 68.3876 50.7543 68.1417 50.2119C67.9731 49.8386 67.6499 49.416 67.2634 49.5639" fill="#DBB183"/>
<path d="M62.7244 48.2399C62.5698 48.7963 62.2396 49.2752 62.0077 49.8035C61.7688 50.3599 61.5931 50.9586 61.4877 51.5573C61.298 52.6772 61.1364 54.3042 62.3801 54.8535C63.4762 55.3395 64.6988 55.3677 65.8652 55.5227C66.3078 55.579 67.3126 55.896 67.6077 55.4311C67.9028 54.9662 68.1558 54.3605 68.2822 53.8041C68.4439 53.0927 68.4368 52.2968 68.2822 51.5784C68.205 51.2333 67.8677 49.726 67.3477 49.8598C66.9543 49.9584 66.7856 49.3457 67.1791 49.2471C67.8255 49.0851 68.2401 49.6344 68.472 50.1627C68.7811 50.86 68.9708 51.5784 69.013 52.3391C69.0551 53.0998 68.9708 53.8957 68.6827 54.6211C68.479 55.1423 68.219 55.9734 67.6499 56.1988C67.0034 56.4524 66.1743 56.1777 65.5139 56.1073C64.741 56.0298 63.9821 55.9594 63.2233 55.7692C62.5909 55.6142 61.8953 55.4311 61.4245 54.9592C60.9537 54.4873 60.7711 53.7548 60.743 53.0786C60.7078 52.2193 60.8343 51.3319 61.0732 50.5078C61.1926 50.1134 61.3332 49.719 61.5088 49.3386C61.7126 48.909 61.9726 48.5145 62.099 48.0497C62.2115 47.6553 62.8157 47.8243 62.7103 48.2187L62.7244 48.2399Z" fill="black"/>
<path d="M86.8881 39.6187C87.3658 39.7174 87.8296 39.9357 88.2512 40.1822C88.6728 40.4287 89.0241 40.7809 89.3543 41.1471C89.6846 41.5134 90.0078 41.8937 90.1975 42.3516C90.2818 42.5558 90.345 42.8023 90.2748 43.0136C90.2045 43.2108 89.9867 43.3024 89.811 43.4151C89.2981 43.7391 88.7781 44.042 88.202 44.2251C87.6258 44.4082 87.0426 44.5491 86.4454 44.6477C85.8482 44.7463 85.2439 44.7815 84.6537 44.8519C84.2251 44.9012 83.7824 45.0069 83.3538 44.9435C82.7847 44.859 82.2507 44.5561 81.8431 44.1546C81.4356 43.7532 81.1475 43.2249 80.9578 42.6967C80.7681 42.1684 80.6416 41.5909 80.6135 41.0204C80.5854 40.4499 80.6276 39.8723 80.6627 39.3088C80.6627 39.2384 80.6908 39.1609 80.7259 39.1046C80.7892 39.013 80.9016 38.9919 81.014 38.9708C81.4286 38.8862 81.822 38.7383 82.2366 38.6538" fill="#DBB183"/>
<path d="M86.9724 39.316C88.4057 39.6541 89.804 40.767 90.4293 42.1193C90.6753 42.6475 90.7034 43.2039 90.1764 43.5561C89.537 43.9858 88.8344 44.3591 88.1036 44.5844C87.2956 44.831 86.4665 44.9859 85.6233 45.0704C84.8645 45.1479 84.0072 45.3733 83.2484 45.2536C81.7237 45.007 80.8102 43.6125 80.4519 42.2108C80.213 41.2811 80.199 40.2669 80.3184 39.316C80.3535 39.0554 80.4519 38.8441 80.6908 38.7314C81.1124 38.5342 81.6745 38.4567 82.1242 38.3511C82.5177 38.2595 82.6863 38.8723 82.2928 38.9639C82.0609 39.0202 81.8291 39.0836 81.5972 39.147C81.4496 39.1893 81.1826 39.1963 81.0702 39.2808C80.9367 39.2808 80.8946 39.3512 80.9367 39.5062L80.9227 39.6964C80.9016 39.9499 80.8946 40.2035 80.8875 40.457C80.8735 41.2459 80.9929 42.0277 81.288 42.7602C81.5831 43.4927 82.0961 44.1618 82.8479 44.4788C83.5997 44.7957 84.3937 44.5563 85.1666 44.4788C85.9816 44.4013 86.7897 44.2886 87.5837 44.0703C88.3003 43.8801 89.1786 43.5702 89.7478 43.0701C90.352 42.5419 89.2911 41.5347 88.9046 41.1332C88.3285 40.5345 87.6118 40.119 86.8037 39.9288C86.4103 39.8372 86.5719 39.2245 86.9724 39.316Z" fill="black"/>
<path d="M75.3578 11.1287C75.5967 11.0723 75.9058 11.0301 76.0534 11.2202C76.0955 11.2766 76.1166 11.347 76.1377 11.4174C76.3555 12.164 76.5804 12.9036 76.7912 13.6502C76.8895 13.9953 76.9387 14.4179 76.6577 14.6503C76.5171 14.763 76.3415 14.7912 76.1588 14.8194C75.7513 14.8757 75.3437 14.9602 74.9362 15.0166C74.5287 15.0729 74.1211 15.1363 73.7136 15.1997C73.6504 15.2068 73.5801 15.1997 73.5169 15.1786C73.4466 15.1504 73.4255 15.0659 73.3904 15.0025C73.1023 14.4531 72.7791 13.9108 72.6667 13.3121C72.5543 12.7134 72.6597 12.0513 73.0531 11.5724" fill="#EDD3AE"/>
<path d="M75.2735 10.8256C75.6248 10.7411 76.0534 10.7129 76.2993 11.0299C76.4188 11.1848 76.4539 11.3891 76.5031 11.5652C76.5804 11.8187 76.6506 12.0793 76.7279 12.3329C76.8614 12.7766 77.009 13.2274 77.1214 13.6782C77.2057 14.0444 77.2268 14.4529 76.9809 14.7629C76.6928 15.1291 76.201 15.1291 75.7794 15.1995C75.3227 15.277 74.8589 15.3474 74.4022 15.4179C74.0158 15.4742 73.4185 15.6855 73.1656 15.2629C72.9407 14.8826 72.737 14.467 72.5683 14.0656C72.1889 13.157 72.1959 12.1427 72.8213 11.3468C72.9267 11.213 73.1585 11.2341 73.271 11.3468C73.4045 11.4807 73.3764 11.6638 73.271 11.7976C72.8915 12.2836 72.8705 12.9457 73.0391 13.5162C73.1445 13.8543 73.3061 14.1712 73.4677 14.4882C73.538 14.622 73.6363 14.7558 73.6855 14.8967C73.7277 15.0305 73.6504 14.8403 73.6434 14.8967C73.6434 14.8967 73.7347 14.8896 73.7417 14.8896C73.8471 14.8755 73.9455 14.8615 74.0509 14.8474C74.7605 14.7417 75.4702 14.6361 76.1799 14.5163C76.2993 14.4952 76.4398 14.4741 76.5101 14.3614C76.5733 14.2628 76.5593 14.1219 76.5452 14.0092C76.5031 13.6852 76.3766 13.3683 76.2853 13.0584C76.1658 12.6639 76.0464 12.2625 75.934 11.868C75.9058 11.7765 75.8707 11.4736 75.7934 11.4243C75.7161 11.375 75.5264 11.4384 75.4491 11.4525C75.0557 11.544 74.887 10.9383 75.2805 10.8397L75.2735 10.8256Z" fill="black"/>
<path d="M85.012 26.7862C85.6795 26.7862 85.6795 27.1595 86.354 27.1595C87.0286 27.1595 87.0215 26.5185 87.6961 26.5185C88.3284 26.5185 88.9608 26.596 89.3824 26.1804C89.804 25.7649 89.7618 25.131 89.7618 24.49C89.7618 23.6167 89.9375 23.6167 89.9375 22.7503C89.9375 21.884 89.9234 21.877 89.9234 21.0106C89.9234 20.3767 90.085 19.6372 89.7899 19.1301C89.4948 18.6229 88.8976 18.137 88.3706 17.8341C87.8436 17.5312 87.1691 17.4326 86.5367 17.4326C86.3611 17.4326 86.3611 17.489 86.1854 17.489C85.553 17.489 84.998 17.7637 84.485 18.0665C83.9721 18.3694 83.4873 18.7568 83.1851 19.285C82.883 19.8133 82.9814 20.3908 82.9814 21.0177C82.9814 21.891 82.7495 21.891 82.7495 22.7574C82.7495 23.6237 82.7003 23.6307 82.7003 24.4971C82.7003 25.131 83.1851 25.5043 83.6067 25.9269C84.0283 26.3495 84.3937 26.7932 85.0331 26.7932L85.012 26.7862Z" fill="#EEC897"/>
<path d="M85.012 26.7862C85.6795 26.7862 85.6795 27.1595 86.354 27.1595C87.0286 27.1595 87.0215 26.5185 87.6961 26.5185C88.3284 26.5185 88.9608 26.596 89.3824 26.1804C89.804 25.7649 89.7618 25.131 89.7618 24.49C89.7618 23.6167 89.9375 23.6167 89.9375 22.7503C89.9375 21.884 89.9234 21.877 89.9234 21.0106C89.9234 20.3767 90.085 19.6372 89.7899 19.1301C89.4948 18.6229 88.8976 18.137 88.3706 17.8341C87.8436 17.5312 87.1691 17.4326 86.5367 17.4326C86.3611 17.4326 86.3611 17.489 86.1854 17.489C85.553 17.489 84.998 17.7637 84.485 18.0665C83.9721 18.3694 83.4873 18.7568 83.1851 19.285C82.883 19.8133 82.9814 20.3908 82.9814 21.0177C82.9814 21.891 82.7495 21.891 82.7495 22.7574C82.7495 23.6237 82.7003 23.6307 82.7003 24.4971C82.7003 25.131 83.1851 25.5043 83.6067 25.9269C84.0283 26.3495 84.3937 26.7932 85.0331 26.7932L85.012 26.7862Z" stroke="black" stroke-miterlimit="10"/>
<path d="M56.8855 43.9715C56.8503 43.4432 56.485 42.9361 56.4428 42.4079C56.4006 41.8796 56.4147 41.3443 56.3585 40.8161C56.3023 40.2878 56.0774 39.7877 55.9861 39.2665C55.8947 38.7453 56.218 38.1326 56.0845 37.6184C55.951 37.0901 55.5645 36.6323 55.3888 36.1252C55.2132 35.6181 54.7846 35.2166 54.5527 34.7236C54.3208 34.2306 54.2225 33.6953 53.9555 33.2234C53.6885 32.7515 53.309 32.3711 52.9999 31.9203C52.6907 31.4696 52.6345 30.8498 52.2902 30.4272C51.9459 30.0046 51.707 29.4833 51.3346 29.0889C50.9622 28.6945 50.5688 28.3001 50.1683 27.9338C49.7678 27.5676 49.023 27.6169 48.5944 27.2788C48.1657 26.9407 47.9128 26.3984 47.4631 26.0885C47.0134 25.7786 46.5146 25.5743 46.0508 25.2926C45.5871 25.0108 45.2358 24.5319 44.758 24.2783C44.2802 24.0248 43.7181 23.9402 43.2192 23.7219C42.7203 23.5036 42.1582 23.4824 41.6523 23.2923C41.1464 23.1021 40.6194 23.0176 40.0995 22.8626C39.5936 22.7147 39.165 22.3344 38.652 22.2076C38.1391 22.0808 37.577 22.2498 37.0641 22.1512C36.5512 22.0526 36.0944 21.6441 35.5745 21.5596C35.0545 21.4751 34.5627 21.1863 34.0428 21.1159C33.5228 21.0454 32.9747 21.2074 32.4548 21.1581C31.9348 21.1088 31.3868 21.306 30.8668 21.2567C30.3609 21.2145 29.855 21.2286 29.3491 21.1933C28.8432 21.1581 28.3514 20.982 27.8385 20.9539C27.3255 20.9257 26.8337 20.5031 26.3208 20.4961C25.8079 20.489 25.2949 20.5665 24.789 20.5806C24.2831 20.5947 23.7983 21.0666 23.2924 21.1159C22.7865 21.1652 22.2947 21.2427 21.7958 21.3131C21.2969 21.3835 20.7067 21.0173 20.2149 21.13C19.723 21.2426 19.3085 21.6864 18.8166 21.8343C18.2967 21.9963 17.7486 22.0667 17.2497 22.271C16.7509 22.4752 16.1958 22.595 15.718 22.8415C15.2402 23.088 14.7975 23.4261 14.3338 23.7149C13.8701 24.0036 13.589 24.5319 13.1534 24.8559C12.7177 25.1799 12.1275 25.2996 11.72 25.6518C11.3125 26.0039 11.1087 26.5815 10.7222 26.9618C10.3358 27.3422 9.65424 27.4478 9.29589 27.8563C8.93755 28.2649 8.61434 28.7156 8.2841 29.1453C7.95386 29.5749 7.66577 30.0468 7.35661 30.4976C7.04745 30.9484 7.02638 31.5752 6.74532 32.0401C6.46427 32.5049 5.79676 32.7585 5.54381 33.2374C5.29086 33.7164 5.45248 34.4066 5.23466 34.8997C5.01684 35.3927 4.89036 35.921 4.69363 36.4281C4.49689 36.9352 3.99099 37.3367 3.84343 37.8508C3.69588 38.365 3.40077 38.8792 3.29538 39.4074C3.18998 39.9357 3.18998 40.5062 3.11972 41.0415C3.04945 41.5767 3.02135 42.1332 2.97919 42.6755C2.93703 43.2178 3.00027 43.7672 2.97919 44.3096C2.95811 44.8519 2.92298 45.3942 2.9019 45.9366C2.88082 46.4789 3.05648 47.0283 3.04243 47.5706C3.02837 48.113 2.67706 48.6412 2.64895 49.1835C2.62085 49.7259 3.07756 50.2964 3.04243 50.8387C3.00729 51.3811 2.88785 51.9304 2.82461 52.4657C2.76137 53.001 2.41708 53.5082 2.32573 54.0434C2.23439 54.5787 2.04468 55.0859 1.91118 55.6141C1.77768 56.1424 1.74255 56.6917 1.55986 57.2059C1.39123 57.6778 1.08207 58.1075 0.934517 58.5723C0.772911 59.0653 0.983707 59.6429 0.885338 60.1007C0.772915 60.629 0.323223 61.1009 0.344303 61.5446C0.37241 62.0869 0.562115 62.6786 0.899384 63.0378C1.18746 63.3477 1.7566 63.4533 2.35384 63.5731C2.87379 63.6787 3.28835 63.9393 3.7029 64.1154C4.20178 64.3267 4.82712 64.2915 5.15033 64.5944C5.52976 64.9465 5.4876 65.5663 5.60002 66.0382C5.70542 66.4749 5.55787 66.8482 5.40329 67.3765C5.28384 67.792 5.4595 68.3837 5.17141 68.8556C4.8763 69.3275 4.6866 69.8205 4.4477 70.2502C4.16665 70.7432 3.60454 71.032 3.38672 71.4616C3.11972 71.9828 2.85272 72.4547 2.68409 72.8844C2.45924 73.4619 2.30465 73.9972 2.22736 74.4268C2.10792 75.103 2.59274 75.4904 2.79651 75.8496C3.04243 76.2933 3.28132 76.399 3.88559 76.4835C4.33527 76.5398 4.80605 76.6385 5.39626 76.5539C5.87405 76.4835 6.47832 76.7723 7.01935 76.6385C7.50417 76.5117 7.97493 76.2018 8.48786 76.0398C9.00078 75.8778 9.35913 75.3707 9.86503 75.2016C10.3709 75.0326 10.8979 74.9692 11.3827 74.8001C11.8675 74.6311 12.3594 74.3705 12.8442 74.2085C13.3712 74.0324 14.0176 74.3353 14.4884 74.2015C15.0575 74.0324 15.465 73.476 15.9077 73.4056C16.6384 73.2858 16.9757 73.6873 17.2006 73.9831C17.4957 74.3775 17.9805 74.6945 18.3458 75.103C18.7112 75.5115 19.2101 75.7228 19.6176 76.0468C20.0252 76.3708 20.517 76.4694 21.0018 76.6385C21.4866 76.8075 21.8871 77.0188 22.4282 76.9272C22.8849 76.8498 23.3978 76.8004 23.8967 76.4624C24.2831 76.2088 24.508 75.7087 24.9155 75.265C25.2949 74.8565 25.9695 74.8213 26.4894 74.617C27.0094 74.4128 27.4731 73.9902 28.0493 73.9479C28.5903 73.9127 29.1735 74.0536 29.7286 74.131C30.2836 74.2085 30.8317 74.3564 31.3517 74.5043C31.9067 74.6593 32.4056 74.934 32.8834 75.1453C33.3612 75.3566 33.7968 75.6453 34.2606 75.8355C34.7243 76.0257 35.2864 76.0539 35.7572 76.2159C36.249 76.3919 36.7057 76.6455 37.1835 76.7793C37.6894 76.9272 38.2375 76.8145 38.7223 76.9131C39.2493 77.0117 39.7201 77.2724 40.2049 77.3005C40.7389 77.3357 41.2167 77.0329 41.7015 76.9695C42.2214 76.8991 42.6922 76.892 43.1419 76.6807C43.5916 76.4694 44.1607 76.406 44.5401 76.0398C44.8844 75.7087 45.2217 75.2791 45.4957 74.8001C45.7276 74.3916 46.0368 73.9338 46.2054 73.4056C46.3529 72.9548 46.4443 72.4195 46.5427 71.8772C46.634 71.37 46.6832 70.8981 46.9853 70.4896C47.2874 70.0811 47.5966 69.6867 48.0322 69.3909C48.4398 69.1162 48.9386 68.9612 49.4164 68.764C49.8942 68.5668 50.4142 68.6584 50.9131 68.5457C51.4119 68.433 51.8686 68.2005 52.3605 68.1583C52.8875 68.116 53.4144 67.7498 53.8852 67.792C54.4333 67.8343 54.9181 68.2639 55.3748 68.2569C55.9369 68.2569 56.485 68.3132 56.9276 68.2287C57.4968 68.1231 57.8411 67.5737 58.2205 67.3413C58.6772 67.0595 59.169 66.8482 59.3728 66.3834C59.5485 65.9678 59.3096 65.4396 59.2955 64.869C59.2815 64.4183 59.2182 63.9675 59.0917 63.4181C58.9863 62.9674 59.1198 62.4109 58.9442 61.8968C58.7896 61.453 58.5929 60.9811 58.3891 60.4881C58.2064 60.0444 57.7848 59.6852 57.56 59.1992C57.3422 58.7343 57.4757 58.1286 57.3281 57.6426C57.1806 57.1566 56.6606 56.7481 56.5693 56.241C56.4779 55.7338 56.4147 55.2056 56.3725 54.6985C56.3304 54.1914 56.5693 53.6561 56.5552 53.1419C56.5412 52.6277 56.8293 52.1277 56.8363 51.6135C56.8433 51.0993 56.7801 50.5993 56.8011 50.0851C56.8222 49.5709 56.6817 49.0568 56.7028 48.5496C56.7239 48.0425 56.9276 47.5284 56.9417 47.0212C56.9557 46.5141 57.0541 45.9859 57.0471 45.4788C57.04 44.9716 56.9276 44.4434 56.8925 43.9363L56.8855 43.9715Z" fill="#3F1604"/>
<mask id="mask1_196_14945" style="mask-type:luminance" maskUnits="userSpaceOnUse" x="0" y="20" width="60" height="58">
<path d="M56.8855 43.9715C56.8503 43.4432 56.485 42.9361 56.4428 42.4079C56.4006 41.8796 56.4147 41.3443 56.3585 40.8161C56.3023 40.2878 56.0774 39.7877 55.9861 39.2665C55.8947 38.7453 56.218 38.1326 56.0845 37.6184C55.951 37.0901 55.5645 36.6323 55.3888 36.1252C55.2132 35.6181 54.7846 35.2166 54.5527 34.7236C54.3208 34.2306 54.2225 33.6953 53.9555 33.2234C53.6885 32.7515 53.309 32.3711 52.9999 31.9203C52.6907 31.4696 52.6345 30.8498 52.2902 30.4272C51.9459 30.0046 51.707 29.4833 51.3346 29.0889C50.9622 28.6945 50.5688 28.3001 50.1683 27.9338C49.7678 27.5676 49.023 27.6169 48.5944 27.2788C48.1657 26.9407 47.9128 26.3984 47.4631 26.0885C47.0134 25.7786 46.5146 25.5743 46.0508 25.2926C45.5871 25.0108 45.2358 24.5319 44.758 24.2783C44.2802 24.0248 43.7181 23.9402 43.2192 23.7219C42.7203 23.5036 42.1582 23.4824 41.6523 23.2923C41.1464 23.1021 40.6194 23.0176 40.0995 22.8626C39.5936 22.7147 39.165 22.3344 38.652 22.2076C38.1391 22.0808 37.577 22.2498 37.0641 22.1512C36.5512 22.0526 36.0944 21.6441 35.5745 21.5596C35.0545 21.4751 34.5627 21.1863 34.0428 21.1159C33.5228 21.0454 32.9747 21.2074 32.4548 21.1581C31.9348 21.1088 31.3868 21.306 30.8668 21.2567C30.3609 21.2145 29.855 21.2286 29.3491 21.1933C28.8432 21.1581 28.3514 20.982 27.8385 20.9539C27.3255 20.9257 26.8337 20.5031 26.3208 20.4961C25.8079 20.489 25.2949 20.5665 24.789 20.5806C24.2831 20.5947 23.7983 21.0666 23.2924 21.1159C22.7865 21.1652 22.2947 21.2427 21.7958 21.3131C21.2969 21.3835 20.7067 21.0173 20.2149 21.13C19.723 21.2426 19.3085 21.6864 18.8166 21.8343C18.2967 21.9963 17.7486 22.0667 17.2497 22.271C16.7509 22.4752 16.1958 22.595 15.718 22.8415C15.2402 23.088 14.7975 23.4261 14.3338 23.7149C13.8701 24.0036 13.589 24.5319 13.1534 24.8559C12.7177 25.1799 12.1275 25.2996 11.72 25.6518C11.3125 26.0039 11.1087 26.5815 10.7222 26.9618C10.3358 27.3422 9.65424 27.4478 9.29589 27.8563C8.93755 28.2649 8.61434 28.7156 8.2841 29.1453C7.95386 29.5749 7.66577 30.0468 7.35661 30.4976C7.04745 30.9484 7.02638 31.5752 6.74532 32.0401C6.46427 32.5049 5.79676 32.7585 5.54381 33.2374C5.29086 33.7164 5.45248 34.4066 5.23466 34.8997C5.01684 35.3927 4.89036 35.921 4.69363 36.4281C4.49689 36.9352 3.99099 37.3367 3.84343 37.8508C3.69588 38.365 3.40077 38.8792 3.29538 39.4074C3.18998 39.9357 3.18998 40.5062 3.11972 41.0415C3.04945 41.5767 3.02135 42.1332 2.97919 42.6755C2.93703 43.2178 3.00027 43.7672 2.97919 44.3096C2.95811 44.8519 2.92298 45.3942 2.9019 45.9366C2.88082 46.4789 3.05648 47.0283 3.04243 47.5706C3.02837 48.113 2.67706 48.6412 2.64895 49.1835C2.62085 49.7259 3.07756 50.2964 3.04243 50.8387C3.00729 51.3811 2.88785 51.9304 2.82461 52.4657C2.76137 53.001 2.41708 53.5082 2.32573 54.0434C2.23439 54.5787 2.04468 55.0859 1.91118 55.6141C1.77768 56.1424 1.74255 56.6917 1.55986 57.2059C1.39123 57.6778 1.08207 58.1075 0.934517 58.5723C0.772911 59.0653 0.983707 59.6429 0.885338 60.1007C0.772915 60.629 0.323223 61.1009 0.344303 61.5446C0.37241 62.0869 0.562115 62.6786 0.899384 63.0378C1.18746 63.3477 1.7566 63.4533 2.35384 63.5731C2.87379 63.6787 3.28835 63.9393 3.7029 64.1154C4.20178 64.3267 4.82712 64.2915 5.15033 64.5944C5.52976 64.9465 5.4876 65.5663 5.60002 66.0382C5.70542 66.4749 5.55787 66.8482 5.40329 67.3765C5.28384 67.792 5.4595 68.3837 5.17141 68.8556C4.8763 69.3275 4.6866 69.8205 4.4477 70.2502C4.16665 70.7432 3.60454 71.032 3.38672 71.4616C3.11972 71.9828 2.85272 72.4547 2.68409 72.8844C2.45924 73.4619 2.30465 73.9972 2.22736 74.4268C2.10792 75.103 2.59274 75.4904 2.79651 75.8496C3.04243 76.2933 3.28132 76.399 3.88559 76.4835C4.33527 76.5398 4.80605 76.6385 5.39626 76.5539C5.87405 76.4835 6.47832 76.7723 7.01935 76.6385C7.50417 76.5117 7.97493 76.2018 8.48786 76.0398C9.00078 75.8778 9.35913 75.3707 9.86503 75.2016C10.3709 75.0326 10.8979 74.9692 11.3827 74.8001C11.8675 74.6311 12.3594 74.3705 12.8442 74.2085C13.3712 74.0324 14.0176 74.3353 14.4884 74.2015C15.0575 74.0324 15.465 73.476 15.9077 73.4056C16.6384 73.2858 16.9757 73.6873 17.2006 73.9831C17.4957 74.3775 17.9805 74.6945 18.3458 75.103C18.7112 75.5115 19.2101 75.7228 19.6176 76.0468C20.0252 76.3708 20.517 76.4694 21.0018 76.6385C21.4866 76.8075 21.8871 77.0188 22.4282 76.9272C22.8849 76.8498 23.3978 76.8004 23.8967 76.4624C24.2831 76.2088 24.508 75.7087 24.9155 75.265C25.2949 74.8565 25.9695 74.8213 26.4894 74.617C27.0094 74.4128 27.4731 73.9902 28.0493 73.9479C28.5903 73.9127 29.1735 74.0536 29.7286 74.131C30.2836 74.2085 30.8317 74.3564 31.3517 74.5043C31.9067 74.6593 32.4056 74.934 32.8834 75.1453C33.3612 75.3566 33.7968 75.6453 34.2606 75.8355C34.7243 76.0257 35.2864 76.0539 35.7572 76.2159C36.249 76.3919 36.7057 76.6455 37.1835 76.7793C37.6894 76.9272 38.2375 76.8145 38.7223 76.9131C39.2493 77.0117 39.7201 77.2724 40.2049 77.3005C40.7389 77.3357 41.2167 77.0329 41.7015 76.9695C42.2214 76.8991 42.6922 76.892 43.1419 76.6807C43.5916 76.4694 44.1607 76.406 44.5401 76.0398C44.8844 75.7087 45.2217 75.2791 45.4957 74.8001C45.7276 74.3916 46.0368 73.9338 46.2054 73.4056C46.3529 72.9548 46.4443 72.4195 46.5427 71.8772C46.634 71.37 46.6832 70.8981 46.9853 70.4896C47.2874 70.0811 47.5966 69.6867 48.0322 69.3909C48.4398 69.1162 48.9386 68.9612 49.4164 68.764C49.8942 68.5668 50.4142 68.6584 50.9131 68.5457C51.4119 68.433 51.8686 68.2005 52.3605 68.1583C52.8875 68.116 53.4144 67.7498 53.8852 67.792C54.4333 67.8343 54.9181 68.2639 55.3748 68.2569C55.9369 68.2569 56.485 68.3132 56.9276 68.2287C57.4968 68.1231 57.8411 67.5737 58.2205 67.3413C58.6772 67.0595 59.169 66.8482 59.3728 66.3834C59.5485 65.9678 59.3096 65.4396 59.2955 64.869C59.2815 64.4183 59.2182 63.9675 59.0917 63.4181C58.9863 62.9674 59.1198 62.4109 58.9442 61.8968C58.7896 61.453 58.5929 60.9811 58.3891 60.4881C58.2064 60.0444 57.7848 59.6852 57.56 59.1992C57.3422 58.7343 57.4757 58.1286 57.3281 57.6426C57.1806 57.1566 56.6606 56.7481 56.5693 56.241C56.4779 55.7338 56.4147 55.2056 56.3725 54.6985C56.3304 54.1914 56.5693 53.6561 56.5552 53.1419C56.5412 52.6277 56.8293 52.1277 56.8363 51.6135C56.8433 51.0993 56.7801 50.5993 56.8011 50.0851C56.8222 49.5709 56.6817 49.0568 56.7028 48.5496C56.7239 48.0425 56.9276 47.5284 56.9417 47.0212C56.9557 46.5141 57.0541 45.9859 57.0471 45.4788C57.04 44.9716 56.9276 44.4434 56.8925 43.9363L56.8855 43.9715Z" fill="white"/>
</mask>
<g mask="url(#mask1_196_14945)">
<path d="M34.0006 16.9887C34.9281 17.5451 35.6729 18.1227 36.3896 18.9186C37.1063 19.7145 37.8862 20.3765 38.7293 21.0245C39.4952 21.6162 40.2962 22.0317 40.9356 22.7853C41.7226 23.7151 42.2566 24.7504 42.9873 25.7154C43.5986 26.5183 44.3785 27.286 44.7931 28.2158C45.2287 29.2089 45.6644 30.1949 46.2054 31.1458C46.6832 31.9839 47.3226 32.8573 47.6388 33.7729C47.8215 34.2942 47.7301 34.8858 47.9269 35.4C48.1236 35.9141 48.503 36.3297 48.6646 36.865C48.8122 37.365 48.7138 37.8792 48.8262 38.3722C48.9176 38.7948 49.2619 39.1118 49.4445 39.4992C49.9715 40.5979 49.8942 42.0136 50.091 43.1969C50.1823 43.7322 50.3791 44.2393 50.4774 44.7746C50.5969 45.4156 50.6039 46.0706 50.7163 46.7115C50.8077 47.2257 50.9763 47.7469 50.9974 48.2681C51.0185 48.7893 50.7163 49.3669 50.8006 49.874C50.885 50.3318 51.2433 50.7403 51.3346 51.2122C51.44 51.7264 51.3908 52.2687 51.3979 52.797C51.4119 53.3464 51.2503 53.945 51.2995 54.4874C51.3417 54.9734 51.7 55.3537 51.8335 55.8256C51.967 56.2975 51.9108 56.7553 51.7703 57.2061C51.6087 57.7273 51.5384 58.0654 51.5525 58.6218C51.5806 59.8826 51.6368 61.1504 51.707 62.4041C51.7422 62.9676 51.974 63.4676 52.0443 64.0241C52.1146 64.6298 52.0513 65.2637 52.0092 65.8694C51.953 66.6442 51.7211 67.3344 51.8335 68.1162C51.9178 68.6867 51.9459 69.2502 52.0513 69.8207C52.2691 71.0533 51.6016 71.9055 51.3909 73.0677C51.2714 73.7227 51.2573 74.3214 51.2011 74.9835C51.1449 75.7301 50.8498 76.3781 50.639 77.0824C50.2596 78.3854 48.229 77.829 48.6084 76.5189C48.7911 75.8921 49.0581 75.3216 49.1003 74.6665C49.1354 74.1453 49.1354 73.6452 49.2267 73.124C49.311 72.6451 49.3673 72.1239 49.5008 71.6661C49.6272 71.2294 49.9926 70.842 50.0137 70.3912C50.0277 69.9757 49.838 69.4756 49.8029 69.0389C49.7607 68.4614 49.6272 67.8768 49.6624 67.2992C49.7397 66.123 50.1542 64.9679 49.8169 63.7987C49.5429 62.8267 49.6062 61.8406 49.5429 60.8405C49.4797 59.7417 49.2338 58.4528 49.4867 57.3681C49.5921 56.9385 49.838 56.6286 49.6975 56.206C49.564 55.8045 49.304 55.4805 49.2267 55.0509C49.03 54.0084 49.4235 52.8956 49.2759 51.832C49.1494 50.8742 48.5522 50.2966 48.7279 49.2471C48.8333 48.6273 48.8543 48.2259 48.7349 47.606C48.6154 46.9862 48.5452 46.3523 48.4749 45.7184C48.3555 44.6408 48.0252 43.6054 47.8917 42.5208C47.8215 41.9362 47.7652 41.2811 47.6107 40.7106C47.4842 40.2317 47.1259 39.8725 46.9291 39.4217C46.7324 38.9709 46.7113 38.4779 46.6691 37.9778C46.627 37.4777 46.4583 37.1819 46.2194 36.7171C45.7346 35.7944 45.84 34.7661 45.299 33.8856C44.758 33.0052 44.2802 32.0896 43.8235 31.174C43.3667 30.2583 43.0435 29.1736 42.3831 28.3848C41.6383 27.4832 40.8794 26.5676 40.3173 25.5393C40.0222 24.997 39.6428 24.511 39.2212 24.0531C38.8699 23.6728 38.4553 23.4897 38.0337 23.1939C37.1484 22.574 36.3615 21.8979 35.6096 21.1231C34.7594 20.2427 33.9865 19.4609 32.9185 18.827C31.7522 18.1297 32.8131 16.3055 33.9795 17.0028L34.0006 16.9887Z" fill="#FFF0EB"/>
<path d="M2.71221 33.4913C3.44998 33.8224 4.17369 33.7801 4.76391 34.4281C5.00983 34.6957 5.13631 35.0127 5.3471 35.2944C5.58599 35.6114 5.86003 35.71 6.21135 35.9001C6.9702 36.3016 7.34962 36.8651 7.79228 37.5694C8.23494 38.2737 8.98676 38.6541 9.49266 39.3091C10.0829 40.0768 10.5185 40.7741 10.8979 41.6616C11.2774 42.549 11.8605 43.3027 12.2189 44.1901C12.4016 44.6409 12.5561 45.0917 12.8231 45.5072C13.055 45.8665 13.308 46.1834 13.4696 46.5919C13.6312 47.0004 13.6593 47.4019 13.7366 47.8245C13.8349 48.388 14.0176 48.9373 14.1582 49.4938C14.383 50.3671 14.6992 51.2476 15.0435 52.0787C15.4229 53.0084 15.6126 53.9029 15.7672 54.896C15.8304 55.3257 15.7883 55.7342 15.8023 56.1638C15.8234 56.6921 16.0061 57.1499 16.1326 57.657C16.3925 58.6994 16.5752 59.6643 16.6104 60.7349C16.6385 61.5872 17.053 62.376 17.2006 63.2212C17.3692 64.1862 17.6573 65.2708 17.6222 66.2569C17.6081 66.6232 17.4254 66.9894 17.4254 67.3486C17.4254 67.7924 17.7065 68.1727 17.8119 68.5953C17.9173 69.0179 17.9102 69.4757 17.8821 69.9265C17.847 70.5463 17.9243 71.0745 18.0086 71.6873C18.1632 72.772 18.2826 73.8496 18.3037 74.9484C18.3178 75.54 18.4723 76.0894 18.5215 76.674C18.5707 77.2093 18.4583 77.6882 18.3951 78.2165C18.3318 78.7447 18.1983 79.4209 18.2053 79.9632C18.2124 80.5056 18.5286 80.9352 18.5988 81.4564C18.7394 82.5693 18.3599 83.7525 18.2756 84.8654C18.1702 86.2107 16.0623 86.2247 16.1677 84.8654C16.238 83.9216 16.4839 82.9848 16.512 82.034C16.526 81.5691 16.3293 81.2733 16.2028 80.8225C16.0693 80.3436 16.0904 79.8857 16.1677 79.3927C16.3012 78.5264 16.4979 77.5121 16.3996 76.6388C16.2801 75.5893 16.252 74.5469 16.1326 73.4974C16.0342 72.6241 15.8515 71.7507 15.7672 70.8773C15.725 70.3984 15.8234 69.9265 15.7953 69.4546C15.7672 68.9827 15.5213 68.6023 15.4018 68.1445C15.177 67.2923 15.5705 66.5034 15.4651 65.6512C15.3456 64.7144 15.2543 63.679 14.9662 62.7775C14.6922 61.9253 14.5376 61.3195 14.5165 60.4109C14.4954 59.3544 14.0809 58.3261 13.8349 57.3048C13.6382 56.4737 13.7647 55.6496 13.6242 54.8185C13.4555 53.8325 13.1183 53.0366 12.8091 52.0998C12.528 51.2546 12.24 50.4235 12.0081 49.5642C11.7973 48.7613 11.7551 47.747 11.3406 47.0356C11.0947 46.6201 10.8206 46.282 10.6239 45.8312C10.4412 45.4086 10.3007 44.9649 10.0969 44.5494C9.71048 43.7535 9.21161 43.0491 8.86731 42.2251C8.48086 41.2883 7.83443 40.4572 7.04748 39.8374C6.71021 39.5697 6.42213 39.3021 6.16918 38.9429C5.95136 38.633 5.81787 38.2104 5.53681 37.9568C5.25576 37.7032 4.82012 37.5976 4.50394 37.3933C4.15965 37.175 3.88562 36.8933 3.65375 36.5552C3.42188 36.2171 3.34459 35.9142 2.96516 35.7522C2.54358 35.5761 2.08687 35.5128 1.65826 35.3226C0.421618 34.7662 1.49666 32.9419 2.71924 33.4984L2.71221 33.4913Z" fill="#FFF0EB"/>
<path d="M10.4693 22.4332C10.8769 22.7995 11.1649 23.3136 11.6497 23.5813C12.24 23.9053 12.7599 24.1025 13.2588 24.5814C14.1371 25.4266 14.9732 26.3 15.7672 27.2227C16.1536 27.6664 16.6385 27.8707 17.0952 28.2158C17.5941 28.5891 17.7697 29.0399 18.0929 29.5399C18.388 29.9978 18.922 30.1457 19.3436 30.4908C19.7933 30.857 20.3203 31.2374 20.7067 31.6741C21.0932 32.1108 21.3742 32.6883 21.7185 33.1884C22.1331 33.7871 22.5547 34.3858 22.9341 35.0056C23.5805 36.0691 24.5783 36.9777 24.7328 38.2596C24.8101 38.9005 25.0842 39.3795 25.3863 39.957C25.6463 40.4571 26.0679 40.6825 26.4262 41.1121C26.8126 41.584 26.911 42.1123 27.0024 42.7039C27.1148 43.4083 27.4591 44.0985 27.7893 44.7254C28.0633 45.2536 28.5271 45.6833 28.7027 46.2608C28.8784 46.8384 28.5973 47.3596 28.7238 47.8949C28.8292 48.3597 29.2578 48.9795 29.5037 49.3951C29.848 49.9726 30.1572 50.4798 30.4172 51.1066C30.9371 52.3674 31.2955 53.769 31.6046 55.1072C31.7381 55.6777 31.6679 56.2623 31.7452 56.8329C31.8506 57.5654 31.9138 58.2556 32.1316 58.9599C32.3143 59.5445 32.497 60.101 32.7148 60.6785C32.9326 61.2561 33.1996 61.8195 33.3823 62.3971C33.5861 63.0451 33.4315 63.6719 33.4596 64.334C33.4877 65.0454 33.6142 65.7638 33.6001 66.4752C33.5931 66.8133 33.5017 67.1866 33.579 67.5246C33.6352 67.7852 33.7969 68.0177 33.8882 68.2712C34.1201 68.9192 34.0428 69.4686 33.846 70.1095C33.6352 70.7927 33.9514 71.4196 34.0428 72.1239C34.1341 72.8283 34.3168 73.5044 34.1763 74.1876C34.113 74.4834 33.9304 74.7793 33.9022 75.0751C33.8671 75.4132 34.0568 75.7231 34.1411 76.0541C34.3027 76.7303 34.5416 77.5543 34.5416 78.2446C34.5416 78.8785 34.1411 79.3997 34.113 80.0054C34.0779 80.7591 34.3028 81.5056 34.4995 82.21C34.7314 83.0552 34.4995 83.5693 34.2957 84.3652C34.1201 85.0484 34.3519 85.9782 34.4011 86.6895C34.4573 87.4784 34.4995 88.1193 34.2255 88.873C33.9514 89.6266 34.2255 90.2112 34.2395 90.986C34.2606 92.3453 32.1527 92.3453 32.1316 90.986C32.1246 90.3943 31.8997 89.8379 31.9489 89.2392C32.0051 88.556 32.3986 88.0207 32.3564 87.3234C32.2651 85.9782 31.977 84.6963 32.4197 83.4003C32.6235 82.8016 32.2721 82.3015 32.1878 81.6958C32.0965 81.0408 31.9559 80.2731 32.0262 79.611C32.0754 79.125 32.4056 78.7094 32.4408 78.2375C32.4689 77.8995 32.2511 77.498 32.1948 77.1599C32.1386 76.8218 32.0965 76.5471 31.9981 76.2302C31.8224 75.6526 31.7241 75.1173 31.8716 74.5257C31.9349 74.2721 32.0754 74.0256 32.1176 73.765C32.1808 73.3776 32.0473 72.955 31.9981 72.5677C31.9208 71.9549 31.6749 71.3632 31.6398 70.7505C31.6046 70.1377 32.0262 69.5249 31.9208 68.9615C31.8084 68.3558 31.4781 67.8979 31.4781 67.2499C31.4781 66.5245 31.5063 65.8272 31.45 65.1017C31.4009 64.489 31.4992 63.841 31.436 63.2423C31.3728 62.6859 30.9933 62.0379 30.8106 61.4955C30.3891 60.2348 29.9324 59.0797 29.7848 57.7414C29.7216 57.1709 29.6443 56.6286 29.6302 56.051C29.6091 55.3608 29.2859 54.7058 29.1173 54.0437C28.9487 53.3816 28.8503 52.7125 28.5763 52.0575C28.3022 51.4025 27.965 50.9446 27.6488 50.36C27.4029 49.9093 27.164 49.4374 26.9391 48.9725C26.63 48.3456 26.6721 47.8878 26.7072 47.2187C26.7354 46.6412 26.2646 46.289 26.0046 45.796C25.6814 45.1761 25.3301 44.4789 25.1193 43.8097C24.9717 43.3449 25.049 42.7673 24.7539 42.3729C24.4096 41.9221 23.9599 41.6967 23.6789 41.1755C23.3838 40.6191 23.0114 40.0204 22.8287 39.4077C22.646 38.7949 22.7444 38.3159 22.3228 37.7877C21.5007 36.7523 20.8824 35.5902 20.1235 34.5125C19.7582 33.9913 19.4631 33.3363 18.9853 32.9137C18.5075 32.4911 17.9805 32.1037 17.4254 31.7656C16.8703 31.4276 16.5331 30.9909 16.2099 30.4133C15.8867 29.8358 15.3878 29.6738 14.8678 29.2582C13.8982 28.4905 13.1393 27.3847 12.24 26.5184C11.9519 26.2437 11.6989 25.9338 11.3546 25.7365C11.0876 25.5886 10.7785 25.5112 10.5115 25.3562C9.90019 25.004 9.52779 24.3983 9.02189 23.9335C8.0101 23.0178 9.50671 21.5317 10.5115 22.4403L10.4693 22.4332Z" fill="#B3E5E1"/>
<path d="M34.647 73.1383C34.647 73.6454 34.647 74.1525 34.6541 74.6596C34.6541 74.9554 34.6681 75.2724 34.5627 75.5541C34.3941 76.026 34.0709 76.3782 33.5861 76.5261C33.298 76.6177 32.9396 76.6106 32.6516 76.5191C32.2581 76.3852 31.963 76.1598 31.717 75.8218C31.5063 75.533 31.429 75.1597 31.4079 74.8075C31.3938 74.5187 31.45 74.2088 31.5273 73.9342C31.6889 73.3777 31.9349 72.8283 32.2581 72.3564C32.4478 72.0747 32.6867 71.8986 33.031 71.8493C33.3753 71.8 33.6563 71.9127 33.9163 72.1381C34.2957 72.4762 34.6119 72.9129 34.8087 73.3777C35.0686 73.9764 35.2513 74.6033 35.2092 75.2653C35.1881 75.5471 35.1038 75.8077 34.9 76.0119C34.7173 76.1951 34.4152 76.3359 34.1552 76.3218C33.8952 76.3078 33.6001 76.2232 33.4104 76.0119C33.2207 75.8006 33.0802 75.54 33.1012 75.2653C33.1153 75.0963 33.1012 74.9273 33.0872 74.7653L33.1223 75.047C33.0802 74.7582 33.0029 74.4835 32.8905 74.2159L32.9958 74.4694C32.8975 74.237 32.771 74.0116 32.6164 73.8074L32.778 74.0187C32.6726 73.8778 32.5532 73.751 32.4197 73.6383L34.0779 73.427C33.9093 73.6806 33.7617 73.9482 33.6423 74.23L33.7477 73.9764C33.6352 74.2511 33.5298 74.5328 33.4877 74.8287L33.5228 74.5469C33.5088 74.6667 33.5017 74.7934 33.5228 74.9132L33.4877 74.6314C33.5017 74.7089 33.5228 74.7864 33.5509 74.8639L33.4455 74.6103C33.4736 74.6596 33.4947 74.7089 33.5298 74.7582L33.3682 74.5469C33.4034 74.5821 33.4385 74.6174 33.4736 74.6526L33.2628 74.4906C33.312 74.5258 33.3612 74.554 33.4174 74.5821L33.1645 74.4765C33.2207 74.4976 33.2769 74.5117 33.3331 74.5258L33.0521 74.4906C33.1012 74.4906 33.1434 74.4906 33.1926 74.4906L32.9115 74.5258C32.9607 74.5258 33.0029 74.5117 33.045 74.4906L32.7921 74.5962C32.7921 74.5962 32.8553 74.561 32.8834 74.5399L32.6726 74.7019C32.6726 74.7019 32.7148 74.6667 32.7288 74.6455L32.5672 74.8568C32.5672 74.8568 32.6094 74.8005 32.6235 74.7653L32.5181 75.0188C32.5462 74.9554 32.5602 74.892 32.5672 74.8287L32.5321 75.1104C32.5672 74.7934 32.5321 74.4694 32.5321 74.1525C32.5321 73.8144 32.5321 73.4834 32.5321 73.1453C32.5321 72.8776 32.6516 72.5889 32.8413 72.3987C33.031 72.2085 33.3261 72.0747 33.5861 72.0888C34.1622 72.117 34.633 72.5537 34.64 73.1453L34.647 73.1383Z" fill="#B3E5E1"/>
<path d="M28.9557 19.5453C29.4335 20.4046 30.361 21.0455 31.0987 21.6653C31.977 22.4049 32.7499 23.2642 33.5228 24.1094C35.0546 25.7786 36.2491 27.8494 37.2257 29.8849C37.4716 30.3991 37.3662 31.0259 36.8463 31.3288C36.3826 31.5964 35.6518 31.4696 35.4059 30.9484C34.4503 28.9622 33.298 26.9267 31.7733 25.3208C31.0004 24.5108 30.2485 23.6938 29.3913 22.9754C28.5341 22.257 27.6699 21.5597 27.1429 20.6159C26.4824 19.4255 28.3022 18.362 28.9627 19.5523L28.9557 19.5453Z" fill="#B3E5E1"/>
<g opacity="0.08">
<path d="M40.4227 28.1103C43.156 27.9905 44.9126 30.1387 46.4584 32.0897C47.9058 33.914 49.2549 35.6748 50.2596 37.7878C51.2644 39.9008 50.8288 42.3448 48.749 43.5704C46.9151 44.648 43.957 44.1268 42.9803 42.0561C42.4323 40.9009 41.8139 39.767 41.041 38.7457C40.5913 38.154 40.1276 37.5554 39.6287 36.9989C39.439 36.7806 39.2353 36.5763 39.0385 36.365C38.9683 36.2876 38.3921 35.7804 38.7153 35.9706L40.8443 36.5482L40.4297 36.5693C38.1532 36.6679 36.2139 34.5549 36.2139 32.3433C36.2139 29.9767 38.1462 28.2159 40.4297 28.1173L40.4227 28.1103Z" fill="white"/>
</g>
<g opacity="0.08">
<path d="M48.3133 57.537C42.889 57.537 42.8819 49.085 48.3133 49.085C53.7447 49.085 53.7447 57.537 48.3133 57.537Z" fill="white"/>
</g>
</g>
<path d="M56.8855 43.9715C56.8503 43.4432 56.485 42.9361 56.4428 42.4079C56.4006 41.8796 56.4147 41.3443 56.3585 40.8161C56.3023 40.2878 56.0774 39.7877 55.9861 39.2665C55.8947 38.7453 56.218 38.1326 56.0845 37.6184C55.951 37.0901 55.5645 36.6323 55.3888 36.1252C55.2132 35.6181 54.7846 35.2166 54.5527 34.7236C54.3208 34.2306 54.2225 33.6953 53.9555 33.2234C53.6885 32.7515 53.309 32.3711 52.9999 31.9203C52.6907 31.4696 52.6345 30.8498 52.2902 30.4272C51.9459 30.0046 51.707 29.4833 51.3346 29.0889C50.9622 28.6945 50.5688 28.3001 50.1683 27.9338C49.7678 27.5676 49.023 27.6169 48.5944 27.2788C48.1657 26.9407 47.9128 26.3984 47.4631 26.0885C47.0134 25.7786 46.5146 25.5743 46.0508 25.2926C45.5871 25.0108 45.2358 24.5319 44.758 24.2783C44.2802 24.0248 43.7181 23.9402 43.2192 23.7219C42.7203 23.5036 42.1582 23.4824 41.6523 23.2923C41.1464 23.1021 40.6194 23.0176 40.0995 22.8626C39.5936 22.7147 39.165 22.3344 38.652 22.2076C38.1391 22.0808 37.577 22.2498 37.0641 22.1512C36.5512 22.0526 36.0945 21.6441 35.5745 21.5596C35.0545 21.4751 34.5627 21.1863 34.0428 21.1159C33.5228 21.0454 32.9747 21.2074 32.4548 21.1581C31.9348 21.1088 31.3868 21.306 30.8668 21.2567C30.3609 21.2145 29.855 21.2286 29.3491 21.1933C28.8432 21.1581 28.3514 20.982 27.8385 20.9539C27.3255 20.9257 26.8337 20.5031 26.3208 20.4961C25.8079 20.489 25.2949 20.5665 24.789 20.5806C24.2831 20.5947 23.7983 21.0666 23.2924 21.1159C22.7865 21.1652 22.2947 21.2427 21.7958 21.3131C21.2969 21.3835 20.7067 21.0173 20.2149 21.13C19.723 21.2426 19.3085 21.6864 18.8166 21.8343C18.2967 21.9963 17.7486 22.0667 17.2497 22.271C16.7509 22.4752 16.1958 22.595 15.718 22.8415C15.2402 23.088 14.7975 23.4261 14.3338 23.7149C13.8701 24.0036 13.589 24.5319 13.1534 24.8559C12.7177 25.1799 12.1275 25.2996 11.72 25.6518C11.3125 26.0039 11.1087 26.5815 10.7222 26.9618C10.3358 27.3422 9.65424 27.4478 9.2959 27.8563C8.93755 28.2649 8.61434 28.7156 8.2841 29.1453C7.95386 29.5749 7.66577 30.0468 7.35661 30.4976C7.04745 30.9484 7.02638 31.5752 6.74532 32.0401C6.46427 32.5049 5.79676 32.7585 5.54381 33.2374C5.29086 33.7164 5.45248 34.4066 5.23466 34.8997C5.01684 35.3927 4.89036 35.921 4.69363 36.4281C4.49689 36.9352 3.99098 37.3367 3.84343 37.8508C3.69588 38.365 3.40077 38.8792 3.29537 39.4074C3.18998 39.9357 3.18998 40.5062 3.11972 41.0415C3.04945 41.5767 3.02135 42.1332 2.97919 42.6755C2.93703 43.2178 3.00027 43.7672 2.97919 44.3096C2.95811 44.8519 2.92298 45.3942 2.9019 45.9366C2.88082 46.4789 3.05648 47.0283 3.04243 47.5706C3.02837 48.113 2.67706 48.6412 2.64895 49.1835C2.62085 49.7259 3.07756 50.2964 3.04243 50.8387C3.00729 51.3811 2.88785 51.9304 2.82461 52.4657C2.76137 53.001 2.41708 53.5082 2.32573 54.0434C2.23439 54.5787 2.04468 55.0859 1.91118 55.6141C1.77768 56.1424 1.74255 56.6917 1.55986 57.2059C1.39123 57.6778 1.08207 58.1075 0.934516 58.5723C0.772909 59.0653 0.983706 59.6429 0.885337 60.1007C0.772915 60.629 0.323225 61.1009 0.344304 61.5446C0.372409 62.0869 0.562116 62.6786 0.899382 63.0378C1.18746 63.3477 1.7566 63.4533 2.35384 63.5731C2.8738 63.6787 3.28835 63.9393 3.70291 64.1154C4.20178 64.3267 4.82712 64.2915 5.15033 64.5944C5.52976 64.9465 5.4876 65.5663 5.60002 66.0382C5.70542 66.4749 5.55786 66.8482 5.40328 67.3765C5.28384 67.792 5.45949 68.3837 5.17141 68.8556C4.87631 69.3275 4.68659 69.8205 4.4477 70.2502C4.16664 70.7432 3.60454 71.032 3.38672 71.4616C3.11972 71.9828 2.85272 72.4547 2.68408 72.8844C2.45924 73.4619 2.30465 73.9972 2.22736 74.4268C2.10792 75.103 2.59274 75.4904 2.79651 75.8496C3.04243 76.2933 3.28132 76.399 3.88559 76.4835C4.33527 76.5398 4.80605 76.6385 5.39626 76.5539C5.87405 76.4835 6.47832 76.7723 7.01935 76.6385C7.50417 76.5117 7.97493 76.2018 8.48786 76.0398C9.00078 75.8778 9.35913 75.3707 9.86503 75.2016C10.3709 75.0326 10.8979 74.9692 11.3827 74.8001C11.8675 74.6311 12.3594 74.3705 12.8442 74.2085C13.3712 74.0324 14.0176 74.3353 14.4884 74.2015C15.0575 74.0324 15.465 73.476 15.9077 73.4056C16.6384 73.2858 16.9757 73.6873 17.2006 73.9831C17.4957 74.3775 17.9805 74.6945 18.3458 75.103C18.7112 75.5115 19.2101 75.7228 19.6176 76.0468C20.0252 76.3708 20.517 76.4694 21.0018 76.6385C21.4866 76.8075 21.8871 77.0188 22.4282 76.9272C22.8849 76.8498 23.3978 76.8005 23.8967 76.4624C24.2831 76.2088 24.508 75.7087 24.9155 75.265C25.2949 74.8565 25.9695 74.8213 26.4894 74.617C27.0094 74.4128 27.4731 73.9902 28.0493 73.9479C28.5903 73.9127 29.1735 74.0536 29.7286 74.131C30.2836 74.2085 30.8317 74.3564 31.3517 74.5043C31.9067 74.6593 32.4056 74.934 32.8834 75.1453C33.3612 75.3566 33.7968 75.6453 34.2606 75.8355C34.7243 76.0257 35.2864 76.0539 35.7572 76.2159C36.249 76.3919 36.7057 76.6455 37.1835 76.7793C37.6894 76.9272 38.2375 76.8145 38.7223 76.9131C39.2493 77.0118 39.7201 77.2724 40.2049 77.3005C40.7389 77.3357 41.2167 77.0329 41.7015 76.9695C42.2214 76.8991 42.6922 76.892 43.1419 76.6807C43.5916 76.4694 44.1607 76.406 44.5401 76.0398C44.8844 75.7087 45.2217 75.2791 45.4957 74.8001C45.7276 74.3916 46.0368 73.9338 46.2054 73.4056C46.3529 72.9548 46.4443 72.4195 46.5427 71.8772C46.634 71.37 46.6832 70.8981 46.9853 70.4896C47.2874 70.0811 47.5966 69.6867 48.0322 69.3909C48.4398 69.1162 48.9386 68.9612 49.4164 68.764C49.8942 68.5668 50.4142 68.6584 50.9131 68.5457C51.4119 68.433 51.8686 68.2005 52.3605 68.1583C52.8875 68.116 53.4144 67.7498 53.8852 67.792C54.4333 67.8343 54.9181 68.2639 55.3748 68.2569C55.9369 68.2569 56.485 68.3132 56.9276 68.2287C57.4968 68.1231 57.8411 67.5737 58.2205 67.3413C58.6772 67.0595 59.169 66.8482 59.3728 66.3834C59.5485 65.9678 59.3096 65.4396 59.2955 64.869C59.2815 64.4183 59.2182 63.9675 59.0917 63.4181C58.9863 62.9673 59.1198 62.4109 58.9442 61.8968C58.7896 61.453 58.5929 60.9811 58.3891 60.4881C58.2064 60.0444 57.7848 59.6852 57.56 59.1992C57.3422 58.7343 57.4757 58.1286 57.3281 57.6426C57.1806 57.1566 56.6606 56.7481 56.5693 56.241C56.4779 55.7338 56.4147 55.2056 56.3725 54.6985C56.3304 54.1914 56.5693 53.6561 56.5552 53.1419C56.5412 52.6277 56.8293 52.1277 56.8363 51.6135C56.8433 51.0993 56.7801 50.5993 56.8011 50.0851C56.8222 49.5709 56.6817 49.0568 56.7028 48.5496C56.7239 48.0425 56.9276 47.5284 56.9417 47.0212C56.9557 46.5141 57.0541 45.9859 57.0471 45.4788C57.04 44.9716 56.9276 44.4434 56.8925 43.9363L56.8855 43.9715Z" stroke="black" stroke-miterlimit="10"/>
</g>
<defs>
<clipPath id="clip0_196_14945">
<rect width="109" height="92" fill="white" transform="matrix(-1 0 0 1 109 0)"/>
</clipPath>
</defs>
</svg>
