<svg width="206" height="105" viewBox="0 0 206 105" fill="none" xmlns="http://www.w3.org/2000/svg">
<path d="M53.7284 2.462C54.1724 2.462 54.4364 2.774 54.5204 3.398V7.79C58.0004 7.694 59.8484 7.598 60.0644 7.502C60.4604 7.502 60.7004 7.766 60.7844 8.294C60.7844 8.918 59.8484 9.23 57.9764 9.23C57.1964 9.278 55.9244 9.326 54.1604 9.374C53.3924 9.302 53.0084 8.966 53.0084 8.366V7.718C53.0084 6.53 52.9844 4.994 52.9364 3.11C53.0924 2.678 53.3564 2.462 53.7284 2.462ZM62.2964 1.4C62.5964 1.4 62.8364 1.616 63.0164 2.048C63.0644 3.224 63.0884 4.16 63.0884 4.856V4.928H64.6724C65.1404 4.928 65.4044 5.216 65.4644 5.792C65.2964 6.224 65.0564 6.44 64.7444 6.44H63.0164V6.512C63.0164 6.8 63.0404 6.944 63.0884 6.944L63.0164 7.664V9.176C63.0164 9.284 63.0404 9.38 63.0884 9.464C62.9564 10.04 62.6684 10.328 62.2244 10.328C61.7444 10.196 61.5044 9.932 61.5044 9.536V3.992C61.5044 3.512 61.4804 2.936 61.4324 2.264C61.5644 1.688 61.8524 1.4 62.2964 1.4ZM54.9164 10.652H55.8524C57.4244 10.652 59.6084 10.676 62.4044 10.724C62.9804 10.724 63.2684 11.864 63.2684 14.144C63.3164 14.144 63.3404 14.408 63.3404 14.936C63.3404 16.088 63.0284 16.664 62.4044 16.664H60.9644C59.7884 16.664 58.7804 16.688 57.9404 16.736C57.4484 16.688 56.5844 16.664 55.3484 16.664C54.4364 16.664 53.9804 16.376 53.9804 15.8V15.152C53.9804 14.9 53.9564 14.684 53.9084 14.504C53.9564 14.252 53.9804 13.712 53.9804 12.884V11.588C54.1364 10.964 54.4484 10.652 54.9164 10.652ZM55.5644 12.236C55.5164 13.628 55.4924 14.528 55.4924 14.936L55.5644 15.08C55.9004 15.08 56.5484 15.104 57.5084 15.152C59.6804 15.104 61.0964 15.08 61.7564 15.08V15.008C61.7564 14.396 61.7084 13.496 61.6124 12.308C61.1564 12.308 59.6444 12.26 57.0764 12.164C56.3564 12.212 55.8524 12.236 55.5644 12.236ZM72.6686 1.076C75.7886 1.088 77.5886 1.856 78.0686 3.38C78.1166 3.644 78.1406 3.86 78.1406 4.028C78.1406 5.54 76.7246 6.476 73.8926 6.836H73.6046C70.1006 6.836 68.3486 5.924 68.3486 4.1C68.3486 2.696 69.3806 1.736 71.4446 1.22C72.0686 1.124 72.4766 1.076 72.6686 1.076ZM69.9326 4.028V4.1C69.9326 4.868 71.2286 5.252 73.8206 5.252C74.9846 5.252 75.9206 4.868 76.6286 4.1V4.028C76.6286 3.356 75.6686 2.9 73.7486 2.66C73.7006 2.66 73.6766 2.684 73.6766 2.732C73.3166 2.684 73.0766 2.636 72.9566 2.588C70.9406 2.828 69.9326 3.308 69.9326 4.028ZM67.6466 7.574C68.3666 7.622 68.8946 7.646 69.2306 7.646H70.4546C72.4586 7.646 75.1946 7.67 78.6626 7.718C79.0946 7.886 79.3106 8.126 79.3106 8.438V8.582C79.2026 9.062 78.9626 9.302 78.5906 9.302C76.4666 9.254 74.8106 9.23 73.6226 9.23H70.1666C70.1186 9.23 70.0946 9.206 70.0946 9.158C70.0466 9.158 70.0226 9.182 70.0226 9.23L69.6626 9.158H67.5746C67.2626 9.158 67.0226 8.99 66.8546 8.654V8.366C66.8546 8.006 67.1186 7.742 67.6466 7.574ZM69.2486 10.724C69.8246 10.724 70.1126 11.804 70.1126 13.964V14.756H73.9286C74.7926 14.756 75.9686 14.732 77.4566 14.684C77.9366 14.816 78.1766 15.056 78.1766 15.404V15.548C78.1766 15.872 77.9606 16.112 77.5286 16.268C75.4646 16.316 73.8806 16.34 72.7766 16.34H69.4646C68.8406 16.34 68.5286 15.836 68.5286 14.828C68.5286 13.388 68.5046 12.236 68.4566 11.372C68.6126 10.94 68.8766 10.724 69.2486 10.724ZM92.1169 1.922H92.2609C92.6809 1.922 92.9209 2.234 92.9809 2.858V3.506C93.1369 3.506 93.5449 3.53 94.2049 3.578C94.3849 3.578 95.0569 3.554 96.2209 3.506C97.0849 3.506 97.5169 3.746 97.5169 4.226V4.442C97.5169 4.874 97.2529 5.09 96.7249 5.09H92.9809V5.162C92.9809 6.122 93.7009 7.13 95.1409 8.186C96.9169 8.882 97.8049 9.362 97.8049 9.626C97.8049 9.65 97.8289 9.746 97.8769 9.914C97.7569 10.394 97.4929 10.634 97.0849 10.634C95.4649 10.202 94.1449 9.506 93.1249 8.546C92.5249 8.006 92.2129 7.622 92.1889 7.394C91.0609 8.906 89.4049 9.986 87.2209 10.634C86.8249 10.634 86.5849 10.346 86.5009 9.77C86.5009 9.398 87.2689 8.918 88.8049 8.33C90.4849 7.226 91.3249 6.194 91.3249 5.234V5.09C91.0129 5.09 89.7649 5.114 87.5809 5.162C87.2329 5.162 87.0169 4.874 86.9329 4.298V4.226C87.1249 3.794 87.4609 3.578 87.9409 3.578H88.7329C89.2969 3.578 90.1849 3.554 91.3969 3.506V2.786C91.4449 2.21 91.6849 1.922 92.1169 1.922ZM92.2249 9.86C92.7049 9.98 92.9449 10.244 92.9449 10.652L92.9629 13.262H96.2029C96.4789 13.262 96.8629 13.286 97.3549 13.334C97.4389 13.286 97.5589 13.262 97.7149 13.262C98.1949 13.394 98.4349 13.634 98.4349 13.982V14.126C98.3269 14.606 98.0869 14.846 97.7149 14.846C92.0749 14.798 88.4029 14.774 86.6989 14.774C86.0269 14.774 85.6909 14.534 85.6909 14.054V13.91C85.6909 13.526 85.9549 13.286 86.4829 13.19H91.3789C91.3789 13.094 91.3849 12.638 91.3969 11.822C91.3729 11.186 91.3609 10.796 91.3609 10.652C91.3609 10.256 91.6489 9.992 92.2249 9.86ZM109.972 0.985999C110.512 0.985999 110.872 1.418 111.052 2.282C110.908 4.874 110.836 6.434 110.836 6.962C110.836 7.358 110.572 7.598 110.044 7.682C109.66 7.682 109.42 7.418 109.324 6.89V5.306C105.748 5.354 103.396 5.402 102.268 5.45C101.86 5.45 101.596 5.162 101.476 4.586C101.476 4.25 101.716 4.01 102.196 3.866C103.768 3.818 104.992 3.794 105.868 3.794H109.324C109.42 3.794 109.468 3.746 109.468 3.65V2.57H104.572C104.272 2.57 103.912 2.594 103.492 2.642C102.244 2.642 101.62 2.402 101.62 1.922V1.562C101.788 1.226 102.028 1.058 102.34 1.058C104.236 1.058 106.78 1.034 109.972 0.985999ZM106.084 5.594H106.444C106.78 5.786 106.948 6.074 106.948 6.458V7.682H107.524C108.244 7.682 109.42 7.73 111.052 7.826L111.772 7.754C112.204 7.898 112.42 8.138 112.42 8.474V8.618C112.312 9.098 112.072 9.338 111.7 9.338C111.232 9.338 108.736 9.29 104.212 9.194C102.292 9.242 101.188 9.266 100.9 9.266C100.18 9.182 99.82 8.918 99.82 8.474V8.402C99.916 7.922 100.156 7.682 100.54 7.682C101.416 7.682 103.048 7.658 105.436 7.61L105.364 7.466V6.89C105.364 6.026 105.604 5.594 106.084 5.594ZM102.034 10.13H106.858C109.354 10.13 110.602 10.25 110.602 10.49C110.746 10.862 110.818 11.462 110.818 12.29C110.818 13.442 110.314 14.018 109.306 14.018C108.13 14.066 105.97 14.114 102.826 14.162V14.99H106.066C106.906 14.99 107.77 15.014 108.658 15.062C108.874 15.014 109.402 14.99 110.242 14.99C110.698 14.99 110.938 15.302 110.962 15.926C110.818 16.358 110.506 16.574 110.026 16.574H102.178C101.554 16.466 101.242 16.226 101.242 15.854L101.314 15.35V15.206C101.314 14.978 101.29 14.678 101.242 14.306C101.242 13.154 101.65 12.578 102.466 12.578C102.658 12.578 102.754 12.602 102.754 12.65C102.802 12.65 102.994 12.626 103.33 12.578C106.378 12.53 108.178 12.506 108.73 12.506L109.234 12.434V11.714C107.014 11.666 105.286 11.642 104.05 11.642H102.25C102.142 11.642 102.046 11.666 101.962 11.714C101.638 11.714 101.374 11.522 101.17 11.138V10.85C101.17 10.418 101.458 10.178 102.034 10.13ZM118.993 2.21C119.713 2.342 120.073 2.678 120.073 3.218C120.073 5.33 119.857 6.386 119.425 6.386C119.425 6.494 119.233 6.59 118.849 6.674C117.433 6.722 116.281 6.746 115.393 6.746V8.15H115.537C116.497 8.15 118.003 8.132 120.055 8.096C120.439 8.3 120.631 8.54 120.631 8.816C120.631 9.392 120.007 9.68 118.759 9.68C117.571 9.716 116.257 9.734 114.817 9.734C114.193 9.614 113.881 9.35 113.881 8.942C113.833 7.37 113.809 6.302 113.809 5.738C113.953 5.354 114.241 5.162 114.673 5.162H117.337C117.577 5.162 117.937 5.138 118.417 5.09V5.018C118.465 4.274 118.489 3.866 118.489 3.794H118.417C117.889 3.842 117.433 3.866 117.049 3.866H114.745C114.169 3.818 113.881 3.578 113.881 3.146V3.002C113.881 2.57 114.169 2.33 114.745 2.282H117.985C118.249 2.282 118.585 2.258 118.993 2.21ZM123.835 1.418H123.979C124.399 1.418 124.639 1.73 124.699 2.354V4.37C124.699 5.57 124.723 7.274 124.771 9.482C124.687 9.698 124.519 9.89 124.267 10.058H123.763C123.331 10.058 123.115 8.954 123.115 6.746V5.45L123.187 5.018C123.139 4.706 123.115 4.394 123.115 4.082V2.282C123.163 1.706 123.403 1.418 123.835 1.418ZM119.965 10.454C120.457 10.454 120.769 10.904 120.901 11.804C121.369 13.076 122.473 14.126 124.213 14.954C124.981 15.062 125.365 15.386 125.365 15.926C125.245 16.43 124.981 16.682 124.573 16.682C123.601 16.682 122.257 15.878 120.541 14.27C120.157 13.79 119.965 13.49 119.965 13.37H119.893C119.125 14.726 117.709 15.806 115.645 16.61C115.573 16.658 115.429 16.682 115.213 16.682C114.889 16.682 114.673 16.43 114.565 15.926V15.854C114.565 15.386 115.117 14.984 116.221 14.648C117.757 13.676 118.693 12.704 119.029 11.732C119.197 10.88 119.509 10.454 119.965 10.454ZM129.136 1.112H137.128C137.608 1.208 137.848 1.448 137.848 1.832V1.904C137.848 2.432 137.392 2.696 136.48 2.696L135.976 2.624C135.832 2.624 135.76 2.648 135.76 2.696C135.196 2.648 134.788 2.624 134.536 2.624H132.376C131.824 2.624 130.984 2.648 129.856 2.696C129.904 2.792 129.928 2.864 129.928 2.912C129.928 3.128 129.952 3.68 130 4.568L130.144 4.64H130.792C131.26 4.64 131.5 4.664 131.512 4.712C131.92 4.664 132.256 4.64 132.52 4.64H137.128C137.704 4.688 137.992 4.928 137.992 5.36V5.432C137.992 5.96 137.416 6.224 136.264 6.224H129.928C128.968 6.224 128.488 5.768 128.488 4.856C128.344 3.116 128.272 2.156 128.272 1.976C128.476 1.4 128.764 1.112 129.136 1.112ZM127.552 7.574C128.272 7.622 128.8 7.646 129.136 7.646H130.36C132.364 7.646 135.1 7.67 138.568 7.718C139 7.886 139.216 8.126 139.216 8.438V8.582C139.108 9.062 138.868 9.302 138.496 9.302C136.372 9.254 134.716 9.23 133.528 9.23H130.072C130.024 9.23 130 9.206 130 9.158C129.952 9.158 129.928 9.182 129.928 9.23L129.568 9.158H127.48C127.168 9.158 126.928 8.99 126.76 8.654V8.366C126.76 8.006 127.024 7.742 127.552 7.574ZM129.046 10.13H133.87C136.366 10.13 137.614 10.25 137.614 10.49C137.758 10.862 137.83 11.462 137.83 12.29C137.83 13.442 137.326 14.018 136.318 14.018C135.142 14.066 132.982 14.114 129.838 14.162V14.99H133.078C133.918 14.99 134.782 15.014 135.67 15.062C135.886 15.014 136.414 14.99 137.254 14.99C137.71 14.99 137.95 15.302 137.974 15.926C137.83 16.358 137.518 16.574 137.038 16.574H129.19C128.566 16.466 128.254 16.226 128.254 15.854L128.326 15.35V15.206C128.326 14.978 128.302 14.678 128.254 14.306C128.254 13.154 128.662 12.578 129.478 12.578C129.67 12.578 129.766 12.602 129.766 12.65C129.814 12.65 130.006 12.626 130.342 12.578C133.39 12.53 135.19 12.506 135.742 12.506L136.246 12.434V11.714C134.026 11.666 132.298 11.642 131.062 11.642H129.262C129.154 11.642 129.058 11.666 128.974 11.714C128.65 11.714 128.386 11.522 128.182 11.138V10.85C128.182 10.418 128.47 10.178 129.046 10.13ZM146.422 1.076C149.542 1.088 151.342 1.856 151.822 3.38C151.87 3.644 151.894 3.86 151.894 4.028C151.894 5.54 150.478 6.476 147.646 6.836H147.358C143.854 6.836 142.102 5.924 142.102 4.1C142.102 2.696 143.134 1.736 145.198 1.22C145.822 1.124 146.23 1.076 146.422 1.076ZM143.686 4.028V4.1C143.686 4.868 144.982 5.252 147.574 5.252C148.738 5.252 149.674 4.868 150.382 4.1V4.028C150.382 3.356 149.422 2.9 147.502 2.66C147.454 2.66 147.43 2.684 147.43 2.732C147.07 2.684 146.83 2.636 146.71 2.588C144.694 2.828 143.686 3.308 143.686 4.028ZM141.4 7.574C142.12 7.622 142.648 7.646 142.984 7.646H144.208C146.212 7.646 148.948 7.67 152.416 7.718C152.848 7.886 153.064 8.126 153.064 8.438V8.582C152.956 9.062 152.716 9.302 152.344 9.302C150.22 9.254 148.564 9.23 147.376 9.23H143.92C143.872 9.23 143.848 9.206 143.848 9.158C143.8 9.158 143.776 9.182 143.776 9.23L143.416 9.158H141.328C141.016 9.158 140.776 8.99 140.608 8.654V8.366C140.608 8.006 140.872 7.742 141.4 7.574ZM143.002 10.724C143.578 10.724 143.866 11.804 143.866 13.964V14.756H147.682C148.546 14.756 149.722 14.732 151.21 14.684C151.69 14.816 151.93 15.056 151.93 15.404V15.548C151.93 15.872 151.714 16.112 151.282 16.268C149.218 16.316 147.634 16.34 146.53 16.34H143.218C142.594 16.34 142.282 15.836 142.282 14.828C142.282 13.388 142.258 12.236 142.21 11.372C142.366 10.94 142.63 10.724 143.002 10.724ZM10.2609 24.588C11.6529 24.588 12.6849 25.596 13.3569 27.612C13.5489 28.596 13.6449 29.22 13.6449 29.484V30.42C13.6449 32.472 12.7569 33.864 10.9809 34.596C10.5609 34.644 10.2009 34.668 9.9009 34.668C8.5089 34.668 7.4529 33.54 6.7329 31.284C6.6369 30.66 6.5889 30.204 6.5889 29.916C6.5889 27.132 7.5489 25.38 9.4689 24.66C9.5769 24.66 9.8409 24.636 10.2609 24.588ZM8.1729 29.988V30.06C8.1729 31.524 8.7249 32.532 9.8289 33.084H10.0449C11.4369 33.084 12.1329 32.028 12.1329 29.916C11.8329 27.708 11.4729 26.604 11.0529 26.604C10.8609 26.316 10.5729 26.172 10.1889 26.172H9.9729C8.9889 26.46 8.4129 27.372 8.2449 28.908C8.1969 29.112 8.1729 29.472 8.1729 29.988ZM17.8029 23.22C18.0909 23.22 18.3549 23.436 18.5949 23.868L18.5229 25.02C18.5229 25.62 18.5469 26.364 18.5949 27.252C18.5469 27.672 18.5229 27.936 18.5229 28.044C18.5709 28.548 18.5949 29.1 18.5949 29.7C18.5949 29.724 18.5709 29.82 18.5229 29.988C18.5229 30.036 18.5469 30.06 18.5949 30.06C18.5469 30.72 18.5229 31.128 18.5229 31.284C18.5229 31.932 18.4989 33.66 18.4509 36.468L18.5229 36.972C18.5229 37.356 18.2349 37.62 17.6589 37.764C17.1789 37.632 16.9389 37.368 16.9389 36.972V33.804C16.9389 33.468 16.9629 32.94 17.0109 32.22C16.6389 32.22 15.9669 32.196 14.9949 32.148C14.5749 32.196 14.3109 32.22 14.2029 32.22C13.7949 32.22 13.5309 31.932 13.4109 31.356C13.4109 30.828 14.0109 30.564 15.2109 30.564C15.4629 30.612 15.7029 30.636 15.9309 30.636H17.0109V28.044H14.2749C13.6989 27.996 13.4109 27.756 13.4109 27.324V27.18C13.4109 26.7 13.7949 26.46 14.5629 26.46H17.0109L16.9389 25.452C16.9389 24.012 17.1549 23.292 17.5869 23.292C17.6349 23.292 17.7069 23.268 17.8029 23.22ZM21.1317 24.354H21.4917C22.4397 24.354 23.8557 24.378 25.7397 24.426C26.1717 24.57 26.3877 24.882 26.3877 25.362V29.034C26.3877 29.562 26.0517 29.922 25.3797 30.114C23.0997 30.162 21.8037 30.186 21.4917 30.186V30.258C21.5397 30.342 21.5637 30.438 21.5637 30.546V32.85L21.7077 33.066C22.2237 33.066 24.0717 32.97 27.2517 32.778C27.6837 32.922 27.8997 33.21 27.8997 33.642C27.8997 34.218 26.9637 34.506 25.0917 34.506C23.8077 34.554 22.6557 34.578 21.6357 34.578H21.0597C20.3877 34.578 20.0517 34.026 20.0517 32.922C20.0037 31.854 19.9797 30.75 19.9797 29.61C20.1117 28.938 20.4477 28.602 20.9877 28.602H24.8757V27.018C24.8757 26.778 24.8517 26.418 24.8037 25.938H20.8437C20.4597 25.938 20.1717 25.77 19.9797 25.434V25.074C19.9797 24.594 20.3637 24.354 21.1317 24.354ZM31.0137 23.202C31.3257 23.202 31.5897 23.394 31.8057 23.778C31.8537 25.518 31.8777 26.766 31.8777 27.522V36.954C31.8777 37.578 31.5897 37.89 31.0137 37.89C30.5337 37.782 30.2937 37.47 30.2937 36.954V30.33H30.2217C28.2057 30.33 27.1977 30.186 27.1977 29.898L27.1257 29.538V29.466C27.2217 28.938 27.4857 28.674 27.9177 28.674C28.7697 28.722 29.4897 28.746 30.0777 28.746H30.2937V26.01C30.2937 25.566 30.2697 24.942 30.2217 24.138C30.3537 23.514 30.6177 23.202 31.0137 23.202ZM35.5511 22.86C35.9831 23.004 36.1991 23.244 36.1991 23.58V24.444L36.5591 24.516H41.0231C41.3591 24.516 41.8871 24.492 42.6071 24.444V24.372C42.6071 24.264 42.5831 24 42.5351 23.58C42.5351 23.232 42.7991 22.992 43.3271 22.86C43.9031 22.86 44.1911 23.628 44.1911 25.164V26.964C44.1911 27.876 43.8551 28.332 43.1831 28.332C42.3071 28.332 41.0831 28.308 39.5111 28.26C38.4431 28.308 37.8671 28.332 37.7831 28.332C37.1471 28.284 36.4511 28.26 35.6951 28.26C35.0231 28.26 34.6871 27.828 34.6871 26.964V25.956C34.6871 25.5 34.6631 24.948 34.6151 24.3C34.6151 23.34 34.9271 22.86 35.5511 22.86ZM36.2711 26.028V26.748H42.6071V26.028C40.3991 26.076 38.7191 26.1 37.5671 26.1H37.1351L36.2711 26.028ZM34.0571 29.412C35.1611 29.412 37.1531 29.436 40.0331 29.484C41.7731 29.436 43.0211 29.412 43.7771 29.412V29.484L43.9211 29.412C45.2651 29.412 45.9371 29.652 45.9371 30.132V30.348C45.8291 30.828 45.5891 31.068 45.2171 31.068C44.5691 31.02 44.0891 30.996 43.7771 30.996H42.1931C41.7851 30.996 41.1371 31.02 40.2491 31.068V32.292C40.2011 32.868 39.9371 33.156 39.4571 33.156C38.9291 33.156 38.6651 32.676 38.6651 31.716V31.068C38.1011 31.02 37.6931 30.996 37.4411 30.996H34.4171C33.6491 30.996 33.2651 30.756 33.2651 30.276V30.132C33.2651 29.736 33.5291 29.496 34.0571 29.412ZM35.4071 32.724C35.9831 32.724 36.2711 33.804 36.2711 35.964V36.756H40.0871C40.9511 36.756 42.1271 36.732 43.6151 36.684C44.0951 36.816 44.3351 37.056 44.3351 37.404V37.548C44.3351 37.872 44.1191 38.112 43.6871 38.268C41.6231 38.316 40.0391 38.34 38.9351 38.34H35.6231C34.9991 38.34 34.6871 37.836 34.6871 36.828C34.6871 35.388 34.6631 34.236 34.6151 33.372C34.7711 32.94 35.0351 32.724 35.4071 32.724ZM49.6999 23.112H57.6919C58.1719 23.208 58.4119 23.448 58.4119 23.832V23.904C58.4119 24.432 57.9559 24.696 57.0439 24.696L56.5399 24.624C56.3959 24.624 56.3239 24.648 56.3239 24.696C55.7599 24.648 55.3519 24.624 55.0999 24.624H52.9399C52.3879 24.624 51.5479 24.648 50.4199 24.696C50.4679 24.792 50.4919 24.864 50.4919 24.912C50.4919 25.128 50.5159 25.68 50.5639 26.568L50.7079 26.64H51.3559C51.8239 26.64 52.0639 26.664 52.0759 26.712C52.4839 26.664 52.8199 26.64 53.0839 26.64H57.6919C58.2679 26.688 58.5559 26.928 58.5559 27.36V27.432C58.5559 27.96 57.9799 28.224 56.8279 28.224H50.4919C49.5319 28.224 49.0519 27.768 49.0519 26.856C48.9079 25.116 48.8359 24.156 48.8359 23.976C49.0399 23.4 49.3279 23.112 49.6999 23.112ZM48.1159 29.574C48.8359 29.622 49.3639 29.646 49.6999 29.646H50.9239C52.9279 29.646 55.6639 29.67 59.1319 29.718C59.5639 29.886 59.7799 30.126 59.7799 30.438V30.582C59.6719 31.062 59.4319 31.302 59.0599 31.302C56.9359 31.254 55.2799 31.23 54.0919 31.23H50.6359C50.5879 31.23 50.5639 31.206 50.5639 31.158C50.5159 31.158 50.4919 31.182 50.4919 31.23L50.1319 31.158H48.0439C47.7319 31.158 47.4919 30.99 47.3239 30.654V30.366C47.3239 30.006 47.5879 29.742 48.1159 29.574ZM49.6099 32.13H54.4339C56.9299 32.13 58.1779 32.25 58.1779 32.49C58.3219 32.862 58.3939 33.462 58.3939 34.29C58.3939 35.442 57.8899 36.018 56.8819 36.018C55.7059 36.066 53.5459 36.114 50.4019 36.162V36.99H53.6419C54.4819 36.99 55.3459 37.014 56.2339 37.062C56.4499 37.014 56.9779 36.99 57.8179 36.99C58.2739 36.99 58.5139 37.302 58.5379 37.926C58.3939 38.358 58.0819 38.574 57.6019 38.574H49.7539C49.1299 38.466 48.8179 38.226 48.8179 37.854L48.8899 37.35V37.206C48.8899 36.978 48.8659 36.678 48.8179 36.306C48.8179 35.154 49.2259 34.578 50.0419 34.578C50.2339 34.578 50.3299 34.602 50.3299 34.65C50.3779 34.65 50.5699 34.626 50.9059 34.578C53.9539 34.53 55.7539 34.506 56.3059 34.506L56.8099 34.434V33.714C54.5899 33.666 52.8619 33.642 51.6259 33.642H49.8259C49.7179 33.642 49.6219 33.666 49.5379 33.714C49.2139 33.714 48.9499 33.522 48.7459 33.138V32.85C48.7459 32.418 49.0339 32.178 49.6099 32.13ZM65.2217 24.786H66.0317C67.1957 24.786 68.1737 25.626 68.9657 27.306C69.0617 27.666 69.1097 28.002 69.1097 28.314V28.674C69.1097 29.466 68.6297 30.258 67.6697 31.05C67.0577 31.482 66.3977 31.698 65.6897 31.698H65.6357C63.6917 31.698 62.4617 30.762 61.9457 28.89V28.314C61.9457 26.61 62.8097 25.458 64.5377 24.858C64.7777 24.81 65.0057 24.786 65.2217 24.786ZM63.4217 28.386C63.4217 29.226 64.0097 29.802 65.1857 30.114H65.9417C66.7817 30.114 67.3697 29.562 67.7057 28.458C67.7057 27.618 67.2077 26.922 66.2117 26.37C66.0317 26.322 65.8517 26.298 65.6717 26.298C64.2557 26.442 63.5477 26.97 63.5477 27.882C63.4877 27.882 63.4457 28.05 63.4217 28.386ZM72.0437 23.328H72.1157C72.5957 23.388 72.8357 23.628 72.8357 24.048V27.792C72.8357 28.392 72.8597 28.944 72.9077 29.448C72.8597 29.724 72.8357 30.108 72.8357 30.6C72.8357 31.464 72.8597 32.304 72.9077 33.12C72.8597 33.972 72.8357 35.052 72.8357 36.36C72.8357 37.32 72.5717 37.8 72.0437 37.8H71.9717C71.5397 37.8 71.2997 37.512 71.2517 36.936C71.2517 35.688 71.2757 34.272 71.3237 32.688C71.2757 31.728 71.2517 31.08 71.2517 30.744C71.2517 30.468 71.2757 30.084 71.3237 29.592C71.2757 28.524 71.2517 27.42 71.2517 26.28V24.336C71.3237 23.664 71.5877 23.328 72.0437 23.328ZM70.4597 32.616C70.8917 32.76 71.1077 33 71.1077 33.336V33.408C71.1077 34.032 70.2917 34.344 68.6597 34.344L61.8917 34.704C61.4117 34.596 61.1717 34.356 61.1717 33.984V33.84C61.1717 33.42 61.4837 33.18 62.1077 33.12C62.8997 33.12 65.6837 32.952 70.4597 32.616ZM82.9594 24.588C84.3514 24.588 85.3834 25.596 86.0554 27.612C86.2474 28.596 86.3434 29.22 86.3434 29.484V30.42C86.3434 32.472 85.4554 33.864 83.6794 34.596C83.2594 34.644 82.8994 34.668 82.5994 34.668C81.2074 34.668 80.1514 33.54 79.4314 31.284C79.3354 30.66 79.2874 30.204 79.2874 29.916C79.2874 27.132 80.2474 25.38 82.1674 24.66C82.2754 24.66 82.5394 24.636 82.9594 24.588ZM80.8714 29.988V30.06C80.8714 31.524 81.4234 32.532 82.5274 33.084H82.7434C84.1354 33.084 84.8314 32.028 84.8314 29.916C84.5314 27.708 84.1714 26.604 83.7514 26.604C83.5594 26.316 83.2714 26.172 82.8874 26.172H82.6714C81.6874 26.46 81.1114 27.372 80.9434 28.908C80.8954 29.112 80.8714 29.472 80.8714 29.988ZM89.7994 23.004C90.2794 23.004 90.5194 23.532 90.5194 24.588C90.5674 25.188 90.5914 25.5 90.5914 25.524C90.4954 28.524 90.4474 30.54 90.4474 31.572C90.4954 33.672 90.5434 34.824 90.5914 35.028C90.5434 35.208 90.5194 35.424 90.5194 35.676V35.82C90.5194 36.024 90.5434 36.288 90.5914 36.612C90.5914 37.02 90.3034 37.284 89.7274 37.404C89.3314 37.404 89.0914 37.116 89.0074 36.54C89.0074 35.4 88.9594 33.576 88.8634 31.068C88.9594 28.584 89.0074 26.616 89.0074 25.164C89.0074 25.032 88.9834 24.552 88.9354 23.724C88.9354 23.328 89.2234 23.088 89.7994 23.004ZM95.6471 24.588C97.0391 24.588 98.0711 25.596 98.7431 27.612C98.9351 28.596 99.0311 29.22 99.0311 29.484V30.42C99.0311 32.472 98.1431 33.864 96.3671 34.596C95.9471 34.644 95.5871 34.668 95.2871 34.668C93.8951 34.668 92.8391 33.54 92.1191 31.284C92.0231 30.66 91.9751 30.204 91.9751 29.916C91.9751 27.132 92.9351 25.38 94.8551 24.66C94.9631 24.66 95.2271 24.636 95.6471 24.588ZM93.5591 29.988V30.06C93.5591 31.524 94.1111 32.532 95.2151 33.084H95.4311C96.8231 33.084 97.5191 32.028 97.5191 29.916C97.2191 27.708 96.8591 26.604 96.4391 26.604C96.2471 26.316 95.9591 26.172 95.5751 26.172H95.3591C94.3751 26.46 93.7991 27.372 93.6311 28.908C93.5831 29.112 93.5591 29.472 93.5591 29.988ZM101.839 23.076H102.199C102.571 23.076 102.787 23.316 102.847 23.796V26.604H102.919C103.147 26.604 103.387 26.628 103.639 26.676C103.903 26.628 104.095 26.604 104.215 26.604C104.887 26.688 105.223 26.952 105.223 27.396V27.468C105.223 27.9 104.935 28.14 104.359 28.188H102.847V28.26C102.847 28.668 102.823 29.436 102.775 30.564H103.423C104.623 30.564 105.223 30.828 105.223 31.356V31.428C105.223 31.74 105.055 31.98 104.719 32.148H102.775V36.612C102.727 37.236 102.415 37.548 101.839 37.548C101.407 37.392 101.191 37.128 101.191 36.756V36.396C101.191 36.06 101.215 35.892 101.263 35.892C101.263 35.832 101.239 35.592 101.191 35.172C101.239 29.208 101.263 25.608 101.263 24.372C101.263 23.7 101.455 23.268 101.839 23.076ZM107.766 24.678H112.662C113.19 24.762 113.454 25.026 113.454 25.47V25.686C113.454 27.222 112.758 29.142 111.366 31.446C109.53 33.702 108.282 34.83 107.622 34.83C107.298 34.746 107.082 34.578 106.974 34.326V33.966C106.974 33.702 107.574 33.078 108.774 32.094C110.502 30.162 111.462 28.434 111.654 26.91C111.75 26.55 111.798 26.334 111.798 26.262H107.406C106.878 26.166 106.614 25.926 106.614 25.542V25.47C106.614 24.942 106.998 24.678 107.766 24.678ZM117.468 23.004C117.948 23.004 118.188 23.532 118.188 24.588C118.236 25.188 118.26 25.5 118.26 25.524C118.164 28.524 118.116 30.54 118.116 31.572C118.164 33.672 118.212 34.824 118.26 35.028C118.212 35.208 118.188 35.424 118.188 35.676V35.82C118.188 36.024 118.212 36.288 118.26 36.612C118.26 37.02 117.972 37.284 117.396 37.404C117 37.404 116.76 37.116 116.676 36.54C116.676 35.4 116.628 33.576 116.532 31.068C116.628 28.584 116.676 26.616 116.676 25.164C116.676 25.032 116.652 24.552 116.604 23.724C116.604 23.328 116.892 23.088 117.468 23.004ZM129.661 22.806C130.333 22.806 130.669 23.55 130.669 25.038C130.669 25.998 130.189 26.478 129.229 26.478H122.749V27.054H122.821C123.817 27.054 126.241 27.03 130.093 26.982C130.621 27.078 130.885 27.318 130.885 27.702V27.846C130.777 28.326 130.537 28.566 130.165 28.566C129.493 28.566 126.757 28.59 121.957 28.638C121.537 28.638 121.297 28.254 121.237 27.486C121.189 27.234 121.165 26.778 121.165 26.118V25.902C121.165 25.23 121.645 24.894 122.605 24.894H129.085V24.75L129.013 24.39C125.257 24.438 122.905 24.462 121.957 24.462C121.429 24.366 121.165 24.102 121.165 23.67C121.165 23.202 121.453 22.938 122.029 22.878C123.925 22.878 126.469 22.854 129.661 22.806ZM120.445 29.574C121.165 29.622 121.693 29.646 122.029 29.646H123.253C125.257 29.646 127.993 29.67 131.461 29.718C131.893 29.886 132.109 30.126 132.109 30.438V30.582C132.001 31.062 131.761 31.302 131.389 31.302C129.265 31.254 127.609 31.23 126.421 31.23H122.965C122.917 31.23 122.893 31.206 122.893 31.158C122.845 31.158 122.821 31.182 122.821 31.23L122.461 31.158H120.373C120.061 31.158 119.821 30.99 119.653 30.654V30.366C119.653 30.006 119.917 29.742 120.445 29.574ZM121.939 32.13H126.763C129.259 32.13 130.507 32.25 130.507 32.49C130.651 32.862 130.723 33.462 130.723 34.29C130.723 35.442 130.219 36.018 129.211 36.018C128.035 36.066 125.875 36.114 122.731 36.162V36.99H125.971C126.811 36.99 127.675 37.014 128.563 37.062C128.779 37.014 129.307 36.99 130.147 36.99C130.603 36.99 130.843 37.302 130.867 37.926C130.723 38.358 130.411 38.574 129.931 38.574H122.083C121.459 38.466 121.147 38.226 121.147 37.854L121.219 37.35V37.206C121.219 36.978 121.195 36.678 121.147 36.306C121.147 35.154 121.555 34.578 122.371 34.578C122.563 34.578 122.659 34.602 122.659 34.65C122.707 34.65 122.899 34.626 123.235 34.578C126.283 34.53 128.083 34.506 128.635 34.506L129.139 34.434V33.714C126.919 33.666 125.191 33.642 123.955 33.642H122.155C122.047 33.642 121.951 33.666 121.867 33.714C121.543 33.714 121.279 33.522 121.075 33.138V32.85C121.075 32.418 121.363 32.178 121.939 32.13ZM139.858 24.678C140.026 24.678 140.242 24.702 140.506 24.75C141.43 24.702 142.03 24.678 142.306 24.678C142.522 24.678 143.05 24.702 143.89 24.75C144.154 24.702 144.37 24.678 144.538 24.678C145.018 24.87 145.258 25.134 145.258 25.47V25.614C145.258 26.982 144.106 28.662 141.802 30.654C140.362 31.47 139.522 31.878 139.282 31.878C138.874 31.878 138.61 31.59 138.49 31.014C138.49 30.666 139.09 30.234 140.29 29.718C141.754 28.842 142.81 27.69 143.458 26.262H139.426C138.946 26.166 138.706 25.926 138.706 25.542V25.47C138.706 25.002 139.09 24.738 139.858 24.678ZM147.868 23.4C148.168 23.4 148.408 23.616 148.588 24.048C148.636 25.224 148.66 26.16 148.66 26.856V26.928H150.244C150.712 26.928 150.976 27.216 151.036 27.792C150.868 28.224 150.628 28.44 150.316 28.44H148.588V28.512C148.588 28.8 148.612 28.944 148.66 28.944L148.588 29.664V31.176C148.588 31.284 148.612 31.38 148.66 31.464C148.528 32.04 148.24 32.328 147.796 32.328C147.316 32.196 147.076 31.932 147.076 31.536V25.992C147.076 25.512 147.052 24.936 147.004 24.264C147.136 23.688 147.424 23.4 147.868 23.4ZM140.326 32.724C140.902 32.724 141.19 33.804 141.19 35.964V36.756H145.006C145.87 36.756 147.046 36.732 148.534 36.684C149.014 36.816 149.254 37.056 149.254 37.404V37.548C149.254 37.872 149.038 38.112 148.606 38.268C146.542 38.316 144.958 38.34 143.854 38.34H140.542C139.918 38.34 139.606 37.836 139.606 36.828C139.606 35.388 139.582 34.236 139.534 33.372C139.69 32.94 139.954 32.724 140.326 32.724ZM153.361 24.3H155.449C156.397 24.3 157.813 24.324 159.697 24.372C160.129 24.528 160.345 24.792 160.345 25.164C160.345 25.608 160.033 25.872 159.409 25.956C159.145 25.956 158.473 25.932 157.393 25.884C157.393 27.54 158.425 28.956 160.489 30.132L160.633 30.636C160.501 31.116 160.261 31.356 159.913 31.356H159.625C158.665 31.08 157.609 30.12 156.457 28.476C155.929 29.592 155.017 30.552 153.721 31.356L153.217 31.428H153.145C152.749 31.428 152.509 31.164 152.425 30.636C152.425 30.36 152.929 29.904 153.937 29.268C154.969 28.248 155.545 27.12 155.665 25.884H155.305C153.529 25.884 152.641 25.716 152.641 25.38L152.569 25.02C152.701 24.54 152.965 24.3 153.361 24.3ZM163.297 23.418H163.441C163.861 23.418 164.101 23.73 164.161 24.354V26.37C164.161 27.57 164.185 29.274 164.233 31.482C164.149 31.698 163.981 31.89 163.729 32.058H163.225C162.793 32.058 162.577 30.954 162.577 28.746V27.45L162.649 27.018C162.601 26.706 162.577 26.394 162.577 26.082V24.282C162.625 23.706 162.865 23.418 163.297 23.418ZM155.269 32.652H163.189C163.681 32.652 163.969 33.012 164.053 33.732V35.964C164.053 37.932 163.861 38.916 163.477 38.916C163.477 39.012 163.333 39.06 163.045 39.06C162.673 39.06 162.433 38.796 162.325 38.268C162.421 37.632 162.469 37.008 162.469 36.396V34.236H162.397C161.197 34.236 158.749 34.212 155.053 34.164C154.669 33.996 154.477 33.732 154.477 33.372C154.609 32.892 154.873 32.652 155.269 32.652ZM169.871 22.482H169.943C170.471 22.482 170.735 22.866 170.735 23.634V24.354C171.299 24.402 171.707 24.426 171.959 24.426H172.895C173.759 24.426 174.191 24.714 174.191 25.29C174.191 25.59 173.975 25.83 173.543 26.01C172.103 25.962 171.263 25.938 171.023 25.938C170.219 25.938 168.635 25.986 166.271 26.082C165.839 25.926 165.623 25.662 165.623 25.29C165.623 24.714 166.487 24.426 168.215 24.426H169.151V23.202C169.247 22.722 169.487 22.482 169.871 22.482ZM169.727 26.154C171.479 26.154 172.679 26.922 173.327 28.458L173.399 28.89V29.394C173.399 30.378 172.703 31.122 171.311 31.626C170.831 31.722 170.399 31.77 170.015 31.77H169.511C168.071 31.77 167.135 30.954 166.703 29.322C166.703 29.214 166.679 29.118 166.631 29.034C166.631 27.594 167.663 26.634 169.727 26.154ZM168.215 29.034C168.215 29.706 168.767 30.114 169.871 30.258C171.215 30.162 171.887 29.778 171.887 29.106C171.659 28.266 171.011 27.81 169.943 27.738H169.727C168.719 28.05 168.215 28.482 168.215 29.034ZM176.657 23.4C176.957 23.4 177.197 23.616 177.377 24.048C177.425 25.224 177.449 26.16 177.449 26.856V26.928H179.033C179.501 26.928 179.765 27.216 179.825 27.792C179.657 28.224 179.417 28.44 179.105 28.44H177.377V28.512C177.377 28.8 177.401 28.944 177.449 28.944L177.377 29.664V31.176C177.377 31.284 177.401 31.38 177.449 31.464C177.317 32.04 177.029 32.328 176.585 32.328C176.105 32.196 175.865 31.932 175.865 31.536V25.992C175.865 25.512 175.841 24.936 175.793 24.264C175.925 23.688 176.213 23.4 176.657 23.4ZM169.115 32.724C169.691 32.724 169.979 33.804 169.979 35.964V36.756H173.795C174.659 36.756 175.835 36.732 177.323 36.684C177.803 36.816 178.043 37.056 178.043 37.404V37.548C178.043 37.872 177.827 38.112 177.395 38.268C175.331 38.316 173.747 38.34 172.643 38.34H169.331C168.707 38.34 168.395 37.836 168.395 36.828C168.395 35.388 168.371 34.236 168.323 33.372C168.479 32.94 168.743 32.724 169.115 32.724ZM190.159 23.58C190.639 23.688 190.879 23.928 190.879 24.3V25.668H193.327C193.855 25.752 194.119 26.016 194.119 26.46C194.119 26.988 193.543 27.252 192.391 27.252H190.879C190.879 29.328 191.671 31.176 193.255 32.796C193.639 32.94 193.975 33.228 194.263 33.66V34.02C194.167 34.5 193.927 34.74 193.543 34.74C192.499 34.356 191.467 33.372 190.447 31.788C190.303 31.44 190.231 31.224 190.231 31.14C188.935 33.252 187.879 34.428 187.063 34.668H186.919C186.487 34.608 186.271 34.392 186.271 34.02V33.876C186.271 33.588 186.847 32.892 187.999 31.788C188.815 30.528 189.223 29.256 189.223 27.972V27.18C188.815 27.18 188.047 27.204 186.919 27.252C186.643 27.252 186.403 27.012 186.199 26.532C186.199 25.956 186.655 25.668 187.567 25.668C188.443 25.62 189.019 25.596 189.295 25.596C189.295 24.252 189.535 23.58 190.015 23.58H190.159ZM198.691 23.31C199.075 23.49 199.267 23.73 199.267 24.03C199.267 25.134 199.291 27.054 199.339 29.79C199.339 29.982 199.315 30.414 199.267 31.086C199.363 32.658 199.411 34.602 199.411 36.918C199.411 37.29 199.147 37.554 198.619 37.71C198.175 37.71 197.911 37.374 197.827 36.702V36.342C197.827 34.95 197.803 33.03 197.755 30.582H196.243V34.47C196.243 34.914 196.267 35.538 196.315 36.342C196.123 36.822 195.859 37.062 195.523 37.062C194.995 37.062 194.731 36.558 194.731 35.55C194.683 35.034 194.659 34.218 194.659 33.102C194.659 32.574 194.683 32.238 194.731 32.094C194.683 31.446 194.659 30.894 194.659 30.438V24.462C194.659 23.838 194.923 23.526 195.451 23.526C195.979 23.61 196.243 23.874 196.243 24.318V28.998H196.315C196.447 28.998 196.927 29.022 197.755 29.07V28.782C197.755 27.786 197.731 26.274 197.683 24.246C197.683 23.646 198.019 23.334 198.691 23.31ZM38.7758 46.75C39.4238 46.75 39.8078 46.774 39.9278 46.822C40.6478 46.774 41.2478 46.75 41.7278 46.75H45.3998C46.2638 46.75 46.6958 47.23 46.6958 48.19C46.7918 48.778 46.8398 49.522 46.8398 50.422C46.8398 52.63 46.6958 53.734 46.4078 53.734C46.0958 54.022 45.8078 54.166 45.5438 54.166C40.5038 54.166 37.9838 54.046 37.9838 53.806C37.7918 53.806 37.6238 51.862 37.4798 47.974V47.614C37.4798 47.098 37.9118 46.81 38.7758 46.75ZM39.0638 48.334L39.1358 48.694C39.1358 49.498 39.1838 50.77 39.2798 52.51C40.6478 52.558 42.6158 52.582 45.1838 52.582C45.2318 52.258 45.2558 51.994 45.2558 51.79V50.134C45.2558 49.726 45.2318 49.126 45.1838 48.334H39.0638ZM42.2318 53.86C42.7118 53.98 42.9518 54.244 42.9518 54.652L42.9698 57.262H46.2098C46.4858 57.262 46.8698 57.286 47.3618 57.334C47.4458 57.286 47.5658 57.262 47.7218 57.262C48.2018 57.394 48.4418 57.634 48.4418 57.982V58.126C48.3338 58.606 48.0938 58.846 47.7218 58.846C42.0818 58.798 38.4098 58.774 36.7058 58.774C36.0338 58.774 35.6978 58.534 35.6978 58.054V57.91C35.6978 57.526 35.9618 57.286 36.4898 57.19H41.3858C41.3858 57.094 41.3918 56.638 41.4038 55.822C41.3798 55.186 41.3678 54.796 41.3678 54.652C41.3678 54.256 41.6558 53.992 42.2318 53.86ZM60.3029 45.904C60.8309 46 61.0949 46.264 61.0949 46.696V46.768C61.0949 47.188 60.8069 47.428 60.2309 47.488C58.9589 47.488 56.5829 47.512 53.1029 47.56C53.1029 48.208 53.1509 49.12 53.2469 50.296C54.7109 50.248 55.7909 50.224 56.4869 50.224H59.6549C59.9309 50.224 60.3149 50.2 60.8069 50.152C61.2269 50.152 61.4669 50.464 61.5269 51.088C61.3829 51.52 61.0949 51.736 60.6629 51.736C57.3749 51.736 54.5909 51.808 52.3109 51.952C51.8549 51.952 51.5909 50.776 51.5189 48.424C51.5189 47.968 51.4949 47.416 51.4469 46.768C51.6149 46.24 51.8789 45.976 52.2389 45.976C52.5989 45.976 52.8629 46 53.0309 46.048C54.3269 46 55.3589 45.976 56.1269 45.976H60.0149C60.1229 45.976 60.2189 45.952 60.3029 45.904ZM50.6189 53.248C51.8309 53.296 52.7909 53.32 53.4989 53.32H58.8989C59.4989 53.32 60.2429 53.296 61.1309 53.248C62.1389 53.248 62.6429 53.56 62.6429 54.184C62.6429 54.436 62.4029 54.676 61.9229 54.904L61.4909 54.832C59.6429 54.88 58.2029 54.904 57.1709 54.904H56.9549L57.0269 55.624V59.368C57.0269 59.896 56.7149 60.16 56.0909 60.16C55.6589 60.016 55.4429 59.704 55.4429 59.224V54.904H55.3709C52.5029 54.856 50.8949 54.832 50.5469 54.832C50.1629 54.832 49.9229 54.568 49.8269 54.04C49.8269 53.716 50.0909 53.452 50.6189 53.248ZM71.3008 44.95H71.4448C71.8768 44.95 72.1168 45.238 72.1648 45.814C72.2128 47.446 72.2368 48.358 72.2368 48.55H72.3088C74.7328 48.502 76.6288 48.478 77.9968 48.478H78.9328C79.7968 48.478 80.2288 48.79 80.2288 49.414C80.0608 49.846 79.8208 50.062 79.5088 50.062H74.2528C73.5568 50.062 72.6208 50.086 71.4448 50.134C70.9648 50.134 70.7248 49.606 70.7248 48.55C70.6288 47.362 70.5808 46.426 70.5808 45.742C70.6768 45.214 70.9168 44.95 71.3008 44.95ZM75.2788 49.594H75.6388C75.9748 49.786 76.1428 50.074 76.1428 50.458V51.682H76.7188C77.4388 51.682 78.6148 51.73 80.2468 51.826L80.9668 51.754C81.3988 51.898 81.6148 52.138 81.6148 52.474V52.618C81.5068 53.098 81.2668 53.338 80.8948 53.338C80.4268 53.338 77.9308 53.29 73.4068 53.194C71.4868 53.242 70.3828 53.266 70.0948 53.266C69.3748 53.182 69.0148 52.918 69.0148 52.474V52.402C69.1108 51.922 69.3508 51.682 69.7348 51.682C70.6108 51.682 72.2428 51.658 74.6308 51.61L74.5588 51.466V50.89C74.5588 50.026 74.7988 49.594 75.2788 49.594ZM71.1388 54.652H79.0588C79.5508 54.652 79.8388 55.012 79.9228 55.732V57.964C79.9228 59.932 79.7308 60.916 79.3468 60.916C79.3468 61.012 79.2028 61.06 78.9148 61.06C78.5428 61.06 78.3028 60.796 78.1948 60.268C78.2908 59.632 78.3388 59.008 78.3388 58.396V56.236H78.2668C77.0668 56.236 74.6188 56.212 70.9228 56.164C70.5388 55.996 70.3468 55.732 70.3468 55.372C70.4788 54.892 70.7428 54.652 71.1388 54.652ZM86.6753 46.588C88.0673 46.588 89.0993 47.596 89.7713 49.612C89.9633 50.596 90.0593 51.22 90.0593 51.484V52.42C90.0593 54.472 89.1713 55.864 87.3953 56.596C86.9753 56.644 86.6153 56.668 86.3153 56.668C84.9233 56.668 83.8673 55.54 83.1473 53.284C83.0513 52.66 83.0033 52.204 83.0033 51.916C83.0033 49.132 83.9633 47.38 85.8833 46.66C85.9913 46.66 86.2553 46.636 86.6753 46.588ZM84.5873 51.988V52.06C84.5873 53.524 85.1393 54.532 86.2433 55.084H86.4593C87.8513 55.084 88.5473 54.028 88.5473 51.916C88.2473 49.708 87.8873 48.604 87.4673 48.604C87.2753 48.316 86.9873 48.172 86.6033 48.172H86.3873C85.4033 48.46 84.8273 49.372 84.6593 50.908C84.6113 51.112 84.5873 51.472 84.5873 51.988ZM93.0473 45.184C93.3833 45.184 93.6233 45.4 93.7673 45.832C93.7673 46.096 93.7433 46.36 93.6953 46.624C93.7433 47.86 93.7673 48.916 93.7673 49.792V50.728H95.7833C96.1193 50.896 96.2873 51.136 96.2873 51.448C96.2873 52.024 95.8793 52.312 95.0633 52.312H93.7673V56.416C93.7673 57.04 93.7913 57.856 93.8393 58.864C93.7073 59.344 93.4673 59.584 93.1193 59.584H92.9753C92.4953 59.488 92.2553 59.248 92.2553 58.864C92.2553 58.132 92.2313 57.292 92.1833 56.344C92.1833 55.792 92.2073 54.712 92.2553 53.104C92.2073 50.392 92.1833 48.04 92.1833 46.048C92.3033 45.472 92.5913 45.184 93.0473 45.184ZM98.4693 46.426C98.9973 46.426 99.2613 47.002 99.2613 48.154C99.3093 49.75 99.3333 51.142 99.3333 52.33V54.346C100.737 54.346 102.609 54.202 104.949 53.914C105.129 53.914 105.345 54.082 105.597 54.418V54.778C105.597 55.402 104.637 55.714 102.717 55.714C101.709 55.81 100.533 55.882 99.1893 55.93C98.2773 55.93 97.8213 55.474 97.8213 54.562C97.7733 53.506 97.7253 51.01 97.6773 47.074C97.8333 46.642 98.0973 46.426 98.4693 46.426ZM110.079 45.31C110.463 45.49 110.655 45.73 110.655 46.03C110.655 47.134 110.679 49.054 110.727 51.79C110.727 51.982 110.703 52.414 110.655 53.086C110.751 54.658 110.799 56.602 110.799 58.918C110.799 59.29 110.535 59.554 110.007 59.71C109.563 59.71 109.299 59.374 109.215 58.702V58.342C109.215 56.95 109.191 55.03 109.143 52.582H107.631V56.47C107.631 56.914 107.655 57.538 107.703 58.342C107.511 58.822 107.247 59.062 106.911 59.062C106.383 59.062 106.119 58.558 106.119 57.55C106.071 57.034 106.047 56.218 106.047 55.102C106.047 54.574 106.071 54.238 106.119 54.094C106.071 53.446 106.047 52.894 106.047 52.438V46.462C106.047 45.838 106.311 45.526 106.839 45.526C107.367 45.61 107.631 45.874 107.631 46.318V50.998H107.703C107.835 50.998 108.315 51.022 109.143 51.07V50.782C109.143 49.786 109.119 48.274 109.071 46.246C109.071 45.646 109.407 45.334 110.079 45.31ZM117.377 46.21C118.097 46.342 118.457 46.678 118.457 47.218C118.457 49.33 118.241 50.386 117.809 50.386C117.809 50.494 117.617 50.59 117.233 50.674C115.817 50.722 114.665 50.746 113.777 50.746V52.15H113.921C114.881 52.15 116.387 52.132 118.439 52.096C118.823 52.3 119.015 52.54 119.015 52.816C119.015 53.392 118.391 53.68 117.143 53.68C115.955 53.716 114.641 53.734 113.201 53.734C112.577 53.614 112.265 53.35 112.265 52.942C112.217 51.37 112.193 50.302 112.193 49.738C112.337 49.354 112.625 49.162 113.057 49.162H115.721C115.961 49.162 116.321 49.138 116.801 49.09V49.018C116.849 48.274 116.873 47.866 116.873 47.794H116.801C116.273 47.842 115.817 47.866 115.433 47.866H113.129C112.553 47.818 112.265 47.578 112.265 47.146V47.002C112.265 46.57 112.553 46.33 113.129 46.282H116.369C116.633 46.282 116.969 46.258 117.377 46.21ZM122.453 45.328C122.933 45.52 123.173 45.784 123.173 46.12C123.173 46.264 123.149 46.336 123.101 46.336C123.149 47.128 123.173 47.728 123.173 48.136V50.728C123.173 51.424 123.197 52.36 123.245 53.536C123.077 54.016 122.789 54.256 122.381 54.256C122.009 54.256 121.769 53.944 121.661 53.32V52.24H119.141L118.709 52.312C118.229 52.18 117.989 51.916 117.989 51.52C117.989 50.944 118.421 50.656 119.285 50.656H121.661V49.144H118.925C118.349 49.096 118.061 48.856 118.061 48.424V48.28C118.061 47.896 118.325 47.656 118.853 47.56H121.589V46.264C121.589 45.64 121.877 45.328 122.453 45.328ZM115.991 54.508C116.435 54.508 116.795 55.198 117.071 56.578C117.515 57.538 118.163 58.594 119.015 59.746L119.087 60.142C118.979 60.67 118.739 60.934 118.367 60.934H118.223C117.755 60.934 117.011 59.932 115.991 57.928H115.919C114.971 59.884 114.203 60.862 113.615 60.862C113.135 60.718 112.895 60.454 112.895 60.07V59.908C112.895 59.74 113.303 59.104 114.119 58C114.575 57.22 114.959 56.188 115.271 54.904C115.571 54.64 115.811 54.508 115.991 54.508ZM120.653 54.508C121.097 54.508 121.457 55.198 121.733 56.578C122.177 57.538 122.825 58.594 123.677 59.746L123.749 60.142C123.641 60.67 123.401 60.934 123.029 60.934H122.885C122.417 60.934 121.673 59.932 120.653 57.928H120.581C119.633 59.884 118.865 60.862 118.277 60.862C117.797 60.718 117.557 60.454 117.557 60.07V59.908C117.557 59.74 117.965 59.104 118.781 58C119.237 57.22 119.621 56.188 119.933 54.904C120.233 54.64 120.473 54.508 120.653 54.508ZM128.817 46.588C130.209 46.588 131.241 47.596 131.913 49.612C132.105 50.596 132.201 51.22 132.201 51.484V52.42C132.201 54.472 131.313 55.864 129.537 56.596C129.117 56.644 128.757 56.668 128.457 56.668C127.065 56.668 126.009 55.54 125.289 53.284C125.193 52.66 125.145 52.204 125.145 51.916C125.145 49.132 126.105 47.38 128.025 46.66C128.133 46.66 128.397 46.636 128.817 46.588ZM126.729 51.988V52.06C126.729 53.524 127.281 54.532 128.385 55.084H128.601C129.993 55.084 130.689 54.028 130.689 51.916C130.389 49.708 130.029 48.604 129.609 48.604C129.417 48.316 129.129 48.172 128.745 48.172H128.529C127.545 48.46 126.969 49.372 126.801 50.908C126.753 51.112 126.729 51.472 126.729 51.988ZM135.891 45.202C136.203 45.202 136.467 45.394 136.683 45.778C136.731 47.518 136.755 48.766 136.755 49.522V58.954C136.755 59.578 136.467 59.89 135.891 59.89C135.411 59.782 135.171 59.47 135.171 58.954V52.33H135.099C133.083 52.33 132.075 52.186 132.075 51.898L132.003 51.538V51.466C132.099 50.938 132.363 50.674 132.795 50.674C133.647 50.722 134.367 50.746 134.955 50.746H135.171V48.01C135.171 47.566 135.147 46.942 135.099 46.138C135.231 45.514 135.495 45.202 135.891 45.202ZM144.683 46.75C146.435 46.75 147.971 47.35 149.291 48.55C149.771 49.294 150.011 50.23 150.011 51.358C150.011 52.762 148.979 53.914 146.915 54.814C146.075 54.958 145.427 55.03 144.971 55.03H144.539C142.907 55.03 141.539 54.43 140.435 53.23C139.907 52.498 139.643 51.706 139.643 50.854C139.643 49.606 140.267 48.526 141.515 47.614C142.667 47.074 143.723 46.786 144.683 46.75ZM141.227 50.782V50.926C141.227 52.258 142.187 53.098 144.107 53.446H145.043C146.663 53.446 147.767 52.87 148.355 51.718C148.403 51.634 148.427 51.538 148.427 51.43V51.286C148.427 50.002 148.043 49.234 147.275 48.982C146.459 48.55 145.523 48.334 144.467 48.334C143.435 48.334 142.499 48.742 141.659 49.558C141.371 50.11 141.227 50.518 141.227 50.782ZM147.005 53.842C147.533 53.842 147.797 54.25 147.797 55.066V55.21C147.797 55.774 147.821 56.422 147.869 57.154H147.941C148.337 57.154 149.201 57.178 150.533 57.226C150.809 57.322 151.001 57.49 151.109 57.73V58.018C151.013 58.498 150.773 58.738 150.389 58.738H138.869C138.389 58.642 138.149 58.402 138.149 58.018V57.946C138.149 57.418 138.557 57.154 139.373 57.154H141.389L141.461 56.434V54.706C141.545 54.178 141.809 53.914 142.253 53.914C142.697 53.914 142.961 54.25 143.045 54.922V55.93C143.045 56.182 143.021 56.59 142.973 57.154H146.285C146.237 55.57 146.213 54.682 146.213 54.49C146.369 54.058 146.633 53.842 147.005 53.842ZM159.799 49.702C161.539 49.75 163.003 49.774 164.191 49.774H169.303C169.975 49.858 170.311 50.122 170.311 50.566C170.215 51.094 169.951 51.358 169.519 51.358H168.943C168.535 51.358 167.887 51.334 166.999 51.286V55.822C166.831 56.158 166.591 56.326 166.279 56.326C165.703 56.326 165.415 55.726 165.415 54.526V51.286H162.319V55.462C162.319 55.726 162.151 55.966 161.815 56.182H161.311C161.095 56.11 160.903 55.87 160.735 55.462C160.783 54.742 160.807 54.214 160.807 53.878V51.286H158.359C157.783 51.25 157.495 50.986 157.495 50.494C157.495 50.014 157.951 49.774 158.863 49.774C159.175 49.774 159.487 49.75 159.799 49.702ZM6.32804 90.552C6.78404 90.552 7.02404 90.864 7.04804 91.488C7.04804 91.92 6.35204 92.136 4.96004 92.136H1.86404L2.00804 98.76H2.65604C4.68404 98.76 6.24404 98.664 7.33604 98.472C7.86404 98.58 8.12804 98.82 8.12804 99.192V99.336C8.12804 99.912 7.33604 100.2 5.75204 100.2C4.96004 100.296 3.64004 100.344 1.79204 100.344H1.36004C0.736045 100.284 0.424044 99.972 0.424044 99.408C0.364044 94.032 0.292044 91.344 0.208044 91.344C0.208044 90.816 0.856044 90.552 2.15204 90.552H6.32804ZM10.486 89.184C10.822 89.184 11.062 89.4 11.206 89.832C11.206 90.096 11.182 90.36 11.134 90.624C11.182 91.86 11.206 92.916 11.206 93.792V94.728H13.222C13.558 94.896 13.726 95.136 13.726 95.448C13.726 96.024 13.318 96.312 12.502 96.312H11.206V100.416C11.206 101.04 11.23 101.856 11.278 102.864C11.146 103.344 10.906 103.584 10.558 103.584H10.414C9.93404 103.488 9.69404 103.248 9.69404 102.864C9.69404 102.132 9.67004 101.292 9.62204 100.344C9.62204 99.792 9.64604 98.712 9.69404 97.104C9.64604 94.392 9.62204 92.04 9.62204 90.048C9.74204 89.472 10.03 89.184 10.486 89.184ZM20.9246 89.076C24.0446 89.088 25.8446 89.856 26.3246 91.38C26.3726 91.644 26.3966 91.86 26.3966 92.028C26.3966 93.54 24.9806 94.476 22.1486 94.836H21.8606C18.3566 94.836 16.6046 93.924 16.6046 92.1C16.6046 90.696 17.6366 89.736 19.7006 89.22C20.3246 89.124 20.7326 89.076 20.9246 89.076ZM18.1886 92.028V92.1C18.1886 92.868 19.4846 93.252 22.0766 93.252C23.2406 93.252 24.1766 92.868 24.8846 92.1V92.028C24.8846 91.356 23.9246 90.9 22.0046 90.66C21.9566 90.66 21.9326 90.684 21.9326 90.732C21.5726 90.684 21.3326 90.636 21.2126 90.588C19.1966 90.828 18.1886 91.308 18.1886 92.028ZM15.9026 95.574C16.6226 95.622 17.1506 95.646 17.4866 95.646H18.7106C20.7146 95.646 23.4506 95.67 26.9186 95.718C27.3506 95.886 27.5666 96.126 27.5666 96.438V96.582C27.4586 97.062 27.2186 97.302 26.8466 97.302C24.7226 97.254 23.0666 97.23 21.8786 97.23H18.4226C18.3746 97.23 18.3506 97.206 18.3506 97.158C18.3026 97.158 18.2786 97.182 18.2786 97.23L17.9186 97.158H15.8306C15.5186 97.158 15.2786 96.99 15.1106 96.654V96.366C15.1106 96.006 15.3746 95.742 15.9026 95.574ZM17.6666 98.652H18.6026C20.1746 98.652 22.3586 98.676 25.1546 98.724C25.7306 98.724 26.0186 99.864 26.0186 102.144C26.0666 102.144 26.0906 102.408 26.0906 102.936C26.0906 104.088 25.7786 104.664 25.1546 104.664H23.7146C22.5386 104.664 21.5306 104.688 20.6906 104.736C20.1986 104.688 19.3346 104.664 18.0986 104.664C17.1866 104.664 16.7306 104.376 16.7306 103.8V103.152C16.7306 102.9 16.7066 102.684 16.6586 102.504C16.7066 102.252 16.7306 101.712 16.7306 100.884V99.588C16.8866 98.964 17.1986 98.652 17.6666 98.652ZM18.3146 100.236C18.2666 101.628 18.2426 102.528 18.2426 102.936L18.3146 103.08C18.6506 103.08 19.2986 103.104 20.2586 103.152C22.4306 103.104 23.8466 103.08 24.5066 103.08V103.008C24.5066 102.396 24.4586 101.496 24.3626 100.308C23.9066 100.308 22.3946 100.26 19.8266 100.164C19.1066 100.212 18.6026 100.236 18.3146 100.236ZM38.1769 88.752H38.2489C38.7769 88.752 39.0409 89.304 39.0409 90.408V90.552C41.1769 90.492 42.2449 90.624 42.2449 90.948L42.3169 91.308C42.3169 91.644 42.0529 91.908 41.5249 92.1C41.0929 92.124 40.1689 92.136 38.7529 92.136H35.6209C34.7809 92.136 34.3609 91.848 34.3609 91.272C34.4689 90.792 34.7089 90.552 35.0809 90.552H37.4569V89.472C37.5529 88.992 37.7929 88.752 38.1769 88.752ZM38.2489 92.208C39.9649 92.208 41.0689 92.976 41.5609 94.512C41.6569 94.788 41.7049 95.1 41.7049 95.448C41.7049 96.312 41.2489 97.08 40.3369 97.752C39.5449 98.04 38.9449 98.184 38.5369 98.184H38.1769C36.1129 97.896 35.0809 96.912 35.0809 95.232C35.2009 93.552 36.2569 92.544 38.2489 92.208ZM36.6649 95.088V95.304C36.6649 96.072 37.2409 96.528 38.3929 96.672C39.5449 96.564 40.1209 96.108 40.1209 95.304C40.1209 94.296 39.4489 93.792 38.1049 93.792C37.1449 94.008 36.6649 94.44 36.6649 95.088ZM44.3509 89.13C44.8309 89.262 45.0709 89.478 45.0709 89.778C45.0709 90.33 45.0949 91.17 45.1429 92.298C45.0949 93.222 45.0709 93.822 45.0709 94.098C45.1189 94.41 45.1429 94.722 45.1429 95.034C45.5749 95.034 46.0549 95.01 46.5829 94.962C47.1589 95.046 47.4469 95.31 47.4469 95.754V95.826C47.4469 96.306 46.9909 96.546 46.0789 96.546C45.7669 96.594 45.4549 96.618 45.1429 96.618V102.882C45.0469 103.41 44.7829 103.674 44.3509 103.674C43.8229 103.674 43.5589 103.074 43.5589 101.874V101.586C43.5589 100.938 43.5829 100.554 43.6309 100.434C43.5829 99.474 43.5589 98.634 43.5589 97.914V89.922C43.5589 89.538 43.8229 89.274 44.3509 89.13ZM38.4469 96.69C38.9749 96.69 39.2389 97.05 39.2389 97.77V98.994L42.5509 98.958C42.8989 98.958 43.1149 99.246 43.1989 99.822V99.894C43.1989 100.338 42.0109 100.602 39.6349 100.686C37.3549 100.662 35.7229 100.65 34.7389 100.65C34.2109 100.554 33.9469 100.314 33.9469 99.93V99.57C34.1389 99.234 34.4269 99.066 34.8109 99.066H36.7909L37.6549 98.994V97.482C37.7509 96.954 38.0149 96.69 38.4469 96.69ZM52.5039 90.588C53.8959 90.588 54.9279 91.596 55.5999 93.612C55.7919 94.596 55.8879 95.22 55.8879 95.484V96.42C55.8879 98.472 54.9999 99.864 53.2239 100.596C52.8039 100.644 52.4439 100.668 52.1439 100.668C50.7519 100.668 49.6959 99.54 48.9759 97.284C48.8799 96.66 48.8319 96.204 48.8319 95.916C48.8319 93.132 49.7919 91.38 51.7119 90.66C51.8199 90.66 52.0839 90.636 52.5039 90.588ZM50.4159 95.988V96.06C50.4159 97.524 50.9679 98.532 52.0719 99.084H52.2879C53.6799 99.084 54.3759 98.028 54.3759 95.916C54.0759 93.708 53.7159 92.604 53.2959 92.604C53.1039 92.316 52.8159 92.172 52.4319 92.172H52.2159C51.2319 92.46 50.6559 93.372 50.4879 94.908C50.4399 95.112 50.4159 95.472 50.4159 95.988ZM59.3439 89.004C59.8239 89.004 60.0639 89.532 60.0639 90.588C60.1119 91.188 60.1359 91.5 60.1359 91.524C60.0399 94.524 59.9919 96.54 59.9919 97.572C60.0399 99.672 60.0879 100.824 60.1359 101.028C60.0879 101.208 60.0639 101.424 60.0639 101.676V101.82C60.0639 102.024 60.0879 102.288 60.1359 102.612C60.1359 103.02 59.8479 103.284 59.2719 103.404C58.8759 103.404 58.6359 103.116 58.5519 102.54C58.5519 101.4 58.5039 99.576 58.4079 97.068C58.5039 94.584 58.5519 92.616 58.5519 91.164C58.5519 91.032 58.5279 90.552 58.4799 89.724C58.4799 89.328 58.7679 89.088 59.3439 89.004ZM64.0756 90.786C68.0716 90.834 70.7356 90.858 72.0676 90.858C72.7876 90.918 73.1476 91.182 73.1476 91.65V91.722C73.1476 92.154 72.8596 92.394 72.2836 92.442C71.2036 92.442 68.7076 92.418 64.7956 92.37V93.81C64.7956 93.906 64.8676 93.954 65.0116 93.954C66.1156 93.954 68.4436 93.93 71.9956 93.882C72.4276 94.062 72.6436 94.302 72.6436 94.602C72.6436 95.178 72.0916 95.466 70.9876 95.466H64.8676C64.8196 95.946 64.7956 96.306 64.7956 96.546L64.8676 97.266H72.3556C72.8356 97.362 73.0756 97.602 73.0756 97.986V98.058C73.0756 98.538 72.6196 98.778 71.7076 98.778C71.0716 98.826 70.3756 98.85 69.6196 98.85C69.2956 98.85 67.4236 98.826 64.0036 98.778C63.5236 98.61 63.2836 98.226 63.2836 97.626C63.2836 96.906 63.2596 96.546 63.2116 96.546L63.2836 96.042C63.2356 93.726 63.2116 92.286 63.2116 91.722C63.2836 91.098 63.5716 90.786 64.0756 90.786ZM62.9596 101.28H64.3996C66.5836 101.28 69.3676 101.304 72.7516 101.352C73.0876 101.304 73.3756 101.28 73.6156 101.28C74.0956 101.424 74.3356 101.688 74.3356 102.072C74.2516 102.6 73.9876 102.864 73.5436 102.864H62.3836C61.8076 102.816 61.5196 102.552 61.5196 102.072C61.5196 101.544 61.9996 101.28 62.9596 101.28ZM81.839 90.552C82.295 90.552 82.535 90.864 82.559 91.488C82.559 91.92 81.863 92.136 80.471 92.136H77.375L77.519 98.76H78.167C80.195 98.76 81.755 98.664 82.847 98.472C83.375 98.58 83.639 98.82 83.639 99.192V99.336C83.639 99.912 82.847 100.2 81.263 100.2C80.471 100.296 79.151 100.344 77.303 100.344H76.871C76.247 100.284 75.935 99.972 75.935 99.408C75.875 94.032 75.803 91.344 75.719 91.344C75.719 90.816 76.367 90.552 77.663 90.552H81.839ZM88.355 89.076H88.427C88.727 89.076 88.967 89.268 89.147 89.652C89.147 90.996 89.171 92.412 89.219 93.9C89.171 96.996 89.147 99.948 89.147 102.756C89.063 103.284 88.823 103.548 88.427 103.548H88.283C87.803 103.548 87.563 103.116 87.563 102.252V101.388C87.563 100.872 87.587 100.464 87.635 100.164C87.587 99.756 87.563 99.42 87.563 99.156C87.563 97.8 87.611 96.384 87.707 94.908C87.659 94.02 87.635 93.06 87.635 92.028V89.94C87.683 89.364 87.923 89.076 88.355 89.076ZM85.763 89.364C86.243 89.568 86.483 89.856 86.483 90.228C86.483 90.516 86.459 90.948 86.411 91.524C86.411 92.46 86.435 93.756 86.483 95.412C86.435 97.728 86.411 100.008 86.411 102.252C86.303 102.732 86.063 102.972 85.691 102.972H85.547C85.163 102.972 84.923 102.708 84.827 102.18C84.875 98.94 84.899 96.9 84.899 96.06H84.827C84.335 96.108 83.951 96.132 83.675 96.132H83.315C82.835 96.06 82.595 95.844 82.595 95.484V95.268C82.595 94.74 83.363 94.476 84.899 94.476C84.899 94.296 84.875 93.696 84.827 92.676C84.875 91.14 84.899 90.252 84.899 90.012C85.043 89.58 85.331 89.364 85.763 89.364ZM94.276 90.588C95.668 90.588 96.7 91.596 97.372 93.612C97.564 94.596 97.66 95.22 97.66 95.484V96.42C97.66 98.472 96.772 99.864 94.996 100.596C94.576 100.644 94.216 100.668 93.916 100.668C92.524 100.668 91.468 99.54 90.748 97.284C90.652 96.66 90.604 96.204 90.604 95.916C90.604 93.132 91.564 91.38 93.484 90.66C93.592 90.66 93.856 90.636 94.276 90.588ZM92.188 95.988V96.06C92.188 97.524 92.74 98.532 93.844 99.084H94.06C95.452 99.084 96.148 98.028 96.148 95.916C95.848 93.708 95.488 92.604 95.068 92.604C94.876 92.316 94.588 92.172 94.204 92.172H93.988C93.004 92.46 92.428 93.372 92.26 94.908C92.212 95.112 92.188 95.472 92.188 95.988ZM101.116 89.004C101.596 89.004 101.836 89.532 101.836 90.588C101.884 91.188 101.908 91.5 101.908 91.524C101.812 94.524 101.764 96.54 101.764 97.572C101.812 99.672 101.86 100.824 101.908 101.028C101.86 101.208 101.836 101.424 101.836 101.676V101.82C101.836 102.024 101.86 102.288 101.908 102.612C101.908 103.02 101.62 103.284 101.044 103.404C100.648 103.404 100.408 103.116 100.324 102.54C100.324 101.4 100.276 99.576 100.18 97.068C100.276 94.584 100.324 92.616 100.324 91.164C100.324 91.032 100.3 90.552 100.252 89.724C100.252 89.328 100.54 89.088 101.116 89.004ZM113.3 88.806C113.972 88.806 114.308 89.55 114.308 91.038C114.308 91.998 113.828 92.478 112.868 92.478H106.388V93.054H106.46C107.456 93.054 109.88 93.03 113.732 92.982C114.26 93.078 114.524 93.318 114.524 93.702V93.846C114.416 94.326 114.176 94.566 113.804 94.566C113.132 94.566 110.396 94.59 105.596 94.638C105.176 94.638 104.936 94.254 104.876 93.486C104.828 93.234 104.804 92.778 104.804 92.118V91.902C104.804 91.23 105.284 90.894 106.244 90.894H112.724V90.75L112.652 90.39C108.896 90.438 106.544 90.462 105.596 90.462C105.068 90.366 104.804 90.102 104.804 89.67C104.804 89.202 105.092 88.938 105.668 88.878C107.564 88.878 110.108 88.854 113.3 88.806ZM104.084 95.574C104.804 95.622 105.332 95.646 105.668 95.646H106.892C108.896 95.646 111.632 95.67 115.1 95.718C115.532 95.886 115.748 96.126 115.748 96.438V96.582C115.64 97.062 115.4 97.302 115.028 97.302C112.904 97.254 111.248 97.23 110.06 97.23H106.604C106.556 97.23 106.532 97.206 106.532 97.158C106.484 97.158 106.46 97.182 106.46 97.23L106.1 97.158H104.012C103.7 97.158 103.46 96.99 103.292 96.654V96.366C103.292 96.006 103.556 95.742 104.084 95.574ZM105.578 98.13H110.402C112.898 98.13 114.146 98.25 114.146 98.49C114.29 98.862 114.362 99.462 114.362 100.29C114.362 101.442 113.858 102.018 112.85 102.018C111.674 102.066 109.514 102.114 106.37 102.162V102.99H109.61C110.45 102.99 111.314 103.014 112.202 103.062C112.418 103.014 112.946 102.99 113.786 102.99C114.242 102.99 114.482 103.302 114.506 103.926C114.362 104.358 114.05 104.574 113.57 104.574H105.722C105.098 104.466 104.786 104.226 104.786 103.854L104.858 103.35V103.206C104.858 102.978 104.834 102.678 104.786 102.306C104.786 101.154 105.194 100.578 106.01 100.578C106.202 100.578 106.298 100.602 106.298 100.65C106.346 100.65 106.538 100.626 106.874 100.578C109.922 100.53 111.722 100.506 112.274 100.506L112.778 100.434V99.714C110.558 99.666 108.83 99.642 107.594 99.642H105.794C105.686 99.642 105.59 99.666 105.506 99.714C105.182 99.714 104.918 99.522 104.714 99.138V98.85C104.714 98.418 105.002 98.178 105.578 98.13ZM123.28 90.678H128.176C128.704 90.762 128.968 91.026 128.968 91.47V91.686C128.968 93.222 128.272 95.142 126.88 97.446C125.044 99.702 123.796 100.83 123.136 100.83C122.812 100.746 122.596 100.578 122.488 100.326V99.966C122.488 99.702 123.088 99.078 124.288 98.094C126.016 96.162 126.976 94.434 127.168 92.91C127.264 92.55 127.312 92.334 127.312 92.262H122.92C122.392 92.166 122.128 91.926 122.128 91.542V91.47C122.128 90.942 122.512 90.678 123.28 90.678ZM132.982 89.004C133.462 89.004 133.702 89.532 133.702 90.588C133.75 91.188 133.774 91.5 133.774 91.524C133.678 94.524 133.63 96.54 133.63 97.572C133.678 99.672 133.726 100.824 133.774 101.028C133.726 101.208 133.702 101.424 133.702 101.676V101.82C133.702 102.024 133.726 102.288 133.774 102.612C133.774 103.02 133.486 103.284 132.91 103.404C132.514 103.404 132.274 103.116 132.19 102.54C132.19 101.4 132.142 99.576 132.046 97.068C132.142 94.584 132.19 92.616 132.19 91.164C132.19 91.032 132.166 90.552 132.118 89.724C132.118 89.328 132.406 89.088 132.982 89.004ZM141.287 90.552C141.743 90.552 141.983 90.864 142.007 91.488C142.007 91.92 141.311 92.136 139.919 92.136H136.823L136.967 98.76H137.615C139.643 98.76 141.203 98.664 142.295 98.472C142.823 98.58 143.087 98.82 143.087 99.192V99.336C143.087 99.912 142.295 100.2 140.711 100.2C139.919 100.296 138.599 100.344 136.751 100.344H136.319C135.695 100.284 135.383 99.972 135.383 99.408C135.323 94.032 135.251 91.344 135.167 91.344C135.167 90.816 135.815 90.552 137.111 90.552H141.287ZM145.445 89.184C145.781 89.184 146.021 89.4 146.165 89.832C146.165 90.096 146.141 90.36 146.093 90.624C146.141 91.86 146.165 92.916 146.165 93.792V94.728H148.181C148.517 94.896 148.685 95.136 148.685 95.448C148.685 96.024 148.277 96.312 147.461 96.312H146.165V100.416C146.165 101.04 146.189 101.856 146.237 102.864C146.105 103.344 145.865 103.584 145.517 103.584H145.373C144.893 103.488 144.653 103.248 144.653 102.864C144.653 102.132 144.629 101.292 144.581 100.344C144.581 99.792 144.605 98.712 144.653 97.104C144.605 94.392 144.581 92.04 144.581 90.048C144.701 89.472 144.989 89.184 145.445 89.184ZM151.222 90.354H151.582C152.53 90.354 153.946 90.378 155.83 90.426C156.262 90.57 156.478 90.882 156.478 91.362V95.034C156.478 95.562 156.142 95.922 155.47 96.114C153.19 96.162 151.894 96.186 151.582 96.186V96.258C151.63 96.342 151.654 96.438 151.654 96.546V98.85L151.798 99.066C152.314 99.066 154.162 98.97 157.342 98.778C157.774 98.922 157.99 99.21 157.99 99.642C157.99 100.218 157.054 100.506 155.182 100.506C153.898 100.554 152.746 100.578 151.726 100.578H151.15C150.478 100.578 150.142 100.026 150.142 98.922C150.094 97.854 150.07 96.75 150.07 95.61C150.202 94.938 150.538 94.602 151.078 94.602H154.966V93.018C154.966 92.778 154.942 92.418 154.894 91.938H150.934C150.55 91.938 150.262 91.77 150.07 91.434V91.074C150.07 90.594 150.454 90.354 151.222 90.354ZM161.572 89.22C161.86 89.22 162.124 89.436 162.364 89.868L162.292 91.02C162.292 91.62 162.316 92.364 162.364 93.252C162.316 93.672 162.292 93.936 162.292 94.044C162.34 94.548 162.364 95.1 162.364 95.7C162.364 95.724 162.34 95.82 162.292 95.988C162.292 96.036 162.316 96.06 162.364 96.06C162.316 96.72 162.292 97.128 162.292 97.284C162.292 97.932 162.268 99.66 162.22 102.468L162.292 102.972C162.292 103.356 162.004 103.62 161.428 103.764C160.948 103.632 160.708 103.368 160.708 102.972V99.804C160.708 99.468 160.732 98.94 160.78 98.22C160.408 98.22 159.736 98.196 158.764 98.148C158.344 98.196 158.08 98.22 157.972 98.22C157.564 98.22 157.3 97.932 157.18 97.356C157.18 96.828 157.78 96.564 158.98 96.564C159.232 96.612 159.472 96.636 159.7 96.636H160.78V94.044H158.044C157.468 93.996 157.18 93.756 157.18 93.324V93.18C157.18 92.7 157.564 92.46 158.332 92.46H160.78L160.708 91.452C160.708 90.012 160.924 89.292 161.356 89.292C161.404 89.292 161.476 89.268 161.572 89.22ZM165.65 89.922C166.442 89.97 167.042 89.994 167.45 89.994C168.806 89.994 170.126 89.97 171.41 89.922C172.058 89.97 172.514 89.994 172.778 89.994C173.534 89.946 174.254 89.922 174.938 89.922C175.346 89.922 175.61 90.21 175.73 90.786C175.61 91.266 175.298 91.506 174.794 91.506H170.978C170.978 92.694 172.058 93.726 174.218 94.602C175.046 94.602 175.502 94.866 175.586 95.394V95.61C175.586 95.97 175.346 96.186 174.866 96.258H174.65C173.534 96.258 172.142 95.538 170.474 94.098C170.474 93.978 170.354 93.81 170.114 93.594C169.238 94.878 167.774 95.814 165.722 96.402H165.578C165.194 96.402 164.954 96.138 164.858 95.61C164.858 95.142 165.458 94.758 166.658 94.458C168.338 93.498 169.178 92.538 169.178 91.578V91.506L168.674 91.578H168.53C166.274 91.578 165.146 91.434 165.146 91.146C165.05 90.954 165.002 90.786 165.002 90.642C165.002 90.414 165.218 90.174 165.65 89.922ZM164.552 97.248C165.764 97.296 166.724 97.32 167.432 97.32H172.832C173.432 97.32 174.176 97.296 175.064 97.248C176.072 97.248 176.576 97.56 176.576 98.184C176.576 98.436 176.336 98.676 175.856 98.904L175.424 98.832C173.576 98.88 172.136 98.904 171.104 98.904H170.888L170.96 99.624V103.368C170.96 103.896 170.648 104.16 170.024 104.16C169.592 104.016 169.376 103.704 169.376 103.224V98.904H169.304C166.436 98.856 164.828 98.832 164.48 98.832C164.096 98.832 163.856 98.568 163.76 98.04C163.76 97.716 164.024 97.452 164.552 97.248ZM181.919 90.642H182.063C182.543 90.642 182.783 91.098 182.783 92.01C182.783 93.93 183.407 95.946 184.655 98.058C185.423 98.79 185.807 99.27 185.807 99.498V99.642C185.807 100.038 185.543 100.278 185.015 100.362C184.235 100.182 183.371 99.15 182.423 97.266C182.135 96.57 181.991 96.186 181.991 96.114H181.919C180.623 99.09 179.567 100.578 178.751 100.578H178.607C178.175 100.518 177.959 100.302 177.959 99.93V99.786C177.959 99.582 178.343 99.054 179.111 98.202C180.551 96.054 181.271 93.678 181.271 91.074C181.463 90.786 181.679 90.642 181.919 90.642ZM190.577 89.076H190.649C190.949 89.076 191.189 89.268 191.369 89.652C191.369 90.996 191.393 92.412 191.441 93.9C191.393 96.996 191.369 99.948 191.369 102.756C191.285 103.284 191.045 103.548 190.649 103.548H190.505C190.025 103.548 189.785 103.116 189.785 102.252V101.388C189.785 100.872 189.809 100.464 189.857 100.164C189.809 99.756 189.785 99.42 189.785 99.156C189.785 97.8 189.833 96.384 189.929 94.908C189.881 94.02 189.857 93.06 189.857 92.028V89.94C189.905 89.364 190.145 89.076 190.577 89.076ZM187.985 89.364C188.465 89.568 188.705 89.856 188.705 90.228C188.705 90.516 188.681 90.948 188.633 91.524C188.633 92.46 188.657 93.756 188.705 95.412C188.657 97.728 188.633 100.008 188.633 102.252C188.525 102.732 188.285 102.972 187.913 102.972H187.769C187.385 102.972 187.145 102.708 187.049 102.18C187.097 98.94 187.121 96.9 187.121 96.06H187.049C186.557 96.108 186.173 96.132 185.897 96.132H185.537C185.057 96.06 184.817 95.844 184.817 95.484V95.268C184.817 94.74 185.585 94.476 187.121 94.476C187.121 94.296 187.097 93.696 187.049 92.676C187.097 91.14 187.121 90.252 187.121 90.012C187.265 89.58 187.553 89.364 187.985 89.364ZM199.36 90.75C201.112 90.75 202.648 91.35 203.968 92.55C204.448 93.294 204.688 94.23 204.688 95.358C204.688 96.762 203.656 97.914 201.592 98.814C200.752 98.958 200.104 99.03 199.648 99.03H199.216C197.584 99.03 196.216 98.43 195.112 97.23C194.584 96.498 194.32 95.706 194.32 94.854C194.32 93.606 194.944 92.526 196.192 91.614C197.344 91.074 198.4 90.786 199.36 90.75ZM195.904 94.782V94.926C195.904 96.258 196.864 97.098 198.784 97.446H199.72C201.34 97.446 202.444 96.87 203.032 95.718C203.08 95.634 203.104 95.538 203.104 95.43V95.286C203.104 94.002 202.72 93.234 201.952 92.982C201.136 92.55 200.2 92.334 199.144 92.334C198.112 92.334 197.176 92.742 196.336 93.558C196.048 94.11 195.904 94.518 195.904 94.782ZM201.682 97.842C202.21 97.842 202.474 98.25 202.474 99.066V99.21C202.474 99.774 202.498 100.422 202.546 101.154H202.618C203.014 101.154 203.878 101.178 205.21 101.226C205.486 101.322 205.678 101.49 205.786 101.73V102.018C205.69 102.498 205.45 102.738 205.066 102.738H193.546C193.066 102.642 192.826 102.402 192.826 102.018V101.946C192.826 101.418 193.234 101.154 194.05 101.154H196.066L196.138 100.434V98.706C196.222 98.178 196.486 97.914 196.93 97.914C197.374 97.914 197.638 98.25 197.722 98.922V99.93C197.722 100.182 197.698 100.59 197.65 101.154H200.962C200.914 99.57 200.89 98.682 200.89 98.49C201.046 98.058 201.31 97.842 201.682 97.842Z" fill="black"/>
</svg>
