<svg width="119" height="57" viewBox="0 0 119 57" fill="none" xmlns="http://www.w3.org/2000/svg">
<g filter="url(#filter0_d_611_2475)">
<path d="M20.946 20.94H22.706C25.8594 20.94 28.0594 22.1133 29.306 24.46V25.12C28.8294 26.44 28.0227 27.1 26.886 27.1C24.1727 26.0733 22.486 25.56 21.826 25.56C18.2327 25.56 15.7394 27.2467 14.346 30.62C13.906 32.1967 13.686 33.5167 13.686 34.58V35.02C13.686 39.2733 15.5194 41.9867 19.186 43.16C20.2494 43.3067 20.836 43.38 20.946 43.38C22.266 43.38 24.5394 42.7933 27.766 41.62C28.316 41.62 28.976 42.1333 29.746 43.16V44.26C29.746 45.9833 27.3994 47.23 22.706 48H20.066C16.2527 48 13.026 45.9467 10.386 41.84C9.35937 39.09 8.84604 36.7433 8.84604 34.8C8.84604 28.2367 11.6327 23.8367 17.206 21.6C18.3794 21.16 19.626 20.94 20.946 20.94ZM37.5846 9.06H39.1246C40.1513 9.57333 40.6646 10.3067 40.6646 11.26V41.4C40.6646 42.6467 41.3979 43.5267 42.8646 44.04C43.3046 44.8467 43.5246 45.4333 43.5246 45.8C43.1579 47.2667 42.3513 48 41.1046 48C38.9046 48 37.2913 46.6067 36.2646 43.82C35.9713 43.16 35.8246 42.2067 35.8246 40.96V29.74C35.8246 27.87 35.8979 25.7433 36.0446 23.36C35.8979 22.5533 35.8246 21.7467 35.8246 20.94C35.9713 16.8333 36.0446 13.46 36.0446 10.82C36.3379 9.97666 36.8513 9.39 37.5846 9.06ZM52.6634 9.94C54.8634 10.4533 55.9634 11.48 55.9634 13.02V13.24C55.9634 15.2933 54.9367 16.32 52.8834 16.32C50.3901 15.9167 49.1434 14.89 49.1434 13.24V13.02C49.1434 11.48 50.3167 10.4533 52.6634 9.94ZM52.6634 21.16C53.8367 21.16 54.5701 22.1133 54.8634 24.02V29.3C54.8634 32.4533 54.7901 35.3867 54.6434 38.1C54.7901 39.1267 54.8634 41.6933 54.8634 45.8C54.5334 47.2667 53.8001 48 52.6634 48H52.2234C50.9034 48 50.1701 47.12 50.0234 45.36V24.02C50.0234 22.1133 50.9034 21.16 52.6634 21.16ZM73.7015 20.94H75.4615C78.6149 20.94 80.8149 22.1133 82.0615 24.46V25.12C81.5849 26.44 80.7782 27.1 79.6415 27.1C76.9282 26.0733 75.2415 25.56 74.5815 25.56C70.9882 25.56 68.4949 27.2467 67.1015 30.62C66.6615 32.1967 66.4415 33.5167 66.4415 34.58V35.02C66.4415 39.2733 68.2749 41.9867 71.9415 43.16C73.0049 43.3067 73.5915 43.38 73.7015 43.38C75.0215 43.38 77.2949 42.7933 80.5215 41.62C81.0715 41.62 81.7315 42.1333 82.5015 43.16V44.26C82.5015 45.9833 80.1549 47.23 75.4615 48H72.8215C69.0082 48 65.7815 45.9467 63.1415 41.84C62.1149 39.09 61.6015 36.7433 61.6015 34.8C61.6015 28.2367 64.3882 23.8367 69.9615 21.6C71.1349 21.16 72.3815 20.94 73.7015 20.94ZM91.3301 8.4C92.9434 8.65666 93.7501 9.46333 93.7501 10.82C93.7501 14.4133 93.6768 21.8933 93.5301 33.26C97.0134 28.86 100.533 24.9 104.09 21.38C104.603 20.5 105.263 20.06 106.07 20.06H106.73C108.05 20.2433 108.71 20.9033 108.71 22.04V22.48C108.71 23.47 106.363 26.2567 101.67 30.84L101.23 31.5C103.833 35.8267 106.767 40.3733 110.03 45.14V45.8C110.03 46.7533 109.517 47.4867 108.49 48H107.61C106.107 48 103.613 44.8467 100.13 38.54L97.9301 35.46C96.3901 37.5867 94.9234 39.42 93.5301 40.96V45.58C93.3468 47.0467 92.6868 47.78 91.5501 47.78H90.8901C89.7901 47.78 89.1301 47.0467 88.9101 45.58C88.9101 44.92 88.8368 42.72 88.6901 38.98C88.6901 38.8333 88.7634 38.76 88.9101 38.76C88.9101 38.6133 88.8368 38.3933 88.6901 38.1C88.6901 33.59 88.8368 24.9367 89.1301 12.14C88.9834 11.5533 88.9101 11.04 88.9101 10.6C89.3134 9.13333 90.1201 8.4 91.3301 8.4Z" fill="white"/>
</g>
<defs>
<filter id="filter0_d_611_2475" x="0.64607" y="0.200025" width="117.584" height="56" filterUnits="userSpaceOnUse" color-interpolation-filters="sRGB">
<feFlood flood-opacity="0" result="BackgroundImageFix"/>
<feColorMatrix in="SourceAlpha" type="matrix" values="0 0 0 0 0 0 0 0 0 0 0 0 0 0 0 0 0 0 127 0" result="hardAlpha"/>
<feOffset/>
<feGaussianBlur stdDeviation="4.1"/>
<feComposite in2="hardAlpha" operator="out"/>
<feColorMatrix type="matrix" values="0 0 0 0 1 0 0 0 0 0.225195 0 0 0 0 0.767559 0 0 0 0.42 0"/>
<feBlend mode="normal" in2="BackgroundImageFix" result="effect1_dropShadow_611_2475"/>
<feBlend mode="normal" in="SourceGraphic" in2="effect1_dropShadow_611_2475" result="shape"/>
</filter>
</defs>
</svg>
