<svg width="359" height="57" viewBox="0 0 359 57" fill="none" xmlns="http://www.w3.org/2000/svg">
<g clip-path="url(#clip0_908_1521)">
<mask id="path-1-inside-1_908_1521" fill="white">
<path d="M339.765 56.2144C338.277 56.2144 338.277 56.3912 336.789 56.3912C335.301 56.3912 335.301 56.401 333.813 56.401C332.325 56.401 332.325 56.1359 330.838 56.1359C329.35 56.1359 329.35 56.185 327.862 56.185C326.374 56.185 326.374 56.1163 324.886 56.1163C323.399 56.1163 323.399 56.2439 321.911 56.2439C320.423 56.2439 320.423 55.969 318.935 55.969C317.447 55.969 317.447 56.9411 315.959 56.9411C314.472 56.9411 314.472 56.892 312.984 56.892C311.496 56.892 311.496 56.0672 310.008 56.0672C308.52 56.0672 308.52 56.0868 307.032 56.0868C305.545 56.0868 305.545 56.2341 304.057 56.2341C302.569 56.2341 302.569 56.7545 301.081 56.7545C299.593 56.7545 299.593 56.1555 298.106 56.1555C296.618 56.1555 296.618 56.5778 295.13 56.5778C293.642 56.5778 293.642 56.3912 292.154 56.3912C290.666 56.3912 290.666 56.3126 289.179 56.3126C287.691 56.3126 287.691 56.5385 286.203 56.5385C284.715 56.5385 284.715 56.7349 283.227 56.7349C281.74 56.7349 281.739 56.9018 280.252 56.9018C278.764 56.9018 278.764 56.4207 277.276 56.4207C275.788 56.4207 275.788 55.969 274.3 55.969C272.813 55.969 272.813 56.6367 271.325 56.6367C269.837 56.6367 269.837 56.0377 268.349 56.0377C266.861 56.0377 266.861 56.2537 265.373 56.2537C263.886 56.2537 263.886 56.7349 262.398 56.7349C260.91 56.7349 260.91 56.892 259.422 56.892C257.934 56.892 257.934 56.1064 256.447 56.1064C254.959 56.1064 254.959 56.3323 253.471 56.3323C251.983 56.3323 251.983 56.4403 250.495 56.4403C249.007 56.4403 249.007 56.1163 247.52 56.1163C246.032 56.1163 246.032 56.1359 244.544 56.1359C243.056 56.1359 243.056 56.9705 241.568 56.9705C240.08 56.9705 240.08 56.2144 238.593 56.2144C237.105 56.2144 237.105 56.8822 235.617 56.8822C234.129 56.8822 234.129 56.1654 232.641 56.1654C231.154 56.1654 231.154 56.6661 229.666 56.6661C228.178 56.6661 228.178 56.9411 226.69 56.9411C225.202 56.9411 225.202 56.4796 223.714 56.4796C222.227 56.4796 222.227 56.9804 220.739 56.9804C219.251 56.9804 219.251 56.8625 217.763 56.8625C216.275 56.8625 216.275 56.1752 214.787 56.1752C213.3 56.1752 213.3 56.5581 211.812 56.5581C210.324 56.5581 210.324 56.1555 208.836 56.1555C207.348 56.1555 207.348 56.3617 205.861 56.3617C204.373 56.3617 204.373 56.4108 202.885 56.4108C201.397 56.4108 201.397 56.2832 199.909 56.2832C198.421 56.2832 198.421 56.0181 196.934 56.0181C195.446 56.0181 195.446 56.7349 193.958 56.7349C192.47 56.7349 192.47 56.1163 190.982 56.1163C189.494 56.1163 189.494 56.892 188.007 56.892C186.519 56.892 186.519 56.9509 185.031 56.9509C183.543 56.9509 183.543 56.6465 182.055 56.6465C180.568 56.6465 180.568 56.4698 179.08 56.4698C177.592 56.4698 177.592 56.8527 176.104 56.8527C174.616 56.8527 174.616 56.7447 173.128 56.7447C171.641 56.7447 171.641 56.3716 170.153 56.3716C168.665 56.3716 168.665 56.0966 167.177 56.0966C165.689 56.0966 165.689 56.0966 164.201 56.0966C162.714 56.0966 162.714 56.0181 161.226 56.0181C159.738 56.0181 159.738 56.9116 158.237 56.9116C156.736 56.9116 156.749 56.3617 155.261 56.3617C153.773 56.3617 153.773 56.0377 152.286 56.0377C150.798 56.0377 150.798 56.5778 149.31 56.5778C147.822 56.5778 147.822 56.9411 146.334 56.9411C144.846 56.9411 144.847 56.8724 143.359 56.8724C141.871 56.8724 141.871 56.7938 140.383 56.7938C138.895 56.7938 138.895 56.9313 137.407 56.9313C135.92 56.9313 135.92 56.3519 134.418 56.3519C132.917 56.3519 132.931 56.2832 131.443 56.2832C129.955 56.2832 129.955 56.293 128.467 56.293C126.979 56.293 126.979 56.0181 125.492 56.0181C124.004 56.0181 124.004 56.7742 122.516 56.7742C121.028 56.7742 121.028 56.0377 119.527 56.0377C118.026 56.0377 118.039 55.9886 116.551 55.9886C115.063 55.9886 115.063 56.9804 113.576 56.9804C112.088 56.9804 112.088 56.4698 110.6 56.4698C109.112 56.4698 109.112 56.8429 107.624 56.8429C106.137 56.8429 106.137 56.5876 104.635 56.5876C103.134 56.5876 103.148 56.3323 101.66 56.3323C100.172 56.3323 100.172 56.1948 98.6841 56.1948C97.1963 56.1948 97.1963 57 95.6952 57C94.1941 57 94.2074 56.9018 92.7063 56.9018C91.2052 56.9018 91.2185 56.0082 89.7306 56.0082C88.2428 56.0082 88.2428 56.6563 86.7417 56.6563C85.2406 56.6563 85.2539 56.3323 83.7528 56.3323C82.2517 56.3323 82.2649 56.4992 80.7771 56.4992C79.2893 56.4992 79.2893 56.2243 77.8015 56.2243C76.3137 56.2243 76.3137 56.6563 74.8258 56.6563C73.338 56.6563 73.338 56.7643 71.8369 56.7643C70.3358 56.7643 70.3491 56.9018 68.848 56.9018C67.3469 56.9018 67.3601 56.8527 65.8723 56.8527C64.3845 56.8527 64.3845 56.892 62.8967 56.892C61.4089 56.892 61.4089 56.7349 59.9077 56.7349C58.4066 56.7349 58.4199 56.8233 56.9321 56.8233C55.4443 56.8233 55.4443 56.1555 53.9432 56.1555C52.4421 56.1555 52.4554 56.3617 50.9542 56.3617C49.4531 56.3617 49.4664 56.3028 47.9653 56.3028C46.4642 56.3028 46.4775 56.4796 44.9764 56.4796C43.4753 56.4796 43.4886 56.5189 41.9875 56.5189C40.4863 56.5189 40.4996 56.8331 38.9985 56.8331C37.4974 56.8331 37.5107 56.0279 36.0229 56.0279C34.5351 56.0279 34.5351 56.617 33.0339 56.617C31.5328 56.617 31.5461 56.401 30.045 56.401C28.5439 56.401 28.5439 56.0181 27.0561 56.0181C25.5683 56.0181 25.555 56.0573 24.0672 56.0573C22.5793 56.0573 22.5661 55.9984 21.0782 55.9984C19.5904 55.9984 19.5771 56.3912 18.0893 56.3912C17.1063 56.3912 16.11 56.5385 15.1801 56.4305C14.2502 56.3225 13.2804 56.0672 12.3771 55.8511C11.4738 55.6351 10.8096 54.9674 9.95941 54.6434C9.10923 54.3193 8.21919 54.0935 7.44871 53.6712C6.67823 53.249 5.40295 53.2294 4.72546 52.7187C4.04797 52.2081 3.1845 51.727 2.61328 51.1476C2.04207 50.5683 2.18819 49.6256 1.74982 48.9874C1.31144 48.3491 0.301845 47.8581 0.00959411 47.1708C-0.282657 46.4834 0.394834 45.6291 0.248708 44.9123C0.102583 44.1955 -0.256089 43.5474 -0.256089 42.8208C-0.256089 41.7603 0.235424 41.7603 0.235424 40.69C0.235424 39.6197 -0.442066 39.6295 -0.442066 38.5592C-0.442066 37.4889 -1 37.4889 -1 36.4284C-1 35.3679 -0.1631 35.3679 -0.1631 34.2976C-0.1631 33.2272 0.0361623 33.2273 0.0361623 32.1668C0.0361623 31.1063 -0.096679 31.0964 -0.096679 30.0359C-0.096679 28.9755 -0.428782 28.9755 -0.428782 27.9051C-0.428782 26.8348 -0.0435423 26.8446 -0.0435423 25.7743C-0.0435423 24.704 -0.907011 24.704 -0.907011 23.6435C-0.907011 22.583 0.0892988 22.5732 0.0892988 21.5127C0.0892988 20.4522 -0.00369004 20.4424 -0.00369004 19.3819C-0.00369004 18.3214 -0.269373 18.3116 -0.269373 17.2413C-0.269373 16.171 -0.667897 16.171 -0.667897 15.1006C-0.667897 14.374 0.142436 13.7063 0.301845 13.0091C0.461255 12.3119 0.966052 11.713 1.2583 11.0452C1.55055 10.3775 1.67011 9.69998 2.10849 9.06172C2.54686 8.42346 2.97196 7.8343 3.54317 7.26477C4.11439 6.69525 4.14096 5.76241 4.81845 5.26162C5.49594 4.76083 6.91734 4.90812 7.70111 4.48588C8.48487 4.06365 8.9631 3.36647 9.82657 3.04243C10.69 2.71839 11.6199 2.60056 12.5498 2.38453C13.4797 2.16851 14.3166 1.90338 15.2863 1.78555C16.2561 1.66772 17.1594 1.23567 18.1424 1.23567C19.6303 1.23567 19.6303 1.01964 21.1181 1.01964C22.6059 1.01964 22.6059 1.74627 24.0937 1.74627C25.5816 1.74627 25.5815 1.707 27.0694 1.707C28.5572 1.707 28.5572 1.54989 30.045 1.54989C31.5328 1.54989 31.5328 1.09819 33.0207 1.09819C34.5085 1.09819 34.5085 1.67754 35.9963 1.67754C37.4841 1.67754 37.4841 1.79537 38.972 1.79537C40.4598 1.79537 40.4598 1.41241 41.9476 1.41241C43.4354 1.41241 43.4354 1.14729 44.9232 1.14729C46.4111 1.14729 46.4111 1.23567 47.8989 1.23567C49.3867 1.23567 49.3867 1.79537 50.8745 1.79537C52.3624 1.79537 52.3624 1.94266 53.8502 1.94266C55.338 1.94266 55.338 1.44187 56.8258 1.44187C58.3137 1.44187 58.3137 1.54989 59.8015 1.54989C61.2893 1.54989 61.2893 1.61862 62.7771 1.61862C64.2649 1.61862 64.2649 1.36332 65.7528 1.36332C67.2406 1.36332 67.2406 1.89356 68.7284 1.89356C70.2162 1.89356 70.2162 1.51061 71.7041 1.51061C73.1919 1.51061 73.1919 1.58916 74.6797 1.58916C76.1675 1.58916 76.1675 1.50079 77.6554 1.50079C79.1432 1.50079 79.1432 1.07856 80.631 1.07856C82.1188 1.07856 82.1188 1.54989 83.6066 1.54989C85.0945 1.54989 85.0945 1.75609 86.5823 1.75609C88.0701 1.75609 88.0701 1.69718 89.5579 1.69718C91.0458 1.69718 91.0458 1.10801 92.5336 1.10801C94.0214 1.10801 94.0214 1.47133 95.5092 1.47133C96.9971 1.47133 96.9971 1.63826 98.4849 1.63826C99.9727 1.63826 99.9727 1.12765 101.461 1.12765C102.948 1.12765 102.948 1.05892 104.436 1.05892C105.924 1.05892 105.924 1.54007 107.412 1.54007C108.9 1.54007 108.9 1.34368 110.387 1.34368C111.875 1.34368 111.875 1.85429 113.363 1.85429C114.851 1.85429 114.851 1.3044 116.339 1.3044C117.827 1.3044 117.827 1.05892 119.314 1.05892C120.802 1.05892 120.802 1.59898 122.29 1.59898C123.778 1.59898 123.778 1.10801 125.266 1.10801C126.754 1.10801 126.754 1.92302 128.241 1.92302C129.729 1.92302 129.729 1.48115 131.217 1.48115C132.705 1.48115 132.705 1.3044 134.193 1.3044C135.68 1.3044 135.68 1.79537 137.168 1.79537C138.656 1.79537 138.656 1.10801 140.144 1.10801C141.632 1.10801 141.632 1.84447 143.12 1.84447C144.607 1.84447 144.607 1.87393 146.095 1.87393C147.583 1.87393 147.583 1.39278 149.071 1.39278C150.559 1.39278 150.559 1.49097 152.046 1.49097C153.534 1.49097 153.534 1.15711 155.022 1.15711C156.51 1.15711 156.51 1.17675 157.998 1.17675C159.486 1.17675 159.486 1.95248 160.973 1.95248C162.461 1.95248 162.461 1.52043 163.949 1.52043C165.437 1.52043 165.437 1.67754 166.925 1.67754C168.413 1.67754 168.413 2.00158 169.9 2.00158C171.388 2.00158 171.388 1.22585 172.876 1.22585C174.364 1.22585 174.364 1.01964 175.852 1.01964C177.34 1.01964 177.339 1.38296 178.827 1.38296C180.315 1.38296 180.315 1.16693 181.803 1.16693C183.291 1.16693 183.291 1.51061 184.779 1.51061C186.266 1.51061 186.266 1.38296 187.754 1.38296C189.242 1.38296 189.242 1.36332 190.73 1.36332C192.218 1.36332 192.218 1 193.706 1C195.193 1 195.193 1.33386 196.681 1.33386C198.169 1.33386 198.169 1.707 199.67 1.707C201.171 1.707 201.158 1.4026 202.646 1.4026C204.134 1.4026 204.134 1.90338 205.621 1.90338C207.109 1.90338 207.109 1.32404 208.597 1.32404C210.085 1.32404 210.085 1.26512 211.573 1.26512C213.061 1.26512 213.061 1.23567 214.548 1.23567C216.036 1.23567 216.036 1.87393 217.524 1.87393C219.012 1.87393 219.012 1.17675 220.5 1.17675C221.987 1.17675 221.987 1.01964 223.489 1.01964C224.99 1.01964 224.976 1.89356 226.464 1.89356C227.952 1.89356 227.952 1.94266 229.44 1.94266C230.928 1.94266 230.928 1.86411 232.416 1.86411C233.903 1.86411 233.903 1.81501 235.391 1.81501C236.879 1.81501 236.879 1.15711 238.38 1.15711C239.881 1.15711 239.868 1.03928 241.356 1.03928C242.844 1.03928 242.844 1.89356 244.331 1.89356C245.819 1.89356 245.819 1.61862 247.307 1.61862C248.795 1.61862 248.795 1.02946 250.283 1.02946C251.771 1.02946 251.77 1.48115 253.272 1.48115C254.773 1.48115 254.759 1.62844 256.247 1.62844C257.735 1.62844 257.735 1 259.223 1C260.711 1 260.711 1.03928 262.212 1.03928C263.713 1.03928 263.7 1.09819 265.201 1.09819C266.702 1.09819 266.689 1.23567 268.176 1.23567C269.664 1.23567 269.664 1.15711 271.165 1.15711C272.666 1.15711 272.653 1.54989 274.154 1.54989C275.655 1.54989 275.642 1.80519 277.13 1.80519C278.618 1.80519 278.618 1.24548 280.106 1.24548C281.593 1.24548 281.593 1.79537 283.081 1.79537C284.569 1.79537 284.569 1.71682 286.07 1.71682C287.571 1.71682 287.558 1.06874 289.059 1.06874C290.56 1.06874 290.547 1.53025 292.035 1.53025C293.523 1.53025 293.523 1.95248 295.01 1.95248C296.498 1.95248 296.498 1.17675 297.999 1.17675C299.5 1.17675 299.487 1.24548 300.975 1.24548C302.463 1.24548 302.463 1.56952 303.964 1.56952C305.465 1.56952 305.452 1.68736 306.953 1.68736C308.454 1.68736 308.441 1.94266 309.942 1.94266C311.443 1.94266 311.43 1.36332 312.931 1.36332C314.432 1.36332 314.418 1.0491 315.92 1.0491C317.421 1.0491 317.407 1.49097 318.908 1.49097C320.41 1.49097 320.396 1.52043 321.884 1.52043C323.372 1.52043 323.372 1.76591 324.873 1.76591C326.374 1.76591 326.361 1.16693 327.862 1.16693C329.363 1.16693 329.363 1.17675 330.851 1.17675C332.339 1.17675 332.352 1.17675 333.84 1.17675C335.328 1.17675 335.341 1.31422 336.829 1.31422C338.317 1.31422 338.33 1.86411 339.818 1.86411C340.801 1.86411 341.678 2.02122 342.607 2.12923C343.537 2.23724 344.613 1.94266 345.53 2.15869C346.447 2.37472 347.323 2.69876 348.187 3.0228C349.05 3.34684 349.847 3.73961 350.631 4.16184C351.415 4.58408 352.199 4.99649 352.889 5.5071C353.58 6.01771 354.125 6.60687 354.696 7.18622C355.267 7.76556 355.639 8.41364 356.078 9.0519C356.516 9.69016 356.516 10.407 356.808 11.0943C357.1 11.7817 357.871 12.3316 358.03 13.0386C358.19 13.7456 358.097 14.4428 358.097 15.1694C358.097 16.2299 358.708 16.2299 358.708 17.3002C358.708 18.3705 358.588 18.3607 358.588 19.431C358.588 20.5013 358.748 20.5013 358.748 21.5618C358.748 22.6223 359 22.6223 359 23.6926C359 24.7629 357.698 24.7629 357.698 25.8234C357.698 26.8839 357.977 26.8937 357.977 27.9542C357.977 29.0147 358.349 29.0147 358.349 30.085C358.349 31.1554 358.163 31.1455 358.163 32.2159C358.163 33.2862 358.256 33.2862 358.256 34.3467C358.256 35.4072 357.672 35.417 357.672 36.4775C357.672 37.538 357.618 37.5478 357.618 38.6083C357.618 39.6688 358.854 39.6786 358.854 40.7489C358.854 41.8192 358.269 41.8192 358.269 42.8895C358.269 43.6162 358.615 44.3723 358.469 45.0694C358.323 45.7666 357.884 46.4834 357.579 47.1511C357.273 47.8189 356.117 48.2313 355.692 48.8597C355.267 49.4882 354.789 50.0381 354.218 50.6076C353.647 51.1771 353.089 51.6681 352.411 52.1787C351.734 52.6893 351.813 53.8578 351.03 54.28C350.246 54.7023 349.342 55.1049 348.479 55.4289C347.616 55.7529 346.261 55.1932 345.344 55.4191C344.427 55.6449 343.604 55.861 342.647 55.9788C341.691 56.0966 340.827 56.2537 339.844 56.2537L339.765 56.2144Z"/>
</mask>
<path d="M339.765 56.2144C338.277 56.2144 338.277 56.3912 336.789 56.3912C335.301 56.3912 335.301 56.401 333.813 56.401C332.325 56.401 332.325 56.1359 330.838 56.1359C329.35 56.1359 329.35 56.185 327.862 56.185C326.374 56.185 326.374 56.1163 324.886 56.1163C323.399 56.1163 323.399 56.2439 321.911 56.2439C320.423 56.2439 320.423 55.969 318.935 55.969C317.447 55.969 317.447 56.9411 315.959 56.9411C314.472 56.9411 314.472 56.892 312.984 56.892C311.496 56.892 311.496 56.0672 310.008 56.0672C308.52 56.0672 308.52 56.0868 307.032 56.0868C305.545 56.0868 305.545 56.2341 304.057 56.2341C302.569 56.2341 302.569 56.7545 301.081 56.7545C299.593 56.7545 299.593 56.1555 298.106 56.1555C296.618 56.1555 296.618 56.5778 295.13 56.5778C293.642 56.5778 293.642 56.3912 292.154 56.3912C290.666 56.3912 290.666 56.3126 289.179 56.3126C287.691 56.3126 287.691 56.5385 286.203 56.5385C284.715 56.5385 284.715 56.7349 283.227 56.7349C281.74 56.7349 281.739 56.9018 280.252 56.9018C278.764 56.9018 278.764 56.4207 277.276 56.4207C275.788 56.4207 275.788 55.969 274.3 55.969C272.813 55.969 272.813 56.6367 271.325 56.6367C269.837 56.6367 269.837 56.0377 268.349 56.0377C266.861 56.0377 266.861 56.2537 265.373 56.2537C263.886 56.2537 263.886 56.7349 262.398 56.7349C260.91 56.7349 260.91 56.892 259.422 56.892C257.934 56.892 257.934 56.1064 256.447 56.1064C254.959 56.1064 254.959 56.3323 253.471 56.3323C251.983 56.3323 251.983 56.4403 250.495 56.4403C249.007 56.4403 249.007 56.1163 247.52 56.1163C246.032 56.1163 246.032 56.1359 244.544 56.1359C243.056 56.1359 243.056 56.9705 241.568 56.9705C240.08 56.9705 240.08 56.2144 238.593 56.2144C237.105 56.2144 237.105 56.8822 235.617 56.8822C234.129 56.8822 234.129 56.1654 232.641 56.1654C231.154 56.1654 231.154 56.6661 229.666 56.6661C228.178 56.6661 228.178 56.9411 226.69 56.9411C225.202 56.9411 225.202 56.4796 223.714 56.4796C222.227 56.4796 222.227 56.9804 220.739 56.9804C219.251 56.9804 219.251 56.8625 217.763 56.8625C216.275 56.8625 216.275 56.1752 214.787 56.1752C213.3 56.1752 213.3 56.5581 211.812 56.5581C210.324 56.5581 210.324 56.1555 208.836 56.1555C207.348 56.1555 207.348 56.3617 205.861 56.3617C204.373 56.3617 204.373 56.4108 202.885 56.4108C201.397 56.4108 201.397 56.2832 199.909 56.2832C198.421 56.2832 198.421 56.0181 196.934 56.0181C195.446 56.0181 195.446 56.7349 193.958 56.7349C192.47 56.7349 192.47 56.1163 190.982 56.1163C189.494 56.1163 189.494 56.892 188.007 56.892C186.519 56.892 186.519 56.9509 185.031 56.9509C183.543 56.9509 183.543 56.6465 182.055 56.6465C180.568 56.6465 180.568 56.4698 179.08 56.4698C177.592 56.4698 177.592 56.8527 176.104 56.8527C174.616 56.8527 174.616 56.7447 173.128 56.7447C171.641 56.7447 171.641 56.3716 170.153 56.3716C168.665 56.3716 168.665 56.0966 167.177 56.0966C165.689 56.0966 165.689 56.0966 164.201 56.0966C162.714 56.0966 162.714 56.0181 161.226 56.0181C159.738 56.0181 159.738 56.9116 158.237 56.9116C156.736 56.9116 156.749 56.3617 155.261 56.3617C153.773 56.3617 153.773 56.0377 152.286 56.0377C150.798 56.0377 150.798 56.5778 149.31 56.5778C147.822 56.5778 147.822 56.9411 146.334 56.9411C144.846 56.9411 144.847 56.8724 143.359 56.8724C141.871 56.8724 141.871 56.7938 140.383 56.7938C138.895 56.7938 138.895 56.9313 137.407 56.9313C135.92 56.9313 135.92 56.3519 134.418 56.3519C132.917 56.3519 132.931 56.2832 131.443 56.2832C129.955 56.2832 129.955 56.293 128.467 56.293C126.979 56.293 126.979 56.0181 125.492 56.0181C124.004 56.0181 124.004 56.7742 122.516 56.7742C121.028 56.7742 121.028 56.0377 119.527 56.0377C118.026 56.0377 118.039 55.9886 116.551 55.9886C115.063 55.9886 115.063 56.9804 113.576 56.9804C112.088 56.9804 112.088 56.4698 110.6 56.4698C109.112 56.4698 109.112 56.8429 107.624 56.8429C106.137 56.8429 106.137 56.5876 104.635 56.5876C103.134 56.5876 103.148 56.3323 101.66 56.3323C100.172 56.3323 100.172 56.1948 98.6841 56.1948C97.1963 56.1948 97.1963 57 95.6952 57C94.1941 57 94.2074 56.9018 92.7063 56.9018C91.2052 56.9018 91.2185 56.0082 89.7306 56.0082C88.2428 56.0082 88.2428 56.6563 86.7417 56.6563C85.2406 56.6563 85.2539 56.3323 83.7528 56.3323C82.2517 56.3323 82.2649 56.4992 80.7771 56.4992C79.2893 56.4992 79.2893 56.2243 77.8015 56.2243C76.3137 56.2243 76.3137 56.6563 74.8258 56.6563C73.338 56.6563 73.338 56.7643 71.8369 56.7643C70.3358 56.7643 70.3491 56.9018 68.848 56.9018C67.3469 56.9018 67.3601 56.8527 65.8723 56.8527C64.3845 56.8527 64.3845 56.892 62.8967 56.892C61.4089 56.892 61.4089 56.7349 59.9077 56.7349C58.4066 56.7349 58.4199 56.8233 56.9321 56.8233C55.4443 56.8233 55.4443 56.1555 53.9432 56.1555C52.4421 56.1555 52.4554 56.3617 50.9542 56.3617C49.4531 56.3617 49.4664 56.3028 47.9653 56.3028C46.4642 56.3028 46.4775 56.4796 44.9764 56.4796C43.4753 56.4796 43.4886 56.5189 41.9875 56.5189C40.4863 56.5189 40.4996 56.8331 38.9985 56.8331C37.4974 56.8331 37.5107 56.0279 36.0229 56.0279C34.5351 56.0279 34.5351 56.617 33.0339 56.617C31.5328 56.617 31.5461 56.401 30.045 56.401C28.5439 56.401 28.5439 56.0181 27.0561 56.0181C25.5683 56.0181 25.555 56.0573 24.0672 56.0573C22.5793 56.0573 22.5661 55.9984 21.0782 55.9984C19.5904 55.9984 19.5771 56.3912 18.0893 56.3912C17.1063 56.3912 16.11 56.5385 15.1801 56.4305C14.2502 56.3225 13.2804 56.0672 12.3771 55.8511C11.4738 55.6351 10.8096 54.9674 9.95941 54.6434C9.10923 54.3193 8.21919 54.0935 7.44871 53.6712C6.67823 53.249 5.40295 53.2294 4.72546 52.7187C4.04797 52.2081 3.1845 51.727 2.61328 51.1476C2.04207 50.5683 2.18819 49.6256 1.74982 48.9874C1.31144 48.3491 0.301845 47.8581 0.00959411 47.1708C-0.282657 46.4834 0.394834 45.6291 0.248708 44.9123C0.102583 44.1955 -0.256089 43.5474 -0.256089 42.8208C-0.256089 41.7603 0.235424 41.7603 0.235424 40.69C0.235424 39.6197 -0.442066 39.6295 -0.442066 38.5592C-0.442066 37.4889 -1 37.4889 -1 36.4284C-1 35.3679 -0.1631 35.3679 -0.1631 34.2976C-0.1631 33.2272 0.0361623 33.2273 0.0361623 32.1668C0.0361623 31.1063 -0.096679 31.0964 -0.096679 30.0359C-0.096679 28.9755 -0.428782 28.9755 -0.428782 27.9051C-0.428782 26.8348 -0.0435423 26.8446 -0.0435423 25.7743C-0.0435423 24.704 -0.907011 24.704 -0.907011 23.6435C-0.907011 22.583 0.0892988 22.5732 0.0892988 21.5127C0.0892988 20.4522 -0.00369004 20.4424 -0.00369004 19.3819C-0.00369004 18.3214 -0.269373 18.3116 -0.269373 17.2413C-0.269373 16.171 -0.667897 16.171 -0.667897 15.1006C-0.667897 14.374 0.142436 13.7063 0.301845 13.0091C0.461255 12.3119 0.966052 11.713 1.2583 11.0452C1.55055 10.3775 1.67011 9.69998 2.10849 9.06172C2.54686 8.42346 2.97196 7.8343 3.54317 7.26477C4.11439 6.69525 4.14096 5.76241 4.81845 5.26162C5.49594 4.76083 6.91734 4.90812 7.70111 4.48588C8.48487 4.06365 8.9631 3.36647 9.82657 3.04243C10.69 2.71839 11.6199 2.60056 12.5498 2.38453C13.4797 2.16851 14.3166 1.90338 15.2863 1.78555C16.2561 1.66772 17.1594 1.23567 18.1424 1.23567C19.6303 1.23567 19.6303 1.01964 21.1181 1.01964C22.6059 1.01964 22.6059 1.74627 24.0937 1.74627C25.5816 1.74627 25.5815 1.707 27.0694 1.707C28.5572 1.707 28.5572 1.54989 30.045 1.54989C31.5328 1.54989 31.5328 1.09819 33.0207 1.09819C34.5085 1.09819 34.5085 1.67754 35.9963 1.67754C37.4841 1.67754 37.4841 1.79537 38.972 1.79537C40.4598 1.79537 40.4598 1.41241 41.9476 1.41241C43.4354 1.41241 43.4354 1.14729 44.9232 1.14729C46.4111 1.14729 46.4111 1.23567 47.8989 1.23567C49.3867 1.23567 49.3867 1.79537 50.8745 1.79537C52.3624 1.79537 52.3624 1.94266 53.8502 1.94266C55.338 1.94266 55.338 1.44187 56.8258 1.44187C58.3137 1.44187 58.3137 1.54989 59.8015 1.54989C61.2893 1.54989 61.2893 1.61862 62.7771 1.61862C64.2649 1.61862 64.2649 1.36332 65.7528 1.36332C67.2406 1.36332 67.2406 1.89356 68.7284 1.89356C70.2162 1.89356 70.2162 1.51061 71.7041 1.51061C73.1919 1.51061 73.1919 1.58916 74.6797 1.58916C76.1675 1.58916 76.1675 1.50079 77.6554 1.50079C79.1432 1.50079 79.1432 1.07856 80.631 1.07856C82.1188 1.07856 82.1188 1.54989 83.6066 1.54989C85.0945 1.54989 85.0945 1.75609 86.5823 1.75609C88.0701 1.75609 88.0701 1.69718 89.5579 1.69718C91.0458 1.69718 91.0458 1.10801 92.5336 1.10801C94.0214 1.10801 94.0214 1.47133 95.5092 1.47133C96.9971 1.47133 96.9971 1.63826 98.4849 1.63826C99.9727 1.63826 99.9727 1.12765 101.461 1.12765C102.948 1.12765 102.948 1.05892 104.436 1.05892C105.924 1.05892 105.924 1.54007 107.412 1.54007C108.9 1.54007 108.9 1.34368 110.387 1.34368C111.875 1.34368 111.875 1.85429 113.363 1.85429C114.851 1.85429 114.851 1.3044 116.339 1.3044C117.827 1.3044 117.827 1.05892 119.314 1.05892C120.802 1.05892 120.802 1.59898 122.29 1.59898C123.778 1.59898 123.778 1.10801 125.266 1.10801C126.754 1.10801 126.754 1.92302 128.241 1.92302C129.729 1.92302 129.729 1.48115 131.217 1.48115C132.705 1.48115 132.705 1.3044 134.193 1.3044C135.68 1.3044 135.68 1.79537 137.168 1.79537C138.656 1.79537 138.656 1.10801 140.144 1.10801C141.632 1.10801 141.632 1.84447 143.12 1.84447C144.607 1.84447 144.607 1.87393 146.095 1.87393C147.583 1.87393 147.583 1.39278 149.071 1.39278C150.559 1.39278 150.559 1.49097 152.046 1.49097C153.534 1.49097 153.534 1.15711 155.022 1.15711C156.51 1.15711 156.51 1.17675 157.998 1.17675C159.486 1.17675 159.486 1.95248 160.973 1.95248C162.461 1.95248 162.461 1.52043 163.949 1.52043C165.437 1.52043 165.437 1.67754 166.925 1.67754C168.413 1.67754 168.413 2.00158 169.9 2.00158C171.388 2.00158 171.388 1.22585 172.876 1.22585C174.364 1.22585 174.364 1.01964 175.852 1.01964C177.34 1.01964 177.339 1.38296 178.827 1.38296C180.315 1.38296 180.315 1.16693 181.803 1.16693C183.291 1.16693 183.291 1.51061 184.779 1.51061C186.266 1.51061 186.266 1.38296 187.754 1.38296C189.242 1.38296 189.242 1.36332 190.73 1.36332C192.218 1.36332 192.218 1 193.706 1C195.193 1 195.193 1.33386 196.681 1.33386C198.169 1.33386 198.169 1.707 199.67 1.707C201.171 1.707 201.158 1.4026 202.646 1.4026C204.134 1.4026 204.134 1.90338 205.621 1.90338C207.109 1.90338 207.109 1.32404 208.597 1.32404C210.085 1.32404 210.085 1.26512 211.573 1.26512C213.061 1.26512 213.061 1.23567 214.548 1.23567C216.036 1.23567 216.036 1.87393 217.524 1.87393C219.012 1.87393 219.012 1.17675 220.5 1.17675C221.987 1.17675 221.987 1.01964 223.489 1.01964C224.99 1.01964 224.976 1.89356 226.464 1.89356C227.952 1.89356 227.952 1.94266 229.44 1.94266C230.928 1.94266 230.928 1.86411 232.416 1.86411C233.903 1.86411 233.903 1.81501 235.391 1.81501C236.879 1.81501 236.879 1.15711 238.38 1.15711C239.881 1.15711 239.868 1.03928 241.356 1.03928C242.844 1.03928 242.844 1.89356 244.331 1.89356C245.819 1.89356 245.819 1.61862 247.307 1.61862C248.795 1.61862 248.795 1.02946 250.283 1.02946C251.771 1.02946 251.77 1.48115 253.272 1.48115C254.773 1.48115 254.759 1.62844 256.247 1.62844C257.735 1.62844 257.735 1 259.223 1C260.711 1 260.711 1.03928 262.212 1.03928C263.713 1.03928 263.7 1.09819 265.201 1.09819C266.702 1.09819 266.689 1.23567 268.176 1.23567C269.664 1.23567 269.664 1.15711 271.165 1.15711C272.666 1.15711 272.653 1.54989 274.154 1.54989C275.655 1.54989 275.642 1.80519 277.13 1.80519C278.618 1.80519 278.618 1.24548 280.106 1.24548C281.593 1.24548 281.593 1.79537 283.081 1.79537C284.569 1.79537 284.569 1.71682 286.07 1.71682C287.571 1.71682 287.558 1.06874 289.059 1.06874C290.56 1.06874 290.547 1.53025 292.035 1.53025C293.523 1.53025 293.523 1.95248 295.01 1.95248C296.498 1.95248 296.498 1.17675 297.999 1.17675C299.5 1.17675 299.487 1.24548 300.975 1.24548C302.463 1.24548 302.463 1.56952 303.964 1.56952C305.465 1.56952 305.452 1.68736 306.953 1.68736C308.454 1.68736 308.441 1.94266 309.942 1.94266C311.443 1.94266 311.43 1.36332 312.931 1.36332C314.432 1.36332 314.418 1.0491 315.92 1.0491C317.421 1.0491 317.407 1.49097 318.908 1.49097C320.41 1.49097 320.396 1.52043 321.884 1.52043C323.372 1.52043 323.372 1.76591 324.873 1.76591C326.374 1.76591 326.361 1.16693 327.862 1.16693C329.363 1.16693 329.363 1.17675 330.851 1.17675C332.339 1.17675 332.352 1.17675 333.84 1.17675C335.328 1.17675 335.341 1.31422 336.829 1.31422C338.317 1.31422 338.33 1.86411 339.818 1.86411C340.801 1.86411 341.678 2.02122 342.607 2.12923C343.537 2.23724 344.613 1.94266 345.53 2.15869C346.447 2.37472 347.323 2.69876 348.187 3.0228C349.05 3.34684 349.847 3.73961 350.631 4.16184C351.415 4.58408 352.199 4.99649 352.889 5.5071C353.58 6.01771 354.125 6.60687 354.696 7.18622C355.267 7.76556 355.639 8.41364 356.078 9.0519C356.516 9.69016 356.516 10.407 356.808 11.0943C357.1 11.7817 357.871 12.3316 358.03 13.0386C358.19 13.7456 358.097 14.4428 358.097 15.1694C358.097 16.2299 358.708 16.2299 358.708 17.3002C358.708 18.3705 358.588 18.3607 358.588 19.431C358.588 20.5013 358.748 20.5013 358.748 21.5618C358.748 22.6223 359 22.6223 359 23.6926C359 24.7629 357.698 24.7629 357.698 25.8234C357.698 26.8839 357.977 26.8937 357.977 27.9542C357.977 29.0147 358.349 29.0147 358.349 30.085C358.349 31.1554 358.163 31.1455 358.163 32.2159C358.163 33.2862 358.256 33.2862 358.256 34.3467C358.256 35.4072 357.672 35.417 357.672 36.4775C357.672 37.538 357.618 37.5478 357.618 38.6083C357.618 39.6688 358.854 39.6786 358.854 40.7489C358.854 41.8192 358.269 41.8192 358.269 42.8895C358.269 43.6162 358.615 44.3723 358.469 45.0694C358.323 45.7666 357.884 46.4834 357.579 47.1511C357.273 47.8189 356.117 48.2313 355.692 48.8597C355.267 49.4882 354.789 50.0381 354.218 50.6076C353.647 51.1771 353.089 51.6681 352.411 52.1787C351.734 52.6893 351.813 53.8578 351.03 54.28C350.246 54.7023 349.342 55.1049 348.479 55.4289C347.616 55.7529 346.261 55.1932 345.344 55.4191C344.427 55.6449 343.604 55.861 342.647 55.9788C341.691 56.0966 340.827 56.2537 339.844 56.2537L339.765 56.2144Z" fill="#9E4AFF" stroke="black" stroke-width="2" stroke-miterlimit="10" mask="url(#path-1-inside-1_908_1521)"/>
<path d="M64.6932 20.568C65.3972 20.568 65.7492 21.336 65.7492 22.872C65.8132 25 65.8452 26.856 65.8452 28.44V31.128C67.7172 31.128 70.2132 30.936 73.3332 30.552C73.5732 30.552 73.8612 30.776 74.1972 31.224V31.704C74.1972 32.536 72.9172 32.952 70.3572 32.952C69.0132 33.08 67.4452 33.176 65.6532 33.24C64.4372 33.24 63.8292 32.632 63.8292 31.416C63.7652 30.008 63.7012 26.68 63.6372 21.432C63.8452 20.856 64.1972 20.568 64.6932 20.568ZM80.1732 19.08C80.6852 19.32 80.9412 19.64 80.9412 20.04C80.9412 21.512 80.9732 24.072 81.0372 27.72C81.0372 27.976 81.0052 28.552 80.9412 29.448C81.0692 31.544 81.1332 34.136 81.1332 37.224C81.1332 37.72 80.7812 38.072 80.0772 38.28C79.4852 38.28 79.1332 37.832 79.0212 36.936V36.456C79.0212 34.6 78.9892 32.04 78.9252 28.776H76.9092V33.96C76.9092 34.552 76.9412 35.384 77.0052 36.456C76.7492 37.096 76.3972 37.416 75.9492 37.416C75.2452 37.416 74.8932 36.744 74.8932 35.4C74.8292 34.712 74.7972 33.624 74.7972 32.136C74.7972 31.432 74.8292 30.984 74.8932 30.792C74.8292 29.928 74.7972 29.192 74.7972 28.584V20.616C74.7972 19.784 75.1492 19.368 75.8532 19.368C76.5572 19.48 76.9092 19.832 76.9092 20.424V26.664H77.0052C77.1812 26.664 77.8212 26.696 78.9252 26.76V26.376C78.9252 25.048 78.8932 23.032 78.8292 20.328C78.8292 19.528 79.2772 19.112 80.1732 19.08ZM98.4829 19.896H98.6749C99.2349 19.896 99.5549 20.312 99.6349 21.144V22.008C99.8429 22.008 100.387 22.04 101.267 22.104C101.507 22.104 102.403 22.072 103.955 22.008C105.107 22.008 105.683 22.328 105.683 22.968V23.256C105.683 23.832 105.331 24.12 104.627 24.12H99.6349V24.216C99.6349 25.496 100.595 26.84 102.515 28.248C104.883 29.176 106.067 29.816 106.067 30.168C106.067 30.2 106.099 30.328 106.163 30.552C106.003 31.192 105.651 31.512 105.107 31.512C102.947 30.936 101.187 30.008 99.8269 28.728C99.0269 28.008 98.6109 27.496 98.5789 27.192C97.0749 29.208 94.8669 30.648 91.9549 31.512C91.4269 31.512 91.1069 31.128 90.9949 30.36C90.9949 29.864 92.0189 29.224 94.0669 28.44C96.3069 26.968 97.4269 25.592 97.4269 24.312V24.12C97.0109 24.12 95.3469 24.152 92.4349 24.216C91.9709 24.216 91.6829 23.832 91.5709 23.064V22.968C91.8269 22.392 92.2749 22.104 92.9149 22.104H93.9709C94.7229 22.104 95.9069 22.072 97.5229 22.008V21.048C97.5869 20.28 97.9069 19.896 98.4829 19.896ZM98.6269 30.48C99.2669 30.64 99.5869 30.992 99.5869 31.536L99.6109 35.016H103.931C104.299 35.016 104.811 35.048 105.467 35.112C105.579 35.048 105.739 35.016 105.947 35.016C106.587 35.192 106.907 35.512 106.907 35.976V36.168C106.763 36.808 106.443 37.128 105.947 37.128C98.4269 37.064 93.5309 37.032 91.2589 37.032C90.3629 37.032 89.9149 36.712 89.9149 36.072V35.88C89.9149 35.368 90.2669 35.048 90.9709 34.92H97.4989C97.4989 34.792 97.5069 34.184 97.5229 33.096C97.4909 32.248 97.4749 31.728 97.4749 31.536C97.4749 31.008 97.8589 30.656 98.6269 30.48ZM122.426 18.648C123.146 18.648 123.626 19.224 123.866 20.376C123.674 23.832 123.578 25.912 123.578 26.616C123.578 27.144 123.226 27.464 122.522 27.576C122.01 27.576 121.69 27.224 121.562 26.52V24.408C116.794 24.472 113.658 24.536 112.154 24.6C111.61 24.6 111.258 24.216 111.098 23.448C111.098 23 111.418 22.68 112.058 22.488C114.154 22.424 115.786 22.392 116.954 22.392H121.562C121.69 22.392 121.754 22.328 121.754 22.2V20.76H115.226C114.826 20.76 114.346 20.792 113.786 20.856C112.122 20.856 111.29 20.536 111.29 19.896V19.416C111.514 18.968 111.834 18.744 112.25 18.744C114.778 18.744 118.17 18.712 122.426 18.648ZM117.242 24.792H117.722C118.17 25.048 118.394 25.432 118.394 25.944V27.576H119.162C120.122 27.576 121.69 27.64 123.866 27.768L124.826 27.672C125.402 27.864 125.69 28.184 125.69 28.632V28.824C125.546 29.464 125.226 29.784 124.73 29.784C124.106 29.784 120.778 29.72 114.746 29.592C112.186 29.656 110.714 29.688 110.33 29.688C109.37 29.576 108.89 29.224 108.89 28.632V28.536C109.018 27.896 109.338 27.576 109.85 27.576C111.018 27.576 113.194 27.544 116.378 27.48L116.282 27.288V26.52C116.282 25.368 116.602 24.792 117.242 24.792ZM111.842 30.84H118.274C121.602 30.84 123.266 31 123.266 31.32C123.458 31.816 123.554 32.616 123.554 33.72C123.554 35.256 122.882 36.024 121.538 36.024C119.97 36.088 117.09 36.152 112.898 36.216V37.32H117.218C118.338 37.32 119.49 37.352 120.674 37.416C120.962 37.352 121.666 37.32 122.786 37.32C123.394 37.32 123.714 37.736 123.746 38.568C123.554 39.144 123.138 39.432 122.498 39.432H112.034C111.202 39.288 110.786 38.968 110.786 38.472L110.882 37.8V37.608C110.882 37.304 110.85 36.904 110.786 36.408C110.786 34.872 111.33 34.104 112.418 34.104C112.674 34.104 112.802 34.136 112.802 34.2C112.866 34.2 113.122 34.168 113.57 34.104C117.634 34.04 120.034 34.008 120.77 34.008L121.442 33.912V32.952C118.482 32.888 116.178 32.856 114.53 32.856H112.13C111.986 32.856 111.858 32.888 111.746 32.952C111.314 32.952 110.962 32.696 110.69 32.184V31.8C110.69 31.224 111.074 30.904 111.842 30.84ZM134.589 20.28C135.549 20.456 136.029 20.904 136.029 21.624C136.029 24.44 135.741 25.848 135.165 25.848C135.165 25.992 134.909 26.12 134.397 26.232C132.509 26.296 130.973 26.328 129.789 26.328V28.2H129.981C131.261 28.2 133.269 28.176 136.005 28.128C136.517 28.4 136.773 28.72 136.773 29.088C136.773 29.856 135.941 30.24 134.277 30.24C132.693 30.288 130.941 30.312 129.021 30.312C128.189 30.152 127.773 29.8 127.773 29.256C127.709 27.16 127.677 25.736 127.677 24.984C127.869 24.472 128.253 24.216 128.829 24.216H132.381C132.701 24.216 133.181 24.184 133.821 24.12V24.024C133.885 23.032 133.917 22.488 133.917 22.392H133.821C133.117 22.456 132.509 22.488 131.997 22.488H128.925C128.157 22.424 127.773 22.104 127.773 21.528V21.336C127.773 20.76 128.157 20.44 128.925 20.376H133.245C133.597 20.376 134.045 20.344 134.589 20.28ZM141.045 19.224H141.237C141.797 19.224 142.117 19.64 142.197 20.472V23.16C142.197 24.76 142.229 27.032 142.293 29.976C142.181 30.264 141.957 30.52 141.621 30.744H140.949C140.373 30.744 140.085 29.272 140.085 26.328V24.6L140.181 24.024C140.117 23.608 140.085 23.192 140.085 22.776V20.376C140.149 19.608 140.469 19.224 141.045 19.224ZM135.885 31.272C136.541 31.272 136.957 31.872 137.133 33.072C137.757 34.768 139.229 36.168 141.549 37.272C142.573 37.416 143.085 37.848 143.085 38.568C142.925 39.24 142.573 39.576 142.029 39.576C140.733 39.576 138.941 38.504 136.653 36.36C136.141 35.72 135.885 35.32 135.885 35.16H135.789C134.765 36.968 132.877 38.408 130.125 39.48C130.029 39.544 129.837 39.576 129.549 39.576C129.117 39.576 128.829 39.24 128.685 38.568V38.472C128.685 37.848 129.421 37.312 130.893 36.864C132.941 35.568 134.189 34.272 134.637 32.976C134.861 31.84 135.277 31.272 135.885 31.272ZM165.861 21H166.053C166.613 21 166.933 21.416 167.013 22.248C167.077 25.608 167.109 28.168 167.109 29.928C166.821 30.696 166.309 31.08 165.573 31.08H163.845C162.261 31.08 160.693 31.112 159.141 31.176C158.485 31.112 157.333 31.08 155.685 31.08C154.789 31.08 154.341 30.28 154.341 28.68C154.277 28.024 154.245 27.512 154.245 27.144C154.309 25.4 154.341 23.736 154.341 22.152C154.453 21.448 154.773 21.096 155.301 21.096H155.493C156.133 21.096 156.453 21.576 156.453 22.536C156.453 22.648 156.421 23.224 156.357 24.264L157.509 24.36H158.469C159.381 24.36 160.053 24.392 160.485 24.456C161.045 24.392 161.749 24.36 162.597 24.36H164.901V22.152C164.965 21.384 165.285 21 165.861 21ZM156.357 26.376V28.488L156.453 28.968C157.829 29.032 158.853 29.064 159.525 29.064H162.405C162.949 29.064 163.813 29.032 164.997 28.968V26.472H158.469C158.021 26.472 157.317 26.44 156.357 26.376ZM160.581 30.48C161.221 30.64 161.541 30.992 161.541 31.536L161.565 35.016H165.885C166.253 35.016 166.765 35.048 167.421 35.112C167.533 35.048 167.693 35.016 167.901 35.016C168.541 35.192 168.861 35.512 168.861 35.976V36.168C168.717 36.808 168.397 37.128 167.901 37.128C160.381 37.064 155.485 37.032 153.213 37.032C152.317 37.032 151.869 36.712 151.869 36.072V35.88C151.869 35.368 152.221 35.048 152.925 34.92H159.453C159.453 34.792 159.461 34.184 159.477 33.096C159.445 32.248 159.429 31.728 159.429 31.536C159.429 31.008 159.813 30.656 160.581 30.48ZM172.428 19.536H179.724C180.492 19.712 180.876 20.064 180.876 20.592C180.572 24.56 180.06 26.544 179.34 26.544H178.86C178.38 26.544 178.092 26.224 177.996 25.584V25.488C178.444 23.824 178.668 22.608 178.668 21.84V21.648H178.476C177.692 21.648 177.212 21.616 177.036 21.552C176.332 21.616 175.692 21.648 175.116 21.648H172.428C171.724 21.52 171.372 21.2 171.372 20.688V20.496C171.372 19.984 171.724 19.664 172.428 19.536ZM184.092 18.744C184.732 18.904 185.052 19.256 185.052 19.8V23.544C185.068 23.672 185.132 23.736 185.244 23.736H186.876C187.58 23.736 187.932 24.152 187.932 24.984C187.74 25.56 187.324 25.848 186.684 25.848H185.532L185.052 25.752C185.116 27.368 185.148 28.648 185.148 29.592V29.784C185.036 30.68 184.684 31.128 184.092 31.128C183.388 30.952 183.036 30.6 183.036 30.072C182.972 26.104 182.94 23.864 182.94 23.352C183.004 21.352 183.036 20.072 183.036 19.512C183.292 19 183.644 18.744 184.092 18.744ZM176.7 25.08C177.404 25.08 177.756 25.912 177.756 27.576V27.672C179.084 27.608 180.556 27.48 182.172 27.288C182.716 27.288 183.068 27.672 183.228 28.44C183.228 29.208 182.076 29.592 179.772 29.592C178.492 29.72 175.836 29.848 171.804 29.976C171.276 29.976 170.956 29.624 170.844 28.92C170.844 28.216 171.644 27.864 173.244 27.864C173.628 27.8 174.428 27.768 175.644 27.768V26.904C175.644 26.68 175.612 26.392 175.548 26.04C175.548 25.512 175.932 25.192 176.7 25.08ZM173.292 31.632C174.06 31.632 174.444 33.072 174.444 35.952V37.008H179.532C180.684 37.008 182.252 36.976 184.236 36.912C184.876 37.088 185.196 37.408 185.196 37.872V38.064C185.196 38.496 184.908 38.816 184.332 39.024C181.58 39.088 179.468 39.12 177.996 39.12H173.58C172.748 39.12 172.332 38.448 172.332 37.104C172.332 35.184 172.3 33.648 172.236 32.496C172.444 31.92 172.796 31.632 173.292 31.632ZM195.576 17.976H195.672C196.376 17.976 196.728 18.488 196.728 19.512V20.472C197.48 20.536 198.024 20.568 198.36 20.568H199.608C200.76 20.568 201.336 20.952 201.336 21.72C201.336 22.12 201.048 22.44 200.472 22.68C198.552 22.616 197.432 22.584 197.112 22.584C196.04 22.584 193.928 22.648 190.776 22.776C190.2 22.568 189.912 22.216 189.912 21.72C189.912 20.952 191.064 20.568 193.368 20.568H194.616V18.936C194.744 18.296 195.064 17.976 195.576 17.976ZM195.384 22.872C197.72 22.872 199.32 23.896 200.184 25.944L200.28 26.52V27.192C200.28 28.504 199.352 29.496 197.496 30.168C196.856 30.296 196.28 30.36 195.768 30.36H195.096C193.176 30.36 191.928 29.272 191.352 27.096C191.352 26.952 191.32 26.824 191.256 26.712C191.256 24.792 192.632 23.512 195.384 22.872ZM193.368 26.712C193.368 27.608 194.104 28.152 195.576 28.344C197.368 28.216 198.264 27.704 198.264 26.808C197.96 25.688 197.096 25.08 195.672 24.984H195.384C194.04 25.4 193.368 25.976 193.368 26.712ZM204.624 19.2C205.024 19.2 205.344 19.488 205.584 20.064C205.648 21.632 205.68 22.88 205.68 23.808V23.904H207.792C208.416 23.904 208.768 24.288 208.848 25.056C208.624 25.632 208.304 25.92 207.888 25.92H205.584V26.016C205.584 26.4 205.616 26.592 205.68 26.592L205.584 27.552V29.568C205.584 29.712 205.616 29.84 205.68 29.952C205.504 30.72 205.12 31.104 204.528 31.104C203.888 30.928 203.568 30.576 203.568 30.048V22.656C203.568 22.016 203.536 21.248 203.472 20.352C203.648 19.584 204.032 19.2 204.624 19.2ZM194.784 31.536H196.032C198.128 31.536 201.04 31.568 204.768 31.632C205.536 31.632 205.92 33.152 205.92 36.192C205.984 36.192 206.016 36.544 206.016 37.248C206.016 38.784 205.6 39.552 204.768 39.552H202.848C201.28 39.552 199.936 39.584 198.816 39.648C198.16 39.584 197.008 39.552 195.36 39.552C194.144 39.552 193.536 39.168 193.536 38.4V37.536C193.536 37.2 193.504 36.912 193.44 36.672C193.504 36.336 193.536 35.616 193.536 34.512V32.784C193.744 31.952 194.16 31.536 194.784 31.536ZM195.648 33.648C195.584 35.504 195.552 36.704 195.552 37.248L195.648 37.44C196.096 37.44 196.96 37.472 198.24 37.536C201.136 37.472 203.024 37.44 203.904 37.44V37.344C203.904 36.528 203.84 35.328 203.712 33.744C203.104 33.744 201.088 33.68 197.664 33.552C196.704 33.616 196.032 33.648 195.648 33.648ZM219.472 21C221.808 21 223.856 21.8 225.616 23.4C226.256 24.392 226.576 25.64 226.576 27.144C226.576 29.016 225.2 30.552 222.448 31.752C221.328 31.944 220.464 32.04 219.856 32.04H219.28C217.104 32.04 215.28 31.24 213.808 29.64C213.104 28.664 212.752 27.608 212.752 26.472C212.752 24.808 213.584 23.368 215.248 22.152C216.784 21.432 218.192 21.048 219.472 21ZM214.864 26.376V26.568C214.864 28.344 216.144 29.464 218.704 29.928H219.952C222.112 29.928 223.584 29.16 224.368 27.624C224.432 27.512 224.464 27.384 224.464 27.24V27.048C224.464 25.336 223.952 24.312 222.928 23.976C221.84 23.4 220.592 23.112 219.184 23.112C217.808 23.112 216.56 23.656 215.44 24.744C215.056 25.48 214.864 26.024 214.864 26.376ZM212.752 35.04H214.672C217.584 35.04 221.296 35.072 225.808 35.136C226.256 35.072 226.64 35.04 226.96 35.04C227.6 35.232 227.92 35.584 227.92 36.096C227.808 36.8 227.456 37.152 226.864 37.152H211.984C211.216 37.088 210.832 36.736 210.832 36.096C210.832 35.392 211.472 35.04 212.752 35.04ZM241.253 20.544C243.301 20.544 244.325 20.832 244.325 21.408C244.389 21.664 244.421 21.888 244.421 22.08C244.421 23.024 244.453 24.112 244.517 25.344C244.517 26.624 244.165 27.264 243.461 27.264H238.565C237.589 27.264 236.085 27.296 234.053 27.36V29.856C236.853 29.792 238.677 29.728 239.525 29.664C239.589 29.664 239.685 29.696 239.813 29.76C240.469 29.696 240.981 29.664 241.349 29.664H244.133C244.837 29.664 245.189 30.08 245.189 30.912C244.949 31.488 244.469 31.776 243.749 31.776C241.797 31.776 238.757 31.808 234.629 31.872L233.957 31.968C232.677 31.856 232.037 31.44 232.037 30.72V26.304C232.149 25.6 232.501 25.248 233.093 25.248H233.285C235.237 25.248 238.277 25.216 242.405 25.152V23.808L242.309 22.656H233.573L232.997 22.752C232.453 22.752 232.101 22.368 231.941 21.6C231.941 21.04 232.357 20.72 233.189 20.64C234.821 20.64 237.509 20.608 241.253 20.544ZM238.613 30.48C239.253 30.64 239.573 30.992 239.573 31.536L239.597 35.016H243.917C244.285 35.016 244.797 35.048 245.453 35.112C245.565 35.048 245.725 35.016 245.933 35.016C246.573 35.192 246.893 35.512 246.893 35.976V36.168C246.749 36.808 246.429 37.128 245.933 37.128C238.413 37.064 233.517 37.032 231.245 37.032C230.349 37.032 229.901 36.712 229.901 36.072V35.88C229.901 35.368 230.253 35.048 230.957 34.92H237.485C237.485 34.792 237.493 34.184 237.509 33.096C237.477 32.248 237.461 31.728 237.461 31.536C237.461 31.008 237.845 30.656 238.613 30.48ZM257.199 20.904H263.727C264.431 21.016 264.783 21.368 264.783 21.96V22.248C264.783 24.296 263.855 26.856 261.999 29.928C259.551 32.936 257.887 34.44 257.007 34.44C256.575 34.328 256.287 34.104 256.143 33.768V33.288C256.143 32.936 256.943 32.104 258.543 30.792C260.847 28.216 262.127 25.912 262.383 23.88C262.511 23.4 262.575 23.112 262.575 23.016H256.719C256.015 22.888 255.663 22.568 255.663 22.056V21.96C255.663 21.256 256.175 20.904 257.199 20.904ZM269.511 18.912C269.959 18.912 270.279 19.2 270.471 19.776C270.471 20.128 270.439 20.48 270.375 20.832C270.439 22.48 270.471 23.888 270.471 25.056V26.304H273.159C273.607 26.528 273.831 26.848 273.831 27.264C273.831 28.032 273.287 28.416 272.199 28.416H270.471V33.888C270.471 34.72 270.503 35.808 270.567 37.152C270.391 37.792 270.071 38.112 269.607 38.112H269.415C268.775 37.984 268.455 37.664 268.455 37.152C268.455 36.176 268.423 35.056 268.359 33.792C268.359 33.056 268.391 31.616 268.455 29.472C268.391 25.856 268.359 22.72 268.359 20.064C268.519 19.296 268.903 18.912 269.511 18.912ZM277.369 20.904H283.897C284.601 21.016 284.953 21.368 284.953 21.96V22.248C284.953 24.296 284.025 26.856 282.169 29.928C279.721 32.936 278.057 34.44 277.177 34.44C276.745 34.328 276.457 34.104 276.313 33.768V33.288C276.313 32.936 277.113 32.104 278.713 30.792C281.017 28.216 282.297 25.912 282.553 23.88C282.681 23.4 282.745 23.112 282.745 23.016H276.889C276.185 22.888 275.833 22.568 275.833 22.056V21.96C275.833 21.256 276.345 20.904 277.369 20.904ZM290.305 18.672C290.945 18.672 291.265 19.376 291.265 20.784C291.329 21.584 291.361 22 291.361 22.032C291.233 26.032 291.169 28.72 291.169 30.096C291.233 32.896 291.297 34.432 291.361 34.704C291.297 34.944 291.265 35.232 291.265 35.568V35.76C291.265 36.032 291.297 36.384 291.361 36.816C291.361 37.36 290.977 37.712 290.209 37.872C289.681 37.872 289.361 37.488 289.249 36.72C289.249 35.2 289.185 32.768 289.057 29.424C289.185 26.112 289.249 23.488 289.249 21.552C289.249 21.376 289.217 20.736 289.153 19.632C289.153 19.104 289.537 18.784 290.305 18.672Z" fill="white"/>
</g>
<defs>
<clipPath id="clip0_908_1521">
<rect width="359" height="57" fill="white"/>
</clipPath>
</defs>
</svg>
