<svg width="258" height="96" viewBox="0 0 258 96" fill="none" xmlns="http://www.w3.org/2000/svg">
<path d="M238.947 94.254C237.841 94.254 237.841 94.4187 236.724 94.4187C235.607 94.4187 235.617 94.4284 234.501 94.4284C233.384 94.4284 233.394 94.1765 232.277 94.1765C231.161 94.1765 231.171 94.2249 230.064 94.2249C228.957 94.2249 228.957 94.1668 227.851 94.1668C226.744 94.1668 226.744 94.283 225.637 94.283C224.531 94.283 224.531 94.0214 223.414 94.0214C222.298 94.0214 222.307 94.9322 221.191 94.9322C220.074 94.9322 220.084 94.8837 218.968 94.8837C217.851 94.8837 217.861 94.0989 216.744 94.0989C215.628 94.0989 215.638 94.1183 214.521 94.1183C213.405 94.1183 213.414 94.2637 212.298 94.2637C211.181 94.2637 211.191 94.7578 210.075 94.7578C208.958 94.7578 208.968 94.1958 207.851 94.1958C206.735 94.1958 206.745 94.6028 205.628 94.6028C204.512 94.6028 204.521 94.4187 203.405 94.4187C202.288 94.4187 202.298 94.3412 201.191 94.3412C200.085 94.3412 200.085 94.5543 198.978 94.5543C197.871 94.5543 197.871 94.7481 196.765 94.7481C195.658 94.7481 195.658 94.9031 194.551 94.9031C193.445 94.9031 193.445 94.4477 192.338 94.4477C191.231 94.4477 191.231 94.0214 190.125 94.0214C189.018 94.0214 189.018 94.6512 187.911 94.6512C186.805 94.6512 186.805 94.0796 185.698 94.0796C184.591 94.0796 184.591 94.283 183.485 94.283C182.378 94.283 182.378 94.7384 181.271 94.7384C180.164 94.7384 180.164 94.8934 179.058 94.8934C177.951 94.8934 177.951 94.1571 176.835 94.1571C175.718 94.1571 175.728 94.3702 174.611 94.3702C173.495 94.3702 173.505 94.4671 172.388 94.4671C171.271 94.4671 171.281 94.1571 170.165 94.1571C169.048 94.1571 169.058 94.1765 167.951 94.1765C166.845 94.1765 166.845 94.9709 165.738 94.9709C164.631 94.9709 164.631 94.254 163.525 94.254C162.418 94.254 162.418 94.8837 161.311 94.8837C160.205 94.8837 160.205 94.2152 159.098 94.2152C157.991 94.2152 157.991 94.69 156.885 94.69C155.778 94.69 155.778 94.9516 154.671 94.9516C153.564 94.9516 153.564 94.5156 152.458 94.5156C151.351 94.5156 151.351 94.9903 150.235 94.9903C149.118 94.9903 149.128 94.874 148.011 94.874C146.895 94.874 146.905 94.2249 145.788 94.2249C144.671 94.2249 144.681 94.5834 143.565 94.5834C142.448 94.5834 142.458 94.2055 141.342 94.2055C140.225 94.2055 140.235 94.409 139.118 94.409C138.002 94.409 138.012 94.4574 136.905 94.4574C135.798 94.4574 135.798 94.3412 134.692 94.3412C133.585 94.3412 133.585 94.0893 132.478 94.0893C131.371 94.0893 131.371 94.7675 130.255 94.7675C129.138 94.7675 129.148 94.1861 128.032 94.1861C126.915 94.1861 126.925 94.9128 125.808 94.9128C124.692 94.9128 124.702 94.9709 123.585 94.9709C122.469 94.9709 122.478 94.6803 121.362 94.6803C120.245 94.6803 120.255 94.5156 119.139 94.5156C118.022 94.5156 118.032 94.874 116.915 94.874C115.799 94.874 115.809 94.7675 114.692 94.7675C113.576 94.7675 113.585 94.409 112.469 94.409C111.352 94.409 111.362 94.1474 110.246 94.1474C109.129 94.1474 109.139 94.1474 108.022 94.1474C106.906 94.1474 106.916 94.0699 105.799 94.0699C104.683 94.0699 104.692 94.9128 103.576 94.9128C102.459 94.9128 102.469 94.3896 101.353 94.3896C100.236 94.3896 100.246 94.0893 99.1294 94.0893C98.0128 94.0893 98.0227 94.6028 96.9061 94.6028C95.7896 94.6028 95.7995 94.9516 94.6829 94.9516C93.5663 94.9516 93.5762 94.8837 92.4596 94.8837C91.3431 94.8837 91.353 94.8062 90.2364 94.8062C89.1198 94.8062 89.1297 94.9419 88.0131 94.9419C86.8966 94.9419 86.9065 94.3993 85.7899 94.3993C84.6733 94.3993 84.6733 94.3315 83.5666 94.3315C82.46 94.3315 82.4599 94.3412 81.3434 94.3412C80.2268 94.3412 80.2367 94.0893 79.1201 94.0893C78.0036 94.0893 78.0134 94.8062 76.8969 94.8062C75.7803 94.8062 75.7902 94.1086 74.6736 94.1086C73.5571 94.1086 73.5669 94.0602 72.4504 94.0602C71.3338 94.0602 71.3437 94.9903 70.2271 94.9903C69.1105 94.9903 69.1204 94.5059 68.0039 94.5059C66.8873 94.5059 66.8972 94.8547 65.7806 94.8547C64.6641 94.8547 64.6739 94.6124 63.5672 94.6124C62.4606 94.6124 62.4606 94.3702 61.344 94.3702C60.2274 94.3702 60.2373 94.2443 59.1207 94.2443C58.0042 94.2443 58.0141 95 56.8975 95C55.7809 95 55.7908 94.9128 54.6742 94.9128C53.5577 94.9128 53.5676 94.0699 52.451 94.0699C51.3344 94.0699 51.3344 94.6803 50.2277 94.6803C49.1211 94.6803 49.1211 94.3799 48.0045 94.3799C46.8879 94.3799 46.8879 94.5349 45.7812 94.5349C44.6745 94.5349 44.6647 94.2733 43.558 94.2733C42.4513 94.2733 42.4414 94.6803 41.3347 94.6803C40.228 94.6803 40.2182 94.7772 39.1115 94.7772C38.0048 94.7772 37.9949 94.9031 36.8882 94.9031C35.7815 94.9031 35.7717 94.8644 34.665 94.8644C33.5583 94.8644 33.5583 94.9031 32.4417 94.9031C31.3252 94.9031 31.3252 94.7578 30.2185 94.7578C29.1118 94.7578 29.1019 94.845 27.9952 94.845C26.8885 94.845 26.8786 94.2152 25.772 94.2152C24.6653 94.2152 24.6554 94.409 23.5487 94.409C22.442 94.409 22.4321 94.3509 21.3156 94.3509C20.199 94.3509 20.199 94.5156 19.0824 94.5156C18.3018 94.5156 17.5311 94.4962 16.7801 94.3993C16.0292 94.3024 15.1794 94.438 14.4383 94.2443C13.6972 94.0505 13.2229 93.0913 12.5115 92.8104C11.8001 92.5294 10.8811 92.6941 10.2191 92.3162C9.55705 91.9384 9.03335 91.3474 8.42072 90.892C7.80809 90.4366 7.50178 89.6906 6.95831 89.1577C6.41485 88.6248 5.9208 88.1307 5.4465 87.53C4.97221 86.9293 4.62637 86.3286 4.24101 85.6698C3.85564 85.0109 3.19361 84.5362 2.89717 83.8386C2.60074 83.141 2.17585 82.4919 1.96835 81.7652C1.76085 81.0386 1.69168 80.2828 1.59287 79.5271C1.49406 78.7714 1.85966 78.035 1.85966 77.2696C1.85966 76.1845 1.72132 76.1845 1.72132 75.0994C1.72132 74.0142 1.1581 74.0142 1.1581 72.9291C1.1581 71.8439 1 71.8439 1 70.7588C1 69.6737 1.56322 69.6737 1.56322 68.5885C1.56322 67.5034 1.08893 67.5034 1.08893 66.4183C1.08893 65.3331 1.76085 65.3331 1.76085 64.2577C1.76085 63.1822 1.55334 63.1725 1.55334 62.0971C1.55334 61.0216 1.89918 61.012 1.89918 59.9365C1.89918 58.8611 1.41501 58.8514 1.41501 57.7662C1.41501 56.6811 1.00988 56.6811 1.00988 55.596C1.00988 54.5108 1.60275 54.5108 1.60275 53.4257C1.60275 52.3405 1.74108 52.3405 1.74108 51.2554C1.74108 50.1703 1.65215 50.1703 1.65215 49.0851C1.65215 48 1.41501 48 1.41501 46.9149C1.41501 45.8297 1.6818 45.8297 1.6818 44.7446C1.6818 43.6595 1.06917 43.6595 1.06917 42.5743C1.06917 41.4892 1.77073 41.4892 1.77073 40.404C1.77073 39.3189 1.70156 39.3189 1.70156 38.2338C1.70156 37.1486 1.51382 37.1486 1.51382 36.0635C1.51382 34.9784 1.22727 34.9784 1.22727 33.8932C1.22727 32.8081 1.76085 32.8081 1.76085 31.7229C1.76085 30.6378 1.98811 30.6378 1.98811 29.5527C1.98811 28.4675 1.82013 28.4675 1.82013 27.3824C1.82013 26.2973 1.78061 26.2973 1.78061 25.2121C1.78061 24.127 1.21738 24.127 1.21738 23.0418C1.21738 21.9567 1.98811 21.9567 1.98811 20.8619C1.98811 19.7671 1.59287 19.7767 1.59287 18.6819C1.59287 17.9165 1.79049 17.1995 1.8893 16.4632C1.98811 15.7269 2.02764 14.9808 2.22526 14.2542C2.42288 13.5275 2.32407 12.6943 2.6205 11.9967C2.91694 11.2991 3.08492 10.4949 3.47028 9.84581C3.85564 9.19666 4.86352 8.93507 5.32793 8.34405C5.79234 7.75304 6.24687 7.18141 6.79034 6.64853C7.3338 6.11565 7.78833 5.51495 8.40096 5.05958C9.01359 4.60421 9.41871 3.81942 10.0906 3.45125C10.7625 3.08308 11.6914 3.21872 12.4028 2.93774C13.1143 2.65677 13.8356 2.53082 14.5865 2.33704C15.3375 2.14327 15.9798 1.64914 16.7505 1.54257C17.5212 1.43599 18.2722 1.14533 19.0528 1.14533C20.1595 1.14533 20.1595 1.23253 21.2761 1.23253C22.3926 1.23253 22.3827 1.76541 23.4993 1.76541C24.6159 1.76541 24.606 1.91074 25.7226 1.91074C26.8391 1.91074 26.8292 1.43599 27.9359 1.43599C29.0426 1.43599 29.0426 1.53288 30.1493 1.53288C31.256 1.53288 31.256 1.59101 32.3627 1.59101C33.4694 1.59101 33.4694 1.34879 34.5859 1.34879C35.7025 1.34879 35.6926 1.84292 36.8092 1.84292C37.9257 1.84292 37.9159 1.48444 39.0324 1.48444C40.149 1.48444 40.1391 1.56195 41.2557 1.56195C42.3722 1.56195 42.3624 1.47475 43.4789 1.47475C44.5955 1.47475 44.5856 1.07751 45.7022 1.07751C46.8187 1.07751 46.8089 1.52319 47.9254 1.52319C49.042 1.52319 49.0321 1.71697 50.1487 1.71697C51.2653 1.71697 51.2554 1.65883 52.3719 1.65883C53.4885 1.65883 53.4786 1.10658 54.5952 1.10658C55.7118 1.10658 55.7019 1.44568 56.8086 1.44568C57.9152 1.44568 57.9152 1.6007 59.0219 1.6007C60.1286 1.6007 60.1286 1.11626 61.2353 1.11626C62.342 1.11626 62.342 1.05813 63.4487 1.05813C64.5554 1.05813 64.5554 1.5135 65.662 1.5135C66.7687 1.5135 66.7687 1.32942 67.8754 1.32942C68.9821 1.32942 68.9821 1.81385 70.0888 1.81385C71.1955 1.81385 71.1955 1.29066 72.3022 1.29066C73.4088 1.29066 73.4088 1.05813 74.5155 1.05813C75.6222 1.05813 75.6222 1.56195 76.7289 1.56195C77.8356 1.56195 77.8356 1.09689 78.9423 1.09689C80.049 1.09689 80.049 1.8623 81.1655 1.8623C82.2821 1.8623 82.2722 1.44568 83.3888 1.44568C84.5053 1.44568 84.4955 1.28097 85.612 1.28097C86.7286 1.28097 86.7187 1.74603 87.8353 1.74603C88.9518 1.74603 88.942 1.09689 90.0486 1.09689C91.1553 1.09689 91.1553 1.79448 92.262 1.79448C93.3687 1.79448 93.3687 1.82354 94.4754 1.82354C95.5821 1.82354 95.5821 1.36817 96.6888 1.36817C97.7954 1.36817 97.7954 1.45537 98.9021 1.45537C100.009 1.45537 100.009 1.13564 101.115 1.13564C102.222 1.13564 102.222 1.15502 103.329 1.15502C104.436 1.15502 104.436 1.89136 105.542 1.89136C106.649 1.89136 106.649 1.48444 107.765 1.48444C108.882 1.48444 108.872 1.62977 109.989 1.62977C111.105 1.62977 111.095 1.93981 112.212 1.93981C113.329 1.93981 113.319 1.21315 114.435 1.21315C115.552 1.21315 115.542 1.01938 116.658 1.01938C117.775 1.01938 117.765 1.35848 118.882 1.35848C119.998 1.35848 119.988 1.15502 121.095 1.15502C122.202 1.15502 122.202 1.48444 123.308 1.48444C124.415 1.48444 124.415 1.35848 125.522 1.35848C126.629 1.35848 126.629 1.33911 127.745 1.33911C128.862 1.33911 128.852 1 129.968 1C131.085 1 131.075 1.31004 132.192 1.31004C133.308 1.31004 133.298 1.66852 134.415 1.66852C135.531 1.66852 135.522 1.37786 136.638 1.37786C137.755 1.37786 137.745 1.85261 138.861 1.85261C139.978 1.85261 139.968 1.31004 141.085 1.31004C142.201 1.31004 142.191 1.25191 143.308 1.25191C144.424 1.25191 144.415 1.22284 145.531 1.22284C146.648 1.22284 146.638 1.82354 147.754 1.82354C148.871 1.82354 148.861 1.16471 149.978 1.16471C151.094 1.16471 151.084 1.01938 152.201 1.01938C153.317 1.01938 153.308 1.84292 154.424 1.84292C155.541 1.84292 155.531 1.88167 156.647 1.88167C157.764 1.88167 157.754 1.81385 158.871 1.81385C159.987 1.81385 159.977 1.76541 161.094 1.76541C162.21 1.76541 162.201 1.14533 163.317 1.14533C164.434 1.14533 164.424 1.03875 165.54 1.03875C166.657 1.03875 166.647 1.84292 167.764 1.84292C168.88 1.84292 168.87 1.59101 169.987 1.59101C171.103 1.59101 171.094 1.03875 172.21 1.03875C173.327 1.03875 173.327 1.46506 174.433 1.46506C175.54 1.46506 175.54 1.6007 176.657 1.6007C177.773 1.6007 177.763 1.00969 178.88 1.00969C179.996 1.00969 179.987 1.04844 181.103 1.04844C182.22 1.04844 182.21 1.10658 183.326 1.10658C184.443 1.10658 184.433 1.24222 185.55 1.24222C186.666 1.24222 186.656 1.16471 187.773 1.16471C188.889 1.16471 188.88 1.53288 189.996 1.53288C191.113 1.53288 191.103 1.7751 192.219 1.7751C193.336 1.7751 193.326 1.24222 194.433 1.24222C195.539 1.24222 195.539 1.75572 196.656 1.75572C197.773 1.75572 197.763 1.67821 198.879 1.67821C199.996 1.67821 199.986 1.06782 201.103 1.06782C202.219 1.06782 202.209 1.50381 203.326 1.50381C204.442 1.50381 204.432 1.90105 205.549 1.90105C206.666 1.90105 206.666 1.1744 207.772 1.1744C208.879 1.1744 208.879 1.24222 209.996 1.24222C211.112 1.24222 211.112 1.54257 212.219 1.54257C213.325 1.54257 213.335 1.64914 214.442 1.64914C215.549 1.64914 215.559 1.89136 216.665 1.89136C217.772 1.89136 217.782 1.33911 218.889 1.33911C219.995 1.33911 220.005 1.03875 221.112 1.03875C222.218 1.03875 222.228 1.45537 223.335 1.45537C224.442 1.45537 224.442 1.48444 225.558 1.48444C226.675 1.48444 226.675 1.71697 227.782 1.71697C228.888 1.71697 228.898 1.14533 230.005 1.14533C231.111 1.14533 231.121 1.15502 232.228 1.15502C233.335 1.15502 233.345 1.15502 234.451 1.15502C235.558 1.15502 235.568 1.28097 236.684 1.28097C237.801 1.28097 237.801 1.80416 238.918 1.80416C239.698 1.80416 240.41 1.94949 241.161 2.04638C241.912 2.14327 242.742 1.85261 243.473 2.04638C244.204 2.24016 244.935 2.52113 245.637 2.81179C246.338 3.10245 247.02 3.45125 247.682 3.82911C248.344 4.20697 249.016 4.57514 249.629 5.03051C250.241 5.48588 250.765 6.03814 251.309 6.57102C251.852 7.1039 252.267 7.72397 252.741 8.32468C253.216 8.92538 253.393 9.66172 253.779 10.3109C254.164 10.96 254.856 11.4348 255.152 12.1323C255.449 12.8299 255.587 13.5566 255.785 14.2929C255.982 15.0293 256.555 15.6784 256.654 16.4341C256.753 17.1899 256.713 17.9553 256.713 18.7207C256.713 19.8058 256.822 19.8058 256.822 20.891C256.822 21.9761 257 21.9761 257 23.0612C257 24.1464 256.071 24.1464 256.071 25.2315C256.071 26.3166 256.269 26.3166 256.269 27.4018C256.269 28.4869 256.536 28.4869 256.536 29.572C256.536 30.6572 256.397 30.6572 256.397 31.7326C256.397 32.8081 256.466 32.8178 256.466 33.8932C256.466 34.9687 256.051 34.9784 256.051 36.0538C256.051 37.1293 256.012 37.1389 256.012 38.2241C256.012 39.3092 256.891 39.3092 256.891 40.3944C256.891 41.4795 256.476 41.4795 256.476 42.5646C256.476 43.6498 256.783 43.6498 256.783 44.7349C256.783 45.82 256.634 45.82 256.634 46.9052C256.634 47.9903 256.022 47.9903 256.022 49.0754C256.022 50.1606 256.012 50.1606 256.012 51.2457C256.012 52.3309 256.012 52.3309 256.012 53.416C256.012 54.5011 256.911 54.5011 256.911 55.5863C256.911 56.6714 256.911 56.6714 256.911 57.7565C256.911 58.8417 256.042 58.8417 256.042 59.9268C256.042 61.012 256.111 61.012 256.111 62.0971C256.111 63.1822 256.239 63.1822 256.239 64.2674C256.239 65.3525 256.417 65.3525 256.417 66.4376C256.417 67.5228 256.654 67.5228 256.654 68.6079C256.654 69.6931 256.565 69.6931 256.565 70.7782C256.565 71.8633 256.249 71.8633 256.249 72.9485C256.249 74.0336 256.625 74.0336 256.625 75.1284C256.625 76.2233 256.269 76.2136 256.269 77.3084C256.269 78.0738 256.16 78.7908 256.061 79.5271C255.962 80.2635 256.219 81.087 256.032 81.8136C255.844 82.5403 255.804 83.3638 255.508 84.0517C255.212 84.7396 254.866 85.476 254.49 86.1251C254.115 86.7743 253.225 87.1328 252.761 87.7238C252.297 88.3148 252.05 89.1189 251.506 89.6518C250.963 90.1847 250.38 90.7176 249.767 91.173C249.154 91.6283 248.542 92.1515 247.88 92.5294C247.218 92.9072 246.506 93.2948 245.795 93.5854C245.083 93.8761 244.273 93.973 243.522 94.1668C242.771 94.3605 242.02 94.6028 241.25 94.6997C240.479 94.7965 239.688 94.2637 238.918 94.2637L238.947 94.254Z" fill="white" stroke="black" stroke-width="2" stroke-miterlimit="10"/>
</svg>
