<svg width="226" height="30" viewBox="0 0 226 30" fill="none" xmlns="http://www.w3.org/2000/svg">
<g clip-path="url(#clip0_15_643)">
<path d="M6 0C4.81331 0 3.65328 0.351894 2.66658 1.01118C1.67989 1.67047 0.910851 2.60754 0.456726 3.7039C0.00259972 4.80026 -0.11622 6.00666 0.115291 7.17054C0.346802 8.33443 0.918247 9.40353 1.75736 10.2426C2.59648 11.0818 3.66558 11.6532 4.82946 11.8847C5.99335 12.1162 7.19975 11.9974 8.2961 11.5433C9.39246 11.0892 10.3295 10.3201 10.9888 9.33342C11.6481 8.34673 12 7.18669 12 6C11.9983 4.40923 11.3656 2.88411 10.2407 1.75926C9.1159 0.634414 7.59077 0.00172054 6 0V0ZM6 11C5.0111 11 4.0444 10.7068 3.22215 10.1573C2.39991 9.60794 1.75904 8.82705 1.38061 7.91342C1.00217 6.99979 0.90315 5.99445 1.09608 5.02455C1.289 4.05464 1.76521 3.16373 2.46447 2.46447C3.16373 1.7652 4.05465 1.289 5.02455 1.09607C5.99446 0.903148 6.99979 1.00216 7.91342 1.3806C8.82705 1.75904 9.60794 2.3999 10.1574 3.22215C10.7068 4.04439 11 5.01109 11 6C10.9985 7.32564 10.4713 8.59656 9.53393 9.53393C8.59656 10.4713 7.32564 10.9985 6 11Z" fill="#88939C"/>
<path d="M5.99988 5.00012H5.49988C5.36727 5.00012 5.24009 5.0528 5.14632 5.14657C5.05256 5.24034 4.99988 5.36751 4.99988 5.50012C4.99988 5.63273 5.05256 5.75991 5.14632 5.85368C5.24009 5.94744 5.36727 6.00012 5.49988 6.00012H5.99988V9.00012C5.99988 9.13273 6.05255 9.25991 6.14632 9.35368C6.24009 9.44744 6.36727 9.50012 6.49988 9.50012C6.63248 9.50012 6.75966 9.44744 6.85343 9.35368C6.9472 9.25991 6.99987 9.13273 6.99987 9.00012V6.00012C6.99987 5.73491 6.89452 5.48055 6.70698 5.29302C6.51945 5.10548 6.26509 5.00012 5.99988 5.00012Z" fill="#88939C"/>
<path d="M6 3.99982C6.41421 3.99982 6.75 3.66403 6.75 3.24982C6.75 2.8356 6.41421 2.49982 6 2.49982C5.58579 2.49982 5.25 2.8356 5.25 3.24982C5.25 3.66403 5.58579 3.99982 6 3.99982Z" fill="#88939C"/>
</g>
<path d="M19.044 3.516H23.244C23.244 6.288 22.272 8.856 19.212 10.584L18.636 9.876C21.108 8.496 22.128 6.552 22.272 4.32H19.044V3.516ZM26.82 2.124H27.768V12.888H26.82V7.26H25.356V12.348H24.432V2.412H25.356V6.456H26.82V2.124ZM34.5471 12.12C36.2391 12.12 37.2231 11.712 37.2231 11.004C37.2231 10.284 36.2391 9.876 34.5471 9.876C32.8431 9.876 31.8471 10.284 31.8471 11.004C31.8471 11.712 32.8431 12.12 34.5471 12.12ZM34.5471 9.12C36.8271 9.12 38.2191 9.792 38.2191 11.004C38.2191 12.204 36.8271 12.876 34.5471 12.876C32.2431 12.876 30.8511 12.204 30.8511 11.004C30.8511 9.792 32.2431 9.12 34.5471 9.12ZM31.9311 4.368V5.592H37.1631V4.368H31.9311ZM35.0391 7.512H39.4071V8.316H29.6631V7.512H34.0551V6.372H30.9591V2.412H31.9311V3.612H37.1631V2.412H38.1351V6.372H35.0391V7.512ZM44.6651 3.276H49.5851C49.5851 6.336 48.1811 9.108 44.7011 10.848L44.1611 10.08C46.9091 8.7 48.3851 6.636 48.6131 4.092H44.6651V3.276ZM54.0971 6.492V7.308H52.3691V12.888H51.3851V2.124H52.3691V6.492H54.0971ZM63.7562 5.124V5.916H56.4482V2.352H57.4322V5.124H63.7562ZM59.9882 12.084C61.6682 12.084 62.6762 11.64 62.6762 10.896C62.6762 10.128 61.6802 9.696 59.9882 9.696C58.2962 9.696 57.3002 10.128 57.3002 10.896C57.3002 11.64 58.2962 12.084 59.9882 12.084ZM59.9882 8.928C62.2802 8.928 63.6722 9.636 63.6722 10.896C63.6722 12.144 62.2802 12.852 59.9882 12.852C57.6962 12.852 56.3042 12.144 56.3042 10.896C56.3042 9.636 57.6962 8.928 59.9882 8.928ZM55.1402 7.164H64.8722V7.968H55.1402V7.164ZM72.5513 3.444V4.236H66.2033V3.444H68.8793V2.124H69.8633V3.444H72.5513ZM67.7393 6.828C67.7393 7.584 68.3993 8.064 69.3713 8.064C70.3433 8.064 71.0153 7.584 71.0153 6.828C71.0153 6.084 70.3433 5.604 69.3713 5.604C68.3993 5.604 67.7393 6.084 67.7393 6.828ZM71.9513 6.828C71.9513 8.04 70.8953 8.832 69.3713 8.832C67.8473 8.832 66.8033 8.04 66.8033 6.828C66.8033 5.628 67.8473 4.836 69.3713 4.836C70.8953 4.836 71.9513 5.628 71.9513 6.828ZM68.8073 9.564V11.844H74.9993V12.648H67.8233V9.564H68.8073ZM74.5193 5.676H76.1033V6.504H74.5193V10.2H73.5353V2.124H74.5193V5.676ZM89.4133 2.124V7.644H88.4293V2.124H89.4133ZM81.7813 4.908C81.7813 5.832 82.5613 6.492 83.6053 6.492C84.6613 6.492 85.4293 5.832 85.4293 4.908C85.4293 3.972 84.6613 3.312 83.6053 3.312C82.5613 3.312 81.7813 3.972 81.7813 4.908ZM86.3893 4.908C86.3893 6.324 85.2133 7.284 83.6053 7.284C81.9973 7.284 80.8333 6.324 80.8333 4.908C80.8333 3.48 81.9973 2.508 83.6053 2.508C85.2133 2.508 86.3893 3.48 86.3893 4.908ZM83.4373 11.964H89.7733V12.744H82.4653V10.044H88.4413V8.952H82.4413V8.172H89.4133V10.776H83.4373V11.964ZM96.0844 7.44V5.472H93.0364V7.44H96.0844ZM97.0444 2.904V8.232H92.0644V2.904H93.0364V4.704H96.0844V2.904H97.0444ZM94.2604 9.276V11.844H100.452V12.648H93.2764V9.276H94.2604ZM99.9724 5.388H101.556V6.216H99.9724V10.032H98.9884V2.136H99.9724V5.388ZM106.958 8.652L106.574 7.872C108.662 7.536 110.414 6.276 110.414 4.62H106.946V3.828H110.414V2.364H111.41V3.828H114.866V4.62H111.41C111.41 6.276 113.162 7.536 115.25 7.872L114.866 8.652C113.138 8.34 111.59 7.476 110.918 6.156C110.234 7.476 108.686 8.34 106.958 8.652ZM111.41 10.716H115.802V11.532H106.034V10.716H110.414V8.268H111.41V10.716ZM117.962 4.32L124.634 4.116C124.646 3.78 124.646 3.48 124.646 3.216H118.226V2.448H125.606V3.12C125.606 3.888 125.606 4.86 125.366 6.18L124.394 6.108C124.478 5.628 124.538 5.196 124.574 4.812L118.094 5.112L117.962 4.32ZM119.234 10.956V11.964H125.882V12.72H118.274V10.236H124.586V9.24H118.238V8.496H125.558V10.956H119.234ZM122.018 6.804H126.794V7.584H117.086V6.804H121.034V5.52H122.018V6.804ZM136.933 2.124V9.408H135.949V2.124H136.933ZM128.677 5.1H132.565V3.612H128.641V2.808H133.537V5.856H129.637V7.428C131.617 7.428 133.009 7.368 134.665 7.08L134.761 7.872C133.045 8.172 131.617 8.232 129.541 8.232H128.677V5.1ZM133.957 8.868V9.18C133.957 10.68 135.637 11.796 137.569 12.096L137.197 12.852C135.565 12.564 134.101 11.76 133.453 10.536C132.817 11.772 131.329 12.564 129.709 12.852L129.325 12.096C131.245 11.796 132.949 10.692 132.949 9.18V8.868H133.957ZM146.976 2.124H147.96V12.912H146.976V2.124ZM142.284 2.952C143.88 2.952 145.02 4.416 145.02 6.708C145.02 9 143.88 10.464 142.284 10.464C140.688 10.464 139.548 9 139.548 6.708C139.548 4.416 140.688 2.952 142.284 2.952ZM142.284 3.84C141.228 3.84 140.484 4.968 140.484 6.708C140.484 8.46 141.228 9.588 142.284 9.588C143.328 9.588 144.072 8.46 144.072 6.708C144.072 4.968 143.328 3.84 142.284 3.84ZM162.398 2.136V8.28H161.414V2.136H162.398ZM156.614 3.576C155.546 3.576 154.778 4.284 154.778 5.268C154.778 6.264 155.546 6.96 156.614 6.96C157.682 6.96 158.474 6.264 158.474 5.268C158.474 4.284 157.682 3.576 156.614 3.576ZM156.614 7.776C154.994 7.776 153.818 6.756 153.818 5.268C153.818 3.78 154.994 2.76 156.614 2.76C158.246 2.76 159.434 3.78 159.434 5.268C159.434 6.756 158.246 7.776 156.614 7.776ZM161.198 8.748V9.324C161.198 10.44 161.99 11.544 163.358 12L162.866 12.744C161.81 12.36 161.066 11.616 160.706 10.716C160.37 11.592 159.71 12.408 158.714 12.84C157.682 12.432 157.034 11.652 156.71 10.752C156.326 11.616 155.594 12.36 154.586 12.744L154.094 12C155.45 11.52 156.254 10.356 156.254 9.324V8.748H157.202V9.324C157.202 10.272 157.694 11.292 158.69 11.88C159.722 11.244 160.238 10.164 160.238 9.324V8.748H161.198ZM166.045 3.972V9.384C167.953 9.384 169.333 9.3 170.893 9.024L171.001 9.84C169.357 10.152 167.941 10.224 165.913 10.224H165.061V3.156H170.065V3.972H166.045ZM174.661 6.372V7.188H172.885V12.912H171.901V2.124H172.885V6.372H174.661ZM180.084 7.308V3.852H177.108V7.308H180.084ZM183.516 4.824H181.044V6.324H183.516V4.824ZM181.044 7.128V8.088H176.136V3.072H181.044V4.02H183.516V2.136H184.512V9.984H183.516V7.128H181.044ZM178.572 11.844H184.764V12.648H177.588V9.288H178.572V11.844ZM23.1 22.104V20.256H20.052V22.104H23.1ZM24.06 17.808V22.896H19.08V17.808H20.052V19.488H23.1V17.808H24.06ZM19.992 24.996V24.204H26.988V27.9H26.004V24.996H19.992ZM28.584 19.92V20.736H26.988V23.628H26.004V17.136H26.988V19.92H28.584ZM38.9511 22.536L38.5071 23.352C36.8751 22.98 35.1951 21.828 34.5111 20.244C33.8271 21.816 32.1471 22.968 30.5271 23.352L30.0831 22.536C31.9671 22.164 33.9951 20.544 33.9951 18.708V17.88H35.0271V18.708C35.0271 20.544 37.0671 22.176 38.9511 22.536ZM29.6751 25.632H39.4311V26.448H29.6751V25.632ZM48.2501 19.008V18.132H41.9381V17.436H49.2221V19.68H42.9341V20.604H49.4141V21.312H41.9621V19.008H48.2501ZM42.8741 26.04V27.036H49.5941V27.744H41.9021V25.356H48.2861V24.456H41.8781V23.748H49.2581V26.04H42.8741ZM40.7141 22.128H50.4701V22.872H40.7141V22.128ZM57.2762 25.848V26.976H64.0802V27.744H56.3042V25.116H62.7362V24.108H56.2802V23.34H63.6962V25.848H57.2762ZM63.3842 21.528H64.8482V22.32H55.1522V21.528H62.3882C62.4962 21.024 62.5562 20.568 62.6042 20.16L56.2322 20.448L56.1122 19.668L62.6522 19.464C62.6642 19.104 62.6642 18.768 62.6642 18.456V18.42H56.3762V17.64H63.6362V18.456C63.6362 19.296 63.6362 20.256 63.3842 21.528ZM72.7073 21.96L72.8153 22.752C71.0513 23.04 69.5873 23.1 67.5953 23.1H66.7313V19.992H70.6193V18.564H66.6953V17.76H71.5912V20.748H67.6913V22.296C69.5993 22.296 71.0033 22.236 72.7073 21.96ZM67.8113 25.092V24.288H74.9993V27.888H74.0153V25.092H67.8113ZM74.0153 17.136H74.9993V23.712H74.0153V17.136ZM80.3623 24.672C81.3463 24.672 82.0543 23.976 82.0543 23.016C82.0543 22.044 81.3463 21.348 80.3623 21.348C79.3903 21.348 78.6823 22.044 78.6823 23.016C78.6823 23.976 79.3903 24.672 80.3623 24.672ZM80.3623 20.532C81.8983 20.532 82.9903 21.564 82.9903 23.016C82.9903 24.48 81.8983 25.488 80.3623 25.488C78.8503 25.488 77.7583 24.48 77.7583 23.016C77.7583 21.564 78.8503 20.532 80.3623 20.532ZM80.8423 17.256V18.852H83.4943V19.644H77.1463V18.852H79.8583V17.256H80.8423ZM87.2623 21.552V22.38H85.4983V27.888H84.5143V17.136H85.4983V21.552H87.2623ZM93.6814 22.932H96.1294V20.34H93.6454C93.7414 20.76 93.8014 21.216 93.8014 21.708C93.8014 22.152 93.7534 22.56 93.6814 22.932ZM91.1254 24.588C92.1454 24.588 92.8774 23.46 92.8774 21.708C92.8774 19.968 92.1454 18.84 91.1254 18.84C90.0934 18.84 89.3734 19.968 89.3734 21.708C89.3734 23.46 90.0934 24.588 91.1254 24.588ZM96.1294 17.124H97.1134V27.912H96.1294V23.736H93.4414C92.9974 24.828 92.1574 25.464 91.1254 25.464C89.5534 25.464 88.4374 24 88.4374 21.708C88.4374 19.416 89.5534 17.952 91.1254 17.952C92.1214 17.952 92.9134 18.528 93.3694 19.536H96.1294V17.124ZM110.531 25.128V22.032H108.731V21.228H110.531V19.968H108.731V19.176H110.531V17.136H111.527V25.128H110.531ZM104.999 18.792V22.668C105.527 22.656 106.079 22.632 106.619 22.608V18.792H104.999ZM108.983 22.416L109.043 23.148C106.979 23.472 104.543 23.508 102.803 23.508L102.695 22.692C103.103 22.692 103.571 22.692 104.051 22.68V18.792H102.983V18H108.647V18.792H107.579V22.548C108.059 22.512 108.539 22.464 108.983 22.416ZM105.611 26.844H111.803V27.648H104.627V24.48H105.611V26.844ZM117.539 19.044V20.412C117.539 22.236 118.835 24.096 120.419 24.768L119.867 25.56C118.619 24.984 117.563 23.748 117.047 22.272C116.555 23.844 115.499 25.2 114.275 25.824L113.699 25.032C115.247 24.3 116.555 22.272 116.555 20.412V19.044H114.059V18.228H120.071V19.044H117.539ZM121.523 17.136H122.507V27.888H121.523V17.136ZM132.274 19.008V18.132H125.962V17.436H133.246V19.68H126.958V20.604H133.438V21.312H125.986V19.008H132.274ZM126.898 26.04V27.036H133.618V27.744H125.926V25.356H132.31V24.456H125.902V23.748H133.282V26.04H126.898ZM124.738 22.128H134.494V22.872H124.738V22.128ZM140.352 20.028C140.352 20.964 141.132 21.636 142.176 21.636C143.232 21.636 144 20.964 144 20.028C144 19.092 143.232 18.42 142.176 18.42C141.132 18.42 140.352 19.092 140.352 20.028ZM144.96 20.028C144.96 21.456 143.784 22.44 142.176 22.44C140.568 22.44 139.404 21.456 139.404 20.028C139.404 18.6 140.568 17.616 142.176 17.616C143.784 17.616 144.96 18.6 144.96 20.028ZM141.468 25.812V26.988C142.836 26.988 143.712 26.952 144.792 26.76L144.888 27.504C143.688 27.72 142.74 27.744 141.168 27.744H140.52V25.092H143.1V24.072H140.496V23.328H144.06V25.812H141.468ZM144.516 24.12V23.328H147.972V27.816H147V24.12H144.516ZM146.988 17.136H147.972V22.836H146.988V17.136ZM153.071 24.588C154.091 24.588 154.811 23.46 154.811 21.708C154.811 19.968 154.091 18.84 153.071 18.84C152.039 18.84 151.319 19.968 151.319 21.708C151.319 23.46 152.039 24.588 153.071 24.588ZM158.075 17.124H159.059V27.912H158.075V22.032H155.735C155.639 24.144 154.571 25.464 153.071 25.464C151.499 25.464 150.383 24 150.383 21.708C150.383 19.416 151.499 17.952 153.071 17.952C154.523 17.952 155.579 19.212 155.735 21.228H158.075V17.124ZM163.39 25.968V27.012H170.038V27.768H162.43V25.248H168.742V24.312H162.394V23.568H169.714V25.968H163.39ZM163.486 19.056V20.088H168.718V19.056H163.486ZM166.582 21.876H170.962V22.668H161.218V21.876H165.598V20.844H162.514V17.292H163.486V18.312H168.718V17.292H169.69V20.844H166.582V21.876ZM184.908 21.228L184.5 22.02C182.832 21.732 181.212 20.796 180.516 19.5C179.844 20.808 178.224 21.732 176.544 22.02L176.148 21.228C178.104 20.94 180 19.644 180 18.108V17.508H181.032V18.108C181.032 19.608 182.952 20.94 184.908 21.228ZM185.376 23.184L185.388 24H180.984V27.9H180V24H175.656V23.184H185.376ZM198.89 17.136V23.28H197.906V17.136H198.89ZM193.106 18.576C192.038 18.576 191.27 19.284 191.27 20.268C191.27 21.264 192.038 21.96 193.106 21.96C194.174 21.96 194.966 21.264 194.966 20.268C194.966 19.284 194.174 18.576 193.106 18.576ZM193.106 22.776C191.486 22.776 190.31 21.756 190.31 20.268C190.31 18.78 191.486 17.76 193.106 17.76C194.738 17.76 195.926 18.78 195.926 20.268C195.926 21.756 194.738 22.776 193.106 22.776ZM197.69 23.748V24.324C197.69 25.44 198.482 26.544 199.85 27L199.358 27.744C198.302 27.36 197.558 26.616 197.198 25.716C196.862 26.592 196.202 27.408 195.206 27.84C194.174 27.432 193.526 26.652 193.202 25.752C192.818 26.616 192.086 27.36 191.078 27.744L190.586 27C191.942 26.52 192.746 25.356 192.746 24.324V23.748H193.694V24.324C193.694 25.272 194.186 26.292 195.182 26.88C196.214 26.244 196.73 25.164 196.73 24.324V23.748H197.69ZM203.977 24.588C204.997 24.588 205.717 23.46 205.717 21.708C205.717 19.968 204.997 18.84 203.977 18.84C202.945 18.84 202.225 19.968 202.225 21.708C202.225 23.46 202.945 24.588 203.977 24.588ZM208.981 17.124H209.965V27.912H208.981V22.032H206.641C206.545 24.144 205.477 25.464 203.977 25.464C202.405 25.464 201.289 24 201.289 21.708C201.289 19.416 202.405 17.952 203.977 17.952C205.429 17.952 206.485 19.212 206.641 21.228H208.981V17.124ZM215.508 23.16V25.692H218.508V23.16C218.052 23.268 217.536 23.328 216.996 23.328C216.468 23.328 215.952 23.268 215.508 23.16ZM216.996 18.576C215.268 18.576 214.032 19.368 214.032 20.568C214.032 21.768 215.268 22.56 216.996 22.56C218.724 22.56 219.972 21.768 219.972 20.568C219.972 19.368 218.724 18.576 216.996 18.576ZM219.492 25.692H221.904V26.508H212.124V25.692H214.524V22.788C213.624 22.32 213.084 21.54 213.084 20.568C213.084 18.888 214.716 17.808 216.996 17.808C219.288 17.808 220.908 18.888 220.908 20.568C220.908 21.54 220.38 22.308 219.492 22.776V25.692ZM224.192 27.0682C223.982 27.0682 223.802 26.9929 223.651 26.8423C223.501 26.6918 223.425 26.5114 223.425 26.3011C223.425 26.0909 223.501 25.9105 223.651 25.7599C223.802 25.6094 223.982 25.5341 224.192 25.5341C224.403 25.5341 224.583 25.6094 224.734 25.7599C224.884 25.9105 224.96 26.0909 224.96 26.3011C224.96 26.4403 224.924 26.5682 224.853 26.6847C224.785 26.8011 224.692 26.8949 224.576 26.9659C224.462 27.0341 224.335 27.0682 224.192 27.0682Z" fill="#232226"/>
<defs>
<clipPath id="clip0_15_643">
<rect width="12" height="12" fill="white"/>
</clipPath>
</defs>
</svg>
