<svg width="24" height="24" viewBox="0 0 24 24" fill="none" xmlns="http://www.w3.org/2000/svg">
<g clip-path="url(#clip0_336_1431)">
<g clip-path="url(#clip1_336_1431)">
<path d="M17.106 8.336C17.664 8.781 18.332 9.004 19 9.004C19.668 9.004 20.336 8.781 20.893 8.337C22.094 7.38 24 5.139 24 3.2C24 1.435 22.654 0 21 0C20.248 0 19.539 0.311 19 0.806C18.461 0.311 17.752 0 17 0C15.346 0 14 1.436 14 3.2C14 5.138 15.906 7.38 17.106 8.336ZM17 2C17.554 2 18 2.547 18 3C18 3.553 18.447 4 19 4C19.553 4 20 3.553 20 3C20 2.547 20.446 2 21 2C21.554 2 22 2.538 22 3.2C22 4.172 20.758 5.888 19.646 6.773C19.265 7.076 18.735 7.077 18.354 6.773C17.243 5.888 16 4.172 16 3.201C16 2.539 16.448 2 17 2ZM24 11V19C24 21.757 21.757 24 19 24H5C2.243 24 0 21.757 0 19V8C0 5.243 2.243 3 5 3H11C11.552 3 12 3.447 12 4C12 4.553 11.552 5 11 5H5C3.852 5 2.865 5.655 2.361 6.604L9.878 14.121C11.012 15.254 12.988 15.254 14.121 14.121L17.293 10.949C17.684 10.558 18.316 10.558 18.707 10.949C19.098 11.34 19.098 11.972 18.707 12.363L15.535 15.535C14.592 16.479 13.336 17 12 17C10.664 17 9.409 16.479 8.464 15.535L2 9.071V19C2 20.654 3.346 22 5 22H19C20.654 22 22 20.654 22 19V11C22 10.447 22.447 10 23 10C23.553 10 24 10.447 24 11Z" fill="#9E4AFF"/>
</g>
</g>
<defs>
<clipPath id="clip0_336_1431">
<rect width="24" height="24" fill="white"/>
</clipPath>
<clipPath id="clip1_336_1431">
<rect width="24" height="24" fill="white"/>
</clipPath>
</defs>
</svg>
