<svg width="126" height="56" viewBox="0 0 126 56" fill="none" xmlns="http://www.w3.org/2000/svg">
<g filter="url(#filter0_d_911_1527)">
<path d="M20.5218 9.28C26.2051 9.28 30.0184 11.9933 31.9618 17.42C32.4018 19.95 32.6218 21.8567 32.6218 23.14C32.6218 29.19 30.2018 33.6633 25.3618 36.56L20.3018 37C17.5884 37 14.8751 35.68 12.1618 33.04C10.1084 29.2267 9.08177 25.9267 9.08177 23.14C9.41177 19.07 10.5851 15.4767 12.6018 12.36C14.9484 10.3067 17.5884 9.28 20.5218 9.28ZM13.9218 23.58C13.9218 26.2567 14.9484 28.75 17.0018 31.06C18.4684 31.7933 19.5684 32.16 20.3018 32.16C23.6018 32.16 25.5084 31.28 26.0218 29.52C27.1951 27.7233 27.7818 25.67 27.7818 23.36V22.26C27.7818 18.2633 26.2418 15.6233 23.1618 14.34C22.6118 14.1933 22.0251 14.12 21.4018 14.12H20.5218C17.5151 14.12 15.6084 15.5867 14.8018 18.52C14.2151 20.9033 13.9218 22.59 13.9218 23.58ZM42.4691 10.16C43.6791 10.16 44.3391 10.8933 44.4491 12.36C46.7591 10.8933 49.1791 10.16 51.7091 10.16H53.0291C56.9891 10.16 59.7758 12.4333 61.3891 16.98C61.9758 18.63 62.2691 20.39 62.2691 22.26V22.48C62.2691 29.41 59.7025 34.03 54.5691 36.34L52.3691 36.56H51.4891C49.2891 36.56 46.9424 36.0467 44.4491 35.02V44.26C44.4491 45.7267 43.8624 46.7533 42.6891 47.34H41.5891C40.2691 47.1567 39.6091 46.4967 39.6091 45.36V14.34C39.6091 12.1767 40.1224 10.7833 41.1491 10.16H42.4691ZM44.4491 21.16V28.86L47.3091 31.06C49.7291 31.6467 51.2691 31.94 51.9291 31.94C54.8258 31.94 56.6591 29.2267 57.4291 23.8V21.82C57.4291 17.8233 56.0358 15.55 53.2491 15C52.9558 14.8533 52.7358 14.78 52.5891 14.78C47.9324 14.78 45.2191 16.9067 44.4491 21.16ZM80.2165 8.84C85.4965 10.4533 88.1365 12.0667 88.1365 13.68C89.6032 15.9167 90.3365 18.9233 90.3365 22.7C90.3365 23.9833 89.0898 24.7167 86.5965 24.9C84.4332 25.0467 81.9398 25.12 79.1165 25.12H76.6965L75.3765 25.34C75.1198 25.1933 74.7532 25.12 74.2765 25.12H72.5165V25.34C72.5165 29.1167 75.0832 31.39 80.2165 32.16C81.7565 32.16 84.0298 31.5733 87.0365 30.4H87.2565C88.5765 30.8767 89.2365 31.6833 89.2365 32.82C89.2365 35.13 86.0832 36.5233 79.7765 37C75.8898 37 72.3698 35.02 69.2165 31.06C68.3365 29.1533 67.7498 26.44 67.4565 22.92C67.4565 16.3567 70.0232 11.9567 75.1565 9.72C77.3932 9.13333 79.0798 8.84 80.2165 8.84ZM72.5165 20.28C73.5432 20.28 74.0565 20.3533 74.0565 20.5L76.6965 20.28H84.1765L85.2765 20.06C85.2765 15.9533 83.2965 13.9 79.3365 13.9H78.6765C75.6332 13.9 73.5798 16.0267 72.5165 20.28ZM98.3293 9.94H99.4293C100.749 9.94 101.409 11.04 101.409 13.24C103.976 11.1867 106.396 10.16 108.669 10.16H109.989C113.436 10.16 115.856 12.7267 117.249 17.86C117.249 18.5933 117.323 19.6933 117.469 21.16C117.469 31.4267 117.029 36.56 116.149 36.56L114.609 37C113.253 37 112.519 36.0467 112.409 34.14C112.409 31.4267 112.483 26.7333 112.629 20.06C112.299 16.54 111.126 14.78 109.109 14.78C106.653 14.78 104.086 16.6867 101.409 20.5C101.409 23.69 101.336 28.3833 101.189 34.58C100.859 36.0467 100.126 36.78 98.9893 36.78H98.1093C97.486 36.78 96.8993 35.9 96.3493 34.14C96.6427 28.4933 96.7893 23.2867 96.7893 18.52C96.6427 15.11 96.5693 13.35 96.5693 13.24C96.5693 11.59 97.156 10.49 98.3293 9.94Z" fill="white"/>
</g>
<defs>
<filter id="filter0_d_911_1527" x="0.881787" y="0.639966" width="124.788" height="54.9" filterUnits="userSpaceOnUse" color-interpolation-filters="sRGB">
<feFlood flood-opacity="0" result="BackgroundImageFix"/>
<feColorMatrix in="SourceAlpha" type="matrix" values="0 0 0 0 0 0 0 0 0 0 0 0 0 0 0 0 0 0 127 0" result="hardAlpha"/>
<feOffset/>
<feGaussianBlur stdDeviation="4.1"/>
<feComposite in2="hardAlpha" operator="out"/>
<feColorMatrix type="matrix" values="0 0 0 0 0.917647 0 0 0 0 0.34902 0 0 0 0 0.85098 0 0 0 1 0"/>
<feBlend mode="normal" in2="BackgroundImageFix" result="effect1_dropShadow_911_1527"/>
<feBlend mode="normal" in="SourceGraphic" in2="effect1_dropShadow_911_1527" result="shape"/>
</filter>
</defs>
</svg>
