<svg width="25" height="24" viewBox="0 0 25 24" fill="none" xmlns="http://www.w3.org/2000/svg">
<g clip-path="url(#clip0_848_1465)">
<path d="M22.4161 8.72707L4.46515 0.282073C3.45115 -0.210927 2.25615 -0.0409267 1.41715 0.713073C0.576146 1.47007 0.284146 2.64607 0.672146 3.70807C0.689146 3.75107 5.08315 12.0041 5.08315 12.0041C5.08315 12.0041 0.770146 20.2551 0.755146 20.2971C0.368146 21.3601 0.663145 22.5341 1.50415 23.2901C2.02515 23.7571 2.68315 23.9981 3.34515 23.9981C3.75415 23.9981 4.16415 23.9061 4.54615 23.7191L22.4181 15.2811C23.7031 14.6781 24.5011 13.4221 24.5001 12.0031C24.5001 10.5831 23.6991 9.32707 22.4161 8.72707ZM2.53215 2.96707C2.41015 2.55207 2.67015 2.27707 2.75515 2.19907C2.84415 2.12007 3.16915 1.87507 3.59315 2.08307C3.59815 2.08507 21.5671 10.5381 21.5671 10.5381C21.8061 10.6501 22.0051 10.8081 22.1581 11.0001H6.81515L2.53215 2.96707ZM21.5661 13.4711L3.67815 21.9171C3.25315 22.1261 2.92915 21.8821 2.84015 21.8011C2.75415 21.7251 2.49415 21.4481 2.61715 21.0321L6.81915 13.0001H22.1641C22.0111 13.1951 21.8081 13.3571 21.5661 13.4711Z" fill="#9E4AFF"/>
</g>
<defs>
<clipPath id="clip0_848_1465">
<rect width="24" height="24" fill="white" transform="translate(0.5)"/>
</clipPath>
</defs>
</svg>
