<svg width="24" height="24" viewBox="0 0 24 24" fill="none" xmlns="http://www.w3.org/2000/svg">
<g clip-path="url(#clip0_346_1377)">
<g clip-path="url(#clip1_346_1377)">
<g clip-path="url(#clip2_346_1377)">
<path d="M21.9161 8.72709L3.96515 0.282089C2.95115 -0.210911 1.75615 -0.0409114 0.917146 0.713089C0.0761455 1.47009 -0.215854 2.64609 0.172146 3.70809C0.189146 3.75109 4.58315 12.0041 4.58315 12.0041C4.58315 12.0041 0.270146 20.2551 0.255146 20.2971C-0.131854 21.3601 0.163145 22.5341 1.00415 23.2901C1.52515 23.7571 2.18315 23.9981 2.84515 23.9981C3.25415 23.9981 3.66415 23.9061 4.04615 23.7191L21.9181 15.2811C23.2031 14.6781 24.0011 13.4221 24.0001 12.0031C24.0001 10.5831 23.1991 9.32709 21.9161 8.72709ZM2.03215 2.96709C1.91015 2.55209 2.17015 2.27709 2.25515 2.19909C2.34415 2.12009 2.66915 1.87509 3.09315 2.08309C3.09815 2.08509 21.0671 10.5381 21.0671 10.5381C21.3061 10.6501 21.5051 10.8081 21.6581 11.0001H6.31515L2.03215 2.96709ZM21.0661 13.4711L3.17815 21.9171C2.75315 22.1261 2.42915 21.8821 2.34015 21.8011C2.25415 21.7251 1.99415 21.4481 2.11715 21.0321L6.31915 13.0001H21.6641C21.5111 13.1951 21.3081 13.3571 21.0661 13.4711Z" fill="#9E4AFF"/>
</g>
</g>
</g>
<defs>
<clipPath id="clip0_346_1377">
<rect width="24" height="24" fill="white"/>
</clipPath>
<clipPath id="clip1_346_1377">
<rect width="24" height="24" fill="white"/>
</clipPath>
<clipPath id="clip2_346_1377">
<rect width="24" height="24" fill="white"/>
</clipPath>
</defs>
</svg>
