<svg width="215" height="47" viewBox="0 0 215 47" fill="none" xmlns="http://www.w3.org/2000/svg">
<rect width="215" height="38" rx="10" fill="white"/>
<path d="M43.5713 14.407C44.5073 14.407 45.2526 14.8967 45.8073 15.876C45.9459 16.318 46.0326 16.682 46.0673 16.968C46.0673 18.0947 45.4259 18.9483 44.1433 19.529C43.9093 19.5637 43.7186 19.581 43.5713 19.581H43.0513C42.0113 19.581 41.2659 18.9093 40.8153 17.566L40.7633 17.02C40.7633 15.72 41.4566 14.849 42.8433 14.407H43.5713ZM41.9073 17.02C41.9073 17.8 42.3233 18.2723 43.1553 18.437C44.1173 18.437 44.7066 18.0037 44.9233 17.137V16.968C44.9233 16.2833 44.4726 15.811 43.5713 15.551C42.8086 15.551 42.2713 15.8587 41.9593 16.474L41.9073 17.02ZM48.2643 13.913H48.3683C48.6716 13.913 48.8449 14.1383 48.8883 14.589V16.045C48.8883 16.9117 48.9056 18.1423 48.9403 19.737C48.8796 19.893 48.7583 20.0317 48.5763 20.153H48.2123C47.9003 20.153 47.7443 19.3557 47.7443 17.761V16.825L47.7963 16.513C47.7616 16.2877 47.7443 16.0623 47.7443 15.837V14.537C47.7789 14.121 47.9523 13.913 48.2643 13.913ZM42.4663 20.582H48.1863C48.5416 20.582 48.7496 20.842 48.8103 21.362V22.974C48.8103 24.3953 48.6716 25.106 48.3943 25.106C48.3943 25.1753 48.2903 25.21 48.0823 25.21C47.8136 25.21 47.6403 25.0193 47.5623 24.638C47.6316 24.1787 47.6663 23.728 47.6663 23.286V21.726H47.6143C46.7476 21.726 44.9796 21.7087 42.3103 21.674C42.0329 21.5527 41.8943 21.362 41.8943 21.102C41.9896 20.7553 42.1803 20.582 42.4663 20.582ZM51.586 14.758H52.054C52.5567 14.758 53.1287 14.7753 53.77 14.81C53.9087 14.7753 54.0473 14.758 54.186 14.758C54.6367 14.758 54.862 15.2607 54.862 16.266V16.578C54.862 18.398 54.758 19.308 54.55 19.308C54.4027 19.3773 54.0213 19.4293 53.406 19.464C52.7647 19.4293 52.2273 19.412 51.794 19.412C51.742 19.412 51.4993 19.4293 51.066 19.464C50.5113 19.3773 50.234 19.1347 50.234 18.736V15.382C50.234 14.966 50.6847 14.758 51.586 14.758ZM51.378 15.902V18.32H53.718V17.748C53.718 17.566 53.7353 17.28 53.77 16.89C53.7353 16.708 53.718 16.5347 53.718 16.37V15.902C53.6833 15.902 53.666 15.9193 53.666 15.954C53.3193 15.9193 53.0593 15.902 52.886 15.902H51.378ZM57.488 13.848C57.8347 13.9867 58.008 14.1773 58.008 14.42C58.008 14.524 57.9907 14.576 57.956 14.576C57.9907 15.148 58.008 15.5813 58.008 15.876V17.748C58.008 18.2507 58.0253 18.9267 58.06 19.776C57.9387 20.1227 57.7307 20.296 57.436 20.296C57.1673 20.296 56.994 20.0707 56.916 19.62V18.84H55.096L54.784 18.892C54.4373 18.7967 54.264 18.606 54.264 18.32C54.264 17.904 54.576 17.696 55.2 17.696H56.916V16.604H54.94C54.524 16.5693 54.316 16.396 54.316 16.084V15.98C54.316 15.7027 54.5067 15.5293 54.888 15.46H56.864V14.524C56.864 14.0733 57.072 13.848 57.488 13.848ZM54.628 20.335C56.188 20.335 57.2627 20.8507 57.852 21.882C57.9907 22.2373 58.06 22.5883 58.06 22.935C58.06 24.1917 57.124 25.0063 55.252 25.379H54.784C52.808 25.379 51.5773 24.859 51.092 23.819C50.988 23.5417 50.936 23.286 50.936 23.052V22.883C50.936 21.7997 51.5253 21.0413 52.704 20.608C53.146 20.426 53.7873 20.335 54.628 20.335ZM52.028 23.052C52.2533 23.7887 53.0333 24.157 54.368 24.157H55.148C55.9627 24.157 56.552 23.7887 56.916 23.052V22.831C56.916 22.0943 56.188 21.6697 54.732 21.557H54.576C52.8773 21.557 52.028 22.0553 52.028 23.052ZM64.0419 14.875C65.3072 14.875 66.4166 15.3083 67.3699 16.175C67.7166 16.7123 67.8899 17.3883 67.8899 18.203C67.8899 19.217 67.1446 20.049 65.6539 20.699C65.0472 20.803 64.5792 20.855 64.2499 20.855H63.9379C62.7592 20.855 61.7712 20.4217 60.9739 19.555C60.5926 19.0263 60.4019 18.4543 60.4019 17.839C60.4019 16.9377 60.8526 16.1577 61.7539 15.499C62.5859 15.109 63.3486 14.901 64.0419 14.875ZM61.5459 17.787V17.891C61.5459 18.853 62.2392 19.4597 63.6259 19.711H64.3019C65.4719 19.711 66.2692 19.295 66.6939 18.463C66.7286 18.4023 66.7459 18.333 66.7459 18.255V18.151C66.7459 17.2237 66.4686 16.669 65.9139 16.487C65.3246 16.175 64.6486 16.019 63.8859 16.019C63.1406 16.019 62.4646 16.3137 61.8579 16.903C61.6499 17.3017 61.5459 17.5963 61.5459 17.787ZM60.4019 22.48H61.4419C63.0192 22.48 65.0299 22.4973 67.4739 22.532C67.7166 22.4973 67.9246 22.48 68.0979 22.48C68.4446 22.584 68.6179 22.7747 68.6179 23.052C68.5572 23.4333 68.3666 23.624 68.0459 23.624H59.9859C59.5699 23.5893 59.3619 23.3987 59.3619 23.052C59.3619 22.6707 59.7086 22.48 60.4019 22.48ZM76.0607 14.628C77.1701 14.628 77.7247 14.784 77.7247 15.096C77.7594 15.2347 77.7767 15.356 77.7767 15.46C77.7767 15.9713 77.7941 16.5607 77.8287 17.228C77.8287 17.9213 77.6381 18.268 77.2567 18.268H74.6047C74.0761 18.268 73.2614 18.2853 72.1607 18.32V19.672C73.6774 19.6373 74.6654 19.6027 75.1247 19.568C75.1594 19.568 75.2114 19.5853 75.2807 19.62C75.6361 19.5853 75.9134 19.568 76.1127 19.568H77.6207C78.0021 19.568 78.1927 19.7933 78.1927 20.244C78.0627 20.556 77.8027 20.712 77.4127 20.712C76.3554 20.712 74.7087 20.7293 72.4727 20.764L72.1087 20.816C71.4154 20.7553 71.0687 20.53 71.0687 20.14V17.748C71.1294 17.3667 71.3201 17.176 71.6407 17.176H71.7447C72.8021 17.176 74.4487 17.1587 76.6847 17.124V16.396L76.6327 15.772H71.9007L71.5887 15.824C71.2941 15.824 71.1034 15.616 71.0167 15.2C71.0167 14.8967 71.2421 14.7233 71.6927 14.68C72.5767 14.68 74.0327 14.6627 76.0607 14.628ZM74.6307 20.01C74.9774 20.0967 75.1507 20.2873 75.1507 20.582L75.1637 22.467H77.5037C77.7031 22.467 77.9804 22.4843 78.3357 22.519C78.3964 22.4843 78.4831 22.467 78.5957 22.467C78.9424 22.5623 79.1157 22.7357 79.1157 22.987V23.091C79.0377 23.4377 78.8644 23.611 78.5957 23.611C74.5224 23.5763 71.8704 23.559 70.6397 23.559C70.1544 23.559 69.9117 23.3857 69.9117 23.039V22.935C69.9117 22.6577 70.1024 22.4843 70.4837 22.415H74.0197C74.0197 22.3457 74.0241 22.0163 74.0327 21.427C74.0154 20.9677 74.0067 20.686 74.0067 20.582C74.0067 20.296 74.2147 20.1053 74.6307 20.01ZM84.9322 14.511H85.2442C86.4055 14.511 87.9482 14.5283 89.8722 14.563C90.1842 14.6843 90.3402 14.8577 90.3402 15.083V15.343C90.1582 15.5857 90.0022 15.707 89.8722 15.707C89.6382 15.6723 89.4475 15.655 89.3002 15.655H89.0402L89.0922 15.759C89.1615 17.215 89.1962 18.1077 89.1962 18.437H89.2482C89.4822 18.4023 89.6729 18.385 89.8202 18.385H90.1322C90.4789 18.4283 90.6522 18.5843 90.6522 18.853V19.113C90.6522 19.4597 89.6122 19.633 87.5322 19.633C86.2842 19.6677 85.3829 19.685 84.8282 19.685C84.4815 19.607 84.3082 19.4337 84.3082 19.165V19.113C84.3082 18.7317 84.6375 18.541 85.2962 18.541H85.6602C85.6429 16.617 85.6082 15.655 85.5562 15.655C84.7935 15.655 84.4122 15.4817 84.4122 15.135V14.979C84.4122 14.7103 84.5855 14.5543 84.9322 14.511ZM86.7522 15.655V17.189C86.7522 17.4837 86.7695 17.917 86.8042 18.489H88.1042C88.0695 18.2897 88.0175 17.345 87.9482 15.655H86.7522ZM92.5892 13.848C92.9359 13.9867 93.1092 14.1773 93.1092 14.42C93.1092 14.524 93.0919 14.576 93.0572 14.576C93.0919 15.148 93.1092 15.5813 93.1092 15.876V17.748C93.1092 18.2507 93.1265 18.9267 93.1612 19.776C93.0399 20.1227 92.8319 20.296 92.5372 20.296C92.2685 20.296 92.0952 20.0707 92.0172 19.62V18.84H90.1972L89.8852 18.892C89.5385 18.7967 89.3652 18.606 89.3652 18.32C89.3652 17.904 89.6772 17.696 90.3012 17.696H92.0172V16.604H90.0412C89.6252 16.5693 89.4172 16.396 89.4172 16.084V15.98C89.4172 15.7027 89.6079 15.5293 89.9892 15.46H91.9652V14.524C91.9652 14.0733 92.1732 13.848 92.5892 13.848ZM86.7522 20.634C87.1682 20.634 87.3762 21.414 87.3762 22.974V23.546H90.1322C90.7562 23.546 91.6055 23.5287 92.6802 23.494C93.0269 23.5893 93.2002 23.7627 93.2002 24.014V24.118C93.2002 24.352 93.0442 24.5253 92.7322 24.638C91.2415 24.6727 90.0975 24.69 89.3002 24.69H86.9082C86.4575 24.69 86.2322 24.326 86.2322 23.598C86.2322 22.558 86.2149 21.726 86.1802 21.102C86.2929 20.79 86.4835 20.634 86.7522 20.634ZM96.5305 14.94C96.8165 14.94 97.4579 14.9573 98.4545 14.992C98.9225 14.9573 99.3212 14.94 99.6505 14.94C100.101 15.0267 100.327 15.2173 100.327 15.512C100.257 15.8933 100.067 16.084 99.7545 16.084H97.9865L97.9345 16.552C97.9345 18.2853 98.7839 19.88 100.483 21.336C100.483 21.4487 100.5 21.5353 100.535 21.596C100.439 21.9427 100.266 22.116 100.015 22.116H99.9105C99.0525 21.778 98.2379 20.842 97.4665 19.308L96.6865 20.764C96.0452 21.7347 95.5252 22.22 95.1265 22.22H94.9705C94.6585 22.1767 94.5025 22.0207 94.5025 21.752V21.648C94.5025 21.4573 94.8145 21.128 95.4385 20.66C96.3052 19.4987 96.7385 17.9733 96.7385 16.084H95.8025C95.6119 16.084 95.3692 16.1013 95.0745 16.136C94.7279 16.0407 94.5545 15.85 94.5545 15.564C94.5545 15.148 95.0225 14.94 95.9585 14.94H96.5305ZM102.459 13.614C102.805 13.614 102.979 13.9953 102.979 14.758C103.013 15.1913 103.031 15.4167 103.031 15.434C102.961 17.6007 102.927 19.0567 102.927 19.802C102.961 21.3187 102.996 22.1507 103.031 22.298C102.996 22.428 102.979 22.584 102.979 22.766V22.87C102.979 23.0173 102.996 23.208 103.031 23.442C103.031 23.7367 102.823 23.9273 102.407 24.014C102.121 24.014 101.947 23.806 101.887 23.39C101.887 22.5667 101.852 21.2493 101.783 19.438C101.852 17.644 101.887 16.2227 101.887 15.174C101.887 15.0787 101.869 14.732 101.835 14.134C101.835 13.848 102.043 13.6747 102.459 13.614ZM111.557 13.471C112.042 13.471 112.285 14.0083 112.285 15.083C112.285 15.7763 111.938 16.123 111.245 16.123H106.565V16.539H106.617C107.336 16.539 109.087 16.5217 111.869 16.487C112.25 16.5563 112.441 16.7297 112.441 17.007V17.111C112.363 17.4577 112.189 17.631 111.921 17.631C111.435 17.631 109.459 17.6483 105.993 17.683C105.689 17.683 105.516 17.4057 105.473 16.851C105.438 16.669 105.421 16.3397 105.421 15.863V15.707C105.421 15.2217 105.767 14.979 106.461 14.979H111.141V14.875L111.089 14.615C108.376 14.6497 106.677 14.667 105.993 14.667C105.611 14.5977 105.421 14.407 105.421 14.095C105.421 13.757 105.629 13.5663 106.045 13.523C107.414 13.523 109.251 13.5057 111.557 13.471ZM104.901 18.359C105.421 18.3937 105.802 18.411 106.045 18.411H106.929C108.376 18.411 110.352 18.4283 112.857 18.463C113.169 18.5843 113.325 18.7577 113.325 18.983V19.087C113.247 19.4337 113.073 19.607 112.805 19.607C111.271 19.5723 110.075 19.555 109.217 19.555H106.721C106.686 19.555 106.669 19.5377 106.669 19.503C106.634 19.503 106.617 19.5203 106.617 19.555L106.357 19.503H104.849C104.623 19.503 104.45 19.3817 104.329 19.139V18.931C104.329 18.671 104.519 18.4803 104.901 18.359ZM105.98 20.205H109.464C111.266 20.205 112.168 20.2917 112.168 20.465C112.272 20.7337 112.324 21.167 112.324 21.765C112.324 22.597 111.96 23.013 111.232 23.013C110.382 23.0477 108.822 23.0823 106.552 23.117V23.715H108.892C109.498 23.715 110.122 23.7323 110.764 23.767C110.92 23.7323 111.301 23.715 111.908 23.715C112.237 23.715 112.41 23.9403 112.428 24.391C112.324 24.703 112.098 24.859 111.752 24.859H106.084C105.633 24.781 105.408 24.6077 105.408 24.339L105.46 23.975V23.871C105.46 23.7063 105.442 23.4897 105.408 23.221C105.408 22.389 105.702 21.973 106.292 21.973C106.43 21.973 106.5 21.9903 106.5 22.025C106.534 22.025 106.673 22.0077 106.916 21.973C109.117 21.9383 110.417 21.921 110.816 21.921L111.18 21.869V21.349C109.576 21.3143 108.328 21.297 107.436 21.297H106.136C106.058 21.297 105.988 21.3143 105.928 21.349C105.694 21.349 105.503 21.2103 105.356 20.933V20.725C105.356 20.413 105.564 20.2397 105.98 20.205ZM126.101 14.875H126.205C126.508 14.875 126.682 15.1003 126.725 15.551C126.76 17.371 126.777 18.7577 126.777 19.711C126.621 20.127 126.344 20.335 125.945 20.335H125.009C124.151 20.335 123.302 20.3523 122.461 20.387C122.106 20.3523 121.482 20.335 120.589 20.335C120.104 20.335 119.861 19.9017 119.861 19.035C119.826 18.6797 119.809 18.4023 119.809 18.203C119.844 17.2583 119.861 16.357 119.861 15.499C119.922 15.1177 120.095 14.927 120.381 14.927H120.485C120.832 14.927 121.005 15.187 121.005 15.707C121.005 15.7677 120.988 16.0797 120.953 16.643L121.577 16.695H122.097C122.591 16.695 122.955 16.7123 123.189 16.747C123.492 16.7123 123.874 16.695 124.333 16.695H125.581V15.499C125.616 15.083 125.789 14.875 126.101 14.875ZM120.953 17.787V18.931L121.005 19.191C121.75 19.2257 122.305 19.243 122.669 19.243H124.229C124.524 19.243 124.992 19.2257 125.633 19.191V17.839H122.097C121.854 17.839 121.473 17.8217 120.953 17.787ZM123.241 20.01C123.588 20.0967 123.761 20.2873 123.761 20.582L123.774 22.467H126.114C126.313 22.467 126.591 22.4843 126.946 22.519C127.007 22.4843 127.093 22.467 127.206 22.467C127.553 22.5623 127.726 22.7357 127.726 22.987V23.091C127.648 23.4377 127.475 23.611 127.206 23.611C123.133 23.5763 120.481 23.559 119.25 23.559C118.765 23.559 118.522 23.3857 118.522 23.039V22.935C118.522 22.6577 118.713 22.4843 119.094 22.415H122.63C122.63 22.3457 122.634 22.0163 122.643 21.427C122.626 20.9677 122.617 20.686 122.617 20.582C122.617 20.296 122.825 20.1053 123.241 20.01ZM129.593 14.641C129.974 14.641 130.165 15.057 130.165 15.889C130.2 17.0417 130.217 18.047 130.217 18.905V20.361C131.231 20.361 132.583 20.257 134.273 20.049C134.403 20.049 134.559 20.1703 134.741 20.413V20.673C134.741 21.1237 134.048 21.349 132.661 21.349C131.933 21.4183 131.084 21.4703 130.113 21.505C129.454 21.505 129.125 21.1757 129.125 20.517C129.09 19.7543 129.056 17.9517 129.021 15.109C129.134 14.797 129.324 14.641 129.593 14.641ZM137.978 13.835C138.255 13.965 138.394 14.1383 138.394 14.355C138.394 15.1523 138.411 16.539 138.446 18.515C138.446 18.6537 138.429 18.9657 138.394 19.451C138.463 20.5863 138.498 21.9903 138.498 23.663C138.498 23.9317 138.307 24.1223 137.926 24.235C137.605 24.235 137.415 23.9923 137.354 23.507V23.247C137.354 22.2417 137.337 20.855 137.302 19.087H136.21V21.895C136.21 22.2157 136.227 22.6663 136.262 23.247C136.123 23.5937 135.933 23.767 135.69 23.767C135.309 23.767 135.118 23.403 135.118 22.675C135.083 22.3023 135.066 21.713 135.066 20.907C135.066 20.5257 135.083 20.283 135.118 20.179C135.083 19.711 135.066 19.3123 135.066 18.983V14.667C135.066 14.2163 135.257 13.991 135.638 13.991C136.019 14.0517 136.21 14.2423 136.21 14.563V17.943H136.262C136.357 17.943 136.704 17.9603 137.302 17.995V17.787C137.302 17.0677 137.285 15.9757 137.25 14.511C137.25 14.0777 137.493 13.8523 137.978 13.835ZM147.378 14.875H147.482C147.786 14.875 147.959 15.1003 148.002 15.551C148.037 17.371 148.054 18.7577 148.054 19.711C147.898 20.127 147.621 20.335 147.222 20.335H146.286C145.428 20.335 144.579 20.3523 143.738 20.387C143.383 20.3523 142.759 20.335 141.866 20.335C141.381 20.335 141.138 19.9017 141.138 19.035C141.104 18.6797 141.086 18.4023 141.086 18.203C141.121 17.2583 141.138 16.357 141.138 15.499C141.199 15.1177 141.372 14.927 141.658 14.927H141.762C142.109 14.927 142.282 15.187 142.282 15.707C142.282 15.7677 142.265 16.0797 142.23 16.643L142.854 16.695H143.374C143.868 16.695 144.232 16.7123 144.466 16.747C144.77 16.7123 145.151 16.695 145.61 16.695H146.858V15.499C146.893 15.083 147.066 14.875 147.378 14.875ZM142.23 17.787V18.931L142.282 19.191C143.028 19.2257 143.582 19.243 143.946 19.243H145.506C145.801 19.243 146.269 19.2257 146.91 19.191V17.839H143.374C143.132 17.839 142.75 17.8217 142.23 17.787ZM144.518 20.01C144.865 20.0967 145.038 20.2873 145.038 20.582L145.051 22.467H147.391C147.591 22.467 147.868 22.4843 148.223 22.519C148.284 22.4843 148.371 22.467 148.483 22.467C148.83 22.5623 149.003 22.7357 149.003 22.987V23.091C148.925 23.4377 148.752 23.611 148.483 23.611C144.41 23.5763 141.758 23.559 140.527 23.559C140.042 23.559 139.799 23.3857 139.799 23.039V22.935C139.799 22.6577 139.99 22.4843 140.371 22.415H143.907C143.907 22.3457 143.912 22.0163 143.92 21.427C143.903 20.9677 143.894 20.686 143.894 20.582C143.894 20.296 144.102 20.1053 144.518 20.01ZM153.158 14.797H153.262C153.609 14.797 153.782 15.1263 153.782 15.785C153.782 17.1717 154.233 18.6277 155.134 20.153C155.689 20.6817 155.966 21.0283 155.966 21.193V21.297C155.966 21.583 155.776 21.7563 155.394 21.817C154.831 21.687 154.207 20.9417 153.522 19.581C153.314 19.0783 153.21 18.801 153.21 18.749H153.158C152.222 20.8983 151.46 21.973 150.87 21.973H150.766C150.454 21.9297 150.298 21.7737 150.298 21.505V21.401C150.298 21.2537 150.576 20.8723 151.13 20.257C152.17 18.7057 152.69 16.9897 152.69 15.109C152.829 14.901 152.985 14.797 153.158 14.797ZM159.411 13.666H159.463C159.68 13.666 159.853 13.8047 159.983 14.082C159.983 15.0527 160.001 16.0753 160.035 17.15C160.001 19.386 159.983 21.518 159.983 23.546C159.923 23.9273 159.749 24.118 159.463 24.118H159.359C159.013 24.118 158.839 23.806 158.839 23.182V22.558C158.839 22.1853 158.857 21.8907 158.891 21.674C158.857 21.3793 158.839 21.1367 158.839 20.946C158.839 19.9667 158.874 18.944 158.943 17.878C158.909 17.2367 158.891 16.5433 158.891 15.798V14.29C158.926 13.874 159.099 13.666 159.411 13.666ZM157.539 13.874C157.886 14.0213 158.059 14.2293 158.059 14.498C158.059 14.706 158.042 15.018 158.007 15.434C158.007 16.11 158.025 17.046 158.059 18.242C158.025 19.9147 158.007 21.5613 158.007 23.182C157.929 23.5287 157.756 23.702 157.487 23.702H157.383C157.106 23.702 156.933 23.5113 156.863 23.13C156.898 20.79 156.915 19.3167 156.915 18.71H156.863C156.508 18.7447 156.231 18.762 156.031 18.762H155.771C155.425 18.71 155.251 18.554 155.251 18.294V18.138C155.251 17.7567 155.806 17.566 156.915 17.566C156.915 17.436 156.898 17.0027 156.863 16.266C156.898 15.1567 156.915 14.5153 156.915 14.342C157.019 14.03 157.227 13.874 157.539 13.874ZM166.05 14.875C167.315 14.875 168.424 15.3083 169.378 16.175C169.724 16.7123 169.898 17.3883 169.898 18.203C169.898 19.217 169.152 20.049 167.662 20.699C167.055 20.803 166.587 20.855 166.258 20.855H165.946C164.767 20.855 163.779 20.4217 162.982 19.555C162.6 19.0263 162.41 18.4543 162.41 17.839C162.41 16.9377 162.86 16.1577 163.762 15.499C164.594 15.109 165.356 14.901 166.05 14.875ZM163.554 17.787V17.891C163.554 18.853 164.247 19.4597 165.634 19.711H166.31C167.48 19.711 168.277 19.295 168.702 18.463C168.736 18.4023 168.754 18.333 168.754 18.255V18.151C168.754 17.2237 168.476 16.669 167.922 16.487C167.332 16.175 166.656 16.019 165.894 16.019C165.148 16.019 164.472 16.3137 163.866 16.903C163.658 17.3017 163.554 17.5963 163.554 17.787ZM167.727 19.997C168.108 19.997 168.299 20.2917 168.299 20.881V20.985C168.299 21.3923 168.316 21.8603 168.351 22.389H168.403C168.689 22.389 169.313 22.4063 170.275 22.441C170.474 22.5103 170.613 22.6317 170.691 22.805V23.013C170.621 23.3597 170.448 23.533 170.171 23.533H161.851C161.504 23.4637 161.331 23.2903 161.331 23.013V22.961C161.331 22.5797 161.625 22.389 162.215 22.389H163.671L163.723 21.869V20.621C163.783 20.2397 163.974 20.049 164.295 20.049C164.615 20.049 164.806 20.2917 164.867 20.777V21.505C164.867 21.687 164.849 21.9817 164.815 22.389H167.207C167.172 21.245 167.155 20.6037 167.155 20.465C167.267 20.153 167.458 19.997 167.727 19.997ZM173.113 14.446C173.529 14.446 173.737 14.8967 173.737 15.798V20.79C173.667 21.1713 173.477 21.362 173.165 21.362C172.818 21.2667 172.645 21.0933 172.645 20.842C172.645 20.244 172.627 18.424 172.593 15.382L172.541 15.018C172.61 14.6367 172.801 14.446 173.113 14.446ZM173.009 22.454H173.217C173.633 22.5407 173.841 22.7487 173.841 23.078V23.338C173.754 23.754 173.546 23.962 173.217 23.962H173.009C172.653 23.962 172.445 23.6847 172.385 23.13C172.506 22.6793 172.714 22.454 173.009 22.454Z" fill="black"/>
<path d="M108.247 46.1592C107.85 46.6067 107.15 46.6067 106.753 46.1592L99.5 38L115.5 38L108.247 46.1592Z" fill="white"/>
</svg>
