<svg width="215" height="47" viewBox="0 0 215 47" fill="none" xmlns="http://www.w3.org/2000/svg">
<rect width="215" height="38" rx="10" fill="white"/>
<path d="M13.562 13.809H13.614C13.9953 13.809 14.186 14.0993 14.186 14.68V14.94H14.238C14.4373 14.94 14.8707 14.9227 15.538 14.888C16.058 14.888 16.37 15.0353 16.474 15.33V15.59C16.474 15.8673 16.3007 16.032 15.954 16.084H14.186V16.136C14.29 16.8293 15.1047 17.6397 16.63 18.567C16.6993 18.801 16.734 18.9657 16.734 19.061C16.6213 19.3817 16.4307 19.542 16.162 19.542C15.6853 19.4727 14.888 18.879 13.77 17.761C13.77 17.7003 13.7007 17.6267 13.562 17.54C13.0247 18.4587 12.262 19.126 11.274 19.542H11.17C10.884 19.542 10.7107 19.3253 10.65 18.892C10.65 18.684 10.9967 18.3807 11.69 17.982C12.4873 17.2627 12.886 16.6473 12.886 16.136H12.626C12.2793 16.136 11.7593 16.1187 11.066 16.084C10.858 15.9107 10.754 15.7287 10.754 15.538C10.8147 15.1393 11.0053 14.94 11.326 14.94H13.042V14.459C13.0767 14.0257 13.25 13.809 13.562 13.809ZM18.658 13.913H18.762C19.0653 13.913 19.2387 14.1383 19.282 14.589V16.045C19.282 16.9117 19.2993 18.1423 19.334 19.737C19.2733 19.893 19.152 20.0317 18.97 20.153H18.606C18.294 20.153 18.138 19.3557 18.138 17.761V16.825L18.19 16.513C18.1553 16.2877 18.138 16.0623 18.138 15.837V14.537C18.1727 14.121 18.346 13.913 18.658 13.913ZM12.99 20.634C13.406 20.634 13.614 21.414 13.614 22.974V23.546H16.37C16.994 23.546 17.8433 23.5287 18.918 23.494C19.2647 23.5893 19.438 23.7627 19.438 24.014V24.118C19.438 24.352 19.282 24.5253 18.97 24.638C17.4793 24.6727 16.3353 24.69 15.538 24.69H13.146C12.6953 24.69 12.47 24.326 12.47 23.598C12.47 22.558 12.4527 21.726 12.418 21.102C12.5307 20.79 12.7213 20.634 12.99 20.634ZM27.0868 14.173C27.2688 14.2077 27.4421 14.225 27.6068 14.225C27.7888 14.1903 27.9621 14.173 28.1268 14.173C28.4734 14.2943 28.6468 14.537 28.6468 14.901V15.109C28.4474 17.9517 28.1354 19.373 27.7108 19.373C27.6501 19.4077 27.5634 19.425 27.4508 19.425C27.1388 19.295 26.9828 19.1217 26.9828 18.905C27.2948 17.4923 27.4508 16.3137 27.4508 15.369L27.3468 15.317L22.9788 15.421C22.0428 15.421 21.5748 15.2823 21.5748 15.005C21.5748 14.9703 21.5574 14.9183 21.5228 14.849C21.5921 14.4677 21.7828 14.277 22.0948 14.277C23.7241 14.277 25.3881 14.2423 27.0868 14.173ZM21.3148 19.568C22.1901 19.6027 22.8834 19.62 23.3948 19.62H27.2948C27.7281 19.62 28.2654 19.6027 28.9068 19.568C29.6348 19.568 29.9988 19.7933 29.9988 20.244C29.9988 20.426 29.8254 20.5993 29.4788 20.764L29.1668 20.712C27.8321 20.7467 26.7921 20.764 26.0468 20.764H25.8908L25.9428 21.284V23.988C25.9428 24.3693 25.7174 24.56 25.2668 24.56C24.9548 24.456 24.7988 24.2307 24.7988 23.884V20.764H24.7468C22.6754 20.7293 21.5141 20.712 21.2628 20.712C20.9854 20.712 20.8121 20.5213 20.7428 20.14C20.7428 19.906 20.9334 19.7153 21.3148 19.568ZM33.9446 14.758C34.9499 14.758 35.6952 15.486 36.1806 16.942C36.3192 17.6527 36.3886 18.1033 36.3886 18.294V18.97C36.3886 20.452 35.7472 21.4573 34.4646 21.986C34.1612 22.0207 33.9012 22.038 33.6846 22.038C32.6792 22.038 31.9166 21.2233 31.3966 19.594C31.3272 19.1433 31.2926 18.814 31.2926 18.606C31.2926 16.5953 31.9859 15.33 33.3726 14.81C33.4506 14.81 33.6412 14.7927 33.9446 14.758ZM32.4366 18.658V18.71C32.4366 19.7673 32.8352 20.4953 33.6326 20.894H33.7886C34.7939 20.894 35.2966 20.1313 35.2966 18.606C35.0799 17.0113 34.8199 16.214 34.5166 16.214C34.3779 16.006 34.1699 15.902 33.8926 15.902H33.7366C33.0259 16.11 32.6099 16.7687 32.4886 17.878C32.4539 18.0253 32.4366 18.2853 32.4366 18.658ZM40.2496 13.666H40.3016C40.5182 13.666 40.6916 13.8047 40.8216 14.082C40.8216 15.0527 40.8389 16.0753 40.8736 17.15C40.8389 19.386 40.8216 21.518 40.8216 23.546C40.7609 23.9273 40.5876 24.118 40.3016 24.118H40.1976C39.8509 24.118 39.6776 23.806 39.6776 23.182V22.558C39.6776 22.1853 39.6949 21.8907 39.7296 21.674C39.6949 21.3793 39.6776 21.1367 39.6776 20.946C39.6776 19.9667 39.7122 18.944 39.7816 17.878C39.7469 17.2367 39.7296 16.5433 39.7296 15.798V14.29C39.7642 13.874 39.9376 13.666 40.2496 13.666ZM38.3776 13.874C38.7242 14.0213 38.8976 14.2293 38.8976 14.498C38.8976 14.706 38.8802 15.018 38.8456 15.434C38.8456 16.11 38.8629 17.046 38.8976 18.242C38.8629 19.9147 38.8456 21.5613 38.8456 23.182C38.7676 23.5287 38.5942 23.702 38.3256 23.702H38.2216C37.9442 23.702 37.7709 23.5113 37.7016 23.13C37.7362 20.79 37.7536 19.3167 37.7536 18.71H37.7016C37.3462 18.7447 37.0689 18.762 36.8696 18.762H36.6096C36.2629 18.71 36.0896 18.554 36.0896 18.294V18.138C36.0896 17.7567 36.6442 17.566 37.7536 17.566C37.7536 17.436 37.7362 17.0027 37.7016 16.266C37.7362 15.1567 37.7536 14.5153 37.7536 14.342C37.8576 14.03 38.0656 13.874 38.3776 13.874ZM43.0045 14.823H46.5405C46.9218 14.8837 47.1125 15.0743 47.1125 15.395V15.551C47.1125 16.6603 46.6098 18.047 45.6045 19.711C44.2785 21.3403 43.3771 22.155 42.9005 22.155C42.6665 22.0943 42.5105 21.973 42.4325 21.791V21.531C42.4325 21.3403 42.8658 20.8897 43.7325 20.179C44.9805 18.7837 45.6738 17.5357 45.8125 16.435C45.8818 16.175 45.9165 16.019 45.9165 15.967H42.7445C42.3631 15.8977 42.1725 15.7243 42.1725 15.447V15.395C42.1725 15.0137 42.4498 14.823 43.0045 14.823ZM51.3765 13.666H51.4285C51.6451 13.666 51.8185 13.8047 51.9485 14.082C51.9485 15.0527 51.9658 16.0753 52.0005 17.15C51.9658 19.386 51.9485 21.518 51.9485 23.546C51.8878 23.9273 51.7145 24.118 51.4285 24.118H51.3245C50.9778 24.118 50.8045 23.806 50.8045 23.182V22.558C50.8045 22.1853 50.8218 21.8907 50.8565 21.674C50.8218 21.3793 50.8045 21.1367 50.8045 20.946C50.8045 19.9667 50.8391 18.944 50.9085 17.878C50.8738 17.2367 50.8565 16.5433 50.8565 15.798V14.29C50.8911 13.874 51.0645 13.666 51.3765 13.666ZM49.5045 13.874C49.8511 14.0213 50.0245 14.2293 50.0245 14.498C50.0245 14.706 50.0071 15.018 49.9725 15.434C49.9725 16.11 49.9898 17.046 50.0245 18.242C49.9898 19.9147 49.9725 21.5613 49.9725 23.182C49.8945 23.5287 49.7211 23.702 49.4525 23.702H49.3485C49.0711 23.702 48.8978 23.5113 48.8285 23.13C48.8631 20.79 48.8805 19.3167 48.8805 18.71H48.8285C48.4731 18.7447 48.1958 18.762 47.9965 18.762H47.7365C47.3898 18.71 47.2165 18.554 47.2165 18.294V18.138C47.2165 17.7567 47.7711 17.566 48.8805 17.566C48.8805 17.436 48.8631 17.0027 48.8285 16.266C48.8631 15.1567 48.8805 14.5153 48.8805 14.342C48.9845 14.03 49.1925 13.874 49.5045 13.874ZM59.0757 13.718C62.2737 13.7527 64.0244 13.77 64.3277 13.77C64.9517 13.77 65.2637 14.0127 65.2637 14.498V14.55C65.2637 15.72 65.1077 16.8467 64.7957 17.93C64.6484 18.0687 64.5097 18.138 64.3797 18.138H64.1717C63.929 18.0167 63.8077 17.8433 63.8077 17.618C64.0157 16.1793 64.1197 15.33 64.1197 15.07V14.914C62.4037 14.8793 61.069 14.862 60.1157 14.862H58.7637C58.5384 14.862 58.365 14.7407 58.2437 14.498V14.134C58.365 13.8567 58.6424 13.718 59.0757 13.718ZM61.7277 16.929H61.9877C62.2304 17.0677 62.3517 17.2757 62.3517 17.553V18.437H62.7677C63.2877 18.437 64.137 18.4717 65.3157 18.541L65.8357 18.489C66.1477 18.593 66.3037 18.7663 66.3037 19.009V19.113C66.2257 19.4597 66.0524 19.633 65.7837 19.633C65.4457 19.633 63.643 19.5983 60.3757 19.529C58.989 19.5637 58.1917 19.581 57.9837 19.581C57.4637 19.5203 57.2037 19.3297 57.2037 19.009V18.957C57.273 18.6103 57.4464 18.437 57.7237 18.437C58.3564 18.437 59.535 18.4197 61.2597 18.385L61.2077 18.281V17.865C61.2077 17.241 61.381 16.929 61.7277 16.929ZM61.8447 20.335C63.4047 20.335 64.4794 20.8507 65.0687 21.882C65.2074 22.2373 65.2767 22.5883 65.2767 22.935C65.2767 24.1917 64.3407 25.0063 62.4687 25.379H62.0007C60.0247 25.379 58.794 24.859 58.3087 23.819C58.2047 23.5417 58.1527 23.286 58.1527 23.052V22.883C58.1527 21.7997 58.742 21.0413 59.9207 20.608C60.3627 20.426 61.004 20.335 61.8447 20.335ZM59.2447 23.052C59.47 23.7887 60.25 24.157 61.5847 24.157H62.3647C63.1794 24.157 63.7687 23.7887 64.1327 23.052V22.831C64.1327 22.0943 63.4047 21.6697 61.9487 21.557H61.7927C60.094 21.557 59.2447 22.0553 59.2447 23.052ZM72.3852 14.147C73.9452 14.147 75.0198 14.6323 75.6092 15.603C75.7478 15.9323 75.8172 16.2617 75.8172 16.591C75.8172 17.7697 74.8812 18.5323 73.0092 18.879H72.5412C70.5652 18.879 69.3345 18.3937 68.8492 17.423C68.7452 17.1543 68.6932 16.9117 68.6932 16.695V16.539C68.6932 15.5163 69.2825 14.8057 70.4612 14.407C70.9032 14.2337 71.5445 14.147 72.3852 14.147ZM69.7852 16.695C70.0105 17.3883 70.7905 17.735 72.1252 17.735H72.9052C73.7198 17.735 74.3092 17.3883 74.6732 16.695V16.487C74.6732 15.8023 73.9452 15.4037 72.4892 15.291H72.3332C70.6345 15.291 69.7852 15.759 69.7852 16.695ZM69.2652 19.581C70.5218 19.6157 71.5792 19.633 72.4372 19.633H76.1292C76.6145 19.6937 76.8572 19.8843 76.8572 20.205C76.7878 20.5863 76.5972 20.777 76.2852 20.777H75.8692C75.5745 20.777 75.1065 20.7597 74.4652 20.725V24.001C74.3438 24.2437 74.1705 24.365 73.9452 24.365C73.5292 24.365 73.3212 23.9317 73.3212 23.065V20.725H71.0852V23.741C71.0852 23.9317 70.9638 24.105 70.7212 24.261H70.3572C70.2012 24.209 70.0625 24.0357 69.9412 23.741C69.9758 23.221 69.9932 22.8397 69.9932 22.597V20.725H68.2252C67.8092 20.699 67.6012 20.5083 67.6012 20.153C67.6012 19.8063 67.9305 19.633 68.5892 19.633C68.8145 19.633 69.0398 19.6157 69.2652 19.581ZM81.271 14.173C81.6523 14.173 81.843 14.3983 81.843 14.849V15.577L81.895 15.681L82.519 15.629H83.455C84.079 15.629 84.391 15.837 84.391 16.253C84.3043 16.5997 84.1136 16.773 83.819 16.773H79.815C79.5376 16.773 79.1736 16.7903 78.723 16.825C78.4283 16.825 78.2376 16.617 78.151 16.201C78.151 15.8977 78.3763 15.7243 78.827 15.681H80.595C80.6643 15.681 80.699 15.6463 80.699 15.577V14.849C80.699 14.3983 80.8896 14.173 81.271 14.173ZM81.219 17.345C82.3543 17.345 83.169 17.9343 83.663 19.113C83.6976 19.243 83.715 19.3817 83.715 19.529V19.685C83.715 20.9243 83.0043 21.739 81.583 22.129L81.271 22.181C80.127 22.181 79.3123 21.609 78.827 20.465L78.775 20.101V19.997C78.775 18.7577 79.243 17.943 80.179 17.553C80.5776 17.4143 80.9243 17.345 81.219 17.345ZM79.919 19.841V20.049C79.919 20.491 80.2656 20.803 80.959 20.985L81.323 21.037C81.7563 21.037 82.155 20.7423 82.519 20.153L82.571 19.633V19.529C82.389 18.8357 81.8516 18.489 80.959 18.489C80.2656 18.619 79.919 19.0697 79.919 19.841ZM87.342 13.835C87.6193 13.965 87.758 14.1383 87.758 14.355C87.758 15.1523 87.7753 16.539 87.81 18.515C87.81 18.6537 87.7926 18.9657 87.758 19.451C87.8273 20.5863 87.862 21.9903 87.862 23.663C87.862 23.9317 87.6713 24.1223 87.29 24.235C86.9693 24.235 86.7786 23.9923 86.718 23.507V23.247C86.718 22.2417 86.7006 20.855 86.666 19.087H85.574V21.895C85.574 22.2157 85.5913 22.6663 85.626 23.247C85.4873 23.5937 85.2966 23.767 85.054 23.767C84.6726 23.767 84.482 23.403 84.482 22.675C84.4473 22.3023 84.43 21.713 84.43 20.907C84.43 20.5257 84.4473 20.283 84.482 20.179C84.4473 19.711 84.43 19.3123 84.43 18.983V14.667C84.43 14.2163 84.6206 13.991 85.002 13.991C85.3833 14.0517 85.574 14.2423 85.574 14.563V17.943H85.626C85.7213 17.943 86.068 17.9603 86.666 17.995V17.787C86.666 17.0677 86.6486 15.9757 86.614 14.511C86.614 14.0777 86.8566 13.8523 87.342 13.835ZM97.6963 14.277H97.8003C98.1036 14.277 98.2769 14.5023 98.3203 14.953V15.421C98.4329 15.421 98.7276 15.4383 99.2043 15.473C99.3343 15.473 99.8196 15.4557 100.66 15.421C101.284 15.421 101.596 15.5943 101.596 15.941V16.097C101.596 16.409 101.406 16.565 101.024 16.565H98.3203V16.617C98.3203 17.3103 98.8403 18.0383 99.8803 18.801C101.163 19.3037 101.804 19.6503 101.804 19.841C101.804 19.8583 101.822 19.9277 101.856 20.049C101.77 20.3957 101.579 20.569 101.284 20.569C100.114 20.257 99.1609 19.7543 98.4243 19.061C97.9909 18.671 97.7656 18.3937 97.7483 18.229C96.9336 19.321 95.7376 20.101 94.1603 20.569C93.8743 20.569 93.7009 20.361 93.6403 19.945C93.6403 19.6763 94.1949 19.3297 95.3043 18.905C96.5176 18.1077 97.1243 17.3623 97.1243 16.669V16.565C96.8989 16.565 95.9976 16.5823 94.4203 16.617C94.1689 16.617 94.0129 16.409 93.9523 15.993V15.941C94.0909 15.629 94.3336 15.473 94.6803 15.473H95.2523C95.6596 15.473 96.3009 15.4557 97.1763 15.421V14.901C97.2109 14.485 97.3843 14.277 97.6963 14.277ZM97.7743 20.01C98.1209 20.0967 98.2943 20.2873 98.2943 20.582L98.3073 22.467H100.647C100.847 22.467 101.124 22.4843 101.479 22.519C101.54 22.4843 101.627 22.467 101.739 22.467C102.086 22.5623 102.259 22.7357 102.259 22.987V23.091C102.181 23.4377 102.008 23.611 101.739 23.611C97.6659 23.5763 95.0139 23.559 93.7833 23.559C93.2979 23.559 93.0553 23.3857 93.0553 23.039V22.935C93.0553 22.6577 93.2459 22.4843 93.6273 22.415H97.1633C97.1633 22.3457 97.1676 22.0163 97.1763 21.427C97.1589 20.9677 97.1503 20.686 97.1503 20.582C97.1503 20.296 97.3583 20.1053 97.7743 20.01ZM110.886 13.601C111.276 13.601 111.536 13.913 111.666 14.537C111.562 16.409 111.51 17.5357 111.51 17.917C111.51 18.203 111.32 18.3763 110.938 18.437C110.661 18.437 110.488 18.2463 110.418 17.865V16.721C107.836 16.7557 106.137 16.7903 105.322 16.825C105.028 16.825 104.837 16.617 104.75 16.201C104.75 15.9583 104.924 15.785 105.27 15.681C106.406 15.6463 107.29 15.629 107.922 15.629H110.418C110.488 15.629 110.522 15.5943 110.522 15.525V14.745H106.986C106.77 14.745 106.51 14.7623 106.206 14.797C105.305 14.797 104.854 14.6237 104.854 14.277V14.017C104.976 13.7743 105.149 13.653 105.374 13.653C106.744 13.653 108.581 13.6357 110.886 13.601ZM108.078 16.929H108.338C108.581 17.0677 108.702 17.2757 108.702 17.553V18.437H109.118C109.638 18.437 110.488 18.4717 111.666 18.541L112.186 18.489C112.498 18.593 112.654 18.7663 112.654 19.009V19.113C112.576 19.4597 112.403 19.633 112.134 19.633C111.796 19.633 109.994 19.5983 106.726 19.529C105.34 19.5637 104.542 19.581 104.334 19.581C103.814 19.5203 103.554 19.3297 103.554 19.009V18.957C103.624 18.6103 103.797 18.437 104.074 18.437C104.707 18.437 105.886 18.4197 107.61 18.385L107.558 18.281V17.865C107.558 17.241 107.732 16.929 108.078 16.929ZM105.153 20.205H108.637C110.44 20.205 111.341 20.2917 111.341 20.465C111.445 20.7337 111.497 21.167 111.497 21.765C111.497 22.597 111.133 23.013 110.405 23.013C109.556 23.0477 107.996 23.0823 105.725 23.117V23.715H108.065C108.672 23.715 109.296 23.7323 109.937 23.767C110.093 23.7323 110.475 23.715 111.081 23.715C111.411 23.715 111.584 23.9403 111.601 24.391C111.497 24.703 111.272 24.859 110.925 24.859H105.257C104.807 24.781 104.581 24.6077 104.581 24.339L104.633 23.975V23.871C104.633 23.7063 104.616 23.4897 104.581 23.221C104.581 22.389 104.876 21.973 105.465 21.973C105.604 21.973 105.673 21.9903 105.673 22.025C105.708 22.025 105.847 22.0077 106.089 21.973C108.291 21.9383 109.591 21.921 109.989 21.921L110.353 21.869V21.349C108.75 21.3143 107.502 21.297 106.609 21.297H105.309C105.231 21.297 105.162 21.3143 105.101 21.349C104.867 21.349 104.677 21.2103 104.529 20.933V20.725C104.529 20.413 104.737 20.2397 105.153 20.205ZM117.696 14.485C118.216 14.5803 118.476 14.823 118.476 15.213C118.476 16.7383 118.32 17.501 118.008 17.501C118.008 17.579 117.869 17.6483 117.592 17.709C116.569 17.7437 115.737 17.761 115.096 17.761V18.775H115.2C115.893 18.775 116.981 18.762 118.463 18.736C118.74 18.8833 118.879 19.0567 118.879 19.256C118.879 19.672 118.428 19.88 117.527 19.88C116.669 19.906 115.72 19.919 114.68 19.919C114.229 19.8323 114.004 19.6417 114.004 19.347C113.969 18.2117 113.952 17.4403 113.952 17.033C114.056 16.7557 114.264 16.617 114.576 16.617H116.5C116.673 16.617 116.933 16.5997 117.28 16.565V16.513C117.314 15.9757 117.332 15.681 117.332 15.629H117.28C116.898 15.6637 116.569 15.681 116.292 15.681H114.628C114.212 15.6463 114.004 15.473 114.004 15.161V15.057C114.004 14.745 114.212 14.5717 114.628 14.537H116.968C117.158 14.537 117.401 14.5197 117.696 14.485ZM121.193 13.913H121.297C121.6 13.913 121.773 14.1383 121.817 14.589V16.045C121.817 16.9117 121.834 18.1423 121.869 19.737C121.808 19.893 121.687 20.0317 121.505 20.153H121.141C120.829 20.153 120.673 19.3557 120.673 17.761V16.825L120.725 16.513C120.69 16.2877 120.673 16.0623 120.673 15.837V14.537C120.707 14.121 120.881 13.913 121.193 13.913ZM118.398 20.439C118.753 20.439 118.978 20.764 119.074 21.414C119.412 22.3327 120.209 23.091 121.466 23.689C122.02 23.767 122.298 24.001 122.298 24.391C122.211 24.755 122.02 24.937 121.726 24.937C121.024 24.937 120.053 24.3563 118.814 23.195C118.536 22.8483 118.398 22.6317 118.398 22.545H118.346C117.791 23.5243 116.768 24.3043 115.278 24.885C115.226 24.9197 115.122 24.937 114.966 24.937C114.732 24.937 114.576 24.755 114.498 24.391V24.339C114.498 24.001 114.896 23.7107 115.694 23.468C116.803 22.766 117.479 22.064 117.722 21.362C117.843 20.7467 118.068 20.439 118.398 20.439ZM127.799 13.666C130.053 13.6747 131.353 14.2293 131.699 15.33C131.734 15.5207 131.751 15.6767 131.751 15.798C131.751 16.89 130.729 17.566 128.683 17.826H128.475C125.945 17.826 124.679 17.1673 124.679 15.85C124.679 14.836 125.425 14.1427 126.915 13.77C127.366 13.7007 127.661 13.666 127.799 13.666ZM125.823 15.798V15.85C125.823 16.4047 126.759 16.682 128.631 16.682C129.472 16.682 130.148 16.4047 130.659 15.85V15.798C130.659 15.3127 129.966 14.9833 128.579 14.81C128.545 14.81 128.527 14.8273 128.527 14.862C128.267 14.8273 128.094 14.7927 128.007 14.758C126.551 14.9313 125.823 15.278 125.823 15.798ZM124.172 18.359C124.692 18.3937 125.074 18.411 125.316 18.411H126.2C127.648 18.411 129.624 18.4283 132.128 18.463C132.44 18.5843 132.596 18.7577 132.596 18.983V19.087C132.518 19.4337 132.345 19.607 132.076 19.607C130.542 19.5723 129.346 19.555 128.488 19.555H125.992C125.958 19.555 125.94 19.5377 125.94 19.503C125.906 19.503 125.888 19.5203 125.888 19.555L125.628 19.503H124.12C123.895 19.503 123.722 19.3817 123.6 19.139V18.931C123.6 18.671 123.791 18.4803 124.172 18.359ZM125.251 20.205H128.735C130.538 20.205 131.439 20.2917 131.439 20.465C131.543 20.7337 131.595 21.167 131.595 21.765C131.595 22.597 131.231 23.013 130.503 23.013C129.654 23.0477 128.094 23.0823 125.823 23.117V23.715H128.163C128.77 23.715 129.394 23.7323 130.035 23.767C130.191 23.7323 130.573 23.715 131.179 23.715C131.509 23.715 131.682 23.9403 131.699 24.391C131.595 24.703 131.37 24.859 131.023 24.859H125.355C124.905 24.781 124.679 24.6077 124.679 24.339L124.731 23.975V23.871C124.731 23.7063 124.714 23.4897 124.679 23.221C124.679 22.389 124.974 21.973 125.563 21.973C125.702 21.973 125.771 21.9903 125.771 22.025C125.806 22.025 125.945 22.0077 126.187 21.973C128.389 21.9383 129.689 21.921 130.087 21.921L130.451 21.869V21.349C128.848 21.3143 127.6 21.297 126.707 21.297H125.407C125.329 21.297 125.26 21.3143 125.199 21.349C124.965 21.349 124.775 21.2103 124.627 20.933V20.725C124.627 20.413 124.835 20.2397 125.251 20.205ZM142.513 14.875C143.778 14.875 144.887 15.3083 145.841 16.175C146.187 16.7123 146.361 17.3883 146.361 18.203C146.361 19.217 145.615 20.049 144.125 20.699C143.518 20.803 143.05 20.855 142.721 20.855H142.409C141.23 20.855 140.242 20.4217 139.445 19.555C139.063 19.0263 138.873 18.4543 138.873 17.839C138.873 16.9377 139.323 16.1577 140.225 15.499C141.057 15.109 141.819 14.901 142.513 14.875ZM140.017 17.787V17.891C140.017 18.853 140.71 19.4597 142.097 19.711H142.773C143.943 19.711 144.74 19.295 145.165 18.463C145.199 18.4023 145.217 18.333 145.217 18.255V18.151C145.217 17.2237 144.939 16.669 144.385 16.487C143.795 16.175 143.119 16.019 142.357 16.019C141.611 16.019 140.935 16.3137 140.329 16.903C140.121 17.3017 140.017 17.5963 140.017 17.787ZM144.19 19.997C144.571 19.997 144.762 20.2917 144.762 20.881V20.985C144.762 21.3923 144.779 21.8603 144.814 22.389H144.866C145.152 22.389 145.776 22.4063 146.738 22.441C146.937 22.5103 147.076 22.6317 147.154 22.805V23.013C147.084 23.3597 146.911 23.533 146.634 23.533H138.314C137.967 23.4637 137.794 23.2903 137.794 23.013V22.961C137.794 22.5797 138.088 22.389 138.678 22.389H140.134L140.186 21.869V20.621C140.246 20.2397 140.437 20.049 140.758 20.049C141.078 20.049 141.269 20.2917 141.33 20.777V21.505C141.33 21.687 141.312 21.9817 141.278 22.389H143.67C143.635 21.245 143.618 20.6037 143.618 20.465C143.73 20.153 143.921 19.997 144.19 19.997ZM151.37 13.809H151.422C151.803 13.809 151.994 14.0993 151.994 14.68V14.94H152.046C152.245 14.94 152.678 14.9227 153.346 14.888C153.866 14.888 154.178 15.0353 154.282 15.33V15.59C154.282 15.8673 154.108 16.032 153.762 16.084H151.994V16.136C152.098 16.8293 152.912 17.6397 154.438 18.567C154.507 18.801 154.542 18.9657 154.542 19.061C154.429 19.3817 154.238 19.542 153.97 19.542C153.493 19.4727 152.696 18.879 151.578 17.761C151.578 17.7003 151.508 17.6267 151.37 17.54C150.832 18.4587 150.07 19.126 149.082 19.542H148.978C148.692 19.542 148.518 19.3253 148.458 18.892C148.458 18.684 148.804 18.3807 149.498 17.982C150.295 17.2627 150.694 16.6473 150.694 16.136H150.434C150.087 16.136 149.567 16.1187 148.874 16.084C148.666 15.9107 148.562 15.7287 148.562 15.538C148.622 15.1393 148.813 14.94 149.134 14.94H150.85V14.459C150.884 14.0257 151.058 13.809 151.37 13.809ZM156.804 13.9C157.081 13.9 157.254 14.1427 157.324 14.628V16.292C157.324 16.994 157.306 17.7393 157.272 18.528C157.306 18.71 157.324 19.0393 157.324 19.516C157.28 19.9667 157.107 20.192 156.804 20.192H156.544C156.301 20.0707 156.18 19.8973 156.18 19.672V18.684C156.18 18.5367 156.162 18.398 156.128 18.268C156.162 18.1293 156.18 17.9907 156.18 17.852V17.54H154.984C154.568 17.5053 154.36 17.332 154.36 17.02V16.968C154.36 16.5867 154.654 16.396 155.244 16.396H156.18V14.472C156.18 14.134 156.388 13.9433 156.804 13.9ZM153.775 20.335C155.335 20.335 156.409 20.8507 156.999 21.882C157.137 22.2373 157.207 22.5883 157.207 22.935C157.207 24.1917 156.271 25.0063 154.399 25.379H153.931C151.955 25.379 150.724 24.859 150.239 23.819C150.135 23.5417 150.083 23.286 150.083 23.052V22.883C150.083 21.7997 150.672 21.0413 151.851 20.608C152.293 20.426 152.934 20.335 153.775 20.335ZM151.175 23.052C151.4 23.7887 152.18 24.157 153.515 24.157H154.295C155.109 24.157 155.699 23.7887 156.063 23.052V22.831C156.063 22.0943 155.335 21.6697 153.879 21.557H153.723C152.024 21.557 151.175 22.0553 151.175 23.052ZM161.747 14.173C162.128 14.173 162.319 14.3983 162.319 14.849V15.577L162.371 15.681L162.995 15.629H163.931C164.555 15.629 164.867 15.837 164.867 16.253C164.78 16.5997 164.589 16.773 164.295 16.773H160.291C160.013 16.773 159.649 16.7903 159.199 16.825C158.904 16.825 158.713 16.617 158.627 16.201C158.627 15.8977 158.852 15.7243 159.303 15.681H161.071C161.14 15.681 161.175 15.6463 161.175 15.577V14.849C161.175 14.3983 161.365 14.173 161.747 14.173ZM161.695 17.345C162.83 17.345 163.645 17.9343 164.139 19.113C164.173 19.243 164.191 19.3817 164.191 19.529V19.685C164.191 20.9243 163.48 21.739 162.059 22.129L161.747 22.181C160.603 22.181 159.788 21.609 159.303 20.465L159.251 20.101V19.997C159.251 18.7577 159.719 17.943 160.655 17.553C161.053 17.4143 161.4 17.345 161.695 17.345ZM160.395 19.841V20.049C160.395 20.491 160.741 20.803 161.435 20.985L161.799 21.037C162.232 21.037 162.631 20.7423 162.995 20.153L163.047 19.633V19.529C162.865 18.8357 162.327 18.489 161.435 18.489C160.741 18.619 160.395 19.0697 160.395 19.841ZM167.818 13.835C168.095 13.965 168.234 14.1383 168.234 14.355C168.234 15.1523 168.251 16.539 168.286 18.515C168.286 18.6537 168.268 18.9657 168.234 19.451C168.303 20.5863 168.338 21.9903 168.338 23.663C168.338 23.9317 168.147 24.1223 167.766 24.235C167.445 24.235 167.254 23.9923 167.194 23.507V23.247C167.194 22.2417 167.176 20.855 167.142 19.087H166.05V21.895C166.05 22.2157 166.067 22.6663 166.102 23.247C165.963 23.5937 165.772 23.767 165.53 23.767C165.148 23.767 164.958 23.403 164.958 22.675C164.923 22.3023 164.906 21.713 164.906 20.907C164.906 20.5257 164.923 20.283 164.958 20.179C164.923 19.711 164.906 19.3123 164.906 18.983V14.667C164.906 14.2163 165.096 13.991 165.478 13.991C165.859 14.0517 166.05 14.2423 166.05 14.563V17.943H166.102C166.197 17.943 166.544 17.9603 167.142 17.995V17.787C167.142 17.0677 167.124 15.9757 167.09 14.511C167.09 14.0777 167.332 13.8523 167.818 13.835ZM177.212 14.875H177.316C177.62 14.875 177.793 15.1003 177.836 15.551C177.871 17.371 177.888 18.7577 177.888 19.711C177.732 20.127 177.455 20.335 177.056 20.335H176.12C175.262 20.335 174.413 20.3523 173.572 20.387C173.217 20.3523 172.593 20.335 171.7 20.335C171.215 20.335 170.972 19.9017 170.972 19.035C170.938 18.6797 170.92 18.4023 170.92 18.203C170.955 17.2583 170.972 16.357 170.972 15.499C171.033 15.1177 171.206 14.927 171.492 14.927H171.596C171.943 14.927 172.116 15.187 172.116 15.707C172.116 15.7677 172.099 16.0797 172.064 16.643L172.688 16.695H173.208C173.702 16.695 174.066 16.7123 174.3 16.747C174.604 16.7123 174.985 16.695 175.444 16.695H176.692V15.499C176.727 15.083 176.9 14.875 177.212 14.875ZM172.064 17.787V18.931L172.116 19.191C172.862 19.2257 173.416 19.243 173.78 19.243H175.34C175.635 19.243 176.103 19.2257 176.744 19.191V17.839H173.208C172.966 17.839 172.584 17.8217 172.064 17.787ZM174.352 20.01C174.699 20.0967 174.872 20.2873 174.872 20.582L174.885 22.467H177.225C177.425 22.467 177.702 22.4843 178.057 22.519C178.118 22.4843 178.205 22.467 178.317 22.467C178.664 22.5623 178.837 22.7357 178.837 22.987V23.091C178.759 23.4377 178.586 23.611 178.317 23.611C174.244 23.5763 171.592 23.559 170.361 23.559C169.876 23.559 169.633 23.3857 169.633 23.039V22.935C169.633 22.6577 169.824 22.4843 170.205 22.415H173.741C173.741 22.3457 173.746 22.0163 173.754 21.427C173.737 20.9677 173.728 20.686 173.728 20.582C173.728 20.296 173.936 20.1053 174.352 20.01ZM182.992 14.797H183.096C183.443 14.797 183.616 15.1263 183.616 15.785C183.616 17.1717 184.067 18.6277 184.968 20.153C185.523 20.6817 185.8 21.0283 185.8 21.193V21.297C185.8 21.583 185.61 21.7563 185.228 21.817C184.665 21.687 184.041 20.9417 183.356 19.581C183.148 19.0783 183.044 18.801 183.044 18.749H182.992C182.056 20.8983 181.294 21.973 180.704 21.973H180.6C180.288 21.9297 180.132 21.7737 180.132 21.505V21.401C180.132 21.2537 180.41 20.8723 180.964 20.257C182.004 18.7057 182.524 16.9897 182.524 15.109C182.663 14.901 182.819 14.797 182.992 14.797ZM189.245 13.666H189.297C189.514 13.666 189.687 13.8047 189.817 14.082C189.817 15.0527 189.835 16.0753 189.869 17.15C189.835 19.386 189.817 21.518 189.817 23.546C189.757 23.9273 189.583 24.118 189.297 24.118H189.193C188.847 24.118 188.673 23.806 188.673 23.182V22.558C188.673 22.1853 188.691 21.8907 188.725 21.674C188.691 21.3793 188.673 21.1367 188.673 20.946C188.673 19.9667 188.708 18.944 188.777 17.878C188.743 17.2367 188.725 16.5433 188.725 15.798V14.29C188.76 13.874 188.933 13.666 189.245 13.666ZM187.373 13.874C187.72 14.0213 187.893 14.2293 187.893 14.498C187.893 14.706 187.876 15.018 187.841 15.434C187.841 16.11 187.859 17.046 187.893 18.242C187.859 19.9147 187.841 21.5613 187.841 23.182C187.763 23.5287 187.59 23.702 187.321 23.702H187.217C186.94 23.702 186.767 23.5113 186.697 23.13C186.732 20.79 186.749 19.3167 186.749 18.71H186.697C186.342 18.7447 186.065 18.762 185.865 18.762H185.605C185.259 18.71 185.085 18.554 185.085 18.294V18.138C185.085 17.7567 185.64 17.566 186.749 17.566C186.749 17.436 186.732 17.0027 186.697 16.266C186.732 15.1567 186.749 14.5153 186.749 14.342C186.853 14.03 187.061 13.874 187.373 13.874ZM195.884 14.875C197.149 14.875 198.258 15.3083 199.212 16.175C199.558 16.7123 199.732 17.3883 199.732 18.203C199.732 19.217 198.986 20.049 197.496 20.699C196.889 20.803 196.421 20.855 196.092 20.855H195.78C194.601 20.855 193.613 20.4217 192.816 19.555C192.434 19.0263 192.244 18.4543 192.244 17.839C192.244 16.9377 192.694 16.1577 193.596 15.499C194.428 15.109 195.19 14.901 195.884 14.875ZM193.388 17.787V17.891C193.388 18.853 194.081 19.4597 195.468 19.711H196.144C197.314 19.711 198.111 19.295 198.536 18.463C198.57 18.4023 198.588 18.333 198.588 18.255V18.151C198.588 17.2237 198.31 16.669 197.756 16.487C197.166 16.175 196.49 16.019 195.728 16.019C194.982 16.019 194.306 16.3137 193.7 16.903C193.492 17.3017 193.388 17.5963 193.388 17.787ZM197.561 19.997C197.942 19.997 198.133 20.2917 198.133 20.881V20.985C198.133 21.3923 198.15 21.8603 198.185 22.389H198.237C198.523 22.389 199.147 22.4063 200.109 22.441C200.308 22.5103 200.447 22.6317 200.525 22.805V23.013C200.455 23.3597 200.282 23.533 200.005 23.533H191.685C191.338 23.4637 191.165 23.2903 191.165 23.013V22.961C191.165 22.5797 191.459 22.389 192.049 22.389H193.505L193.557 21.869V20.621C193.617 20.2397 193.808 20.049 194.129 20.049C194.449 20.049 194.64 20.2917 194.701 20.777V21.505C194.701 21.687 194.683 21.9817 194.649 22.389H197.041C197.006 21.245 196.989 20.6037 196.989 20.465C197.101 20.153 197.292 19.997 197.561 19.997ZM202.947 14.446C203.363 14.446 203.571 14.8967 203.571 15.798V20.79C203.501 21.1713 203.311 21.362 202.999 21.362C202.652 21.2667 202.479 21.0933 202.479 20.842C202.479 20.244 202.461 18.424 202.427 15.382L202.375 15.018C202.444 14.6367 202.635 14.446 202.947 14.446ZM202.843 22.454H203.051C203.467 22.5407 203.675 22.7487 203.675 23.078V23.338C203.588 23.754 203.38 23.962 203.051 23.962H202.843C202.487 23.962 202.279 23.6847 202.219 23.13C202.34 22.6793 202.548 22.454 202.843 22.454Z" fill="black"/>
<path d="M108.247 46.1592C107.85 46.6067 107.15 46.6067 106.753 46.1592L99.5 38L115.5 38L108.247 46.1592Z" fill="white"/>
</svg>
