<svg width="110" height="110" viewBox="0 0 110 110" fill="none" xmlns="http://www.w3.org/2000/svg">
<g id="Component 19">
<path id="Vector" d="M104.222 94.2101C104.222 95.8185 103.729 97.7506 102.979 99.055C102.23 100.359 100.77 101.84 99.4294 102.615C98.0883 103.39 96.1655 102.949 94.5483 102.949C92.2311 102.949 92.2311 102.115 89.9138 102.115C87.5966 102.115 87.5966 103.39 85.2793 103.39C82.9621 103.39 82.9621 103.282 80.6448 103.282C78.3276 103.282 78.3276 103.557 76.0005 103.557C73.6734 103.557 73.6832 102.772 71.366 102.772C69.0487 102.772 69.0487 103.625 66.7315 103.625C64.4142 103.625 64.4142 102.134 62.0969 102.134C59.7797 102.134 59.7797 103.861 57.4624 103.861C55.1452 103.861 55.1452 103.145 52.8279 103.145C50.5107 103.145 50.5107 102.115 48.1836 102.115C45.8565 102.115 45.8663 103.36 43.5392 103.36C41.2121 103.36 41.222 103.204 38.8948 103.204C36.5677 103.204 36.5776 103.272 34.2603 103.272C31.9431 103.272 31.9431 103.223 29.616 103.223C27.2889 103.223 27.2987 102.998 24.9716 102.998C22.6445 102.998 22.6445 102.586 20.3273 102.586C18.01 102.586 18.0001 102.949 15.6829 102.949C14.0657 102.949 12.6754 102.389 11.3738 101.644C10.0722 100.899 8.10991 100.35 7.33092 99.0157C6.55193 97.6819 6.31527 95.8185 6.31527 94.2199C6.31527 91.9152 6.35471 91.9152 6.35471 89.6104C6.35471 87.3057 7.20273 87.3057 7.20273 85.0009C7.20273 82.6962 6.82802 82.6962 6.82802 80.3914C6.82802 78.0867 6.11806 78.0867 6.11806 75.7722C6.11806 73.4576 7.56757 73.4674 7.56757 71.1627C7.56757 68.8579 7.51827 68.8579 7.51827 66.5532C7.51827 64.2484 5.90112 64.2484 5.90112 61.9437C5.90112 59.639 7.58729 59.639 7.58729 57.3342C7.58729 55.0295 6.67025 55.0295 6.67025 52.7247C6.67025 50.42 7.33092 50.42 7.33092 48.1054C7.33092 45.7909 7.53799 45.8007 7.53799 43.4861C7.53799 41.1716 6.1082 41.1814 6.1082 38.8669C6.1082 36.5523 5.93071 36.5621 5.93071 34.2574C5.93071 31.9526 5.90112 31.9526 5.90112 29.6381C5.90112 27.3235 7.00552 27.3333 7.00552 25.0188C7.00552 22.7042 6.69984 22.7042 6.69984 20.3995C6.69984 18.0947 6.92663 18.0849 6.92663 15.7802C6.92663 14.1718 6.51248 12.2495 7.27175 10.9451C8.03102 9.64075 9.67775 8.5227 11.0188 7.74792C12.3598 6.97313 14.0657 7.45369 15.6829 7.45369C18.0001 7.45369 18.0001 6.11008 20.3174 6.11008C22.6346 6.11008 22.6346 7.44389 24.9519 7.44389C27.2691 7.44389 27.2691 7.26735 29.5864 7.26735C31.9036 7.26735 31.9037 7.27716 34.2308 7.27716C36.5579 7.27716 36.548 7.21832 38.8653 7.21832C41.1825 7.21832 41.1825 7.58119 43.4998 7.58119C45.817 7.58119 45.817 7.87541 48.1343 7.87541C50.4515 7.87541 50.4515 6.21796 52.7688 6.21796C55.086 6.21796 55.086 6.87506 57.4033 6.87506C59.7205 6.87506 59.7205 6.87506 62.0476 6.87506C64.3748 6.87506 64.3649 6.28661 66.692 6.28661C69.0191 6.28661 69.0093 6.0022 71.3364 6.0022C73.6635 6.0022 73.6536 6.21796 75.9709 6.21796C78.2881 6.21796 78.2881 6.08066 80.6152 6.08066C82.9424 6.08066 82.9325 6.75737 85.2596 6.75737C87.5867 6.75737 87.5867 6.30623 89.904 6.30623C92.2212 6.30623 92.2311 7.04178 94.5483 7.04178C96.1655 7.04178 97.4967 7.66946 98.8081 8.41482C100.12 9.16019 102.082 9.64075 102.861 10.9746C103.64 12.3084 104.103 14.1424 104.103 15.7508C104.103 18.0555 103.6 18.0555 103.6 20.3603C103.6 22.665 104.034 22.665 104.034 24.9697C104.034 27.2745 103.107 27.2745 103.107 29.5792C103.107 31.884 103.827 31.884 103.827 34.1985C103.827 36.5131 104.153 36.5033 104.153 38.808C104.153 41.1128 103.867 41.1128 103.867 43.4175C103.867 45.7222 104.153 45.7222 104.153 48.027C104.153 50.3317 103.255 50.3317 103.255 52.6365C103.255 54.9412 102.979 54.9412 102.979 57.2459C102.979 59.5507 102.821 59.5507 102.821 61.8652C102.821 64.1798 102.92 64.17 102.92 66.4845C102.92 68.7991 102.851 68.7893 102.851 71.1038C102.851 73.4184 103.413 73.4086 103.413 75.7133C103.413 78.0181 103.393 78.0181 103.393 80.3326C103.393 82.6472 104.281 82.6374 104.281 84.9519C104.281 87.2664 103.857 87.1978 104.123 89.4927C104.389 91.7877 104.231 91.8857 104.231 94.1905L104.222 94.2101Z" fill="#BFAFD1"/>
</g>
</svg>
