<?xml version="1.0" encoding="UTF-8"?><svg id="_레이어_2" xmlns="http://www.w3.org/2000/svg" xmlns:xlink="http://www.w3.org/1999/xlink" viewBox="0 0 559.74 506.12"><defs><style>.cls-1{fill:#494949;}.cls-2{fill:#fff;}.cls-3{fill:#c1a1d6;}.cls-4,.cls-5,.cls-6{fill:none;}.cls-7{clip-path:url(#clippath-1);}.cls-5{stroke-linecap:round;stroke-linejoin:round;}.cls-5,.cls-6{stroke:#000;stroke-width:3px;}.cls-8{fill:#ffabab;}.cls-6{stroke-miterlimit:10;}.cls-9{clip-path:url(#clippath);}</style><clipPath id="clippath"><rect class="cls-4" width="559.74" height="506.12"/></clipPath><clipPath id="clippath-1"><rect class="cls-4" width="559.74" height="506.12"/></clipPath></defs><g id="_레이어_1-2"><g class="cls-9"><g class="cls-7"><path class="cls-3" d="M56.34,375.3c.05-2.97,2.9-1.49,5.44-3.04,2.54-1.56,2.44-1.72,4.98-3.28,2.54-1.56,2.37-1.84,4.91-3.4s2.6-1.46,5.14-3.02q2.54-1.56,5.07-3.12c2.54-1.56,2.69-1.3,5.23-2.86,2.54-1.56,2.09-2.29,4.62-3.85,2.54-1.56,3.5,0,6.04-1.55,2.54-1.56,1.91-2.59,4.44-4.14,2.54-1.56,3.03-.76,5.56-2.32,2.54-1.56,1.94-2.54,4.48-4.1,2.54-1.56,3.2-.49,5.74-2.04,2.54-1.56,2.09-2.29,4.63-3.85,2.54-1.56,2.55-1.53,5.09-3.09,2.54-1.56,2.37-1.83,4.91-3.39,2.54-1.56,2.33-1.9,4.87-3.46,2.54-1.56,2.5-1.63,5.04-3.19,2.54-1.56,2.43-1.73,4.97-3.29,2.54-1.56,2.88-1,5.42-2.56,2.54-1.56,2.16-2.18,4.7-3.74,2.54-1.56,3.63.22,6.17-1.34,2.54-1.56,2.26-2.02,4.8-3.58,2.54-1.56,1.78-2.81,4.32-4.37,2.54-1.56,2.52-1.59,5.06-3.15,2.54-1.56,3-.81,5.54-2.37,2.54-1.56,2.31-1.93,4.85-3.49,2.54-1.56,3.42-.13,5.96-1.69,2.54-1.56,1.83-2.72,4.37-4.28,2.54-1.56,2.77-1.18,5.32-2.73,2.54-1.56,2.25-2.04,4.79-3.6,2.54-1.56,2.44-1.72,4.99-3.28,2.54-1.56,2.86-1.04,5.4-2.6,2.54-1.56,2.33-1.9,4.87-3.46,2.54-1.56,2.31-1.93,4.85-3.49,2.54-1.56,3.47-.05,6.01-1.61,2.54-1.56,1.64-3.04,4.18-4.6,2.54-1.56,2.55-2.71,5.53-2.68,3.03.03,2.78,1.55,5.35,3.17s2.78,1.28,5.35,2.9c2.57,1.62,2.22,2.17,4.79,3.79,2.57,1.62,2.03,2.48,4.6,4.09,2.57,1.62,3.07.82,5.64,2.44,2.57,1.62,3.07.82,5.64,2.44,2.57,1.61,1.89,2.7,4.46,4.32,2.57,1.62,2.37,1.93,4.94,3.55,2.57,1.62,2.84,1.19,5.41,2.81q2.57,1.62,5.15,3.23c2.57,1.61,2.77,1.31,5.33,2.92,2.57,1.61,3,.93,5.57,2.55,2.57,1.62,2.61,1.56,5.18,3.17,2.57,1.62,1.39,3.49,3.96,5.11,2.57,1.62,3.42.27,5.99,1.89,2.57,1.62,2.76,1.32,5.33,2.93,2.57,1.62,1.85,2.76,4.42,4.38,2.57,1.62,3.18.65,5.76,2.26,2.57,1.62,2.7,1.42,5.27,3.03,2.57,1.62,1.57,3.22,4.14,4.83,2.57,1.62,3.19.64,5.76,2.26,2.57,1.62,2.51,1.72,5.08,3.33,2.57,1.62,2.15,2.29,4.72,3.91,2.57,1.62,2.64,1.51,5.21,3.13,2.57,1.62,3.25.54,5.82,2.16,2.57,1.62,1.74,2.94,4.31,4.56,2.57,1.62,3.66-.12,6.23,1.49,2.57,1.62,1.96,2.59,4.53,4.21,2.57,1.62,3.01.92,5.58,2.54,2.57,1.62,1.65,3.09,4.22,4.7,2.57,1.62,3.62-.05,6.19,1.57,2.57,1.62,2.18,2.24,4.76,3.86,2.57,1.62,3.05.85,5.63,2.47,2.57,1.62,1.71,2.99,4.28,4.61,2.57,1.62,2.77,1.31,5.34,2.93,2.58,1.62,2.45,1.81,5.03,3.43,2.58,1.62,3.31.46,5.89,2.07,2.58,1.62,4.32,1.05,4.39,4.09.07,3.01-2.5,1.31-5,2.99-2.5,1.68-2.48,1.7-4.98,3.38-2.5,1.68-1.68,2.9-4.18,4.58-2.5,1.68-3.35.41-5.85,2.09-2.5,1.68-2.09,2.29-4.59,3.97-2.5,1.68-2.63,1.49-5.13,3.17-2.5,1.68-3.09.8-5.59,2.49-2.5,1.68-2.18,2.16-4.68,3.84-2.5,1.68-2.77,1.27-5.28,2.95-2.5,1.68-1.96,2.49-4.46,4.17-2.5,1.68-3.06.85-5.57,2.53-2.5,1.68-1.38,3.35-3.88,5.03-2.5,1.68-3.09.81-5.59,2.49-2.5,1.68-2.21,2.12-4.71,3.8-2.5,1.68-2.26,2.04-4.77,3.72-2.5,1.68-3.09.81-5.59,2.49-2.5,1.68-1.88,2.61-4.38,4.29-2.5,1.68-2.86,1.15-5.36,2.83-2.5,1.68-2.37,1.88-4.87,3.56-2.5,1.68-2.81,1.23-5.31,2.91-2.5,1.68-2.18,2.16-4.68,3.84-2.5,1.68-2.94,1.03-5.44,2.71-2.5,1.68-2.41,1.82-4.92,3.5-2.5,1.68-2.22,2.1-4.72,3.79-2.5,1.68-3.37.4-5.87,2.08-2.5,1.68-1.61,3-4.11,4.68-2.5,1.68-3.16.71-5.66,2.39-2.5,1.68-1.59,3.04-4.09,4.72-2.5,1.68-3.67-.05-6.17,1.63-2.5,1.68-2.17,2.18-4.67,3.86-2.5,1.68-1.7,2.88-4.2,4.56-2.51,1.68-3.4.35-5.9,2.03-2.51,1.68-1.65,2.96-4.15,4.64-2.5,1.68-3.59.07-6.09,1.75-2.51,1.68-2.09,2.3-4.6,3.99-2.51,1.68-2.25,2.07-4.76,3.75-2.51,1.68-2.12,2.08-5.14,2.1-2.98.02-2.15-1.03-4.63-2.68-2.48-1.65-2.54-1.55-5.01-3.2-2.48-1.65-3.23-.51-5.71-2.16-2.48-1.65-1.36-3.32-3.83-4.97-2.48-1.65-3.12-.68-5.59-2.33-2.48-1.65-2.76-1.22-5.24-2.87-2.48-1.65-2.37-1.81-4.85-3.46-2.48-1.65-2.9-1.01-5.38-2.66-2.48-1.65-1.41-3.24-3.89-4.89-2.48-1.65-3.3-.41-5.78-2.06-2.48-1.65-2.32-1.88-4.8-3.53-2.48-1.65-1.62-2.94-4.09-4.59-2.48-1.65-3.43-.22-5.91-1.86-2.48-1.65-2.36-1.82-4.84-3.47-2.48-1.65-2.04-2.31-4.52-3.96-2.48-1.65-2.52-1.58-5-3.23-2.48-1.65-2.34-1.86-4.81-3.51-2.48-1.65-3.37-.31-5.85-1.96-2.48-1.65-1.94-2.45-4.42-4.1-2.48-1.65-2.64-1.4-5.12-3.06-2.48-1.65-2.58-1.5-5.06-3.15-2.48-1.65-2.25-2-4.72-3.65-2.48-1.65-2.17-2.11-4.65-3.76-2.48-1.65-2.42-1.73-4.9-3.38-2.48-1.65-3.39-.28-5.87-1.93-2.48-1.65-2.26-1.97-4.74-3.62-2.48-1.65-2.4-1.78-4.88-3.42-2.48-1.65-1.67-2.86-4.15-4.51-2.48-1.65-2.34-1.85-4.82-3.5-2.48-1.65-2.75-1.24-5.23-2.89-2.48-1.65-2.51-1.6-4.99-3.25-2.48-1.65-2.68-1.34-5.16-2.99-2.48-1.65-2.82-1.14-5.3-2.79-2.48-1.65-2.3-1.92-4.78-3.57-2.48-1.65-2.05-2.29-4.53-3.94-2.48-1.65-2.6-1.48-5.08-3.12-2.48-1.65-2.94-.96-5.42-2.61-2.48-1.65-2.24-2.02-4.72-3.67-2.48-1.65-2.29-2-5.1-2.99-3.22-1.14-5.26-.55-5.21-3.53"/><path class="cls-1" d="M48.91,187.74c.12,2.95,1.19,2.9,1.31,5.85.12,2.95-1.54,3.02-1.41,5.97.12,2.95,2.33,2.86,2.45,5.81.12,2.95-1.43,3.01-1.31,5.96.12,2.95,1.39,2.9,1.51,5.85.12,2.95-.24,2.96-.12,5.92.12,2.95.55,2.93.67,5.88.12,2.95-.97,2.99-.84,5.94.12,2.95,1,2.91,1.12,5.86.12,2.95.54,2.93.66,5.88.12,2.95-1.89,3.03-1.77,5.98.12,2.95.49,2.94.61,5.89.12,2.95,1.47,2.89,1.59,5.84.12,2.95.48,2.94.6,5.89.12,2.95-.27,2.97-.15,5.92.12,2.95.01,2.96.13,5.91.12,2.95.45,2.94.58,5.89.12,2.95-.4,2.97-.28,5.92.12,2.95-.89,2.99-.77,5.94.12,2.95.86,2.92.98,5.87.12,2.95.94,2.92,1.06,5.87.12,2.95.09,2.95.21,5.9.12,2.95-1.96,3.04-1.84,5.99.12,2.95,1.68,2.89,1.8,5.84.12,2.95-.86,2.99-.74,5.94.12,2.95.39,2.94.51,5.89.12,2.96,0,2.96.12,5.92.12,2.96-.82,3.3.63,5.88,1.46,2.6,2.94.93,5.42,2.59,2.48,1.66,1.97,2.42,4.44,4.07,2.47,1.66,2.07,2.26,4.55,3.91,2.47,1.66,2.52,1.59,5,3.24,2.47,1.66,2.5,1.62,4.97,3.28,2.48,1.66,2.86,1.09,5.34,2.74,2.48,1.66,2.18,2.1,4.66,3.75,2.48,1.66,2.11,2.21,4.58,3.86s2.89,1.03,5.37,2.69c2.48,1.66,2.92,1,5.39,2.65,2.48,1.66,2.27,1.97,4.75,3.63,2.48,1.66,1.81,2.66,4.28,4.32,2.48,1.66,3.22.55,5.69,2.2,2.48,1.66,2.15,2.14,4.63,3.8,2.48,1.66,2.53,1.58,5.01,3.24,2.48,1.66,2.1,2.21,4.58,3.87,2.48,1.66,2.8,1.18,5.28,2.84,2.48,1.66,2.99.89,5.47,2.55,2.48,1.66,2.5,1.62,4.98,3.28,2.48,1.66,2.78,1.21,5.26,2.86,2.48,1.66,1.21,3.55,3.69,5.21,2.48,1.66,3.72-.2,6.2,1.46,2.48,1.66,1.7,2.82,4.18,4.48,2.48,1.66,2.67,1.37,5.15,3.03,2.48,1.66,2.62,1.44,5.1,3.1,2.48,1.66,1.72,2.8,4.2,4.46s3.57.03,6.05,1.69c2.48,1.66,1.87,2.57,4.35,4.23,2.48,1.66,2.96.93,5.44,2.59,2.48,1.66,1.71,2.82,4.18,4.47,2.48,1.66,2.51,1.61,4.99,3.26,2.48,1.66,2.88,1.06,5.36,2.71,2.48,1.66,2.39,1.8,4.87,3.46,2.48,1.66,2.99.89,5.47,2.55,2.48,1.66,1.76,2.73,4.24,4.39,2.48,1.66,3.3.44,5.78,2.1,2.48,1.66,1.56,3.03,4.04,4.68,2.48,1.66,3.29.45,5.77,2.11,2.48,1.66,2.04,2.32,4.53,3.98,2.48,1.66,1.98,2.49,4.97,2.48,2.99,0,2.84-.3,5.32-1.97,2.48-1.67,2.54-1.57,5.02-3.24,2.48-1.67,1.48-3.15,3.95-4.82,2.48-1.67,2.68-1.37,5.16-3.04,2.48-1.67,2.54-1.58,5.02-3.25,2.48-1.67,2.57-1.53,5.05-3.2,2.48-1.67,3.07-.79,5.55-2.46,2.48-1.67,2-2.38,4.48-4.05,2.48-1.67,2.62-1.46,5.11-3.13,2.48-1.67,1.89-2.54,4.37-4.21,2.48-1.67,3.01-.88,5.49-2.55,2.48-1.67,2.99-.9,5.47-2.57,2.48-1.67,1.8-2.67,4.28-4.34,2.48-1.67,3.19-.61,5.67-2.28,2.48-1.67,1.77-2.72,4.25-4.39,2.48-1.67,2.7-1.34,5.18-3.01,2.48-1.67,2.11-2.22,4.58-3.89,2.48-1.67,2.15-2.15,4.63-3.83,2.48-1.67,2.49-1.66,4.97-3.33,2.48-1.67,3.05-.82,5.53-2.49s2.94-.98,5.42-2.65c2.48-1.67,2.28-1.97,4.76-3.64,2.48-1.67,2.7-1.34,5.18-3.01,2.48-1.67,1.43-3.23,3.91-4.9,2.48-1.67,2.7-1.34,5.18-3.01,2.48-1.67,2.8-1.2,5.28-2.87,2.48-1.67,3.19-.61,5.67-2.28,2.48-1.67,1.85-2.6,4.33-4.28,2.48-1.67,1.88-2.55,4.36-4.22,2.48-1.67,3.23-.55,5.71-2.23,2.48-1.67,2.09-2.26,4.57-3.93,2.48-1.67,2.11-2.22,4.6-3.89,2.48-1.67,2.55-1.57,5.03-3.24,2.48-1.67,2.76-1.26,5.24-2.93,2.48-1.67,2.36-1.85,4.84-3.53,2.48-1.67,3.23-.56,5.71-2.24,2.48-1.67,1.63-2.94,4.11-4.62,2.48-1.68,4.4.19,5.83-2.44,1.45-2.67-.15-3.25-.07-6.28.08-3.03-.99-3.06-.91-6.1.08-3.03,1.97-2.98,2.05-6.01.08-3.03-1.06-3.06-.98-6.1.08-3.03.11-3.03.19-6.07.08-3.03.61-3.02.69-6.05.08-3.03-1.27-3.07-1.19-6.1.08-3.03.74-3.02.82-6.05.08-3.03-.08-3.04,0-6.07.08-3.03-.14-3.04-.06-6.07.08-3.03.04-3.04.12-6.07.08-3.03.74-3.02.82-6.05.08-3.04-.57-3.05-.49-6.09.08-3.04,1.82-2.99,1.9-6.03.08-3.03-1.05-3.06-.98-6.1.08-3.04-.54-3.05-.46-6.09.08-3.04,1.93-2.99,2-6.02.08-3.03-1.53-3.07-1.45-6.11.08-3.03.79-3.01.87-6.05.08-3.04-.18-3.04-.1-6.08.08-3.04,1.14-3.01,1.22-6.04.08-3.04.17-3.03.25-6.07.08-3.04-.91-3.06-.83-6.1.08-3.04-.65-3.05-.57-6.09.08-3.04-.49-3.05-.41-6.09.08-3.04.33-3.03.4-6.07.08-3.04-.2-3.05-.12-6.09"/><path class="cls-5" d="M48.91,187.74c.12,2.95,1.19,2.9,1.31,5.85.12,2.95-1.54,3.02-1.41,5.97.12,2.95,2.33,2.86,2.45,5.81.12,2.95-1.43,3.01-1.31,5.96.12,2.95,1.39,2.9,1.51,5.85.12,2.95-.24,2.96-.12,5.92.12,2.95.55,2.93.67,5.88.12,2.95-.97,2.99-.84,5.94.12,2.95,1,2.91,1.12,5.86.12,2.95.54,2.93.66,5.88.12,2.95-1.89,3.03-1.77,5.98.12,2.95.49,2.94.61,5.89.12,2.95,1.47,2.89,1.59,5.84.12,2.95.48,2.94.6,5.89.12,2.95-.27,2.97-.15,5.92.12,2.95.01,2.96.13,5.91.12,2.95.45,2.94.58,5.89.12,2.95-.4,2.97-.28,5.92.12,2.95-.89,2.99-.77,5.94.12,2.95.86,2.92.98,5.87.12,2.95.94,2.92,1.06,5.87.12,2.95.09,2.95.21,5.9.12,2.95-1.96,3.04-1.84,5.99.12,2.95,1.68,2.89,1.8,5.84.12,2.95-.86,2.99-.74,5.94.12,2.95.39,2.94.51,5.89.12,2.96,0,2.96.12,5.92.12,2.96-.82,3.3.63,5.88,1.46,2.6,2.94.93,5.42,2.59,2.48,1.66,1.97,2.42,4.44,4.07,2.47,1.66,2.07,2.26,4.55,3.91,2.47,1.66,2.52,1.59,5,3.24,2.47,1.66,2.5,1.62,4.97,3.28,2.48,1.66,2.86,1.09,5.34,2.74,2.48,1.66,2.18,2.1,4.66,3.75,2.48,1.66,2.11,2.21,4.58,3.86s2.89,1.03,5.37,2.69c2.48,1.66,2.92,1,5.39,2.65,2.48,1.66,2.27,1.97,4.75,3.63,2.48,1.66,1.81,2.66,4.28,4.32,2.48,1.66,3.22.55,5.69,2.2,2.48,1.66,2.15,2.14,4.63,3.8,2.48,1.66,2.53,1.58,5.01,3.24,2.48,1.66,2.1,2.21,4.58,3.87,2.48,1.66,2.8,1.18,5.28,2.84,2.48,1.66,2.99.89,5.47,2.55,2.48,1.66,2.5,1.62,4.98,3.28,2.48,1.66,2.78,1.21,5.26,2.86,2.48,1.66,1.21,3.55,3.69,5.21,2.48,1.66,3.72-.2,6.2,1.46,2.48,1.66,1.7,2.82,4.18,4.48,2.48,1.66,2.67,1.37,5.15,3.03,2.48,1.66,2.62,1.44,5.1,3.1,2.48,1.66,1.72,2.8,4.2,4.46s3.57.03,6.05,1.69c2.48,1.66,1.87,2.57,4.35,4.23,2.48,1.66,2.96.93,5.44,2.59,2.48,1.66,1.71,2.82,4.18,4.47,2.48,1.66,2.51,1.61,4.99,3.26,2.48,1.66,2.88,1.06,5.36,2.71,2.48,1.66,2.39,1.8,4.87,3.46,2.48,1.66,2.99.89,5.47,2.55,2.48,1.66,1.76,2.73,4.24,4.39,2.48,1.66,3.3.44,5.78,2.1,2.48,1.66,1.56,3.03,4.04,4.68,2.48,1.66,3.29.45,5.77,2.11,2.48,1.66,2.04,2.32,4.53,3.98,2.48,1.66,1.98,2.49,4.97,2.48,2.99,0,2.84-.3,5.32-1.97,2.48-1.67,2.54-1.57,5.02-3.24,2.48-1.67,1.48-3.15,3.95-4.82,2.48-1.67,2.68-1.37,5.16-3.04,2.48-1.67,2.54-1.58,5.02-3.25,2.48-1.67,2.57-1.53,5.05-3.2,2.48-1.67,3.07-.79,5.55-2.46,2.48-1.67,2-2.38,4.48-4.05,2.48-1.67,2.62-1.46,5.11-3.13,2.48-1.67,1.89-2.54,4.37-4.21,2.48-1.67,3.01-.88,5.49-2.55,2.48-1.67,2.99-.9,5.47-2.57,2.48-1.67,1.8-2.67,4.28-4.34,2.48-1.67,3.19-.61,5.67-2.28,2.48-1.67,1.77-2.72,4.25-4.39,2.48-1.67,2.7-1.34,5.18-3.01,2.48-1.67,2.11-2.22,4.58-3.89,2.48-1.67,2.15-2.15,4.63-3.83,2.48-1.67,2.49-1.66,4.97-3.33,2.48-1.67,3.05-.82,5.53-2.49s2.94-.98,5.42-2.65c2.48-1.67,2.28-1.97,4.76-3.64,2.48-1.67,2.7-1.34,5.18-3.01,2.48-1.67,1.43-3.23,3.91-4.9,2.48-1.67,2.7-1.34,5.18-3.01,2.48-1.67,2.8-1.2,5.28-2.87,2.48-1.67,3.19-.61,5.67-2.28,2.48-1.67,1.85-2.6,4.33-4.28,2.48-1.67,1.88-2.55,4.36-4.22,2.48-1.67,3.23-.55,5.71-2.23,2.48-1.67,2.09-2.26,4.57-3.93,2.48-1.67,2.11-2.22,4.6-3.89,2.48-1.67,2.55-1.57,5.03-3.24,2.48-1.67,2.76-1.26,5.24-2.93,2.48-1.67,2.36-1.85,4.84-3.53,2.48-1.67,3.23-.56,5.71-2.24,2.48-1.67,1.63-2.94,4.11-4.62,2.48-1.68,4.4.19,5.83-2.44,1.45-2.67-.15-3.25-.07-6.28.08-3.03-.99-3.06-.91-6.1.08-3.03,1.97-2.98,2.05-6.01.08-3.03-1.06-3.06-.98-6.1.08-3.03.11-3.03.19-6.07.08-3.03.61-3.02.69-6.05.08-3.03-1.27-3.07-1.19-6.1.08-3.03.74-3.02.82-6.05.08-3.03-.08-3.04,0-6.07.08-3.03-.14-3.04-.06-6.07.08-3.03.04-3.04.12-6.07.08-3.03.74-3.02.82-6.05.08-3.04-.57-3.05-.49-6.09.08-3.04,1.82-2.99,1.9-6.03.08-3.03-1.05-3.06-.98-6.1.08-3.04-.54-3.05-.46-6.09.08-3.04,1.93-2.99,2-6.02.08-3.03-1.53-3.07-1.45-6.11.08-3.03.79-3.01.87-6.05.08-3.04-.18-3.04-.1-6.08.08-3.04,1.14-3.01,1.22-6.04.08-3.04.17-3.03.25-6.07.08-3.04-.91-3.06-.83-6.1.08-3.04-.65-3.05-.57-6.09.08-3.04-.49-3.05-.41-6.09.08-3.04.33-3.03.4-6.07.08-3.04-.2-3.05-.12-6.09"/><path class="cls-1" d="M464.24,140.68c-.15,2.98-.66,2.28-.85,5.93-.09,1.72-.36,3.73-.47,5.96-.1,1.87,1.21,3.95,1.1,6.04-.1,1.93.03,3.95-.08,5.98-.1,1.98.31,4.01.21,6-.1,2.03-1.67,3.96-1.77,5.89-.11,2.09-.65,4.08-.74,5.95-.11,2.22.02,4.26-.07,5.98-.19,3.66-.16,5.39-.16,5.39-2.47,1.66-1.98,2.38-4.45,4.04s-2.21,2.04-4.68,3.7c-2.47,1.66-2.7,1.31-5.17,2.96-2.47,1.66-2.54,1.54-5.01,3.2-2.47,1.66-2.44,1.7-4.9,3.36q-2.47,1.66-4.93,3.32c-2.47,1.66-2.92.98-5.39,2.63-2.47,1.66-2.37,1.81-4.84,3.46-2.47,1.66-2.29,1.92-4.76,3.58-2.47,1.66-2.13,2.16-4.59,3.82-2.47,1.66-2.93.96-5.4,2.62-2.47,1.66-2.74,1.24-5.21,2.9-2.47,1.66-1.54,3.03-4.01,4.69-2.47,1.66-2.89,1.03-5.36,2.69-2.47,1.66-2.53,1.56-5,3.22-2.47,1.66-2.9,1.01-5.37,2.67-2.47,1.66-2.32,1.88-4.79,3.54-2.47,1.66-1.72,2.77-4.19,4.42-2.47,1.66-2.61,1.44-5.08,3.1-2.47,1.66-3.17.62-5.64,2.27-2.47,1.66-1.45,3.18-3.92,4.84-2.47,1.66-2.91,1-5.38,2.66-2.47,1.66-2.57,1.5-5.04,3.16-2.47,1.66-2.79,1.17-5.26,2.83-2.47,1.66-2.21,2.05-4.68,3.7-2.47,1.66-2.97.92-5.44,2.57-2.47,1.66-1.4,3.26-3.87,4.91-2.47,1.66-2.63,1.42-5.1,3.08-2.47,1.66-3.32.4-5.79,2.06-2.47,1.66-1.55,3.03-4.02,4.69-2.47,1.66-2.53,1.57-4.99,3.23-2.47,1.66-3.41.25-5.88,1.91-2.47,1.66-1.62,2.91-4.09,4.57-2.47,1.66-2.93.98-5.4,2.64q-2.47,1.66-4.94,3.32c-2.47,1.66-2.09,2.23-4.56,3.89-2.47,1.66-2.87,1.06-5.35,2.72-2.47,1.66-1.86,2.58-4.33,4.24-2.47,1.66-2.36,1.82-4.83,3.48-2.47,1.66-2.83,1.13-5.3,2.79-2.47,1.66-3.04.82-5.51,2.48-2.47,1.66-1.87,2.49-4.71,3.4-2.86.91-1.52-.78-4.75-2.92-1.4-.93-3.65-1.18-5.57-2.46-1.51-1.01-2.93-2.5-4.74-3.7-1.56-1.04-3.2-2.2-4.96-3.38-1.59-1.06-3.03-2.5-4.77-3.66-1.6-1.07-3.69-1.55-5.41-2.7-1.62-1.07-3.08-2.49-4.8-3.62-1.62-1.08-3.64-1.67-5.34-2.8-1.63-1.09-3.23-2.29-4.93-3.42-1.64-1.09-3.18-2.39-4.87-3.51-1.64-1.09-3.53-1.85-5.22-2.98-1.64-1.09-2.63-3.22-4.32-4.34-1.65-1.1-2.93-2.78-4.61-3.9-1.65-1.1-3.85-1.41-5.53-2.53-1.65-1.1-3.27-2.28-4.95-3.39-1.65-1.1-2.87-2.88-4.55-4-1.66-1.1-4.11-1.03-5.78-2.15-1.66-1.1-3.6-1.8-5.27-2.91-1.66-1.1-3.13-2.51-4.8-3.62-1.66-1.11-2.51-3.45-4.17-4.56-1.66-1.11-3.27-2.29-4.94-3.4-1.67-1.11-3.64-1.76-5.31-2.86-1.67-1.11-3.1-2.58-4.77-3.69s-3.99-1.24-5.65-2.35c-1.67-1.11-3.43-2.08-5.1-3.18-1.67-1.11-3.09-2.6-4.75-3.7-1.67-1.11-3.04-2.68-4.7-3.79-1.68-1.12-3.97-1.28-5.63-2.39-1.68-1.12-3.17-2.49-4.83-3.6-1.68-1.12-3.36-2.21-5.02-3.31-1.68-1.12-2.44-3.6-4.09-4.7-1.69-1.12-3.65-1.78-5.3-2.88-1.69-1.12-3.03-2.72-4.68-3.82-1.69-1.12-4.11-1.11-5.75-2.21-1.7-1.13-3.29-2.34-4.93-3.43-1.7-1.13-2.68-3.27-4.31-4.36-1.71-1.14-4.51-.54-6.13-1.62-1.72-1.14-2.79-3.15-4.4-4.23-1.72-1.15-2.97-2.89-4.57-3.95-1.74-1.16-4.55-.55-6.14-1.61-1.77-1.18-2.91-3.08-4.47-4.12-1.81-1.21-2.79-3.36-4.3-4.36-1.92-1.28-4.39-1.19-5.79-2.12-3.22-2.14-5.54-3.52-5.54-3.52-.15-2.99,1.53-3.07,1.38-6.06-.15-2.99-1.67-2.91-1.82-5.9-.15-2.99-.08-2.99-.24-5.98-.15-2.99-.85-2.95-1-5.94-.15-2.99,1.28-3.06,1.13-6.05-.15-2.99-1.54-2.91-1.69-5.9-.15-2.99,1.29-3.06,1.14-6.05-.15-2.99-.49-2.97-.64-5.96-.15-2.99-1.21-2.94-1.36-5.93"/><path class="cls-5" d="M464.24,140.68c-.15,2.98-.66,2.28-.85,5.93-.09,1.72-.36,3.73-.47,5.96-.1,1.87,1.21,3.95,1.1,6.04-.1,1.93.03,3.95-.08,5.98-.1,1.98.31,4.01.21,6-.1,2.03-1.67,3.96-1.77,5.89-.11,2.09-.65,4.08-.74,5.95-.11,2.22.02,4.26-.07,5.98-.19,3.66-.16,5.39-.16,5.39-2.47,1.66-1.98,2.38-4.45,4.04s-2.21,2.04-4.68,3.7c-2.47,1.66-2.7,1.31-5.17,2.96-2.47,1.66-2.54,1.54-5.01,3.2-2.47,1.66-2.44,1.7-4.9,3.36q-2.47,1.66-4.93,3.32c-2.47,1.66-2.92.98-5.39,2.63-2.47,1.66-2.37,1.81-4.84,3.46-2.47,1.66-2.29,1.92-4.76,3.58-2.47,1.66-2.13,2.16-4.59,3.82-2.47,1.66-2.93.96-5.4,2.62-2.47,1.66-2.74,1.24-5.21,2.9-2.47,1.66-1.54,3.03-4.01,4.69-2.47,1.66-2.89,1.03-5.36,2.69-2.47,1.66-2.53,1.56-5,3.22-2.47,1.66-2.9,1.01-5.37,2.67-2.47,1.66-2.32,1.88-4.79,3.54-2.47,1.66-1.72,2.77-4.19,4.42-2.47,1.66-2.61,1.44-5.08,3.1-2.47,1.66-3.17.62-5.64,2.27-2.47,1.66-1.45,3.18-3.92,4.84-2.47,1.66-2.91,1-5.38,2.66-2.47,1.66-2.57,1.5-5.04,3.16-2.47,1.66-2.79,1.17-5.26,2.83-2.47,1.66-2.21,2.05-4.68,3.7-2.47,1.66-2.97.92-5.44,2.57-2.47,1.66-1.4,3.26-3.87,4.91-2.47,1.66-2.63,1.42-5.1,3.08-2.47,1.66-3.32.4-5.79,2.06-2.47,1.66-1.55,3.03-4.02,4.69-2.47,1.66-2.53,1.57-4.99,3.23-2.47,1.66-3.41.25-5.88,1.91-2.47,1.66-1.62,2.91-4.09,4.57-2.47,1.66-2.93.98-5.4,2.64q-2.47,1.66-4.94,3.32c-2.47,1.66-2.09,2.23-4.56,3.89-2.47,1.66-2.87,1.06-5.35,2.72-2.47,1.66-1.86,2.58-4.33,4.24-2.47,1.66-2.36,1.82-4.83,3.48-2.47,1.66-2.83,1.13-5.3,2.79-2.47,1.66-3.04.82-5.51,2.48-2.47,1.66-1.87,2.49-4.71,3.4-2.86.91-1.52-.78-4.75-2.92-1.4-.93-3.65-1.18-5.57-2.46-1.51-1.01-2.93-2.5-4.74-3.7-1.56-1.04-3.2-2.2-4.96-3.38-1.59-1.06-3.03-2.5-4.77-3.66-1.6-1.07-3.69-1.55-5.41-2.7-1.62-1.07-3.08-2.49-4.8-3.62-1.62-1.08-3.64-1.67-5.34-2.8-1.63-1.09-3.23-2.29-4.93-3.42-1.64-1.09-3.18-2.39-4.87-3.51-1.64-1.09-3.53-1.85-5.22-2.98-1.64-1.09-2.63-3.22-4.32-4.34-1.65-1.1-2.93-2.78-4.61-3.9-1.65-1.1-3.85-1.41-5.53-2.53-1.65-1.1-3.27-2.28-4.95-3.39-1.65-1.1-2.87-2.88-4.55-4-1.66-1.1-4.11-1.03-5.78-2.15-1.66-1.1-3.6-1.8-5.27-2.91-1.66-1.1-3.13-2.51-4.8-3.62-1.66-1.11-2.51-3.45-4.17-4.56-1.66-1.11-3.27-2.29-4.94-3.4-1.67-1.11-3.64-1.76-5.31-2.86-1.67-1.11-3.1-2.58-4.77-3.69s-3.99-1.24-5.65-2.35c-1.67-1.11-3.43-2.08-5.1-3.18-1.67-1.11-3.09-2.6-4.75-3.7-1.67-1.11-3.04-2.68-4.7-3.79-1.68-1.12-3.97-1.28-5.63-2.39-1.68-1.12-3.17-2.49-4.83-3.6-1.68-1.12-3.36-2.21-5.02-3.31-1.68-1.12-2.44-3.6-4.09-4.7-1.69-1.12-3.65-1.78-5.3-2.88-1.69-1.12-3.03-2.72-4.68-3.82-1.69-1.12-4.11-1.11-5.75-2.21-1.7-1.13-3.29-2.34-4.93-3.43-1.7-1.13-2.68-3.27-4.31-4.36-1.71-1.14-4.51-.54-6.13-1.62-1.72-1.14-2.79-3.15-4.4-4.23-1.72-1.15-2.97-2.89-4.57-3.95-1.74-1.16-4.55-.55-6.14-1.61-1.77-1.18-2.91-3.08-4.47-4.12-1.81-1.21-2.79-3.36-4.3-4.36-1.92-1.28-4.39-1.19-5.79-2.12-3.22-2.14-5.54-3.52-5.54-3.52-.15-2.99,1.53-3.07,1.38-6.06-.15-2.99-1.67-2.91-1.82-5.9-.15-2.99-.08-2.99-.24-5.98-.15-2.99-.85-2.95-1-5.94-.15-2.99,1.28-3.06,1.13-6.05-.15-2.99-1.54-2.91-1.69-5.9-.15-2.99,1.29-3.06,1.14-6.05-.15-2.99-.49-2.97-.64-5.96-.15-2.99-1.21-2.94-1.36-5.93"/><path class="cls-1" d="M32.46,133.58c.05-2.98,1.75-1.73,4.29-3.29,2.54-1.56,2.09-2.29,4.62-3.85,2.54-1.56,3.43-.1,5.97-1.66,2.54-1.56,1.78-2.79,4.32-4.34,2.53-1.55,3.17-.53,5.7-2.08,2.53-1.56,2.1-2.26,4.64-3.82,2.54-1.56,2.16-2.16,4.7-3.72,2.54-1.56,2.93-.92,5.46-2.48,2.54-1.56,2.18-2.13,4.72-3.69,2.54-1.56,3.4-.14,5.94-1.7,2.53-1.56,2.24-2.03,4.78-3.59,2.54-1.56,2.48-1.66,5.01-3.21,2.54-1.56,2.99-.83,5.52-2.39,2.54-1.56,2.12-2.23,4.66-3.79,2.54-1.56,2.04-2.37,4.57-3.93,2.54-1.56,3.52.04,6.06-1.51,2.54-1.56,1.81-2.75,4.35-4.31,2.54-1.56,2.27-1.99,4.81-3.54,2.54-1.56,3.2-.48,5.74-2.04,2.54-1.56,2.42-1.75,4.96-3.31,2.54-1.56,2.13-2.22,4.67-3.77,2.54-1.56,3.43-.1,5.97-1.66,2.54-1.56,2.14-2.21,4.68-3.76,2.54-1.56,3.08-.68,5.62-2.23,2.54-1.56,1.31-3.56,3.85-5.12,2.54-1.56,2.94-.9,5.48-2.46,2.54-1.56,2.93-.93,5.46-2.48,2.54-1.56,2.72-1.26,5.26-2.82,2.54-1.56,2.78-1.16,5.32-2.72,2.54-1.56,1.92-2.56,4.46-4.12,2.54-1.56,2.22-2.07,4.76-3.62,2.54-1.56,2.26-2.02,4.8-3.57,2.54-1.56,3.16-.54,5.7-2.09,2.54-1.56,3.12-.61,5.66-2.16,2.54-1.56,1.48-3.28,4.02-4.84,2.54-1.56,3.45-.07,5.99-1.63,2.54-1.56,2.55-1.54,5.09-3.1,2.54-1.56,1.99-2.45,4.54-4.01,2.54-1.56,2.3-1.95,4.84-3.51,2.54-1.56,2.53-1.59,5.07-3.15,2.54-1.56,2.2-2.12,4.74-3.68,2.54-1.56,2.75-3.33,5.74-3.31,3.01.02,2.08,3.56,4.64,5.16,2.55,1.6,3,.89,5.56,2.49,2.55,1.6,2.34,1.94,4.89,3.54s2.77,1.25,5.33,2.86c2.55,1.6,2.2,2.15,4.76,3.76,2.55,1.6,2.82,1.18,5.37,2.78,2.55,1.6,2.76,1.27,5.31,2.88,2.55,1.6,2.53,1.64,5.08,3.25,2.55,1.6,1.9,2.64,4.45,4.25,2.55,1.6,2.84,1.15,5.39,2.76s2.71,1.36,5.26,2.96,2.41,1.83,4.96,3.43c2.55,1.6,3.21.56,5.76,2.17,2.55,1.6,1.92,2.61,4.48,4.21,2.55,1.6,2.29,2.02,4.84,3.62,2.55,1.6,2.54,1.62,5.09,3.23,2.55,1.6,3.2.58,5.75,2.19,2.55,1.6,2.44,1.79,4.99,3.39,2.55,1.6,2.73,1.32,5.29,2.92,2.55,1.6,1.82,2.76,4.38,4.37,2.55,1.6,3.36.32,5.92,1.92,2.55,1.6,1.63,3.07,4.18,4.67,2.55,1.6,3.88-.5,6.43,1.1,2.55,1.61,1.52,3.25,4.07,4.85,2.55,1.6,3.05.81,5.61,2.41,2.55,1.6,2.05,2.4,4.61,4,2.55,1.61,2.96.96,5.51,2.56,2.55,1.61,3.11.72,5.67,2.32,2.55,1.61,1.62,3.09,4.18,4.69,2.56,1.61,3.47.14,6.03,1.75,2.55,1.6,2.03,2.43,4.59,4.04,2.55,1.6,1.81,2.79,4.36,4.39,2.55,1.61,2.96.96,5.51,2.57,2.55,1.6,2.37,1.89,4.93,3.5,2.55,1.6,2.48,1.72,5.04,3.32,2.55,1.61,3.06.8,5.62,2.4s2.19,2.19,4.74,3.79c2.56,1.61,3.03.86,5.58,2.46,2.56,1.61,2.32,1.99,4.87,3.59,2.55,1.61,2.57,1.57,5.13,3.18,2.56,1.61,2,2.5,4.55,4.11,2.56,1.61,2.62,1.5,5.18,3.11,2.56,1.61,6.67-.8,6.73,2.22.05,3.01-4.14.74-6.64,2.42-2.5,1.68-2.57,1.58-5.07,3.26-2.5,1.68-2.2,2.13-4.69,3.81-2.5,1.68-1.42,3.29-3.92,4.96-2.5,1.68-2.85,1.15-5.35,2.83-2.5,1.68-2.63,1.49-5.12,3.16-2.5,1.68-3,.94-5.5,2.61-2.5,1.68-2.54,1.62-5.04,3.3-2.5,1.68-2.14,2.22-4.64,3.9-2.5,1.68-2.46,1.73-4.96,3.41-2.5,1.68-2.43,1.77-4.93,3.45-2.5,1.68-1.94,2.51-4.44,4.19-2.5,1.68-3.65-.04-6.16,1.64-2.5,1.68-1.42,3.29-3.92,4.97-2.5,1.68-2.73,1.33-5.23,3.01-2.5,1.68-2.28,2-4.78,3.68-2.5,1.68-3.02.9-5.52,2.58-2.5,1.68-2.25,2.06-4.74,3.73-2.5,1.68-2.67,1.43-5.17,3.1-2.5,1.68-2.85,1.17-5.35,2.85-2.5,1.68-2.09,2.29-4.59,3.96-2.5,1.68-3.21.63-5.71,2.31-2.5,1.68-1.79,2.74-4.29,4.42-2.5,1.68-2.82,1.2-5.32,2.88-2.5,1.68-1.83,2.67-4.34,4.35-2.5,1.68-3.04.87-5.55,2.55-2.5,1.68-2.65,1.45-5.15,3.13-2.5,1.68-1.71,2.86-4.21,4.54-2.5,1.68-3.14.73-5.64,2.41-2.5,1.68-2.42,1.81-4.92,3.49-2.5,1.68-2.63,1.48-5.13,3.16-2.5,1.68-2,2.43-4.5,4.11-2.5,1.68-2.62,1.49-5.12,3.17-2.5,1.68-2.67,1.43-5.17,3.1-2.5,1.68-2.87,1.14-5.37,2.82-2.5,1.68-2.1,2.28-4.6,3.96-2.5,1.68-2.52,1.65-5.02,3.34-2.5,1.68-2.87,1.13-5.37,2.82-2.5,1.68-2.73,1.33-5.24,3.01-2.5,1.68-2.01,2.41-4.52,4.09-2.51,1.68-2.86,1.16-5.36,2.84-2.51,1.68-1.73,4.66-4.75,4.68-2.97.02-2.21-2.98-4.69-4.62-2.48-1.65-2.46-1.66-4.94-3.31-2.47-1.65-2.66-1.37-5.13-3.02-2.47-1.65-2.43-1.71-4.91-3.35-2.48-1.65-2.69-1.33-5.16-2.97-2.47-1.65-1.97-2.4-4.45-4.05-2.47-1.65-2.89-1.02-5.36-2.66-2.47-1.64-1.83-2.6-4.31-4.25-2.47-1.65-3.55-.03-6.02-1.68-2.47-1.65-1.65-2.89-4.12-4.53-2.47-1.65-2.31-1.89-4.79-3.54-2.47-1.65-2.8-1.15-5.28-2.8-2.47-1.64-2.32-1.88-4.79-3.52-2.47-1.65-3.23-.52-5.7-2.16-2.47-1.65-2.24-1.99-4.72-3.64-2.47-1.65-2.61-1.44-5.09-3.09-2.47-1.65-2.35-1.83-4.82-3.48-2.47-1.65-2-2.36-4.47-4-2.48-1.65-2.12-2.17-4.6-3.82-2.47-1.65-3.4-.25-5.88-1.9-2.47-1.65-2.4-1.76-4.87-3.41-2.47-1.65-2.4-1.76-4.87-3.41-2.48-1.65-2.11-2.2-4.58-3.85-2.48-1.65-2.15-2.14-4.62-3.79-2.48-1.65-2.74-1.26-5.21-2.9-2.47-1.65-2.99-.87-5.46-2.52-2.47-1.65-1.82-2.64-4.29-4.29-2.48-1.65-2.52-1.57-5-3.22-2.48-1.65-2.62-1.44-5.09-3.08-2.47-1.65-3.34-.35-5.81-2-2.48-1.65-2.24-2.01-4.71-3.66-2.48-1.65-1.73-2.77-4.2-4.42-2.48-1.65-3.28-.43-5.76-2.08-2.47-1.65-1.49-3.12-3.96-4.77-2.48-1.65-3.34-.35-5.82-2s-1.67-2.85-4.15-4.5c-2.48-1.65-3.44-.19-5.92-1.84s-1.42-3.24-3.89-4.89c-2.48-1.65-3.08-.73-5.56-2.38-2.48-1.65-2.01-2.34-4.49-3.99-2.48-1.65-2.79-1.17-5.27-2.82-2.48-1.65-2.12-2.18-4.6-3.83-2.48-1.65-3.3-.41-5.78-2.06-2.48-1.65-2.26-1.69-5.04-2.77-2.78-1.08-3.95-1.3-3.89-4.28"/><path class="cls-5" d="M32.46,133.58c.05-2.98,1.75-1.73,4.29-3.29,2.54-1.56,2.09-2.29,4.62-3.85,2.54-1.56,3.43-.1,5.97-1.66,2.54-1.56,1.78-2.79,4.32-4.34,2.53-1.55,3.17-.53,5.7-2.08,2.53-1.56,2.1-2.26,4.64-3.82,2.54-1.56,2.16-2.16,4.7-3.72,2.54-1.56,2.93-.92,5.46-2.48,2.54-1.56,2.18-2.13,4.72-3.69,2.54-1.56,3.4-.14,5.94-1.7,2.53-1.56,2.24-2.03,4.78-3.59,2.54-1.56,2.48-1.66,5.01-3.21,2.54-1.56,2.99-.83,5.52-2.39,2.54-1.56,2.12-2.23,4.66-3.79,2.54-1.56,2.04-2.37,4.57-3.93,2.54-1.56,3.52.04,6.06-1.51,2.54-1.56,1.81-2.75,4.35-4.31,2.54-1.56,2.27-1.99,4.81-3.54,2.54-1.56,3.2-.48,5.74-2.04,2.54-1.56,2.42-1.75,4.96-3.31,2.54-1.56,2.13-2.22,4.67-3.77,2.54-1.56,3.43-.1,5.97-1.66,2.54-1.56,2.14-2.21,4.68-3.76,2.54-1.56,3.08-.68,5.62-2.23,2.54-1.56,1.31-3.56,3.85-5.12,2.54-1.56,2.94-.9,5.48-2.46,2.54-1.56,2.93-.93,5.46-2.48,2.54-1.56,2.72-1.26,5.26-2.82,2.54-1.56,2.78-1.16,5.32-2.72,2.54-1.56,1.92-2.56,4.46-4.12,2.54-1.56,2.22-2.07,4.76-3.62,2.54-1.56,2.26-2.02,4.8-3.57,2.54-1.56,3.16-.54,5.7-2.09,2.54-1.56,3.12-.61,5.66-2.16,2.54-1.56,1.48-3.28,4.02-4.84,2.54-1.56,3.45-.07,5.99-1.63,2.54-1.56,2.55-1.54,5.09-3.1,2.54-1.56,1.99-2.45,4.54-4.01,2.54-1.56,2.3-1.95,4.84-3.51,2.54-1.56,2.53-1.59,5.07-3.15,2.54-1.56,2.2-2.12,4.74-3.68,2.54-1.56,2.75-3.33,5.74-3.31,3.01.02,2.08,3.56,4.64,5.16,2.55,1.6,3,.89,5.56,2.49,2.55,1.6,2.34,1.94,4.89,3.54s2.77,1.25,5.33,2.86c2.55,1.6,2.2,2.15,4.76,3.76,2.55,1.6,2.82,1.18,5.37,2.78,2.55,1.6,2.76,1.27,5.31,2.88,2.55,1.6,2.53,1.64,5.08,3.25,2.55,1.6,1.9,2.64,4.45,4.25,2.55,1.6,2.84,1.15,5.39,2.76s2.71,1.36,5.26,2.96,2.41,1.83,4.96,3.43c2.55,1.6,3.21.56,5.76,2.17,2.55,1.6,1.92,2.61,4.48,4.21,2.55,1.6,2.29,2.02,4.84,3.62,2.55,1.6,2.54,1.62,5.09,3.23,2.55,1.6,3.2.58,5.75,2.19,2.55,1.6,2.44,1.79,4.99,3.39,2.55,1.6,2.73,1.32,5.29,2.92,2.55,1.6,1.82,2.76,4.38,4.37,2.55,1.6,3.36.32,5.92,1.92,2.55,1.6,1.63,3.07,4.18,4.67,2.55,1.6,3.88-.5,6.43,1.1,2.55,1.61,1.52,3.25,4.07,4.85,2.55,1.6,3.05.81,5.61,2.41,2.55,1.6,2.05,2.4,4.61,4,2.55,1.61,2.96.96,5.51,2.56,2.55,1.61,3.11.72,5.67,2.32,2.55,1.61,1.62,3.09,4.18,4.69,2.56,1.61,3.47.14,6.03,1.75,2.55,1.6,2.03,2.43,4.59,4.04,2.55,1.6,1.81,2.79,4.36,4.39,2.55,1.61,2.96.96,5.51,2.57,2.55,1.6,2.37,1.89,4.93,3.5,2.55,1.6,2.48,1.72,5.04,3.32,2.55,1.61,3.06.8,5.62,2.4s2.19,2.19,4.74,3.79c2.56,1.61,3.03.86,5.58,2.46,2.56,1.61,2.32,1.99,4.87,3.59,2.55,1.61,2.57,1.57,5.13,3.18,2.56,1.61,2,2.5,4.55,4.11,2.56,1.61,2.62,1.5,5.18,3.11,2.56,1.61,6.67-.8,6.73,2.22.05,3.01-4.14.74-6.64,2.42-2.5,1.68-2.57,1.58-5.07,3.26-2.5,1.68-2.2,2.13-4.69,3.81-2.5,1.68-1.42,3.29-3.92,4.96-2.5,1.68-2.85,1.15-5.35,2.83-2.5,1.68-2.63,1.49-5.12,3.16-2.5,1.68-3,.94-5.5,2.61-2.5,1.68-2.54,1.62-5.04,3.3-2.5,1.68-2.14,2.22-4.64,3.9-2.5,1.68-2.46,1.73-4.96,3.41-2.5,1.68-2.43,1.77-4.93,3.45-2.5,1.68-1.94,2.51-4.44,4.19-2.5,1.68-3.65-.04-6.16,1.64-2.5,1.68-1.42,3.29-3.92,4.97-2.5,1.68-2.73,1.33-5.23,3.01-2.5,1.68-2.28,2-4.78,3.68-2.5,1.68-3.02.9-5.52,2.58-2.5,1.68-2.25,2.06-4.74,3.73-2.5,1.68-2.67,1.43-5.17,3.1-2.5,1.68-2.85,1.17-5.35,2.85-2.5,1.68-2.09,2.29-4.59,3.96-2.5,1.68-3.21.63-5.71,2.31-2.5,1.68-1.79,2.74-4.29,4.42-2.5,1.68-2.82,1.2-5.32,2.88-2.5,1.68-1.83,2.67-4.34,4.35-2.5,1.68-3.04.87-5.55,2.55-2.5,1.68-2.65,1.45-5.15,3.13-2.5,1.68-1.71,2.86-4.21,4.54-2.5,1.68-3.14.73-5.64,2.41-2.5,1.68-2.42,1.81-4.92,3.49-2.5,1.68-2.63,1.48-5.13,3.16-2.5,1.68-2,2.43-4.5,4.11-2.5,1.68-2.62,1.49-5.12,3.17-2.5,1.68-2.67,1.43-5.17,3.1-2.5,1.68-2.87,1.14-5.37,2.82-2.5,1.68-2.1,2.28-4.6,3.96-2.5,1.68-2.52,1.65-5.02,3.34-2.5,1.68-2.87,1.13-5.37,2.82-2.5,1.68-2.73,1.33-5.24,3.01-2.5,1.68-2.01,2.41-4.52,4.09-2.51,1.68-2.86,1.16-5.36,2.84-2.51,1.68-1.73,4.66-4.75,4.68-2.97.02-2.21-2.98-4.69-4.62-2.48-1.65-2.46-1.66-4.94-3.31-2.47-1.65-2.66-1.37-5.13-3.02-2.47-1.65-2.43-1.71-4.91-3.35-2.48-1.65-2.69-1.33-5.16-2.97-2.47-1.65-1.97-2.4-4.45-4.05-2.47-1.65-2.89-1.02-5.36-2.66-2.47-1.64-1.83-2.6-4.31-4.25-2.47-1.65-3.55-.03-6.02-1.68-2.47-1.65-1.65-2.89-4.12-4.53-2.47-1.65-2.31-1.89-4.79-3.54-2.47-1.65-2.8-1.15-5.28-2.8-2.47-1.64-2.32-1.88-4.79-3.52-2.47-1.65-3.23-.52-5.7-2.16-2.47-1.65-2.24-1.99-4.72-3.64-2.47-1.65-2.61-1.44-5.09-3.09-2.47-1.65-2.35-1.83-4.82-3.48-2.47-1.65-2-2.36-4.47-4-2.48-1.65-2.12-2.17-4.6-3.82-2.47-1.65-3.4-.25-5.88-1.9-2.47-1.65-2.4-1.76-4.87-3.41-2.47-1.65-2.4-1.76-4.87-3.41-2.48-1.65-2.11-2.2-4.58-3.85-2.48-1.65-2.15-2.14-4.62-3.79-2.48-1.65-2.74-1.26-5.21-2.9-2.47-1.65-2.99-.87-5.46-2.52-2.47-1.65-1.82-2.64-4.29-4.29-2.48-1.65-2.52-1.57-5-3.22-2.48-1.65-2.62-1.44-5.09-3.08-2.47-1.65-3.34-.35-5.81-2-2.48-1.65-2.24-2.01-4.71-3.66-2.48-1.65-1.73-2.77-4.2-4.42-2.48-1.65-3.28-.43-5.76-2.08-2.47-1.65-1.49-3.12-3.96-4.77-2.48-1.65-3.34-.35-5.82-2s-1.67-2.85-4.15-4.5c-2.48-1.65-3.44-.19-5.92-1.84s-1.42-3.24-3.89-4.89c-2.48-1.65-3.08-.73-5.56-2.38-2.48-1.65-2.01-2.34-4.49-3.99-2.48-1.65-2.79-1.17-5.27-2.82-2.48-1.65-2.12-2.18-4.6-3.83-2.48-1.65-3.3-.41-5.78-2.06-2.48-1.65-2.26-1.69-5.04-2.77-2.78-1.08-3.95-1.3-3.89-4.28Z"/><path class="cls-5" d="M254.19,332.78c0,3.02-.09,3.02-.09,6.04s.63,3.02.63,6.04-.56,3.02-.56,6.04.64,3.02.64,6.04.04,3.02.04,6.04-.34,3.02-.34,6.04-.32,3.02-.32,6.04.09,3.02.09,6.04.61,3.02.61,6.05-.29,3.02-.29,6.04.21,3.02.21,6.04-.75,3.02-.75,6.04.04,3.02.04,6.04.03,3.02.03,6.04.49,3.02.49,6.04-.65,3.02-.65,6.04.21,3.02.21,6.04.7,3.02.7,6.05-.36,3.02-.36,6.04.09,3.02.09,6.05-.07,3.03-.07,6.05.54,3.03.54,6.05"/><path class="cls-5" d="M254.36,284.19c0,2.85-.02,2.85-.02,5.71s.16,2.85.16,5.71-.15,2.85-.15,5.7.16,2.85.16,5.71,0,2.86,0,5.71-.09,2.86-.09,5.71"/><path class="cls-2" d="M329.2,53.17c-1.51,1.3-2.8,2.06-4.33,3.35-1.52,1.28-3.12,2.49-4.66,3.77-1.53,1.27-3.1,2.5-4.66,3.77-1.54,1.26-3.28,2.28-4.85,3.53-1.56,1.24-2.89,2.78-4.46,4.01-1.57,1.23-2.65,3.1-4.23,4.32-1.58,1.22-3.28,2.29-4.87,3.5-1.59,1.2-3.28,2.27-4.89,3.47-1.6,1.19-3.02,2.63-4.64,3.81-1.61,1.18-4.16,1.07-5.78,2.24-1.61,1.17-2.93,2.76-4.56,3.92-1.62,1.15-2.69,3.11-4.33,4.26-1.63,1.14-3.42,2.07-5.07,3.21-1.64,1.13-3.24,2.34-4.89,3.46-1.65,1.12-3.58,1.83-5.24,2.95-1.65,1.11-3.78,1.52-5.45,2.62-1.66,1.1-2.68,3.18-4.36,4.28-1.67,1.09-3.24,2.35-4.92,3.43-1.68,1.08-4.05,1.07-5.74,2.14-1.68,1.07-2.6,3.35-4.3,4.41-1.69,1.06-3.63,1.72-5.33,2.77-1.69,1.05-3.83,1.38-5.54,2.43-1.7,1.04-3,2.75-4.71,3.79-1.7,1.03-3.55,1.84-5.26,2.87-1.71,1.02-3.17,2.48-4.89,3.5-1.72,1.01-3.79,1.42-5.52,2.43-1.72,1-3.54,1.86-5.27,2.86-1.72,1-3.2,2.44-4.94,3.44-1.73.99-3.85,1.3-5.59,2.29-1.74.98-2.86,3.05-4.61,4.02-1.74.97-3.39,2.12-5.14,3.1-1.74.97-4.18.68-5.94,1.64-1.75.96-3.24,2.39-5,3.35-1.75.95-3.72,1.51-5.48,2.46-1.76.94-3,2.85-4.77,3.79-1.76.94-3.89,1.19-5.66,2.12-1.76.93-3.08,2.73-4.85,3.66-1.77.92-3.59,1.74-5.37,2.67-1.77.92-3.69,1.55-5.48,2.47-1.77.91-3.41,2.11-5.19,3.02-1.78.9-3.78,1.37-5.57,2.27-1.78.9-3.98,1.37-5.78,2.27,0,1.95.51,4.07.51,5.99s.63,3.88.63,5.79-.38,3.87-.38,5.79-1.21,3.87-1.21,5.79.72,3.86.72,5.79-.31,3.86-.31,5.79.74,3.85.74,5.79-1.26,3.84-1.26,5.79,1.5,3.85,1.5,5.79-1.11,4.13-1.11,6.09c1.29,2.06,1.85,1.76,3.55,3.5,1.7,1.74,2.56,1.03,3.83,3.1,0,2.01-.55,4.1-.55,6.12s.09,4.03.09,6.04-.51,4.03-.51,6.04,1.68,4.03,1.68,6.04-.11,4.02-.11,6.04-1.01,4.02-1.01,6.04.52,4.03.52,6.04.02,4.02.02,6.04.34,4.02.34,6.04-.46,3.96-.46,5.97c1.53,1.23,2.5,3.04,4.02,4.27,1.53,1.23,3.14,2.34,4.67,3.57,1.53,1.23,3.89,1.41,5.42,2.64,1.53,1.23,2.67,2.93,4.19,4.16,1.53,1.23,3.39,2.04,4.91,3.27,1.53,1.23,2.65,2.96,4.18,4.18,1.53,1.23,2.44,3.22,3.96,4.45,1.53,1.23,3.42,2,4.94,3.23,1.53,1.23,3.04,2.47,4.57,3.7,1.53,1.23,3.54,2.76,5.06,3.99,0-2.05-1.15-4.61-1.15-6.59s1.19-4.06,1.19-6.05-.42-4.05-.42-6.05.18-4.04.18-6.05.64-4.04.64-6.05-1.35-4.03-1.35-6.04.95-4.02.95-6.04.26-4.01.26-6.04-1-4.01-1-6.04.11-4,.11-6.05.96-4.4.96-6.44c-1.27-2.15-2.52-1.3-4.22-3.14-1.69-1.84-1.97-1.67-3.24-3.82,0-2.04-.19-4-.19-5.87,0-2.04-.48-3.99-.48-5.86,0-2.03.35-3.97.35-5.86,0-2.01-.4-3.95-.4-5.86s1.05-3.92,1.05-5.86-1.12-3.88-1.12-5.86.66-3.85.66-5.86c0-1.89.06-3.83.06-5.86,0-1.88.7-3.82.7-5.86,0-1.87-1.22-4.1-1.22-6.14,1.51-1.31,4.09-1.83,5.61-3.13,1.52-1.3,2.56-3.17,4.09-4.46,1.53-1.29,3.18-2.45,4.71-3.73,1.54-1.28,2.93-2.74,4.48-4.01,1.55-1.27,3.04-2.61,4.6-3.87,1.56-1.26,3.62-1.89,5.19-3.14,1.56-1.25,2.93-2.76,4.5-4,1.57-1.24,3.41-2.14,4.99-3.37,1.58-1.23,3.13-2.49,4.72-3.71,1.59-1.22,3.11-2.53,4.71-3.74,1.6-1.21,3.06-2.6,4.66-3.79,1.61-1.2,3.36-2.18,4.98-3.37,1.61-1.19,3.37-2.17,5-3.34,1.62-1.17,2.29-3.69,3.92-4.85,1.63-1.16,3.77-1.62,5.41-2.77,1.64-1.15,3.21-2.4,4.86-3.54,1.65-1.14,3.02-2.69,4.67-3.82,1.66-1.13,3.42-2.11,5.08-3.22,1.66-1.12,3.22-2.41,4.89-3.51,1.67-1.1,3.97-1.26,5.65-2.35,1.68-1.09,3.49-1.97,5.18-3.05,1.69-1.08,3.11-2.57,4.81-3.63,1.7-1.07,2.86-2.99,4.57-4.04,1.7-1.05,3.72-1.61,5.43-2.65,1.71-1.04,3.62-1.75,5.35-2.78,1.72-1.03,3.03-2.74,4.76-3.76,1.73-1.01,3.87-1.32,5.61-2.32,1.73-1,3.32-2.26,5.07-3.25,1.74-.99,3.66-1.66,5.41-2.64,1.75-.97,3.2-2.49,4.96-3.46,1.76-.96,3.81-1.38,5.57-2.33,1.76-.95,3.5-1.95,5.27-2.88,1.77-.93,3.62-1.72,5.4-2.64,1.78-.92,3.14-2.66,4.93-3.57,1.79-.91,3.99-.99,5.78-1.89,1.79-.89,3.11-2.74,4.92-3.62,1.8-.88,3.59-1.79,5.4-2.66,1.8-.87,3.81-1.33,5.62-2.18,1.81-.85,3.64-1.67,5.47-2.51,1.82-.84,3.86-1.19,5.69-2.01,1.82-.82,3.63-1.69,5.47-2.51,1.83-.81,3.46-1.56,5.3-2.36-1.9-2.36-2.29-1.92-4.84-3.54-2.56-1.62-2.73-1.36-5.28-2.98-2.56-1.62-2.23-2.14-4.79-3.76-2.56-1.62-3.15-.69-5.71-2.32-2.56-1.62-2.24-2.12-4.8-3.74-2.56-1.62-2.91-1.07-5.46-2.69-2.56-1.62-2.04-2.44-4.6-4.07-2.56-1.63-2.8-1.25-5.32-2.94-2.47-1.66-2.33-1.88-5.24-2.74"/><path class="cls-5" d="M329.2,53.17c-1.51,1.3-2.8,2.06-4.33,3.35-1.52,1.28-3.12,2.49-4.66,3.77-1.53,1.27-3.1,2.5-4.66,3.77-1.54,1.26-3.28,2.28-4.85,3.53-1.56,1.24-2.89,2.78-4.46,4.01-1.57,1.23-2.65,3.1-4.23,4.32-1.58,1.22-3.28,2.29-4.87,3.5-1.59,1.2-3.28,2.27-4.89,3.47-1.6,1.19-3.02,2.63-4.64,3.81-1.61,1.18-4.16,1.07-5.78,2.24-1.61,1.17-2.93,2.76-4.56,3.92-1.62,1.15-2.69,3.11-4.33,4.26-1.63,1.14-3.42,2.07-5.07,3.21-1.64,1.13-3.24,2.34-4.89,3.46-1.65,1.12-3.58,1.83-5.24,2.95-1.65,1.11-3.78,1.52-5.45,2.62-1.66,1.1-2.68,3.18-4.36,4.28-1.67,1.09-3.24,2.35-4.92,3.43-1.68,1.08-4.05,1.07-5.74,2.14-1.68,1.07-2.6,3.35-4.3,4.41-1.69,1.06-3.63,1.72-5.33,2.77-1.69,1.05-3.83,1.38-5.54,2.43-1.7,1.04-3,2.75-4.71,3.79-1.7,1.03-3.55,1.84-5.26,2.87-1.71,1.02-3.17,2.48-4.89,3.5-1.72,1.01-3.79,1.42-5.52,2.43-1.72,1-3.54,1.86-5.27,2.86-1.72,1-3.2,2.44-4.94,3.44-1.73.99-3.85,1.3-5.59,2.29-1.74.98-2.86,3.05-4.61,4.02-1.74.97-3.39,2.12-5.14,3.1-1.74.97-4.18.68-5.94,1.64-1.75.96-3.24,2.39-5,3.35-1.75.95-3.72,1.51-5.48,2.46-1.76.94-3,2.85-4.77,3.79-1.76.94-3.89,1.19-5.66,2.12-1.76.93-3.08,2.73-4.85,3.66-1.77.92-3.59,1.74-5.37,2.67-1.77.92-3.69,1.55-5.48,2.47-1.77.91-3.41,2.11-5.19,3.02-1.78.9-3.78,1.37-5.57,2.27-1.78.9-3.98,1.37-5.78,2.27,0,1.95.51,4.07.51,5.99s.63,3.88.63,5.79-.38,3.87-.38,5.79-1.21,3.87-1.21,5.79.72,3.86.72,5.79-.31,3.86-.31,5.79.74,3.85.74,5.79-1.26,3.84-1.26,5.79,1.5,3.85,1.5,5.79-1.11,4.13-1.11,6.09c1.29,2.06,1.85,1.76,3.55,3.5,1.7,1.74,2.56,1.03,3.83,3.1,0,2.01-.55,4.1-.55,6.12s.09,4.03.09,6.04-.51,4.03-.51,6.04,1.68,4.03,1.68,6.04-.11,4.02-.11,6.04-1.01,4.02-1.01,6.04.52,4.03.52,6.04.02,4.02.02,6.04.34,4.02.34,6.04-.46,3.96-.46,5.97c1.53,1.23,2.5,3.04,4.02,4.27,1.53,1.23,3.14,2.34,4.67,3.57,1.53,1.23,3.89,1.41,5.42,2.64,1.53,1.23,2.67,2.93,4.19,4.16,1.53,1.23,3.39,2.04,4.91,3.27,1.53,1.23,2.65,2.96,4.18,4.18,1.53,1.23,2.44,3.22,3.96,4.45,1.53,1.23,3.42,2,4.94,3.23,1.53,1.23,3.04,2.47,4.57,3.7,1.53,1.23,3.54,2.76,5.06,3.99,0-2.05-1.15-4.61-1.15-6.59s1.19-4.06,1.19-6.05-.42-4.05-.42-6.05.18-4.04.18-6.05.64-4.04.64-6.05-1.35-4.03-1.35-6.04.95-4.02.95-6.04.26-4.01.26-6.04-1-4.01-1-6.04.11-4,.11-6.05.96-4.4.96-6.44c-1.27-2.15-2.52-1.3-4.22-3.14-1.69-1.84-1.97-1.67-3.24-3.82,0-2.04-.19-4-.19-5.87,0-2.04-.48-3.99-.48-5.86,0-2.03.35-3.97.35-5.86,0-2.01-.4-3.95-.4-5.86s1.05-3.92,1.05-5.86-1.12-3.88-1.12-5.86.66-3.85.66-5.86c0-1.89.06-3.83.06-5.86,0-1.88.7-3.82.7-5.86,0-1.87-1.22-4.1-1.22-6.14,1.51-1.31,4.09-1.83,5.61-3.13,1.52-1.3,2.56-3.17,4.09-4.46,1.53-1.29,3.18-2.45,4.71-3.73,1.54-1.28,2.93-2.74,4.48-4.01,1.55-1.27,3.04-2.61,4.6-3.87,1.56-1.26,3.62-1.89,5.19-3.14,1.56-1.25,2.93-2.76,4.5-4,1.57-1.24,3.41-2.14,4.99-3.37,1.58-1.23,3.13-2.49,4.72-3.71,1.59-1.22,3.11-2.53,4.71-3.74,1.6-1.21,3.06-2.6,4.66-3.79,1.61-1.2,3.36-2.18,4.98-3.37,1.61-1.19,3.37-2.17,5-3.34,1.62-1.17,2.29-3.69,3.92-4.85,1.63-1.16,3.77-1.62,5.41-2.77,1.64-1.15,3.21-2.4,4.86-3.54,1.65-1.14,3.02-2.69,4.67-3.82,1.66-1.13,3.42-2.11,5.08-3.22,1.66-1.12,3.22-2.41,4.89-3.51,1.67-1.1,3.97-1.26,5.65-2.35,1.68-1.09,3.49-1.97,5.18-3.05,1.69-1.08,3.11-2.57,4.81-3.63,1.7-1.07,2.86-2.99,4.57-4.04,1.7-1.05,3.72-1.61,5.43-2.65,1.71-1.04,3.62-1.75,5.35-2.78,1.72-1.03,3.03-2.74,4.76-3.76,1.73-1.01,3.87-1.32,5.61-2.32,1.73-1,3.32-2.26,5.07-3.25,1.74-.99,3.66-1.66,5.41-2.64,1.75-.97,3.2-2.49,4.96-3.46,1.76-.96,3.81-1.38,5.57-2.33,1.76-.95,3.5-1.95,5.27-2.88,1.77-.93,3.62-1.72,5.4-2.64,1.78-.92,3.14-2.66,4.93-3.57,1.79-.91,3.99-.99,5.78-1.89,1.79-.89,3.11-2.74,4.92-3.62,1.8-.88,3.59-1.79,5.4-2.66,1.8-.87,3.81-1.33,5.62-2.18,1.81-.85,3.64-1.67,5.47-2.51,1.82-.84,3.86-1.19,5.69-2.01,1.82-.82,3.63-1.69,5.47-2.51,1.83-.81,3.46-1.56,5.3-2.36-1.9-2.36-2.29-1.92-4.84-3.54-2.56-1.62-2.73-1.36-5.28-2.98-2.56-1.62-2.23-2.14-4.79-3.76-2.56-1.62-3.15-.69-5.71-2.32-2.56-1.62-2.24-2.12-4.8-3.74-2.56-1.62-2.91-1.07-5.46-2.69-2.56-1.62-2.04-2.44-4.6-4.07-2.56-1.63-2.8-1.25-5.32-2.94-2.47-1.66-2.33-1.88-5.24-2.74Z"/><path class="cls-8" d="M153.42,321.69c-.35-1.38-1.03-3.13-1.83-5.25-.6-1.58-1.44-3.25-2.38-5.06-.81-1.56-1.56-3.29-2.68-4.92-1.01-1.48-2.49-2.67-3.79-4.13-1.2-1.34-2.53-2.59-4.01-3.85-1.2-1.02-2.46-2.87-4.39-4.26-1.56-1.13-3.32-2.3-5.19-3.24-1.83-.92-3.9-1.17-5.88-1.52-2-.35-3.96-.57-5.96.06-2.08.65-3.75,1.93-5.3,3.52-1.44,1.48-2.67,3.23-3.69,5.24-.95,1.88-1.69,3.92-2.31,6.02-.62,2.1-1.79,4.11-2.11,6.2-.35,2.27.02,4.56-.02,6.54-.04,2.13-.13,4.16.15,6.11.29,2.03,1.08,3.91,1.7,5.86.6,1.88,1.4,3.7,2.3,5.61.82,1.74,1.98,3.39,3.04,5.25.95,1.67,2.04,3.35,3.18,5.17,1.02,1.63,2.1,3.34,3.26,5.14,1.05,1.62,1.96,3.44,3.12,5.24,1.05,1.63,1.89,3.5,3.04,5.3,1.01,1.58,2.47,3.01,3.58,4.79,1.01,1.61,1.31,3.76,2.4,5.52,1,1.63,2.76,2.88,3.82,4.65.99,1.65,1.68,3.55,2.72,5.32.98,1.67,2.02,3.36,3.04,5.12.97,1.68,1.41,3.71,2.42,5.48.96,1.69,2.03,3.36,3.02,5.13.95,1.71,2.72,3,3.69,4.78.93,1.72,1.7,3.23,2.65,5.02,1.72-.21,3.43.08,5.6-.36,1.8-.37,3.69-1.02,5.72-1.61,1.81-.53,3.52-1.58,5.47-2.32,1.78-.68,3.73-1.09,5.59-1.99,1.73-.83,3.66-1.44,5.43-2.48,1.81-1.07,3.36-2.53,5.1-3.65,1.76-1.14,3.44-2.32,5.03-3.66,1.58-1.32,2.97-2.79,4.31-4.45,1.25-1.56,2.52-3.15,3.48-5.13.94-1.94,1.39-3.92,1.85-5.86.49-2.07,1.59-4.03,1.65-6.04.07-2.11-.37-4.22-.63-6.23-.27-2.12-.32-4.26-.78-6.21-.51-2.13-2.06-3.88-2.59-5.73-.57-1.98-1-4.09-1.7-6.19-.66-1.99-.74-4.29-1.64-6.27-.88-1.92-2.08-3.79-3.3-5.59-1.18-1.73-3.07-2.92-4.68-4.43-1.5-1.41-2.72-3.35-4.68-4.48-1.66-.95-3.42-1.71-5.08-2.28-1.8-.62-3.8-.2-5.53-.47-1.91-.3-3.68-.64-5.4-.64-2.01,0-3.89-.19-5.5.04-2.44.35-4.26.91-5.29,1.21"/><path class="cls-6" d="M153.42,321.69c-.35-1.38-1.03-3.13-1.83-5.25-.6-1.58-1.44-3.25-2.38-5.06-.81-1.56-1.56-3.29-2.68-4.92-1.01-1.48-2.49-2.67-3.79-4.13-1.2-1.34-2.53-2.59-4.01-3.85-1.2-1.02-2.46-2.87-4.39-4.26-1.56-1.13-3.32-2.3-5.19-3.24-1.83-.92-3.9-1.17-5.88-1.52-2-.35-3.96-.57-5.96.06-2.08.65-3.75,1.93-5.3,3.52-1.44,1.48-2.67,3.23-3.69,5.24-.95,1.88-1.69,3.92-2.31,6.02-.62,2.1-1.79,4.11-2.11,6.2-.35,2.27.02,4.56-.02,6.54-.04,2.13-.13,4.16.15,6.11.29,2.03,1.08,3.91,1.7,5.86.6,1.88,1.4,3.7,2.3,5.61.82,1.74,1.98,3.39,3.04,5.25.95,1.67,2.04,3.35,3.18,5.17,1.02,1.63,2.1,3.34,3.26,5.14,1.05,1.62,1.96,3.44,3.12,5.24,1.05,1.63,1.89,3.5,3.04,5.3,1.01,1.58,2.47,3.01,3.58,4.79,1.01,1.61,1.31,3.76,2.4,5.52,1,1.63,2.76,2.88,3.82,4.65.99,1.65,1.68,3.55,2.72,5.32.98,1.67,2.02,3.36,3.04,5.12.97,1.68,1.41,3.71,2.42,5.48.96,1.69,2.03,3.36,3.02,5.13.95,1.71,2.72,3,3.69,4.78.93,1.72,1.7,3.23,2.65,5.02,1.72-.21,3.43.08,5.6-.36,1.8-.37,3.69-1.02,5.72-1.61,1.81-.53,3.52-1.58,5.47-2.32,1.78-.68,3.73-1.09,5.59-1.99,1.73-.83,3.66-1.44,5.43-2.48,1.81-1.07,3.36-2.53,5.1-3.65,1.76-1.14,3.44-2.32,5.03-3.66,1.58-1.32,2.97-2.79,4.31-4.45,1.25-1.56,2.52-3.15,3.48-5.13.94-1.94,1.39-3.92,1.85-5.86.49-2.07,1.59-4.03,1.65-6.04.07-2.11-.37-4.22-.63-6.23-.27-2.12-.32-4.26-.78-6.21-.51-2.13-2.06-3.88-2.59-5.73-.57-1.98-1-4.09-1.7-6.19-.66-1.99-.74-4.29-1.64-6.27-.88-1.92-2.08-3.79-3.3-5.59-1.18-1.73-3.07-2.92-4.68-4.43-1.5-1.41-2.72-3.35-4.68-4.48-1.66-.95-3.42-1.71-5.08-2.28-1.8-.62-3.8-.2-5.53-.47-1.91-.3-3.68-.64-5.4-.64-2.01,0-3.89-.19-5.5.04-2.44.35-4.26.91-5.29,1.21Z"/><path class="cls-5" d="M525.5,201.45c-.68-.75-1.51-1.35-2.4-1.84-2.06-1.13-4.61-.78-6.68.35-2.07,1.12-3.69,2.87-5.13,4.73-1.55,2-3.06,4.09-4.05,6.42-1.02,2.4-1.4,5.01-1.78,7.59-.32,2.17-.57,4.34-.78,6.52-.2,2.18-.39,4.36-.67,6.53-.29,2.29-.9,4.52-1.38,6.77-.48,2.25-.97,4.5-1.63,6.7-.66,2.21-1.48,4.35-2.31,6.5-.92,2.36,1.43,4.78,3.85,4.03.02,0,.05,0,.07,0,1.78-.56,3.61-.95,5.38-1.5,1.47-.46,2.85-1.19,4.32-1.66,1.46-.48,2.97-.83,4.41-1.35,2.09-.76,4.19-1.49,6.24-2.37,2.04-.88,3.95-2.06,5.95-3.02,1.96-.93,3.97-1.78,5.9-2.81,1.92-1.03,3.91-1.98,5.73-3.17,1.83-1.19,3.48-2.64,5.14-4.05,1.66-1.41,3.17-2.97,4.58-4.64,1.17-1.39,2.43-2.74,3.37-4.29.94-1.55,1.58-3.28,2.28-4.96.7-1.68,1.27-3.4,1.7-5.17.62-2.59.86-5.25.4-7.87-.46-2.62-1.6-5.23-3.76-6.77-1.32-.94-2.89-1.28-4.49-1.57-1.57-.29-3.17-.56-4.76-.61-1.01-.03-2.04-.02-3.03.18-1.23.24-2.3.94-3.36,1.61-1.99,1.23-3.97,2.55-5.51,4.32-1.29,1.48-2.45,3.27-3.32,5.08-.17-1.82-.8-3.48-1.54-5.09-.74-1.6-1.51-3.22-2.73-4.58Z"/><path class="cls-5" d="M466.82,297.3c.14-1.91.35-3.82.71-5.7.36-1.89.73-3.78,1.3-5.61.57-1.83,1.27-3.63,2.04-5.38.51-1.15,1.16-2.39,2.31-2.92,1.08-.5,2.39-.23,3.44.33,1.53.81,2.65,2.1,3.45,3.64.78,1.48,1.29,3.17,1.76,4.77.42,1.4.81,2.73,1.23,4.14.77-1.36,1.61-2.69,2.69-3.83,1.11-1.17,2.46-2.09,4.02-2.47,1.93-.48,3.99.01,5.63,1.12,1.61,1.08,2.82,2.81,3.38,4.67.57,1.9.45,3.88-.07,5.79-.51,1.88-1.38,3.7-2.61,5.22-1.24,1.53-2.73,2.82-4.35,3.95-1.61,1.12-3.37,2.03-5.12,2.91-1.41.71-2.98,1.64-4.72,2.44-1.56.72-3.21,1.48-4.89,2.09-1.7.62-3.44,1.12-5.12,1.47-1.85.38-3.64.41-5.29.23-3.85-.42-1.13-3.23-.58-6.31.31-1.74.4-3.51.49-5.27.09-1.76.15-3.52.28-5.27Z"/><path class="cls-5" d="M1.5,66.38c2.06.29,4,1,5.8,1.99,1.78.98,3.38,2.3,4.84,3.77,1.45,1.46,2.75,3.07,3.8,4.82,1.06,1.77,1.84,3.67,2.56,5.59.73,1.92,1.52,3.83,2.02,5.83.5,1.99.85,3.98,1.24,5.99-.11-1.88-.02-3.69.15-5.56.17-1.87.3-3.76.74-5.59.44-1.83,1.03-3.63,1.72-5.38.7-1.75,1.68-3.36,2.62-4.99.94-1.63,1.85-3.28,3.01-4.76,1.16-1.48,2.52-2.84,3.89-4.12-1.95-1.3-3.82-2.77-5.56-4.34-1.74-1.58-3.42-3.22-4.92-5.03-.7-.84-1.83-3.12-3.17-5.09-1.49-2.19-3.13-3.96-4.45-3.24-.97.54-1.84,4.79-2.34,5.89-.88,1.97-1.91,3.88-3.06,5.7-.63.99-2.19,3.13-3.87,5.05-1.72,1.97-3.59,3.69-5.05,3.48Z"/><path class="cls-5" d="M49.5,83.07c-.6,1.09-1.37,2.06-2.12,3.06-.92,1.24-1.76,2.49-2.68,3.72,1.91.53,3.64,1.51,5.17,2.77,1.53,1.26,2.81,2.82,3.75,4.55.95,1.74,1.59,3.71,1.75,5.69.08-2.11.42-4.26.96-6.3.54-2.04,1.23-4.06,2.19-5.94.97-1.88,2.15-3.65,3.51-5.28-.24.29-3.99-.75-6.41-3.21-2.62-2.67-3.63-4.9-4.34-7.05.05,2.84-.39,5.46-1.79,7.99Z"/><path class="cls-2" d="M174.35,11.77c-.83,1.8-1.2,3.8-2.03,5.6-.83,1.79-1.66,3.59-2.49,5.38-.83,1.8-1.83,3.52-2.66,5.31-.83,1.8-1.52,3.65-2.35,5.45-.83,1.79-1.95,3.46-2.78,5.25-.83,1.79-1.87,3.49-2.7,5.29-.83,1.8-1.09,3.85-1.93,5.65-.83,1.79-2.58,3.17-3.41,4.96-.83,1.8-1.21,3.8-2.05,5.59-.83,1.79-1.58,3.63-2.41,5.42-.83,1.8-1.28,3.77-2.12,5.56-.83,1.8-2.71,3.11-3.54,4.9-.83,1.79-1.21,3.8-2.04,5.6-.83,1.8-2.09,3.39-2.92,5.19-.83,1.79-.62,4.07-1.46,5.87-.93,2-2.72,3.71-3.16,5.83-.45,2.15-.25,4.45-.19,6.62.06,2.18.25,4.42.82,6.53.57,2.09,1.67,4.04,2.74,5.97.41.74,1.15,1.18,1.54,1.77,1.11,1.65,2.39,3.01,3.76,4.37,1.39,1.38,2.88,2.48,4.5,3.59,1.6,1.1,2.68,3.13,4.46,3.99,1.74.84,3.65,1.52,5.53,2.16,1.83.62,3.89.65,5.81,1.1,1.89.45,3.91.21,5.86.51,1.93.3,3.81.81,5.76.99,1.95.18,3.87,1.01,5.81,1.09,1.98.08,3.96.31,5.89.31,2,0,3.94-1.03,5.85-1.1,2.02-.08,4,.26,5.88.13,2.06-.14,3.98-.74,5.82-.9,2.14-.19,4.1-.3,5.84-.48,2.2-.22,4.33-.39,6.39-.69,2.21-.32,4.39-.27,6.42-.64,2.22-.41,4.35-.77,6.33-1.22,2.24-.51,4.35-.96,6.27-1.49,2.29-.62,4.75-1.27,6.57-1.85-.17-2.15-1-4.58-1.16-6.73-.17-2.15.02-4.33-.14-6.48-.17-2.15-.87-4.26-1.03-6.41-.17-2.15.31-4.35.14-6.5"/><path class="cls-5" d="M174.35,11.77c-.83,1.8-1.2,3.8-2.03,5.6-.83,1.79-1.66,3.59-2.49,5.38-.83,1.8-1.83,3.52-2.66,5.31-.83,1.8-1.52,3.65-2.35,5.45-.83,1.79-1.95,3.46-2.78,5.25-.83,1.79-1.87,3.49-2.7,5.29-.83,1.8-1.09,3.85-1.93,5.65-.83,1.79-2.58,3.17-3.41,4.96-.83,1.8-1.21,3.8-2.05,5.59-.83,1.79-1.58,3.63-2.41,5.42-.83,1.8-1.28,3.77-2.12,5.56-.83,1.8-2.71,3.11-3.54,4.9-.83,1.79-1.21,3.8-2.04,5.6-.83,1.8-2.09,3.39-2.92,5.19-.83,1.79-.62,4.07-1.46,5.87-.93,2-2.72,3.71-3.16,5.83-.45,2.15-.25,4.45-.19,6.62.06,2.18.25,4.42.82,6.53.57,2.09,1.67,4.04,2.74,5.97.41.74,1.15,1.18,1.54,1.77,1.11,1.65,2.39,3.01,3.76,4.37,1.39,1.38,2.88,2.48,4.5,3.59,1.6,1.1,2.68,3.13,4.46,3.99,1.74.84,3.65,1.52,5.53,2.16,1.83.62,3.89.65,5.81,1.1,1.89.45,3.91.21,5.86.51,1.93.3,3.81.81,5.76.99,1.95.18,3.87,1.01,5.81,1.09,1.98.08,3.96.31,5.89.31,2,0,3.94-1.03,5.85-1.1,2.02-.08,4,.26,5.88.13,2.06-.14,3.98-.74,5.82-.9,2.14-.19,4.1-.3,5.84-.48,2.2-.22,4.33-.39,6.39-.69,2.21-.32,4.39-.27,6.42-.64,2.22-.41,4.35-.77,6.33-1.22,2.24-.51,4.35-.96,6.27-1.49,2.29-.62,4.75-1.27,6.57-1.85-.17-2.15-1-4.58-1.16-6.73-.17-2.15.02-4.33-.14-6.48-.17-2.15-.87-4.26-1.03-6.41-.17-2.15.31-4.35.14-6.5"/><path class="cls-2" d="M271.68,100.15c1.32-.88,2.14-2.58,3.79-3.87,1.34-1.05,2.68-2.26,4.14-3.61,1.28-1.19,3.27-1.8,4.58-3.24,1.19-1.31,2.45-2.71,3.62-4.24,1.4-1.83,2.66-3.53,3.64-5.18,1.16-1.95,1.46-4.12,2.21-5.93.82-2,2.23-3.7,2.81-5.69.57-1.95.02-4.25.61-6.36.54-1.88,1.42-3.79,2.17-5.92.64-1.82,1.69-3.64,2.61-5.72.78-1.77,1.27-3.86,2.34-5.86.86-1.62,2.09-3.42,3.3-5.49,1-1.71,2.54-3.27,3.82-5.14,1.15-1.68,2.36-3.42,3.77-5.14,1.31-1.6,2.07-3.83,3.62-5.37,1.48-1.46,3.57-2.38,5.28-3.73,1.63-1.29,3.21-2.78,5.08-3.92,1.77-1.08,3.7-2.06,5.7-2.96,1.02-.46,2.14-.6,3.12-.96,1.95-.73,3.97-1.44,5.95-1.3,2.02.14,4.01,1.01,5.79,1.97,1.75.94,3.72,1.99,4.98,3.64,1.2,1.56,1.42,3.89,2.62,5.45,1.2,1.56,3.48,2.3,4.68,3.86,1.2,1.56,2.4,3.13,3.6,4.69,1.2,1.56,1.74,3.64,2.94,5.2,1.2,1.56,2.35,3.17,3.55,4.73,1.2,1.56,2.34,3.17,3.55,4.73,1.2,1.56,2.33,3.18,3.54,4.74,1.2,1.56,2.21,3.28,3.41,4.84,1.2,1.56,2.44,3.1,3.64,4.66,1.2,1.56,3.42,2.34,4.63,3.9,1.2,1.56,1.97,3.46,3.18,5.02,1.2,1.56,2.24,3.25,3.44,4.82,1.2,1.56,2.12,3.34,3.33,4.9,1.2,1.56,2.38,3.14,3.58,4.7,1.2,1.56,3.28,2.45,4.48,4.01,1.38,1.79,2.5,4.01,2.92,6.11.43,2.14-.28,4.51-.84,6.63-.55,2.06-1.72,3.91-3.2,5.61-1.18,1.37-2.2,3-3.57,4.43-1.26,1.32-3.17,2.07-4.6,3.42-1.34,1.26-2.21,3.12-3.69,4.38-1.41,1.2-3.14,2.06-4.69,3.24-.98.75-2.59,2-4.83,3.5-1.44.96-3.17,1.96-5.1,3.11-1.58.94-3.02,2.47-4.92,3.47-1.67.88-3.36,2.02-5.26,2.9-1.73.81-3.95.74-5.87,1.52-1.79.72-3.71,1.22-5.66,1.89-1.83.64-3.64,1.48-5.6,2.06-1.87.55-3.63,1.68-5.62,2.16-2.1.51-4.16,1.03-6.18,1.4-2.12.39-4.37-.33-6.4-.06-2.15.28-4.13,1.57-6.17,1.73-2.17.17-4.31-.12-6.35-.07-2.2.05-4.31.16-6.32.1-2.22-.06-4.31-.49-6.29-.65-2.26-.18-4.57.31-6.49.06-1.58-1.06-3.18-2.34-4.76-3.4-1.58-1.06-2.94-2.46-4.52-3.52-1.58-1.06-3.47-1.68-5.05-2.74-1.58-1.06-2.59-2.99-4.17-4.05-1.58-1.06-3.19-2.09-4.77-3.15-1.58-1.06-3.08-2.25-4.66-3.32-1.58-1.06-3.22-2.05-4.8-3.11-1.58-1.06-4-1.69-5.58-2.75.05-3,.78-3.05,1.63-5.93.85-2.88,1.01-2.83,1.84-5.72.83-2.87,1.25-2.74,2.5-5.48"/><path class="cls-5" d="M271.68,100.15c1.32-.88,2.14-2.58,3.79-3.87,1.34-1.05,2.68-2.26,4.14-3.61,1.28-1.19,3.27-1.8,4.58-3.24,1.19-1.31,2.45-2.71,3.62-4.24,1.4-1.83,2.66-3.53,3.64-5.18,1.16-1.95,1.46-4.12,2.21-5.93.82-2,2.23-3.7,2.81-5.69.57-1.95.02-4.25.61-6.36.54-1.88,1.42-3.79,2.17-5.92.64-1.82,1.69-3.64,2.61-5.72.78-1.77,1.27-3.86,2.34-5.86.86-1.62,2.09-3.42,3.3-5.49,1-1.71,2.54-3.27,3.82-5.14,1.15-1.68,2.36-3.42,3.77-5.14,1.31-1.6,2.07-3.83,3.62-5.37,1.48-1.46,3.57-2.38,5.28-3.73,1.63-1.29,3.21-2.78,5.08-3.92,1.77-1.08,3.7-2.06,5.7-2.96,1.02-.46,2.14-.6,3.12-.96,1.95-.73,3.97-1.44,5.95-1.3,2.02.14,4.01,1.01,5.79,1.97,1.75.94,3.72,1.99,4.98,3.64,1.2,1.56,1.42,3.89,2.62,5.45,1.2,1.56,3.48,2.3,4.68,3.86,1.2,1.56,2.4,3.13,3.6,4.69,1.2,1.56,1.74,3.64,2.94,5.2,1.2,1.56,2.35,3.17,3.55,4.73,1.2,1.56,2.34,3.17,3.55,4.73,1.2,1.56,2.33,3.18,3.54,4.74,1.2,1.56,2.21,3.28,3.41,4.84,1.2,1.56,2.44,3.1,3.64,4.66,1.2,1.56,3.42,2.34,4.63,3.9,1.2,1.56,1.97,3.46,3.18,5.02,1.2,1.56,2.24,3.25,3.44,4.82,1.2,1.56,2.12,3.34,3.33,4.9,1.2,1.56,2.38,3.14,3.58,4.7,1.2,1.56,3.28,2.45,4.48,4.01,1.38,1.79,2.5,4.01,2.92,6.11.43,2.14-.28,4.51-.84,6.63-.55,2.06-1.72,3.91-3.2,5.61-1.18,1.37-2.2,3-3.57,4.43-1.26,1.32-3.17,2.07-4.6,3.42-1.34,1.26-2.21,3.12-3.69,4.38-1.41,1.2-3.14,2.06-4.69,3.24-.98.75-2.59,2-4.83,3.5-1.44.96-3.17,1.96-5.1,3.11-1.58.94-3.02,2.47-4.92,3.47-1.67.88-3.36,2.02-5.26,2.9-1.73.81-3.95.74-5.87,1.52-1.79.72-3.71,1.22-5.66,1.89-1.83.64-3.64,1.48-5.6,2.06-1.87.55-3.63,1.68-5.62,2.16-2.1.51-4.16,1.03-6.18,1.4-2.12.39-4.37-.33-6.4-.06-2.15.28-4.13,1.57-6.17,1.73-2.17.17-4.31-.12-6.35-.07-2.2.05-4.31.16-6.32.1-2.22-.06-4.31-.49-6.29-.65-2.26-.18-4.57.31-6.49.06-1.58-1.06-3.18-2.34-4.76-3.4-1.58-1.06-2.94-2.46-4.52-3.52-1.58-1.06-3.47-1.68-5.05-2.74-1.58-1.06-2.59-2.99-4.17-4.05-1.58-1.06-3.19-2.09-4.77-3.15-1.58-1.06-3.08-2.25-4.66-3.32-1.58-1.06-3.22-2.05-4.8-3.11-1.58-1.06-4-1.69-5.58-2.75.05-3,.78-3.05,1.63-5.93.85-2.88,1.01-2.83,1.84-5.72.83-2.87,1.25-2.74,2.5-5.48Z"/><path class="cls-2" d="M271.61,141.43c1.7.68,3.11,2.52,5.09,3.44,1.72.79,3.96.8,5.86,1.75,1.73.87,3.61,1.67,5.44,2.67,1.72.93,2.88,2.98,4.66,4.03,1.7.99,3.53,1.83,5.28,2.93,1.68,1.05,3.5,1.93,5.2,3.07,1.66,1.11,3.41,2.11,5.07,3.29,1.63,1.16,3.53,2,5.14,3.23,1.59,1.22,2.92,2.81,4.48,4.1,1.55,1.28,3.01,2.68,4.52,4.03,1.48,1.32,3.34,2.19,4.73,3.52,1.43,1.37,2.37,3.2,3.71,4.58,1.38,1.42,2.56,2.98,3.84,4.41,1.33,1.47,2.55,2.98,3.78,4.45,1.27,1.52,3.05,2.6,4.23,4.11,1.22,1.57,1.85,3.53,2.97,5.08,1.17,1.62,2.52,3.04,3.58,4.63,1.11,1.66,1.68,3.6,2.68,5.21,1.06,1.71,3.13,2.74,4.07,4.39,1,1.75,1.72,3.6,2.6,5.27.95,1.8,1.96,3.49,2.76,5.17.89,1.86.98,3.97,1.72,5.65.85,1.93,1.87,4,2.53,5.65,1-1.82,1.71-4.15,2.73-5.93,1.04-1.8,1.86-3.73,2.92-5.48,1.08-1.78,2.96-3.04,4.07-4.76,1.13-1.75,1.86-3.74,3.04-5.42,1.2-1.71,2.96-2.96,4.2-4.59,1.27-1.66,2.46-3.31,3.78-4.88,1.34-1.59,2.38-3.42,3.79-4.91,1.43-1.52,3.14-2.71,4.63-4.11,1.52-1.42,2.8-3.08,4.39-4.37,1.61-1.31,3.22-2.61,4.91-3.77,1.7-1.17,3.52-2.17,5.31-3.18,1.79-1.02,4.04-1.91,5.93-2.76-1.51-1.27-3.44-2.73-5.06-4.05-1.54-1.25-2.97-2.74-4.61-4.02-1.57-1.22-3.7-1.79-5.37-3.04-1.6-1.2-3.09-2.6-4.78-3.81-1.63-1.17-2.8-3.05-4.51-4.23-1.65-1.14-4.03-1.25-5.76-2.4-1.67-1.11-2.71-3.26-4.46-4.37-1.7-1.08-4.06-1.14-5.83-2.21-1.72-1.04-3.01-2.86-4.8-3.89-1.74-1.01-4.01-1.13-5.82-2.13-1.76-.98-3.3-2.41-5.12-3.37-1.78-.94-3.86-1.35-5.7-2.27-1.8-.91-3.11-2.86-4.97-3.75-1.82-.87-4.01-1-5.88-1.85-1.84-.84-3.48-2.15-5.38-2.97-1.86-.8-3.82-1.4-5.72-2.18-1.81-.73-3.48-1.77-5.26-2.45-1.82-.7-3.86-.75-5.65-1.41-1.84-.67-3.32-2.28-5.13-2.9-1.85-.63-3.9-.59-5.72-1.17-1.86-.6-3.73-1.09-5.55-1.64-1.87-.56-3.62-1.47-5.45-1.99-1.88-.53-3.64-1.44-5.48-1.92-1.9-.49-4.08.25-5.92-.19-1.91-.46-3.59-1.74-5.44-2.15-1.92-.43-3.98.02-5.83-.36-1.93-.39-3.75-1.09-5.61-1.43"/><path class="cls-5" d="M271.61,141.43c1.7.68,3.11,2.52,5.09,3.44,1.72.79,3.96.8,5.86,1.75,1.73.87,3.61,1.67,5.44,2.67,1.72.93,2.88,2.98,4.66,4.03,1.7.99,3.53,1.83,5.28,2.93,1.68,1.05,3.5,1.93,5.2,3.07,1.66,1.11,3.41,2.11,5.07,3.29,1.63,1.16,3.53,2,5.14,3.23,1.59,1.22,2.92,2.81,4.48,4.1,1.55,1.28,3.01,2.68,4.52,4.03,1.48,1.32,3.34,2.19,4.73,3.52,1.43,1.37,2.37,3.2,3.71,4.58,1.38,1.42,2.56,2.98,3.84,4.41,1.33,1.47,2.55,2.98,3.78,4.45,1.27,1.52,3.05,2.6,4.23,4.11,1.22,1.57,1.85,3.53,2.97,5.08,1.17,1.62,2.52,3.04,3.58,4.63,1.11,1.66,1.68,3.6,2.68,5.21,1.06,1.71,3.13,2.74,4.07,4.39,1,1.75,1.72,3.6,2.6,5.27.95,1.8,1.96,3.49,2.76,5.17.89,1.86.98,3.97,1.72,5.65.85,1.93,1.87,4,2.53,5.65,1-1.82,1.71-4.15,2.73-5.93,1.04-1.8,1.86-3.73,2.92-5.48,1.08-1.78,2.96-3.04,4.07-4.76,1.13-1.75,1.86-3.74,3.04-5.42,1.2-1.71,2.96-2.96,4.2-4.59,1.27-1.66,2.46-3.31,3.78-4.88,1.34-1.59,2.38-3.42,3.79-4.91,1.43-1.52,3.14-2.71,4.63-4.11,1.52-1.42,2.8-3.08,4.39-4.37,1.61-1.31,3.22-2.61,4.91-3.77,1.7-1.17,3.52-2.17,5.31-3.18,1.79-1.02,4.04-1.91,5.93-2.76-1.51-1.27-3.44-2.73-5.06-4.05-1.54-1.25-2.97-2.74-4.61-4.02-1.57-1.22-3.7-1.79-5.37-3.04-1.6-1.2-3.09-2.6-4.78-3.81-1.63-1.17-2.8-3.05-4.51-4.23-1.65-1.14-4.03-1.25-5.76-2.4-1.67-1.11-2.71-3.26-4.46-4.37-1.7-1.08-4.06-1.14-5.83-2.21-1.72-1.04-3.01-2.86-4.8-3.89-1.74-1.01-4.01-1.13-5.82-2.13-1.76-.98-3.3-2.41-5.12-3.37-1.78-.94-3.86-1.35-5.7-2.27-1.8-.91-3.11-2.86-4.97-3.75-1.82-.87-4.01-1-5.88-1.85-1.84-.84-3.48-2.15-5.38-2.97-1.86-.8-3.82-1.4-5.72-2.18-1.81-.73-3.48-1.77-5.26-2.45-1.82-.7-3.86-.75-5.65-1.41-1.84-.67-3.32-2.28-5.13-2.9-1.85-.63-3.9-.59-5.72-1.17-1.86-.6-3.73-1.09-5.55-1.64-1.87-.56-3.62-1.47-5.45-1.99-1.88-.53-3.64-1.44-5.48-1.92-1.9-.49-4.08.25-5.92-.19-1.91-.46-3.59-1.74-5.44-2.15-1.92-.43-3.98.02-5.83-.36-1.93-.39-3.75-1.09-5.61-1.43"/><path class="cls-5" d="M122.99,189.91c2.47,1.65,2.45,1.67,4.92,3.32,2.47,1.65,2.56,1.51,5.02,3.16,2.47,1.65,2.38,1.77,4.85,3.42,2.47,1.65,2.56,1.51,5.02,3.16q2.47,1.65,4.94,3.29c2.47,1.65,2.42,1.73,4.89,3.38,2.47,1.65,2.42,1.72,4.89,3.37"/><path class="cls-5" d="M121.74,249.47c2.47,1.65,2.45,1.67,4.92,3.32,2.47,1.65,2.56,1.51,5.02,3.16,2.47,1.65,2.38,1.77,4.85,3.42,2.47,1.65,2.56,1.51,5.02,3.16q2.47,1.65,4.94,3.29c2.47,1.65,2.42,1.73,4.89,3.38,2.47,1.65,2.42,1.72,4.89,3.37"/><path class="cls-2" d="M236.61,97.41c-.95-1.71-1.95-3.24-2.91-4.83-1.01-1.68-2.03-3.31-3.04-4.86-1.08-1.65-2.64-2.88-3.71-4.39-1.15-1.61-2.34-3.08-3.46-4.54-1.22-1.58-1.96-3.41-3.13-4.81-1.29-1.54-2.37-3.15-3.59-4.47-1.38-1.51-2.96-2.65-4.2-3.89-1.41-1.42-2.81-2.86-4.27-4.24-1.45-1.37-2.77-2.89-4.25-4.26-1.46-1.35-3.36-2.25-4.83-3.64-1.44-1.36-2.44-3.2-3.88-4.64-1.39-1.4-3.32-2.33-4.69-3.84-1.32-1.46-2.25-3.32-3.54-4.91-1.23-1.52-2.69-2.94-3.88-4.62-1.13-1.59-2.06-3.39-3.14-5.15-1.02-1.66-1.53-3.66-2.5-5.49-1.28-2.42-2.34-4.45-2.95-6.35-.88-2.74-1.45-4.91-.43-6.8.96-1.77,2.81-3.1,5.13-3.87,1.85-.62,4.06-1.11,6.4-1.23,2.07-.1,4.26.5,6.47.69,2.16.19,4.3.56,6.38.96,2.25.42,4.58.23,6.47.8,1.86.56,3.52,1.6,5.21,2.31,1.79.76,3.65,1.3,5.26,2.19,1.71.95,3.37,1.95,4.86,2.98,1.62,1.13,2.97,2.53,4.34,3.69,1.53,1.31,2.7,2.84,3.92,4.09,1.48,1.52,2.54,3.09,3.56,4.36,1.77,2.2,3.1,3.68,3.54,4.38,1.06,1.67,2.1,3.28,2.92,4.94.87,1.77,1.32,3.64,1.97,5.39.68,1.84,2,3.43,2.5,5.23.53,1.88.33,3.91.73,5.74.42,1.91,1.27,3.69,1.63,5.52.45,2.29.92,4.24,1.15,6.07.26,2.08-.09,4.07.11,6.18.17,1.83.12,3.82.4,6.14.22,1.78.9,3.73,1.27,6.03.31,1.92.13,3.85.47,5.6.37,1.93,1.07,3.7,1.45,5.42.43,1.96.86,3.78,1.28,5.44.51,2.04,1.03,3.76,1.47,5.31-1.86-.95-3.55-2.1-5.4-3.05-1.86-.95-3.98-1.37-5.84-2.32-1.86-.94-3.38-2.35-5.24-3.3"/><path class="cls-5" d="M236.61,97.41c-.95-1.71-1.95-3.24-2.91-4.83-1.01-1.68-2.03-3.31-3.04-4.86-1.08-1.65-2.64-2.88-3.71-4.39-1.15-1.61-2.34-3.08-3.46-4.54-1.22-1.58-1.96-3.41-3.13-4.81-1.29-1.54-2.37-3.15-3.59-4.47-1.38-1.51-2.96-2.65-4.2-3.89-1.41-1.42-2.81-2.86-4.27-4.24-1.45-1.37-2.77-2.89-4.25-4.26-1.46-1.35-3.36-2.25-4.83-3.64-1.44-1.36-2.44-3.2-3.88-4.64-1.39-1.4-3.32-2.33-4.69-3.84-1.32-1.46-2.25-3.32-3.54-4.91-1.23-1.52-2.69-2.94-3.88-4.62-1.13-1.59-2.06-3.39-3.14-5.15-1.02-1.66-1.53-3.66-2.5-5.49-1.28-2.42-2.34-4.45-2.95-6.35-.88-2.74-1.45-4.91-.43-6.8.96-1.77,2.81-3.1,5.13-3.87,1.85-.62,4.06-1.11,6.4-1.23,2.07-.1,4.26.5,6.47.69,2.16.19,4.3.56,6.38.96,2.25.42,4.58.23,6.47.8,1.86.56,3.52,1.6,5.21,2.31,1.79.76,3.65,1.3,5.26,2.19,1.71.95,3.37,1.95,4.86,2.98,1.62,1.13,2.97,2.53,4.34,3.69,1.53,1.31,2.7,2.84,3.92,4.09,1.48,1.52,2.54,3.09,3.56,4.36,1.77,2.2,3.1,3.68,3.54,4.38,1.06,1.67,2.1,3.28,2.92,4.94.87,1.77,1.32,3.64,1.97,5.39.68,1.84,2,3.43,2.5,5.23.53,1.88.33,3.91.73,5.74.42,1.91,1.27,3.69,1.63,5.52.45,2.29.92,4.24,1.15,6.07.26,2.08-.09,4.07.11,6.18.17,1.83.12,3.82.4,6.14.22,1.78.9,3.73,1.27,6.03.31,1.92.13,3.85.47,5.6.37,1.93,1.07,3.7,1.45,5.42.43,1.96.86,3.78,1.28,5.44.51,2.04,1.03,3.76,1.47,5.31-1.86-.95-3.55-2.1-5.4-3.05-1.86-.95-3.98-1.37-5.84-2.32-1.86-.94-3.38-2.35-5.24-3.3Z"/><path class="cls-2" d="M238.55,135.64c-1.01-1.5-2.33-3.68-3.44-6.22-.85-1.94-1.35-4.26-1.88-6.72-.46-2.14-.72-4.43-.71-6.91,0-1.94.14-4.04.5-6.15.34-2.04.57-4.17,1.23-6.08.72-2.07,1.7-4,2.79-5.56,1.3-1.89,3-3.23,4.82-3.81,3.21-1.02,5.67-.41,5.67-.41,2.65.49,3.38,1.51,5.68,1.39,2.37-.12,2.56-1.52,4.55-1.45,2.66.09,3.12,3.08,6.01,3.57,1.86.31,2.85-.78,5.38-1.66,1.21-.42,2.72-1.08,4.61-1.29,1.39-.15,3.1.02,4.88.16-1.23,1.71-2.42,3.8-3.61,6.04-1.03,1.92-2.28,3.91-3.13,6.24-.71,1.93-1,3.91-1.45,5.78-.48,2-1.17,3.9-1.4,5.8-.25,2.06,0,4.07,0,5.97-.02,2.1,0,4.08.18,5.94.21,2.15.53,4.12.88,5.88.47,2.34.99,4.5,1.44,5.98-3.09.45-5.08-.27-6.07-.98-1.84-1.32-1.69-3.33-3.67-4.08-1.44-.54-1.88.43-4.02.05-2.31-.42-2.54-1.75-4.47-2.26-2.29-.6-3.59.41-6.45.94-1.85.34-4.67.9-8.29-.16"/><path class="cls-5" d="M238.55,135.64c-1.01-1.5-2.33-3.68-3.44-6.22-.85-1.94-1.35-4.26-1.88-6.72-.46-2.14-.72-4.43-.71-6.91,0-1.94.14-4.04.5-6.15.34-2.04.57-4.17,1.23-6.08.72-2.07,1.7-4,2.79-5.56,1.3-1.89,3-3.23,4.82-3.81,3.21-1.02,5.67-.41,5.67-.41,2.65.49,3.38,1.51,5.68,1.39,2.37-.12,2.56-1.52,4.55-1.45,2.66.09,3.12,3.08,6.01,3.57,1.86.31,2.85-.78,5.38-1.66,1.21-.42,2.72-1.08,4.61-1.29,1.39-.15,3.1.02,4.88.16-1.23,1.71-2.42,3.8-3.61,6.04-1.03,1.92-2.28,3.91-3.13,6.24-.71,1.93-1,3.91-1.45,5.78-.48,2-1.17,3.9-1.4,5.8-.25,2.06,0,4.07,0,5.97-.02,2.1,0,4.08.18,5.94.21,2.15.53,4.12.88,5.88.47,2.34.99,4.5,1.44,5.98-3.09.45-5.08-.27-6.07-.98-1.84-1.32-1.69-3.33-3.67-4.08-1.44-.54-1.88.43-4.02.05-2.31-.42-2.54-1.75-4.47-2.26-2.29-.6-3.59.41-6.45.94-1.85.34-4.67.9-8.29-.16Z"/><path class="cls-5" d="M279.21,103.52c.97-.97.83-3.06,1.81-4.07.96-.99,1.89-2,2.86-3.03.94-1,1.87-2.02,2.82-3.06.93-1.02,1.75-2.14,2.68-3.19.91-1.03,1.71-2.17,2.62-3.23,1.01-1.17,2.84-1.55,3.69-2.67.94-1.24,2.37-2.07,3.14-3.23.87-1.3.25-3.44.96-4.63.81-1.36,2.68-1.98,3.34-3.17.79-1.42,1.73-2.54,2.41-3.67.86-1.43.86-3.15,1.79-4.06,1.08-1.07,2.35-1.73,3.89-1.98,1.3-.21,2.88-.88,4.23-.53,1.27.33,2.53,1.31,3.73,2.02,1.15.69,2.67,1.21,3.65,2.16.98.95,1.69,2.38,2.39,3.51.74,1.18.63,2.79.95,4.06.38,1.53.82,3.07.56,4.62-.25,1.48-1.3,2.76-2.02,4.2-.67,1.33-1.61,2.49-2.61,3.76-.93,1.18-1.07,3.21-2.22,4.31-1.11,1.05-2.33,2.18-3.58,3.12-1.24.93-3.28.75-4.6,1.55-1.35.81-2.72,1.46-4.1,2.11-1.45.68-2.89,1.12-4.31,1.59-1.43.47-2.57,1.68-3.9,1.94-1.51.29-3.05-.6-4.36-.51-1.62.12-3.03,1.59-4.24,1.54"/><path class="cls-5" d="M228.92,118.95c-1.28-.48-3.21.71-4.53.24-1.29-.46-2.61-.9-3.94-1.35-1.3-.45-2.61-.87-3.95-1.3-1.31-.43-2.67-.69-4.02-1.11-1.32-.41-2.69-.64-4.03-1.04-1.48-.44-2.53-2.12-3.89-2.44-1.51-.36-2.83-1.42-4.19-1.66-1.54-.27-3.28,1.39-4.64,1.22-1.57-.2-2.86-1.86-4.2-1.98-1.61-.15-3-.61-4.31-.78-1.64-.21-3.22.63-4.45.18-1.42-.52-2.57-1.36-3.54-2.56-1.06-1.31-2.72-2.06-3.46-3.22-.93-1.46-1.29-3.14-1.79-4.37-.68-1.68-1.62-3.32-1.64-4.6-.03-1.8,1.06-3.66,1.93-4.71.98-1.19,2.94-1.3,4.45-1.6,1.51-.3,3.17-.64,4.56-.12,1.04.39,2.11,1.68,3.68,2.55,1.17.65,2.39,1.53,3.79,2.3,1.24.68,3.22.08,4.59.76,1.29.65,2.62,1.17,4,1.75,1.36.57,2.22,2.47,3.63,2.91,1.42.44,2.91.9,4.35,1.14,1.48.24,3.07.51,4.53.46,1.48-.05,2.82-1.29,4.24-1.73,1.63-.51,2.04.99,2.9,2.3.66,1,2.69,1.59,3.24,3.06.48,1.28.55,2.77,1.16,4.04.63,1.31.99,2.78,1.98,3.71"/><path class="cls-5" d="M243.13,131.93c-.84-1.28-1.73-3.04-2.62-5.09-.7-1.6-1.31-3.42-1.77-5.44-.4-1.76-.74-3.64-.8-5.67-.05-1.58-.07-4.02.55-6.64.47-1.99,1.35-4.07,2.89-5.95.6-.73,2.58-3.25,4.03-2.77,1.24.41,1.39,2.82,1.56,5.17.18,2.48.37,4.91,1.41,5.17.58.15.92-.76,2.98-2.68,2.04-1.9,3.16-2.93,4.15-2.73.81.17,1.33,1.1,2.03,4.27.28,1.26.52,2.87.87,4.9.34,1.99.75,3.62.96,4.97.52,3.36.67,4.78,1.05,4.79.42.01.79-1.65,1.27-4.22.25-1.32.49-2.87.77-4.51.87-5.13.82-5.95,1.48-7.93.41-1.24,1.13-2.74,2.27-4.44.81-1.21,1.81-2.54,3.18-3.86"/><path class="cls-5" d="M254.05,132.36c-.07-5.45.58-6.67,1.19-6.8.72-.16,1.48,1.16,3.14,3.51.77,1.08,1.72,2.39,2.94,3.86,1.36,1.64,2.59,2.88,3.36,3.66"/><path class="cls-5" d="M285.25,109.93c1.39-.45,2.88-1.51,4.75-1.88,1.53-.31,3.32.09,5.11-.13,1.6-.19,3.25-.56,5.02-.64,1.63-.07,3.32-.02,5.06.02,1.9.05,3.67.05,5.33.29,1.89.28,3.69.44,5.29.85,1.89.49,3.62.96,5.16,1.43"/><path class="cls-5" d="M340.32,134.48c1.14-.42,2.27-1.45,3.77-2.12,1.2-.54,2.47-1.15,3.84-1.87,1.2-.64,2.52-1.17,3.82-1.97,1.56-.96,2.9-2.08,4.3-3.12,1.46-1.08,3.04-1.91,4.37-3.05,1.38-1.18,2.85-2.2,4.11-3.42,1.3-1.25,2.07-2.99,3.3-4.26,1.25-1.29,3.25-1.85,4.47-3.13,1.23-1.3,2.08-2.96,3.32-4.22,1.25-1.27,2.46-2.6,3.77-3.8,1.31-1.2,2.39-2.72,3.81-3.83,1.39-1.09,3.54-1.12,5.07-2.08,1.42-.9,3.04-2.45,5.41-3.37,1.8-.7,3.93-.79,6.26-1.11,1.46-.2,3-1.37,4.26-1.07,1.49.36,2.02,2.04,2.66,3.25"/></g></g></g></svg>