<svg width="112" height="112" viewBox="0 0 112 112" fill="none" xmlns="http://www.w3.org/2000/svg">
<g id="Vector">
<mask id="path-1-outside-1_151_1186" maskUnits="userSpaceOnUse" x="0" y="0" width="112" height="112" fill="black">
<rect fill="white" width="112" height="112"/>
<path d="M44.0023 109.951C42.8782 109.951 42.3358 109.872 41.7541 109.794C41.1723 109.715 40.5609 109.627 39.3678 109.627C38.2535 109.627 37.7112 109.529 37.1393 109.431C36.5476 109.323 35.9363 109.215 34.7333 109.215C33.5303 109.215 32.9879 109.235 32.3963 109.244C31.8244 109.264 31.2426 109.274 30.0889 109.274C28.9352 109.274 28.3534 109.274 27.7717 109.274C27.1899 109.274 26.6081 109.274 25.4544 109.274C24.3007 109.274 23.6696 109.323 23.0878 109.372C22.5061 109.421 21.9539 109.47 20.81 109.47C19.7944 109.47 19.3112 109.156 18.759 108.803C18.1575 108.421 17.4771 107.979 16.1755 107.979C15.4163 107.979 14.6767 108.215 13.9569 108.44C13.3061 108.646 12.6947 108.842 12.1425 108.842C11.9355 108.842 11.758 108.813 11.5903 108.764C10.7916 108.509 10.1507 107.832 9.48016 107.116C9.04629 106.655 8.5927 106.175 8.07994 105.802C7.20235 105.165 6.63043 104.321 6.01907 103.429C5.812 103.125 5.60492 102.821 5.37813 102.507C5.00342 101.987 4.52025 101.555 4.0568 101.134C3.36656 100.516 2.71575 99.9274 2.45938 99.133C2.01565 97.7796 2.01565 96.2889 2.01565 94.7099C2.01565 93.5134 1.9269 92.9053 1.83815 92.3169C1.74941 91.7382 1.67052 91.1988 1.67052 90.0808C1.67052 89.051 1.9269 88.5606 2.23258 88.0016C2.54812 87.4132 2.9031 86.7365 2.9031 85.4615C2.9031 84.3042 2.9031 83.7256 2.88338 83.1469C2.88338 82.5683 2.86366 81.9995 2.86366 80.8422C2.86366 79.6849 2.81436 79.067 2.76506 78.4884C2.71575 77.9098 2.66645 77.3507 2.66645 76.2229C2.66645 74.9185 2.19314 74.232 1.76913 73.6337C1.38457 73.0845 1.0493 72.604 1.0493 71.6036C1.0493 70.4757 1.10847 69.9265 1.16763 69.3479C1.22679 68.7693 1.28596 68.171 1.28596 66.9941C1.28596 65.9153 1.45359 65.3955 1.63108 64.8365C1.82829 64.2284 2.02551 63.6106 2.02551 62.3748C2.02551 61.1391 1.72969 60.4526 1.47331 59.8641C1.22679 59.3149 1 58.8049 1 57.7555C1 56.7748 1.38457 56.304 1.83815 55.7548C2.33119 55.1468 2.89324 54.47 2.89324 53.1362C2.89324 51.8024 2.36077 51.1355 1.8776 50.5275C1.44373 49.9782 1.07889 49.5075 1.07889 48.5267C1.07889 47.3695 1.05916 46.7908 1.0493 46.2024C1.03944 45.6336 1.01972 45.0549 1.01972 43.9075C1.01972 42.9071 1.35498 42.4363 1.74941 41.8871C2.17342 41.2889 2.65659 40.6122 2.65659 39.298C2.65659 38.0622 2.43965 37.4346 2.23258 36.8363C2.04523 36.2871 1.85788 35.7575 1.85788 34.6885C1.85788 33.492 1.74941 32.8839 1.64094 32.2955C1.54234 31.7266 1.44373 31.1872 1.44373 30.079C1.44373 28.9708 1.66066 28.5098 1.88746 27.9606C2.12411 27.382 2.40021 26.715 2.40021 25.4695C2.40021 24.322 2.41007 23.7434 2.41993 23.1746C2.42979 22.5959 2.43965 22.0173 2.43965 20.86C2.43965 19.7027 2.50868 19.1928 2.58756 18.6141C2.66645 18.0355 2.74533 17.4274 2.74533 16.2407C2.74533 15.5542 2.59742 14.8775 2.44952 14.2302C2.2523 13.3377 2.06495 12.4943 2.30161 11.7685C2.77492 10.317 3.69196 8.96362 4.52025 7.83577C4.68788 7.60039 4.85551 7.36501 5.02314 7.12964C5.75283 6.09986 6.50224 5.03085 7.45872 4.34433C8.35604 3.69704 9.54918 3.34397 10.7029 3.00071C11.048 2.90264 11.3931 2.79476 11.7284 2.68688C13.0892 2.24554 14.5683 2.24554 16.1361 2.24554C17.3095 2.24554 17.8913 2.25535 18.4731 2.27496C19.0548 2.28477 19.6366 2.30439 20.81 2.30439C21.9835 2.30439 22.5652 2.28477 23.147 2.26516C23.7189 2.24554 24.3007 2.22593 25.4544 2.22593C26.6081 2.22593 27.1504 2.26516 27.7421 2.31419C28.3239 2.36323 28.9254 2.40246 30.0988 2.40246C31.4004 2.40246 32.0808 1.99055 32.6724 1.62767C33.2345 1.29422 33.7176 1 34.7333 1C35.7489 1 36.2617 1.24519 36.8336 1.5296C37.4252 1.82382 38.0958 2.15728 39.3776 2.15728C40.4524 2.15728 40.9849 2.33381 41.5371 2.52996C42.1485 2.73591 42.7796 2.95168 44.022 2.95168C45.3631 2.95168 46.0533 2.37304 46.6548 1.87286C47.207 1.41191 47.6803 1.01961 48.6565 1.01961C49.6327 1.01961 50.1356 1.36287 50.6878 1.76498C51.2893 2.19651 51.9795 2.69668 53.3009 2.69668C54.6222 2.69668 55.2237 2.42208 55.8055 2.1867C56.3577 1.96113 56.8704 1.74536 57.9354 1.74536C59.0003 1.74536 59.5229 1.94151 60.0751 2.15728C60.6865 2.39265 61.3176 2.62803 62.5699 2.62803C63.8222 2.62803 64.3645 2.54957 64.9562 2.47111C65.5379 2.39265 66.0803 2.324 67.2142 2.324C68.3482 2.324 68.93 2.35342 69.5118 2.38285C70.0936 2.41227 70.6852 2.44169 71.8586 2.44169C73.1602 2.44169 73.8406 2.01997 74.4421 1.6571C75.0042 1.31384 75.4873 1.01961 76.503 1.01961C77.5186 1.01961 78.0905 1.22557 78.6427 1.45114C79.2245 1.68652 79.895 1.95132 81.1473 1.95132C82.1926 1.95132 82.6856 2.17689 83.2575 2.44169C83.8492 2.7163 84.5197 3.03014 85.7818 3.03014C86.9454 3.03014 87.5272 3.03014 88.1089 3.03014C88.6907 3.03014 89.2626 3.03014 90.4262 3.03014C91.5898 3.03014 92.1814 3.01052 92.7632 3.00071C93.3351 2.9811 93.9169 2.97129 95.0706 2.97129C96.6483 2.97129 97.8907 3.05956 99.2515 3.50089L99.8924 3.70685C101.135 4.09914 102.22 4.4326 103.215 5.15835C104.083 5.78602 104.645 6.62946 105.247 7.51213C105.464 7.82596 105.681 8.14961 105.907 8.47325C106.716 9.58149 107.229 10.6211 107.751 12.2001C107.899 12.661 108.087 13.1024 108.274 13.5339C108.659 14.446 109.023 15.2992 109.023 16.2898C109.023 17.3882 108.895 17.9276 108.767 18.4866C108.629 19.0849 108.481 19.6929 108.481 20.9091C108.481 22.1252 108.56 22.694 108.629 23.2825C108.698 23.8611 108.767 24.4103 108.767 25.5284C108.767 26.7347 108.915 27.3525 109.053 27.9508C109.181 28.5196 109.309 29.0492 109.309 30.1476C109.309 31.2461 109.142 31.7561 108.974 32.3151C108.787 32.9133 108.59 33.541 108.59 34.7669C108.59 35.9046 108.55 36.4538 108.501 37.0325C108.461 37.6111 108.412 38.2093 108.412 39.3764C108.412 40.6318 108.698 41.2987 108.954 41.8773C109.191 42.4265 109.418 42.9365 109.418 43.9859C109.418 45.1334 109.418 45.712 109.408 46.2907C109.408 46.8693 109.398 47.4479 109.398 48.6052C109.398 49.8213 109.566 50.4392 109.733 51.0374C109.891 51.5965 110.029 52.1261 110.029 53.2147C110.029 54.3622 110.009 54.931 109.99 55.5096C109.97 56.0883 109.95 56.6669 109.95 57.834C109.95 59.0011 109.98 59.5797 110 60.1583C110.029 60.7272 110.049 61.3058 110.049 62.4435C110.049 63.5811 110.009 64.1304 109.96 64.7188C109.921 65.2974 109.871 65.8859 109.871 67.0628C109.871 68.2397 109.802 68.73 109.723 69.3087C109.645 69.8873 109.566 70.4954 109.566 71.6821C109.566 72.7315 109.339 73.2513 109.102 73.7907C108.846 74.3791 108.56 75.0362 108.56 76.2915C108.56 77.4782 108.639 78.0863 108.728 78.6649C108.806 79.2436 108.885 79.783 108.885 80.901C108.885 82.0191 108.806 82.5683 108.728 83.1371C108.649 83.7256 108.56 84.3238 108.56 85.5105C108.56 86.6972 108.659 87.3053 108.747 87.8937C108.836 88.4626 108.925 89.0118 108.925 90.12C108.925 91.3557 109.142 91.9834 109.359 92.5915C109.556 93.1407 109.733 93.6703 109.733 94.7393C109.733 95.6024 109.29 96.3968 108.826 97.2402C108.53 97.7796 108.215 98.3386 108.027 98.9173C107.899 99.3096 107.791 99.692 107.682 100.075C107.387 101.134 107.11 102.124 106.489 102.978C105.898 103.782 105.069 104.311 104.192 104.861C103.807 105.106 103.413 105.351 103.038 105.626C101.904 106.44 100.78 106.999 99.2515 107.499C98.6303 107.705 98.0485 108.058 97.4864 108.401C96.6779 108.891 95.9087 109.362 95.0804 109.362C93.9465 109.362 93.3943 109.294 92.8125 109.235C92.2307 109.166 91.6193 109.097 90.4361 109.097C89.3613 109.097 88.8386 108.911 88.2766 108.715C87.6652 108.499 87.0341 108.274 85.7818 108.274C84.5295 108.274 83.9478 108.411 83.3561 108.538C82.7842 108.656 82.2517 108.774 81.1375 108.774C80.0232 108.774 79.5302 108.597 78.9681 108.421C78.3568 108.225 77.7355 108.019 76.4931 108.019C75.2507 108.019 74.7182 108.058 74.1364 108.097C73.5448 108.136 72.9926 108.175 71.8487 108.175C70.7049 108.175 70.1626 108.117 69.5808 108.058C68.999 107.999 68.3975 107.93 67.2044 107.93C66.0112 107.93 65.3999 108.009 64.8181 108.097C64.2363 108.175 63.694 108.254 62.5699 108.254C61.3373 108.254 60.7161 108.43 60.1146 108.607C59.5525 108.764 59.02 108.921 57.9255 108.921H53.291C52.2063 108.921 51.6837 108.754 51.1217 108.578C50.5202 108.381 49.8891 108.185 48.6565 108.185C47.3253 108.185 46.6351 108.734 46.0237 109.225C45.4715 109.666 44.9982 110.049 44.0121 110.049L44.0023 109.951ZM48.6762 102.958C49.7215 102.958 50.2145 103.203 50.7765 103.488C51.3682 103.782 52.0387 104.115 53.3206 104.115C54.3954 104.115 54.918 104.292 55.4801 104.488C56.0914 104.694 56.7127 104.91 57.9551 104.91C59.2961 104.91 59.9864 104.331 60.5879 103.831C61.1401 103.37 61.6134 102.978 62.5896 102.978C63.5658 102.978 64.0687 103.321 64.6209 103.723C65.2224 104.154 65.9126 104.655 67.234 104.655C68.5553 104.655 69.1568 104.38 69.7386 104.145C70.2908 103.919 70.8035 103.703 71.8685 103.703C72.9334 103.703 73.456 103.899 74.0082 104.115C74.6196 104.351 75.2507 104.586 76.503 104.586C77.7553 104.586 78.2976 104.507 78.8892 104.429C79.471 104.351 80.0134 104.282 81.1473 104.282C82.2813 104.282 82.8729 104.311 83.4449 104.341C84.0266 104.37 84.6183 104.4 85.7917 104.4C87.0933 104.4 87.7737 103.978 88.3653 103.615C88.9274 103.272 89.4106 102.978 90.4262 102.978C91.4419 102.978 92.0138 103.183 92.566 103.409C93.1477 103.644 93.8183 103.909 95.0706 103.909C95.5242 103.909 95.9975 103.948 96.4905 103.997C97.0131 104.037 97.5456 104.086 98.0682 104.086C98.9951 104.086 99.6854 103.939 100.247 103.615C101.638 102.811 103.186 101.261 104.014 99.8392C104.803 98.4857 105.336 96.4164 105.336 94.7001C105.336 93.9841 105.355 93.484 105.365 93.0622C105.395 92.1305 105.414 91.5617 105.207 89.914C105.05 88.6685 105.128 88.1781 105.227 87.5505C105.306 87.0503 105.395 86.4716 105.395 85.4517C105.395 84.1963 105.109 83.5294 104.852 82.9508C104.616 82.4016 104.389 81.8916 104.389 80.8324C104.389 79.6849 104.389 79.1063 104.399 78.5276C104.399 77.949 104.409 77.3704 104.409 76.2131C104.409 74.997 104.241 74.3791 104.073 73.7808C103.916 73.2218 103.778 72.6922 103.778 71.6036C103.778 70.4561 103.797 69.8873 103.817 69.3087C103.837 68.73 103.856 68.1514 103.856 66.9843C103.856 65.8172 103.827 65.2386 103.807 64.6501C103.778 64.0813 103.758 63.5125 103.758 62.365C103.758 61.2175 103.797 60.6781 103.847 60.0897C103.886 59.5111 103.935 58.9128 103.935 57.7457C103.935 56.5786 104.004 56.0785 104.083 55.4998C104.162 54.9212 104.241 54.3131 104.241 53.1264C104.241 52.077 104.468 51.5572 104.704 51.0178C104.961 50.4294 105.247 49.7723 105.247 48.5169C105.247 47.3302 105.168 46.7222 105.079 46.1435C105 45.5649 104.921 45.0255 104.921 43.9075C104.921 42.7894 105 42.25 105.079 41.6714C105.158 41.0927 105.247 40.4847 105.247 39.298C105.247 38.1113 105.148 37.5032 105.059 36.9148C104.971 36.3459 104.882 35.7967 104.882 34.6787C104.882 33.4429 104.665 32.8153 104.448 32.2072C104.251 31.658 104.073 31.1284 104.073 30.0594C104.073 28.9904 104.3 28.5196 104.557 27.9508C104.823 27.3623 105.119 26.7052 105.119 25.4401C105.119 24.1749 104.99 23.6257 104.862 23.0275C104.744 22.4586 104.626 21.929 104.626 20.8208C104.626 19.7126 104.754 19.1928 104.892 18.6337C105.04 18.0355 105.188 17.4274 105.188 16.2113C105.188 14.5146 104.675 12.5237 103.866 11.1507C103.255 10.0915 102.052 9.60111 100.898 9.12054C100.405 8.91459 99.9319 8.71844 99.5374 8.49287C98.3049 7.78673 96.8455 7.02175 95.0508 7.02175C93.976 7.02175 93.4534 6.83541 92.8914 6.63927C92.28 6.4235 91.6489 6.19793 90.3966 6.19793C89.1443 6.19793 88.5625 6.33524 87.9709 6.46273C87.399 6.58042 86.8665 6.69811 85.7523 6.69811C84.638 6.69811 84.145 6.52158 83.5829 6.34504C82.9716 6.14889 82.3503 5.94294 81.1079 5.94294C79.9345 5.94294 79.333 5.98217 78.7512 6.0214C78.1596 6.06063 77.6074 6.09986 76.4635 6.09986C75.3197 6.09986 74.7774 6.04101 74.1956 5.98217C73.6138 5.92332 73.0123 5.85467 71.8192 5.85467C70.626 5.85467 70.0147 5.93313 69.4329 6.0214C68.8511 6.09986 68.3088 6.17832 67.1748 6.17832C65.9422 6.17832 65.321 6.35485 64.7195 6.53138C64.1574 6.6883 63.625 6.84522 62.5304 6.84522H57.8861C56.8014 6.84522 56.2788 6.67849 55.7167 6.50196C55.1152 6.30581 54.4841 6.10966 53.2516 6.10966C51.9204 6.10966 51.2301 6.65888 50.6188 7.14925C50.0666 7.59058 49.5933 7.97307 48.6072 7.97307C47.4831 7.97307 46.9309 7.89461 46.359 7.81616C45.7673 7.7377 45.1658 7.64943 43.9727 7.64943C42.8584 7.64943 42.3161 7.55136 41.7442 7.45328C41.1526 7.3454 40.5412 7.23752 39.3382 7.23752C38.1352 7.23752 37.5929 7.25713 37.0012 7.26694C36.4293 7.27675 35.8475 7.29636 34.6938 7.29636C33.5401 7.29636 32.9584 7.29636 32.3766 7.29636C31.7948 7.29636 31.213 7.29636 30.0495 7.29636C28.8859 7.29636 28.2647 7.3454 27.6829 7.39444C27.1011 7.44347 26.5391 7.49251 25.4051 7.49251C24.3895 7.49251 23.9161 7.17867 23.3541 6.82561C22.7526 6.43331 22.0722 6.00178 20.7706 6.00178C19.469 6.00178 18.7787 6.44312 18.1772 6.83541C17.625 7.19829 17.1419 7.51213 16.1262 7.51213C15.6628 7.51213 15.1697 7.46309 14.6866 7.41405C14.1935 7.36501 13.6709 7.30617 13.1779 7.30617C12.3595 7.30617 11.7284 7.45328 11.1959 7.75731C9.77598 8.57133 8.0405 9.69918 7.20235 11.1311C6.58113 12.1903 6.69945 13.5535 6.80792 14.8677C6.84736 15.3483 6.88681 15.819 6.88681 16.2603C6.88681 17.3882 6.82764 17.9374 6.75862 18.516C6.68959 19.0947 6.63043 19.7027 6.63043 20.8796C6.63043 22.0565 6.71917 22.6744 6.80792 23.2628C6.89667 23.8415 6.97555 24.3809 6.97555 25.4989C6.97555 26.5287 6.71917 27.0191 6.4135 27.5781C6.09795 28.1665 5.74297 28.8433 5.74297 30.1182C5.74297 31.2755 5.74297 31.8541 5.76269 32.4328C5.76269 33.0114 5.78241 33.5802 5.78241 34.7277C5.78241 35.8752 5.83172 36.5029 5.88102 37.0815C5.93032 37.6601 5.97963 38.2192 5.97963 39.347C5.97963 40.6514 6.45294 41.3379 6.86708 41.9362C7.25165 42.4854 7.58691 42.9659 7.58691 43.9663C7.58691 45.0942 7.52775 45.6434 7.46858 46.222C7.40942 46.8006 7.35026 47.3989 7.35026 48.5758C7.35026 49.6546 7.18263 50.1744 7.00513 50.7334C6.80792 51.3415 6.61071 51.9593 6.61071 53.1951C6.61071 54.4308 6.90653 55.1173 7.1629 55.696C7.40942 56.2452 7.63622 56.7552 7.63622 57.8046C7.63622 58.7853 7.25165 59.2561 6.79806 59.7955C6.30503 60.4035 5.74297 61.0802 5.74297 62.4141C5.74297 63.7479 6.27545 64.4246 6.75862 65.0228C7.19249 65.572 7.55733 66.0428 7.55733 67.0235C7.55733 68.1808 7.57705 68.7595 7.58691 69.3381C7.59677 69.9069 7.61649 70.4855 7.61649 71.633C7.61649 72.6334 7.28123 73.1041 6.88681 73.6632C6.4628 74.2614 5.97963 74.9479 5.97963 76.2523C5.97963 77.4881 6.19656 78.1157 6.40363 78.714C6.59099 79.2632 6.77834 79.7928 6.77834 80.8618C6.77834 82.0583 6.88681 82.6664 6.99527 83.2548C7.09388 83.8236 7.19249 84.3631 7.19249 85.4713C7.19249 86.5795 6.97555 87.0405 6.74876 87.5897C6.5121 88.1683 6.236 88.8352 6.236 90.0808C6.236 91.2282 6.22614 91.8069 6.21628 92.3757C6.20642 92.9543 6.19656 93.533 6.19656 94.6903C6.19656 95.9162 6.33461 98.2013 7.26151 99.7803C7.88273 100.849 9.10545 101.379 10.2789 101.889C10.7522 102.095 11.2058 102.291 11.5903 102.517C12.7144 103.164 14.2428 103.909 16.1361 103.909C17.3391 103.909 17.9505 103.801 18.5421 103.703C19.114 103.605 19.6662 103.507 20.7805 103.507C21.8947 103.507 22.437 103.615 23.009 103.733C23.6006 103.85 24.2218 103.978 25.4347 103.978C26.5687 103.978 27.1209 104.037 27.7026 104.105C28.2844 104.174 28.8958 104.233 30.079 104.233C31.2623 104.233 31.8145 104.243 32.3864 104.262C32.9682 104.272 33.55 104.292 34.7234 104.292C35.8968 104.292 36.4786 104.272 37.0604 104.252C37.6323 104.233 38.2141 104.213 39.3579 104.213C40.5018 104.213 41.0539 104.252 41.6357 104.302C42.2175 104.351 42.819 104.39 43.9924 104.39C45.294 104.39 45.9646 103.978 46.566 103.615C47.1281 103.282 47.6113 102.987 48.6269 102.987L48.6762 102.958Z"/>
</mask>
<path d="M44.0023 109.951C42.8782 109.951 42.3358 109.872 41.7541 109.794C41.1723 109.715 40.5609 109.627 39.3678 109.627C38.2535 109.627 37.7112 109.529 37.1393 109.431C36.5476 109.323 35.9363 109.215 34.7333 109.215C33.5303 109.215 32.9879 109.235 32.3963 109.244C31.8244 109.264 31.2426 109.274 30.0889 109.274C28.9352 109.274 28.3534 109.274 27.7717 109.274C27.1899 109.274 26.6081 109.274 25.4544 109.274C24.3007 109.274 23.6696 109.323 23.0878 109.372C22.5061 109.421 21.9539 109.47 20.81 109.47C19.7944 109.47 19.3112 109.156 18.759 108.803C18.1575 108.421 17.4771 107.979 16.1755 107.979C15.4163 107.979 14.6767 108.215 13.9569 108.44C13.3061 108.646 12.6947 108.842 12.1425 108.842C11.9355 108.842 11.758 108.813 11.5903 108.764C10.7916 108.509 10.1507 107.832 9.48016 107.116C9.04629 106.655 8.5927 106.175 8.07994 105.802C7.20235 105.165 6.63043 104.321 6.01907 103.429C5.812 103.125 5.60492 102.821 5.37813 102.507C5.00342 101.987 4.52025 101.555 4.0568 101.134C3.36656 100.516 2.71575 99.9274 2.45938 99.133C2.01565 97.7796 2.01565 96.2889 2.01565 94.7099C2.01565 93.5134 1.9269 92.9053 1.83815 92.3169C1.74941 91.7382 1.67052 91.1988 1.67052 90.0808C1.67052 89.051 1.9269 88.5606 2.23258 88.0016C2.54812 87.4132 2.9031 86.7365 2.9031 85.4615C2.9031 84.3042 2.9031 83.7256 2.88338 83.1469C2.88338 82.5683 2.86366 81.9995 2.86366 80.8422C2.86366 79.6849 2.81436 79.067 2.76506 78.4884C2.71575 77.9098 2.66645 77.3507 2.66645 76.2229C2.66645 74.9185 2.19314 74.232 1.76913 73.6337C1.38457 73.0845 1.0493 72.604 1.0493 71.6036C1.0493 70.4757 1.10847 69.9265 1.16763 69.3479C1.22679 68.7693 1.28596 68.171 1.28596 66.9941C1.28596 65.9153 1.45359 65.3955 1.63108 64.8365C1.82829 64.2284 2.02551 63.6106 2.02551 62.3748C2.02551 61.1391 1.72969 60.4526 1.47331 59.8641C1.22679 59.3149 1 58.8049 1 57.7555C1 56.7748 1.38457 56.304 1.83815 55.7548C2.33119 55.1468 2.89324 54.47 2.89324 53.1362C2.89324 51.8024 2.36077 51.1355 1.8776 50.5275C1.44373 49.9782 1.07889 49.5075 1.07889 48.5267C1.07889 47.3695 1.05916 46.7908 1.0493 46.2024C1.03944 45.6336 1.01972 45.0549 1.01972 43.9075C1.01972 42.9071 1.35498 42.4363 1.74941 41.8871C2.17342 41.2889 2.65659 40.6122 2.65659 39.298C2.65659 38.0622 2.43965 37.4346 2.23258 36.8363C2.04523 36.2871 1.85788 35.7575 1.85788 34.6885C1.85788 33.492 1.74941 32.8839 1.64094 32.2955C1.54234 31.7266 1.44373 31.1872 1.44373 30.079C1.44373 28.9708 1.66066 28.5098 1.88746 27.9606C2.12411 27.382 2.40021 26.715 2.40021 25.4695C2.40021 24.322 2.41007 23.7434 2.41993 23.1746C2.42979 22.5959 2.43965 22.0173 2.43965 20.86C2.43965 19.7027 2.50868 19.1928 2.58756 18.6141C2.66645 18.0355 2.74533 17.4274 2.74533 16.2407C2.74533 15.5542 2.59742 14.8775 2.44952 14.2302C2.2523 13.3377 2.06495 12.4943 2.30161 11.7685C2.77492 10.317 3.69196 8.96362 4.52025 7.83577C4.68788 7.60039 4.85551 7.36501 5.02314 7.12964C5.75283 6.09986 6.50224 5.03085 7.45872 4.34433C8.35604 3.69704 9.54918 3.34397 10.7029 3.00071C11.048 2.90264 11.3931 2.79476 11.7284 2.68688C13.0892 2.24554 14.5683 2.24554 16.1361 2.24554C17.3095 2.24554 17.8913 2.25535 18.4731 2.27496C19.0548 2.28477 19.6366 2.30439 20.81 2.30439C21.9835 2.30439 22.5652 2.28477 23.147 2.26516C23.7189 2.24554 24.3007 2.22593 25.4544 2.22593C26.6081 2.22593 27.1504 2.26516 27.7421 2.31419C28.3239 2.36323 28.9254 2.40246 30.0988 2.40246C31.4004 2.40246 32.0808 1.99055 32.6724 1.62767C33.2345 1.29422 33.7176 1 34.7333 1C35.7489 1 36.2617 1.24519 36.8336 1.5296C37.4252 1.82382 38.0958 2.15728 39.3776 2.15728C40.4524 2.15728 40.9849 2.33381 41.5371 2.52996C42.1485 2.73591 42.7796 2.95168 44.022 2.95168C45.3631 2.95168 46.0533 2.37304 46.6548 1.87286C47.207 1.41191 47.6803 1.01961 48.6565 1.01961C49.6327 1.01961 50.1356 1.36287 50.6878 1.76498C51.2893 2.19651 51.9795 2.69668 53.3009 2.69668C54.6222 2.69668 55.2237 2.42208 55.8055 2.1867C56.3577 1.96113 56.8704 1.74536 57.9354 1.74536C59.0003 1.74536 59.5229 1.94151 60.0751 2.15728C60.6865 2.39265 61.3176 2.62803 62.5699 2.62803C63.8222 2.62803 64.3645 2.54957 64.9562 2.47111C65.5379 2.39265 66.0803 2.324 67.2142 2.324C68.3482 2.324 68.93 2.35342 69.5118 2.38285C70.0936 2.41227 70.6852 2.44169 71.8586 2.44169C73.1602 2.44169 73.8406 2.01997 74.4421 1.6571C75.0042 1.31384 75.4873 1.01961 76.503 1.01961C77.5186 1.01961 78.0905 1.22557 78.6427 1.45114C79.2245 1.68652 79.895 1.95132 81.1473 1.95132C82.1926 1.95132 82.6856 2.17689 83.2575 2.44169C83.8492 2.7163 84.5197 3.03014 85.7818 3.03014C86.9454 3.03014 87.5272 3.03014 88.1089 3.03014C88.6907 3.03014 89.2626 3.03014 90.4262 3.03014C91.5898 3.03014 92.1814 3.01052 92.7632 3.00071C93.3351 2.9811 93.9169 2.97129 95.0706 2.97129C96.6483 2.97129 97.8907 3.05956 99.2515 3.50089L99.8924 3.70685C101.135 4.09914 102.22 4.4326 103.215 5.15835C104.083 5.78602 104.645 6.62946 105.247 7.51213C105.464 7.82596 105.681 8.14961 105.907 8.47325C106.716 9.58149 107.229 10.6211 107.751 12.2001C107.899 12.661 108.087 13.1024 108.274 13.5339C108.659 14.446 109.023 15.2992 109.023 16.2898C109.023 17.3882 108.895 17.9276 108.767 18.4866C108.629 19.0849 108.481 19.6929 108.481 20.9091C108.481 22.1252 108.56 22.694 108.629 23.2825C108.698 23.8611 108.767 24.4103 108.767 25.5284C108.767 26.7347 108.915 27.3525 109.053 27.9508C109.181 28.5196 109.309 29.0492 109.309 30.1476C109.309 31.2461 109.142 31.7561 108.974 32.3151C108.787 32.9133 108.59 33.541 108.59 34.7669C108.59 35.9046 108.55 36.4538 108.501 37.0325C108.461 37.6111 108.412 38.2093 108.412 39.3764C108.412 40.6318 108.698 41.2987 108.954 41.8773C109.191 42.4265 109.418 42.9365 109.418 43.9859C109.418 45.1334 109.418 45.712 109.408 46.2907C109.408 46.8693 109.398 47.4479 109.398 48.6052C109.398 49.8213 109.566 50.4392 109.733 51.0374C109.891 51.5965 110.029 52.1261 110.029 53.2147C110.029 54.3622 110.009 54.931 109.99 55.5096C109.97 56.0883 109.95 56.6669 109.95 57.834C109.95 59.0011 109.98 59.5797 110 60.1583C110.029 60.7272 110.049 61.3058 110.049 62.4435C110.049 63.5811 110.009 64.1304 109.96 64.7188C109.921 65.2974 109.871 65.8859 109.871 67.0628C109.871 68.2397 109.802 68.73 109.723 69.3087C109.645 69.8873 109.566 70.4954 109.566 71.6821C109.566 72.7315 109.339 73.2513 109.102 73.7907C108.846 74.3791 108.56 75.0362 108.56 76.2915C108.56 77.4782 108.639 78.0863 108.728 78.6649C108.806 79.2436 108.885 79.783 108.885 80.901C108.885 82.0191 108.806 82.5683 108.728 83.1371C108.649 83.7256 108.56 84.3238 108.56 85.5105C108.56 86.6972 108.659 87.3053 108.747 87.8937C108.836 88.4626 108.925 89.0118 108.925 90.12C108.925 91.3557 109.142 91.9834 109.359 92.5915C109.556 93.1407 109.733 93.6703 109.733 94.7393C109.733 95.6024 109.29 96.3968 108.826 97.2402C108.53 97.7796 108.215 98.3386 108.027 98.9173C107.899 99.3096 107.791 99.692 107.682 100.075C107.387 101.134 107.11 102.124 106.489 102.978C105.898 103.782 105.069 104.311 104.192 104.861C103.807 105.106 103.413 105.351 103.038 105.626C101.904 106.44 100.78 106.999 99.2515 107.499C98.6303 107.705 98.0485 108.058 97.4864 108.401C96.6779 108.891 95.9087 109.362 95.0804 109.362C93.9465 109.362 93.3943 109.294 92.8125 109.235C92.2307 109.166 91.6193 109.097 90.4361 109.097C89.3613 109.097 88.8386 108.911 88.2766 108.715C87.6652 108.499 87.0341 108.274 85.7818 108.274C84.5295 108.274 83.9478 108.411 83.3561 108.538C82.7842 108.656 82.2517 108.774 81.1375 108.774C80.0232 108.774 79.5302 108.597 78.9681 108.421C78.3568 108.225 77.7355 108.019 76.4931 108.019C75.2507 108.019 74.7182 108.058 74.1364 108.097C73.5448 108.136 72.9926 108.175 71.8487 108.175C70.7049 108.175 70.1626 108.117 69.5808 108.058C68.999 107.999 68.3975 107.93 67.2044 107.93C66.0112 107.93 65.3999 108.009 64.8181 108.097C64.2363 108.175 63.694 108.254 62.5699 108.254C61.3373 108.254 60.7161 108.43 60.1146 108.607C59.5525 108.764 59.02 108.921 57.9255 108.921H53.291C52.2063 108.921 51.6837 108.754 51.1217 108.578C50.5202 108.381 49.8891 108.185 48.6565 108.185C47.3253 108.185 46.6351 108.734 46.0237 109.225C45.4715 109.666 44.9982 110.049 44.0121 110.049L44.0023 109.951ZM48.6762 102.958C49.7215 102.958 50.2145 103.203 50.7765 103.488C51.3682 103.782 52.0387 104.115 53.3206 104.115C54.3954 104.115 54.918 104.292 55.4801 104.488C56.0914 104.694 56.7127 104.91 57.9551 104.91C59.2961 104.91 59.9864 104.331 60.5879 103.831C61.1401 103.37 61.6134 102.978 62.5896 102.978C63.5658 102.978 64.0687 103.321 64.6209 103.723C65.2224 104.154 65.9126 104.655 67.234 104.655C68.5553 104.655 69.1568 104.38 69.7386 104.145C70.2908 103.919 70.8035 103.703 71.8685 103.703C72.9334 103.703 73.456 103.899 74.0082 104.115C74.6196 104.351 75.2507 104.586 76.503 104.586C77.7553 104.586 78.2976 104.507 78.8892 104.429C79.471 104.351 80.0134 104.282 81.1473 104.282C82.2813 104.282 82.8729 104.311 83.4449 104.341C84.0266 104.37 84.6183 104.4 85.7917 104.4C87.0933 104.4 87.7737 103.978 88.3653 103.615C88.9274 103.272 89.4106 102.978 90.4262 102.978C91.4419 102.978 92.0138 103.183 92.566 103.409C93.1477 103.644 93.8183 103.909 95.0706 103.909C95.5242 103.909 95.9975 103.948 96.4905 103.997C97.0131 104.037 97.5456 104.086 98.0682 104.086C98.9951 104.086 99.6854 103.939 100.247 103.615C101.638 102.811 103.186 101.261 104.014 99.8392C104.803 98.4857 105.336 96.4164 105.336 94.7001C105.336 93.9841 105.355 93.484 105.365 93.0622C105.395 92.1305 105.414 91.5617 105.207 89.914C105.05 88.6685 105.128 88.1781 105.227 87.5505C105.306 87.0503 105.395 86.4716 105.395 85.4517C105.395 84.1963 105.109 83.5294 104.852 82.9508C104.616 82.4016 104.389 81.8916 104.389 80.8324C104.389 79.6849 104.389 79.1063 104.399 78.5276C104.399 77.949 104.409 77.3704 104.409 76.2131C104.409 74.997 104.241 74.3791 104.073 73.7808C103.916 73.2218 103.778 72.6922 103.778 71.6036C103.778 70.4561 103.797 69.8873 103.817 69.3087C103.837 68.73 103.856 68.1514 103.856 66.9843C103.856 65.8172 103.827 65.2386 103.807 64.6501C103.778 64.0813 103.758 63.5125 103.758 62.365C103.758 61.2175 103.797 60.6781 103.847 60.0897C103.886 59.5111 103.935 58.9128 103.935 57.7457C103.935 56.5786 104.004 56.0785 104.083 55.4998C104.162 54.9212 104.241 54.3131 104.241 53.1264C104.241 52.077 104.468 51.5572 104.704 51.0178C104.961 50.4294 105.247 49.7723 105.247 48.5169C105.247 47.3302 105.168 46.7222 105.079 46.1435C105 45.5649 104.921 45.0255 104.921 43.9075C104.921 42.7894 105 42.25 105.079 41.6714C105.158 41.0927 105.247 40.4847 105.247 39.298C105.247 38.1113 105.148 37.5032 105.059 36.9148C104.971 36.3459 104.882 35.7967 104.882 34.6787C104.882 33.4429 104.665 32.8153 104.448 32.2072C104.251 31.658 104.073 31.1284 104.073 30.0594C104.073 28.9904 104.3 28.5196 104.557 27.9508C104.823 27.3623 105.119 26.7052 105.119 25.4401C105.119 24.1749 104.99 23.6257 104.862 23.0275C104.744 22.4586 104.626 21.929 104.626 20.8208C104.626 19.7126 104.754 19.1928 104.892 18.6337C105.04 18.0355 105.188 17.4274 105.188 16.2113C105.188 14.5146 104.675 12.5237 103.866 11.1507C103.255 10.0915 102.052 9.60111 100.898 9.12054C100.405 8.91459 99.9319 8.71844 99.5374 8.49287C98.3049 7.78673 96.8455 7.02175 95.0508 7.02175C93.976 7.02175 93.4534 6.83541 92.8914 6.63927C92.28 6.4235 91.6489 6.19793 90.3966 6.19793C89.1443 6.19793 88.5625 6.33524 87.9709 6.46273C87.399 6.58042 86.8665 6.69811 85.7523 6.69811C84.638 6.69811 84.145 6.52158 83.5829 6.34504C82.9716 6.14889 82.3503 5.94294 81.1079 5.94294C79.9345 5.94294 79.333 5.98217 78.7512 6.0214C78.1596 6.06063 77.6074 6.09986 76.4635 6.09986C75.3197 6.09986 74.7774 6.04101 74.1956 5.98217C73.6138 5.92332 73.0123 5.85467 71.8192 5.85467C70.626 5.85467 70.0147 5.93313 69.4329 6.0214C68.8511 6.09986 68.3088 6.17832 67.1748 6.17832C65.9422 6.17832 65.321 6.35485 64.7195 6.53138C64.1574 6.6883 63.625 6.84522 62.5304 6.84522H57.8861C56.8014 6.84522 56.2788 6.67849 55.7167 6.50196C55.1152 6.30581 54.4841 6.10966 53.2516 6.10966C51.9204 6.10966 51.2301 6.65888 50.6188 7.14925C50.0666 7.59058 49.5933 7.97307 48.6072 7.97307C47.4831 7.97307 46.9309 7.89461 46.359 7.81616C45.7673 7.7377 45.1658 7.64943 43.9727 7.64943C42.8584 7.64943 42.3161 7.55136 41.7442 7.45328C41.1526 7.3454 40.5412 7.23752 39.3382 7.23752C38.1352 7.23752 37.5929 7.25713 37.0012 7.26694C36.4293 7.27675 35.8475 7.29636 34.6938 7.29636C33.5401 7.29636 32.9584 7.29636 32.3766 7.29636C31.7948 7.29636 31.213 7.29636 30.0495 7.29636C28.8859 7.29636 28.2647 7.3454 27.6829 7.39444C27.1011 7.44347 26.5391 7.49251 25.4051 7.49251C24.3895 7.49251 23.9161 7.17867 23.3541 6.82561C22.7526 6.43331 22.0722 6.00178 20.7706 6.00178C19.469 6.00178 18.7787 6.44312 18.1772 6.83541C17.625 7.19829 17.1419 7.51213 16.1262 7.51213C15.6628 7.51213 15.1697 7.46309 14.6866 7.41405C14.1935 7.36501 13.6709 7.30617 13.1779 7.30617C12.3595 7.30617 11.7284 7.45328 11.1959 7.75731C9.77598 8.57133 8.0405 9.69918 7.20235 11.1311C6.58113 12.1903 6.69945 13.5535 6.80792 14.8677C6.84736 15.3483 6.88681 15.819 6.88681 16.2603C6.88681 17.3882 6.82764 17.9374 6.75862 18.516C6.68959 19.0947 6.63043 19.7027 6.63043 20.8796C6.63043 22.0565 6.71917 22.6744 6.80792 23.2628C6.89667 23.8415 6.97555 24.3809 6.97555 25.4989C6.97555 26.5287 6.71917 27.0191 6.4135 27.5781C6.09795 28.1665 5.74297 28.8433 5.74297 30.1182C5.74297 31.2755 5.74297 31.8541 5.76269 32.4328C5.76269 33.0114 5.78241 33.5802 5.78241 34.7277C5.78241 35.8752 5.83172 36.5029 5.88102 37.0815C5.93032 37.6601 5.97963 38.2192 5.97963 39.347C5.97963 40.6514 6.45294 41.3379 6.86708 41.9362C7.25165 42.4854 7.58691 42.9659 7.58691 43.9663C7.58691 45.0942 7.52775 45.6434 7.46858 46.222C7.40942 46.8006 7.35026 47.3989 7.35026 48.5758C7.35026 49.6546 7.18263 50.1744 7.00513 50.7334C6.80792 51.3415 6.61071 51.9593 6.61071 53.1951C6.61071 54.4308 6.90653 55.1173 7.1629 55.696C7.40942 56.2452 7.63622 56.7552 7.63622 57.8046C7.63622 58.7853 7.25165 59.2561 6.79806 59.7955C6.30503 60.4035 5.74297 61.0802 5.74297 62.4141C5.74297 63.7479 6.27545 64.4246 6.75862 65.0228C7.19249 65.572 7.55733 66.0428 7.55733 67.0235C7.55733 68.1808 7.57705 68.7595 7.58691 69.3381C7.59677 69.9069 7.61649 70.4855 7.61649 71.633C7.61649 72.6334 7.28123 73.1041 6.88681 73.6632C6.4628 74.2614 5.97963 74.9479 5.97963 76.2523C5.97963 77.4881 6.19656 78.1157 6.40363 78.714C6.59099 79.2632 6.77834 79.7928 6.77834 80.8618C6.77834 82.0583 6.88681 82.6664 6.99527 83.2548C7.09388 83.8236 7.19249 84.3631 7.19249 85.4713C7.19249 86.5795 6.97555 87.0405 6.74876 87.5897C6.5121 88.1683 6.236 88.8352 6.236 90.0808C6.236 91.2282 6.22614 91.8069 6.21628 92.3757C6.20642 92.9543 6.19656 93.533 6.19656 94.6903C6.19656 95.9162 6.33461 98.2013 7.26151 99.7803C7.88273 100.849 9.10545 101.379 10.2789 101.889C10.7522 102.095 11.2058 102.291 11.5903 102.517C12.7144 103.164 14.2428 103.909 16.1361 103.909C17.3391 103.909 17.9505 103.801 18.5421 103.703C19.114 103.605 19.6662 103.507 20.7805 103.507C21.8947 103.507 22.437 103.615 23.009 103.733C23.6006 103.85 24.2218 103.978 25.4347 103.978C26.5687 103.978 27.1209 104.037 27.7026 104.105C28.2844 104.174 28.8958 104.233 30.079 104.233C31.2623 104.233 31.8145 104.243 32.3864 104.262C32.9682 104.272 33.55 104.292 34.7234 104.292C35.8968 104.292 36.4786 104.272 37.0604 104.252C37.6323 104.233 38.2141 104.213 39.3579 104.213C40.5018 104.213 41.0539 104.252 41.6357 104.302C42.2175 104.351 42.819 104.39 43.9924 104.39C45.294 104.39 45.9646 103.978 46.566 103.615C47.1281 103.282 47.6113 102.987 48.6269 102.987L48.6762 102.958Z" fill="white"/>
<path d="M44.0023 109.951C42.8782 109.951 42.3358 109.872 41.7541 109.794C41.1723 109.715 40.5609 109.627 39.3678 109.627C38.2535 109.627 37.7112 109.529 37.1393 109.431C36.5476 109.323 35.9363 109.215 34.7333 109.215C33.5303 109.215 32.9879 109.235 32.3963 109.244C31.8244 109.264 31.2426 109.274 30.0889 109.274C28.9352 109.274 28.3534 109.274 27.7717 109.274C27.1899 109.274 26.6081 109.274 25.4544 109.274C24.3007 109.274 23.6696 109.323 23.0878 109.372C22.5061 109.421 21.9539 109.47 20.81 109.47C19.7944 109.47 19.3112 109.156 18.759 108.803C18.1575 108.421 17.4771 107.979 16.1755 107.979C15.4163 107.979 14.6767 108.215 13.9569 108.44C13.3061 108.646 12.6947 108.842 12.1425 108.842C11.9355 108.842 11.758 108.813 11.5903 108.764C10.7916 108.509 10.1507 107.832 9.48016 107.116C9.04629 106.655 8.5927 106.175 8.07994 105.802C7.20235 105.165 6.63043 104.321 6.01907 103.429C5.812 103.125 5.60492 102.821 5.37813 102.507C5.00342 101.987 4.52025 101.555 4.0568 101.134C3.36656 100.516 2.71575 99.9274 2.45938 99.133C2.01565 97.7796 2.01565 96.2889 2.01565 94.7099C2.01565 93.5134 1.9269 92.9053 1.83815 92.3169C1.74941 91.7382 1.67052 91.1988 1.67052 90.0808C1.67052 89.051 1.9269 88.5606 2.23258 88.0016C2.54812 87.4132 2.9031 86.7365 2.9031 85.4615C2.9031 84.3042 2.9031 83.7256 2.88338 83.1469C2.88338 82.5683 2.86366 81.9995 2.86366 80.8422C2.86366 79.6849 2.81436 79.067 2.76506 78.4884C2.71575 77.9098 2.66645 77.3507 2.66645 76.2229C2.66645 74.9185 2.19314 74.232 1.76913 73.6337C1.38457 73.0845 1.0493 72.604 1.0493 71.6036C1.0493 70.4757 1.10847 69.9265 1.16763 69.3479C1.22679 68.7693 1.28596 68.171 1.28596 66.9941C1.28596 65.9153 1.45359 65.3955 1.63108 64.8365C1.82829 64.2284 2.02551 63.6106 2.02551 62.3748C2.02551 61.1391 1.72969 60.4526 1.47331 59.8641C1.22679 59.3149 1 58.8049 1 57.7555C1 56.7748 1.38457 56.304 1.83815 55.7548C2.33119 55.1468 2.89324 54.47 2.89324 53.1362C2.89324 51.8024 2.36077 51.1355 1.8776 50.5275C1.44373 49.9782 1.07889 49.5075 1.07889 48.5267C1.07889 47.3695 1.05916 46.7908 1.0493 46.2024C1.03944 45.6336 1.01972 45.0549 1.01972 43.9075C1.01972 42.9071 1.35498 42.4363 1.74941 41.8871C2.17342 41.2889 2.65659 40.6122 2.65659 39.298C2.65659 38.0622 2.43965 37.4346 2.23258 36.8363C2.04523 36.2871 1.85788 35.7575 1.85788 34.6885C1.85788 33.492 1.74941 32.8839 1.64094 32.2955C1.54234 31.7266 1.44373 31.1872 1.44373 30.079C1.44373 28.9708 1.66066 28.5098 1.88746 27.9606C2.12411 27.382 2.40021 26.715 2.40021 25.4695C2.40021 24.322 2.41007 23.7434 2.41993 23.1746C2.42979 22.5959 2.43965 22.0173 2.43965 20.86C2.43965 19.7027 2.50868 19.1928 2.58756 18.6141C2.66645 18.0355 2.74533 17.4274 2.74533 16.2407C2.74533 15.5542 2.59742 14.8775 2.44952 14.2302C2.2523 13.3377 2.06495 12.4943 2.30161 11.7685C2.77492 10.317 3.69196 8.96362 4.52025 7.83577C4.68788 7.60039 4.85551 7.36501 5.02314 7.12964C5.75283 6.09986 6.50224 5.03085 7.45872 4.34433C8.35604 3.69704 9.54918 3.34397 10.7029 3.00071C11.048 2.90264 11.3931 2.79476 11.7284 2.68688C13.0892 2.24554 14.5683 2.24554 16.1361 2.24554C17.3095 2.24554 17.8913 2.25535 18.4731 2.27496C19.0548 2.28477 19.6366 2.30439 20.81 2.30439C21.9835 2.30439 22.5652 2.28477 23.147 2.26516C23.7189 2.24554 24.3007 2.22593 25.4544 2.22593C26.6081 2.22593 27.1504 2.26516 27.7421 2.31419C28.3239 2.36323 28.9254 2.40246 30.0988 2.40246C31.4004 2.40246 32.0808 1.99055 32.6724 1.62767C33.2345 1.29422 33.7176 1 34.7333 1C35.7489 1 36.2617 1.24519 36.8336 1.5296C37.4252 1.82382 38.0958 2.15728 39.3776 2.15728C40.4524 2.15728 40.9849 2.33381 41.5371 2.52996C42.1485 2.73591 42.7796 2.95168 44.022 2.95168C45.3631 2.95168 46.0533 2.37304 46.6548 1.87286C47.207 1.41191 47.6803 1.01961 48.6565 1.01961C49.6327 1.01961 50.1356 1.36287 50.6878 1.76498C51.2893 2.19651 51.9795 2.69668 53.3009 2.69668C54.6222 2.69668 55.2237 2.42208 55.8055 2.1867C56.3577 1.96113 56.8704 1.74536 57.9354 1.74536C59.0003 1.74536 59.5229 1.94151 60.0751 2.15728C60.6865 2.39265 61.3176 2.62803 62.5699 2.62803C63.8222 2.62803 64.3645 2.54957 64.9562 2.47111C65.5379 2.39265 66.0803 2.324 67.2142 2.324C68.3482 2.324 68.93 2.35342 69.5118 2.38285C70.0936 2.41227 70.6852 2.44169 71.8586 2.44169C73.1602 2.44169 73.8406 2.01997 74.4421 1.6571C75.0042 1.31384 75.4873 1.01961 76.503 1.01961C77.5186 1.01961 78.0905 1.22557 78.6427 1.45114C79.2245 1.68652 79.895 1.95132 81.1473 1.95132C82.1926 1.95132 82.6856 2.17689 83.2575 2.44169C83.8492 2.7163 84.5197 3.03014 85.7818 3.03014C86.9454 3.03014 87.5272 3.03014 88.1089 3.03014C88.6907 3.03014 89.2626 3.03014 90.4262 3.03014C91.5898 3.03014 92.1814 3.01052 92.7632 3.00071C93.3351 2.9811 93.9169 2.97129 95.0706 2.97129C96.6483 2.97129 97.8907 3.05956 99.2515 3.50089L99.8924 3.70685C101.135 4.09914 102.22 4.4326 103.215 5.15835C104.083 5.78602 104.645 6.62946 105.247 7.51213C105.464 7.82596 105.681 8.14961 105.907 8.47325C106.716 9.58149 107.229 10.6211 107.751 12.2001C107.899 12.661 108.087 13.1024 108.274 13.5339C108.659 14.446 109.023 15.2992 109.023 16.2898C109.023 17.3882 108.895 17.9276 108.767 18.4866C108.629 19.0849 108.481 19.6929 108.481 20.9091C108.481 22.1252 108.56 22.694 108.629 23.2825C108.698 23.8611 108.767 24.4103 108.767 25.5284C108.767 26.7347 108.915 27.3525 109.053 27.9508C109.181 28.5196 109.309 29.0492 109.309 30.1476C109.309 31.2461 109.142 31.7561 108.974 32.3151C108.787 32.9133 108.59 33.541 108.59 34.7669C108.59 35.9046 108.55 36.4538 108.501 37.0325C108.461 37.6111 108.412 38.2093 108.412 39.3764C108.412 40.6318 108.698 41.2987 108.954 41.8773C109.191 42.4265 109.418 42.9365 109.418 43.9859C109.418 45.1334 109.418 45.712 109.408 46.2907C109.408 46.8693 109.398 47.4479 109.398 48.6052C109.398 49.8213 109.566 50.4392 109.733 51.0374C109.891 51.5965 110.029 52.1261 110.029 53.2147C110.029 54.3622 110.009 54.931 109.99 55.5096C109.97 56.0883 109.95 56.6669 109.95 57.834C109.95 59.0011 109.98 59.5797 110 60.1583C110.029 60.7272 110.049 61.3058 110.049 62.4435C110.049 63.5811 110.009 64.1304 109.96 64.7188C109.921 65.2974 109.871 65.8859 109.871 67.0628C109.871 68.2397 109.802 68.73 109.723 69.3087C109.645 69.8873 109.566 70.4954 109.566 71.6821C109.566 72.7315 109.339 73.2513 109.102 73.7907C108.846 74.3791 108.56 75.0362 108.56 76.2915C108.56 77.4782 108.639 78.0863 108.728 78.6649C108.806 79.2436 108.885 79.783 108.885 80.901C108.885 82.0191 108.806 82.5683 108.728 83.1371C108.649 83.7256 108.56 84.3238 108.56 85.5105C108.56 86.6972 108.659 87.3053 108.747 87.8937C108.836 88.4626 108.925 89.0118 108.925 90.12C108.925 91.3557 109.142 91.9834 109.359 92.5915C109.556 93.1407 109.733 93.6703 109.733 94.7393C109.733 95.6024 109.29 96.3968 108.826 97.2402C108.53 97.7796 108.215 98.3386 108.027 98.9173C107.899 99.3096 107.791 99.692 107.682 100.075C107.387 101.134 107.11 102.124 106.489 102.978C105.898 103.782 105.069 104.311 104.192 104.861C103.807 105.106 103.413 105.351 103.038 105.626C101.904 106.44 100.78 106.999 99.2515 107.499C98.6303 107.705 98.0485 108.058 97.4864 108.401C96.6779 108.891 95.9087 109.362 95.0804 109.362C93.9465 109.362 93.3943 109.294 92.8125 109.235C92.2307 109.166 91.6193 109.097 90.4361 109.097C89.3613 109.097 88.8386 108.911 88.2766 108.715C87.6652 108.499 87.0341 108.274 85.7818 108.274C84.5295 108.274 83.9478 108.411 83.3561 108.538C82.7842 108.656 82.2517 108.774 81.1375 108.774C80.0232 108.774 79.5302 108.597 78.9681 108.421C78.3568 108.225 77.7355 108.019 76.4931 108.019C75.2507 108.019 74.7182 108.058 74.1364 108.097C73.5448 108.136 72.9926 108.175 71.8487 108.175C70.7049 108.175 70.1626 108.117 69.5808 108.058C68.999 107.999 68.3975 107.93 67.2044 107.93C66.0112 107.93 65.3999 108.009 64.8181 108.097C64.2363 108.175 63.694 108.254 62.5699 108.254C61.3373 108.254 60.7161 108.43 60.1146 108.607C59.5525 108.764 59.02 108.921 57.9255 108.921H53.291C52.2063 108.921 51.6837 108.754 51.1217 108.578C50.5202 108.381 49.8891 108.185 48.6565 108.185C47.3253 108.185 46.6351 108.734 46.0237 109.225C45.4715 109.666 44.9982 110.049 44.0121 110.049L44.0023 109.951ZM48.6762 102.958C49.7215 102.958 50.2145 103.203 50.7765 103.488C51.3682 103.782 52.0387 104.115 53.3206 104.115C54.3954 104.115 54.918 104.292 55.4801 104.488C56.0914 104.694 56.7127 104.91 57.9551 104.91C59.2961 104.91 59.9864 104.331 60.5879 103.831C61.1401 103.37 61.6134 102.978 62.5896 102.978C63.5658 102.978 64.0687 103.321 64.6209 103.723C65.2224 104.154 65.9126 104.655 67.234 104.655C68.5553 104.655 69.1568 104.38 69.7386 104.145C70.2908 103.919 70.8035 103.703 71.8685 103.703C72.9334 103.703 73.456 103.899 74.0082 104.115C74.6196 104.351 75.2507 104.586 76.503 104.586C77.7553 104.586 78.2976 104.507 78.8892 104.429C79.471 104.351 80.0134 104.282 81.1473 104.282C82.2813 104.282 82.8729 104.311 83.4449 104.341C84.0266 104.37 84.6183 104.4 85.7917 104.4C87.0933 104.4 87.7737 103.978 88.3653 103.615C88.9274 103.272 89.4106 102.978 90.4262 102.978C91.4419 102.978 92.0138 103.183 92.566 103.409C93.1477 103.644 93.8183 103.909 95.0706 103.909C95.5242 103.909 95.9975 103.948 96.4905 103.997C97.0131 104.037 97.5456 104.086 98.0682 104.086C98.9951 104.086 99.6854 103.939 100.247 103.615C101.638 102.811 103.186 101.261 104.014 99.8392C104.803 98.4857 105.336 96.4164 105.336 94.7001C105.336 93.9841 105.355 93.484 105.365 93.0622C105.395 92.1305 105.414 91.5617 105.207 89.914C105.05 88.6685 105.128 88.1781 105.227 87.5505C105.306 87.0503 105.395 86.4716 105.395 85.4517C105.395 84.1963 105.109 83.5294 104.852 82.9508C104.616 82.4016 104.389 81.8916 104.389 80.8324C104.389 79.6849 104.389 79.1063 104.399 78.5276C104.399 77.949 104.409 77.3704 104.409 76.2131C104.409 74.997 104.241 74.3791 104.073 73.7808C103.916 73.2218 103.778 72.6922 103.778 71.6036C103.778 70.4561 103.797 69.8873 103.817 69.3087C103.837 68.73 103.856 68.1514 103.856 66.9843C103.856 65.8172 103.827 65.2386 103.807 64.6501C103.778 64.0813 103.758 63.5125 103.758 62.365C103.758 61.2175 103.797 60.6781 103.847 60.0897C103.886 59.5111 103.935 58.9128 103.935 57.7457C103.935 56.5786 104.004 56.0785 104.083 55.4998C104.162 54.9212 104.241 54.3131 104.241 53.1264C104.241 52.077 104.468 51.5572 104.704 51.0178C104.961 50.4294 105.247 49.7723 105.247 48.5169C105.247 47.3302 105.168 46.7222 105.079 46.1435C105 45.5649 104.921 45.0255 104.921 43.9075C104.921 42.7894 105 42.25 105.079 41.6714C105.158 41.0927 105.247 40.4847 105.247 39.298C105.247 38.1113 105.148 37.5032 105.059 36.9148C104.971 36.3459 104.882 35.7967 104.882 34.6787C104.882 33.4429 104.665 32.8153 104.448 32.2072C104.251 31.658 104.073 31.1284 104.073 30.0594C104.073 28.9904 104.3 28.5196 104.557 27.9508C104.823 27.3623 105.119 26.7052 105.119 25.4401C105.119 24.1749 104.99 23.6257 104.862 23.0275C104.744 22.4586 104.626 21.929 104.626 20.8208C104.626 19.7126 104.754 19.1928 104.892 18.6337C105.04 18.0355 105.188 17.4274 105.188 16.2113C105.188 14.5146 104.675 12.5237 103.866 11.1507C103.255 10.0915 102.052 9.60111 100.898 9.12054C100.405 8.91459 99.9319 8.71844 99.5374 8.49287C98.3049 7.78673 96.8455 7.02175 95.0508 7.02175C93.976 7.02175 93.4534 6.83541 92.8914 6.63927C92.28 6.4235 91.6489 6.19793 90.3966 6.19793C89.1443 6.19793 88.5625 6.33524 87.9709 6.46273C87.399 6.58042 86.8665 6.69811 85.7523 6.69811C84.638 6.69811 84.145 6.52158 83.5829 6.34504C82.9716 6.14889 82.3503 5.94294 81.1079 5.94294C79.9345 5.94294 79.333 5.98217 78.7512 6.0214C78.1596 6.06063 77.6074 6.09986 76.4635 6.09986C75.3197 6.09986 74.7774 6.04101 74.1956 5.98217C73.6138 5.92332 73.0123 5.85467 71.8192 5.85467C70.626 5.85467 70.0147 5.93313 69.4329 6.0214C68.8511 6.09986 68.3088 6.17832 67.1748 6.17832C65.9422 6.17832 65.321 6.35485 64.7195 6.53138C64.1574 6.6883 63.625 6.84522 62.5304 6.84522H57.8861C56.8014 6.84522 56.2788 6.67849 55.7167 6.50196C55.1152 6.30581 54.4841 6.10966 53.2516 6.10966C51.9204 6.10966 51.2301 6.65888 50.6188 7.14925C50.0666 7.59058 49.5933 7.97307 48.6072 7.97307C47.4831 7.97307 46.9309 7.89461 46.359 7.81616C45.7673 7.7377 45.1658 7.64943 43.9727 7.64943C42.8584 7.64943 42.3161 7.55136 41.7442 7.45328C41.1526 7.3454 40.5412 7.23752 39.3382 7.23752C38.1352 7.23752 37.5929 7.25713 37.0012 7.26694C36.4293 7.27675 35.8475 7.29636 34.6938 7.29636C33.5401 7.29636 32.9584 7.29636 32.3766 7.29636C31.7948 7.29636 31.213 7.29636 30.0495 7.29636C28.8859 7.29636 28.2647 7.3454 27.6829 7.39444C27.1011 7.44347 26.5391 7.49251 25.4051 7.49251C24.3895 7.49251 23.9161 7.17867 23.3541 6.82561C22.7526 6.43331 22.0722 6.00178 20.7706 6.00178C19.469 6.00178 18.7787 6.44312 18.1772 6.83541C17.625 7.19829 17.1419 7.51213 16.1262 7.51213C15.6628 7.51213 15.1697 7.46309 14.6866 7.41405C14.1935 7.36501 13.6709 7.30617 13.1779 7.30617C12.3595 7.30617 11.7284 7.45328 11.1959 7.75731C9.77598 8.57133 8.0405 9.69918 7.20235 11.1311C6.58113 12.1903 6.69945 13.5535 6.80792 14.8677C6.84736 15.3483 6.88681 15.819 6.88681 16.2603C6.88681 17.3882 6.82764 17.9374 6.75862 18.516C6.68959 19.0947 6.63043 19.7027 6.63043 20.8796C6.63043 22.0565 6.71917 22.6744 6.80792 23.2628C6.89667 23.8415 6.97555 24.3809 6.97555 25.4989C6.97555 26.5287 6.71917 27.0191 6.4135 27.5781C6.09795 28.1665 5.74297 28.8433 5.74297 30.1182C5.74297 31.2755 5.74297 31.8541 5.76269 32.4328C5.76269 33.0114 5.78241 33.5802 5.78241 34.7277C5.78241 35.8752 5.83172 36.5029 5.88102 37.0815C5.93032 37.6601 5.97963 38.2192 5.97963 39.347C5.97963 40.6514 6.45294 41.3379 6.86708 41.9362C7.25165 42.4854 7.58691 42.9659 7.58691 43.9663C7.58691 45.0942 7.52775 45.6434 7.46858 46.222C7.40942 46.8006 7.35026 47.3989 7.35026 48.5758C7.35026 49.6546 7.18263 50.1744 7.00513 50.7334C6.80792 51.3415 6.61071 51.9593 6.61071 53.1951C6.61071 54.4308 6.90653 55.1173 7.1629 55.696C7.40942 56.2452 7.63622 56.7552 7.63622 57.8046C7.63622 58.7853 7.25165 59.2561 6.79806 59.7955C6.30503 60.4035 5.74297 61.0802 5.74297 62.4141C5.74297 63.7479 6.27545 64.4246 6.75862 65.0228C7.19249 65.572 7.55733 66.0428 7.55733 67.0235C7.55733 68.1808 7.57705 68.7595 7.58691 69.3381C7.59677 69.9069 7.61649 70.4855 7.61649 71.633C7.61649 72.6334 7.28123 73.1041 6.88681 73.6632C6.4628 74.2614 5.97963 74.9479 5.97963 76.2523C5.97963 77.4881 6.19656 78.1157 6.40363 78.714C6.59099 79.2632 6.77834 79.7928 6.77834 80.8618C6.77834 82.0583 6.88681 82.6664 6.99527 83.2548C7.09388 83.8236 7.19249 84.3631 7.19249 85.4713C7.19249 86.5795 6.97555 87.0405 6.74876 87.5897C6.5121 88.1683 6.236 88.8352 6.236 90.0808C6.236 91.2282 6.22614 91.8069 6.21628 92.3757C6.20642 92.9543 6.19656 93.533 6.19656 94.6903C6.19656 95.9162 6.33461 98.2013 7.26151 99.7803C7.88273 100.849 9.10545 101.379 10.2789 101.889C10.7522 102.095 11.2058 102.291 11.5903 102.517C12.7144 103.164 14.2428 103.909 16.1361 103.909C17.3391 103.909 17.9505 103.801 18.5421 103.703C19.114 103.605 19.6662 103.507 20.7805 103.507C21.8947 103.507 22.437 103.615 23.009 103.733C23.6006 103.85 24.2218 103.978 25.4347 103.978C26.5687 103.978 27.1209 104.037 27.7026 104.105C28.2844 104.174 28.8958 104.233 30.079 104.233C31.2623 104.233 31.8145 104.243 32.3864 104.262C32.9682 104.272 33.55 104.292 34.7234 104.292C35.8968 104.292 36.4786 104.272 37.0604 104.252C37.6323 104.233 38.2141 104.213 39.3579 104.213C40.5018 104.213 41.0539 104.252 41.6357 104.302C42.2175 104.351 42.819 104.39 43.9924 104.39C45.294 104.39 45.9646 103.978 46.566 103.615C47.1281 103.282 47.6113 102.987 48.6269 102.987L48.6762 102.958Z" stroke="black" stroke-width="2" mask="url(#path-1-outside-1_151_1186)"/>
</g>
</svg>
