<?xml version="1.0" encoding="UTF-8"?><svg id="_레이어_2" xmlns="http://www.w3.org/2000/svg" viewBox="0 0 89.57 85.9"><defs><style>.cls-1{fill:#89034a;}.cls-2{fill:none;stroke:#000;stroke-miterlimit:10;}.cls-3{fill:#bc398a;}.cls-4{fill:#3d1c00;}.cls-5{fill:#aa2471;}</style></defs><g id="_레이어_1-2"><path class="cls-4" d="M32.93,5.42c-.41.06-3.96.88-2.43.54.93-.04.79-.02-.44.08-1.43.03-2.83.27-4.17.72-3.51.97-6.82,2.58-9.38,5.22-2,2.06-3.98,5.11-5.46,7.59-.66,1.11-1.24,2.32-1.79,3.48-.23.49-2.03,5.32-1.16,3.15-.42,1.06-1.04,1.96-1.54,2.98.75-1.5-2.43,6.09-1.21,3.13-1.24,3.01-2.69,5.74-3.46,8.94-2.43,10.04,3.65,16.97,12.66,19.82-2.39-1.84-4.78-3.68-7.17-5.51-.48-1.35-.47-1.37.03-.07,1.47,3.11,1.7,3.78.69,2,1.05,2.68,2.17,4.99,4.21,7.08,1.21,1.24,2.61,2.34,4.08,3.27,1.15.79,1.21.78.18,0,.99.99,1.06,1.01.23.07.61,1.26,1.4,2.39,2.4,3.4.97,1.03.98,1.12.03.28l-.5-.76c.25,1.4.73,2.72,1.46,3.96,2.11,3.7,4.55,7.12,8.16,9.49s8.4,1.91,12.11,0c1.14-.54,2.15-1.27,3.04-2.19-1.15,1.01-1.1,1.04.13.1,1.23-.69,2.37-1.52,3.6-2.2,1.82-1,6.21-3.08,6.99-3.33,1.14-.36,2.3-.61,3.44-.96,1.41-.3,2.75-.8,4.02-1.5,1.31-.58,1.43-.69.35-.32,1.32-.55,2.64-1.11,3.96-1.67,1.32-.68,1.43-.69.33-.03,1.38-.23,2.69-.71,3.91-1.44,1.22-.69,1.21-.77-.03-.24,1.42-.64,3.01-.96,4.44-1.62.86-.25,1.63-.65,2.32-1.21-1.31.38-1.3.36.04-.06,5.06-2.12,9.25-4.3,10.69-10.02,1.18-4.67-.61-8.52-2.66-12.55-.75-1.24-.9-1.36-.45-.35-.19-.79-.38-1.58-.57-2.37-.28-1.42-.78-2.77-1.5-4.04-.65-1.27-.69-1.37-.13-.3-.34-1.38-.85-2.7-1.52-3.97-.65-1.27-.75-1.32-.32-.15-.44-1.34-.97-2.64-1.58-3.91-.72-1.23-1.62-2.29-2.71-3.18,1.98,2.53-2.85-3.96-1.84-2.71-.96-1-1.06-1.01-.3-.01-.67-1.22-1.48-2.35-2.44-3.37-.31-.4-3.26-3.41-2.14-2.16-.87-1.13-1.75-2.26-2.62-3.39-.99-1.11-1.08-1.22-.28-.31-1.96-2.6-3.98-4.62-6.16-7-6.66-7.26-18.34-10.81-26.38-3.24-5.89,5.55-6.74,15.48-5.37,22.94v-6.38c-.44,1.93-.79,3.81-.88,5.8-.01.9.09.71.32-.57-.09.53-.2,1.06-.33,1.59-.28,1.3-.61,2.6-.97,3.88.74-2.63-.9,2.32-1.16,3.23-.04.15-1.11,3.56-.31,1.45-.62,1.64-1.67,3.19-2.2,4.94-.12.4-.87,3.43-.22,1.5-.96,2.84-2.32,4.73-2.16,7.94.2,4,2.08,8.51,5.94,10.36,4.52,2.16,9.35,1.84,14.25,1.9,1.28.02,2.61-.22,3.87-.38-.02,0,4.46-.32,1.8-.23,2.63-.09,5.12-.31,7.73-.71-1.25.19-.79.04.19-.03s2.05-.11,3.07-.21c4.02-.4,7.52-1.74,10.12-5,2.32-2.92,2.72-6.1,2.78-9.68.03-1.7-.22-3.27-.29-4.97-.11-2.54.02,1.23.23-1.78.41-5.88-4.87-11.13-10.4-11.79-6.04-.72-11.3,2.78-13.17,8.6-3.45,10.73,4.16,21.69,14.51,24.56,14.91,4.13,21.27-19.02,6.38-23.14-3.01-.83,2.83,2.78.8.41,1.4,1.64,1.55,3.79.89.52v6.38c.06-.81.24-1.59.55-2.35-7.86-1.06-15.71-2.13-23.57-3.19-.15,2.2.39,4.24.34,6.4.18.87.11.79-.23-.24-.17,1.64-.11,1.58.18-.19l8.38-8.38c2.51-.99,1.12-.09-.58.05-1.29.11-2.58.29-3.86.47-.42.06-4.16.26-1.79.2-1.14.03-2.28.02-3.41.13l-3.19.43c-1.28.22-1.5.26-.66.11,1.47-.06-1.52-.1-1.82-.11-2.21-.09-4.26.04-6.47.13l6.06,1.64-.58-.28,5.94,10.36-.04-.85-1.64,6.06c1.17-2.13,2.09-4.25,2.75-6.59.06-.23.76-2.3.34-1.27-.52,1.26,1.31-2.36,1.16-2.01.48-1.11,1.07-2.43,1.2-3.66.07-.71.07-1.7-.22-.43.52-2.26,1.79-4.39,2.35-6.69.42-1.77.78-3.52.99-5.33.02-.16.06-4.54-.05-1.55.05-1.4.67-2.81.67-4.23,0-.54-1-3.85-.62-4.25-.04.04.66,2.14.14,2.17-.23.02.7-2.32.73-2.53.58-3.38,1.72.9-2.78,3.14l-6.06,1.64c2.03,0,1.7-.3-1.01-.88-.85-.64-.82-.51.1.4.51.8,1.47,1.62,2.13,2.29.47.52.98,1,1.53,1.44-.63-.98-.72-1.1-.28-.36.59,1.05,1.3,2.01,2.14,2.88.89,1.12,1.05,1.24.49.36,1.16,1.44,2.28,2.88,3.5,4.25.62.54,1.16,1.14,1.64,1.81-.77-.83-.77-.69,0,.42.31.45,3.66,4.34,2.12,2.47,1.37,1.66,2.41,3.43,4.05,4.9l-3.09-5.3c.24.7.44,1.42.7,2.11-.85-2.28,2.35,5.09,1.67,3.44-.53-1.3.88,2.54.72,2.16,0,.02,1.32,3.87.74,1.79,1.11,3.99,2.52,7.72,4.88,11.17l-1.64-6.06,1.33-4.59c2.39-1.84,4.78-3.68,7.17-5.51-2.07.83-5.12,1.3-6.88,2.64-2.28,1.75,1.81-.18-.88.73-1.18.4-2.32.68-3.48,1.18-.42.18-3.65,1.78-1.42.79-1.41.63-3.01,1.03-4.45,1.69-1.13.51.96-.38-.93.47,1.42-.64-5.8,2.1-3.28,1.37-4.08,1.19-8.05,2.83-11.67,4.58-2.29,1.11-4.46,2-6.61,3.34-.84.52-1.63,1.1-2.45,1.66-1.18.81-5.95,3.34-2.21,1.41h12.11l-.85-.56,4.31,4.31c-.81-1.15-1.77-2.45-2.38-3.71.44,1.21.47,1.13.1-.25-.51-1.31-1.07-2.6-1.68-3.87-.54-1.29-1.33-2.43-2.36-3.42-.91-1.07-.94-1.16-.07-.26-1.25-1.73-2.4-3.47-3.98-4.92-1.19-1.1-3.32-3.38-5.03-3.75,1.19.59,2.01,1.58,2.45,2.94-1.37-3.18-1.63-3.82-.78-1.91-1.07-2.74-1.8-4.98-3.95-7.13-1.5-1.49-3.26-2.52-5.3-3.09-3.2-1.19-1.9.26,3.89,4.35v6.38c.29-1.35.68-2.72,1.09-4.05.42-1.35.48-1.41.17-.19.88-1.13,1.5-2.4,1.87-3.81.42-1.35.38-1.45-.11-.3.4-.63.74-1.3,1-2,.58-1.28,1.14-2.58,1.67-3.88.47-1.34.47-1.43,0-.27.6-1.36,1.37-2.66,2.19-3.9.46-.59.88-1.2,1.29-1.83,1.54-2,.65-1.42-2.68,1.74,1.37-.31,1.31-.4-.2-.25,1.41-.12,2.82-.3,4.22-.53,1.36-.31,2.61-.67,4-.85,6.43-.87,9.93-9.12,8.38-14.76-1.91-6.94-8.31-9.25-14.76-8.38h0Z"/><path class="cls-1" d="M53.71,31.82c-.51.57-.94,1.2-1.45,1.77s-1.26.91-1.78,1.47-.79,1.34-1.31,1.9-.94,1.21-1.46,1.77-1.3.88-1.81,1.44-1.1,1.06-1.62,1.62-.81,1.33-1.33,1.88-1.01,1.14-1.53,1.7-1.05,1.11-1.57,1.66-1.34.83-1.87,1.38-1.03,1.12-1.56,1.67-.98,1.17-1.5,1.72-.8,1.35-1.33,1.89c-.55.57-1.22,1.05-1.83,1.55s-1.42.66-2.16.94c-.65.24-1.25.45-1.94.49s-1.35-.05-2.04-.1c-.69-.04-1.42.32-2.12.25s-1.34-.54-2.03-.63-1.44.2-2.12.09-1.35-.4-2.03-.52-1.33-.43-2.01-.57-1.33-.43-2.01-.57c-.7-.15-1.43-.16-2.12-.34s-1.42-.28-2.08-.56-1.17-.78-1.75-1.22c-.55-.41-1.23-.68-1.65-1.21s-.51-1.27-.78-1.9-.57-1.21-.71-1.89-.24-1.33-.24-2.01-.01-1.37.12-2.04c.15-.75.31-1.52.57-2.24s.72-1.37,1.03-2.07c.3-.67.53-1.38.83-2.06s.81-1.25,1.12-1.92.49-1.41.81-2.07.88-1.21,1.21-1.87.58-1.36.92-2.02.48-1.42.83-2.07.69-1.31,1.05-1.95.64-1.34,1-1.98.76-1.27,1.13-1.91.87-1.2,1.25-1.84.83-1.22,1.22-1.85.71-1.3,1.11-1.92c.32-.5.48-1.14.83-1.61s.87-.87,1.31-1.26c.66-.58,1.57-.76,2.37-1.12s1.49-.98,2.32-1.26c.72-.24,1.41-.58,2.13-.82s1.55-.15,2.27-.39,1.37-.68,2.1-.92,1.53-.2,2.26-.43,1.45-.46,2.17-.7c.7-.23,1.36-.69,2.09-.82s1.51-.15,2.24.03c.64.15,1.1.62,1.62,1s1.16.61,1.59,1.1.54,1.22.91,1.73c.43.58.87,1.16,1.3,1.74s1.05,1.02,1.48,1.6,1.06,1.01,1.49,1.59.8,1.2,1.24,1.78.75,1.25,1.18,1.83.99,1.06,1.42,1.64c.43.58.93,1.13,1.33,1.73s.44,1.43.73,2.08.5,1.32.59,2.05c.1.79.3,1.57.14,2.32s-.73,1.36-1.1,2.05-.54,1.46-1.02,2.08-1.15,1.05-1.67,1.61-.88,1.32-1.42,1.85"/><path class="cls-1" d="M50.88,28.99c-3.85,4.69-8.16,9.06-12.28,13.55-2.08,2.27-4.55,4-6.5,6.44s-3.19,3.47-6.46,3.61c-2.68.11-5.63-.23-8.24-.96-2.4-.67-6.21-.73-8.02-2.57-3.91-4.01,1.19-11.08,3.15-14.86,2.58-4.97,5.06-9.78,8-14.55,1.85-3,3.14-4.43,6.61-5.76,2.82-1.07,5.88-1.59,8.77-2.49s3.13-1.51,5.02.85,3.86,4.37,5.51,6.71c1.51,2.14,4.3,4.66,4.63,7.34.36,2.92-2.08,4.85-3.82,7.06-3.15,4,2.47,9.7,5.66,5.66,4.35-5.53,7.92-9.56,5.19-16.91-2-5.37-7.01-9.32-10.26-13.9-1.59-2.24-2.86-4.12-5.56-5.26-3.52-1.48-6.21.21-9.58,1.08-5.34,1.38-12.75,2.74-16.52,7.23-1.73,2.06-2.93,4.84-4.41,7.12-1.81,2.78-3.32,5.71-4.62,8.75C4.82,32.6.55,37.86.05,43.98s2.42,11.45,8,13.61c5.05,1.95,11.72,3.18,17.05,3.07,3.51-.07,6.55-.41,9.49-2.57s4.66-5.27,7.28-7.6,4.36-5.2,6.86-7.49c2.79-2.55,5.4-5.42,7.8-8.35,3.24-3.95-2.39-9.64-5.66-5.66h0Z"/><path class="cls-2" d="M37.45,3.02c-.72.26-1.41.61-2.13.86s-1.42.59-2.14.85-1.5.36-2.22.61-1.45.49-2.18.74-1.44.52-2.17.77-1.39.66-2.11.92-1.51.33-2.23.59-1.44.54-2.16.8c-.61.22-1.2.57-1.77.9s-1.03.79-1.34,1.38c-.32.59-.48,1.24-.37,1.9s.46,1.24.84,1.78.73,1.13,1.25,1.56,1.06.81,1.61,1.2c.58.41,1.24.7,1.82,1.12s1.09.91,1.66,1.34,1.21.75,1.77,1.19,1.06.94,1.61,1.4,1.1.9,1.64,1.36,1.08.93,1.61,1.4,1.01,1,1.53,1.48,1.1.91,1.61,1.4.88,1.13,1.39,1.63"/><path class="cls-2" d="M41.59,31.35c.7-.21,1.37-.48,2.07-.7s1.41-.36,2.11-.58,1.39-.44,2.08-.65,1.39-.42,2.09-.63c.64-.2,1.28-.37,1.92-.56s1.25-.47,1.9-.66,1.32-.26,1.96-.43,1.3-.31,1.95-.47"/><path class="cls-2" d="M63.51,25.36c.75-.13,1.48-.35,2.2-.61s1.37-.63,2.04-1.01,1.31-.76,1.9-1.24c.3-.25.6-.48.66-.86.08-.44-.05-.9-.29-1.27-.4-.61-.79-1.23-1.2-1.84s-.8-1.23-1.21-1.84-.94-1.13-1.36-1.73-.88-1.17-1.32-1.76-.9-1.16-1.35-1.73-.84-1.21-1.32-1.76-1.08-1-1.58-1.53-1.01-1.06-1.54-1.56-1.07-.99-1.63-1.47-1.15-.89-1.74-1.33c-.53-.39-1.09-.74-1.66-1.08s-1.13-.68-1.73-.96-1.17-.67-1.8-.85-1.3-.33-1.96-.39c-.72-.07-1.43-.03-2.14.03s-1.38.32-2.08.48-1.45.11-2.13.32-1.28.68-1.95.91"/><path class="cls-2" d="M57.45,75.2c.7-.3,1.42-.53,2.12-.83s1.34-.71,2.04-1.02,1.39-.6,2.09-.91,1.41-.56,2.11-.86,1.4-.59,2.09-.89c.6-.26,1.11-.74,1.72-1s1.28-.34,1.89-.57,1.12-.8,1.74-1,1.35-.06,1.99-.22c.64-.15,1.2-.62,1.84-.75s1.32-.05,1.95-.23c.7-.2,1.3-.63,1.96-.92s1.28-.63,1.91-.98,1.29-.64,1.91-1.03,1.35-.59,1.95-.99c.86-.57,1.58-1.33,1.93-2.3.27-.75.49-1.56.34-2.34-.14-.72-.41-1.43-.6-2.14s-.5-1.39-.73-2.09-.44-1.41-.67-2.1c-.24-.72-.73-1.36-.97-2.08s-.41-1.47-.66-2.19-.46-1.45-.71-2.17-.64-1.39-.88-2.11-.29-1.51-.53-2.23-.2-1.54-.45-2.26-.84-1.32-1.09-2.04c-.24-.71-.55-1.39-.8-2.09s-.12-1.56-.41-2.24-.66-1.37-1.01-2.02-.95-1.18-1.39-1.78c-.43-.6-.97-1.09-1.47-1.63s-1.11-.95-1.64-1.46-.81-1.28-1.35-1.78-1.21-.87-1.71-1.4-.78-1.25-1.23-1.84"/><path class="cls-2" d="M37.14,32.98c-.18.74-.28,1.5-.45,2.24s-.39,1.47-.54,2.21.02,1.55-.13,2.3-.61,1.43-.74,2.18-.02,1.54-.14,2.29-.28,1.49-.39,2.24-.28,1.49-.39,2.24-.11,1.52-.21,2.27-.03,1.52-.12,2.28-.44,1.48-.51,2.23-.22,1.51-.29,2.26.08,1.53.02,2.29-.27,1.5-.32,2.26.18,1.53.15,2.29-.46,1.5-.48,2.26.1,1.52.09,2.28-.15,1.52-.16,2.28.08,1.52.08,2.28.18,1.52.2,2.28.11,1.51.13,2.27"/><path class="cls-4" d="M82.17,58.61c.73-1.11.62-1.39-.34-.85-.49.17-.98.36-1.46.56-.87.35-1.73.71-2.59,1.07-1.79.74-3.6,1.45-5.4,2.16-4.15,1.62-2.35,8.39,1.86,6.75,2.92-1.14,5.8-2.4,8.72-3.52s6.59-2.31,6.22-6.16c-.43-4.44-7.44-4.49-7,0h0Z"/><path class="cls-2" d="M17.51,10.27c-.46.59-1.16.99-1.59,1.6s-.52,1.44-.93,2.06-1.01,1.12-1.39,1.77-.92,1.19-1.28,1.85-.68,1.33-1.02,2-.59,1.37-.91,2.05-.48,1.42-.78,2.1-1.04,1.17-1.34,1.86-.22,1.53-.51,2.22-.73,1.31-1.01,2-.28,1.5-.56,2.19c-.3.72-.68,1.4-.98,2.12s-.89,1.32-1.18,2.04-.2,1.6-.5,2.32-.54,1.46-.84,2.18-.54,1.46-.84,2.18c-.42,1.02-1.34,1.93-1.36,3.04-.01.74.06,1.55.34,2.22s1.21.95,1.64,1.55.63,1.34,1.09,1.88c.49.57,1.1,1.03,1.58,1.61s.65,1.41,1.12,1.98.83,1.25,1.3,1.83,1.2.96,1.66,1.54,1.13,1.02,1.58,1.62.92,1.19,1.37,1.78.53,1.47.97,2.08,1.19.99,1.63,1.59.97,1.15,1.4,1.76.67,1.36,1.1,1.97.51,1.46.92,2.09,1.3.93,1.71,1.56.31,1.58.72,2.21,1.32.94,1.72,1.57c.35.56.43,1.31.8,1.86s.96.95,1.38,1.46.9.92,1.42,1.35c.55.45,1.05.88,1.66,1.19s1.22.67,1.89.85,1.33.51,2.04.57,1.42.14,2.12.11,1.43,0,2.13-.12,1.25-.88,1.92-1.06,1.41-.16,2.06-.4,1.35-.4,1.99-.67,1.3-.52,1.94-.81,1.25-.63,1.88-.93,1.09-.98,1.73-1.27,1.39-.33,2.04-.59,1.28-.6,1.94-.82,1.39-.23,2.07-.39"/><path class="cls-5" d="M36.7,23.72c.64,0,.64-1,0-1s-.64,1,0,1h0Z"/><path class="cls-5" d="M43.22,36.76c.64,0,.64-1,0-1s-.64,1,0,1h0Z"/><path class="cls-5" d="M45.2,19.75c.64,0,.64-1,0-1s-.64,1,0,1h0Z"/><path class="cls-5" d="M23.37,11.39c.64,0,.64-1,0-1s-.64,1,0,1h0Z"/><path class="cls-5" d="M32.3,16.63c.64,0,.64-1,0-1s-.64,1,0,1h0Z"/><path class="cls-5" d="M20.4,36.33c.64,0,.64-1,0-1s-.64,1,0,1h0Z"/><path class="cls-5" d="M10.33,29.81c.64,0,.64-1,0-1s-.64,1,0,1h0Z"/><path class="cls-5" d="M17.56,50.93c.64,0,.64-1,0-1s-.64,1,0,1h0Z"/><path class="cls-5" d="M19.55,24.99c.64,0,.64-1,0-1s-.64,1,0,1h0Z"/><path class="cls-5" d="M33.15,35.06c.64,0,.64-1,0-1s-.64,1,0,1h0Z"/><path class="cls-5" d="M28.48,37.89c.64,0,.64-1,0-1s-.64,1,0,1h0Z"/><path class="cls-5" d="M25.64,32.36c.64,0,.64-1,0-1s-.64,1,0,1h0Z"/><path class="cls-5" d="M27.91,49.09c.64,0,.64-1,0-1s-.64,1,0,1h0Z"/><path class="cls-5" d="M8.63,46.25c.64,0,.64-1,0-1s-.64,1,0,1h0Z"/><path class="cls-5" d="M42.08,6.14c.64,0,.64-1,0-1s-.64,1,0,1h0Z"/><path class="cls-5" d="M40.95,10.96c.64,0,.64-1,0-1s-.64,1,0,1h0Z"/><path class="cls-5" d="M32.87,10.11c.64,0,.64-1,0-1s-.64,1,0,1h0Z"/><path class="cls-5" d="M54.13,31.8c.64,0,.64-1,0-1s-.64,1,0,1h0Z"/><path class="cls-5" d="M41.09,43.14c.64,0,.64-1,0-1s-.64,1,0,1h0Z"/><path class="cls-3" d="M33.15,40.31c1.93,0,1.93-3,0-3s-1.93,3,0,3h0Z"/><path class="cls-3" d="M24.79,18.06c1.93,0,1.93-3,0-3s-1.93,3,0,3h0Z"/><path class="cls-3" d="M37.69,7.29c1.93,0,1.93-3,0-3s-1.93,3,0,3h0Z"/><path class="cls-3" d="M52.57,24.72c1.93,0,1.93-3,0-3s-1.93,3,0,3h0Z"/><path class="cls-3" d="M10.62,53.49c1.93,0,1.93-3,0-3s-1.93,3,0,3h0Z"/><path class="cls-3" d="M36.41,49.95c1.93,0,1.93-3,0-3s-1.93,3,0,3h0Z"/></g></svg>