<?xml version="1.0" encoding="UTF-8"?><svg id="_레이어_2" xmlns="http://www.w3.org/2000/svg" xmlns:xlink="http://www.w3.org/1999/xlink" viewBox="0 0 80 84"><defs><style>.cls-1{fill:#b3e5e1;}.cls-2{fill:none;}.cls-2,.cls-3{stroke:#000;stroke-miterlimit:10;}.cls-4{fill:#fff;}.cls-5{clip-path:url(#clippath-1);}.cls-3,.cls-6{fill:#3f1604;}.cls-7{fill:#fff0eb;}.cls-8{opacity:.08;}</style><clipPath id="clippath-1"><path class="cls-3" d="M2.4,38.24c.05-.75-.04-1.52.02-2.27s.39-1.47.47-2.22.16-1.49.29-2.23-.27-1.6-.08-2.33c.19-.75.77-1.39,1.03-2.11s.16-1.61.49-2.31,1.01-1.23,1.39-1.89.92-1.23,1.36-1.86.72-1.37,1.21-1.97.91-1.25,1.44-1.81,1.45-.7,2.02-1.23.92-1.27,1.52-1.75,1.19-.98,1.82-1.42,1.29-.84,1.95-1.24,1.26-.9,1.95-1.25,1.41-.64,2.11-.95,1.39-.7,2.11-.97,1.41-.7,2.15-.92c.72-.21,1.53-.1,2.25-.28s1.47-.25,2.21-.39,1.41-.6,2.15-.71,1.53.17,2.27.07,1.47-.24,2.21-.31,1.47-.31,2.21-.37c.72-.06,1.44-.13,2.17-.18s1.47.37,2.19.34,1.43-.43,2.16-.44,1.46-.27,2.18-.25,1.41.67,2.13.73,1.45-.04,2.17.07,1.43.19,2.14.35,1.31.64,2,.85c.74.23,1.61.05,2.32.34s1.44.58,2.13.94,1.49.54,2.15.95,1.05,1.22,1.67,1.68,1.21.95,1.79,1.46,1.04,1.13,1.58,1.68,1.07,1.08,1.58,1.67,1.22.98,1.69,1.6.89,1.26,1.32,1.9.57,1.46.96,2.12.89,1.26,1.24,1.94.53,1.45.84,2.15,1.06,1.23,1.33,1.94.09,1.61.33,2.34.94,1.32,1.15,2.06.53,1.47.71,2.22-.23,1.63-.08,2.39.44,1.48.56,2.24.5,1.49.6,2.25.03,1.55.11,2.32.07,1.54.13,2.31.06,1.54.1,2.31.38,1.53.41,2.3-.09,1.55-.08,2.32-.2,1.55-.19,2.32-.16,1.54-.16,2.31c0,.76.02,1.51,0,2.28s.2,1.53.13,2.29.12,1.57-.03,2.31-.33,1.52-.59,2.24c-.25.71-.97,1.22-1.32,1.87s-.3,1.59-.74,2.19-1.44.75-1.96,1.29-.63,1.5-1.2,1.99-1.15,1.01-1.76,1.44-1.44.56-2.09.93-1.16,1.04-1.84,1.36-1.59.11-2.29.4-1.21,1.05-1.91,1.3-1.63-.16-2.35.07-1.43.43-2.15.63-1.24,1.14-1.96,1.34c-.71.2-1.52.08-2.24.27s-1.52.02-2.24.19-1.4.5-2.13.65-1.42.47-2.15.59-1.45.5-2.19.57c-.74.07-1.53-.6-2.27-.58s-1.49.75-2.23.73-1.47-.57-2.21-.62-1.53.34-2.27.26-1.5-.1-2.24-.2c-.72-.1-1.44-.28-2.17-.4s-1.4-.53-2.12-.66-1.51.07-2.22-.07-1.35-.69-2.06-.85-1.39-.47-2.1-.65-1.45-.22-2.16-.42-1.34-.61-2.04-.82-1.48-.16-2.18-.39-1.26-.82-1.95-1.07c-.75-.27-1.59-.32-2.33-.61s-1.49-.58-2.23-.91-1.34-.9-2.05-1.27-1.57-.47-2.25-.9-1.11-1.18-1.75-1.67c-.58-.45-1.08-.9-1.57-1.34-.54-.5-1.49-.55-1.92-1.06-.47-.56-.37-1.47-.71-2.05-.36-.61-1.05-1.04-1.26-1.7s-.17-1.37-.26-2.09c-.08-.66-.18-1.34-.16-2.08.02-.66-.15-1.38-.05-2.11s.65-1.37.73-2.09-.07-1.45,0-2.17.4-1.41.45-2.13.02-1.44.07-2.16.03-1.44.07-2.16-.17-1.45-.13-2.17.51-1.42.54-2.13-.17-1.45-.13-2.17-.24-1.45-.19-2.17.42-1.41.47-2.13Z"/></clipPath></defs><g id="_레이어_1-2"><path class="cls-6" d="M2.4,38.24c.05-.75-.04-1.52.02-2.27s.39-1.47.47-2.22.16-1.49.29-2.23-.27-1.6-.08-2.33c.19-.75.77-1.39,1.03-2.11s.16-1.61.49-2.31,1.01-1.23,1.39-1.89.92-1.23,1.36-1.86.72-1.37,1.21-1.97.91-1.25,1.44-1.81,1.45-.7,2.02-1.23.92-1.27,1.52-1.75,1.19-.98,1.82-1.42,1.29-.84,1.95-1.24,1.26-.9,1.95-1.25,1.41-.64,2.11-.95,1.39-.7,2.11-.97,1.41-.7,2.15-.92c.72-.21,1.53-.1,2.25-.28s1.47-.25,2.21-.39,1.41-.6,2.15-.71,1.53.17,2.27.07,1.47-.24,2.21-.31,1.47-.31,2.21-.37c.72-.06,1.44-.13,2.17-.18s1.47.37,2.19.34,1.43-.43,2.16-.44,1.46-.27,2.18-.25,1.41.67,2.13.73,1.45-.04,2.17.07,1.43.19,2.14.35,1.31.64,2,.85c.74.23,1.61.05,2.32.34s1.44.58,2.13.94,1.49.54,2.15.95,1.05,1.22,1.67,1.68,1.21.95,1.79,1.46,1.04,1.13,1.58,1.68,1.07,1.08,1.58,1.67,1.22.98,1.69,1.6.89,1.26,1.32,1.9.57,1.46.96,2.12.89,1.26,1.24,1.94.53,1.45.84,2.15,1.06,1.23,1.33,1.94.09,1.61.33,2.34.94,1.32,1.15,2.06.53,1.47.71,2.22-.23,1.63-.08,2.39.44,1.48.56,2.24.5,1.49.6,2.25.03,1.55.11,2.32.07,1.54.13,2.31.06,1.54.1,2.31.38,1.53.41,2.3-.09,1.55-.08,2.32-.2,1.55-.19,2.32-.16,1.54-.16,2.31c0,.76.02,1.51,0,2.28s.2,1.53.13,2.29.12,1.57-.03,2.31-.33,1.52-.59,2.24c-.25.71-.97,1.22-1.32,1.87s-.3,1.59-.74,2.19-1.44.75-1.96,1.29-.63,1.5-1.2,1.99-1.15,1.01-1.76,1.44-1.44.56-2.09.93-1.16,1.04-1.84,1.36-1.59.11-2.29.4-1.21,1.05-1.91,1.3-1.63-.16-2.35.07-1.43.43-2.15.63-1.24,1.14-1.96,1.34c-.71.2-1.52.08-2.24.27s-1.52.02-2.24.19-1.4.5-2.13.65-1.42.47-2.15.59-1.45.5-2.19.57c-.74.07-1.53-.6-2.27-.58s-1.49.75-2.23.73-1.47-.57-2.21-.62-1.53.34-2.27.26-1.5-.1-2.24-.2c-.72-.1-1.44-.28-2.17-.4s-1.4-.53-2.12-.66-1.51.07-2.22-.07-1.35-.69-2.06-.85-1.39-.47-2.1-.65-1.45-.22-2.16-.42-1.34-.61-2.04-.82-1.48-.16-2.18-.39-1.26-.82-1.95-1.07c-.75-.27-1.59-.32-2.33-.61s-1.49-.58-2.23-.91-1.34-.9-2.05-1.27-1.57-.47-2.25-.9-1.11-1.18-1.75-1.67c-.58-.45-1.08-.9-1.57-1.34-.54-.5-1.49-.55-1.92-1.06-.47-.56-.37-1.47-.71-2.05-.36-.61-1.05-1.04-1.26-1.7s-.17-1.37-.26-2.09c-.08-.66-.18-1.34-.16-2.08.02-.66-.15-1.38-.05-2.11s.65-1.37.73-2.09-.07-1.45,0-2.17.4-1.41.45-2.13.02-1.44.07-2.16.03-1.44.07-2.16-.17-1.45-.13-2.17.51-1.42.54-2.13-.17-1.45-.13-2.17-.24-1.45-.19-2.17.42-1.41.47-2.13Z"/><g class="cls-5"><path class="cls-7" d="M34.72.24c-.64.41-1.16,1.05-1.81,1.43-.58.34-1.29.41-1.89.74-1.24.69-2.25,2.22-3.17,3.28-.86.99-1.98,1.87-3.05,2.61-.58.4-1.13.82-1.49,1.45-.39.69-.32,1.55-.94,2.07-.45.39-.96.64-1.34,1.11-.47.57-.63,1.23-.86,1.92-.43,1.34-1.68,2.53-2.48,3.7-.45.65-.7,1.27-.79,2.05-.1.83-.26,1.42-.59,2.2-.25.59-.42,1.04-.87,1.49-.56.57-1.03,1.13-1.2,1.93-.15.69.09,1.39-.04,2.07-.11.57-.55,1.22-.78,1.76-.3.72-.76,1.37-1.03,2.11-.35.93-.45,2.04-.57,3.03-.08.66.05,1.32-.02,1.97-.08.83-.4,1.8-.65,2.59s-.68,1.42-.72,2.24c-.04.77.38,1.38.41,2.11s-.42,1.43-.53,2.12c-.15.89-.05,1.81-.07,2.71-.02.7.11,1.56-.05,2.23-.2.82-.69,1.45-.77,2.32-.09.95.08,1.88-.12,2.82-.16.74-.29,1.45-.35,2.21-.06.84-.16,1.74-.01,2.57.07.38.28.76.33,1.14.07.54-.12.92-.24,1.44-.19.78-.2,1.5-.04,2.29.07.36.24.73.23,1.1,0,.49-.25.99-.33,1.46-.33,1.94-.12,3.77.11,5.71.12,1.07.21,1.87,0,2.92-.16.81-.13,1.5.12,2.29.59,1.92.91,3.89,1.37,5.85s3.33,1.08,2.89-.8c-.37-1.58-.56-3.21-.98-4.77-.22-.81-.57-1.32-.4-2.17s.24-1.55.13-2.44c-.2-1.65-.49-3.27-.36-4.92.05-.69.15-1.31.3-1.99.21-.96.11-1.72-.08-2.67-.28-1.4.55-2.64.19-4.11-.41-1.66-.17-3.11.13-4.78.16-.91.02-1.8.11-2.7.06-.63.36-1.08.57-1.66.58-1.63.13-3.51.26-5.2.12-1.53.82-2.54.4-4.12-.19-.73-.15-.99.12-1.68.37-.93.62-1.91.84-2.89.35-1.53.1-3.08.45-4.62.16-.7.54-1.2.85-1.84.33-.69.6-1.42.9-2.13s.42-1.36.4-2.14c-.02-.67-.1-.8.35-1.26,1.02-1.04,1.77-2.61,2.14-4.02.16-.6.04-1.29.29-1.86.27-.61.82-1.18,1.19-1.72s.8-1,1.16-1.53c.48-.71.5-1.57.91-2.28.32-.55,1.03-.78,1.48-1.22.53-.52.78-1.16,1-1.86.27-.91.68-1.03,1.41-1.6.59-.46,1.14-.97,1.72-1.44.66-.53,1.14-1.17,1.72-1.79.54-.57,1.07-1.41,1.68-1.88.53-.41,1.27-.46,1.86-.77.79-.41,1.36-1.11,2.1-1.59,1.62-1.04.12-3.64-1.51-2.59h0Z"/><path class="cls-7" d="M79.06,23.34c-.67.38-1.29.89-1.97,1.26-.46.25-.97.36-1.45.57-1.21.51-1.66,1.48-2.46,2.43-.94,1.12-2.06,2.07-2.97,3.23-.84,1.07-1.3,2.34-2.19,3.35-.76.87-1.59,1.84-2.22,2.81-.69,1.07-.42,2.37-1.09,3.41-.73,1.13-1.07,1.95-1.27,3.29s-.81,2.55-1.35,3.72c-.58,1.27-.65,2.28-.86,3.64s-.84,2.46-.85,3.85c-.02,2.88-1.03,5.63-1.67,8.42-.3,1.3-.48,2.6-.58,3.94-.06.73.08,1.5-.05,2.22-.11.62-.39,1.19-.5,1.82-.22,1.31-.25,2.66-.19,3.98.04.75.04,1.5.1,2.25s-.13,1.25-.33,1.96c-.4,1.42.28,2.73-.14,4.09s-.73,3.14-.46,4.5c.11.57.46,1.1.35,1.67-.13.73-.61,1.24-.62,2.03-.01.65.23,1.26.34,1.89.15.83.15,1.74.18,2.58.07,1.92,3.08,1.93,3,0-.05-1.26-.11-2.52-.38-3.75s.62-2.09.52-3.32c-.04-.54-.3-1.01-.4-1.52-.12-.64.02-1.27.09-1.91.14-1.26.7-2.36.53-3.65-.09-.67-.28-1.15-.12-1.82.12-.5.34-.95.42-1.46.22-1.44-.13-3-.14-4.45,0-1.2.14-2.41.49-3.55.4-1.32.24-2.65.36-4,.26-2.88,1.34-5.53,1.82-8.35.2-1.19.37-2.36.38-3.56,0-1.26.7-2.39.84-3.65.07-.59.02-1.2.21-1.77s.53-1.08.75-1.63c.45-1.15,1.04-2.31,1.19-3.55.08-.65.11-1.16.45-1.72.32-.52.71-.95.95-1.53.22-.52.27-1.04.34-1.6.09-.71.36-1.03.81-1.58.85-1.03,1.89-2.12,2.51-3.29.75-1.42,1.6-2.62,2.75-3.77.5-.51,1.05-.96,1.48-1.53.32-.42.56-1,1-1.29.47-.31,1.14-.36,1.64-.62.79-.41,1.5-.98,2.27-1.42,1.68-.96.17-3.55-1.51-2.59h0Z"/><path class="cls-1" d="M68.14,7.78c-.47.45-.73,1.21-1.23,1.58-.59.44-1.51.37-2.15.85-.58.44-1.05,1.04-1.55,1.56s-.83,1.33-1.35,1.84-1.42.71-2.02,1.2c-.8.64-1.55,1.32-2.35,1.96-1.47,1.19-2.7,2.67-3.87,4.14-.5.63-.79,1.39-1.29,2.01-.56.68-1.33,1.07-1.8,1.86-.4.68-.53,1.48-.96,2.15-.51.79-1.11,1.51-1.59,2.32s-.94,1.6-1.23,2.49c-.31.95-.54,1.37-1.19,2.13-1.21,1.43-1.49,3.45-2.17,5.15-.33.82-.96,1.45-1.3,2.26-.39.93-.63,1.95-.93,2.92-.26.85-.53,1.69-.67,2.56-.15.93-.27,2.12-.59,3.01-.24.67-.85,1.15-1.14,1.8-.41.91-.64,1.94-.9,2.89-.51,1.85-1.13,3.66-1.64,5.5-.23.84-.17,1.56.08,2.39.27.88-.41,1.4-.64,2.26-.48,1.74.26,3.75-.51,5.41-.39.84-.55,1.59-.46,2.51.04.42.18.86.1,1.28-.09.49-.46.93-.59,1.42-.21.79-.05,1.51.2,2.26.34,1-.04,1.84-.05,2.87s.2,2.19.27,3.27c.03.45.09.84-.07,1.26s-.46.82-.59,1.28c-.28,1.05.14,2.15.2,3.2.07,1.15.09,2.24,0,3.39-.08,1.04-.27,2.13-.26,3.16.02,1.15.39,2.04.08,3.18-.28,1.03-.23,1.87.17,2.85.25.61.31.83.14,1.48-.14.52-.24,1-.27,1.54-.09,1.93,2.91,1.93,3,0,.04-.78.46-1.49.44-2.29-.02-.91-.75-1.72-.65-2.59s.43-1.5.36-2.37c-.1-1.13-.27-2.03-.15-3.16.21-1.95.3-3.92.11-5.88-.09-.88-.39-1.48,0-2.29.42-.86.55-1.6.49-2.55-.05-.86-.08-1.72-.19-2.58-.14-1.07.18-2.02.18-3.08,0-.73-.58-1.49-.53-2.17.03-.34.34-.74.45-1.06.19-.5.27-1.01.25-1.55-.04-.96-.22-1.5.19-2.4s.44-1.77.46-2.77c.02-.82-.07-1.82.06-2.63s.78-1.46.91-2.3-.39-1.49-.39-2.28.58-1.86.8-2.6c.55-1.79.88-3.74,1.59-5.47.27-.67.86-1.14,1.16-1.8.38-.85.44-1.84.65-2.74.44-1.87.89-3.71,1.48-5.55.27-.86.89-1.47,1.27-2.28.41-.88.64-1.86.99-2.77s.56-1.65,1.2-2.36c.56-.61.94-1.22,1.21-2.01.6-1.76,1.47-3.22,2.57-4.72.48-.66.69-1.37,1.01-2.11.36-.81,1.21-1.21,1.75-1.89s.88-1.53,1.46-2.22c.7-.84,1.4-1.68,2.15-2.48,1.37-1.48,3.09-2.7,4.82-3.68,1.5-.84,1.95-2.68,3.33-3.67.6-.43,1.47-.39,2.11-.82.76-.5,1.06-1.37,1.69-1.97,1.4-1.34-.73-3.46-2.12-2.12h0Z"/><path class="cls-1" d="M33.61,79.61c0,.72,0,1.44-.01,2.16,0,.42-.02.87.12,1.27.24.67.71,1.17,1.39,1.38.41.13.92.12,1.33-.02.56-.19.98-.51,1.33-.99.3-.41.41-.94.44-1.44.02-.41-.06-.85-.17-1.24-.23-.78-.58-1.56-1.04-2.24-.27-.4-.61-.65-1.1-.72s-.89.09-1.26.41c-.54.47-.99,1.09-1.27,1.75-.37.85-.62,1.74-.55,2.68.03.4.15.77.44,1.06.26.26.69.46,1.06.44s.79-.14,1.06-.44.47-.67.44-1.06c-.02-.26,0-.52.02-.78l-.05.4c.06-.39.16-.76.31-1.12l-.15.36c.14-.33.32-.65.54-.94l-.23.3c.15-.2.32-.38.51-.54l-2.36-.3c.24.36.45.74.62,1.13l-.15-.36c.16.39.31.79.37,1.21l-.05-.4c.02.17.03.35,0,.52l.05-.4c-.02.11-.05.22-.09.33l.15-.36c-.04.07-.07.14-.12.21l.23-.3c-.05.05-.1.1-.15.15l.3-.23c-.07.05-.14.09-.22.13l.36-.15c-.08.03-.16.05-.24.07l.4-.05c-.07,0-.13,0-.2,0l.4.05c-.07,0-.13-.02-.19-.05l.36.15s-.09-.05-.13-.08l.3.23s-.06-.05-.08-.08l.23.3s-.06-.08-.08-.13l.15.36c-.04-.09-.06-.18-.07-.27l.05.4c-.04-.45,0-.91,0-1.36,0-.48,0-.95,0-1.43,0-.38-.17-.79-.44-1.06s-.69-.46-1.06-.44c-.82.04-1.49.66-1.5,1.5h0Z"/><path class="cls-1" d="M41.59,3.47c-.33.63-.65,1.12-1.19,1.58-.58.49-1.18.96-1.77,1.45-1.26,1.04-2.3,2.32-3.42,3.51s-2.02,2.57-2.88,3.93-1.71,2.78-2.43,4.25c-.35.73-.2,1.62.54,2.05.66.38,1.7.19,2.05-.54.69-1.43,1.51-2.79,2.36-4.13s1.74-2.69,2.86-3.83,2.11-2.35,3.36-3.37,2.35-1.92,3.11-3.38c.89-1.71-1.7-3.23-2.59-1.51h0Z"/><g class="cls-8"><path class="cls-4" d="M25.37,15.73c-4.38-.34-7.22,3.77-9.61,6.83-1.69,2.16-3.27,4.36-4.37,6.88-1.3,2.97-.87,6.44,2.15,8.21,2.54,1.49,6.9.83,8.21-2.15.77-1.76,1.73-3.2,2.82-4.77.49-.71.7-.98,1.2-1.56.45-.52.9-1.04,1.35-1.56.18-.21.36-.41.54-.62.31-.37.36-.42.14-.13l-3.03.82.6.05c3.23.25,6-2.94,6-6,0-3.46-2.76-5.75-6-6h0Z"/></g><g class="cls-8"><path class="cls-4" d="M14.15,57.47c7.72,0,7.73-12,0-12s-7.73,12,0,12h0Z"/></g></g><path class="cls-2" d="M2.4,38.24c.05-.75-.04-1.52.02-2.27s.39-1.47.47-2.22.16-1.49.29-2.23-.27-1.6-.08-2.33c.19-.75.77-1.39,1.03-2.11s.16-1.61.49-2.31,1.01-1.23,1.39-1.89.92-1.23,1.36-1.86.72-1.37,1.21-1.97.91-1.25,1.44-1.81,1.45-.7,2.02-1.23.92-1.27,1.52-1.75,1.19-.98,1.82-1.42,1.29-.84,1.95-1.24,1.26-.9,1.95-1.25,1.41-.64,2.11-.95,1.39-.7,2.11-.97,1.41-.7,2.15-.92c.72-.21,1.53-.1,2.25-.28s1.47-.25,2.21-.39,1.41-.6,2.15-.71,1.53.17,2.27.07,1.47-.24,2.21-.31,1.47-.31,2.21-.37c.72-.06,1.44-.13,2.17-.18s1.47.37,2.19.34,1.43-.43,2.16-.44,1.46-.27,2.18-.25,1.41.67,2.13.73,1.45-.04,2.17.07,1.43.19,2.14.35,1.31.64,2,.85c.74.23,1.61.05,2.32.34s1.44.58,2.13.94,1.49.54,2.15.95,1.05,1.22,1.67,1.68,1.21.95,1.79,1.46,1.04,1.13,1.58,1.68,1.07,1.08,1.58,1.67,1.22.98,1.69,1.6.89,1.26,1.32,1.9.57,1.46.96,2.12.89,1.26,1.24,1.94.53,1.45.84,2.15,1.06,1.23,1.33,1.94.09,1.61.33,2.34.94,1.32,1.15,2.06.53,1.47.71,2.22-.23,1.63-.08,2.39.44,1.48.56,2.24.5,1.49.6,2.25.03,1.55.11,2.32.07,1.54.13,2.31.06,1.54.1,2.31.38,1.53.41,2.3-.09,1.55-.08,2.32-.2,1.55-.19,2.32-.16,1.54-.16,2.31c0,.76.02,1.51,0,2.28s.2,1.53.13,2.29.12,1.57-.03,2.31-.33,1.52-.59,2.24c-.25.71-.97,1.22-1.32,1.87s-.3,1.59-.74,2.19-1.44.75-1.96,1.29-.63,1.5-1.2,1.99-1.15,1.01-1.76,1.44-1.44.56-2.09.93-1.16,1.04-1.84,1.36-1.59.11-2.29.4-1.21,1.05-1.91,1.3-1.63-.16-2.35.07-1.43.43-2.15.63-1.24,1.14-1.96,1.34c-.71.2-1.52.08-2.24.27s-1.52.02-2.24.19-1.4.5-2.13.65-1.42.47-2.15.59-1.45.5-2.19.57c-.74.07-1.53-.6-2.27-.58s-1.49.75-2.23.73-1.47-.57-2.21-.62-1.53.34-2.27.26-1.5-.1-2.24-.2c-.72-.1-1.44-.28-2.17-.4s-1.4-.53-2.12-.66-1.51.07-2.22-.07-1.35-.69-2.06-.85-1.39-.47-2.1-.65-1.45-.22-2.16-.42-1.34-.61-2.04-.82-1.48-.16-2.18-.39-1.26-.82-1.95-1.07c-.75-.27-1.59-.32-2.33-.61s-1.49-.58-2.23-.91-1.34-.9-2.05-1.27-1.57-.47-2.25-.9-1.11-1.18-1.75-1.67c-.58-.45-1.08-.9-1.57-1.34-.54-.5-1.49-.55-1.92-1.06-.47-.56-.37-1.47-.71-2.05-.36-.61-1.05-1.04-1.26-1.7s-.17-1.37-.26-2.09c-.08-.66-.18-1.34-.16-2.08.02-.66-.15-1.38-.05-2.11s.65-1.37.73-2.09-.07-1.45,0-2.17.4-1.41.45-2.13.02-1.44.07-2.16.03-1.44.07-2.16-.17-1.45-.13-2.17.51-1.42.54-2.13-.17-1.45-.13-2.17-.24-1.45-.19-2.17.42-1.41.47-2.13Z"/></g></svg>