<?xml version="1.0" encoding="UTF-8"?><svg id="_레이어_2" xmlns="http://www.w3.org/2000/svg" viewBox="0 0 76.68 78.81"><defs><style>.cls-1{stroke-width:.5px;}.cls-1,.cls-2{fill:none;stroke:#000;stroke-miterlimit:10;}.cls-3{fill:#efc870;}.cls-4{fill:#eec897;}.cls-5{fill:#edd3ae;}.cls-6{fill:#6b3825;}.cls-7{fill:#dbb183;}</style></defs><g id="_레이어_1-2"><path class="cls-3" d="M5.49,16.21c-.49.47-.62,1.28-1.05,1.81s-.71,1.12-1.07,1.7-.84,1.05-1.13,1.67-.46,1.25-.67,1.9c-.22.68-.39,1.33-.5,2.05s-.18,1.38-.19,2.11-.44,1.44-.38,2.16,0,1.46.11,2.18.51,1.38.66,2.08.46,1.37.63,2.07.35,1.4.54,2.08.41,1.39.6,2.07.66,1.32.85,2c.2.71.21,1.46.38,2.13.19.74-.11,1.6.08,2.33s.67,1.4.87,2.13.68,1.39.88,2.12.27,1.5.48,2.23.38,1.47.59,2.2.07,1.57.29,2.29.64,1.39.87,2.12.3,1.5.53,2.23.89,1.31,1.13,2.03.64,1.39.88,2.11.42,1.46.67,2.18c.17.48-.12,1.3.25,1.65.4.38,1.06.6,1.58.78.7.24,1.4.4,2.06.75s1.48.4,2.11.8,1.09,1.04,1.71,1.45,1.23.82,1.87,1.21,1.4.5,2.07.8c.69.31,1.34.65,2.06.87s1.44.4,2.18.54,1.45.51,2.2.59,1.53-.2,2.28-.15,1.5.17,2.25.2c.74.03,1.48.24,2.22.27s1.48.35,2.22.37,1.5-.17,2.24-.16,1.49.09,2.23.09,1.5.09,2.24.06,1.48-.26,2.22-.32,1.51.06,2.25-.03,1.49-.2,2.22-.33,1.43-.48,2.16-.65,1.33-.76,2.04-.98c.74-.23,1.67.06,2.39-.22s1.19-1.19,1.9-1.51,1.53-.37,2.23-.71,1.52-.44,2.21-.8c.59-.31.94-1.08,1.51-1.43s1.33-.45,1.83-.89.78-1.08,1.14-1.66c.37-.6.61-1.21.8-1.89s.45-1.32.58-2.01c.15-.77.26-1.55.4-2.33s.26-1.55.4-2.33.35-1.54.48-2.31.58-1.5.71-2.28.16-1.57.28-2.35.29-1.55.4-2.33.16-1.57.27-2.35-.11-1.61,0-2.39.62-1.51.72-2.29-.23-1.57-.12-2.33.32-1.5.42-2.25.07-1.53.17-2.29.55-1.47.63-2.23-.23-1.56-.16-2.32.24-1.51.29-2.27.26-1.51.29-2.28,0-1.53,0-2.29-.38-1.51-.42-2.27c-.03-.71.66-1.51.57-2.23s-.61-1.4-.84-2.07-.33-1.54-.82-2.1"/><path class="cls-2" d="M5.49,16.21c-.49.47-.62,1.28-1.05,1.81s-.71,1.12-1.07,1.7-.84,1.05-1.13,1.67-.46,1.25-.67,1.9c-.22.68-.39,1.33-.5,2.05s-.18,1.38-.19,2.11-.44,1.44-.38,2.16,0,1.46.11,2.18.51,1.38.66,2.08.46,1.37.63,2.07.35,1.4.54,2.08.41,1.39.6,2.07.66,1.32.85,2c.2.71.21,1.46.38,2.13.19.74-.11,1.6.08,2.33s.67,1.4.87,2.13.68,1.39.88,2.12.27,1.5.48,2.23.38,1.47.59,2.2.07,1.57.29,2.29.64,1.39.87,2.12.3,1.5.53,2.23.89,1.31,1.13,2.03.64,1.39.88,2.11.42,1.46.67,2.18c.17.48-.12,1.3.25,1.65.4.38,1.06.6,1.58.78.7.24,1.4.4,2.06.75s1.48.4,2.11.8,1.09,1.04,1.71,1.45,1.23.82,1.87,1.21,1.4.5,2.07.8c.69.31,1.34.65,2.06.87s1.44.4,2.18.54,1.45.51,2.2.59,1.53-.2,2.28-.15,1.5.17,2.25.2c.74.03,1.48.24,2.22.27s1.48.35,2.22.37,1.5-.17,2.24-.16,1.49.09,2.23.09,1.5.09,2.24.06,1.48-.26,2.22-.32,1.51.06,2.25-.03,1.49-.2,2.22-.33,1.43-.48,2.16-.65,1.33-.76,2.04-.98c.74-.23,1.67.06,2.39-.22s1.19-1.19,1.9-1.51,1.53-.37,2.23-.71,1.52-.44,2.21-.8c.59-.31.94-1.08,1.51-1.43s1.33-.45,1.83-.89.78-1.08,1.14-1.66c.37-.6.61-1.21.8-1.89s.45-1.32.58-2.01c.15-.77.26-1.55.4-2.33s.26-1.55.4-2.33.35-1.54.48-2.31.58-1.5.71-2.28.16-1.57.28-2.35.29-1.55.4-2.33.16-1.57.27-2.35-.11-1.61,0-2.39.62-1.51.72-2.29-.23-1.57-.12-2.33.32-1.5.42-2.25.07-1.53.17-2.29.55-1.47.63-2.23-.23-1.56-.16-2.32.24-1.51.29-2.27.26-1.51.29-2.28,0-1.53,0-2.29-.38-1.51-.42-2.27c-.03-.71.66-1.51.57-2.23s-.61-1.4-.84-2.07-.33-1.54-.82-2.1"/><path class="cls-2" d="M3.26,31.74c.83,2.43,2.62,4.45,4.72,5.92s4.5,2.46,6.92,3.32c11.73,4.15,24.41,5.58,36.76,4.13,4.44-.52,8.88-1.42,12.93-3.29s7.73-4.78,9.95-8.65"/><path class="cls-2" d="M7.48,41.2c-.03.79.03,1.58.08,2.36s.24,1.56.36,2.33.38,1.52.55,2.29.24,1.56.44,2.31.35,1.53.56,2.29c.21.76.42,1.51.63,2.27s.43,1.51.64,2.27.53,1.48.74,2.24.36,1.53.57,2.28.43,1.51.64,2.27.5,1.47.71,2.23c.11-.2.25-.3.35-.49"/><path class="cls-2" d="M13.02,46.32c.04.81.27,1.59.45,2.37s.34,1.57.59,2.34.4,1.56.68,2.32.72,1.46.98,2.22c.21.65.28,1.34.46,2s.33,1.32.49,1.98.42,1.3.57,1.97c.18.79.45,1.57.61,2.36s.2,1.62.35,2.41.21,1.61.35,2.41"/><path class="cls-2" d="M22.46,47.42c-.3.64-.25,1.39-.2,2.1.08,1.11.12,2.23.2,3.34.05.72.07,1.44.12,2.15s.14,1.43.19,2.15.12,1.43.17,2.15.06,1.44.11,2.16.23,1.43.28,2.14.06,1.44.11,2.15.19,1.43.24,2.15.09,1.44.14,2.15.07,1.44.12,2.15"/><path class="cls-2" d="M28.28,49.64c-.03.75.06,1.47.17,2.2s.21,1.46.39,2.19.4,1.42.59,2.14.33,1.44.47,2.17c.1.58.18,1.16.24,1.74s.08,1.17.13,1.75c.05.69.22,1.36.28,2.05s-.05,1.39,0,2.07.11,1.37.17,2.06.23,1.36.29,2.05,0,1.38.06,2.07"/><path class="cls-2" d="M35.49,50.39c-.01.78.05,1.56.04,2.34s-.02,1.56-.03,2.33-.09,1.56-.09,2.33.16,1.56.17,2.33-.1,1.56-.09,2.34.07,1.56.09,2.33.15,1.55.18,2.33.07,1.55.1,2.33-.09,1.56-.06,2.34.16,1.55.2,2.33"/><path class="cls-2" d="M40.9,51.57c.08.71.16,1.43.21,2.15s.14,1.43.17,2.15-.02,1.44-.01,2.16-.05,1.44-.03,2.16.07,1.44.09,2.16.03,1.44.08,2.16.18,1.43.26,2.14.09,1.44.21,2.15.31,1.41.49,2.1"/><path class="cls-2" d="M46.5,51.8c-.06.72-.13,1.44-.18,2.16s.01,1.45-.02,2.17,0,1.44-.03,2.17-.14,1.44-.16,2.16-.07,1.44-.07,2.17-.04,1.45-.03,2.17.2,1.44.22,2.16-.03,1.45,0,2.17.06,1.44.1,2.16.04,1.45.09,2.17"/><path class="cls-2" d="M53.28,50.3c-.05.77-.21,1.54-.25,2.31s0,1.55-.04,2.32-.21,1.54-.26,2.31-.08,1.54-.13,2.32-.06,1.54-.11,2.32-.11,1.54-.15,2.31.03,1.55-.02,2.32-.14,1.54-.19,2.31"/><path class="cls-2" d="M59.9,47.94c.05.74-.05,1.49-.05,2.24s.08,1.49.04,2.24,0,1.49-.06,2.24-.3,1.47-.37,2.21-.07,1.49-.15,2.23c-.08.77-.19,1.54-.27,2.31s-.03,1.55-.11,2.32-.17,1.54-.25,2.31-.23,1.53-.31,2.3"/><path class="cls-2" d="M66.72,46.23c0,.72.03,1.44,0,2.16s-.14,1.44-.18,2.16-.08,1.44-.14,2.16-.18,1.43-.25,2.15,0,1.45-.09,2.17-.19,1.43-.28,2.14-.31,1.41-.42,2.13-.12,1.44-.23,2.15-.31,1.41-.42,2.12-.16,1.43-.27,2.15c-.03.17.02.36,0,.53"/><path class="cls-6" d="M76.09,25.43c0,.76.16,1.53.04,2.28s-.58,1.4-.82,2.12-.23,1.53-.57,2.21-.84,1.26-1.27,1.89-.9,1.19-1.4,1.78-.84,1.28-1.39,1.82-1.38.7-1.98,1.19-1.13.98-1.76,1.42-1.19.92-1.85,1.31-1.44.47-2.13.82-1.28.76-1.99,1.07-1.34.67-2.06.95-1.33.75-2.06.99-1.38.66-2.12.87-1.57-.05-2.32.12-1.47.33-2.22.47-1.48.29-2.23.4-1.5.13-2.26.21-1.5.02-2.27.08-1.47.77-2.24.79-1.52-.37-2.29-.37-1.53.19-2.28.16-1.54.08-2.29.03-1.48-.56-2.23-.65-1.55.08-2.29-.03-1.42-.69-2.16-.83-1.6.19-2.33.02-1.45-.51-2.17-.71-1.54-.21-2.25-.45-1.49-.39-2.19-.66-1.2-1.11-1.88-1.41-1.5-.39-2.16-.73-1.41-.62-2.05-1-1.25-.89-1.86-1.31-1.15-1.01-1.73-1.48-1.33-.81-1.86-1.32-.8-1.35-1.28-1.91-1.35-.89-1.76-1.51-.44-1.51-.78-2.18-1.05-1.22-1.28-1.93-.47-1.49-.6-2.23.38-1.54.38-2.3-.38-1.54-.25-2.29.38-1.48.62-2.2.53-1.42.88-2.11.49-1.48.92-2.12,1.16-1.03,1.66-1.61,1.27-.83,1.83-1.37.72-1.44,1.32-1.93,1.43-.59,2.07-1.03,1.03-1.18,1.69-1.58,1.4-.58,2.09-.93,1.49-.35,2.19-.66,1.25-.88,1.97-1.16,1.48-.33,2.21-.57,1.33-.8,2.07-1.01,1.44-.47,2.19-.64,1.52-.14,2.27-.28,1.52-.06,2.27-.17,1.51-.06,2.27-.14,1.48-.24,2.25-.29,1.49-.36,2.26-.39,1.51.28,2.28.28,1.51-.03,2.27,0,1.53-.23,2.28-.17,1.55-.18,2.3-.09,1.46.62,2.21.73,1.59-.2,2.32-.05,1.41.74,2.14.91,1.44.51,2.16.71,1.64-.13,2.35.1,1.21,1.14,1.91,1.41,1.57.18,2.25.49,1.44.54,2.11.88,1.26.9,1.9,1.28,1.44.59,2.06,1.02.98,1.25,1.56,1.72,1.39.73,1.93,1.24,1.24.96,1.72,1.53.82,1.33,1.24,1.94.48,1.48.82,2.15,1.21,1.16,1.45,1.87-.08,1.6.05,2.34.18,1.47.18,2.24Z"/><path class="cls-2" d="M76.09,25.43c0,.76.16,1.53.04,2.28s-.58,1.4-.82,2.12-.23,1.53-.57,2.21-.84,1.26-1.27,1.89-.9,1.19-1.4,1.78-.84,1.28-1.39,1.82-1.38.7-1.98,1.19-1.13.98-1.76,1.42-1.19.92-1.85,1.31-1.44.47-2.13.82-1.28.76-1.99,1.07-1.34.67-2.06.95-1.33.75-2.06.99-1.38.66-2.12.87-1.57-.05-2.32.12-1.47.33-2.22.47-1.48.29-2.23.4-1.5.13-2.26.21-1.5.02-2.27.08-1.47.77-2.24.79-1.52-.37-2.29-.37-1.53.19-2.28.16-1.54.08-2.29.03-1.48-.56-2.23-.65-1.55.08-2.29-.03-1.42-.69-2.16-.83-1.6.19-2.33.02-1.45-.51-2.17-.71-1.54-.21-2.25-.45-1.49-.39-2.19-.66-1.2-1.11-1.88-1.41-1.5-.39-2.16-.73-1.41-.62-2.05-1-1.25-.89-1.86-1.31-1.15-1.01-1.73-1.48-1.33-.81-1.86-1.32-.8-1.35-1.28-1.91-1.35-.89-1.76-1.51-.44-1.51-.78-2.18-1.05-1.22-1.28-1.93-.47-1.49-.6-2.23.38-1.54.38-2.3-.38-1.54-.25-2.29.38-1.48.62-2.2.53-1.42.88-2.11.49-1.48.92-2.12,1.16-1.03,1.66-1.61,1.27-.83,1.83-1.37.72-1.44,1.32-1.93,1.43-.59,2.07-1.03,1.03-1.18,1.69-1.58,1.4-.58,2.09-.93,1.49-.35,2.19-.66,1.25-.88,1.97-1.16,1.48-.33,2.21-.57,1.33-.8,2.07-1.01,1.44-.47,2.19-.64,1.52-.14,2.27-.28,1.52-.06,2.27-.17,1.51-.06,2.27-.14,1.48-.24,2.25-.29,1.49-.36,2.26-.39,1.51.28,2.28.28,1.51-.03,2.27,0,1.53-.23,2.28-.17,1.55-.18,2.3-.09,1.46.62,2.21.73,1.59-.2,2.32-.05,1.41.74,2.14.91,1.44.51,2.16.71,1.64-.13,2.35.1,1.21,1.14,1.91,1.41,1.57.18,2.25.49,1.44.54,2.11.88,1.26.9,1.9,1.28,1.44.59,2.06,1.02.98,1.25,1.56,1.72,1.39.73,1.93,1.24,1.24.96,1.72,1.53.82,1.33,1.24,1.94.48,1.48.82,2.15,1.21,1.16,1.45,1.87-.08,1.6.05,2.34.18,1.47.18,2.24Z"/><path class="cls-7" d="M32,12.66c-.15,1.03-.21,2.1.04,3.12s.82,2,1.7,2.56c.57.36,1.22.54,1.88.66s1.32.23,1.96.39c.77.19,1.58.41,2.35.62s1.58.33,2.36.03c.63-.24,1.17-.61,1.54-1.17s.52-1.22.69-1.84c.13-.46.26-.92.17-1.38-.11-.53-.42-.97-.75-1.39-.49-.63-.98-1.27-1.54-1.84s-1.2-1.08-1.92-1.43"/><path d="M31.56,12.54c-.25,1.88-.21,3.87,1.06,5.4s3.49,1.54,5.3,2,3.79,1.28,5.5,0c.68-.51,1.06-1.22,1.31-2.02.28-.89.61-1.85.27-2.77s-1.1-1.69-1.71-2.41c-.73-.87-1.58-1.63-2.6-2.14-.52-.26-.97.51-.45.78.96.48,1.73,1.19,2.42,2,.57.67,1.53,1.58,1.6,2.5.04.5-.18,1.03-.31,1.51-.12.44-.26.88-.52,1.26-.63.93-1.78,1.26-2.85,1.06s-2.07-.56-3.11-.8c-.93-.22-1.92-.29-2.83-.62-2.27-.82-2.5-3.45-2.23-5.5.08-.57-.79-.81-.87-.24h0Z"/><path class="cls-7" d="M43.29,3.41c0-.5,0-.5,0-1.01,0-1.01.69-1.93,1.7-1.93.19,0,.19.28.37.28,1.01,0,2.01.64,2.01,1.65,0,.5-.33.5-.33,1.01,0,1.01-.67,1.96-1.68,1.96-.19,0-.19-.12-.37-.12-1.01,0-1.71-.83-1.71-1.84Z"/><path class="cls-1" d="M43.29,3.41c0-.5,0-.5,0-1.01,0-1.01.69-1.93,1.7-1.93.19,0,.19.28.37.28,1.01,0,2.01.64,2.01,1.65,0,.5-.33.5-.33,1.01,0,1.01-.67,1.96-1.68,1.96-.19,0-.19-.12-.37-.12-1.01,0-1.71-.83-1.71-1.84Z"/><path class="cls-7" d="M56.39,23.59c0-.5.12-.5.12-1.01,0-1.01.64-1.98,1.65-1.98.19,0,.19-.03.37-.03,1.01,0,1.68,1,1.68,2.01,0,.5.35.5.35,1.01,0,1.01-1.02,1.93-2.03,1.93-.19,0-.19-.1-.37-.1-1.01,0-1.77-.82-1.77-1.83Z"/><path class="cls-1" d="M56.39,23.59c0-.5.12-.5.12-1.01,0-1.01.64-1.98,1.65-1.98.19,0,.19-.03.37-.03,1.01,0,1.68,1,1.68,2.01,0,.5.35.5.35,1.01,0,1.01-1.02,1.93-2.03,1.93-.19,0-.19-.1-.37-.1-1.01,0-1.77-.82-1.77-1.83Z"/><path class="cls-5" d="M28.75.44c-.58.11-1.17.17-1.75.3s-1.14.33-1.71.5c-.57.17-1.14.35-1.63.69-.79.55-1.37,1.43-1.45,2.39s.35,1.95,1.05,2.61c.42.39.93.7,1.47.89.84.31,1.73.42,2.62.45s1.78-.05,2.66-.11c.28-.02.58-.06.79-.24.34-.3.29-.84.12-1.25s-.42-.82-.42-1.27"/><path d="M28.63,0c-.85.15-1.7.25-2.53.51-.76.23-1.57.43-2.28.8-1.26.65-2.17,2.04-2.04,3.49.14,1.52,1.15,2.73,2.52,3.33,1.56.67,3.32.65,4.98.53.77-.05,1.81,0,2.14-.86s-.42-1.55-.47-2.4c-.03-.58-.93-.58-.9,0,.02.29.08.56.19.84.12.3.31.59.36.91.11.74-1,.6-1.49.63-1.37.09-2.79.11-4.1-.33-1.18-.4-2.2-1.34-2.33-2.63-.13-1.21.67-2.29,1.73-2.79.65-.31,1.4-.48,2.09-.69.78-.23,1.58-.31,2.38-.46.57-.1.33-.97-.24-.87h0Z"/><path class="cls-5" d="M48.11,3.63c.61-.24,1.25-.41,1.9-.53s1.3-.16,1.96-.16c.79,0,1.63.1,2.17.67.42.43.59,1.03.71,1.62.16.81.26,1.63.31,2.46s.03,1.65-.03,2.48c-.01.17,0,.34-.08.49-.2.4-.69.53-1.13.59-.73.1-1.48.21-2.2.07s-1.38-.62-1.65-1.31"/><path d="M48.23,4.07c1.36-.52,2.91-.81,4.37-.64.65.07,1.22.33,1.52.94.32.65.4,1.46.49,2.18.1.8.15,1.6.13,2.4,0,.41-.02.83-.05,1.24-.03.36-.15.48-.49.57-1.25.34-3.12.46-3.73-.95-.23-.53-1.01-.07-.78.45.57,1.31,1.99,1.68,3.29,1.57.64-.05,1.41-.08,1.97-.42.62-.37.62-.99.66-1.64.08-1.57-.02-3.16-.34-4.71-.13-.62-.34-1.23-.77-1.71s-1.05-.7-1.67-.79c-1.6-.23-3.35.07-4.86.65-.53.21-.3,1.08.24.87h0Z"/><path class="cls-5" d="M35.58,1.85c-.09-.14.08-.28.25-.31.72-.13,1.44-.26,2.17-.38s1.46-.15,2.19-.25,1.45-.2,2.18-.28c.19-.02.4-.12.57-.04.22.09.31.38.42.59.35.67.64,1.36.78,2.1s.15,1.49.17,2.24-.02,1.5-.05,2.25c-.02.53,0,1.09-.29,1.54-.39.6-1.16.81-1.86.94-.82.16-1.65.22-2.48.25-.35.01-.7.02-1.02-.14s-.62-.48-.53-.82"/><path d="M36.01,1.73l-.02-.1-.05.35s.48-.09.55-.1c.24-.04.48-.09.72-.13.44-.08.88-.16,1.33-.21.83-.1,1.66-.18,2.49-.29.48-.06.97-.14,1.45-.18.22-.02.25-.05.38.11.11.14.19.38.27.54.4.82.63,1.67.69,2.58s.06,1.82.02,2.73c-.03.74.14,1.84-.52,2.33-.61.45-4.9,1.24-4.78.2.07-.57-.83-.57-.9,0-.09.78.67,1.29,1.36,1.39.92.12,1.95-.04,2.86-.18.75-.12,1.58-.28,2.16-.81.64-.57.67-1.37.69-2.17.06-1.91.23-3.95-.48-5.77-.15-.38-.33-.74-.51-1.11-.15-.31-.31-.62-.66-.74s-.8.04-1.15.08c-.49.06-.99.13-1.48.2-1.06.14-2.13.23-3.18.41-.66.11-2.33.1-2.1,1.14.13.56.99.33.87-.24h0Z"/><path class="cls-5" d="M21.31,6.86c-.56-.29-1.25-.31-1.84-.09s-1.05.71-1.29,1.29c-.22.54-.25,1.14-.24,1.73.01.67,0,1.33.03,2,.02.39.04.82.24,1.15.24.41.71.65,1.14.84.67.3,1.37.54,2.07.76s1.42.37,2.14.5,1.45.23,2.18.27,1.47.08,2.2.03c.11,0,.21-.08.31-.14.13-.1.19-.25.22-.41.08-.62.11-1.25.13-1.88s.05-1.26.02-1.89c-.03-.41-.1-.86-.4-1.13-.35-.31-1.07-.41-1.03-.88"/><path d="M21.54,6.47c-1.66-.77-3.53.13-3.93,1.93-.22.99-.13,2.08-.1,3.08.03.9.11,1.74.91,2.3s1.79.84,2.69,1.13c1.02.32,2.07.54,3.12.69s2.07.23,3.11.21c.44,0,.88.01,1.22-.29s.36-.81.4-1.25c.1-1.17.22-2.45.05-3.62-.06-.42-.21-.83-.54-1.11-.11-.1-.85-.41-.85-.53-.01-.58-.91-.58-.9,0,.02.77.69.78,1.16,1.2.36.32.29,1.02.29,1.44,0,.56-.03,1.12-.05,1.68-.01.28-.02.56-.05.84-.03.4-.08.68-.54.75s-.95,0-1.4-.03c-1.09-.06-2.17-.21-3.24-.43s-2.07-.54-3.05-.95c-.37-.15-.84-.32-1.12-.63-.35-.39-.3-.99-.31-1.48-.03-1.01-.21-2.3.23-3.24s1.52-1.32,2.45-.89c.52.24.98-.53.45-.78h0Z"/><path class="cls-7" d="M53.18,10.71c-.68.14-1.38.29-1.98.64s-1.12.85-1.58,1.38-.89,1.1-1.16,1.74c-.12.29-.16.62-.05.92.1.28.35.45.6.6.73.46,1.51.8,2.33,1.06s1.63.53,2.48.68,1.71.16,2.56.26c.61.07,1.23.2,1.84.11.81-.12,1.52-.56,2.1-1.13s1.02-1.27,1.29-2.02.42-1.56.47-2.37,0-1.62-.06-2.43c0-.1-.05-.18-.1-.27-.09-.13-.2-.28-.35-.31-.59-.12-1.19-.14-1.78-.26"/><path d="M53.06,10.28c-1.06.22-2,.53-2.85,1.23s-1.58,1.56-2.05,2.52c-.39.8-.36,1.64.39,2.2.85.63,1.9,1.01,2.89,1.33,1.16.37,2.3.65,3.51.75s2.45.44,3.59.18c2.03-.45,3.33-2.45,3.76-4.36.29-1.26.35-2.71.16-3.99s-1.59-1.09-2.56-1.28c-.57-.11-.81.76-.24.87.4.08,1.63.05,1.86.37.11.15.08.67.09.85.01.27.02.54.03.81,0,1.14-.13,2.31-.6,3.36-.41.93-1.12,1.77-2.03,2.24-1.11.57-2.37.18-3.55.09-2.11-.17-4.55-.66-6.32-1.9-1.01-.71.62-2.37,1.18-2.93.86-.87,1.79-1.23,2.96-1.48.57-.12.33-.99-.24-.87h0Z"/><path class="cls-5" d="M16.81,12.11c-.34-.08-.8-.13-1.01.14-.06.08-.08.19-.11.29-.31,1.06-.59,2.12-.9,3.18-.14.49-.27,1.12.13,1.45.2.16.48.18.74.21.58.08,1.16.17,1.74.25s1.16.16,1.75.24c.09.01.19.04.27,0,.1-.04.15-.14.2-.24.41-.78.85-1.56,1.01-2.41s0-1.78-.55-2.47"/><path d="M16.93,11.68c-.51-.12-1.19-.16-1.51.35-.15.23-.19.52-.27.78-.1.35-.2.7-.29,1.04-.18.66-.4,1.32-.56,1.99-.12.48-.17,1.03.13,1.46.37.53,1.08.52,1.66.61.65.1,1.31.19,1.96.28.33.04.66.09.98.13s.63.03.86-.26c.18-.23.3-.53.44-.79.15-.3.3-.6.43-.92.54-1.31.55-2.75-.36-3.9-.15-.19-.48-.16-.64,0-.19.19-.15.45,0,.64.56.71.57,1.66.32,2.48-.14.47-.36.9-.58,1.34-.06.11-.11.22-.17.33-.03.06-.08.13-.1.19,0,.03-.08.1,0,.05s-.03-.02-.07-.04c-.07-.02-.15-.02-.22-.03-.15-.02-.29-.04-.44-.06-1-.13-2-.26-2.99-.42-.15-.03-.32-.04-.39-.2-.06-.13-.03-.31,0-.45.07-.46.24-.91.37-1.36.16-.59.33-1.17.49-1.76.04-.14.1-.57.2-.64.11-.08.39,0,.51.03.56.13.8-.74.24-.87h0Z"/><path class="cls-5" d="M26.8,21.64c-.34-.08-.79-.15-.99.13-.06.08-.05.2-.08.3-.31,1.06-.66,2.1-.96,3.16-.14.49-.23,1.11.17,1.44.2.16.47.17.73.21.58.08,1.16.18,1.74.26s1.16.19,1.74.28c.09.01.19.03.28,0,.1-.04.14-.16.19-.25.41-.78.8-1.56.97-2.42s.06-1.78-.5-2.46"/><path d="M26.92,21.21c-.5-.12-1.18-.18-1.5.34-.14.22-.16.54-.24.79-.1.35-.21.69-.32,1.04-.2.65-.44,1.31-.59,1.97-.11.48-.14,1.03.17,1.45.38.53,1.06.51,1.65.6.65.1,1.31.19,1.96.3.33.05.65.11.98.16.35.05.66.02.87-.29.34-.51.6-1.14.82-1.71.5-1.3.58-2.76-.32-3.9-.15-.19-.48-.16-.64,0-.19.19-.15.45,0,.64.55.7.5,1.67.27,2.48-.14.48-.35.94-.57,1.39-.03.05-.34.59-.32.61-.03-.03.12-.04.05-.1-.02-.02-.12-.02-.15-.02-.15-.02-.29-.05-.44-.07-1.03-.17-2.06-.31-3.09-.47-.39-.06-.47-.26-.42-.64.05-.46.24-.92.37-1.35.18-.58.36-1.16.54-1.74.04-.15.09-.29.13-.44,0-.02.06-.26.02-.2.07-.08.41.01.52.04.56.13.8-.73.24-.87h0Z"/><path class="cls-4" d="M51.93,21.44c-.95,0-.95.18-1.91.18s-.95.16-1.91.16c-.9,0-1.74-.57-2.33-1.17s-.65-1.43-.65-2.33c0-1.24-.76-1.24-.76-2.47s.84-1.24.84-2.47c0-.9-.55-1.98-.13-2.71s1.41-1.24,2.16-1.68,1.63-.17,2.53-.17c.25,0,.25-.27.5-.27.9,0,1.81,0,2.54.42s1.36,1.15,1.8,1.9.64,1.61.64,2.51c0,1.24-.13,1.24-.13,2.47s-.47,1.24-.47,2.47c0,.9.48,2.01-.11,2.6s-1.7.55-2.6.55Z"/><path class="cls-2" d="M51.93,21.44c-.95,0-.95.18-1.91.18s-.95.16-1.91.16c-.9,0-1.74-.57-2.33-1.17s-.65-1.43-.65-2.33c0-1.24-.76-1.24-.76-2.47s.84-1.24.84-2.47c0-.9-.55-1.98-.13-2.71s1.41-1.24,2.16-1.68,1.63-.17,2.53-.17c.25,0,.25-.27.5-.27.9,0,1.81,0,2.54.42s1.36,1.15,1.8,1.9.64,1.61.64,2.51c0,1.24-.13,1.24-.13,2.47s-.47,1.24-.47,2.47c0,.9.48,2.01-.11,2.6s-1.7.55-2.6.55Z"/><path class="cls-7" d="M27.88,10.03c0-1.01-.22-1.01-.22-2.02,0-.67.03-1.39.34-1.92s1.06-.73,1.62-1.05,1.05-.77,1.72-.77c.37,0,.37-.1.74-.1.67,0,1.27.4,1.81.72s1.2.65,1.53,1.2.14,1.26.14,1.92c0,1.01-.14,1.01-.14,2.02,0,.67.05,1.23-.26,1.77s-.53,1.33-1.09,1.66-1.31.26-1.98.26c-.37,0-.37.29-.74.29-.67,0-1.27-.53-1.81-.85s-.71-.94-1.04-1.49-.61-.98-.61-1.64Z"/><path class="cls-2" d="M27.88,10.03c0-1.01-.22-1.01-.22-2.02,0-.67.03-1.39.34-1.92s1.06-.73,1.62-1.05,1.05-.77,1.72-.77c.37,0,.37-.1.74-.1.67,0,1.27.4,1.81.72s1.2.65,1.53,1.2.14,1.26.14,1.92c0,1.01-.14,1.01-.14,2.02,0,.67.05,1.23-.26,1.77s-.53,1.33-1.09,1.66-1.31.26-1.98.26c-.37,0-.37.29-.74.29-.67,0-1.27-.53-1.81-.85s-.71-.94-1.04-1.49-.61-.98-.61-1.64Z"/></g></svg>