<svg xmlns="http://www.w3.org/2000/svg" width="24" height="24" viewBox="0 0 24 24" fill="none">
<path d="M11.8088 21.0704H11.5C8.57647 21.0704 6.09559 20.0479 4.05735 18.0028C2.01912 15.9577 1 13.4685 1 10.5352C1 7.60188 2.01912 5.11268 4.05735 3.06761C6.09559 1.02254 8.57647 0 11.5 0C12.9618 0 14.3257 0.273709 15.5919 0.821127C16.8581 1.36854 17.9699 2.12254 18.9272 3.0831C19.8846 4.04366 20.636 5.15915 21.1816 6.42958C21.7272 7.7 22 9.06854 22 10.5352C22 13.3033 21.2228 15.8751 19.6684 18.2507C18.114 20.6263 16.1529 22.4854 13.7853 23.8282C13.5794 23.9315 13.3735 23.9883 13.1676 23.9986C12.9618 24.0089 12.7765 23.9624 12.6118 23.8592C12.4471 23.7559 12.3029 23.6216 12.1794 23.4563C12.0559 23.2911 11.9838 23.0948 11.9632 22.8676L11.8088 21.0704ZM14.5882 20.2648C16.05 19.0254 17.239 17.5742 18.1551 15.9113C19.0713 14.2484 19.5294 12.4563 19.5294 10.5352C19.5294 8.28357 18.7522 6.37793 17.1978 4.81831C15.6434 3.25869 13.7441 2.47887 11.5 2.47887C9.25588 2.47887 7.35662 3.25869 5.80221 4.81831C4.24779 6.37793 3.47059 8.28357 3.47059 10.5352C3.47059 12.7869 4.24779 14.6925 5.80221 16.2521C7.35662 17.8117 9.25588 18.5915 11.5 18.5915H14.5882V20.2648ZM11.4691 17.3211C11.8191 17.3211 12.1176 17.1972 12.3647 16.9493C12.6118 16.7014 12.7353 16.4019 12.7353 16.0507C12.7353 15.6995 12.6118 15.4 12.3647 15.1521C12.1176 14.9042 11.8191 14.7803 11.4691 14.7803C11.1191 14.7803 10.8206 14.9042 10.5735 15.1521C10.3265 15.4 10.2029 15.6995 10.2029 16.0507C10.2029 16.4019 10.3265 16.7014 10.5735 16.9493C10.8206 17.1972 11.1191 17.3211 11.4691 17.3211ZM8.78235 7.90141C9.00882 8.00469 9.23529 8.00986 9.46176 7.9169C9.68824 7.82394 9.87353 7.67418 10.0176 7.46761C10.2029 7.21972 10.4191 7.02864 10.6662 6.89437C10.9132 6.76009 11.1912 6.69296 11.5 6.69296C11.9941 6.69296 12.3956 6.83239 12.7044 7.11127C13.0132 7.39014 13.1676 7.74648 13.1676 8.18028C13.1676 8.44883 13.0904 8.71737 12.936 8.98592C12.7816 9.25446 12.5088 9.58498 12.1176 9.97746C11.6029 10.4319 11.2221 10.8606 10.975 11.2634C10.7279 11.6662 10.6044 12.0742 10.6044 12.4873C10.6044 12.7352 10.6919 12.9469 10.8669 13.1225C11.0419 13.2981 11.2529 13.3859 11.5 13.3859C11.7471 13.3859 11.9529 13.293 12.1176 13.107C12.2824 12.9211 12.4059 12.7042 12.4882 12.4563C12.5912 12.1052 12.7765 11.785 13.0441 11.4958C13.3118 11.2066 13.5588 10.9484 13.7853 10.7211C14.2176 10.2873 14.5419 9.85352 14.7581 9.41972C14.9743 8.98592 15.0824 8.55211 15.0824 8.11831C15.0824 7.16807 14.7581 6.40376 14.1096 5.82535C13.461 5.24695 12.5912 4.95775 11.5 4.95775C10.8412 4.95775 10.2338 5.11784 9.67794 5.43803C9.12206 5.75822 8.66912 6.19718 8.31912 6.75493C8.19559 6.98216 8.18015 7.20423 8.27279 7.42113C8.36544 7.63803 8.53529 7.79812 8.78235 7.90141Z" fill="#9E4AFF"/>
</svg>