<svg width="252" height="80" viewBox="0 0 252 80" fill="none" xmlns="http://www.w3.org/2000/svg">
<mask id="path-1-inside-1_575_2844" fill="white">
<path d="M238.535 78.8778C237.494 78.8778 237.494 79.1303 236.452 79.1303C235.411 79.1303 235.411 79.1443 234.369 79.1443C233.328 79.1443 233.328 78.7656 232.286 78.7656C231.245 78.7656 231.245 78.8357 230.203 78.8357C229.162 78.8357 229.162 78.7375 228.12 78.7375C227.079 78.7375 227.079 78.9199 226.037 78.9199C224.996 78.9199 224.996 78.5271 223.955 78.5271C222.913 78.5271 222.913 79.9158 221.872 79.9158C220.83 79.9158 220.83 79.8457 219.789 79.8457C218.747 79.8457 218.747 78.6674 217.706 78.6674C216.664 78.6674 216.664 78.6954 215.623 78.6954C214.581 78.6954 214.581 78.9058 213.54 78.9058C212.498 78.9058 212.498 79.6493 211.457 79.6493C210.415 79.6493 210.415 78.7936 209.374 78.7936C208.332 78.7936 208.332 79.3968 207.291 79.3968C206.249 79.3968 206.249 79.1303 205.208 79.1303C204.166 79.1303 204.167 79.0181 203.125 79.0181C202.084 79.0181 202.084 79.3407 201.042 79.3407C200.001 79.3407 200.001 79.6213 198.959 79.6213C197.918 79.6213 197.918 79.8597 196.876 79.8597C195.835 79.8597 195.835 79.1724 194.793 79.1724C193.752 79.1724 193.752 78.5271 192.71 78.5271C191.669 78.5271 191.669 79.481 190.627 79.481C189.586 79.481 189.586 78.6253 188.544 78.6253C187.503 78.6253 187.503 78.9339 186.461 78.9339C185.42 78.9339 185.42 79.6213 184.378 79.6213C183.337 79.6213 183.337 79.8457 182.296 79.8457C181.254 79.8457 181.254 78.7235 180.213 78.7235C179.171 78.7235 179.171 79.0461 178.13 79.0461C177.088 79.0461 177.088 79.2004 176.047 79.2004C175.005 79.2004 175.005 78.7375 173.964 78.7375C172.922 78.7375 172.922 78.7656 171.881 78.7656C170.839 78.7656 170.839 79.9579 169.798 79.9579C168.756 79.9579 168.756 78.8778 167.715 78.8778C166.673 78.8778 166.673 79.8317 165.632 79.8317C164.59 79.8317 164.59 78.8076 163.549 78.8076C162.507 78.8076 162.507 79.5231 161.466 79.5231C160.425 79.5231 160.425 79.9158 159.383 79.9158C158.342 79.9158 158.342 79.2565 157.3 79.2565C156.259 79.2565 156.259 79.9719 155.217 79.9719C154.176 79.9719 154.176 79.8036 153.134 79.8036C152.093 79.8036 152.093 78.8217 151.051 78.8217C150.01 78.8217 150.01 79.3688 148.968 79.3688C147.927 79.3688 147.927 78.7936 146.885 78.7936C145.844 78.7936 145.844 79.0882 144.802 79.0882C143.761 79.0882 143.761 79.1583 142.719 79.1583C141.678 79.1583 141.678 78.976 140.636 78.976C139.595 78.976 139.595 78.5972 138.554 78.5972C137.512 78.5972 137.512 79.6213 136.471 79.6213C135.429 79.6213 135.429 78.7375 134.388 78.7375C133.346 78.7375 133.346 79.8457 132.305 79.8457C131.263 79.8457 131.263 79.9299 130.222 79.9299C129.18 79.9299 129.18 79.495 128.139 79.495C127.097 79.495 127.097 79.2425 126.056 79.2425C125.014 79.2425 125.014 79.7896 123.973 79.7896C122.931 79.7896 122.931 79.6353 121.89 79.6353C120.848 79.6353 120.848 79.1022 119.807 79.1022C118.765 79.1022 118.765 78.7095 117.724 78.7095C116.683 78.7095 116.683 78.7095 115.641 78.7095C114.6 78.7095 114.6 78.5972 113.558 78.5972C112.517 78.5972 112.517 79.8737 111.466 79.8737C110.415 79.8737 110.424 79.0882 109.383 79.0882C108.341 79.0882 108.341 78.6253 107.3 78.6253C106.258 78.6253 106.258 79.3968 105.217 79.3968C104.176 79.3968 104.175 79.9158 103.134 79.9158C102.093 79.9158 102.093 79.8176 101.051 79.8176C100.01 79.8176 100.01 79.7054 98.9681 79.7054C97.9266 79.7054 97.9266 79.9018 96.8852 79.9018C95.8437 79.9018 95.8437 79.0742 94.7929 79.0742C93.7421 79.0742 93.7514 78.976 92.71 78.976C91.6685 78.976 91.6685 78.99 90.627 78.99C89.5855 78.99 89.5855 78.5972 88.5441 78.5972C87.5026 78.5972 87.5026 79.6774 86.4611 79.6774C85.4196 79.6774 85.4196 78.6253 84.3689 78.6253C83.3181 78.6253 83.3274 78.5551 82.2859 78.5551C81.2444 78.5551 81.2444 79.9719 80.203 79.9719C79.1615 79.9719 79.1615 79.2425 78.12 79.2425C77.0785 79.2425 77.0785 79.7756 76.037 79.7756C74.9956 79.7756 74.9956 79.4108 73.9448 79.4108C72.894 79.4108 72.9033 79.0461 71.8618 79.0461C70.8204 79.0461 70.8204 78.8497 69.7789 78.8497C68.7374 78.8497 68.7374 80 67.6866 80C66.6359 80 66.6452 79.8597 65.5944 79.8597C64.5436 79.8597 64.5529 78.5832 63.5114 78.5832C62.47 78.5832 62.47 79.509 61.4192 79.509C60.3684 79.509 60.3777 79.0461 59.3269 79.0461C58.2762 79.0461 58.2855 79.2846 57.244 79.2846C56.2025 79.2846 56.2025 78.8918 55.161 78.8918C54.1196 78.8918 54.1196 79.509 53.0781 79.509C52.0366 79.509 52.0366 79.6633 50.9858 79.6633C49.9351 79.6633 49.9444 79.8597 48.8936 79.8597C47.8428 79.8597 47.8521 79.7896 46.8106 79.7896C45.7692 79.7896 45.7692 79.8457 44.7277 79.8457C43.6862 79.8457 43.6862 79.6213 42.6354 79.6213C41.5847 79.6213 41.594 79.7475 40.5525 79.7475C39.511 79.7475 39.511 78.7936 38.4602 78.7936C37.4094 78.7936 37.4187 79.0882 36.368 79.0882C35.3172 79.0882 35.3265 79.004 34.2757 79.004C33.2249 79.004 33.2342 79.2565 32.1835 79.2565C31.1327 79.2565 31.142 79.3126 30.0912 79.3126C29.0404 79.3126 29.0497 79.7615 27.999 79.7615C26.9482 79.7615 26.9575 78.6113 25.916 78.6113C24.8745 78.6113 24.8745 79.4529 23.8238 79.4529C22.773 79.4529 22.7823 79.1443 21.7315 79.1443C20.6807 79.1443 20.6807 78.5972 19.6393 78.5972C18.5978 78.5972 18.5885 78.6533 17.547 78.6533C16.5055 78.6533 16.4962 78.5692 15.4548 78.5692C14.4133 78.5692 14.404 79.1303 13.3625 79.1303C12.6744 79.1303 11.977 79.3407 11.3261 79.1864C10.6751 79.0321 9.99631 78.6674 9.36399 78.3588C8.73166 78.0501 8.26672 77.0963 7.67159 76.6334C7.07646 76.1704 6.45343 75.8478 5.9141 75.2446C5.37476 74.6414 4.48207 74.6134 4.00782 73.8839C3.53358 73.1545 2.92915 72.4671 2.5293 71.6395C2.12945 70.8119 2.23173 69.4652 1.92487 68.5534C1.61801 67.6416 0.911292 66.9402 0.706716 65.9583C0.50214 64.9763 0.976384 63.7559 0.874096 62.7319C0.771808 61.7079 0.520738 60.782 0.520738 59.744C0.520738 58.229 0.864797 58.229 0.864797 56.7C0.864797 55.171 0.390553 55.185 0.390553 53.656C0.390553 52.127 0 52.127 0 50.612C0 49.097 0.58583 49.097 0.58583 47.5679C0.58583 46.0389 0.725314 46.0389 0.725314 44.5239C0.725314 43.0089 0.632325 42.9949 0.632325 41.4799C0.632325 39.9649 0.399852 39.9649 0.399852 38.4359C0.399852 36.9069 0.66952 36.9209 0.66952 35.3919C0.66952 33.8629 0.0650922 33.8629 0.0650922 32.3479C0.0650922 30.8329 0.762509 30.8189 0.762509 29.3039C0.762509 27.7889 0.697417 27.7749 0.697417 26.2599C0.697417 24.7449 0.511439 24.7308 0.511439 23.2018C0.511439 21.6728 0.232472 21.6728 0.232472 20.1438C0.232472 19.1057 0.799705 18.1518 0.911292 17.1559C1.02288 16.1599 1.37624 15.3042 1.58081 14.3503C1.78539 13.3965 1.86908 12.4285 2.17594 11.5167C2.4828 10.6049 2.78037 9.76328 3.18022 8.94968C3.58007 8.13607 3.59867 6.80344 4.07292 6.08802C4.54716 5.37261 5.54214 5.58303 6.09078 4.97984C6.63941 4.37664 6.97417 3.38068 7.5786 2.91776C8.18303 2.45485 8.83395 2.28652 9.48487 1.97791C10.1358 1.6693 10.7216 1.29055 11.4004 1.12222C12.0793 0.953884 12.7116 0.336665 13.3997 0.336665C14.4412 0.336665 14.4412 0.0280554 15.4827 0.0280554C16.5241 0.0280554 16.5241 1.06611 17.5656 1.06611C18.6071 1.06611 18.6071 1.00999 19.6486 1.00999C20.69 1.00999 20.69 0.785551 21.7315 0.785551C22.773 0.785551 22.773 0.140277 23.8145 0.140277C24.8559 0.140277 24.8559 0.967912 25.8974 0.967912C26.9389 0.967912 26.9389 1.13624 27.9804 1.13624C29.0218 1.13624 29.0218 0.589164 30.0633 0.589164C31.1048 0.589164 31.1048 0.210416 32.1463 0.210416C33.1878 0.210416 33.1877 0.336665 34.2292 0.336665C35.2707 0.336665 35.2707 1.13624 36.3122 1.13624C37.3537 1.13624 37.3537 1.34666 38.3951 1.34666C39.4366 1.34666 39.4366 0.631247 40.4781 0.631247C41.5196 0.631247 41.5196 0.785551 42.561 0.785551C43.6025 0.785551 43.6025 0.883745 44.644 0.883745C45.6855 0.883745 45.6855 0.519025 46.7269 0.519025C47.7684 0.519025 47.7684 1.27652 48.8099 1.27652C49.8514 1.27652 49.8514 0.729441 50.8928 0.729441C51.9343 0.729441 51.9343 0.841662 52.9758 0.841662C54.0173 0.841662 54.0173 0.715413 55.0587 0.715413C56.1002 0.715413 56.1002 0.112222 57.1417 0.112222C58.1832 0.112222 58.1832 0.785551 59.2247 0.785551C60.2661 0.785551 60.2661 1.08013 61.3076 1.08013C62.3491 1.08013 62.3491 0.995967 63.3906 0.995967C64.432 0.995967 64.432 0.154305 65.4735 0.154305C66.515 0.154305 66.515 0.67333 67.5565 0.67333C68.5979 0.67333 68.5979 0.911801 69.6394 0.911801C70.6809 0.911801 70.6809 0.18236 71.7224 0.18236C72.7638 0.18236 72.7638 0.0841662 73.8053 0.0841662C74.8468 0.0841662 74.8468 0.771524 75.8883 0.771524C76.9297 0.771524 76.9297 0.49097 77.9712 0.49097C79.0127 0.49097 79.0127 1.22041 80.0542 1.22041C81.0956 1.22041 81.0956 0.434859 82.1371 0.434859C83.1786 0.434859 83.1786 0.0841662 84.2201 0.0841662C85.2616 0.0841662 85.2615 0.85569 86.303 0.85569C87.3445 0.85569 87.3445 0.154305 88.386 0.154305C89.4275 0.154305 89.4275 1.3186 90.4689 1.3186C91.5104 1.3186 91.5104 0.687358 92.5519 0.687358C93.5934 0.687358 93.5934 0.434859 94.6348 0.434859C95.6763 0.434859 95.6763 1.13624 96.7178 1.13624C97.7593 1.13624 97.7593 0.154305 98.8007 0.154305C99.8422 0.154305 99.8422 1.20638 100.884 1.20638C101.925 1.20638 101.925 1.24847 102.967 1.24847C104.008 1.24847 104.008 0.561108 105.05 0.561108C106.091 0.561108 106.091 0.701385 107.133 0.701385C108.174 0.701385 108.174 0.224443 109.215 0.224443C110.257 0.224443 110.257 0.252499 111.298 0.252499C112.34 0.252499 112.34 1.36069 113.381 1.36069C114.423 1.36069 114.423 0.743468 115.464 0.743468C116.506 0.743468 116.506 0.967912 117.547 0.967912C118.589 0.967912 118.589 1.43083 119.63 1.43083C120.672 1.43083 120.672 0.322637 121.713 0.322637C122.755 0.322637 122.755 0.0280554 123.796 0.0280554C124.838 0.0280554 124.838 0.54708 125.879 0.54708C126.921 0.54708 126.921 0.238471 127.962 0.238471C129.004 0.238471 129.004 0.729441 130.045 0.729441C131.087 0.729441 131.086 0.54708 132.128 0.54708C133.169 0.54708 133.169 0.519025 134.211 0.519025C135.252 0.519025 135.252 0 136.294 0C137.335 0 137.335 0.476942 138.377 0.476942C139.418 0.476942 139.418 1.00999 140.469 1.00999C141.52 1.00999 141.511 0.575136 142.552 0.575136C143.594 0.575136 143.594 1.29055 144.635 1.29055C145.676 1.29055 145.676 0.462914 146.718 0.462914C147.759 0.462914 147.759 0.378748 148.801 0.378748C149.842 0.378748 149.842 0.336665 150.884 0.336665C151.925 0.336665 151.925 1.24847 152.967 1.24847C154.008 1.24847 154.008 0.252499 155.05 0.252499C156.091 0.252499 156.091 0.0280554 157.142 0.0280554C158.193 0.0280554 158.183 1.27652 159.225 1.27652C160.266 1.27652 160.266 1.34666 161.308 1.34666C162.349 1.34666 162.349 1.23444 163.391 1.23444C164.432 1.23444 164.432 1.1643 165.474 1.1643C166.515 1.1643 166.515 0.224443 167.566 0.224443C168.617 0.224443 168.608 0.0561108 169.649 0.0561108C170.69 0.0561108 170.69 1.27652 171.732 1.27652C172.773 1.27652 172.773 0.883745 173.815 0.883745C174.856 0.883745 174.856 0.0420831 175.898 0.0420831C176.939 0.0420831 176.939 0.687358 177.99 0.687358C179.041 0.687358 179.032 0.897773 180.073 0.897773C181.115 0.897773 181.115 0 182.156 0C183.197 0 183.198 0.0561108 184.248 0.0561108C185.299 0.0561108 185.29 0.140277 186.341 0.140277C187.391 0.140277 187.382 0.336665 188.423 0.336665C189.465 0.336665 189.465 0.224443 190.516 0.224443C191.567 0.224443 191.557 0.785551 192.608 0.785551C193.659 0.785551 193.649 1.15027 194.691 1.15027C195.732 1.15027 195.732 0.350693 196.774 0.350693C197.815 0.350693 197.815 1.13624 198.857 1.13624C199.898 1.13624 199.898 1.02402 200.949 1.02402C202 1.02402 201.991 0.0981939 203.041 0.0981939C204.092 0.0981939 204.083 0.757496 205.124 0.757496C206.166 0.757496 206.166 1.36069 207.207 1.36069C208.249 1.36069 208.249 0.252499 209.299 0.252499C210.35 0.252499 210.341 0.350693 211.382 0.350693C212.424 0.350693 212.424 0.813607 213.475 0.813607C214.525 0.813607 214.516 0.981939 215.567 0.981939C216.618 0.981939 216.608 1.34666 217.659 1.34666C218.71 1.34666 218.701 0.519025 219.751 0.519025C220.802 0.519025 220.793 0.0701385 221.844 0.0701385C222.894 0.0701385 222.885 0.701385 223.936 0.701385C224.987 0.701385 224.977 0.743468 226.019 0.743468C227.06 0.743468 227.06 1.09416 228.111 1.09416C229.162 1.09416 229.153 0.238471 230.203 0.238471C231.254 0.238471 231.254 0.252499 232.296 0.252499C233.337 0.252499 233.346 0.252499 234.388 0.252499C235.429 0.252499 235.439 0.448887 236.48 0.448887C237.522 0.448887 237.531 1.23444 238.572 1.23444C239.261 1.23444 239.874 1.45888 240.525 1.61319C241.176 1.76749 241.929 1.34666 242.571 1.65527C243.213 1.96388 243.826 2.42679 244.431 2.88971C245.035 3.35262 245.593 3.91373 246.142 4.51692C246.69 5.12011 247.239 5.70928 247.723 6.43872C248.206 7.16816 248.587 8.00982 248.987 8.83745C249.387 9.66509 249.647 10.5909 249.954 11.5027C250.261 12.4145 250.261 13.4385 250.466 14.4205C250.67 15.4024 251.21 16.188 251.321 17.198C251.433 18.208 251.368 19.2039 251.368 20.242C251.368 21.757 251.795 21.757 251.795 23.286C251.795 24.815 251.712 24.801 251.712 26.33C251.712 27.859 251.823 27.859 251.823 29.374C251.823 30.889 252 30.889 252 32.418C252 33.947 251.089 33.947 251.089 35.462C251.089 36.977 251.284 36.9911 251.284 38.506C251.284 40.021 251.544 40.021 251.544 41.5501C251.544 43.0791 251.414 43.0651 251.414 44.5941C251.414 46.1231 251.479 46.1231 251.479 47.6381C251.479 49.1531 251.07 49.1671 251.07 50.6821C251.07 52.1971 251.033 52.2111 251.033 53.7261C251.033 55.2411 251.898 55.2551 251.898 56.7841C251.898 58.3132 251.489 58.3132 251.489 59.8422C251.489 60.8802 251.73 61.9604 251.628 62.9563C251.526 63.9523 251.219 64.9763 251.005 65.9302C250.791 66.8841 249.982 67.4733 249.685 68.371C249.387 69.2688 249.052 70.0544 248.652 70.868C248.253 71.6816 247.862 72.383 247.388 73.1124C246.914 73.8418 246.969 75.5111 246.421 76.1143C245.872 76.7175 245.24 77.2927 244.635 77.7556C244.031 78.2185 243.082 77.4189 242.441 77.7415C241.799 78.0642 241.223 78.3728 240.553 78.5411C239.884 78.7095 239.279 78.9339 238.591 78.9339L238.535 78.8778Z"/>
</mask>
<path d="M238.535 78.8778C237.494 78.8778 237.494 79.1303 236.452 79.1303C235.411 79.1303 235.411 79.1443 234.369 79.1443C233.328 79.1443 233.328 78.7656 232.286 78.7656C231.245 78.7656 231.245 78.8357 230.203 78.8357C229.162 78.8357 229.162 78.7375 228.12 78.7375C227.079 78.7375 227.079 78.9199 226.037 78.9199C224.996 78.9199 224.996 78.5271 223.955 78.5271C222.913 78.5271 222.913 79.9158 221.872 79.9158C220.83 79.9158 220.83 79.8457 219.789 79.8457C218.747 79.8457 218.747 78.6674 217.706 78.6674C216.664 78.6674 216.664 78.6954 215.623 78.6954C214.581 78.6954 214.581 78.9058 213.54 78.9058C212.498 78.9058 212.498 79.6493 211.457 79.6493C210.415 79.6493 210.415 78.7936 209.374 78.7936C208.332 78.7936 208.332 79.3968 207.291 79.3968C206.249 79.3968 206.249 79.1303 205.208 79.1303C204.166 79.1303 204.167 79.0181 203.125 79.0181C202.084 79.0181 202.084 79.3407 201.042 79.3407C200.001 79.3407 200.001 79.6213 198.959 79.6213C197.918 79.6213 197.918 79.8597 196.876 79.8597C195.835 79.8597 195.835 79.1724 194.793 79.1724C193.752 79.1724 193.752 78.5271 192.71 78.5271C191.669 78.5271 191.669 79.481 190.627 79.481C189.586 79.481 189.586 78.6253 188.544 78.6253C187.503 78.6253 187.503 78.9339 186.461 78.9339C185.42 78.9339 185.42 79.6213 184.378 79.6213C183.337 79.6213 183.337 79.8457 182.296 79.8457C181.254 79.8457 181.254 78.7235 180.213 78.7235C179.171 78.7235 179.171 79.0461 178.13 79.0461C177.088 79.0461 177.088 79.2004 176.047 79.2004C175.005 79.2004 175.005 78.7375 173.964 78.7375C172.922 78.7375 172.922 78.7656 171.881 78.7656C170.839 78.7656 170.839 79.9579 169.798 79.9579C168.756 79.9579 168.756 78.8778 167.715 78.8778C166.673 78.8778 166.673 79.8317 165.632 79.8317C164.59 79.8317 164.59 78.8076 163.549 78.8076C162.507 78.8076 162.507 79.5231 161.466 79.5231C160.425 79.5231 160.425 79.9158 159.383 79.9158C158.342 79.9158 158.342 79.2565 157.3 79.2565C156.259 79.2565 156.259 79.9719 155.217 79.9719C154.176 79.9719 154.176 79.8036 153.134 79.8036C152.093 79.8036 152.093 78.8217 151.051 78.8217C150.01 78.8217 150.01 79.3688 148.968 79.3688C147.927 79.3688 147.927 78.7936 146.885 78.7936C145.844 78.7936 145.844 79.0882 144.802 79.0882C143.761 79.0882 143.761 79.1583 142.719 79.1583C141.678 79.1583 141.678 78.976 140.636 78.976C139.595 78.976 139.595 78.5972 138.554 78.5972C137.512 78.5972 137.512 79.6213 136.471 79.6213C135.429 79.6213 135.429 78.7375 134.388 78.7375C133.346 78.7375 133.346 79.8457 132.305 79.8457C131.263 79.8457 131.263 79.9299 130.222 79.9299C129.18 79.9299 129.18 79.495 128.139 79.495C127.097 79.495 127.097 79.2425 126.056 79.2425C125.014 79.2425 125.014 79.7896 123.973 79.7896C122.931 79.7896 122.931 79.6353 121.89 79.6353C120.848 79.6353 120.848 79.1022 119.807 79.1022C118.765 79.1022 118.765 78.7095 117.724 78.7095C116.683 78.7095 116.683 78.7095 115.641 78.7095C114.6 78.7095 114.6 78.5972 113.558 78.5972C112.517 78.5972 112.517 79.8737 111.466 79.8737C110.415 79.8737 110.424 79.0882 109.383 79.0882C108.341 79.0882 108.341 78.6253 107.3 78.6253C106.258 78.6253 106.258 79.3968 105.217 79.3968C104.176 79.3968 104.175 79.9158 103.134 79.9158C102.093 79.9158 102.093 79.8176 101.051 79.8176C100.01 79.8176 100.01 79.7054 98.9681 79.7054C97.9266 79.7054 97.9266 79.9018 96.8852 79.9018C95.8437 79.9018 95.8437 79.0742 94.7929 79.0742C93.7421 79.0742 93.7514 78.976 92.71 78.976C91.6685 78.976 91.6685 78.99 90.627 78.99C89.5855 78.99 89.5855 78.5972 88.5441 78.5972C87.5026 78.5972 87.5026 79.6774 86.4611 79.6774C85.4196 79.6774 85.4196 78.6253 84.3689 78.6253C83.3181 78.6253 83.3274 78.5551 82.2859 78.5551C81.2444 78.5551 81.2444 79.9719 80.203 79.9719C79.1615 79.9719 79.1615 79.2425 78.12 79.2425C77.0785 79.2425 77.0785 79.7756 76.037 79.7756C74.9956 79.7756 74.9956 79.4108 73.9448 79.4108C72.894 79.4108 72.9033 79.0461 71.8618 79.0461C70.8204 79.0461 70.8204 78.8497 69.7789 78.8497C68.7374 78.8497 68.7374 80 67.6866 80C66.6359 80 66.6452 79.8597 65.5944 79.8597C64.5436 79.8597 64.5529 78.5832 63.5114 78.5832C62.47 78.5832 62.47 79.509 61.4192 79.509C60.3684 79.509 60.3777 79.0461 59.3269 79.0461C58.2762 79.0461 58.2855 79.2846 57.244 79.2846C56.2025 79.2846 56.2025 78.8918 55.161 78.8918C54.1196 78.8918 54.1196 79.509 53.0781 79.509C52.0366 79.509 52.0366 79.6633 50.9858 79.6633C49.9351 79.6633 49.9444 79.8597 48.8936 79.8597C47.8428 79.8597 47.8521 79.7896 46.8106 79.7896C45.7692 79.7896 45.7692 79.8457 44.7277 79.8457C43.6862 79.8457 43.6862 79.6213 42.6354 79.6213C41.5847 79.6213 41.594 79.7475 40.5525 79.7475C39.511 79.7475 39.511 78.7936 38.4602 78.7936C37.4094 78.7936 37.4187 79.0882 36.368 79.0882C35.3172 79.0882 35.3265 79.004 34.2757 79.004C33.2249 79.004 33.2342 79.2565 32.1835 79.2565C31.1327 79.2565 31.142 79.3126 30.0912 79.3126C29.0404 79.3126 29.0497 79.7615 27.999 79.7615C26.9482 79.7615 26.9575 78.6113 25.916 78.6113C24.8745 78.6113 24.8745 79.4529 23.8238 79.4529C22.773 79.4529 22.7823 79.1443 21.7315 79.1443C20.6807 79.1443 20.6807 78.5972 19.6393 78.5972C18.5978 78.5972 18.5885 78.6533 17.547 78.6533C16.5055 78.6533 16.4962 78.5692 15.4548 78.5692C14.4133 78.5692 14.404 79.1303 13.3625 79.1303C12.6744 79.1303 11.977 79.3407 11.3261 79.1864C10.6751 79.0321 9.99631 78.6674 9.36399 78.3588C8.73166 78.0501 8.26672 77.0963 7.67159 76.6334C7.07646 76.1704 6.45343 75.8478 5.9141 75.2446C5.37476 74.6414 4.48207 74.6134 4.00782 73.8839C3.53358 73.1545 2.92915 72.4671 2.5293 71.6395C2.12945 70.8119 2.23173 69.4652 1.92487 68.5534C1.61801 67.6416 0.911292 66.9402 0.706716 65.9583C0.50214 64.9763 0.976384 63.7559 0.874096 62.7319C0.771808 61.7079 0.520738 60.782 0.520738 59.744C0.520738 58.229 0.864797 58.229 0.864797 56.7C0.864797 55.171 0.390553 55.185 0.390553 53.656C0.390553 52.127 0 52.127 0 50.612C0 49.097 0.58583 49.097 0.58583 47.5679C0.58583 46.0389 0.725314 46.0389 0.725314 44.5239C0.725314 43.0089 0.632325 42.9949 0.632325 41.4799C0.632325 39.9649 0.399852 39.9649 0.399852 38.4359C0.399852 36.9069 0.66952 36.9209 0.66952 35.3919C0.66952 33.8629 0.0650922 33.8629 0.0650922 32.3479C0.0650922 30.8329 0.762509 30.8189 0.762509 29.3039C0.762509 27.7889 0.697417 27.7749 0.697417 26.2599C0.697417 24.7449 0.511439 24.7308 0.511439 23.2018C0.511439 21.6728 0.232472 21.6728 0.232472 20.1438C0.232472 19.1057 0.799705 18.1518 0.911292 17.1559C1.02288 16.1599 1.37624 15.3042 1.58081 14.3503C1.78539 13.3965 1.86908 12.4285 2.17594 11.5167C2.4828 10.6049 2.78037 9.76328 3.18022 8.94968C3.58007 8.13607 3.59867 6.80344 4.07292 6.08802C4.54716 5.37261 5.54214 5.58303 6.09078 4.97984C6.63941 4.37664 6.97417 3.38068 7.5786 2.91776C8.18303 2.45485 8.83395 2.28652 9.48487 1.97791C10.1358 1.6693 10.7216 1.29055 11.4004 1.12222C12.0793 0.953884 12.7116 0.336665 13.3997 0.336665C14.4412 0.336665 14.4412 0.0280554 15.4827 0.0280554C16.5241 0.0280554 16.5241 1.06611 17.5656 1.06611C18.6071 1.06611 18.6071 1.00999 19.6486 1.00999C20.69 1.00999 20.69 0.785551 21.7315 0.785551C22.773 0.785551 22.773 0.140277 23.8145 0.140277C24.8559 0.140277 24.8559 0.967912 25.8974 0.967912C26.9389 0.967912 26.9389 1.13624 27.9804 1.13624C29.0218 1.13624 29.0218 0.589164 30.0633 0.589164C31.1048 0.589164 31.1048 0.210416 32.1463 0.210416C33.1878 0.210416 33.1877 0.336665 34.2292 0.336665C35.2707 0.336665 35.2707 1.13624 36.3122 1.13624C37.3537 1.13624 37.3537 1.34666 38.3951 1.34666C39.4366 1.34666 39.4366 0.631247 40.4781 0.631247C41.5196 0.631247 41.5196 0.785551 42.561 0.785551C43.6025 0.785551 43.6025 0.883745 44.644 0.883745C45.6855 0.883745 45.6855 0.519025 46.7269 0.519025C47.7684 0.519025 47.7684 1.27652 48.8099 1.27652C49.8514 1.27652 49.8514 0.729441 50.8928 0.729441C51.9343 0.729441 51.9343 0.841662 52.9758 0.841662C54.0173 0.841662 54.0173 0.715413 55.0587 0.715413C56.1002 0.715413 56.1002 0.112222 57.1417 0.112222C58.1832 0.112222 58.1832 0.785551 59.2247 0.785551C60.2661 0.785551 60.2661 1.08013 61.3076 1.08013C62.3491 1.08013 62.3491 0.995967 63.3906 0.995967C64.432 0.995967 64.432 0.154305 65.4735 0.154305C66.515 0.154305 66.515 0.67333 67.5565 0.67333C68.5979 0.67333 68.5979 0.911801 69.6394 0.911801C70.6809 0.911801 70.6809 0.18236 71.7224 0.18236C72.7638 0.18236 72.7638 0.0841662 73.8053 0.0841662C74.8468 0.0841662 74.8468 0.771524 75.8883 0.771524C76.9297 0.771524 76.9297 0.49097 77.9712 0.49097C79.0127 0.49097 79.0127 1.22041 80.0542 1.22041C81.0956 1.22041 81.0956 0.434859 82.1371 0.434859C83.1786 0.434859 83.1786 0.0841662 84.2201 0.0841662C85.2616 0.0841662 85.2615 0.85569 86.303 0.85569C87.3445 0.85569 87.3445 0.154305 88.386 0.154305C89.4275 0.154305 89.4275 1.3186 90.4689 1.3186C91.5104 1.3186 91.5104 0.687358 92.5519 0.687358C93.5934 0.687358 93.5934 0.434859 94.6348 0.434859C95.6763 0.434859 95.6763 1.13624 96.7178 1.13624C97.7593 1.13624 97.7593 0.154305 98.8007 0.154305C99.8422 0.154305 99.8422 1.20638 100.884 1.20638C101.925 1.20638 101.925 1.24847 102.967 1.24847C104.008 1.24847 104.008 0.561108 105.05 0.561108C106.091 0.561108 106.091 0.701385 107.133 0.701385C108.174 0.701385 108.174 0.224443 109.215 0.224443C110.257 0.224443 110.257 0.252499 111.298 0.252499C112.34 0.252499 112.34 1.36069 113.381 1.36069C114.423 1.36069 114.423 0.743468 115.464 0.743468C116.506 0.743468 116.506 0.967912 117.547 0.967912C118.589 0.967912 118.589 1.43083 119.63 1.43083C120.672 1.43083 120.672 0.322637 121.713 0.322637C122.755 0.322637 122.755 0.0280554 123.796 0.0280554C124.838 0.0280554 124.838 0.54708 125.879 0.54708C126.921 0.54708 126.921 0.238471 127.962 0.238471C129.004 0.238471 129.004 0.729441 130.045 0.729441C131.087 0.729441 131.086 0.54708 132.128 0.54708C133.169 0.54708 133.169 0.519025 134.211 0.519025C135.252 0.519025 135.252 0 136.294 0C137.335 0 137.335 0.476942 138.377 0.476942C139.418 0.476942 139.418 1.00999 140.469 1.00999C141.52 1.00999 141.511 0.575136 142.552 0.575136C143.594 0.575136 143.594 1.29055 144.635 1.29055C145.676 1.29055 145.676 0.462914 146.718 0.462914C147.759 0.462914 147.759 0.378748 148.801 0.378748C149.842 0.378748 149.842 0.336665 150.884 0.336665C151.925 0.336665 151.925 1.24847 152.967 1.24847C154.008 1.24847 154.008 0.252499 155.05 0.252499C156.091 0.252499 156.091 0.0280554 157.142 0.0280554C158.193 0.0280554 158.183 1.27652 159.225 1.27652C160.266 1.27652 160.266 1.34666 161.308 1.34666C162.349 1.34666 162.349 1.23444 163.391 1.23444C164.432 1.23444 164.432 1.1643 165.474 1.1643C166.515 1.1643 166.515 0.224443 167.566 0.224443C168.617 0.224443 168.608 0.0561108 169.649 0.0561108C170.69 0.0561108 170.69 1.27652 171.732 1.27652C172.773 1.27652 172.773 0.883745 173.815 0.883745C174.856 0.883745 174.856 0.0420831 175.898 0.0420831C176.939 0.0420831 176.939 0.687358 177.99 0.687358C179.041 0.687358 179.032 0.897773 180.073 0.897773C181.115 0.897773 181.115 0 182.156 0C183.197 0 183.198 0.0561108 184.248 0.0561108C185.299 0.0561108 185.29 0.140277 186.341 0.140277C187.391 0.140277 187.382 0.336665 188.423 0.336665C189.465 0.336665 189.465 0.224443 190.516 0.224443C191.567 0.224443 191.557 0.785551 192.608 0.785551C193.659 0.785551 193.649 1.15027 194.691 1.15027C195.732 1.15027 195.732 0.350693 196.774 0.350693C197.815 0.350693 197.815 1.13624 198.857 1.13624C199.898 1.13624 199.898 1.02402 200.949 1.02402C202 1.02402 201.991 0.0981939 203.041 0.0981939C204.092 0.0981939 204.083 0.757496 205.124 0.757496C206.166 0.757496 206.166 1.36069 207.207 1.36069C208.249 1.36069 208.249 0.252499 209.299 0.252499C210.35 0.252499 210.341 0.350693 211.382 0.350693C212.424 0.350693 212.424 0.813607 213.475 0.813607C214.525 0.813607 214.516 0.981939 215.567 0.981939C216.618 0.981939 216.608 1.34666 217.659 1.34666C218.71 1.34666 218.701 0.519025 219.751 0.519025C220.802 0.519025 220.793 0.0701385 221.844 0.0701385C222.894 0.0701385 222.885 0.701385 223.936 0.701385C224.987 0.701385 224.977 0.743468 226.019 0.743468C227.06 0.743468 227.06 1.09416 228.111 1.09416C229.162 1.09416 229.153 0.238471 230.203 0.238471C231.254 0.238471 231.254 0.252499 232.296 0.252499C233.337 0.252499 233.346 0.252499 234.388 0.252499C235.429 0.252499 235.439 0.448887 236.48 0.448887C237.522 0.448887 237.531 1.23444 238.572 1.23444C239.261 1.23444 239.874 1.45888 240.525 1.61319C241.176 1.76749 241.929 1.34666 242.571 1.65527C243.213 1.96388 243.826 2.42679 244.431 2.88971C245.035 3.35262 245.593 3.91373 246.142 4.51692C246.69 5.12011 247.239 5.70928 247.723 6.43872C248.206 7.16816 248.587 8.00982 248.987 8.83745C249.387 9.66509 249.647 10.5909 249.954 11.5027C250.261 12.4145 250.261 13.4385 250.466 14.4205C250.67 15.4024 251.21 16.188 251.321 17.198C251.433 18.208 251.368 19.2039 251.368 20.242C251.368 21.757 251.795 21.757 251.795 23.286C251.795 24.815 251.712 24.801 251.712 26.33C251.712 27.859 251.823 27.859 251.823 29.374C251.823 30.889 252 30.889 252 32.418C252 33.947 251.089 33.947 251.089 35.462C251.089 36.977 251.284 36.9911 251.284 38.506C251.284 40.021 251.544 40.021 251.544 41.5501C251.544 43.0791 251.414 43.0651 251.414 44.5941C251.414 46.1231 251.479 46.1231 251.479 47.6381C251.479 49.1531 251.07 49.1671 251.07 50.6821C251.07 52.1971 251.033 52.2111 251.033 53.7261C251.033 55.2411 251.898 55.2551 251.898 56.7841C251.898 58.3132 251.489 58.3132 251.489 59.8422C251.489 60.8802 251.73 61.9604 251.628 62.9563C251.526 63.9523 251.219 64.9763 251.005 65.9302C250.791 66.8841 249.982 67.4733 249.685 68.371C249.387 69.2688 249.052 70.0544 248.652 70.868C248.253 71.6816 247.862 72.383 247.388 73.1124C246.914 73.8418 246.969 75.5111 246.421 76.1143C245.872 76.7175 245.24 77.2927 244.635 77.7556C244.031 78.2185 243.082 77.4189 242.441 77.7415C241.799 78.0642 241.223 78.3728 240.553 78.5411C239.884 78.7095 239.279 78.9339 238.591 78.9339L238.535 78.8778Z" fill="white" stroke="black" stroke-width="2" stroke-miterlimit="10" mask="url(#path-1-inside-1_575_2844)"/>
</svg>
