<svg xmlns="http://www.w3.org/2000/svg" width="25" height="25" viewBox="0 0 25 25" fill="none">
<path d="M16.625 23.5C16.2354 23.5 15.9089 23.3682 15.6453 23.1047C15.3818 22.8411 15.25 22.5146 15.25 22.125C15.25 21.7354 15.3818 21.4089 15.6453 21.1453C15.9089 20.8818 16.2354 20.75 16.625 20.75H18.825L15.4219 17.3469C15.1469 17.0719 15.0151 16.7453 15.0266 16.3672C15.038 15.9891 15.1813 15.6625 15.4563 15.3875C15.7313 15.1125 16.0578 14.975 16.4359 14.975C16.8141 14.975 17.1406 15.1125 17.4156 15.3875L20.75 18.7563V16.625C20.75 16.2354 20.8818 15.9089 21.1453 15.6453C21.4089 15.3818 21.7354 15.25 22.125 15.25C22.5146 15.25 22.8411 15.3818 23.1047 15.6453C23.3682 15.9089 23.5 16.2354 23.5 16.625V22.125C23.5 22.5146 23.3682 22.8411 23.1047 23.1047C22.8411 23.3682 22.5146 23.5 22.125 23.5H16.625ZM1.9125 23.0875C1.66042 22.8354 1.53438 22.5146 1.53438 22.125C1.53438 21.7354 1.66042 21.4146 1.9125 21.1625L18.825 4.25H16.625C16.2354 4.25 15.9089 4.11823 15.6453 3.85469C15.3818 3.59115 15.25 3.26458 15.25 2.875C15.25 2.48542 15.3818 2.15885 15.6453 1.89531C15.9089 1.63177 16.2354 1.5 16.625 1.5H22.125C22.5146 1.5 22.8411 1.63177 23.1047 1.89531C23.3682 2.15885 23.5 2.48542 23.5 2.875V8.375C23.5 8.76458 23.3682 9.09115 23.1047 9.35469C22.8411 9.61823 22.5146 9.75 22.125 9.75C21.7354 9.75 21.4089 9.61823 21.1453 9.35469C20.8818 9.09115 20.75 8.76458 20.75 8.375V6.175L3.8375 23.0875C3.58542 23.3396 3.26458 23.4656 2.875 23.4656C2.48542 23.4656 2.16458 23.3396 1.9125 23.0875ZM1.87813 3.8375C1.62604 3.58542 1.5 3.26458 1.5 2.875C1.5 2.48542 1.62604 2.16458 1.87813 1.9125C2.13021 1.66042 2.44531 1.53438 2.82344 1.53438C3.20156 1.53438 3.52813 1.66042 3.80313 1.9125L9.57812 7.65312C9.83021 7.90521 9.96198 8.22031 9.97344 8.59844C9.9849 8.97656 9.85312 9.30312 9.57812 9.57812C9.32604 9.83021 9.00521 9.95625 8.61563 9.95625C8.22604 9.95625 7.90521 9.83021 7.65312 9.57812L1.87813 3.8375Z" fill="white"/>
</svg>